<svg width="20" height="20" viewBox="0 0 20 20" fill="none" xmlns="http://www.w3.org/2000/svg">
<path d="M19.4141 8.10613H4.65999L4.98666 7.77946C5.21548 7.55064 5.21548 7.17967 4.98666 6.95084C4.75788 6.72202 4.38687 6.72202 4.15804 6.95084L3.87047 7.23842V4.8835C3.87047 4.31273 4.33484 3.84837 4.90561 3.84837C5.47638 3.84837 5.94074 4.31273 5.94074 4.8835C5.94074 5.20709 6.20308 5.46943 6.52667 5.46943C6.85026 5.46943 7.1126 5.20709 7.1126 4.8835C7.1126 3.66657 6.12254 2.67651 4.90561 2.67651C3.68868 2.67651 2.69862 3.66657 2.69862 4.8835V7.23842L2.41105 6.95084C2.18226 6.72202 1.81125 6.72202 1.58243 6.95084C1.35361 7.17967 1.35361 7.55064 1.58243 7.77946L1.9091 8.10613H0.585926C0.262339 8.10613 0 8.36847 0 8.69206C0 9.01565 0.262339 9.27799 0.585926 9.27799H0.806351C1.10986 10.4269 1.41392 11.5758 1.71864 12.7244C2.08836 14.118 3.05471 15.189 4.30859 15.7019L3.76696 16.3696C3.56309 16.621 3.60161 16.9899 3.85289 17.1938C3.96145 17.2819 4.09195 17.3247 4.22164 17.3247C4.39214 17.3247 4.56124 17.2506 4.67702 17.1079L5.56563 16.0124C5.71602 16.0272 5.86832 16.0357 6.02273 16.0357H13.9788C14.1347 16.0357 14.2884 16.027 14.4402 16.012L15.3292 17.1079C15.4451 17.2506 15.6141 17.3247 15.7846 17.3247C15.9143 17.3247 16.0448 17.2819 16.1534 17.1938C16.4047 16.99 16.4432 16.621 16.2393 16.3697L15.6965 15.7006C16.9491 15.1869 17.9141 14.1161 18.2833 12.7232C18.6124 11.4806 18.9133 10.3488 19.199 9.27803H19.414C19.7376 9.27803 19.9999 9.01569 19.9999 8.6921C19.9999 8.36851 19.7377 8.10613 19.4141 8.10613ZM17.1505 12.423C16.7637 13.8829 15.4891 14.8638 13.9788 14.8638H6.02277C4.513 14.8638 3.23849 13.8833 2.85131 12.424C2.57315 11.3754 2.29535 10.3268 2.01816 9.27803H17.9862C17.7244 10.26 17.4491 11.2961 17.1505 12.423Z" fill="#B6BDC8"/>
</svg>
