<svg width="20" height="20" viewBox="0 0 20 20" fill="none" xmlns="http://www.w3.org/2000/svg">
<g clip-path="url(#clip0)">
<path d="M19.0236 10.0268V9.64594C19.0236 8.94426 18.6604 8.32618 18.1123 7.96875V3.81375C18.1123 2.72055 17.2229 1.83118 16.1297 1.83118H3.87027C2.77707 1.83118 1.88766 2.72055 1.88766 3.81375V7.96872C1.33961 8.32614 0.976328 8.94422 0.976328 9.6459V10.0268C0.415156 10.1746 0 10.6863 0 11.2932V15.7501C0 16.4513 0.553984 17.0254 1.24723 17.058V17.5855C1.24723 17.9084 1.50906 18.1703 1.83203 18.1703C2.155 18.1703 2.41684 17.9084 2.41684 17.5855V17.0596H17.5831V17.5855C17.5831 17.9084 17.845 18.1703 18.1679 18.1703C18.4909 18.1703 18.7527 17.9084 18.7527 17.5855V17.058C19.446 17.0254 20 16.4513 20 15.7501V11.2932C20 10.6863 19.5848 10.1746 19.0236 10.0268ZM3.0573 3.81375C3.0573 3.36547 3.42199 3.00079 3.87027 3.00079H16.1297C16.578 3.00079 16.9427 3.36547 16.9427 3.81375V7.6445H16.1629V6.61372C16.1629 5.89223 15.576 5.30524 14.8545 5.30524H11.7077C10.9862 5.30524 10.3992 5.89223 10.3992 6.61372V7.6445H9.60082V6.61372C9.60082 5.89223 9.01383 5.30524 8.29234 5.30524H5.14555C4.42402 5.30524 3.83707 5.89223 3.83707 6.61372V7.6445H3.0573V3.81375ZM14.9933 6.61368V7.50563C14.9933 7.58219 14.931 7.64446 14.8545 7.64446H11.7077C11.6311 7.64446 11.5688 7.58215 11.5688 7.50563V6.61368C11.5688 6.53711 11.6311 6.47485 11.7077 6.47485H14.8545C14.931 6.47485 14.9933 6.53711 14.9933 6.61368ZM8.43117 6.61368V7.50563C8.43117 7.58219 8.36887 7.64446 8.29234 7.64446H5.14555C5.06898 7.64446 5.00672 7.58215 5.00672 7.50563V6.61368C5.00672 6.53711 5.06902 6.47485 5.14555 6.47485H8.29234C8.36887 6.47485 8.43117 6.53711 8.43117 6.61368ZM2.14598 9.6459C2.14598 9.18723 2.51914 8.81411 2.97781 8.81411H17.0222C17.4809 8.81411 17.854 9.18727 17.854 9.6459V9.98372H2.14598V9.6459ZM18.8304 15.7501C18.8304 15.8272 18.7676 15.8899 18.6905 15.8899H1.30949C1.23238 15.8899 1.16961 15.8272 1.16961 15.7501V11.2932C1.16961 11.2161 1.23234 11.1534 1.30949 11.1534H18.6905C18.7676 11.1534 18.8304 11.2161 18.8304 11.2932V15.7501H18.8304Z" fill="#B6BDC8"/>
</g>
<defs>
<clipPath id="clip0">
<rect width="20" height="20" fill="white"/>
</clipPath>
</defs>
</svg>
