<svg width="20" height="20" viewBox="0 0 20 20" fill="none" xmlns="http://www.w3.org/2000/svg">
<path d="M3 16C3 15.4477 3.44772 15 4 15H16C16.5523 15 17 15.4477 17 16V18C17 18.5523 16.5523 19 16 19H4C3.44772 19 3 18.5523 3 18V16Z" fill="#4AB7AE" fill-opacity="0.7"/>
<path d="M1.64454 11.1873C1.73641 11.2008 1.82811 11.2074 1.9193 11.2074C2.13678 11.2074 2.3506 11.1689 2.55344 11.0947V18.3415C2.55344 18.7052 2.83922 19 3.19172 19H16.8083C17.1608 19 17.4466 18.7052 17.4466 18.3415V11.0947C17.6493 11.1687 17.8637 11.2071 18.0838 11.2071C18.684 11.2071 19.2571 10.9117 19.6166 10.4169C19.9235 9.99478 20.0527 9.47458 19.9804 8.95209C19.9081 8.42961 19.6428 7.96749 19.2336 7.65091L17.4466 6.26798V1.65854C17.4466 1.29485 17.1608 1 16.8083 1H14.2552C13.9027 1 13.6169 1.29485 13.6169 1.65854V3.30453L11.1485 1.39451C10.4722 0.871893 9.52768 0.871893 8.85119 1.39473L0.766398 7.65082C0.357178 7.96745 0.0919104 8.42957 0.0196149 8.95205C-0.052723 9.47453 0.0764642 9.99473 0.383262 10.4167C0.690103 10.839 1.13805 11.1127 1.64454 11.1873ZM3.83 17.6829V10.2194L10 5.44495L16.17 10.2194V17.6829H3.83ZM14.8935 2.31707H16.17V5.28018L14.8935 4.29238V2.31707ZM1.28336 9.13828C1.30744 8.96408 1.39591 8.81002 1.53233 8.70448L9.61682 2.44865C9.72963 2.36141 9.8649 2.31786 10.0001 2.31786C10.1352 2.31786 10.2703 2.36141 10.3829 2.44843L18.4678 8.70453C18.6041 8.81007 18.6926 8.96412 18.7167 9.13828C18.7408 9.31244 18.6978 9.48581 18.5953 9.62665C18.4737 9.79405 18.2873 9.89007 18.0838 9.89007C17.9453 9.89007 17.8132 9.8445 17.702 9.75854L10.383 4.0949C10.156 3.91929 9.84401 3.91929 9.61703 4.0949L2.29813 9.75845C2.1618 9.8639 1.99359 9.90816 1.82496 9.88344C1.65616 9.85859 1.50688 9.76736 1.40455 9.62648C1.3023 9.48582 1.25923 9.31244 1.28336 9.13828Z" fill="#4AB7AE"/>
<path d="M13.8298 10.2193H6.1705C5.818 10.2193 5.53223 10.5141 5.53223 10.8778V14.829C5.53223 15.1927 5.818 15.4876 6.1705 15.4876H13.8298C14.1823 15.4876 14.4681 15.1927 14.4681 14.829V10.8778C14.4681 10.5141 14.1823 10.2193 13.8298 10.2193ZM6.80878 11.5364H9.36188V14.1705H6.80878V11.5364ZM13.1915 14.1705H10.6384V11.5364H13.1915V14.1705Z" fill="#4AB7AE"/>
</svg>
