<svg width="90" height="30" fill="none" xmlns="http://www.w3.org/2000/svg"><path fill-rule="evenodd" clip-rule="evenodd" d="M53.837.325h2.468l9.715 10.251V.326h1.688v11.7h-2.55L55.525 1.863v10.161h-1.688V.325zm22.292 0h2.468l9.715 10.251V.326H90v11.7h-2.55L77.818 1.864v10.162h-1.689V.326zM40.955 29.253c-.938-.315-1.534-.908-1.788-1.786-.177-.6-.263-1.85-.263-3.741 0-1.924.082-3.17.248-3.74.25-.89.855-1.491 1.803-1.81.948-.318 2.593-.478 4.93-.478 2.354 0 3.991.156 4.925.467.933.315 1.53.916 1.796 1.801.175.605.265 1.858.265 3.76 0 1.913-.082 3.154-.248 3.726-.254.886-.851 1.486-1.788 1.8-.938.313-2.586.472-4.95.472-2.348 0-3.993-.159-4.93-.471zm15.67-2.91c0 .912.247 1.476.736 1.683.492.212 1.796.319 3.914.319 2.141 0 3.455-.107 3.94-.319.485-.207.73-.77.73-1.683v-8.3h1.688v8.297c0 1.608-.31 2.594-.927 2.962-.686.408-2.496.615-5.431.615-2.923 0-4.712-.197-5.362-.582-.65-.386-.977-1.387-.977-2.995v-8.297h1.688v8.3zm13.342-8.3v11.704h1.688v-4.238h7.482c1.027 0 1.827-.303 2.406-.92.582-.61.869-1.546.869-2.806 0-1.256-.284-2.198-.852-2.814-.567-.619-1.353-.926-2.359-.926h-9.234zm9.486 5.702H71.97v-4.323h7.463c.51 0 .902.175 1.185.523.28.352.42.901.42 1.646 0 .745-.143 1.294-.43 1.639-.284.345-.672.515-1.156.515zm-28.288.125c0 2.155-.233 3.434-.697 3.834-.463.4-1.997.6-4.6.6-2.604 0-4.138-.204-4.601-.607-.464-.408-.693-1.684-.693-3.827 0-2.168.226-3.45.686-3.85.456-.401 1.993-.598 4.608-.598 2.614 0 4.152.197 4.611.597.457.4.686 1.683.686 3.851zm-19.179-.125h-7.78v-4.323h7.78c.617 0 1.077.115 1.372.34.42.323.628.932.628 1.821 0 .89-.215 1.502-.646 1.836-.284.218-.737.326-1.354.326zm-9.45-5.702h10.161c.958 0 1.698.337 2.22 1.015.516.683.775 1.584.775 2.714 0 .968-.147 1.691-.445 2.17-.213.344-.546.618-1.01.822.407.17.726.393.96.667.33.39.495.868.495 1.44v2.876h-1.688v-2.884c0-.39-.18-.712-.54-.968-.354-.26-.785-.386-1.295-.386h-7.944v4.238h-1.688V18.042zm-9.68 10.142c-2.426 0-3.867-.203-4.32-.614-.452-.412-.678-1.698-.678-3.853 0-2.168.219-3.45.66-3.85.442-.401 1.89-.598 4.339-.598 2.296 0 3.707.115 4.235.352.531.234.793.92.793 2.054h1.688c0-1.754-.392-2.855-1.181-3.303-.79-.452-2.636-.674-5.535-.674-2.949 0-4.798.336-5.553 1.011-.757.679-1.134 2.34-1.134 4.99 0 2.651.38 4.323 1.142 5.02.761.689 2.607 1.038 5.545 1.038 2.888 0 4.73-.268 5.527-.793.794-.53 1.19-1.799 1.19-3.808v-1.568h-7.148v1.572h5.46c0 1.445-.244 2.313-.737 2.598-.489.286-1.921.427-4.292.427zm60.246-16.158h-1.688V.326h1.688v11.7zm-22.294 0h-1.687V.326h1.688v11.7zM36.559.326h1.688v10.132h8.674v1.568H36.557V.326zm-8.738 1.4l3.078 6.132h-6.587l3.081-6.132h.428zm1.096-1.4l5.954 11.7h-1.903l-1.34-2.595h-8.073l-1.326 2.595h-1.903l5.958-11.7h2.633zM8.872 9.942L3.014.326H0v11.7h1.688V1.897h.316l6.329 10.129h1.059l6.332-10.129h.33v10.129h1.688V.326H14.73L8.872 9.942z" fill="#000" opacity=".472"/></svg>