<svg width="129" height="94" fill="none" xmlns="http://www.w3.org/2000/svg"><path fill-rule="evenodd" clip-rule="evenodd" d="M12 55a1 1 0 1 0 0-2 1 1 0 0 0 0 2zM44 9a1 1 0 1 0 0-2 1 1 0 0 0 0 2zm73 46a1 1 0 1 0 0-2 1 1 0 0 0 0 2zM18 76a1 1 0 1 0 0-2 1 1 0 0 0 0 2zm32-46a1 1 0 1 0 0-2 1 1 0 0 0 0 2zm-15 3a1 1 0 1 0 0-2 1 1 0 0 0 0 2zm73 46a1 1 0 1 0 0-2 1 1 0 0 0 0 2zM22 43a1 1 0 1 0 0-2 1 1 0 0 0 0 2zm74-6a1 1 0 1 0 0-2 1 1 0 0 0 0 2zM16 61a1 1 0 1 0 0-2 1 1 0 0 0 0 2zm23 31a1 1 0 1 0 0-2 1 1 0 0 0 0 2zm43-5a1 1 0 1 0 0-2 1 1 0 0 0 0 2zm15 7a1 1 0 1 0 0-2 1 1 0 0 0 0 2zM48 15a1 1 0 1 0 0-2 1 1 0 0 0 0 2zm73 46a1 1 0 1 0 0-2 1 1 0 0 0 0 2zM5.5 58a.5.5 0 1 0 0-1 .5.5 0 0 0 0 1zm32-46a.5.5 0 1 0 0-1 .5.5 0 0 0 0 1zm73 46a.5.5 0 1 0 0-1 .5.5 0 0 0 0 1zm13-12a.5.5 0 1 0 0-1 .5.5 0 0 0 0 1zM4.5 64a.5.5 0 1 0 0-1 .5.5 0 0 0 0 1zm32-46a.5.5 0 1 0 0-1 .5.5 0 0 0 0 1zm73 46a.5.5 0 1 0 0-1 .5.5 0 0 0 0 1zM9.5 43a.5.5 0 1 0 0-1 .5.5 0 0 0 0 1zm105 0a.5.5 0 1 0 0-1 .5.5 0 0 0 0 1zm-31-6a.5.5 0 1 0 0-1 .5.5 0 0 0 0 1zm-60 18a.5.5 0 1 0 0-1 .5.5 0 0 0 0 1zm32-46a.5.5 0 1 0 0-1 .5.5 0 0 0 0 1zm73 46a.5.5 0 1 0 0-1 .5.5 0 0 0 0 1zm-108 13a.5.5 0 1 0 0-1 .5.5 0 0 0 0 1zm32-46a.5.5 0 1 0 0-1 .5.5 0 0 0 0 1zm73 46a.5.5 0 1 0 0-1 .5.5 0 0 0 0 1zm-115 2a.5.5 0 1 0 0-1 .5.5 0 0 0 0 1zm32-46a.5.5 0 1 0 0-1 .5.5 0 0 0 0 1zm73 46a.5.5 0 1 0 0-1 .5.5 0 0 0 0 1zm-100 12a.5.5 0 1 0 0-1 .5.5 0 0 0 0 1zm32-46a.5.5 0 1 0 0-1 .5.5 0 0 0 0 1zm73 43a.5.5 0 1 0 0-1 .5.5 0 0 0 0 1zm-88-42a.5.5 0 1 0 0-1 .5.5 0 0 0 0 1zm73 46a.5.5 0 1 0 0-1 .5.5 0 0 0 0 1zm-20 8a.5.5 0 1 0 0-1 .5.5 0 0 0 0 1zm-14 0a.5.5 0 1 0 0-1 .5.5 0 0 0 0 1zm-13-3a.5.5 0 1 0 0-1 .5.5 0 0 0 0 1zm-5 5a.5.5 0 1 0 0-1 .5.5 0 0 0 0 1zm-22-6a.5.5 0 1 0 0-1 .5.5 0 0 0 0 1zm-8 3a.5.5 0 1 0 0-1 .5.5 0 0 0 0 1zm-21-52a.5.5 0 1 0 0-1 .5.5 0 0 0 0 1zm105 0a.5.5 0 1 0 0-1 .5.5 0 0 0 0 1zm-31-6a.5.5 0 1 0 0-1 .5.5 0 0 0 0 1zm-51 5a.5.5 0 1 0 0-1 .5.5 0 0 0 0 1zm74-6a.5.5 0 1 0 0-1 .5.5 0 0 0 0 1zm-98 39a.5.5 0 1 0 0-1 .5.5 0 0 0 0 1zm32-46a.5.5 0 1 0 0-1 .5.5 0 0 0 0 1zm73 46a.5.5 0 1 0 0-1 .5.5 0 0 0 0 1zM12 7a1 1 0 1 0 0-2 1 1 0 0 0 0 2zm6 21a1 1 0 1 0 0-2 1 1 0 0 0 0 2zm105 0a1 1 0 1 0 0-2 1 1 0 0 0 0 2zm-31-6a1 1 0 1 0 0-2 1 1 0 0 0 0 2zm16 9a1 1 0 1 0 0-2 1 1 0 0 0 0 2zm-31-6a1 1 0 1 0 0-2 1 1 0 0 0 0 2zM16 13a1 1 0 1 0 0-2 1 1 0 0 0 0 2zm74-6a1 1 0 1 0 0-2 1 1 0 0 0 0 2zm20.5 3a.5.5 0 1 0 0-1 .5.5 0 0 0 0 1zm-1 6a.5.5 0 1 0 0-1 .5.5 0 0 0 0 1zm-31-6a.5.5 0 1 0 0-1 .5.5 0 0 0 0 1zm-55-3a.5.5 0 1 0 0-1 .5.5 0 0 0 0 1zm-3 13a.5.5 0 1 0 0-1 .5.5 0 0 0 0 1zm74-6a.5.5 0 1 0 0-1 .5.5 0 0 0 0 1zm-84 8a.5.5 0 1 0 0-1 .5.5 0 0 0 0 1zm105 0a.5.5 0 1 0 0-1 .5.5 0 0 0 0 1zm-31-6a.5.5 0 1 0 0-1 .5.5 0 0 0 0 1zm-69 18a.5.5 0 1 0 0-1 .5.5 0 0 0 0 1zm105 0a.5.5 0 1 0 0-1 .5.5 0 0 0 0 1zm-31-6a.5.5 0 1 0 0-1 .5.5 0 0 0 0 1zm-89 7a.5.5 0 1 0 0-1 .5.5 0 0 0 0 1zm105 0a.5.5 0 1 0 0-1 .5.5 0 0 0 0 1zm-31-6a.5.5 0 1 0 0-1 .5.5 0 0 0 0 1zm32-7a.5.5 0 1 0 0-1 .5.5 0 0 0 0 1zm-31-6a.5.5 0 1 0 0-1 .5.5 0 0 0 0 1zM37 42l22 4.166L38.358 50 37 42zm52.684 1L71 46.131 93 50l-3.316-7z" fill="#F60"/><path fill="#F60" d="M62 0h5v50h-5z"/><path fill-rule="evenodd" clip-rule="evenodd" d="M60 43h9l-.757 7H60.86L60 43z" fill="#F60"/><path fill="#F60" d="M30 39h3v44h-3zM58 0h2v41h-2zm11 0h2v41h-2zm27 39h3v44h-3zM33 80h63v3H33zm0-14h63v3H33zm0-14h63v3H33z"/><path fill="#F60" d="M33 39h27v2H33zm36 0h27v2H69zM41.485 70l.707.707-8.485 8.485-.707-.707zm24 0l.707.707-8.485 8.485-.707-.707zm-12 0l.707.707-8.485 8.485-.707-.707zm24 0l.707.707-8.485 8.485-.707-.707zm-30 0l.707.707-8.485 8.485-.707-.707zm24 0l.707.707-8.485 8.485-.707-.707zm-12 0l.707.707-8.485 8.485-.707-.707zm24 0l.707.707-8.485 8.485-.707-.707zm6 0l.707.707-8.485 8.485-.707-.707zm6 0l.707.707-8.485 8.485-.707-.707zm-54-14l.707.707-8.485 8.485-.707-.707zm24 0l.707.707-8.485 8.485-.707-.707zm-12 0l.707.707-8.485 8.485-.707-.707zm24 0l.707.707-8.485 8.485-.707-.707zm-30 0l.707.707-8.485 8.485-.707-.707zm24 0l.707.707-8.485 8.485-.707-.707zm-12 0l.707.707-8.485 8.485-.707-.707zm24 0l.707.707-8.485 8.485-.707-.707zm6 0l.707.707-8.485 8.485-.707-.707zm6 0l.707.707-8.485 8.485-.707-.707z"/></svg>