<svg width="171" height="88" fill="none" xmlns="http://www.w3.org/2000/svg"><path d="M22.751 1.632h50.246l57.019 60.165h37.858" stroke="#F60" stroke-width="3"/><path d="M29.756 2.1s12.58 38.04 40.645 55.124c28.066 17.083 60.926 4.616 60.926 4.616" stroke="#F60" stroke-width="3"/><path fill="#F60" d="M109.326 28.15l2.298 1.928-37.282 44.43-2.298-1.927zM69.227 72.827l5.361 4.5-1.928 2.297-5.362-4.499z"/><path fill="#F60" d="M75.927 60.174l2.298 1.928L67.3 75.124 65 73.196zm10.232 3.364l2.298 1.928-13.5 16.088-2.297-1.928zm5.452-52.92l2.298 1.928-38.567 45.963-2.298-1.929zM50.227 56.827l5.361 4.5-1.928 2.297-5.362-4.499zm5.415-11.121l2.298 1.928-9.642 11.49L46 57.196zm7.66 6.428l2.298 1.928-9.641 11.49-2.298-1.928z"/><path fill-rule="evenodd" clip-rule="evenodd" d="M28 41a1 1 0 1 0 0-2 1 1 0 0 0 0 2zm-9 25a1 1 0 1 0 0-2 1 1 0 0 0 0 2zm-8 14a1 1 0 1 0 0-2 1 1 0 0 0 0 2zm42 1a1 1 0 1 0 0-2 1 1 0 0 0 0 2zm-15 3a1 1 0 1 0 0-2 1 1 0 0 0 0 2zm34-34a1 1 0 1 0 0-2 1 1 0 0 0 0 2zm-7-26a1 1 0 1 0 0-2 1 1 0 0 0 0 2zM28 71a1 1 0 1 0 0-2 1 1 0 0 0 0 2zm4-20a1 1 0 1 0 0-2 1 1 0 0 0 0 2zm-21-8a1 1 0 1 0 0-2 1 1 0 0 0 0 2zm46 5a1 1 0 1 0 0-2 1 1 0 0 0 0 2zm-6 18a1 1 0 1 0 0-2 1 1 0 0 0 0 2zm-10.5-3a.5.5 0 1 0 0-1 .5.5 0 0 0 0 1zm-18-21a.5.5 0 1 0 0-1 .5.5 0 0 0 0 1zm17 29a.5.5 0 1 0 0-1 .5.5 0 0 0 0 1zm-19 4a.5.5 0 1 0 0-1 .5.5 0 0 0 0 1zm-12-8a.5.5 0 1 0 0-1 .5.5 0 0 0 0 1zm-7-12a.5.5 0 1 0 0-1 .5.5 0 0 0 0 1zm22-7a.5.5 0 1 0 0-1 .5.5 0 0 0 0 1zm21 0a.5.5 0 1 0 0-1 .5.5 0 0 0 0 1zm31-16a.5.5 0 1 0 0-1 .5.5 0 0 0 0 1zm-15 52a.5.5 0 1 0 0-1 .5.5 0 0 0 0 1zm13-25a.5.5 0 1 0 0-1 .5.5 0 0 0 0 1zm-2-42a.5.5 0 1 0 0-1 .5.5 0 0 0 0 1zm-8 19a.5.5 0 1 0 0-1 .5.5 0 0 0 0 1zm-48 19a.5.5 0 1 0 0-1 .5.5 0 0 0 0 1zm45 2a.5.5 0 1 0 0-1 .5.5 0 0 0 0 1zm-5 18a.5.5 0 1 0 0-1 .5.5 0 0 0 0 1zm10-11a.5.5 0 1 0 0-1 .5.5 0 0 0 0 1zm-20 11a.5.5 0 1 0 0-1 .5.5 0 0 0 0 1zm5 12a.5.5 0 1 0 0-1 .5.5 0 0 0 0 1zm-22-8a.5.5 0 1 0 0-1 .5.5 0 0 0 0 1zm7 9a.5.5 0 1 0 0-1 .5.5 0 0 0 0 1zm-11-2a.5.5 0 1 0 0-1 .5.5 0 0 0 0 1zM.5 69a.5.5 0 1 0 0-1 .5.5 0 0 0 0 1zm37-26a.5.5 0 1 0 0-1 .5.5 0 0 0 0 1zm-1 32a.5.5 0 1 0 0-1 .5.5 0 0 0 0 1zM10 7a1 1 0 1 0 0-2 1 1 0 0 0 0 2zm10 8a1 1 0 1 0 0-2 1 1 0 0 0 0 2zm27-5a1 1 0 1 0 0-2 1 1 0 0 0 0 2zm6 21a1 1 0 1 0 0-2 1 1 0 0 0 0 2zM28 21a1 1 0 1 0 0-2 1 1 0 0 0 0 2zm23-5a1 1 0 1 0 0-2 1 1 0 0 0 0 2zm-10.5-3a.5.5 0 1 0 0-1 .5.5 0 0 0 0 1zm-9-5a.5.5 0 1 0 0-1 .5.5 0 0 0 0 1zm0 5a.5.5 0 1 0 0-1 .5.5 0 0 0 0 1zm8 6a.5.5 0 1 0 0-1 .5.5 0 0 0 0 1zm-19 6a.5.5 0 1 0 0-1 .5.5 0 0 0 0 1zm-12-8a.5.5 0 1 0 0-1 .5.5 0 0 0 0 1zm-7-12a.5.5 0 1 0 0-1 .5.5 0 0 0 0 1zm57 5a.5.5 0 1 0 0-1 .5.5 0 0 0 0 1zm-3 13a.5.5 0 1 0 0-1 .5.5 0 0 0 0 1zm-10 2a.5.5 0 1 0 0-1 .5.5 0 0 0 0 1zm5 12a.5.5 0 1 0 0-1 .5.5 0 0 0 0 1zm-15 1a.5.5 0 1 0 0-1 .5.5 0 0 0 0 1zm-11-2a.5.5 0 1 0 0-1 .5.5 0 0 0 0 1zm-12-2a.5.5 0 1 0 0-1 .5.5 0 0 0 0 1zm-11-5a.5.5 0 1 0 0-1 .5.5 0 0 0 0 1zm2 7a.5.5 0 1 0 0-1 .5.5 0 0 0 0 1zm-3-17a.5.5 0 1 0 0-1 .5.5 0 0 0 0 1zm22-15a.5.5 0 1 0 0-1 .5.5 0 0 0 0 1zm14 21a.5.5 0 1 0 0-1 .5.5 0 0 0 0 1zM100 45a1 1 0 1 0 2 0 1 1 0 0 0-2 0zm10 32a1 1 0 1 0 2 0 1 1 0 0 0-2 0zm-25 2a1 1 0 1 0 2 0 1 1 0 0 0-2 0zm-3-15a1 1 0 1 0 2 0 1 1 0 0 0-2 0zm-8 21a1 1 0 1 0 2 0 1 1 0 0 0-2 0zm14-55a1 1 0 1 0 2 0 1 1 0 0 0-2 0zm-6 13a1 1 0 1 0 2 0 1 1 0 0 0-2 0zm13 11a1 1 0 1 0 2 0 1 1 0 0 0-2 0zm7 6a1 1 0 1 0 2 0 1 1 0 0 0-2 0zm13-2a1 1 0 1 0 2 0 1 1 0 0 0-2 0zm3 25a1 1 0 1 0 2 0 1 1 0 0 0-2 0zm-18-6a1 1 0 1 0 2 0 1 1 0 0 0-2 0zm3-10.5a.5.5 0 1 0 1 0 .5.5 0 0 0-1 0zm-8-1a.5.5 0 1 0 1 0 .5.5 0 0 0-1 0zm-4-19a.5.5 0 1 0 1 0 .5.5 0 0 0-1 0zm8-12a.5.5 0 1 0 1 0 .5.5 0 0 0-1 0zm19 15a.5.5 0 1 0 1 0 .5.5 0 0 0-1 0zm0 21a.5.5 0 1 0 1 0 .5.5 0 0 0-1 0zm-36 16a.5.5 0 1 0 1 0 .5.5 0 0 0-1 0zm27 0a.5.5 0 1 0 1 0 .5.5 0 0 0-1 0zm-18-5a.5.5 0 1 0 1 0 .5.5 0 0 0-1 0zm0-10a.5.5 0 1 0 1 0 .5.5 0 0 0-1 0zm-13-10a.5.5 0 1 0 1 0 .5.5 0 0 0-1 0zm2-11a.5.5 0 1 0 1 0 .5.5 0 0 0-1 0zm2-12a.5.5 0 1 0 1 0 .5.5 0 0 0-1 0zm5-11a.5.5 0 1 0 1 0 .5.5 0 0 0-1 0zm-7 2a.5.5 0 1 0 1 0 .5.5 0 0 0-1 0zm17-3a.5.5 0 1 0 1 0 .5.5 0 0 0-1 0zm26 37a.5.5 0 1 0 1 0 .5.5 0 0 0-1 0zm-32-1a.5.5 0 1 0 1 0 .5.5 0 0 0-1 0zM156 73a1 1 0 1 0 2 0 1 1 0 0 0-2 0zm-21 6a1 1 0 1 0 2 0 1 1 0 0 0-2 0zm15-2a1 1 0 1 0 2 0 1 1 0 0 0-2 0zm3-10.5a.5.5 0 1 0 1 0 .5.5 0 0 0-1 0zm-6-1a.5.5 0 1 0 1 0 .5.5 0 0 0-1 0zm9 19a.5.5 0 1 0 1 0 .5.5 0 0 0-1 0zm-13-3a.5.5 0 1 0 1 0 .5.5 0 0 0-1 0zm-2-10a.5.5 0 1 0 1 0 .5.5 0 0 0-1 0zm-12 5a.5.5 0 1 0 1 0 .5.5 0 0 0-1 0zm-1-15a.5.5 0 1 0 1 0 .5.5 0 0 0-1 0zm13 1a.5.5 0 1 0 1 0 .5.5 0 0 0-1 0zm29 14a.5.5 0 1 0 1 0 .5.5 0 0 0-1 0zm-1-15a.5.5 0 1 0 1 0 .5.5 0 0 0-1 0z" fill="#F60"/></svg>