<svg width="131" height="97" fill="none" xmlns="http://www.w3.org/2000/svg"><path fill-rule="evenodd" clip-rule="evenodd" d="M12 56a1 1 0 1 0 0-2 1 1 0 0 0 0 2zm105 0a1 1 0 1 0 0-2 1 1 0 0 0 0 2zM18 77a1 1 0 1 0 0-2 1 1 0 0 0 0 2zm26 16a1 1 0 1 0 0-2 1 1 0 0 0 0 2zm43 4a1 1 0 1 0 0-2 1 1 0 0 0 0 2zm-15-7a1 1 0 1 0 0-2 1 1 0 0 0 0 2zm51-13a1 1 0 1 0 0-2 1 1 0 0 0 0 2zM3 80a1 1 0 1 0 0-2 1 1 0 0 0 0 2zm105 0a1 1 0 1 0 0-2 1 1 0 0 0 0 2zM22 44a1 1 0 1 0 0-2 1 1 0 0 0 0 2zm105 0a1 1 0 1 0 0-2 1 1 0 0 0 0 2zM16 62a1 1 0 1 0 0-2 1 1 0 0 0 0 2zm105 0a1 1 0 1 0 0-2 1 1 0 0 0 0 2zM5.5 59a.5.5 0 1 0 0-1 .5.5 0 0 0 0 1zm105 0a.5.5 0 1 0 0-1 .5.5 0 0 0 0 1zm-106 6a.5.5 0 1 0 0-1 .5.5 0 0 0 0 1zm105 0a.5.5 0 1 0 0-1 .5.5 0 0 0 0 1zM9.5 44a.5.5 0 1 0 0-1 .5.5 0 0 0 0 1zm105 0a.5.5 0 1 0 0-1 .5.5 0 0 0 0 1zm-91 12a.5.5 0 1 0 0-1 .5.5 0 0 0 0 1zm105 0a.5.5 0 1 0 0-1 .5.5 0 0 0 0 1zm-108 13a.5.5 0 1 0 0-1 .5.5 0 0 0 0 1zm105 0a.5.5 0 1 0 0-1 .5.5 0 0 0 0 1zm-115 2a.5.5 0 1 0 0-1 .5.5 0 0 0 0 1zm105 0a.5.5 0 1 0 0-1 .5.5 0 0 0 0 1zm-100 12a.5.5 0 1 0 0-1 .5.5 0 0 0 0 1zm12 13a.5.5 0 1 0 0-1 .5.5 0 0 0 0 1zm31-3a.5.5 0 1 0 0-1 .5.5 0 0 0 0 1zm17 4a.5.5 0 1 0 0-1 .5.5 0 0 0 0 1zm28-5a.5.5 0 1 0 0-1 .5.5 0 0 0 0 1zm17-9a.5.5 0 1 0 0-1 .5.5 0 0 0 0 1zM.5 84a.5.5 0 1 0 0-1 .5.5 0 0 0 0 1zm105 0a.5.5 0 1 0 0-1 .5.5 0 0 0 0 1zM2.5 39a.5.5 0 1 0 0-1 .5.5 0 0 0 0 1zm105 0a.5.5 0 1 0 0-1 .5.5 0 0 0 0 1zm-82-1a.5.5 0 1 0 0-1 .5.5 0 0 0 0 1zm105 0a.5.5 0 1 0 0-1 .5.5 0 0 0 0 1zM1.5 71a.5.5 0 1 0 0-1 .5.5 0 0 0 0 1zm105 0a.5.5 0 1 0 0-1 .5.5 0 0 0 0 1zM12 8a1 1 0 1 0 0-2 1 1 0 0 0 0 2zm105 0a1 1 0 1 0 0-2 1 1 0 0 0 0 2zM18 29a1 1 0 1 0 0-2 1 1 0 0 0 0 2zm105 0a1 1 0 1 0 0-2 1 1 0 0 0 0 2zM3 32a1 1 0 1 0 0-2 1 1 0 0 0 0 2zm105 0a1 1 0 1 0 0-2 1 1 0 0 0 0 2zM16 14a1 1 0 1 0 0-2 1 1 0 0 0 0 2zm105 0a1 1 0 1 0 0-2 1 1 0 0 0 0 2zM5.5 11a.5.5 0 1 0 0-1 .5.5 0 0 0 0 1zm105 0a.5.5 0 1 0 0-1 .5.5 0 0 0 0 1zm-106 6a.5.5 0 1 0 0-1 .5.5 0 0 0 0 1zm105 0a.5.5 0 1 0 0-1 .5.5 0 0 0 0 1zm-86-9a.5.5 0 1 0 0-1 .5.5 0 0 0 0 1zm105 0a.5.5 0 1 0 0-1 .5.5 0 0 0 0 1zm-108 13a.5.5 0 1 0 0-1 .5.5 0 0 0 0 1zm105 0a.5.5 0 1 0 0-1 .5.5 0 0 0 0 1zm-115 2a.5.5 0 1 0 0-1 .5.5 0 0 0 0 1zm105 0a.5.5 0 1 0 0-1 .5.5 0 0 0 0 1zm-100 12a.5.5 0 1 0 0-1 .5.5 0 0 0 0 1zm105 0a.5.5 0 1 0 0-1 .5.5 0 0 0 0 1zM.5 36a.5.5 0 1 0 0-1 .5.5 0 0 0 0 1zm105 0a.5.5 0 1 0 0-1 .5.5 0 0 0 0 1zM1.5 23a.5.5 0 1 0 0-1 .5.5 0 0 0 0 1zm105 0a.5.5 0 1 0 0-1 .5.5 0 0 0 0 1z" fill="#F60"/><path fill="#F60" d="M29 0h3v86h-3zm71 0h3v86h-3zM32 20h6v66h-6z"/><path fill="#F60" d="M31 77h70v9H31z"/><path fill="#F60" d="M94 20h6v66h-6z"/></svg>