<svg width="96" height="91" fill="none" xmlns="http://www.w3.org/2000/svg"><path fill="#F60" d="M9 11h4v18H9zm0 27h4v18H9zm4-38h3v87h-3z"/><path fill="#F60" d="M2.294 46.727l.776-2.897 81.14 21.74-.777 2.898zm82.552 24.191l1.812-6.762 2.898.777-1.812 6.761z"/><path fill="#F60" d="M24.182 57.769l.777-2.898 62.784 16.823-.776 2.898zm-.309-10.436l.776-2.898 65.682 17.6-.776 2.897zM2.294 19.727l.776-2.897 81.14 21.74-.777 2.898zm82.552 24.191l1.812-6.762 2.898.777-1.812 6.761z"/><path fill="#F60" d="M24.182 30.769l.777-2.898 62.784 16.823-.776 2.898zm-.309-10.436l.776-2.898 65.682 17.6-.776 2.897z"/><path fill-rule="evenodd" clip-rule="evenodd" d="M48 40a1 1 0 1 0 0-2 1 1 0 0 0 0 2zm-9 25a1 1 0 1 0 0-2 1 1 0 0 0 0 2zm32-10a1 1 0 1 0 0-2 1 1 0 0 0 0 2zm2 25a1 1 0 1 0 0-2 1 1 0 0 0 0 2zm-15 3a1 1 0 1 0 0-2 1 1 0 0 0 0 2zm21 8a1 1 0 1 0 0-2 1 1 0 0 0 0 2zm13-17a1 1 0 1 0 0-2 1 1 0 0 0 0 2zm-4-21a1 1 0 1 0 0-2 1 1 0 0 0 0 2zm-3-30a1 1 0 1 0 0-2 1 1 0 0 0 0 2zM24 77a1 1 0 1 0 0-2 1 1 0 0 0 0 2zm13 6a1 1 0 1 0 0-2 1 1 0 0 0 0 2zm11-13a1 1 0 1 0 0-2 1 1 0 0 0 0 2zm4-20a1 1 0 1 0 0-2 1 1 0 0 0 0 2zm-21-8a1 1 0 1 0 0-2 1 1 0 0 0 0 2zm46 5a1 1 0 1 0 0-2 1 1 0 0 0 0 2zm-6 18a1 1 0 1 0 0-2 1 1 0 0 0 0 2zm-10.5-3a.5.5 0 1 0 0-1 .5.5 0 0 0 0 1zm-18-21a.5.5 0 1 0 0-1 .5.5 0 0 0 0 1zm17 29a.5.5 0 1 0 0-1 .5.5 0 0 0 0 1zm-19 4a.5.5 0 1 0 0-1 .5.5 0 0 0 0 1zm-12-8a.5.5 0 1 0 0-1 .5.5 0 0 0 0 1zm-7-12a.5.5 0 1 0 0-1 .5.5 0 0 0 0 1zm22-7a.5.5 0 1 0 0-1 .5.5 0 0 0 0 1zm21 0a.5.5 0 1 0 0-1 .5.5 0 0 0 0 1zm31-16a.5.5 0 1 0 0-1 .5.5 0 0 0 0 1zm-15 52a.5.5 0 1 0 0-1 .5.5 0 0 0 0 1zm13-25a.5.5 0 1 0 0-1 .5.5 0 0 0 0 1zm-2-42a.5.5 0 1 0 0-1 .5.5 0 0 0 0 1zm-11 40a.5.5 0 1 0 0-1 .5.5 0 0 0 0 1zm-5 18a.5.5 0 1 0 0-1 .5.5 0 0 0 0 1zm-10 0a.5.5 0 1 0 0-1 .5.5 0 0 0 0 1zm5 12a.5.5 0 1 0 0-1 .5.5 0 0 0 0 1zm-22-8a.5.5 0 1 0 0-1 .5.5 0 0 0 0 1zm7 9a.5.5 0 1 0 0-1 .5.5 0 0 0 0 1zm-11-2a.5.5 0 1 0 0-1 .5.5 0 0 0 0 1zm-12-2a.5.5 0 1 0 0-1 .5.5 0 0 0 0 1zm-11-5a.5.5 0 1 0 0-1 .5.5 0 0 0 0 1zm2 7a.5.5 0 1 0 0-1 .5.5 0 0 0 0 1zm-3-17a.5.5 0 1 0 0-1 .5.5 0 0 0 0 1zm37-26a.5.5 0 1 0 0-1 .5.5 0 0 0 0 1zm-1 32a.5.5 0 1 0 0-1 .5.5 0 0 0 0 1zM30 6a1 1 0 1 0 0-2 1 1 0 0 0 0 2zm10 8a1 1 0 1 0 0-2 1 1 0 0 0 0 2zm27-5a1 1 0 1 0 0-2 1 1 0 0 0 0 2zm6 21a1 1 0 1 0 0-2 1 1 0 0 0 0 2zM48 20a1 1 0 1 0 0-2 1 1 0 0 0 0 2zm23-5a1 1 0 1 0 0-2 1 1 0 0 0 0 2zm-10.5-3a.5.5 0 1 0 0-1 .5.5 0 0 0 0 1zm-9-5a.5.5 0 1 0 0-1 .5.5 0 0 0 0 1zm0 5a.5.5 0 1 0 0-1 .5.5 0 0 0 0 1zm8 6a.5.5 0 1 0 0-1 .5.5 0 0 0 0 1zm-19 6a.5.5 0 1 0 0-1 .5.5 0 0 0 0 1zm-12-8a.5.5 0 1 0 0-1 .5.5 0 0 0 0 1zm-7-12a.5.5 0 1 0 0-1 .5.5 0 0 0 0 1zm57 5a.5.5 0 1 0 0-1 .5.5 0 0 0 0 1zm-3 13a.5.5 0 1 0 0-1 .5.5 0 0 0 0 1zm-10 2a.5.5 0 1 0 0-1 .5.5 0 0 0 0 1zm5 12a.5.5 0 1 0 0-1 .5.5 0 0 0 0 1zm-15 1a.5.5 0 1 0 0-1 .5.5 0 0 0 0 1zm-11-2a.5.5 0 1 0 0-1 .5.5 0 0 0 0 1zm-12-2a.5.5 0 1 0 0-1 .5.5 0 0 0 0 1zm-11-5a.5.5 0 1 0 0-1 .5.5 0 0 0 0 1zm2 7a.5.5 0 1 0 0-1 .5.5 0 0 0 0 1zm-3-17a.5.5 0 1 0 0-1 .5.5 0 0 0 0 1zm22-15a.5.5 0 1 0 0-1 .5.5 0 0 0 0 1zm14 21a.5.5 0 1 0 0-1 .5.5 0 0 0 0 1z" fill="#F60"/></svg>