<?xml version="1.0" encoding="UTF-8"?>
<!DOCTYPE svg PUBLIC "-//W3C//DTD SVG 1.1//EN" "http://www.w3.org/Graphics/SVG/1.1/DTD/svg11.dtd">
<!-- Creator: CorelDRAW 2017 -->
<svg xmlns="http://www.w3.org/2000/svg" xml:space="preserve" width="200px" height="204px" version="1.1" shape-rendering="geometricPrecision" text-rendering="geometricPrecision" image-rendering="optimizeQuality" fill-rule="evenodd" clip-rule="evenodd"
viewBox="0 0 16.15 16.45"
 xmlns:xlink="http://www.w3.org/1999/xlink">
 <g id="Слой_x0020_1">
  <metadata id="CorelCorpID_0Corel-Layer"/>
  <path fill="white" d="M5.96 6.28l0 3.85c0,0.57 0.31,0.66 0.77,0.96l5.89 3.68c0.38,0.23 1.44,1.04 1.96,0.91 0.22,-0.05 0.38,-0.33 0.38,-0.51l0 -13.97c0,-0.25 -0.13,-0.46 -0.53,-0.46 -0.48,0 -1.92,1.01 -2.3,1.25 -0.75,0.47 -1.44,0.9 -2.19,1.37l-2.71 1.65c-0.82,0.47 -1.27,0.69 -1.27,1.27zm-4.77 -0.29c0,-0.46 0.86,-0.37 1.59,-0.37 0.71,0 1.41,0 2.12,0l0 5.21c-0.73,0 -1.46,0 -2.19,0 -0.71,0 -1.52,0.08 -1.52,-0.37l0 -4.47zm-1.19 0l0 4.47c0,0.52 0.59,0.96 1.25,1.07 0.71,0.13 3.44,-0.01 4.38,0.04 0.4,0.02 0.63,0.26 0.87,0.41l5.99 3.74c0.39,0.24 1.11,0.73 1.87,0.73 1.13,0 1.79,-0.61 1.79,-1.32l0 -13.97c0,-0.6 -0.64,-1.16 -1.72,-1.16 -1.03,0 -1.79,0.64 -2.6,1.15 -0.28,0.17 -0.52,0.28 -0.79,0.45 -0.29,0.18 -5.06,3.23 -5.3,3.27 -0.35,0.06 -3.77,-0.07 -4.43,0.04 -0.71,0.11 -1.31,0.55 -1.31,1.08z"/>
 </g>
</svg>
