<svg width="108" height="103" viewBox="0 0 108 103" fill="none" xmlns="http://www.w3.org/2000/svg">
<g filter="url(#filter0_d_452_2664)">
<path d="M47.7572 71.6657C49.4743 73.4055 51.742 74.2744 54.0103 74.2744C56.2786 74.2744 58.5469 73.4055 60.2634 71.6657L89.2608 42.2868C92.6326 38.8707 93.001 33.2185 89.7512 29.6781C86.3181 25.8893 80.4941 25.7651 76.939 29.3676L58.3023 48.1874C55.912 50.6098 52.0492 50.6098 49.6583 48.1874L31.0828 29.3676C27.5265 25.7651 21.7025 25.8272 18.27 29.6781C15.0208 33.2185 15.3274 38.8707 18.7605 42.2868L47.7572 71.6657Z" fill="url(#paint0_linear_452_2664)"/>
<path d="M47.7572 71.6657C49.4743 73.4055 51.742 74.2744 54.0103 74.2744C56.2786 74.2744 58.5469 73.4055 60.2634 71.6657L89.2608 42.2868C92.6326 38.8707 93.001 33.2185 89.7512 29.6781C86.3181 25.8893 80.4941 25.7651 76.939 29.3676L58.3023 48.1874C55.912 50.6098 52.0492 50.6098 49.6583 48.1874L31.0828 29.3676C27.5265 25.7651 21.7025 25.8272 18.27 29.6781C15.0208 33.2185 15.3274 38.8707 18.7605 42.2868L47.7572 71.6657Z" fill="white" fill-opacity="0.83"/>
</g>
<defs>
<filter id="filter0_d_452_2664" x="0.000488281" y="22.7261" width="107.999" height="79.5483" filterUnits="userSpaceOnUse" color-interpolation-filters="sRGB">
<feFlood flood-opacity="0" result="BackgroundImageFix"/>
<feColorMatrix in="SourceAlpha" type="matrix" values="0 0 0 0 0 0 0 0 0 0 0 0 0 0 0 0 0 0 127 0" result="hardAlpha"/>
<feOffset dy="12"/>
<feGaussianBlur stdDeviation="8"/>
<feComposite in2="hardAlpha" operator="out"/>
<feColorMatrix type="matrix" values="0 0 0 0 0.122233 0 0 0 0 0.0316667 0 0 0 0 0.2375 0 0 0 0.32 0"/>
<feBlend mode="normal" in2="BackgroundImageFix" result="effect1_dropShadow_452_2664"/>
<feBlend mode="normal" in="SourceGraphic" in2="effect1_dropShadow_452_2664" result="shape"/>
</filter>
<linearGradient id="paint0_linear_452_2664" x1="54" y1="73.9998" x2="54" y2="10.4998" gradientUnits="userSpaceOnUse">
<stop stop-color="#F4DCFF"/>
<stop offset="1" stop-color="#6E3DAF"/>
</linearGradient>
</defs>
</svg>
