<svg width="338" height="60" viewBox="0 0 338 60" fill="none" xmlns="http://www.w3.org/2000/svg">
<path d="M381.892 -63.0771C373.728 -36.3542 357.297 -12.6735 339.366 8.43618C323.506 27.1078 305.73 43.4445 284.185 55.3449C264.365 66.2921 242.303 74.3538 220.388 79.8465C184.752 88.7781 142.957 91.4448 108.257 76.9943" stroke="#381962" stroke-width="2" stroke-linecap="round"/>
<circle cx="313.182" cy="42.4084" r="2.98931" transform="rotate(-2.99069 313.182 42.4084)" fill="#E820B0"/>
<ellipse opacity="0.8" cx="295.139" cy="55.1408" rx="2.98931" ry="2.98931" transform="rotate(-2.99068 295.139 55.1408)" fill="#FFB03A"/>
<ellipse opacity="0.8" cx="329.139" cy="27.1408" rx="2.98931" ry="2.98931" transform="rotate(-2.9907 329.139 27.1408)" fill="#00D0BA"/>
<path d="M146.941 -233.353C145.758 -200.658 154.886 -168.17 166.657 -137.952C177.069 -111.225 190.495 -86.3494 209.787 -64.9417C227.535 -45.249 248.867 -27.8918 271.019 -13.4336C307.04 10.0762 352.273 29.0085 396.199 26.2851" stroke="#381962" stroke-width="2" stroke-linecap="round"/>
<circle opacity="0.8" r="3.5" transform="matrix(-0.926846 -0.375442 -0.375442 0.926846 291.558 7.55613)" fill="#E820B0"/>
<circle opacity="0.8" r="3.5" transform="matrix(-0.926846 -0.375442 -0.375442 0.926846 314.572 18.1211)" fill="white"/>
<circle cx="336.109" cy="57.8366" r="3.5" transform="rotate(-47.9611 336.109 57.8366)" fill="#00D0BA"/>
<path d="M-108.059 -191.352C-109.241 -158.658 -100.113 -126.169 -88.3417 -95.9522C-77.9296 -69.2251 -64.5042 -44.3492 -45.2116 -22.9415C-27.4645 -3.24871 -6.13206 14.1085 16.0201 28.5667C52.0407 52.0765 97.274 71.0088 141.2 68.2853" stroke="#381962" stroke-width="2" stroke-linecap="round"/>
<circle opacity="0.8" r="3.5" transform="matrix(-0.926846 -0.375442 -0.375442 0.926846 26.4063 43.4499)" fill="#00D0BA"/>
<circle r="3.5" transform="matrix(-0.926846 -0.375443 -0.375441 0.926846 59.5728 60.1218)" fill="#FFB03A"/>
<circle opacity="0.8" r="2.95516" transform="matrix(-0.674414 0.738354 0.738353 0.674414 -2.5381 32.1498)" fill="#FFB03A"/>
<circle r="2.95516" transform="matrix(-0.674414 0.738353 0.738354 0.674413 23.4736 20.5453)" fill="#E820B0"/>
<circle r="2.95516" transform="matrix(-0.674414 0.738353 0.738354 0.674414 48.4263 3.98672)" fill="#FFB03A"/>
<path d="M91.0889 -117.138C95.5514 -92.6977 92.7187 -68.4868 81.6783 -45.9277C61.5994 -4.89994 17.5799 22.7635 -25.4563 34.2435C-62.2084 44.0471 -110.952 42.1751 -137.592 11.3369" stroke="#381962" stroke-width="1.68866" stroke-linecap="round"/>
</svg>
