<svg width="375" height="100" viewBox="0 0 375 100" fill="none" xmlns="http://www.w3.org/2000/svg">
<path d="M27.5 16.5C15.1 19.3 -7 20 -16.5 20V99.5H386.5V19.5C350.9 23.9 311 8.33333 295.5 0C300.3 13.6 313.833 31 320 38C283.6 38.4 251.167 20.8333 239.5 12C235.1 27.2 239.333 55.3333 242 67.5C218 58.7 195.333 31.8333 187 19.5C180.6 28.7 173 34.6667 170 36.5C169.6 28.1 165.833 20.6667 164 18C126 53.6 72.1667 62.5 50 62.5C73.2 46.1 95.6667 17.6667 104 5.5C85.2 24.3 61.1667 31.3333 51.5 32.5C53.1667 29.3333 56.8 22 58 18C59.2 14 59.8333 7 60 4C54.3333 7 39.9 13.7 27.5 16.5Z" fill="#1D0C34"/>
</svg>
