<svg width="24" height="25" viewBox="0 0 24 25" fill="none" xmlns="http://www.w3.org/2000/svg">
<path d="M16.8503 0.012207H7.14973C3.20735 0.012207 0 3.21956 0 7.16194V16.8625C0 20.8049 3.20735 24.0122 7.14973 24.0122H16.8503C20.7926 24.0122 24 20.8049 24 16.8625V7.16194C24 3.21956 20.7926 0.012207 16.8503 0.012207ZM21.5856 16.8625C21.5856 19.4777 19.4655 21.5978 16.8503 21.5978H7.14973C4.5345 21.5978 2.4144 19.4777 2.4144 16.8625V7.16194C2.4144 4.54666 4.5345 2.42661 7.14973 2.42661H16.8503C19.4655 2.42661 21.5856 4.54666 21.5856 7.16194V16.8625Z" fill="white"/>
<path d="M12.0002 5.80493C8.57754 5.80493 5.79297 8.5895 5.79297 12.0121C5.79297 15.4348 8.57754 18.2194 12.0002 18.2194C15.4229 18.2194 18.2075 15.4348 18.2075 12.0121C18.2075 8.58946 15.4229 5.80493 12.0002 5.80493ZM12.0002 15.805C9.90547 15.805 8.20737 14.1069 8.20737 12.0122C8.20737 9.91743 9.90551 8.21933 12.0002 8.21933C14.095 8.21933 15.7931 9.91743 15.7931 12.0122C15.7931 14.1069 14.0949 15.805 12.0002 15.805Z" fill="white"/>
<path d="M18.2193 7.33894C19.0407 7.33894 19.7066 6.67304 19.7066 5.8516C19.7066 5.03016 19.0407 4.36426 18.2193 4.36426C17.3978 4.36426 16.7319 5.03016 16.7319 5.8516C16.7319 6.67304 17.3978 7.33894 18.2193 7.33894Z" fill="white"/>
</svg>
