<svg width="36" height="36" viewBox="0 0 36 36" fill="none" xmlns="http://www.w3.org/2000/svg">
<path fill-rule="evenodd" clip-rule="evenodd" d="M18.0617 28.685C23.959 28.685 28.7397 23.9043 28.7397 18.007C28.7397 12.1097 23.959 7.32902 18.0617 7.32902C12.1644 7.32902 7.38371 12.1097 7.38371 18.007C7.38371 23.9043 12.1644 28.685 18.0617 28.685ZM4.06152 18.007C4.06152 10.2751 10.3295 4.00708 18.0614 4.00708C25.7934 4.00708 32.0613 10.2751 32.0613 18.007C32.0613 25.7389 25.7934 32.0069 18.0614 32.0069C10.3295 32.0069 4.06152 25.7389 4.06152 18.007Z" fill="white"/>
<path fill-rule="evenodd" clip-rule="evenodd" d="M22.6129 7.52728C23.9739 8.09085 25.249 8.92586 26.3555 10.0323C27.3597 11.0366 28.1403 12.1797 28.6974 13.4C30.9222 13.36 32.4832 12.517 34.0002 11C36.9473 8.05298 33.8949 4.74461 30.8154 5.18453C31.2553 2.10505 27.8723 -1.3721 25.0003 1.49999C23.4353 3.06497 22.5924 5.23754 22.6129 7.52728ZM7.50963 22.6033C5.20444 22.5807 3.07602 22.9242 1.50026 24.5C-1.38868 27.3889 2.04857 31.2963 5.14611 30.8538C4.70361 33.9513 8.53596 36.9643 11.5003 34C13.0279 32.4724 13.3716 30.9561 13.4099 28.716C12.1823 28.1584 11.0322 27.3747 10.0226 26.3651C8.91095 25.2535 8.07329 23.9715 7.50963 22.6033Z" fill="white"/>
<path fill-rule="evenodd" clip-rule="evenodd" d="M12.2271 6.35405C12.4501 6.35829 12.9557 6.40926 13.3658 6.83601C13.7654 7.25181 25.2477 18.7219 28.5474 22.018C29.0596 22.5297 29.3746 22.8444 29.4204 22.8902C29.9694 23.4394 29.8537 24.117 29.821 24.2773C29.7727 24.514 29.6799 24.7114 29.618 24.8312C29.4848 25.0892 29.2955 25.3625 29.1034 25.6157C28.7065 26.1391 28.1409 26.7808 27.5099 27.429C26.92 28.0349 26.1935 28.7016 25.541 29.1895C25.2242 29.4263 24.8629 29.6683 24.508 29.8279C24.3351 29.9056 24.0834 30.0011 23.7911 30.0308C23.4999 30.0605 22.9804 30.0386 22.5292 29.6415C22.3908 29.5196 21.3082 28.4244 19.8637 26.9603C18.6666 25.7471 17.168 24.2258 15.6134 22.6476C15.2398 22.2683 14.8629 21.8857 14.4863 21.5034C12.5418 19.5296 10.602 17.5612 9.1336 16.0758C8.39922 15.3329 7.78406 14.7122 7.34565 14.2724C7.12609 14.0521 6.95304 13.8794 6.83228 13.7602C6.77139 13.7001 6.72727 13.657 6.69853 13.6294L6.68939 13.6207C6.43554 13.4029 6.31629 13.1456 6.26163 12.979C6.20065 12.793 6.19021 12.6336 6.18857 12.5434C6.18531 12.3638 6.21479 12.2158 6.23087 12.1434C6.26681 11.9814 6.32285 11.8247 6.37106 11.7022C6.47374 11.4415 6.62446 11.1281 6.80491 10.7995C7.16444 10.1448 7.70565 9.31465 8.36885 8.60588C9.06141 7.86573 9.85412 7.27454 10.5355 6.89313C10.8704 6.7057 11.2297 6.5399 11.5735 6.4445C11.7403 6.3982 11.9707 6.34918 12.2271 6.35405Z" fill="white"/>
<path fill-rule="evenodd" clip-rule="evenodd" d="M32.7336 8.2826C32.1741 7.64085 31.1169 7.22322 30.2491 7.3472C29.8094 7.41 29.3659 7.26215 29.0518 6.94812C28.7378 6.63408 28.5899 6.19052 28.6527 5.75087C28.7746 4.89801 28.3544 3.858 27.702 3.29937C27.3995 3.04037 27.1275 2.95326 26.9178 2.95446C26.7304 2.95553 26.4133 3.02675 25.9918 3.44822C25.0648 4.37526 24.4073 5.81415 24.247 7.28123C24.2065 7.65175 24.1988 8.00881 24.2223 8.348C23.3388 7.80591 22.3982 7.39359 21.4279 7.11107C21.4322 7.06553 21.4368 7.02009 21.4417 6.97475C21.663 4.94925 22.561 2.88824 23.9964 1.45281C24.8444 0.60487 25.8425 0.138609 26.9017 0.132562C27.9387 0.126643 28.8448 0.562786 29.5374 1.15584C30.5 1.98006 31.2039 3.23598 31.4236 4.57198C32.7589 4.7835 34.0255 5.47021 34.8607 6.42817C35.4629 7.11892 35.9064 8.02885 35.8953 9.07722C35.8839 10.144 35.4041 11.1465 34.5471 12.0035C33.1418 13.4088 31.1398 14.3093 29.1508 14.5557C28.832 13.5938 28.3833 12.6655 27.8047 11.7982C28.1006 11.8107 28.4087 11.7997 28.7264 11.7643C30.1863 11.6014 31.6208 10.939 32.5517 10.0081C32.9973 9.56255 33.0715 9.2333 33.0735 9.0472C33.0757 8.84271 32.9918 8.57868 32.7336 8.2826ZM7.09839 21.4289C7.05699 21.4328 7.01567 21.437 6.97444 21.4415C4.94894 21.6628 2.88793 22.5608 1.45249 23.9962C0.604558 24.8442 0.138298 25.8423 0.13225 26.9015C0.126332 27.9385 0.562475 28.8446 1.15553 29.5372C1.97975 30.4998 3.23567 31.2037 4.57167 31.4234C4.78319 32.7587 5.4699 34.0253 6.42786 34.8605C7.11861 35.4627 8.02853 35.9062 9.07691 35.8951C10.1437 35.8837 11.1462 35.4039 12.0032 34.5469C13.4055 33.1447 14.3051 31.1483 14.5538 29.1636C13.5928 28.8458 12.6654 28.3985 11.7986 27.8216C11.81 28.1123 11.7987 28.4147 11.764 28.7263C11.6011 30.1861 10.9387 31.6206 10.0078 32.5515C9.56224 32.9971 9.23298 33.0713 9.04689 33.0733C8.84239 33.0755 8.57837 32.9916 8.28229 32.7334C7.64054 32.174 7.22291 31.1167 7.34689 30.2489C7.40969 29.8092 7.26184 29.3657 6.9478 29.0516C6.63377 28.7376 6.19021 28.5897 5.75056 28.6526C4.8977 28.7744 3.85769 28.3542 3.29906 27.7018C3.04005 27.3993 2.95295 27.1273 2.95415 26.9176C2.95521 26.7302 3.02644 26.4131 3.44791 25.9917C4.37495 25.0646 5.81383 24.4071 7.28092 24.2468C7.64536 24.207 7.99679 24.1989 8.331 24.2209C7.79065 23.338 7.37978 22.3983 7.09839 21.4289Z" fill="white"/>
</svg>
