<svg width="53" height="198" viewBox="0 0 53 198" fill="none" xmlns="http://www.w3.org/2000/svg">
<g clip-path="url(#clip0_452_1522)">
<path d="M48.64 65.4358C45.2107 62.7465 40.2399 63.0119 36.5042 64.8647C35.527 65.377 34.5853 65.9526 33.7142 66.6549C32.7615 67.4194 31.915 68.374 31.1318 69.2933C29.8479 70.7745 28.8591 72.4567 27.8434 74.1207C26.8095 75.8114 25.8024 77.5204 24.4918 78.9834C24.7646 78.6981 25.0289 78.3678 25.3018 78.0825C24.4735 79.0102 23.5562 79.8381 22.5145 80.5028C22.8496 80.2991 23.1578 80.0772 23.4928 79.8735C22.8045 80.3076 22.0807 80.6784 21.268 80.9493L22.3695 80.6003C21.7737 80.7834 21.1693 80.9214 20.5478 80.9691C20.917 80.9458 21.3131 80.9408 21.7006 80.8907C21.0974 80.9116 20.5307 80.879 19.9286 80.783C20.3149 80.8498 20.683 80.9435 21.0694 81.0104C20.3149 80.8498 19.6153 80.6088 18.9169 80.2508C19.2752 80.4164 19.6421 80.6271 20.0005 80.7927C18.066 79.8283 16.4519 78.3362 14.7914 76.9695C13.9612 76.2862 13.1042 75.5846 12.1826 75.0354C11.4402 74.569 10.6699 74.2013 9.87269 73.8153C9.4156 73.6217 8.9317 73.4099 8.44662 73.315C6.75858 72.9112 5.09501 72.7596 3.3817 73.0845C1.69519 73.4277 0.311087 74.1339 -1.07536 75.0741C-2.17184 75.8192 -3.05494 76.8274 -3.91123 77.8539C-4.57628 78.6573 -5.18768 79.4972 -5.72719 80.3469C-7.04369 82.3948 -8.25291 84.5159 -9.86441 86.3629C-9.59156 86.0776 -9.32725 85.7472 -9.05439 85.4619C-9.72799 86.2202 -10.4906 86.8786 -11.3154 87.4554C-10.9803 87.2518 -10.6721 87.0298 -10.3371 86.8262C-11.107 87.3225 -11.966 87.719 -12.8421 88.0252C-12.49 87.9117 -12.1196 87.7714 -11.7406 87.6762C-12.7971 88.0167 -13.8609 88.1951 -14.9686 88.265C-14.5994 88.2417 -14.2033 88.2366 -13.8158 88.1865C-15.5719 88.286 -17.361 88.0881 -19.1038 87.7647L-17.963 87.9921C-20.8284 87.4145 -23.5818 86.442 -26.289 85.3439C-27.3019 84.9288 -28.6984 85.0768 -29.6841 85.544C-30.6881 86.038 -31.6882 87.0451 -32.0143 88.1579C-32.3222 89.2439 -32.3618 90.5125 -31.8142 91.553C-31.2312 92.6569 -30.3656 93.4036 -29.2003 93.8832C-27.049 94.7597 -24.8696 95.5375 -22.6343 96.1178C-20.1297 96.7639 -17.5337 97.2758 -14.9318 97.2028C-12.1228 97.1138 -9.29203 96.647 -6.83826 95.1775C-5.57969 94.425 -4.38331 93.5909 -3.3735 92.5119C-2.34542 91.4061 -1.39779 90.2455 -0.557441 89.0119C0.885769 86.8932 2.07906 84.565 3.81727 82.6472C3.54441 82.9325 3.28011 83.2629 3.00725 83.5482C3.57123 82.9508 4.16204 82.3717 4.86867 81.9107C4.53363 82.1144 4.2254 82.3363 3.89035 82.54C4.37038 82.2388 4.85895 81.9826 5.36463 81.8167C5.01249 81.9301 4.64207 82.0705 4.2631 82.1657C4.76878 81.9997 5.30983 81.8971 5.85943 81.8396C5.49018 81.8629 5.09411 81.868 4.70659 81.9181C5.28301 81.8788 5.84971 81.9115 6.40669 82.0161C6.02034 81.9492 5.65226 81.8555 5.26591 81.7887C5.94843 81.9395 6.60297 82.189 7.22097 82.4922C6.86261 82.3266 6.4957 82.116 6.13733 81.9504C8.09006 82.8879 9.67742 84.3618 11.311 85.7102C12.1681 86.4118 13.0251 87.1133 13.9735 87.6808C15.1632 88.4127 16.4346 89.0825 17.7814 89.4109C19.5231 89.8513 21.1866 90.0029 22.9719 89.6877C23.8102 89.5521 24.6413 89.2544 25.4272 88.9652C25.9511 88.7724 26.4214 88.5431 26.8832 88.2687C29.4271 86.782 31.5443 84.7691 33.2153 82.3736C35.1689 79.621 36.5678 76.5298 38.8249 74.0233C38.552 74.3086 38.2877 74.6389 38.0149 74.9242C38.6702 74.1927 39.406 73.516 40.2393 72.9843C39.9043 73.188 39.5961 73.4099 39.261 73.6136C40.031 73.1173 40.8449 72.7294 41.721 72.4231C41.3688 72.5366 40.9984 72.6769 40.6195 72.7721C41.3238 72.5451 42.0452 72.4083 42.7837 72.3617C42.4144 72.385 42.0183 72.3901 41.6308 72.4402C42.189 72.4278 42.7557 72.4604 43.2858 72.5467C42.8995 72.4799 42.5314 72.3862 42.145 72.3193C42.6569 72.4324 43.1323 72.5992 43.6162 72.811C43.2578 72.6454 42.8909 72.4348 42.5326 72.2692C42.8727 72.4616 43.1859 72.6357 43.4895 72.8818C44.3648 73.5565 45.7847 73.7777 46.8667 73.5725C47.9488 73.3673 49.1441 72.6502 49.7566 71.6933C50.3607 70.6912 50.7416 69.498 50.4474 68.316C50.3339 67.9639 50.1936 67.5934 50.0984 67.2145C49.7995 66.5005 49.3105 65.8925 48.64 65.4358Z" fill="#0094E8"/>
</g>
<g clip-path="url(#clip1_452_1522)">
<path d="M-1.07217 168.202C-0.960868 169.324 -0.770206 170.41 -0.524824 171.491C-0.612117 171.168 -0.674767 170.815 -0.762062 170.492C-0.246654 172.624 0.534204 174.646 1.58051 176.559C1.41386 176.272 1.27456 175.982 1.1079 175.694C2.12142 177.555 3.36761 179.255 4.8191 180.797C4.60315 180.569 4.38449 180.315 4.14118 180.09C5.58996 181.604 7.21668 182.963 9.01319 184.083C8.74796 183.916 8.45536 183.751 8.18741 183.557C9.98392 184.677 11.9229 185.562 13.9195 186.193C13.605 186.086 13.2932 186.007 12.9786 185.9C15.06 186.55 17.1936 186.891 19.3575 186.98C19.0238 186.958 18.6654 186.966 18.3317 186.943C19.4396 186.972 20.5695 186.942 21.6639 186.834C22.6488 186.736 23.7019 187.046 24.4564 187.69C25.1782 188.281 25.7766 189.299 25.8442 190.259C25.8872 191.25 25.6867 192.292 24.9885 193.052C24.3176 193.809 23.4582 194.337 22.4186 194.44C16.7551 195.002 10.8112 193.851 5.83164 191.002C4.48352 190.224 3.15733 189.388 1.95707 188.43C0.756823 187.471 -0.344849 186.393 -1.39723 185.254C-3.31612 183.179 -4.84905 180.817 -6.06723 178.285C-7.48758 175.387 -8.33044 172.183 -8.64805 168.982C-8.74306 168.024 -8.43582 166.944 -7.79234 166.189C-7.20086 165.467 -6.1827 164.869 -5.2224 164.801C-4.23203 164.758 -3.18986 164.959 -2.42986 165.657C-1.67258 166.328 -1.17261 167.19 -1.07217 168.202Z" fill="#36F900"/>
</g>
<g clip-path="url(#clip2_452_1522)">
<path d="M-42.2316 12.4969C-40.3967 13.0628 -38.6078 13.6283 -36.7725 14.1482C-32.4143 15.4691 -28.0562 16.79 -23.6525 18.1572C-18.3769 19.7611 -13.1473 21.3646 -7.8717 22.9684C-3.33037 24.3827 1.21132 25.751 5.753 27.1193C7.95505 27.7799 10.2027 28.4869 12.4048 29.1475C12.4508 29.1479 12.4508 29.1479 12.4964 29.1942C14.0561 29.666 15.9894 29.4049 17.4211 28.5882C18.7605 27.8168 20.0135 26.309 20.393 24.7945C20.7732 23.1881 20.6953 21.3482 19.787 19.8699C18.8784 18.4375 17.6447 17.4164 15.9933 16.8979C14.1584 16.3321 12.3695 15.7666 10.5342 15.2467C6.17607 13.9258 1.81795 12.6049 -2.5858 11.2376C-7.81576 9.68013 -13.0913 8.07629 -18.3669 6.47245C-22.9086 5.10415 -27.4499 3.68987 -31.9916 2.32157C-34.1937 1.66093 -36.4414 0.95397 -38.6434 0.293338C-38.6894 0.292985 -38.6894 0.292985 -38.735 0.246654C-40.2948 -0.225126 -42.228 0.035935 -43.6597 0.852622C-44.9991 1.62404 -46.2522 3.13182 -46.6316 4.6463C-47.0118 6.25274 -46.934 8.09261 -46.0257 9.57098C-45.1167 10.9574 -43.8374 12.0248 -42.2316 12.4969Z" fill="#E82039"/>
</g>
<defs>
<clipPath id="clip0_452_1522">
<rect width="58.5394" height="67.4306" fill="white" transform="translate(14.3813 123.686) rotate(-145.738)"/>
</clipPath>
<clipPath id="clip1_452_1522">
<rect width="32.1954" height="32.1954" fill="white" transform="matrix(-0.995114 0.0987341 0.0987341 0.995114 23.0381 162)"/>
</clipPath>
<clipPath id="clip2_452_1522">
<rect width="67.545" height="28.9676" fill="white" transform="translate(20.543 29.4849) rotate(-179.561)"/>
</clipPath>
</defs>
</svg>
