<svg width="235" height="134" viewBox="0 0 235 134" fill="none" xmlns="http://www.w3.org/2000/svg">
<path d="M61.3359 52.1907C57.1865 52.1907 53.1302 53.4211 49.6801 55.7264C46.2299 58.0317 43.5409 61.3083 41.953 65.1419C40.365 68.9755 39.9496 73.1939 40.7591 77.2636C41.5686 81.3333 43.5667 85.0715 46.5008 88.0056C49.4349 90.9397 53.1732 92.9379 57.2429 93.7474C61.3126 94.5569 65.531 94.1414 69.3646 92.5535C73.1981 90.9656 76.4748 88.2765 78.7801 84.8264C81.0854 81.3763 82.3158 77.32 82.3158 73.1706C82.3158 67.6064 80.1054 62.27 76.1709 58.3355C72.2364 54.4011 66.9001 52.1907 61.3359 52.1907ZM61.3359 84.8206C59.0282 84.8231 56.7717 84.1408 54.852 82.8603C52.9322 81.5798 51.4355 79.7585 50.5513 77.627C49.6671 75.4954 49.4351 73.1495 49.8847 70.8861C50.3343 68.6226 51.4453 66.5435 53.077 64.9117C54.7088 63.28 56.7879 62.169 59.0514 61.7194C61.3148 61.2698 63.6607 61.5018 65.7922 62.386C67.9238 63.2702 69.7451 64.7669 71.0256 66.6867C72.3061 68.6064 72.9884 70.8629 72.9859 73.1706C72.9859 76.2604 71.7585 79.2236 69.5737 81.4084C67.3889 83.5932 64.4257 84.8206 61.3359 84.8206Z" fill="white"/>
<path d="M66.124 44.7861C66.0949 45.7263 65.7895 46.6371 65.246 47.4048C64.7025 48.1725 63.9449 48.7631 63.0678 49.103C62.1906 49.4428 61.2329 49.5167 60.314 49.3156C59.3951 49.1144 58.5558 48.6471 57.9009 47.9719C57.2459 47.2967 56.8044 46.4436 56.6313 45.519C56.4582 44.5944 56.5613 43.6393 56.9277 42.773C57.294 41.9066 57.9075 41.1673 58.6914 40.6475C59.4753 40.1276 60.395 39.8501 61.3356 39.8496C61.9742 39.8593 62.6046 39.9946 63.1908 40.2479C63.7771 40.5013 64.3077 40.8676 64.7523 41.326C65.197 41.7844 65.547 42.3259 65.7823 42.9196C66.0177 43.5133 66.1338 44.1475 66.124 44.7861ZM78.6132 44.7861C78.5841 45.7268 78.2784 46.6381 77.7343 47.406C77.1903 48.174 76.4319 48.7646 75.5541 49.1041C74.6763 49.4435 73.7179 49.5167 72.7987 49.3146C71.8795 49.1124 71.0402 48.6439 70.3858 47.9675C69.7314 47.2911 69.2908 46.4368 69.1191 45.5114C68.9474 44.586 69.0523 43.6306 69.4205 42.7644C69.7888 41.8983 70.4041 41.1599 71.1896 40.6415C71.9751 40.1231 72.896 39.8476 73.8372 39.8496C74.4752 39.8593 75.105 39.9947 75.6906 40.2482C76.2761 40.5016 76.8059 40.8682 77.2496 41.3267C77.6933 41.7853 78.0421 42.3269 78.2761 42.9205C78.5101 43.5141 78.6246 44.1481 78.6132 44.7861ZM48.8341 49.7225C47.8519 49.752 46.8834 49.4877 46.0523 48.9635C45.2213 48.4393 44.5656 47.6791 44.1692 46.78C43.7727 45.881 43.6536 44.8841 43.827 43.917C44.0004 42.9499 44.4585 42.0565 45.1426 41.3512C45.8267 40.646 46.7057 40.1609 47.6671 39.9581C48.6285 39.7553 49.6286 39.8441 50.5393 40.2129C51.4499 40.5818 52.2298 41.2141 52.7791 42.0288C53.3283 42.8435 53.622 43.8035 53.6224 44.7861C53.6339 45.4251 53.5189 46.06 53.2841 46.6544C53.0494 47.2488 52.6994 47.791 52.2545 48.2497C51.8095 48.7085 51.2782 49.0747 50.6912 49.3275C50.1043 49.5802 49.4731 49.7145 48.8341 49.7225Z" fill="white"/>
<path d="M173.64 52.1907C169.491 52.1907 165.434 53.4211 161.984 55.7264C158.534 58.0317 155.845 61.3083 154.257 65.1419C152.669 68.9755 152.254 73.1939 153.063 77.2636C153.873 81.3333 155.871 85.0715 158.805 88.0056C161.739 90.9397 165.477 92.9379 169.547 93.7474C173.617 94.5569 177.835 94.1414 181.669 92.5535C185.502 90.9656 188.779 88.2765 191.084 84.8264C193.39 81.3763 194.62 77.32 194.62 73.1706C194.62 67.6064 192.41 62.27 188.475 58.3355C184.541 54.4011 179.204 52.1907 173.64 52.1907ZM173.64 84.8206C171.332 84.8231 169.076 84.1408 167.156 82.8603C165.236 81.5798 163.74 79.7585 162.855 77.627C161.971 75.4954 161.739 73.1495 162.189 70.8861C162.638 68.6226 163.749 66.5435 165.381 64.9117C167.013 63.28 169.092 62.169 171.356 61.7194C173.619 61.2698 175.965 61.5018 178.096 62.386C180.228 63.2702 182.049 64.7669 183.33 66.6867C184.61 68.6064 185.293 70.8629 185.29 73.1706C185.29 76.2604 184.063 79.2236 181.878 81.4084C179.693 83.5932 176.73 84.8206 173.64 84.8206Z" fill="white"/>
<path d="M102.419 75.4662L118.883 94.1507H106.64L96.8536 83.6607L94.3483 87.3631V94.1507H84.7593V84.3889V70.2212V55.8438V40.2446H94.3483V66.5066V70.2459L95.8046 68.1109L106.825 52.1908H117.796L102.419 75.4662Z" fill="white"/>
<path d="M139.443 75.4662L155.906 94.1507H143.664L133.877 83.6607L131.372 87.3631V94.1507H121.783V84.3889V70.2212V55.8438V40.2446H131.372V66.5066V70.2459L132.828 68.1109L143.849 52.1908H154.82L139.443 75.4662Z" fill="white"/>
</svg>
