<svg width="36" height="36" viewBox="0 0 36 36" fill="none" xmlns="http://www.w3.org/2000/svg">
<path d="M8 11.5C7.44772 11.5 7 11.9477 7 12.5V25.5C7 26.0523 7.44772 26.5 8 26.5H28C28.5523 26.5 29 26.0523 29 25.5V12.5C29 11.9477 28.5523 11.5 28 11.5H8Z" fill="white"/>
<path fill-rule="evenodd" clip-rule="evenodd" d="M27.3839 2.38388C27.872 1.89573 27.872 1.10427 27.3839 0.616117C26.8957 0.127961 26.1043 0.127961 25.6161 0.616117L19.3661 6.86612C19.3237 6.90858 19.2849 6.95334 19.2498 7H16.7502C16.7151 6.95334 16.6763 6.90858 16.6339 6.86612L12.8839 3.11612C12.3957 2.62796 11.6043 2.62796 11.1161 3.11612C10.628 3.60427 10.628 4.39573 11.1161 4.88388L13.2322 7H5.5C3.84315 7 2.5 8.34315 2.5 10V28C2.5 29.6569 3.84315 31 5.5 31H30.5C32.1569 31 33.5 29.6569 33.5 28V10C33.5 8.34315 32.1569 7 30.5 7H22.7678L27.3839 2.38388ZM6 9.5C5.44772 9.5 5 9.94771 5 10.5V27.5C5 28.0523 5.44772 28.5 6 28.5H30C30.5523 28.5 31 28.0523 31 27.5V10.5C31 9.94772 30.5523 9.5 30 9.5H6Z" fill="white"/>
<path d="M24 32.75H12C11.3096 32.75 10.75 33.3096 10.75 34C10.75 34.6904 11.3096 35.25 12 35.25H24C24.6904 35.25 25.25 34.6904 25.25 34C25.25 33.3096 24.6904 32.75 24 32.75Z" fill="white"/>
</svg>
