<svg width="367" height="368" viewBox="0 0 367 368" fill="none" xmlns="http://www.w3.org/2000/svg">
<g opacity="0.24">
<path d="M147.562 368L183 184L218.437 368H147.562Z" fill="url(#paint0_linear_452_1602)"/>
<path opacity="0.66" d="M147.562 0.000183105L183 184L218.437 0.000183105H147.562Z" fill="url(#paint1_linear_452_1602)"/>
<path d="M-1 148.563L183 184L-1 219.437L-1 148.563Z" fill="url(#paint2_linear_452_1602)"/>
<path d="M367 148.563L183 184L367 219.437L367 148.563Z" fill="url(#paint3_linear_452_1602)"/>
<path d="M27.8342 289.05L183 184L77.9498 339.165L27.8342 289.05Z" fill="url(#paint4_linear_452_1602)"/>
<path opacity="0.66" d="M288.05 28.8344L183 184L338.165 78.95L288.05 28.8344Z" fill="url(#paint5_linear_452_1602)"/>
<path opacity="0.66" d="M77.9505 28.8344L183 184L27.8349 78.9499L77.9505 28.8344Z" fill="url(#paint6_linear_452_1602)"/>
<path d="M338.166 289.05L183 184L288.05 339.165L338.166 289.05Z" fill="url(#paint7_linear_452_1602)"/>
<g opacity="0.94" filter="url(#filter0_f_452_1602)">
<ellipse cx="182.497" cy="184.504" rx="62.9327" ry="62.9327" fill="white"/>
</g>
</g>
<path d="M193.282 54.6759C190.811 54.5807 188.368 55.2265 186.267 56.5302C184.165 57.8338 182.502 59.7359 181.489 61.9921C180.477 64.2483 180.163 66.7556 180.586 69.192C181.009 71.6283 182.151 73.8825 183.865 75.665C185.579 77.4475 187.787 78.677 190.205 79.1955C192.622 79.714 195.14 79.4978 197.434 78.5748C199.728 77.6518 201.694 76.064 203.079 74.0154C204.464 71.9668 205.205 69.551 205.207 67.0781C205.255 63.8564 204.029 60.746 201.796 58.4235C199.563 56.101 196.503 54.7541 193.282 54.6759Z" fill="url(#paint8_linear_452_1602)"/>
<path d="M193.282 54.6759C190.811 54.5807 188.368 55.2265 186.267 56.5302C184.165 57.8338 182.502 59.7359 181.489 61.9921C180.477 64.2483 180.163 66.7556 180.586 69.192C181.009 71.6283 182.151 73.8825 183.865 75.665C185.579 77.4475 187.787 78.677 190.205 79.1955C192.622 79.714 195.14 79.4978 197.434 78.5748C199.728 77.6518 201.694 76.064 203.079 74.0154C204.464 71.9668 205.205 69.551 205.207 67.0781C205.255 63.8564 204.029 60.746 201.796 58.4235C199.563 56.101 196.503 54.7541 193.282 54.6759Z" fill="url(#paint9_linear_452_1602)"/>
<path d="M193.282 54.6759C190.811 54.5807 188.368 55.2265 186.267 56.5302C184.165 57.8338 182.502 59.7359 181.489 61.9921C180.477 64.2483 180.163 66.7556 180.586 69.192C181.009 71.6283 182.151 73.8825 183.865 75.665C185.579 77.4475 187.787 78.677 190.205 79.1955C192.622 79.714 195.14 79.4978 197.434 78.5748C199.728 77.6518 201.694 76.064 203.079 74.0154C204.464 71.9668 205.205 69.551 205.207 67.0781C205.255 63.8564 204.029 60.746 201.796 58.4235C199.563 56.101 196.503 54.7541 193.282 54.6759Z" fill="url(#paint10_linear_452_1602)"/>
<path d="M237.346 67.0782C237.252 64.7422 236.474 62.4853 235.108 60.5879C233.743 58.6906 231.849 57.2365 229.663 56.4066C227.478 55.5768 225.097 55.4077 222.816 55.9203C220.535 56.4329 218.455 57.6046 216.834 59.2898C215.214 60.975 214.124 63.0993 213.702 65.3986C213.279 67.6979 213.541 70.0708 214.456 72.2222C215.371 74.3736 216.898 76.2086 218.848 77.4991C220.797 78.7896 223.083 79.4785 225.421 79.4804C228.642 79.4022 231.702 78.0553 233.935 75.7328C236.168 73.4102 237.394 70.2999 237.346 67.0782Z" fill="url(#paint11_linear_452_1602)"/>
<path d="M237.346 67.0782C237.252 64.7422 236.474 62.4853 235.108 60.5879C233.743 58.6906 231.849 57.2365 229.663 56.4066C227.478 55.5768 225.097 55.4077 222.816 55.9203C220.535 56.4329 218.455 57.6046 216.834 59.2898C215.214 60.975 214.124 63.0993 213.702 65.3986C213.279 67.6979 213.541 70.0708 214.456 72.2222C215.371 74.3736 216.898 76.2086 218.848 77.4991C220.797 78.7896 223.083 79.4785 225.421 79.4804C228.642 79.4022 231.702 78.0553 233.935 75.7328C236.168 73.4102 237.394 70.2999 237.346 67.0782Z" fill="url(#paint12_linear_452_1602)"/>
<path d="M237.346 67.0782C237.252 64.7422 236.474 62.4853 235.108 60.5879C233.743 58.6906 231.849 57.2365 229.663 56.4066C227.478 55.5768 225.097 55.4077 222.816 55.9203C220.535 56.4329 218.455 57.6046 216.834 59.2898C215.214 60.975 214.124 63.0993 213.702 65.3986C213.279 67.6979 213.541 70.0708 214.456 72.2222C215.371 74.3736 216.898 76.2086 218.848 77.4991C220.797 78.7896 223.083 79.4785 225.421 79.4804C228.642 79.4022 231.702 78.0553 233.935 75.7328C236.168 73.4102 237.394 70.2999 237.346 67.0782Z" fill="url(#paint13_linear_452_1602)"/>
<path d="M173.337 67.0782C173.244 64.7422 172.466 62.4853 171.1 60.5879C169.734 58.6906 167.841 57.2365 165.655 56.4066C163.469 55.5768 161.088 55.4077 158.807 55.9203C156.526 56.4329 154.446 57.6046 152.826 59.2898C151.205 60.975 150.116 63.0993 149.693 65.3986C149.27 67.6979 149.533 70.0708 150.448 72.2222C151.363 74.3736 152.89 76.2086 154.839 77.4991C156.789 78.7896 159.074 79.4785 161.412 79.4804C164.636 79.4099 167.7 78.0655 169.935 75.7412C172.17 73.417 173.393 70.3021 173.337 67.0782Z" fill="url(#paint14_linear_452_1602)"/>
<path d="M173.337 67.0782C173.244 64.7422 172.466 62.4853 171.1 60.5879C169.734 58.6906 167.841 57.2365 165.655 56.4066C163.469 55.5768 161.088 55.4077 158.807 55.9203C156.526 56.4329 154.446 57.6046 152.826 59.2898C151.205 60.975 150.116 63.0993 149.693 65.3986C149.27 67.6979 149.533 70.0708 150.448 72.2222C151.363 74.3736 152.89 76.2086 154.839 77.4991C156.789 78.7896 159.074 79.4785 161.412 79.4804C164.636 79.4099 167.7 78.0655 169.935 75.7412C172.17 73.417 173.393 70.3021 173.337 67.0782Z" fill="url(#paint15_linear_452_1602)"/>
<path d="M173.337 67.0782C173.244 64.7422 172.466 62.4853 171.1 60.5879C169.734 58.6906 167.841 57.2365 165.655 56.4066C163.469 55.5768 161.088 55.4077 158.807 55.9203C156.526 56.4329 154.446 57.6046 152.826 59.2898C151.205 60.975 150.116 63.0993 149.693 65.3986C149.27 67.6979 149.533 70.0708 150.448 72.2222C151.363 74.3736 152.89 76.2086 154.839 77.4991C156.789 78.7896 159.074 79.4785 161.412 79.4804C164.636 79.4099 167.7 78.0655 169.935 75.7412C172.17 73.417 173.393 70.3021 173.337 67.0782Z" fill="url(#paint16_linear_452_1602)"/>
<path d="M246.647 144.89C246.354 134.468 242.996 124.363 236.991 115.838C230.987 107.314 222.603 100.749 212.888 96.9629C203.173 93.1771 192.557 92.3389 182.369 94.553C172.18 96.7671 162.869 101.935 155.602 109.412C148.334 116.888 143.431 126.341 141.506 136.588C139.58 146.835 140.718 157.423 144.777 167.028C148.836 176.632 155.636 184.827 164.327 190.588C173.017 196.349 183.213 199.42 193.64 199.419C200.705 199.333 207.684 197.853 214.176 195.064C220.667 192.275 226.544 188.231 231.469 183.164C236.395 178.098 240.271 172.109 242.875 165.541C245.48 158.973 246.762 151.955 246.647 144.89ZM193.64 174.703C187.71 174.876 181.863 173.274 176.848 170.105C171.833 166.935 167.877 162.341 165.488 156.911C163.098 151.481 162.383 145.461 163.434 139.622C164.485 133.783 167.254 128.39 171.387 124.134C175.519 119.878 180.828 116.951 186.634 115.729C192.439 114.507 198.477 115.045 203.976 117.273C209.474 119.502 214.182 123.321 217.498 128.241C220.813 133.16 222.586 138.957 222.588 144.89C222.645 152.654 219.636 160.127 214.216 165.686C208.797 171.246 201.403 174.443 193.64 174.584V174.703Z" fill="url(#paint17_linear_452_1602)"/>
<path d="M246.647 144.89C246.354 134.468 242.996 124.363 236.991 115.838C230.987 107.314 222.603 100.749 212.888 96.9629C203.173 93.1771 192.557 92.3389 182.369 94.553C172.18 96.7671 162.869 101.935 155.602 109.412C148.334 116.888 143.431 126.341 141.506 136.588C139.58 146.835 140.718 157.423 144.777 167.028C148.836 176.632 155.636 184.827 164.327 190.588C173.017 196.349 183.213 199.42 193.64 199.419C200.705 199.333 207.684 197.853 214.176 195.064C220.667 192.275 226.544 188.231 231.469 183.164C236.395 178.098 240.271 172.109 242.875 165.541C245.48 158.973 246.762 151.955 246.647 144.89ZM193.64 174.703C187.71 174.876 181.863 173.274 176.848 170.105C171.833 166.935 167.877 162.341 165.488 156.911C163.098 151.481 162.383 145.461 163.434 139.622C164.485 133.783 167.254 128.39 171.387 124.134C175.519 119.878 180.828 116.951 186.634 115.729C192.439 114.507 198.477 115.045 203.976 117.273C209.474 119.502 214.182 123.321 217.498 128.241C220.813 133.16 222.586 138.957 222.588 144.89C222.645 152.654 219.636 160.127 214.216 165.686C208.797 171.246 201.403 174.443 193.64 174.584V174.703Z" fill="url(#paint18_linear_452_1602)"/>
<path d="M246.647 144.89C246.354 134.468 242.996 124.363 236.991 115.838C230.987 107.314 222.603 100.749 212.888 96.9629C203.173 93.1771 192.557 92.3389 182.369 94.553C172.18 96.7671 162.869 101.935 155.602 109.412C148.334 116.888 143.431 126.341 141.506 136.588C139.58 146.835 140.718 157.423 144.777 167.028C148.836 176.632 155.636 184.827 164.327 190.588C173.017 196.349 183.213 199.42 193.64 199.419C200.705 199.333 207.684 197.853 214.176 195.064C220.667 192.275 226.544 188.231 231.469 183.164C236.395 178.098 240.271 172.109 242.875 165.541C245.48 158.973 246.762 151.955 246.647 144.89ZM193.64 174.703C187.71 174.876 181.863 173.274 176.848 170.105C171.833 166.935 167.877 162.341 165.488 156.911C163.098 151.481 162.383 145.461 163.434 139.622C164.485 133.783 167.254 128.39 171.387 124.134C175.519 119.878 180.828 116.951 186.634 115.729C192.439 114.507 198.477 115.045 203.976 117.273C209.474 119.502 214.182 123.321 217.498 128.241C220.813 133.16 222.586 138.957 222.588 144.89C222.645 152.654 219.636 160.127 214.216 165.686C208.797 171.246 201.403 174.443 193.64 174.584V174.703Z" fill="url(#paint19_linear_452_1602)"/>
<path d="M121.94 143.012H226.941C227.787 143.012 228.624 143.179 229.405 143.502C230.187 143.826 230.897 144.3 231.495 144.898C232.093 145.496 232.567 146.206 232.891 146.987C233.214 147.769 233.381 148.606 233.381 149.452V203.592C233.381 205.3 232.702 206.938 231.495 208.146C230.287 209.354 228.649 210.032 226.941 210.032H115.5V149.422C115.508 147.719 116.19 146.089 117.397 144.888C118.603 143.686 120.237 143.012 121.94 143.012Z" fill="url(#paint20_linear_452_1602)"/>
<path d="M121.94 143.012H226.941C227.787 143.012 228.624 143.179 229.405 143.502C230.187 143.826 230.897 144.3 231.495 144.898C232.093 145.496 232.567 146.206 232.891 146.987C233.214 147.769 233.381 148.606 233.381 149.452V203.592C233.381 205.3 232.702 206.938 231.495 208.146C230.287 209.354 228.649 210.032 226.941 210.032H115.5V149.422C115.508 147.719 116.19 146.089 117.397 144.888C118.603 143.686 120.237 143.012 121.94 143.012Z" fill="url(#paint21_linear_452_1602)"/>
<path d="M115.5 210.002L126.501 222.941V210.002H115.5Z" fill="url(#paint22_linear_452_1602)"/>
<path d="M221.895 227.194C239.35 227.194 253.5 213.044 253.5 195.59C253.5 178.135 239.35 163.985 221.895 163.985C204.44 163.985 190.291 178.135 190.291 195.59C190.291 213.044 204.44 227.194 221.895 227.194Z" fill="url(#paint23_linear_452_1602)" stroke="#7A36C6" stroke-opacity="0.3" stroke-width="0.72"/>
<path d="M233.971 178.839L228.307 194.655L234.959 206.009L247.355 204.994C247.355 204.994 252.698 195.376 251.309 190.46C249.776 185.823 246.857 181.766 242.947 178.839H233.971Z" fill="url(#paint24_linear_452_1602)" stroke="#7A36C6" stroke-opacity="0.3" stroke-width="0.72"/>
<path d="M202.82 185.464L214.175 197.326L228.307 194.655L233.971 178.839L225.956 170.103C219.642 169.088 213.175 170.46 207.816 173.95C205.059 177.216 203.322 181.22 202.82 185.464Z" fill="url(#paint25_linear_452_1602)" stroke="#7A36C6" stroke-opacity="0.3" stroke-width="0.72"/>
<path d="M201.297 213.969L212.945 210.07L225.823 215.812L227.719 223.534C223.732 225.848 219.095 226.786 214.522 226.206C213.587 226.206 204.931 223.321 201.725 219.661L201.297 213.969Z" fill="url(#paint26_linear_452_1602)" stroke="#7A36C6" stroke-opacity="0.3" stroke-width="0.72"/>
<path d="M247.355 204.994L248.237 213.008C248.237 213.008 240.65 226.179 227.719 223.695L225.823 215.974L234.959 206.169L247.355 204.994Z" fill="url(#paint27_linear_452_1602)" stroke="#7A36C6" stroke-opacity="0.3" stroke-width="0.72"/>
<path d="M202.82 185.464L214.175 197.326L212.946 210.07L201.298 213.97C201.298 213.97 194.939 209.829 193.497 204.78C193.497 204.78 192 193.613 194.993 189.044C197.188 187.099 199.913 185.853 202.82 185.464Z" fill="url(#paint28_linear_452_1602)" stroke="#7A36C6" stroke-opacity="0.3" stroke-width="0.72"/>
<path d="M194.993 178.919C194.261 182.255 194.261 185.709 194.993 189.044C194.993 189.044 192.054 192.517 193.497 204.78L190.558 200.238C189.503 192.832 191.072 185.29 194.993 178.919Z" fill="url(#paint29_linear_452_1602)" stroke="#7A36C6" stroke-opacity="0.3" stroke-width="0.72"/>
<path d="M207.71 173.949L201.378 171.491C205.743 167.876 210.956 165.431 216.526 164.385C221.738 163.668 227.044 164.097 232.074 165.64C229.627 166.524 227.472 168.068 225.849 170.102C219.536 169.121 213.082 170.49 207.71 173.949Z" fill="url(#paint30_linear_452_1602)" stroke="#7A36C6" stroke-opacity="0.3" stroke-width="0.72"/>
<path d="M242.947 178.839C247.085 181.962 250.102 186.338 251.55 191.315L251.95 185.785C250.588 181.672 248.406 177.877 245.536 174.631C242.667 171.384 239.168 168.754 235.253 166.897C235.253 166.897 243.882 173.469 242.947 178.839Z" fill="url(#paint31_linear_452_1602)" stroke="#7A36C6" stroke-opacity="0.3" stroke-width="0.72"/>
<path d="M247.355 204.994L248.237 213.008C250.811 209.029 252.479 204.533 253.12 199.837C253.762 195.142 253.363 190.362 251.95 185.839L251.55 191.369C251.55 191.369 252.218 195.563 247.355 204.994Z" fill="url(#paint32_linear_452_1602)" stroke="#7A36C6" stroke-opacity="0.3" stroke-width="0.72"/>
<path d="M214.174 197.325L228.307 194.654L234.986 206.008L225.822 215.813L212.945 210.095L214.174 197.325Z" fill="#7B3AFF"/>
<path d="M214.174 197.325L228.307 194.654L234.986 206.008L225.822 215.813L212.945 210.095L214.174 197.325Z" fill="#7B36C7"/>
<path d="M214.174 197.325L228.307 194.654L234.986 206.008L225.822 215.813L212.945 210.095L214.174 197.325Z" fill="#5E1F90"/>
<path d="M214.174 197.325L228.307 194.654L234.986 206.008L225.822 215.813L212.945 210.095L214.174 197.325Z" fill="url(#paint33_linear_452_1602)" fill-opacity="0.5"/>
<path d="M201.377 171.492L207.709 173.95C204.944 177.201 203.239 181.218 202.82 185.464C199.919 185.873 197.199 187.117 194.992 189.044C194.393 185.696 194.393 182.268 194.992 178.919C196.721 176.126 198.875 173.62 201.377 171.492Z" fill="#7B3AFF"/>
<path d="M201.377 171.492L207.709 173.95C204.944 177.201 203.239 181.218 202.82 185.464C199.919 185.873 197.199 187.117 194.992 189.044C194.393 185.696 194.393 182.268 194.992 178.919C196.721 176.126 198.875 173.62 201.377 171.492Z" fill="#7B36C7"/>
<path d="M201.377 171.492L207.709 173.95C204.944 177.201 203.239 181.218 202.82 185.464C199.919 185.873 197.199 187.117 194.992 189.044C194.393 185.696 194.393 182.268 194.992 178.919C196.721 176.126 198.875 173.62 201.377 171.492Z" fill="#5E1F90"/>
<path d="M201.377 171.492L207.709 173.95C204.944 177.201 203.239 181.218 202.82 185.464C199.919 185.873 197.199 187.117 194.992 189.044C194.393 185.696 194.393 182.268 194.992 178.919C196.721 176.126 198.875 173.62 201.377 171.492Z" fill="url(#paint34_linear_452_1602)" fill-opacity="0.5"/>
<path d="M214.522 226.313C219.083 226.649 223.648 225.724 227.719 223.641C232.13 224.408 236.669 223.544 240.489 221.21C236.787 223.887 232.548 225.729 228.065 226.61C223.582 227.491 218.962 227.39 214.522 226.313Z" fill="#7B3AFF"/>
<path d="M214.522 226.313C219.083 226.649 223.648 225.724 227.719 223.641C232.13 224.408 236.669 223.544 240.489 221.21C236.787 223.887 232.548 225.729 228.065 226.61C223.582 227.491 218.962 227.39 214.522 226.313Z" fill="#7B36C7"/>
<path d="M214.522 226.313C219.083 226.649 223.648 225.724 227.719 223.641C232.13 224.408 236.669 223.544 240.489 221.21C236.787 223.887 232.548 225.729 228.065 226.61C223.582 227.491 218.962 227.39 214.522 226.313Z" fill="#5E1F90"/>
<path d="M214.522 226.313C219.083 226.649 223.648 225.724 227.719 223.641C232.13 224.408 236.669 223.544 240.489 221.21C236.787 223.887 232.548 225.729 228.065 226.61C223.582 227.491 218.962 227.39 214.522 226.313Z" fill="url(#paint35_linear_452_1602)" fill-opacity="0.5"/>
<path d="M201.725 219.766L201.298 213.969C201.298 213.969 195.073 209.855 193.497 204.779L190.558 200.237C191.778 207.89 195.749 214.834 201.725 219.766Z" fill="#7B3AFF"/>
<path d="M201.725 219.766L201.298 213.969C201.298 213.969 195.073 209.855 193.497 204.779L190.558 200.237C191.778 207.89 195.749 214.834 201.725 219.766Z" fill="#7B36C7"/>
<path d="M201.725 219.766L201.298 213.969C201.298 213.969 195.073 209.855 193.497 204.779L190.558 200.237C191.778 207.89 195.749 214.834 201.725 219.766Z" fill="#5E1F90"/>
<path d="M201.725 219.766L201.298 213.969C201.298 213.969 195.073 209.855 193.497 204.779L190.558 200.237C191.778 207.89 195.749 214.834 201.725 219.766Z" fill="url(#paint36_linear_452_1602)" fill-opacity="0.5"/>
<path d="M233.971 178.839L225.956 170.103C227.496 167.984 229.679 166.419 232.181 165.641C232.181 165.641 233.917 166.283 235.36 166.897C235.36 166.897 243.802 173.229 243.054 178.839H233.971Z" fill="#7B3AFF"/>
<path d="M233.971 178.839L225.956 170.103C227.496 167.984 229.679 166.419 232.181 165.641C232.181 165.641 233.917 166.283 235.36 166.897C235.36 166.897 243.802 173.229 243.054 178.839H233.971Z" fill="#7B36C7"/>
<path d="M233.971 178.839L225.956 170.103C227.496 167.984 229.679 166.419 232.181 165.641C232.181 165.641 233.917 166.283 235.36 166.897C235.36 166.897 243.802 173.229 243.054 178.839H233.971Z" fill="#5E1F90"/>
<path d="M233.971 178.839L225.956 170.103C227.496 167.984 229.679 166.419 232.181 165.641C232.181 165.641 233.917 166.283 235.36 166.897C235.36 166.897 243.802 173.229 243.054 178.839H233.971Z" fill="url(#paint37_linear_452_1602)" fill-opacity="0.5"/>
<path d="M178.315 197.846L164.899 153.067L139.827 171.104L178.315 197.846Z" fill="url(#paint38_linear_452_1602)" stroke="#7B36C7" stroke-opacity="0.2" stroke-width="0.8" stroke-linecap="round" stroke-linejoin="round"/>
<path d="M126.708 185.503C126.708 185.235 139.826 171.074 139.826 171.074L178.285 197.906L126.708 185.503Z" fill="url(#paint39_linear_452_1602)" stroke="#7B36C7" stroke-opacity="0.2" stroke-width="0.8" stroke-linecap="round" stroke-linejoin="round"/>
<path d="M126.53 165.916L126.709 185.503L139.826 171.104L126.53 165.916Z" fill="url(#paint40_linear_452_1602)" stroke="#7B36C7" stroke-opacity="0.2" stroke-width="0.8" stroke-linecap="round" stroke-linejoin="round"/>
<path d="M143.136 149.161C143.136 149.161 140.482 171.342 139.826 171.074L126.5 165.886L143.136 149.161Z" fill="url(#paint41_linear_452_1602)" stroke="#7B36C7" stroke-opacity="0.2" stroke-width="0.8" stroke-linecap="round" stroke-linejoin="round"/>
<path d="M164.064 138.667L164.899 153.066L143.166 149.191L164.064 138.667Z" fill="url(#paint42_linear_452_1602)" stroke="#7B36C7" stroke-opacity="0.2" stroke-width="0.8" stroke-linecap="round" stroke-linejoin="round"/>
<path d="M182.728 145.106L164.899 153.066L164.065 138.667L182.728 145.106Z" fill="url(#paint43_linear_452_1602)" stroke="#7B36C7" stroke-opacity="0.2" stroke-width="0.8" stroke-linecap="round" stroke-linejoin="round"/>
<path d="M178.315 197.846L182.728 145.106L164.899 153.066L178.315 197.846Z" fill="url(#paint44_linear_452_1602)" stroke="#7B36C7" stroke-opacity="0.2" stroke-width="0.8" stroke-linecap="round" stroke-linejoin="round"/>
<path d="M143.166 149.191L139.827 171.104L164.899 153.066L143.166 149.191Z" fill="url(#paint45_linear_452_1602)" stroke="#7B36C7" stroke-opacity="0.2" stroke-width="0.8" stroke-linecap="round" stroke-linejoin="round"/>
<defs>
<filter id="filter0_f_452_1602" x="37.5645" y="39.571" width="289.865" height="289.865" filterUnits="userSpaceOnUse" color-interpolation-filters="sRGB">
<feFlood flood-opacity="0" result="BackgroundImageFix"/>
<feBlend mode="normal" in="SourceGraphic" in2="BackgroundImageFix" result="shape"/>
<feGaussianBlur stdDeviation="41" result="effect1_foregroundBlur_452_1602"/>
</filter>
<linearGradient id="paint0_linear_452_1602" x1="183" y1="78.3706" x2="183" y2="359.141" gradientUnits="userSpaceOnUse">
<stop stop-color="white" stop-opacity="0.7"/>
<stop offset="1" stop-color="white" stop-opacity="0"/>
</linearGradient>
<linearGradient id="paint1_linear_452_1602" x1="183" y1="289.63" x2="183" y2="8.85945" gradientUnits="userSpaceOnUse">
<stop stop-color="white" stop-opacity="0.7"/>
<stop offset="1" stop-color="white" stop-opacity="0"/>
</linearGradient>
<linearGradient id="paint2_linear_452_1602" x1="288.63" y1="184" x2="7.85926" y2="184" gradientUnits="userSpaceOnUse">
<stop stop-color="white" stop-opacity="0.7"/>
<stop offset="1" stop-color="white" stop-opacity="0"/>
</linearGradient>
<linearGradient id="paint3_linear_452_1602" x1="77.3704" y1="184" x2="358.141" y2="184" gradientUnits="userSpaceOnUse">
<stop stop-color="white" stop-opacity="0.7"/>
<stop offset="1" stop-color="white" stop-opacity="0"/>
</linearGradient>
<linearGradient id="paint4_linear_452_1602" x1="257.691" y1="109.308" x2="59.1565" y2="307.843" gradientUnits="userSpaceOnUse">
<stop stop-color="white" stop-opacity="0.7"/>
<stop offset="1" stop-color="white" stop-opacity="0"/>
</linearGradient>
<linearGradient id="paint5_linear_452_1602" x1="108.308" y1="258.691" x2="306.843" y2="60.1566" gradientUnits="userSpaceOnUse">
<stop stop-color="white" stop-opacity="0.7"/>
<stop offset="1" stop-color="white" stop-opacity="0"/>
</linearGradient>
<linearGradient id="paint6_linear_452_1602" x1="257.692" y1="258.691" x2="59.1571" y2="60.1567" gradientUnits="userSpaceOnUse">
<stop stop-color="white" stop-opacity="0.7"/>
<stop offset="1" stop-color="white" stop-opacity="0"/>
</linearGradient>
<linearGradient id="paint7_linear_452_1602" x1="108.309" y1="109.308" x2="306.844" y2="307.843" gradientUnits="userSpaceOnUse">
<stop stop-color="white" stop-opacity="0.7"/>
<stop offset="1" stop-color="white" stop-opacity="0"/>
</linearGradient>
<linearGradient id="paint8_linear_452_1602" x1="3700.35" y1="10928.2" x2="3900.53" y2="10928.2" gradientUnits="userSpaceOnUse">
<stop stop-color="#2D145E"/>
<stop offset="1" stop-color="#992BCC"/>
</linearGradient>
<linearGradient id="paint9_linear_452_1602" x1="205.209" y1="54.2056" x2="180.404" y2="79.4725" gradientUnits="userSpaceOnUse">
<stop stop-color="#992BCC"/>
<stop offset="1" stop-color="#2D145E"/>
</linearGradient>
<linearGradient id="paint10_linear_452_1602" x1="180.403" y1="79.4712" x2="205.209" y2="79.4712" gradientUnits="userSpaceOnUse">
<stop stop-color="#BC0ECB"/>
<stop offset="1" stop-color="#743AC6"/>
</linearGradient>
<linearGradient id="paint11_linear_452_1602" x1="3596.72" y1="10511" x2="3789.13" y2="10511" gradientUnits="userSpaceOnUse">
<stop stop-color="#2D145E"/>
<stop offset="1" stop-color="#992BCC"/>
</linearGradient>
<linearGradient id="paint12_linear_452_1602" x1="237.347" y1="55.1867" x2="213.497" y2="79.4723" gradientUnits="userSpaceOnUse">
<stop stop-color="#992BCC"/>
<stop offset="1" stop-color="#2D145E"/>
</linearGradient>
<linearGradient id="paint13_linear_452_1602" x1="213.505" y1="79.4804" x2="237.347" y2="79.4804" gradientUnits="userSpaceOnUse">
<stop stop-color="#BC0ECB"/>
<stop offset="1" stop-color="#743AC6"/>
</linearGradient>
<linearGradient id="paint14_linear_452_1602" x1="3532.78" y1="10511" x2="3725.19" y2="10511" gradientUnits="userSpaceOnUse">
<stop stop-color="#2D145E"/>
<stop offset="1" stop-color="#992BCC"/>
</linearGradient>
<linearGradient id="paint15_linear_452_1602" x1="173.339" y1="55.1867" x2="149.489" y2="79.4727" gradientUnits="userSpaceOnUse">
<stop stop-color="#992BCC"/>
<stop offset="1" stop-color="#2D145E"/>
</linearGradient>
<linearGradient id="paint16_linear_452_1602" x1="149.497" y1="79.4804" x2="173.339" y2="79.4804" gradientUnits="userSpaceOnUse">
<stop stop-color="#BC0ECB"/>
<stop offset="1" stop-color="#743AC6"/>
</linearGradient>
<linearGradient id="paint17_linear_452_1602" x1="15190.6" y1="46593.4" x2="16046.5" y2="46593.4" gradientUnits="userSpaceOnUse">
<stop stop-color="#2D145E"/>
<stop offset="1" stop-color="#992BCC"/>
</linearGradient>
<linearGradient id="paint18_linear_452_1602" x1="246.654" y1="91.3717" x2="140.579" y2="199.405" gradientUnits="userSpaceOnUse">
<stop stop-color="#992BCC"/>
<stop offset="1" stop-color="#2D145E"/>
</linearGradient>
<linearGradient id="paint19_linear_452_1602" x1="140.594" y1="199.419" x2="246.654" y2="199.419" gradientUnits="userSpaceOnUse">
<stop stop-color="#BC0ECB"/>
<stop offset="1" stop-color="#743AC6"/>
</linearGradient>
<linearGradient id="paint20_linear_452_1602" x1="115.5" y1="2882.11" x2="4776.5" y2="2882.11" gradientUnits="userSpaceOnUse">
<stop stop-color="white"/>
<stop offset="1" stop-color="#FCFFD4"/>
</linearGradient>
<linearGradient id="paint21_linear_452_1602" x1="174.44" y1="143.012" x2="174.44" y2="210.032" gradientUnits="userSpaceOnUse">
<stop stop-color="#FF8825"/>
<stop offset="1" stop-color="#EF4136"/>
</linearGradient>
<linearGradient id="paint22_linear_452_1602" x1="156.094" y1="912.193" x2="115.5" y2="912.193" gradientUnits="userSpaceOnUse">
<stop stop-color="#BCA5FF"/>
<stop offset="1" stop-color="#BC15FF"/>
</linearGradient>
<linearGradient id="paint23_linear_452_1602" x1="221.895" y1="163.985" x2="221.895" y2="227.194" gradientUnits="userSpaceOnUse">
<stop stop-color="#ECDBFF"/>
<stop offset="1" stop-color="#FFDEB7"/>
</linearGradient>
<linearGradient id="paint24_linear_452_1602" x1="239.923" y1="178.839" x2="239.923" y2="206.009" gradientUnits="userSpaceOnUse">
<stop stop-color="#ECDBFF"/>
<stop offset="1" stop-color="#FFDEB7"/>
</linearGradient>
<linearGradient id="paint25_linear_452_1602" x1="218.396" y1="169.777" x2="218.396" y2="197.326" gradientUnits="userSpaceOnUse">
<stop stop-color="#ECDBFF"/>
<stop offset="1" stop-color="#FFDEB7"/>
</linearGradient>
<linearGradient id="paint26_linear_452_1602" x1="214.508" y1="210.07" x2="214.508" y2="226.373" gradientUnits="userSpaceOnUse">
<stop stop-color="#ECDBFF"/>
<stop offset="1" stop-color="#FFDEB7"/>
</linearGradient>
<linearGradient id="paint27_linear_452_1602" x1="237.03" y1="204.994" x2="237.03" y2="224.007" gradientUnits="userSpaceOnUse">
<stop stop-color="#ECDBFF"/>
<stop offset="1" stop-color="#FFDEB7"/>
</linearGradient>
<linearGradient id="paint28_linear_452_1602" x1="203.649" y1="185.464" x2="203.649" y2="213.97" gradientUnits="userSpaceOnUse">
<stop stop-color="#ECDBFF"/>
<stop offset="1" stop-color="#FFDEB7"/>
</linearGradient>
<linearGradient id="paint29_linear_452_1602" x1="192.615" y1="178.919" x2="192.615" y2="204.78" gradientUnits="userSpaceOnUse">
<stop stop-color="#ECDBFF"/>
<stop offset="1" stop-color="#FFDEB7"/>
</linearGradient>
<linearGradient id="paint30_linear_452_1602" x1="216.726" y1="164.048" x2="216.726" y2="173.949" gradientUnits="userSpaceOnUse">
<stop stop-color="#ECDBFF"/>
<stop offset="1" stop-color="#FFDEB7"/>
</linearGradient>
<linearGradient id="paint31_linear_452_1602" x1="243.602" y1="166.897" x2="243.602" y2="191.315" gradientUnits="userSpaceOnUse">
<stop stop-color="#ECDBFF"/>
<stop offset="1" stop-color="#FFDEB7"/>
</linearGradient>
<linearGradient id="paint32_linear_452_1602" x1="250.387" y1="185.839" x2="250.387" y2="213.008" gradientUnits="userSpaceOnUse">
<stop stop-color="#ECDBFF"/>
<stop offset="1" stop-color="#FFDEB7"/>
</linearGradient>
<linearGradient id="paint33_linear_452_1602" x1="235.698" y1="205.512" x2="203.568" y2="212.959" gradientUnits="userSpaceOnUse">
<stop stop-color="#992BCC"/>
<stop offset="1" stop-color="#2D145E"/>
</linearGradient>
<linearGradient id="paint34_linear_452_1602" x1="208.135" y1="180.499" x2="188.458" y2="183.783" gradientUnits="userSpaceOnUse">
<stop stop-color="#992BCC"/>
<stop offset="1" stop-color="#2D145E"/>
</linearGradient>
<linearGradient id="paint35_linear_452_1602" x1="241.329" y1="224.286" x2="220.655" y2="244.217" gradientUnits="userSpaceOnUse">
<stop stop-color="#992BCC"/>
<stop offset="1" stop-color="#2D145E"/>
</linearGradient>
<linearGradient id="paint36_linear_452_1602" x1="202.086" y1="210.259" x2="185.206" y2="212.407" gradientUnits="userSpaceOnUse">
<stop stop-color="#992BCC"/>
<stop offset="1" stop-color="#2D145E"/>
</linearGradient>
<linearGradient id="paint37_linear_452_1602" x1="243.655" y1="172.414" x2="219.35" y2="179.44" gradientUnits="userSpaceOnUse">
<stop stop-color="#992BCC"/>
<stop offset="1" stop-color="#2D145E"/>
</linearGradient>
<linearGradient id="paint38_linear_452_1602" x1="159.071" y1="153.067" x2="159.071" y2="197.846" gradientUnits="userSpaceOnUse">
<stop stop-color="#B48AFF"/>
<stop offset="1" stop-color="white" stop-opacity="0.58"/>
</linearGradient>
<linearGradient id="paint39_linear_452_1602" x1="152.497" y1="171.074" x2="152.497" y2="197.906" gradientUnits="userSpaceOnUse">
<stop stop-color="#B48AFF"/>
<stop offset="1" stop-color="white" stop-opacity="0.58"/>
</linearGradient>
<linearGradient id="paint40_linear_452_1602" x1="133.178" y1="165.916" x2="133.178" y2="185.503" gradientUnits="userSpaceOnUse">
<stop stop-color="#B48AFF"/>
<stop offset="1" stop-color="white" stop-opacity="0.58"/>
</linearGradient>
<linearGradient id="paint41_linear_452_1602" x1="134.818" y1="149.161" x2="134.818" y2="171.076" gradientUnits="userSpaceOnUse">
<stop stop-color="#B48AFF"/>
<stop offset="1" stop-color="white" stop-opacity="0.58"/>
</linearGradient>
<linearGradient id="paint42_linear_452_1602" x1="154.032" y1="138.667" x2="154.032" y2="153.066" gradientUnits="userSpaceOnUse">
<stop stop-color="#B48AFF"/>
<stop offset="1" stop-color="white" stop-opacity="0.58"/>
</linearGradient>
<linearGradient id="paint43_linear_452_1602" x1="173.396" y1="138.667" x2="173.396" y2="153.066" gradientUnits="userSpaceOnUse">
<stop stop-color="#B48AFF"/>
<stop offset="1" stop-color="white" stop-opacity="0.58"/>
</linearGradient>
<linearGradient id="paint44_linear_452_1602" x1="173.814" y1="145.106" x2="173.814" y2="197.846" gradientUnits="userSpaceOnUse">
<stop stop-color="#B48AFF"/>
<stop offset="1" stop-color="white" stop-opacity="0.58"/>
</linearGradient>
<linearGradient id="paint45_linear_452_1602" x1="152.363" y1="149.191" x2="152.363" y2="171.104" gradientUnits="userSpaceOnUse">
<stop stop-color="#B48AFF"/>
<stop offset="1" stop-color="white" stop-opacity="0.58"/>
</linearGradient>
</defs>
</svg>
