<svg width="129" height="167" viewBox="0 0 129 167" fill="none" xmlns="http://www.w3.org/2000/svg">
<g clip-path="url(#clip0_452_2275)">
<path d="M54.9756 91.1772C54.9756 91.1772 62.5176 90.29 64.4713 94.8L54.9756 91.1772Z" fill="white"/>
<path d="M54.9756 91.1772C54.9756 91.1772 62.5176 90.29 64.4713 94.8" stroke="#231F20" stroke-width="1.32357" stroke-miterlimit="10"/>
<path d="M112.391 165.784L31.7265 154.369C30.9571 154.265 30.2162 154.009 29.5469 153.615C28.8777 153.222 28.2936 152.699 27.8288 152.077L27.3423 151.433L45.1665 37.9062L128.549 49.4916L112.391 165.784Z" fill="url(#paint0_linear_452_2275)"/>
<path d="M112.391 165.784L31.7265 154.369C30.9571 154.265 30.2162 154.009 29.5469 153.615C28.8777 153.222 28.2936 152.699 27.8288 152.077L27.3423 151.433L45.1665 37.9062L128.549 49.4916L112.391 165.784Z" fill="#FF8625"/>
<path d="M112.391 165.784L31.7265 154.369C30.9571 154.265 30.2162 154.009 29.5469 153.615C28.8777 153.222 28.2936 152.699 27.8288 152.077L27.3423 151.433L45.1665 37.9062L128.549 49.4916L112.391 165.784Z" fill="black" fill-opacity="0.2"/>
<path d="M112.391 165.784L31.7265 154.369C30.9571 154.265 30.2162 154.009 29.5469 153.615C28.8777 153.222 28.2936 152.699 27.8288 152.077L27.3423 151.433L45.1665 37.9062L128.549 49.4916L112.391 165.784Z" fill="#5E1F90"/>
<path d="M112.391 165.784L31.7265 154.369C30.9571 154.265 30.2162 154.009 29.5469 153.615C28.8777 153.222 28.2936 152.699 27.8288 152.077L27.3423 151.433L45.1665 37.9062L128.549 49.4916L112.391 165.784Z" fill="url(#paint1_linear_452_2275)" fill-opacity="0.5"/>
<path d="M110.725 163.019L27.3646 151.436L25.2759 148.727L43.5195 35.166L126.88 46.7483L110.725 163.019Z" fill="url(#paint2_linear_452_2275)"/>
<path d="M108.914 160.302L25.2823 148.682L24.5747 147.638C23.9405 146.696 23.6807 145.551 23.8459 144.427L41.7303 32.2905L125.091 43.8728L108.914 160.302Z" fill="url(#paint3_linear_452_2275)"/>
<path d="M29.5738 153.874L41.8388 155.579L34.0611 152.614L30.3947 151.282C28.3695 150.547 26.9399 148.722 26.71 146.58L23.9263 144.9L23.7499 146.168C23.2308 149.906 25.8371 153.355 29.5738 153.874Z" fill="#FF8625"/>
<path d="M29.5738 153.874L41.8388 155.579L34.0611 152.614L30.3947 151.282C28.3695 150.547 26.9399 148.722 26.71 146.58L23.9263 144.9L23.7499 146.168C23.2308 149.906 25.8371 153.355 29.5738 153.874Z" fill="#5E1F90"/>
<path d="M29.5738 153.874L41.8388 155.579L34.0611 152.614L30.3947 151.282C28.3695 150.547 26.9399 148.722 26.71 146.58L23.9263 144.9L23.7499 146.168C23.2308 149.906 25.8371 153.355 29.5738 153.874Z" fill="url(#paint4_linear_452_2275)" fill-opacity="0.5"/>
<path d="M41.3987 30.033L123.064 41.3797L106.906 157.673L25.2408 146.326C24.8052 146.236 24.4207 145.982 24.1671 145.617C23.9134 145.251 23.8098 144.802 23.8778 144.362L39.5553 31.5279C39.6185 31.0723 39.8603 30.6605 40.2272 30.3831C40.594 30.1057 41.0561 29.9854 41.5118 30.0488L41.3987 30.033Z" fill="url(#paint5_linear_452_2275)"/>
<path d="M41.3987 30.033L123.064 41.3797L106.906 157.673L25.2408 146.326C24.8052 146.236 24.4207 145.982 24.1671 145.617C23.9134 145.251 23.8098 144.802 23.8778 144.362L39.5553 31.5279C39.6185 31.0723 39.8603 30.6605 40.2272 30.3831C40.594 30.1057 41.0561 29.9854 41.5118 30.0488L41.3987 30.033Z" fill="#FFBF5E"/>
<path d="M41.3987 30.033L123.064 41.3797L106.906 157.673L25.2408 146.326C24.8052 146.236 24.4207 145.982 24.1671 145.617C23.9134 145.251 23.8098 144.802 23.8778 144.362L39.5553 31.5279C39.6185 31.0723 39.8603 30.6605 40.2272 30.3831C40.594 30.1057 41.0561 29.9854 41.5118 30.0488L41.3987 30.033Z" fill="#5E1F90"/>
<path d="M41.3987 30.033L123.064 41.3797L106.906 157.673L25.2408 146.326C24.8052 146.236 24.4207 145.982 24.1671 145.617C23.9134 145.251 23.8098 144.802 23.8778 144.362L39.5553 31.5279C39.6185 31.0723 39.8603 30.6605 40.2272 30.3831C40.594 30.1057 41.0561 29.9854 41.5118 30.0488L41.3987 30.033Z" fill="url(#paint6_linear_452_2275)" fill-opacity="0.5"/>
<path d="M41.3987 30.033L123.064 41.3797L106.906 157.673L25.2408 146.326C24.8052 146.236 24.4207 145.982 24.1671 145.617C23.9134 145.251 23.8098 144.802 23.8778 144.362L39.5553 31.5279C39.6185 31.0723 39.8603 30.6605 40.2272 30.3831C40.594 30.1057 41.0561 29.9854 41.5118 30.0488L41.3987 30.033Z" fill="url(#paint7_linear_452_2275)" fill-opacity="0.77"/>
<path d="M101.931 157.388C101.554 156.58 101.005 155.874 100.324 155.324C99.6434 154.773 98.8485 154.393 98.0006 154.211C92.7589 153.492 87.6435 152.033 82.7968 149.873C77.7691 147.477 74.9993 142.739 75.9318 138.18C76.6099 135.115 77.5804 132.125 78.8285 129.253L56.4824 126.148C56.8877 129.252 57.006 132.393 56.8359 135.526C56.4772 140.261 52.5336 143.971 47.0202 144.903C41.776 145.659 36.4645 145.669 31.2327 144.934C31.2327 144.934 23.5256 146.255 26.5627 146.917C29.068 147.432 101.931 157.388 101.931 157.388Z" fill="url(#paint8_linear_452_2275)"/>
<path d="M101.931 157.388C101.554 156.58 101.005 155.874 100.324 155.324C99.6434 154.773 98.8485 154.393 98.0006 154.211C92.7589 153.492 87.6435 152.033 82.7968 149.873C77.7691 147.477 74.9993 142.739 75.9318 138.18C76.6099 135.115 77.5804 132.125 78.8285 129.253L56.4824 126.148C56.8877 129.252 57.006 132.393 56.8359 135.526C56.4772 140.261 52.5336 143.971 47.0202 144.903C41.776 145.659 36.4645 145.669 31.2327 144.934C31.2327 144.934 23.5256 146.255 26.5627 146.917C29.068 147.432 101.931 157.388 101.931 157.388Z" fill="#FFD9AD"/>
<path d="M101.931 157.388C101.554 156.58 101.005 155.874 100.324 155.324C99.6434 154.773 98.8485 154.393 98.0006 154.211C92.7589 153.492 87.6435 152.033 82.7968 149.873C77.7691 147.477 74.9993 142.739 75.9318 138.18C76.6099 135.115 77.5804 132.125 78.8285 129.253L56.4824 126.148C56.8877 129.252 57.006 132.393 56.8359 135.526C56.4772 140.261 52.5336 143.971 47.0202 144.903C41.776 145.659 36.4645 145.669 31.2327 144.934C31.2327 144.934 23.5256 146.255 26.5627 146.917C29.068 147.432 101.931 157.388 101.931 157.388Z" fill="#FFE8CC" fill-opacity="0.33"/>
<path d="M48.8099 82.4872L47.2397 93.7884C46.2776 100.713 48.1055 107.735 52.3212 113.312C56.5369 118.887 62.795 122.56 69.719 123.523C76.6428 124.485 83.6653 122.657 89.2412 118.441C94.8177 114.225 98.4909 107.967 99.4532 101.043L100.552 93.1326C100.552 93.1326 81.0611 93.627 63.8886 75.113C63.5483 74.7432 59.7562 83.1325 49.0485 82.4282L48.8099 82.4872Z" fill="white" stroke="#231F20" stroke-width="0.798708" stroke-miterlimit="10"/>
<path d="M87.6676 36.4618C85.7336 30.4793 77.1195 31.1256 77.1195 31.1256C77.5931 16.6074 62.8362 17.8517 61.3368 18.1964C61.5355 13.616 59.2498 5.85668 51.1579 4.73238C40.2632 3.21864 37.9818 10.8503 37.3034 15.7326C36.6396 15.493 35.9535 15.3204 35.2553 15.2176C33.0474 14.899 30.7944 15.2267 28.7688 16.1612C26.7432 17.0957 25.0316 18.597 23.841 20.4835C22.6504 22.37 22.0318 24.5609 22.0598 26.7916C22.0879 29.0222 22.7615 31.1969 23.9992 33.0529L23.6607 33.1671C21.7266 32.9175 19.7639 33.3052 18.0697 34.2713C16.3757 35.2375 15.0428 36.7294 14.2729 38.5212C13.503 40.313 13.3382 42.307 13.8033 44.2009C14.2685 46.0948 15.3383 47.7855 16.8507 49.0167C14.6621 49.6376 12.7231 50.9286 11.3061 52.7084C9.88912 54.4882 9.06533 56.6671 8.95041 58.9391C8.83556 61.2112 9.43548 63.4621 10.6658 65.3756C11.8962 67.2892 13.6951 68.7692 15.8099 69.6076C15.0353 70.2479 14.5305 71.1568 14.3964 72.1529C14.2471 73.228 14.5293 74.3186 15.1814 75.1862C15.8337 76.054 16.8028 76.6282 17.8771 76.7836C9.60351 80.4493 14.3342 87.0274 14.3342 87.0274C6.00104 99.5781 20.2981 102.14 20.2981 102.14C19.3362 113.872 30.5671 109.65 30.5671 109.65C33.5732 125.158 45.7423 117.334 45.7423 117.334C45.7423 117.334 46.0668 117.817 47.8262 117.923C49.5855 118.03 79.6695 123.707 79.6695 123.707C80.0086 124.816 80.664 125.802 81.5554 126.543C82.4469 127.285 83.5356 127.751 84.6878 127.883C84.7697 128.507 85.0117 129.1 85.3904 129.603C85.7686 130.106 86.2707 130.503 86.8479 130.755C87.4251 131.006 88.0578 131.105 88.6837 131.04C89.3104 130.975 89.9089 130.749 90.423 130.385C96.8575 136.97 100.416 129.101 100.416 129.101C112.862 129.563 109.56 116.847 109.56 116.847C109.56 116.847 112.425 118.12 113.449 110.751L123.087 41.383L87.6676 36.4618Z" fill="url(#paint9_linear_452_2275)"/>
<path d="M87.6676 36.4618C85.7336 30.4793 77.1195 31.1256 77.1195 31.1256C77.5931 16.6074 62.8362 17.8517 61.3368 18.1964C61.5355 13.616 59.2498 5.85668 51.1579 4.73238C40.2632 3.21864 37.9818 10.8503 37.3034 15.7326C36.6396 15.493 35.9535 15.3204 35.2553 15.2176C33.0474 14.899 30.7944 15.2267 28.7688 16.1612C26.7432 17.0957 25.0316 18.597 23.841 20.4835C22.6504 22.37 22.0318 24.5609 22.0598 26.7916C22.0879 29.0222 22.7615 31.1969 23.9992 33.0529L23.6607 33.1671C21.7266 32.9175 19.7639 33.3052 18.0697 34.2713C16.3757 35.2375 15.0428 36.7294 14.2729 38.5212C13.503 40.313 13.3382 42.307 13.8033 44.2009C14.2685 46.0948 15.3383 47.7855 16.8507 49.0167C14.6621 49.6376 12.7231 50.9286 11.3061 52.7084C9.88912 54.4882 9.06533 56.6671 8.95041 58.9391C8.83556 61.2112 9.43548 63.4621 10.6658 65.3756C11.8962 67.2892 13.6951 68.7692 15.8099 69.6076C15.0353 70.2479 14.5305 71.1568 14.3964 72.1529C14.2471 73.228 14.5293 74.3186 15.1814 75.1862C15.8337 76.054 16.8028 76.6282 17.8771 76.7836C9.60351 80.4493 14.3342 87.0274 14.3342 87.0274C6.00104 99.5781 20.2981 102.14 20.2981 102.14C19.3362 113.872 30.5671 109.65 30.5671 109.65C33.5732 125.158 45.7423 117.334 45.7423 117.334C45.7423 117.334 46.0668 117.817 47.8262 117.923C49.5855 118.03 79.6695 123.707 79.6695 123.707C80.0086 124.816 80.664 125.802 81.5554 126.543C82.4469 127.285 83.5356 127.751 84.6878 127.883C84.7697 128.507 85.0117 129.1 85.3904 129.603C85.7686 130.106 86.2707 130.503 86.8479 130.755C87.4251 131.006 88.0578 131.105 88.6837 131.04C89.3104 130.975 89.9089 130.749 90.423 130.385C96.8575 136.97 100.416 129.101 100.416 129.101C112.862 129.563 109.56 116.847 109.56 116.847C109.56 116.847 112.425 118.12 113.449 110.751L123.087 41.383L87.6676 36.4618Z" fill="#FF8825"/>
<path d="M87.6676 36.4618C85.7336 30.4793 77.1195 31.1256 77.1195 31.1256C77.5931 16.6074 62.8362 17.8517 61.3368 18.1964C61.5355 13.616 59.2498 5.85668 51.1579 4.73238C40.2632 3.21864 37.9818 10.8503 37.3034 15.7326C36.6396 15.493 35.9535 15.3204 35.2553 15.2176C33.0474 14.899 30.7944 15.2267 28.7688 16.1612C26.7432 17.0957 25.0316 18.597 23.841 20.4835C22.6504 22.37 22.0318 24.5609 22.0598 26.7916C22.0879 29.0222 22.7615 31.1969 23.9992 33.0529L23.6607 33.1671C21.7266 32.9175 19.7639 33.3052 18.0697 34.2713C16.3757 35.2375 15.0428 36.7294 14.2729 38.5212C13.503 40.313 13.3382 42.307 13.8033 44.2009C14.2685 46.0948 15.3383 47.7855 16.8507 49.0167C14.6621 49.6376 12.7231 50.9286 11.3061 52.7084C9.88912 54.4882 9.06533 56.6671 8.95041 58.9391C8.83556 61.2112 9.43548 63.4621 10.6658 65.3756C11.8962 67.2892 13.6951 68.7692 15.8099 69.6076C15.0353 70.2479 14.5305 71.1568 14.3964 72.1529C14.2471 73.228 14.5293 74.3186 15.1814 75.1862C15.8337 76.054 16.8028 76.6282 17.8771 76.7836C9.60351 80.4493 14.3342 87.0274 14.3342 87.0274C6.00104 99.5781 20.2981 102.14 20.2981 102.14C19.3362 113.872 30.5671 109.65 30.5671 109.65C33.5732 125.158 45.7423 117.334 45.7423 117.334C45.7423 117.334 46.0668 117.817 47.8262 117.923C49.5855 118.03 79.6695 123.707 79.6695 123.707C80.0086 124.816 80.664 125.802 81.5554 126.543C82.4469 127.285 83.5356 127.751 84.6878 127.883C84.7697 128.507 85.0117 129.1 85.3904 129.603C85.7686 130.106 86.2707 130.503 86.8479 130.755C87.4251 131.006 88.0578 131.105 88.6837 131.04C89.3104 130.975 89.9089 130.749 90.423 130.385C96.8575 136.97 100.416 129.101 100.416 129.101C112.862 129.563 109.56 116.847 109.56 116.847C109.56 116.847 112.425 118.12 113.449 110.751L123.087 41.383L87.6676 36.4618Z" fill="url(#paint10_linear_452_2275)"/>
<path d="M47.5792 102.291C44.8888 102.585 42.41 100.029 42.0159 96.5648C41.7873 95.3028 41.9552 94.0015 42.4962 92.8386C43.0373 91.6765 43.9251 90.71 45.0376 90.0721C45.6372 89.7818 46.2966 89.6367 46.9627 89.6486L48.8839 89.9159" fill="url(#paint11_linear_452_2275)"/>
<path d="M47.5792 102.291C44.8888 102.585 42.41 100.029 42.0159 96.5648C41.7873 95.3028 41.9552 94.0015 42.4962 92.8386C43.0373 91.6765 43.9251 90.71 45.0376 90.0721C45.6372 89.7818 46.2966 89.6367 46.9627 89.6486L48.8839 89.9159" fill="#FFD9AD" fill-opacity="0.5"/>
<path d="M47.5792 102.291C44.8888 102.585 42.41 100.029 42.0159 96.5648C41.7873 95.3028 41.9552 94.0015 42.4962 92.8386C43.0373 91.6765 43.9251 90.71 45.0376 90.0721C45.6372 89.7818 46.2966 89.6367 46.9627 89.6486L48.8839 89.9159" fill="#FFE8CC" fill-opacity="0.33"/>
<path d="M47.5792 102.291C44.8888 102.585 42.41 100.029 42.0159 96.5648C41.7873 95.3028 41.9552 94.0015 42.4962 92.8386C43.0373 91.6765 43.9251 90.71 45.0376 90.0721C45.6372 89.7818 46.2966 89.6367 46.9627 89.6486L48.8839 89.9159" fill="url(#paint12_linear_452_2275)" fill-opacity="0.33"/>
<path d="M47.5792 102.291C44.8888 102.585 42.41 100.029 42.0159 96.5648C41.7873 95.3028 41.9552 94.0015 42.4962 92.8386C43.0373 91.6765 43.9251 90.71 45.0376 90.0721C45.6372 89.7818 46.2966 89.6367 46.9627 89.6486L48.8839 89.9159" stroke="url(#paint13_linear_452_2275)" stroke-opacity="0.5" stroke-width="0.684607" stroke-miterlimit="10"/>
<path d="M95.4276 100C95.4276 100 77.3929 100.628 61.6444 82.3119C61.3268 81.9452 57.7381 90.3626 47.799 89.7649L46.2287 101.066C44.225 115.488 53.383 128.671 66.6963 130.522C80.0095 132.371 92.4152 122.183 94.4184 107.762L95.4643 100.236" fill="#FFD9AD"/>
<path d="M95.4276 100C95.4276 100 77.3929 100.628 61.6444 82.3119C61.3268 81.9452 57.7381 90.3626 47.799 89.7649L46.2287 101.066C44.225 115.488 53.383 128.671 66.6963 130.522C80.0095 132.371 92.4152 122.183 94.4184 107.762L95.4643 100.236" fill="url(#paint14_linear_452_2275)" fill-opacity="0.22"/>
<path d="M95.4276 100C95.4276 100 77.3929 100.628 61.6444 82.3119C61.3268 81.9452 57.7381 90.3626 47.799 89.7649L46.2287 101.066C44.225 115.488 53.383 128.671 66.6963 130.522C80.0095 132.371 92.4152 122.183 94.4184 107.762L95.4643 100.236" stroke="url(#paint15_linear_452_2275)" stroke-opacity="0.5" stroke-width="0.661787" stroke-miterlimit="10"/>
<path d="M63.3188 100.254C62.839 99.67 62.2329 99.1765 61.538 98.8042C60.8432 98.432 60.0747 98.1886 59.28 98.0896C58.4853 97.9905 57.6815 98.0375 56.9186 98.2279C56.1557 98.4183 55.45 98.7479 54.8452 99.197L63.3188 100.254Z" fill="url(#paint16_linear_452_2275)"/>
<path d="M63.3188 100.254C62.839 99.67 62.2329 99.1765 61.538 98.8042C60.8432 98.432 60.0747 98.1886 59.28 98.0896C58.4853 97.9905 57.6815 98.0375 56.9186 98.2279C56.1557 98.4183 55.45 98.7479 54.8452 99.197L63.3188 100.254Z" fill="#7D3BFC"/>
<path d="M63.3188 100.254C62.839 99.67 62.2329 99.1765 61.538 98.8042C60.8432 98.432 60.0747 98.1886 59.28 98.0896C58.4853 97.9905 57.6815 98.0375 56.9186 98.2279C56.1557 98.4183 55.45 98.7479 54.8452 99.197L63.3188 100.254Z" stroke="url(#paint17_linear_452_2275)" stroke-width="0.661787" stroke-miterlimit="10"/>
<path d="M63.3188 100.254C62.839 99.67 62.2329 99.1765 61.538 98.8042C60.8432 98.432 60.0747 98.1886 59.28 98.0896C58.4853 97.9905 57.6815 98.0375 56.9186 98.2279C56.1557 98.4183 55.45 98.7479 54.8452 99.197L63.3188 100.254Z" stroke="url(#paint18_linear_452_2275)" stroke-width="0.661787" stroke-miterlimit="10"/>
<path d="M64.955 93.1394C64.3833 92.3479 63.6542 91.6819 62.8134 91.1841C61.9726 90.6872 61.0381 90.3687 60.0685 90.2491C59.0988 90.1296 58.115 90.2116 57.1785 90.4891C56.242 90.7674 55.373 91.2362 54.626 91.8655" stroke="url(#paint19_linear_452_2275)" stroke-width="0.502045" stroke-linecap="round" stroke-linejoin="round"/>
<path d="M64.955 93.1394C64.3833 92.3479 63.6542 91.6819 62.8134 91.1841C61.9726 90.6872 61.0381 90.3687 60.0685 90.2491C59.0988 90.1296 58.115 90.2116 57.1785 90.4891C56.242 90.7674 55.373 91.2362 54.626 91.8655" stroke="url(#paint20_linear_452_2275)" stroke-width="0.502045" stroke-linecap="round" stroke-linejoin="round"/>
<path d="M86.1527 103.427C85.7284 102.851 85.1881 102.367 84.5665 102.004C83.9449 101.642 83.255 101.41 82.5396 101.322C81.8243 101.234 81.0986 101.292 80.408 101.491C79.7174 101.692 79.0764 102.031 78.5249 102.487L86.1527 103.427Z" fill="url(#paint21_linear_452_2275)"/>
<path d="M86.1527 103.427C85.7284 102.851 85.1881 102.367 84.5665 102.004C83.9449 101.642 83.255 101.41 82.5396 101.322C81.8243 101.234 81.0986 101.292 80.408 101.491C79.7174 101.692 79.0764 102.031 78.5249 102.487L86.1527 103.427Z" fill="#7D3BFC"/>
<path d="M86.1527 103.427C85.7284 102.851 85.1881 102.367 84.5665 102.004C83.9449 101.642 83.255 101.41 82.5396 101.322C81.8243 101.234 81.0986 101.292 80.408 101.491C79.7174 101.692 79.0764 102.031 78.5249 102.487L86.1527 103.427Z" stroke="url(#paint22_linear_452_2275)" stroke-width="0.661787" stroke-miterlimit="10"/>
<path d="M62.2219 116.79C68.2083 123.451 74.1494 119.991 76.1317 118.492C74.4056 117.645 72.5823 117.013 70.7026 116.609C67.7568 116.01 64.7353 115.878 61.7485 116.217L62.2219 116.79Z" fill="url(#paint23_linear_452_2275)"/>
<path d="M62.2219 116.79C68.2083 123.451 74.1494 119.991 76.1317 118.492C74.4056 117.645 72.5823 117.013 70.7026 116.609C67.7568 116.01 64.7353 115.878 61.7485 116.217L62.2219 116.79Z" fill="url(#paint24_linear_452_2275)"/>
<path d="M38.9826 145.111L38.4912 148.648L43.5655 149.353L44.1531 145.124L38.9826 145.111Z" fill="url(#paint25_linear_452_2275)"/>
<path d="M89.7264 152.161L89.2346 155.698L84.1606 154.992L84.7482 150.764L89.7264 152.161Z" fill="url(#paint26_linear_452_2275)"/>
<path d="M54.0926 107.713C54.3262 107.745 54.4892 107.961 54.4567 108.194C54.4243 108.428 54.2086 108.591 53.9751 108.558C53.7416 108.526 53.5786 108.31 53.611 108.077C53.6434 107.843 53.8591 107.68 54.0926 107.713Z" fill="#69219B"/>
<path d="M81.8841 112.436C82.1177 112.469 82.2807 112.684 82.2482 112.918C82.2158 113.151 82.0002 113.314 81.7666 113.282C81.5331 113.249 81.3701 113.034 81.4025 112.8C81.435 112.567 81.6506 112.404 81.8841 112.436Z" fill="#69219B"/>
<path d="M57.828 105.646C58.0615 105.679 58.2245 105.894 58.1921 106.128C58.1596 106.361 57.944 106.524 57.7105 106.492C57.4769 106.459 57.3139 106.244 57.3464 106.01C57.3788 105.777 57.5944 105.614 57.828 105.646Z" fill="#69219B"/>
<path d="M85.6195 110.369C85.853 110.401 86.016 110.617 85.9836 110.85C85.9511 111.084 85.7355 111.247 85.502 111.215C85.2684 111.182 85.1054 110.966 85.1379 110.733C85.1703 110.499 85.3859 110.336 85.6195 110.369Z" fill="#69219B"/>
<path d="M87.9217 112.413C88.1553 112.446 88.3183 112.661 88.2858 112.895C88.2534 113.128 88.0377 113.291 87.8042 113.259C87.5707 113.226 87.4077 113.011 87.4401 112.777C87.4725 112.544 87.6882 112.381 87.9217 112.413Z" fill="#69219B"/>
</g>
<defs>
<linearGradient id="paint0_linear_452_2275" x1="26011.6" y1="60003.4" x2="29237.8" y2="60451.7" gradientUnits="userSpaceOnUse">
<stop stop-color="#BC15FF"/>
<stop offset="1" stop-color="#FF6F00"/>
</linearGradient>
<linearGradient id="paint1_linear_452_2275" x1="123.018" y1="109.554" x2="-7.64565" y2="112.676" gradientUnits="userSpaceOnUse">
<stop stop-color="#992BCC"/>
<stop offset="1" stop-color="#2D145E"/>
</linearGradient>
<linearGradient id="paint2_linear_452_2275" x1="23507.2" y1="6343.47" x2="28055.9" y2="9075.1" gradientUnits="userSpaceOnUse">
<stop stop-color="#BD9AD9"/>
<stop offset="1" stop-color="white"/>
</linearGradient>
<linearGradient id="paint3_linear_452_2275" x1="25957.3" y1="59797.7" x2="29198" y2="60248.1" gradientUnits="userSpaceOnUse">
<stop stop-color="#D6BEE9"/>
<stop offset="1" stop-color="white"/>
</linearGradient>
<linearGradient id="paint4_linear_452_2275" x1="42.9973" y1="151.753" x2="18.4455" y2="160.63" gradientUnits="userSpaceOnUse">
<stop stop-color="#992BCC"/>
<stop offset="1" stop-color="#2D145E"/>
</linearGradient>
<linearGradient id="paint5_linear_452_2275" x1="22986.4" y1="7727.24" x2="26058.2" y2="8154.04" gradientUnits="userSpaceOnUse">
<stop stop-color="#FF6F00"/>
<stop offset="1" stop-color="#FFBF5E"/>
</linearGradient>
<linearGradient id="paint6_linear_452_2275" x1="117.463" y1="101.432" x2="-10.0417" y2="103.974" gradientUnits="userSpaceOnUse">
<stop stop-color="#992BCC"/>
<stop offset="1" stop-color="#2D145E"/>
</linearGradient>
<linearGradient id="paint7_linear_452_2275" x1="23.6358" y1="146.103" x2="106.028" y2="-22.7161" gradientUnits="userSpaceOnUse">
<stop stop-color="#BC0ECB"/>
<stop offset="1" stop-color="#743AC6"/>
</linearGradient>
<linearGradient id="paint8_linear_452_2275" x1="28265.3" y1="16360.2" x2="30831.9" y2="16716.9" gradientUnits="userSpaceOnUse">
<stop stop-color="#FEB465"/>
<stop offset="1" stop-color="#FCFFD4"/>
</linearGradient>
<linearGradient id="paint9_linear_452_2275" x1="8.71492" y1="59.982" x2="118.363" y2="75.2166" gradientUnits="userSpaceOnUse">
<stop stop-color="#FF8825"/>
<stop offset="0.22" stop-color="#FF6F00"/>
<stop offset="1" stop-color="#F9ABFC"/>
</linearGradient>
<linearGradient id="paint10_linear_452_2275" x1="71.9087" y1="7.61555" x2="55.2543" y2="127.482" gradientUnits="userSpaceOnUse">
<stop stop-color="#FF8825"/>
<stop offset="1" stop-color="#EF4136"/>
</linearGradient>
<linearGradient id="paint11_linear_452_2275" x1="41.9432" y1="95.2644" x2="48.4303" y2="96.1652" gradientUnits="userSpaceOnUse">
<stop stop-color="#FE8565"/>
<stop offset="1" stop-color="#FFD17F"/>
</linearGradient>
<linearGradient id="paint12_linear_452_2275" x1="51.2743" y1="96.9763" x2="41.7778" y2="94.9049" gradientUnits="userSpaceOnUse">
<stop stop-color="#FFE8CC"/>
<stop offset="1" stop-color="#FF6E40"/>
</linearGradient>
<linearGradient id="paint13_linear_452_2275" x1="46.0181" y1="89.518" x2="44.2903" y2="101.953" gradientUnits="userSpaceOnUse">
<stop stop-color="#992BCC"/>
<stop offset="1" stop-color="#2D145E"/>
</linearGradient>
<linearGradient id="paint14_linear_452_2275" x1="65.2991" y1="101.511" x2="46.5641" y2="96.7536" gradientUnits="userSpaceOnUse">
<stop stop-color="#FFE8CC"/>
<stop offset="1" stop-color="#FF6E40"/>
</linearGradient>
<linearGradient id="paint15_linear_452_2275" x1="73.1732" y1="83.9052" x2="66.6963" y2="130.522" gradientUnits="userSpaceOnUse">
<stop stop-color="#992BCC"/>
<stop offset="1" stop-color="#2D145E"/>
</linearGradient>
<linearGradient id="paint16_linear_452_2275" x1="3351" y1="1375.19" x2="3383.4" y2="1379.69" gradientUnits="userSpaceOnUse">
<stop stop-color="#FEB465"/>
<stop offset="1" stop-color="#FCFFD4"/>
</linearGradient>
<linearGradient id="paint17_linear_452_2275" x1="3348.05" y1="1374.78" x2="3386.69" y2="1380.15" gradientUnits="userSpaceOnUse">
<stop stop-color="#BC15FF"/>
<stop offset="0.96" stop-color="#BC15FF"/>
</linearGradient>
<linearGradient id="paint18_linear_452_2275" x1="59.3089" y1="98.093" x2="59.0738" y2="99.7844" gradientUnits="userSpaceOnUse">
<stop stop-color="#992BCC"/>
<stop offset="1" stop-color="#2D145E"/>
</linearGradient>
<linearGradient id="paint19_linear_452_2275" x1="54.5407" y1="90.6556" x2="65.3675" y2="92.16" gradientUnits="userSpaceOnUse">
<stop stop-color="#BC15FF"/>
<stop offset="1" stop-color="#EABCE0"/>
</linearGradient>
<linearGradient id="paint20_linear_452_2275" x1="60.1031" y1="90.2526" x2="59.7795" y2="92.5819" gradientUnits="userSpaceOnUse">
<stop stop-color="#992BCC"/>
<stop offset="1" stop-color="#2D145E"/>
</linearGradient>
<linearGradient id="paint21_linear_452_2275" x1="3111.86" y1="1341.95" x2="3141.02" y2="1346.01" gradientUnits="userSpaceOnUse">
<stop stop-color="#FEB465"/>
<stop offset="1" stop-color="#FCFFD4"/>
</linearGradient>
<linearGradient id="paint22_linear_452_2275" x1="82.5656" y1="101.324" x2="82.3306" y2="103.016" gradientUnits="userSpaceOnUse">
<stop stop-color="#992BCC"/>
<stop offset="1" stop-color="#2D145E"/>
</linearGradient>
<linearGradient id="paint23_linear_452_2275" x1="5641.26" y1="3003.4" x2="5733.26" y2="3016.18" gradientUnits="userSpaceOnUse">
<stop stop-color="#FF6F00"/>
<stop offset="1" stop-color="#F9ABFC"/>
</linearGradient>
<linearGradient id="paint24_linear_452_2275" x1="63.9821" y1="120.293" x2="74.0373" y2="113.07" gradientUnits="userSpaceOnUse">
<stop stop-color="#EF4136"/>
<stop offset="1" stop-color="#FFD9AD"/>
</linearGradient>
<linearGradient id="paint25_linear_452_2275" x1="1472.42" y1="614.211" x2="1483.69" y2="615.776" gradientUnits="userSpaceOnUse">
<stop stop-color="#EF4136"/>
<stop offset="0.22" stop-color="#FF6F00"/>
<stop offset="1" stop-color="#F9ABFC"/>
</linearGradient>
<linearGradient id="paint26_linear_452_2275" x1="1618.36" y1="634.488" x2="1629.63" y2="636.053" gradientUnits="userSpaceOnUse">
<stop stop-color="#EF4136"/>
<stop offset="0.22" stop-color="#FF6F00"/>
<stop offset="1" stop-color="#F9ABFC"/>
</linearGradient>
<clipPath id="clip0_452_2275">
<rect width="128.931" height="166.5" fill="white"/>
</clipPath>
</defs>
</svg>
