<svg width="432" height="421" viewBox="0 0 432 421" fill="none" xmlns="http://www.w3.org/2000/svg">
<g opacity="0.24">
<path d="M178.229 390.333L213.666 206.333L249.103 390.333H178.229Z" fill="url(#paint0_linear_452_2206)"/>
<path opacity="0.66" d="M178.229 22.3335L213.666 206.333L249.103 22.3335H178.229Z" fill="url(#paint1_linear_452_2206)"/>
<path d="M29.6667 170.896L213.667 206.333L29.6667 241.77L29.6667 170.896Z" fill="url(#paint2_linear_452_2206)"/>
<path d="M397.667 170.896L213.667 206.333L397.667 241.77L397.667 170.896Z" fill="url(#paint3_linear_452_2206)"/>
<path d="M58.501 311.383L213.666 206.333L108.617 361.499L58.501 311.383Z" fill="url(#paint4_linear_452_2206)"/>
<path opacity="0.66" d="M318.716 51.1677L213.666 206.333L368.832 101.283L318.716 51.1677Z" fill="url(#paint5_linear_452_2206)"/>
<path opacity="0.66" d="M108.617 51.1677L213.667 206.333L58.5017 101.283L108.617 51.1677Z" fill="url(#paint6_linear_452_2206)"/>
<path d="M368.832 311.383L213.667 206.333L318.717 361.499L368.832 311.383Z" fill="url(#paint7_linear_452_2206)"/>
<g opacity="0.94" filter="url(#filter0_f_452_2206)">
<ellipse cx="213.164" cy="206.837" rx="62.9327" ry="62.9327" fill="white"/>
</g>
</g>
<path d="M223.949 77.0092C221.478 76.9141 219.035 77.5598 216.933 78.8635C214.832 80.1672 213.169 82.0692 212.156 84.3254C211.144 86.5816 210.829 89.0889 211.253 91.5253C211.676 93.9616 212.818 96.2158 214.532 97.9983C216.246 99.7808 218.454 101.01 220.871 101.529C223.289 102.047 225.807 101.831 228.101 100.908C230.395 99.9851 232.361 98.3973 233.746 96.3487C235.131 94.3001 235.872 91.8843 235.874 89.4114C235.922 86.1897 234.696 83.0794 232.463 80.7568C230.23 78.4343 227.17 77.0874 223.949 77.0092Z" fill="url(#paint8_linear_452_2206)"/>
<path d="M223.949 77.0092C221.478 76.9141 219.035 77.5598 216.933 78.8635C214.832 80.1672 213.169 82.0692 212.156 84.3254C211.144 86.5816 210.829 89.0889 211.253 91.5253C211.676 93.9616 212.818 96.2158 214.532 97.9983C216.246 99.7808 218.454 101.01 220.871 101.529C223.289 102.047 225.807 101.831 228.101 100.908C230.395 99.9851 232.361 98.3973 233.746 96.3487C235.131 94.3001 235.872 91.8843 235.874 89.4114C235.922 86.1897 234.696 83.0794 232.463 80.7568C230.23 78.4343 227.17 77.0874 223.949 77.0092Z" fill="url(#paint9_linear_452_2206)"/>
<path d="M223.949 77.0092C221.478 76.9141 219.035 77.5598 216.933 78.8635C214.832 80.1672 213.169 82.0692 212.156 84.3254C211.144 86.5816 210.829 89.0889 211.253 91.5253C211.676 93.9616 212.818 96.2158 214.532 97.9983C216.246 99.7808 218.454 101.01 220.871 101.529C223.289 102.047 225.807 101.831 228.101 100.908C230.395 99.9851 232.361 98.3973 233.746 96.3487C235.131 94.3001 235.872 91.8843 235.874 89.4114C235.922 86.1897 234.696 83.0794 232.463 80.7568C230.23 78.4343 227.17 77.0874 223.949 77.0092Z" fill="url(#paint10_linear_452_2206)"/>
<path d="M268.013 89.4116C267.919 87.0756 267.141 84.8186 265.775 82.9212C264.41 81.0239 262.516 79.5699 260.33 78.74C258.145 77.9101 255.764 77.741 253.483 78.2536C251.202 78.7662 249.122 79.9379 247.501 81.6231C245.88 83.3083 244.791 85.4326 244.368 87.732C243.945 90.0313 244.208 92.4042 245.123 94.5556C246.038 96.707 247.565 98.542 249.515 99.8325C251.464 101.123 253.75 101.812 256.088 101.814C259.309 101.736 262.369 100.389 264.602 98.0662C266.835 95.7436 268.061 92.6333 268.013 89.4116Z" fill="url(#paint11_linear_452_2206)"/>
<path d="M268.013 89.4116C267.919 87.0756 267.141 84.8186 265.775 82.9212C264.41 81.0239 262.516 79.5699 260.33 78.74C258.145 77.9101 255.764 77.741 253.483 78.2536C251.202 78.7662 249.122 79.9379 247.501 81.6231C245.88 83.3083 244.791 85.4326 244.368 87.732C243.945 90.0313 244.208 92.4042 245.123 94.5556C246.038 96.707 247.565 98.542 249.515 99.8325C251.464 101.123 253.75 101.812 256.088 101.814C259.309 101.736 262.369 100.389 264.602 98.0662C266.835 95.7436 268.061 92.6333 268.013 89.4116Z" fill="url(#paint12_linear_452_2206)"/>
<path d="M268.013 89.4116C267.919 87.0756 267.141 84.8186 265.775 82.9212C264.41 81.0239 262.516 79.5699 260.33 78.74C258.145 77.9101 255.764 77.741 253.483 78.2536C251.202 78.7662 249.122 79.9379 247.501 81.6231C245.88 83.3083 244.791 85.4326 244.368 87.732C243.945 90.0313 244.208 92.4042 245.123 94.5556C246.038 96.707 247.565 98.542 249.515 99.8325C251.464 101.123 253.75 101.812 256.088 101.814C259.309 101.736 262.369 100.389 264.602 98.0662C266.835 95.7436 268.061 92.6333 268.013 89.4116Z" fill="url(#paint13_linear_452_2206)"/>
<path d="M204.004 89.4116C203.911 87.0756 203.133 84.8186 201.767 82.9212C200.401 81.0239 198.507 79.5699 196.322 78.74C194.136 77.9101 191.755 77.741 189.474 78.2536C187.193 78.7662 185.113 79.9379 183.492 81.6231C181.872 83.3083 180.783 85.4326 180.36 87.732C179.937 90.0313 180.2 92.4042 181.114 94.5556C182.029 96.707 183.557 98.542 185.506 99.8325C187.455 101.123 189.741 101.812 192.079 101.814C195.303 101.743 198.367 100.399 200.602 98.0746C202.837 95.7504 204.06 92.6355 204.004 89.4116Z" fill="url(#paint14_linear_452_2206)"/>
<path d="M204.004 89.4116C203.911 87.0756 203.133 84.8186 201.767 82.9212C200.401 81.0239 198.507 79.5699 196.322 78.74C194.136 77.9101 191.755 77.741 189.474 78.2536C187.193 78.7662 185.113 79.9379 183.492 81.6231C181.872 83.3083 180.783 85.4326 180.36 87.732C179.937 90.0313 180.2 92.4042 181.114 94.5556C182.029 96.707 183.557 98.542 185.506 99.8325C187.455 101.123 189.741 101.812 192.079 101.814C195.303 101.743 198.367 100.399 200.602 98.0746C202.837 95.7504 204.06 92.6355 204.004 89.4116Z" fill="url(#paint15_linear_452_2206)"/>
<path d="M204.004 89.4116C203.911 87.0756 203.133 84.8186 201.767 82.9212C200.401 81.0239 198.507 79.5699 196.322 78.74C194.136 77.9101 191.755 77.741 189.474 78.2536C187.193 78.7662 185.113 79.9379 183.492 81.6231C181.872 83.3083 180.783 85.4326 180.36 87.732C179.937 90.0313 180.2 92.4042 181.114 94.5556C182.029 96.707 183.557 98.542 185.506 99.8325C187.455 101.123 189.741 101.812 192.079 101.814C195.303 101.743 198.367 100.399 200.602 98.0746C202.837 95.7504 204.06 92.6355 204.004 89.4116Z" fill="url(#paint16_linear_452_2206)"/>
<path d="M277.314 167.224C277.021 156.801 273.663 146.696 267.658 138.172C261.654 129.647 253.27 123.082 243.555 119.296C233.84 115.51 223.224 114.672 213.035 116.886C202.846 119.1 193.536 124.269 186.268 131.745C179.001 139.221 174.098 148.674 172.172 158.921C170.247 169.169 171.385 179.756 175.444 189.361C179.503 198.965 186.303 207.16 194.993 212.921C203.684 218.682 213.88 221.753 224.307 221.752C231.372 221.666 238.351 220.186 244.842 217.397C251.334 214.608 257.211 210.564 262.136 205.497C267.062 200.431 270.938 194.442 273.542 187.874C276.147 181.306 277.429 174.288 277.314 167.224ZM224.307 197.036C218.376 197.209 212.53 195.607 207.515 192.438C202.499 189.268 198.544 184.674 196.154 179.244C193.765 173.814 193.05 167.794 194.101 161.955C195.151 156.116 197.92 150.724 202.053 146.467C206.186 142.211 211.495 139.285 217.301 138.062C223.106 136.84 229.144 137.378 234.642 139.607C240.141 141.836 244.849 145.654 248.165 150.574C251.48 155.494 253.253 161.291 253.255 167.224C253.312 174.987 250.303 182.46 244.883 188.019C239.463 193.579 232.07 196.776 224.307 196.917V197.036Z" fill="url(#paint17_linear_452_2206)"/>
<path d="M277.314 167.224C277.021 156.801 273.663 146.696 267.658 138.172C261.654 129.647 253.27 123.082 243.555 119.296C233.84 115.51 223.224 114.672 213.035 116.886C202.846 119.1 193.536 124.269 186.268 131.745C179.001 139.221 174.098 148.674 172.172 158.921C170.247 169.169 171.385 179.756 175.444 189.361C179.503 198.965 186.303 207.16 194.993 212.921C203.684 218.682 213.88 221.753 224.307 221.752C231.372 221.666 238.351 220.186 244.842 217.397C251.334 214.608 257.211 210.564 262.136 205.497C267.062 200.431 270.938 194.442 273.542 187.874C276.147 181.306 277.429 174.288 277.314 167.224ZM224.307 197.036C218.376 197.209 212.53 195.607 207.515 192.438C202.499 189.268 198.544 184.674 196.154 179.244C193.765 173.814 193.05 167.794 194.101 161.955C195.151 156.116 197.92 150.724 202.053 146.467C206.186 142.211 211.495 139.285 217.301 138.062C223.106 136.84 229.144 137.378 234.642 139.607C240.141 141.836 244.849 145.654 248.165 150.574C251.48 155.494 253.253 161.291 253.255 167.224C253.312 174.987 250.303 182.46 244.883 188.019C239.463 193.579 232.07 196.776 224.307 196.917V197.036Z" fill="url(#paint18_linear_452_2206)"/>
<path d="M277.314 167.224C277.021 156.801 273.663 146.696 267.658 138.172C261.654 129.647 253.27 123.082 243.555 119.296C233.84 115.51 223.224 114.672 213.035 116.886C202.846 119.1 193.536 124.269 186.268 131.745C179.001 139.221 174.098 148.674 172.172 158.921C170.247 169.169 171.385 179.756 175.444 189.361C179.503 198.965 186.303 207.16 194.993 212.921C203.684 218.682 213.88 221.753 224.307 221.752C231.372 221.666 238.351 220.186 244.842 217.397C251.334 214.608 257.211 210.564 262.136 205.497C267.062 200.431 270.938 194.442 273.542 187.874C276.147 181.306 277.429 174.288 277.314 167.224ZM224.307 197.036C218.376 197.209 212.53 195.607 207.515 192.438C202.499 189.268 198.544 184.674 196.154 179.244C193.765 173.814 193.05 167.794 194.101 161.955C195.151 156.116 197.92 150.724 202.053 146.467C206.186 142.211 211.495 139.285 217.301 138.062C223.106 136.84 229.144 137.378 234.642 139.607C240.141 141.836 244.849 145.654 248.165 150.574C251.48 155.494 253.253 161.291 253.255 167.224C253.312 174.987 250.303 182.46 244.883 188.019C239.463 193.579 232.07 196.776 224.307 196.917V197.036Z" fill="url(#paint19_linear_452_2206)"/>
<path d="M152.606 165.345H257.608C258.454 165.345 259.291 165.512 260.072 165.836C260.854 166.159 261.564 166.634 262.162 167.232C262.76 167.829 263.234 168.539 263.558 169.321C263.881 170.102 264.048 170.939 264.048 171.785V225.925C264.048 227.633 263.369 229.271 262.162 230.479C260.954 231.687 259.316 232.365 257.608 232.365H146.167V171.755C146.175 170.052 146.857 168.422 148.063 167.221C149.27 166.02 150.904 165.345 152.606 165.345Z" fill="url(#paint20_linear_452_2206)"/>
<path d="M152.606 165.345H257.608C258.454 165.345 259.291 165.512 260.072 165.836C260.854 166.159 261.564 166.634 262.162 167.232C262.76 167.829 263.234 168.539 263.558 169.321C263.881 170.102 264.048 170.939 264.048 171.785V225.925C264.048 227.633 263.369 229.271 262.162 230.479C260.954 231.687 259.316 232.365 257.608 232.365H146.167V171.755C146.175 170.052 146.857 168.422 148.063 167.221C149.27 166.02 150.904 165.345 152.606 165.345Z" fill="url(#paint21_linear_452_2206)"/>
<path d="M146.167 232.335L157.168 245.274V232.335H146.167Z" fill="url(#paint22_linear_452_2206)"/>
<path d="M252.562 249.527C270.017 249.527 284.167 235.377 284.167 217.923C284.167 200.468 270.017 186.318 252.562 186.318C235.107 186.318 220.957 200.468 220.957 217.923C220.957 235.377 235.107 249.527 252.562 249.527Z" fill="url(#paint23_linear_452_2206)" stroke="#7A36C6" stroke-opacity="0.3" stroke-width="0.72"/>
<path d="M264.638 201.172L258.974 216.988L265.626 228.342L278.022 227.327C278.022 227.327 283.365 217.709 281.976 212.793C280.443 208.156 277.524 204.099 273.614 201.172H264.638Z" fill="url(#paint24_linear_452_2206)" stroke="#7A36C6" stroke-opacity="0.3" stroke-width="0.72"/>
<path d="M233.487 207.797L244.841 219.659L258.974 216.988L264.638 201.172L256.623 192.436C250.309 191.421 243.842 192.793 238.483 196.283C235.726 199.549 233.989 203.553 233.487 207.797Z" fill="url(#paint25_linear_452_2206)" stroke="#7A36C6" stroke-opacity="0.3" stroke-width="0.72"/>
<path d="M231.964 236.303L243.612 232.403L256.49 238.146L258.386 245.867C254.399 248.181 249.762 249.119 245.188 248.539C244.253 248.539 235.597 245.654 232.392 241.994L231.964 236.303Z" fill="url(#paint26_linear_452_2206)" stroke="#7A36C6" stroke-opacity="0.3" stroke-width="0.72"/>
<path d="M278.022 227.327L278.904 235.341C278.904 235.341 271.317 248.512 258.386 246.028L256.49 238.307L265.626 228.502L278.022 227.327Z" fill="url(#paint27_linear_452_2206)" stroke="#7A36C6" stroke-opacity="0.3" stroke-width="0.72"/>
<path d="M233.487 207.797L244.841 219.659L243.612 232.403L231.964 236.303C231.964 236.303 225.606 232.162 224.163 227.113C224.163 227.113 222.667 215.946 225.659 211.377C227.855 209.432 230.58 208.186 233.487 207.797Z" fill="url(#paint28_linear_452_2206)" stroke="#7A36C6" stroke-opacity="0.3" stroke-width="0.72"/>
<path d="M225.659 201.252C224.928 204.588 224.928 208.042 225.659 211.377C225.659 211.377 222.721 214.85 224.163 227.113L221.225 222.571C220.17 215.165 221.739 207.623 225.659 201.252Z" fill="url(#paint29_linear_452_2206)" stroke="#7A36C6" stroke-opacity="0.3" stroke-width="0.72"/>
<path d="M238.376 196.283L232.045 193.825C236.41 190.21 241.622 187.765 247.193 186.719C252.405 186.002 257.711 186.431 262.741 187.974C260.294 188.858 258.139 190.402 256.516 192.436C250.203 191.455 243.748 192.824 238.376 196.283Z" fill="url(#paint30_linear_452_2206)" stroke="#7A36C6" stroke-opacity="0.3" stroke-width="0.72"/>
<path d="M273.614 201.172C277.752 204.295 280.769 208.671 282.217 213.648L282.617 208.118C281.255 204.005 279.073 200.21 276.203 196.964C273.334 193.717 269.835 191.087 265.92 189.23C265.92 189.23 274.549 195.802 273.614 201.172Z" fill="url(#paint31_linear_452_2206)" stroke="#7A36C6" stroke-opacity="0.3" stroke-width="0.72"/>
<path d="M278.022 227.327L278.904 235.341C281.478 231.362 283.146 226.866 283.787 222.17C284.429 217.475 284.03 212.695 282.617 208.172L282.217 213.702C282.217 213.702 282.885 217.896 278.022 227.327Z" fill="url(#paint32_linear_452_2206)" stroke="#7A36C6" stroke-opacity="0.3" stroke-width="0.72"/>
<path d="M244.841 219.659L258.974 216.988L265.653 228.342L256.489 238.147L243.612 232.429L244.841 219.659Z" fill="#7B3AFF"/>
<path d="M244.841 219.659L258.974 216.988L265.653 228.342L256.489 238.147L243.612 232.429L244.841 219.659Z" fill="#7B36C7"/>
<path d="M244.841 219.659L258.974 216.988L265.653 228.342L256.489 238.147L243.612 232.429L244.841 219.659Z" fill="#5E1F90"/>
<path d="M244.841 219.659L258.974 216.988L265.653 228.342L256.489 238.147L243.612 232.429L244.841 219.659Z" fill="url(#paint33_linear_452_2206)" fill-opacity="0.5"/>
<path d="M232.044 193.825L238.376 196.283C235.611 199.534 233.905 203.551 233.487 207.797C230.585 208.206 227.866 209.45 225.659 211.377C225.06 208.029 225.06 204.601 225.659 201.252C227.388 198.459 229.542 195.953 232.044 193.825Z" fill="#7B3AFF"/>
<path d="M232.044 193.825L238.376 196.283C235.611 199.534 233.905 203.551 233.487 207.797C230.585 208.206 227.866 209.45 225.659 211.377C225.06 208.029 225.06 204.601 225.659 201.252C227.388 198.459 229.542 195.953 232.044 193.825Z" fill="#7B36C7"/>
<path d="M232.044 193.825L238.376 196.283C235.611 199.534 233.905 203.551 233.487 207.797C230.585 208.206 227.866 209.45 225.659 211.377C225.06 208.029 225.06 204.601 225.659 201.252C227.388 198.459 229.542 195.953 232.044 193.825Z" fill="#5E1F90"/>
<path d="M232.044 193.825L238.376 196.283C235.611 199.534 233.905 203.551 233.487 207.797C230.585 208.206 227.866 209.45 225.659 211.377C225.06 208.029 225.06 204.601 225.659 201.252C227.388 198.459 229.542 195.953 232.044 193.825Z" fill="url(#paint34_linear_452_2206)" fill-opacity="0.5"/>
<path d="M245.189 248.646C249.75 248.982 254.315 248.057 258.386 245.974C262.797 246.741 267.336 245.877 271.156 243.543C267.454 246.22 263.215 248.062 258.732 248.943C254.249 249.824 249.629 249.723 245.189 248.646Z" fill="#7B3AFF"/>
<path d="M245.189 248.646C249.75 248.982 254.315 248.057 258.386 245.974C262.797 246.741 267.336 245.877 271.156 243.543C267.454 246.22 263.215 248.062 258.732 248.943C254.249 249.824 249.629 249.723 245.189 248.646Z" fill="#7B36C7"/>
<path d="M245.189 248.646C249.75 248.982 254.315 248.057 258.386 245.974C262.797 246.741 267.336 245.877 271.156 243.543C267.454 246.22 263.215 248.062 258.732 248.943C254.249 249.824 249.629 249.723 245.189 248.646Z" fill="#5E1F90"/>
<path d="M245.189 248.646C249.75 248.982 254.315 248.057 258.386 245.974C262.797 246.741 267.336 245.877 271.156 243.543C267.454 246.22 263.215 248.062 258.732 248.943C254.249 249.824 249.629 249.723 245.189 248.646Z" fill="url(#paint35_linear_452_2206)" fill-opacity="0.5"/>
<path d="M232.392 242.1L231.964 236.303C231.964 236.303 225.74 232.189 224.164 227.113L221.225 222.571C222.445 230.224 226.416 237.168 232.392 242.1Z" fill="#7B3AFF"/>
<path d="M232.392 242.1L231.964 236.303C231.964 236.303 225.74 232.189 224.164 227.113L221.225 222.571C222.445 230.224 226.416 237.168 232.392 242.1Z" fill="#7B36C7"/>
<path d="M232.392 242.1L231.964 236.303C231.964 236.303 225.74 232.189 224.164 227.113L221.225 222.571C222.445 230.224 226.416 237.168 232.392 242.1Z" fill="#5E1F90"/>
<path d="M232.392 242.1L231.964 236.303C231.964 236.303 225.74 232.189 224.164 227.113L221.225 222.571C222.445 230.224 226.416 237.168 232.392 242.1Z" fill="url(#paint36_linear_452_2206)" fill-opacity="0.5"/>
<path d="M264.638 201.172L256.623 192.436C258.163 190.317 260.346 188.752 262.848 187.974C262.848 187.974 264.584 188.616 266.027 189.23C266.027 189.23 274.469 195.562 273.721 201.172H264.638Z" fill="#7B3AFF"/>
<path d="M264.638 201.172L256.623 192.436C258.163 190.317 260.346 188.752 262.848 187.974C262.848 187.974 264.584 188.616 266.027 189.23C266.027 189.23 274.469 195.562 273.721 201.172H264.638Z" fill="#7B36C7"/>
<path d="M264.638 201.172L256.623 192.436C258.163 190.317 260.346 188.752 262.848 187.974C262.848 187.974 264.584 188.616 266.027 189.23C266.027 189.23 274.469 195.562 273.721 201.172H264.638Z" fill="#5E1F90"/>
<path d="M264.638 201.172L256.623 192.436C258.163 190.317 260.346 188.752 262.848 187.974C262.848 187.974 264.584 188.616 266.027 189.23C266.027 189.23 274.469 195.562 273.721 201.172H264.638Z" fill="url(#paint37_linear_452_2206)" fill-opacity="0.5"/>
<path d="M208.982 220.179L195.566 175.4L170.493 193.437L208.982 220.179Z" fill="url(#paint38_linear_452_2206)" stroke="#7B36C7" stroke-opacity="0.2" stroke-width="0.8" stroke-linecap="round" stroke-linejoin="round"/>
<path d="M157.375 207.836C157.375 207.568 170.493 193.407 170.493 193.407L208.952 220.239L157.375 207.836Z" fill="url(#paint39_linear_452_2206)" stroke="#7B36C7" stroke-opacity="0.2" stroke-width="0.8" stroke-linecap="round" stroke-linejoin="round"/>
<path d="M157.197 188.249L157.375 207.836L170.493 193.437L157.197 188.249Z" fill="url(#paint40_linear_452_2206)" stroke="#7B36C7" stroke-opacity="0.2" stroke-width="0.8" stroke-linecap="round" stroke-linejoin="round"/>
<path d="M173.802 171.494C173.802 171.494 171.149 193.675 170.493 193.407L157.167 188.219L173.802 171.494Z" fill="url(#paint41_linear_452_2206)" stroke="#7B36C7" stroke-opacity="0.2" stroke-width="0.8" stroke-linecap="round" stroke-linejoin="round"/>
<path d="M194.731 161L195.566 175.4L173.832 171.524L194.731 161Z" fill="url(#paint42_linear_452_2206)" stroke="#7B36C7" stroke-opacity="0.2" stroke-width="0.8" stroke-linecap="round" stroke-linejoin="round"/>
<path d="M213.394 167.44L195.566 175.4L194.731 161L213.394 167.44Z" fill="url(#paint43_linear_452_2206)" stroke="#7B36C7" stroke-opacity="0.2" stroke-width="0.8" stroke-linecap="round" stroke-linejoin="round"/>
<path d="M208.982 220.179L213.394 167.439L195.566 175.4L208.982 220.179Z" fill="url(#paint44_linear_452_2206)" stroke="#7B36C7" stroke-opacity="0.2" stroke-width="0.8" stroke-linecap="round" stroke-linejoin="round"/>
<path d="M173.833 171.524L170.493 193.437L195.566 175.4L173.833 171.524Z" fill="url(#paint45_linear_452_2206)" stroke="#7B36C7" stroke-opacity="0.2" stroke-width="0.8" stroke-linecap="round" stroke-linejoin="round"/>
<path d="M148.444 294.867C149.435 294.867 150.278 294.709 150.971 294.392C151.665 294.055 152.24 293.658 152.696 293.202L156.234 296.027C155.342 297.117 154.242 297.949 152.934 298.524C151.626 299.099 150.099 299.387 148.355 299.387C146.532 299.387 144.926 299.089 143.539 298.495C142.151 297.88 140.982 297.077 140.03 296.086C139.079 295.075 138.355 293.916 137.86 292.608C137.384 291.3 137.146 289.942 137.146 288.535C137.146 287.048 137.404 285.651 137.919 284.342C138.455 283.034 139.208 281.895 140.179 280.923C141.15 279.932 142.31 279.149 143.658 278.575C145.025 278 146.541 277.712 148.206 277.712C149.059 277.712 149.862 277.802 150.615 277.98C151.388 278.138 152.101 278.356 152.755 278.634C153.409 278.911 153.994 279.239 154.51 279.615C155.025 279.972 155.461 280.358 155.818 280.775L152.547 283.867C152.111 283.391 151.526 283.005 150.793 282.707C150.06 282.39 149.217 282.231 148.266 282.231C147.374 282.231 146.561 282.39 145.828 282.707C145.095 283.005 144.46 283.431 143.925 283.986C143.39 284.541 142.974 285.205 142.676 285.978C142.379 286.751 142.23 287.603 142.23 288.535C142.23 289.407 142.369 290.229 142.647 291.002C142.944 291.755 143.36 292.419 143.895 292.994C144.431 293.569 145.075 294.025 145.828 294.362C146.601 294.699 147.473 294.867 148.444 294.867ZM159.205 304.946L161.762 299.03L155.726 284.64H160.543L163.04 291.329L163.992 294.392L164.883 291.3L167.084 284.64H171.751L163.783 304.946H159.205ZM178.024 299H173.595V284.64H187.806V299H183.376V288.416H178.024V299ZM198.379 299.327C197.11 299.327 196 299.129 195.049 298.732C194.098 298.336 193.295 297.801 192.641 297.127C192.006 296.433 191.521 295.63 191.184 294.719C190.867 293.807 190.708 292.846 190.708 291.835C190.708 290.745 190.887 289.744 191.243 288.832C191.62 287.92 192.135 287.127 192.789 286.453C193.463 285.779 194.266 285.254 195.198 284.878C196.149 284.501 197.19 284.313 198.319 284.313C199.588 284.313 200.688 284.521 201.62 284.937C202.551 285.353 203.324 285.908 203.939 286.602C204.553 287.276 204.999 288.049 205.277 288.921C205.574 289.773 205.723 290.645 205.723 291.537C205.723 291.755 205.713 291.973 205.693 292.192C205.693 292.39 205.673 292.598 205.633 292.816H194.99C195.049 293.609 195.396 294.283 196.03 294.838C196.684 295.373 197.517 295.64 198.528 295.64C199.32 295.64 199.994 295.512 200.549 295.254C201.104 294.996 201.58 294.649 201.976 294.213L204.92 296.532C204.087 297.543 203.126 298.267 202.036 298.703C200.966 299.119 199.747 299.327 198.379 299.327ZM198.319 287.821C197.467 287.821 196.754 288.039 196.179 288.475C195.624 288.911 195.267 289.486 195.108 290.2H201.471C201.352 289.506 201.005 288.941 200.43 288.505C199.856 288.049 199.152 287.821 198.319 287.821ZM213.098 286.453C213.614 285.76 214.297 285.215 215.15 284.818C216.022 284.402 216.924 284.194 217.855 284.194C219.045 284.194 220.075 284.412 220.947 284.848C221.819 285.264 222.533 285.829 223.088 286.543C223.643 287.236 224.049 288.029 224.307 288.921C224.584 289.813 224.723 290.735 224.723 291.686C224.723 292.776 224.575 293.787 224.277 294.719C223.98 295.63 223.544 296.423 222.969 297.097C222.394 297.751 221.691 298.267 220.858 298.643C220.026 299.02 219.074 299.208 218.004 299.208C217.548 299.208 217.082 299.159 216.607 299.059C216.131 298.98 215.675 298.841 215.239 298.643C214.823 298.445 214.426 298.197 214.05 297.9C213.673 297.603 213.356 297.256 213.098 296.859V304.827H208.668V284.521H213.098V286.453ZM216.725 295.284C217.796 295.284 218.638 294.957 219.253 294.302C219.887 293.629 220.204 292.746 220.204 291.656C220.204 290.606 219.897 289.754 219.282 289.099C218.688 288.426 217.835 288.089 216.725 288.089C215.596 288.089 214.704 288.435 214.05 289.129C213.396 289.803 213.069 290.655 213.069 291.686C213.069 292.697 213.396 293.549 214.05 294.243C214.704 294.937 215.596 295.284 216.725 295.284ZM232.058 299H227.628V284.64H241.839V299H237.41V288.416H232.058V299ZM249.885 286.453C250.4 285.76 251.084 285.215 251.937 284.818C252.809 284.402 253.711 284.194 254.642 284.194C255.831 284.194 256.862 284.412 257.734 284.848C258.606 285.264 259.32 285.829 259.875 286.543C260.43 287.236 260.836 288.029 261.094 288.921C261.371 289.813 261.51 290.735 261.51 291.686C261.51 292.776 261.361 293.787 261.064 294.719C260.767 295.63 260.331 296.423 259.756 297.097C259.181 297.751 258.477 298.267 257.645 298.643C256.812 299.02 255.861 299.208 254.791 299.208C254.335 299.208 253.869 299.159 253.393 299.059C252.918 298.98 252.462 298.841 252.026 298.643C251.609 298.445 251.213 298.197 250.836 297.9C250.46 297.603 250.143 297.256 249.885 296.859V304.827H245.455V284.521H249.885V286.453ZM253.512 295.284C254.583 295.284 255.425 294.957 256.039 294.302C256.674 293.629 256.991 292.746 256.991 291.656C256.991 290.606 256.684 289.754 256.069 289.099C255.475 288.426 254.622 288.089 253.512 288.089C252.383 288.089 251.491 288.435 250.836 289.129C250.182 289.803 249.855 290.655 249.855 291.686C249.855 292.697 250.182 293.549 250.836 294.243C251.491 294.937 252.383 295.284 253.512 295.284ZM274.345 299V290.883L268.339 299H264.415V284.64H268.845V292.846L274.85 284.64H278.775V299H274.345ZM287.47 295.64C289.175 295.64 290.027 295.175 290.027 294.243C290.027 293.747 289.79 293.401 289.314 293.202C288.858 293.004 288.234 292.905 287.441 292.905H286.073V290.318H287.381C287.976 290.318 288.461 290.229 288.838 290.051C289.235 289.853 289.433 289.545 289.433 289.129C289.433 288.713 289.244 288.426 288.868 288.267C288.491 288.089 288.006 287.999 287.411 287.999C286.717 287.999 286.083 288.128 285.508 288.386C284.933 288.624 284.418 288.951 283.962 289.367L281.554 286.721C282.248 285.968 283.14 285.383 284.23 284.967C285.34 284.531 286.549 284.313 287.857 284.313C288.967 284.313 289.918 284.422 290.711 284.64C291.504 284.858 292.148 285.145 292.644 285.502C293.159 285.859 293.526 286.265 293.744 286.721C293.982 287.177 294.101 287.643 294.101 288.118C294.101 288.832 293.883 289.466 293.446 290.021C293.03 290.576 292.406 290.982 291.573 291.24V291.359C292.584 291.577 293.347 291.983 293.863 292.578C294.398 293.173 294.665 293.886 294.665 294.719C294.665 296.086 294.051 297.196 292.822 298.049C291.613 298.901 289.899 299.327 287.679 299.327C286.37 299.327 285.161 299.149 284.051 298.792C282.961 298.415 282 297.791 281.167 296.919L283.784 294.243C284.339 294.739 284.914 295.095 285.508 295.313C286.103 295.531 286.757 295.64 287.47 295.64Z" fill="#FFB03A"/>
<defs>
<filter id="filter0_f_452_2206" x="68.2312" y="61.9043" width="289.865" height="289.865" filterUnits="userSpaceOnUse" color-interpolation-filters="sRGB">
<feFlood flood-opacity="0" result="BackgroundImageFix"/>
<feBlend mode="normal" in="SourceGraphic" in2="BackgroundImageFix" result="shape"/>
<feGaussianBlur stdDeviation="41" result="effect1_foregroundBlur_452_2206"/>
</filter>
<linearGradient id="paint0_linear_452_2206" x1="213.666" y1="100.704" x2="213.666" y2="381.474" gradientUnits="userSpaceOnUse">
<stop stop-color="white" stop-opacity="0.7"/>
<stop offset="1" stop-color="white" stop-opacity="0"/>
</linearGradient>
<linearGradient id="paint1_linear_452_2206" x1="213.666" y1="311.963" x2="213.666" y2="31.1928" gradientUnits="userSpaceOnUse">
<stop stop-color="white" stop-opacity="0.7"/>
<stop offset="1" stop-color="white" stop-opacity="0"/>
</linearGradient>
<linearGradient id="paint2_linear_452_2206" x1="319.296" y1="206.333" x2="38.526" y2="206.333" gradientUnits="userSpaceOnUse">
<stop stop-color="white" stop-opacity="0.7"/>
<stop offset="1" stop-color="white" stop-opacity="0"/>
</linearGradient>
<linearGradient id="paint3_linear_452_2206" x1="108.037" y1="206.333" x2="388.807" y2="206.333" gradientUnits="userSpaceOnUse">
<stop stop-color="white" stop-opacity="0.7"/>
<stop offset="1" stop-color="white" stop-opacity="0"/>
</linearGradient>
<linearGradient id="paint4_linear_452_2206" x1="288.358" y1="131.642" x2="89.8232" y2="330.176" gradientUnits="userSpaceOnUse">
<stop stop-color="white" stop-opacity="0.7"/>
<stop offset="1" stop-color="white" stop-opacity="0"/>
</linearGradient>
<linearGradient id="paint5_linear_452_2206" x1="138.975" y1="281.025" x2="337.51" y2="82.49" gradientUnits="userSpaceOnUse">
<stop stop-color="white" stop-opacity="0.7"/>
<stop offset="1" stop-color="white" stop-opacity="0"/>
</linearGradient>
<linearGradient id="paint6_linear_452_2206" x1="288.358" y1="281.025" x2="89.8239" y2="82.49" gradientUnits="userSpaceOnUse">
<stop stop-color="white" stop-opacity="0.7"/>
<stop offset="1" stop-color="white" stop-opacity="0"/>
</linearGradient>
<linearGradient id="paint7_linear_452_2206" x1="138.976" y1="131.642" x2="337.51" y2="330.176" gradientUnits="userSpaceOnUse">
<stop stop-color="white" stop-opacity="0.7"/>
<stop offset="1" stop-color="white" stop-opacity="0"/>
</linearGradient>
<linearGradient id="paint8_linear_452_2206" x1="3731.02" y1="10950.5" x2="3931.2" y2="10950.5" gradientUnits="userSpaceOnUse">
<stop stop-color="#2D145E"/>
<stop offset="1" stop-color="#992BCC"/>
</linearGradient>
<linearGradient id="paint9_linear_452_2206" x1="235.875" y1="76.5389" x2="211.071" y2="101.806" gradientUnits="userSpaceOnUse">
<stop stop-color="#992BCC"/>
<stop offset="1" stop-color="#2D145E"/>
</linearGradient>
<linearGradient id="paint10_linear_452_2206" x1="211.07" y1="101.804" x2="235.875" y2="101.804" gradientUnits="userSpaceOnUse">
<stop stop-color="#BC0ECB"/>
<stop offset="1" stop-color="#743AC6"/>
</linearGradient>
<linearGradient id="paint11_linear_452_2206" x1="3627.39" y1="10533.3" x2="3819.8" y2="10533.3" gradientUnits="userSpaceOnUse">
<stop stop-color="#2D145E"/>
<stop offset="1" stop-color="#992BCC"/>
</linearGradient>
<linearGradient id="paint12_linear_452_2206" x1="268.014" y1="77.5201" x2="244.163" y2="101.806" gradientUnits="userSpaceOnUse">
<stop stop-color="#992BCC"/>
<stop offset="1" stop-color="#2D145E"/>
</linearGradient>
<linearGradient id="paint13_linear_452_2206" x1="244.172" y1="101.814" x2="268.014" y2="101.814" gradientUnits="userSpaceOnUse">
<stop stop-color="#BC0ECB"/>
<stop offset="1" stop-color="#743AC6"/>
</linearGradient>
<linearGradient id="paint14_linear_452_2206" x1="3563.45" y1="10533.3" x2="3755.86" y2="10533.3" gradientUnits="userSpaceOnUse">
<stop stop-color="#2D145E"/>
<stop offset="1" stop-color="#992BCC"/>
</linearGradient>
<linearGradient id="paint15_linear_452_2206" x1="204.006" y1="77.5201" x2="180.155" y2="101.806" gradientUnits="userSpaceOnUse">
<stop stop-color="#992BCC"/>
<stop offset="1" stop-color="#2D145E"/>
</linearGradient>
<linearGradient id="paint16_linear_452_2206" x1="180.163" y1="101.814" x2="204.006" y2="101.814" gradientUnits="userSpaceOnUse">
<stop stop-color="#BC0ECB"/>
<stop offset="1" stop-color="#743AC6"/>
</linearGradient>
<linearGradient id="paint17_linear_452_2206" x1="15221.3" y1="46615.7" x2="16077.2" y2="46615.7" gradientUnits="userSpaceOnUse">
<stop stop-color="#2D145E"/>
<stop offset="1" stop-color="#992BCC"/>
</linearGradient>
<linearGradient id="paint18_linear_452_2206" x1="277.321" y1="113.705" x2="171.246" y2="221.738" gradientUnits="userSpaceOnUse">
<stop stop-color="#992BCC"/>
<stop offset="1" stop-color="#2D145E"/>
</linearGradient>
<linearGradient id="paint19_linear_452_2206" x1="171.26" y1="221.752" x2="277.321" y2="221.752" gradientUnits="userSpaceOnUse">
<stop stop-color="#BC0ECB"/>
<stop offset="1" stop-color="#743AC6"/>
</linearGradient>
<linearGradient id="paint20_linear_452_2206" x1="146.167" y1="2904.44" x2="4807.17" y2="2904.44" gradientUnits="userSpaceOnUse">
<stop stop-color="white"/>
<stop offset="1" stop-color="#FCFFD4"/>
</linearGradient>
<linearGradient id="paint21_linear_452_2206" x1="205.107" y1="165.345" x2="205.107" y2="232.365" gradientUnits="userSpaceOnUse">
<stop stop-color="#FF8825"/>
<stop offset="1" stop-color="#EF4136"/>
</linearGradient>
<linearGradient id="paint22_linear_452_2206" x1="186.76" y1="934.527" x2="146.167" y2="934.527" gradientUnits="userSpaceOnUse">
<stop stop-color="#BCA5FF"/>
<stop offset="1" stop-color="#BC15FF"/>
</linearGradient>
<linearGradient id="paint23_linear_452_2206" x1="252.562" y1="186.318" x2="252.562" y2="249.527" gradientUnits="userSpaceOnUse">
<stop stop-color="#ECDBFF"/>
<stop offset="1" stop-color="#FFDEB7"/>
</linearGradient>
<linearGradient id="paint24_linear_452_2206" x1="270.59" y1="201.172" x2="270.59" y2="228.342" gradientUnits="userSpaceOnUse">
<stop stop-color="#ECDBFF"/>
<stop offset="1" stop-color="#FFDEB7"/>
</linearGradient>
<linearGradient id="paint25_linear_452_2206" x1="249.063" y1="192.11" x2="249.063" y2="219.659" gradientUnits="userSpaceOnUse">
<stop stop-color="#ECDBFF"/>
<stop offset="1" stop-color="#FFDEB7"/>
</linearGradient>
<linearGradient id="paint26_linear_452_2206" x1="245.175" y1="232.403" x2="245.175" y2="248.706" gradientUnits="userSpaceOnUse">
<stop stop-color="#ECDBFF"/>
<stop offset="1" stop-color="#FFDEB7"/>
</linearGradient>
<linearGradient id="paint27_linear_452_2206" x1="267.697" y1="227.327" x2="267.697" y2="246.34" gradientUnits="userSpaceOnUse">
<stop stop-color="#ECDBFF"/>
<stop offset="1" stop-color="#FFDEB7"/>
</linearGradient>
<linearGradient id="paint28_linear_452_2206" x1="234.315" y1="207.797" x2="234.315" y2="236.303" gradientUnits="userSpaceOnUse">
<stop stop-color="#ECDBFF"/>
<stop offset="1" stop-color="#FFDEB7"/>
</linearGradient>
<linearGradient id="paint29_linear_452_2206" x1="223.282" y1="201.252" x2="223.282" y2="227.113" gradientUnits="userSpaceOnUse">
<stop stop-color="#ECDBFF"/>
<stop offset="1" stop-color="#FFDEB7"/>
</linearGradient>
<linearGradient id="paint30_linear_452_2206" x1="247.393" y1="186.382" x2="247.393" y2="196.283" gradientUnits="userSpaceOnUse">
<stop stop-color="#ECDBFF"/>
<stop offset="1" stop-color="#FFDEB7"/>
</linearGradient>
<linearGradient id="paint31_linear_452_2206" x1="274.269" y1="189.23" x2="274.269" y2="213.648" gradientUnits="userSpaceOnUse">
<stop stop-color="#ECDBFF"/>
<stop offset="1" stop-color="#FFDEB7"/>
</linearGradient>
<linearGradient id="paint32_linear_452_2206" x1="281.054" y1="208.172" x2="281.054" y2="235.341" gradientUnits="userSpaceOnUse">
<stop stop-color="#ECDBFF"/>
<stop offset="1" stop-color="#FFDEB7"/>
</linearGradient>
<linearGradient id="paint33_linear_452_2206" x1="266.365" y1="227.846" x2="234.235" y2="235.293" gradientUnits="userSpaceOnUse">
<stop stop-color="#992BCC"/>
<stop offset="1" stop-color="#2D145E"/>
</linearGradient>
<linearGradient id="paint34_linear_452_2206" x1="238.801" y1="202.832" x2="219.125" y2="206.116" gradientUnits="userSpaceOnUse">
<stop stop-color="#992BCC"/>
<stop offset="1" stop-color="#2D145E"/>
</linearGradient>
<linearGradient id="paint35_linear_452_2206" x1="271.996" y1="246.619" x2="251.322" y2="266.55" gradientUnits="userSpaceOnUse">
<stop stop-color="#992BCC"/>
<stop offset="1" stop-color="#2D145E"/>
</linearGradient>
<linearGradient id="paint36_linear_452_2206" x1="232.753" y1="232.593" x2="215.872" y2="234.741" gradientUnits="userSpaceOnUse">
<stop stop-color="#992BCC"/>
<stop offset="1" stop-color="#2D145E"/>
</linearGradient>
<linearGradient id="paint37_linear_452_2206" x1="274.322" y1="194.747" x2="250.017" y2="201.773" gradientUnits="userSpaceOnUse">
<stop stop-color="#992BCC"/>
<stop offset="1" stop-color="#2D145E"/>
</linearGradient>
<linearGradient id="paint38_linear_452_2206" x1="189.738" y1="175.4" x2="189.738" y2="220.179" gradientUnits="userSpaceOnUse">
<stop stop-color="#B48AFF"/>
<stop offset="1" stop-color="white" stop-opacity="0.58"/>
</linearGradient>
<linearGradient id="paint39_linear_452_2206" x1="183.163" y1="193.407" x2="183.163" y2="220.239" gradientUnits="userSpaceOnUse">
<stop stop-color="#B48AFF"/>
<stop offset="1" stop-color="white" stop-opacity="0.58"/>
</linearGradient>
<linearGradient id="paint40_linear_452_2206" x1="163.845" y1="188.249" x2="163.845" y2="207.836" gradientUnits="userSpaceOnUse">
<stop stop-color="#B48AFF"/>
<stop offset="1" stop-color="white" stop-opacity="0.58"/>
</linearGradient>
<linearGradient id="paint41_linear_452_2206" x1="165.485" y1="171.494" x2="165.485" y2="193.409" gradientUnits="userSpaceOnUse">
<stop stop-color="#B48AFF"/>
<stop offset="1" stop-color="white" stop-opacity="0.58"/>
</linearGradient>
<linearGradient id="paint42_linear_452_2206" x1="184.699" y1="161" x2="184.699" y2="175.4" gradientUnits="userSpaceOnUse">
<stop stop-color="#B48AFF"/>
<stop offset="1" stop-color="white" stop-opacity="0.58"/>
</linearGradient>
<linearGradient id="paint43_linear_452_2206" x1="204.063" y1="161" x2="204.063" y2="175.4" gradientUnits="userSpaceOnUse">
<stop stop-color="#B48AFF"/>
<stop offset="1" stop-color="white" stop-opacity="0.58"/>
</linearGradient>
<linearGradient id="paint44_linear_452_2206" x1="204.48" y1="167.439" x2="204.48" y2="220.179" gradientUnits="userSpaceOnUse">
<stop stop-color="#B48AFF"/>
<stop offset="1" stop-color="white" stop-opacity="0.58"/>
</linearGradient>
<linearGradient id="paint45_linear_452_2206" x1="183.03" y1="171.524" x2="183.03" y2="193.437" gradientUnits="userSpaceOnUse">
<stop stop-color="#B48AFF"/>
<stop offset="1" stop-color="white" stop-opacity="0.58"/>
</linearGradient>
</defs>
</svg>
