<svg width="200" height="86" viewBox="0 0 200 86" fill="none" xmlns="http://www.w3.org/2000/svg">
<g clip-path="url(#clip0_452_2326)">
<path d="M24.4486 60.6873L28.1894 48.2424C28.5514 47.038 27.8685 45.7681 26.6641 45.4061L7.23266 39.5653C6.02822 39.2032 4.7584 39.8861 4.39636 41.0906L0.655585 53.5358C0.293553 54.7398 0.976422 56.0097 2.18085 56.372L21.6123 62.2128C22.8167 62.5745 24.0866 61.8919 24.4486 60.6873Z" fill="#8C50F9"/>
<path d="M24.4486 60.6873L28.1894 48.2424C28.5514 47.038 27.8685 45.7681 26.6641 45.4061L7.23266 39.5653C6.02822 39.2032 4.7584 39.8861 4.39636 41.0906L0.655585 53.5358C0.293553 54.7398 0.976422 56.0097 2.18085 56.372L21.6123 62.2128C22.8167 62.5745 24.0866 61.8919 24.4486 60.6873Z" fill="#5E1F90"/>
<path d="M24.4486 60.6873L28.1894 48.2424C28.5514 47.038 27.8685 45.7681 26.6641 45.4061L7.23266 39.5653C6.02822 39.2032 4.7584 39.8861 4.39636 41.0906L0.655585 53.5358C0.293553 54.7398 0.976422 56.0097 2.18085 56.372L21.6123 62.2128C22.8167 62.5745 24.0866 61.8919 24.4486 60.6873Z" fill="url(#paint0_linear_452_2326)" fill-opacity="0.5"/>
<path d="M24.4486 60.6873L28.1894 48.2424C28.5514 47.038 27.8685 45.7681 26.6641 45.4061L7.23266 39.5653C6.02822 39.2032 4.7584 39.8861 4.39636 41.0906L0.655585 53.5358C0.293553 54.7398 0.976422 56.0097 2.18085 56.372L21.6123 62.2128C22.8167 62.5745 24.0866 61.8919 24.4486 60.6873Z" fill="url(#paint1_linear_452_2326)"/>
<path d="M24.4486 60.6873L28.1894 48.2424C28.5514 47.038 27.8685 45.7681 26.6641 45.4061L7.23266 39.5653C6.02822 39.2032 4.7584 39.8861 4.39636 41.0906L0.655585 53.5358C0.293553 54.7398 0.976422 56.0097 2.18085 56.372L21.6123 62.2128C22.8167 62.5745 24.0866 61.8919 24.4486 60.6873Z" fill="url(#paint2_linear_452_2326)"/>
<path d="M36.7685 1.03373L105.464 9.39542C106.187 9.48353 106.703 10.1417 106.615 10.8656L98.2529 79.5605C98.1647 80.2845 97.5065 80.7998 96.7825 80.7115L28.0877 72.3503C27.3639 72.2621 26.8485 71.6039 26.9366 70.8799L35.2982 2.18489C35.3864 1.461 36.0446 0.945621 36.7685 1.03373Z" fill="#F9D0FC"/>
<path d="M36.7685 1.03373L105.464 9.39542C106.187 9.48353 106.703 10.1417 106.615 10.8656L98.2529 79.5605C98.1647 80.2845 97.5065 80.7998 96.7825 80.7115L28.0877 72.3503C27.3639 72.2621 26.8485 71.6039 26.9366 70.8799L35.2982 2.18489C35.3864 1.461 36.0446 0.945621 36.7685 1.03373Z" fill="url(#paint3_linear_452_2326)"/>
<path d="M36.7685 1.03373L105.464 9.39542C106.187 9.48353 106.703 10.1417 106.615 10.8656L98.2529 79.5605C98.1647 80.2845 97.5065 80.7998 96.7825 80.7115L28.0877 72.3503C27.3639 72.2621 26.8485 71.6039 26.9366 70.8799L35.2982 2.18489C35.3864 1.461 36.0446 0.945621 36.7685 1.03373Z" fill="url(#paint4_linear_452_2326)"/>
<path d="M36.7685 1.03373L105.464 9.39542C106.187 9.48353 106.703 10.1417 106.615 10.8656L98.2529 79.5605C98.1647 80.2845 97.5065 80.7998 96.7825 80.7115L28.0877 72.3503C27.3639 72.2621 26.8485 71.6039 26.9366 70.8799L35.2982 2.18489C35.3864 1.461 36.0446 0.945621 36.7685 1.03373Z" stroke="url(#paint5_linear_452_2326)" stroke-width="0.765306"/>
<path d="M36.7685 1.03373L105.464 9.39542C106.187 9.48353 106.703 10.1417 106.615 10.8656L98.2529 79.5605C98.1647 80.2845 97.5065 80.7998 96.7825 80.7115L28.0877 72.3503C27.3639 72.2621 26.8485 71.6039 26.9366 70.8799L35.2982 2.18489C35.3864 1.461 36.0446 0.945621 36.7685 1.03373Z" stroke="black" stroke-opacity="0.2" stroke-width="0.765306"/>
<path d="M101.25 12.3437L40.152 4.90675C39.2139 4.79256 38.3607 5.46051 38.2465 6.39873L30.8096 67.4965C30.6954 68.4347 31.3634 69.2878 32.3016 69.4021L93.3995 76.8388C94.3377 76.9531 95.1908 76.2853 95.3051 75.347L102.742 14.2492C102.856 13.311 102.188 12.4579 101.25 12.3437Z" fill="url(#paint6_linear_452_2326)"/>
<path d="M101.25 12.3437L40.152 4.90675C39.2139 4.79256 38.3607 5.46051 38.2465 6.39873L30.8096 67.4965C30.6954 68.4347 31.3634 69.2878 32.3016 69.4021L93.3995 76.8388C94.3377 76.9531 95.1908 76.2853 95.3051 75.347L102.742 14.2492C102.856 13.311 102.188 12.4579 101.25 12.3437Z" fill="url(#paint7_linear_452_2326)"/>
<path d="M101.25 12.3437L40.152 4.90675C39.2139 4.79256 38.3607 5.46051 38.2465 6.39873L30.8096 67.4965C30.6954 68.4347 31.3634 69.2878 32.3016 69.4021L93.3995 76.8388C94.3377 76.9531 95.1908 76.2853 95.3051 75.347L102.742 14.2492C102.856 13.311 102.188 12.4579 101.25 12.3437Z" fill="url(#paint8_linear_452_2326)"/>
<path d="M101.25 12.3437L40.152 4.90675C39.2139 4.79256 38.3607 5.46051 38.2465 6.39873L30.8096 67.4965C30.6954 68.4347 31.3634 69.2878 32.3016 69.4021L93.3995 76.8388C94.3377 76.9531 95.1908 76.2853 95.3051 75.347L102.742 14.2492C102.856 13.311 102.188 12.4579 101.25 12.3437Z" fill="url(#paint9_linear_452_2326)" fill-opacity="0.25"/>
<path d="M32.0469 54.843L38.349 43.4784C38.9589 42.3785 38.5617 40.9925 37.4618 40.3825L19.7173 30.5425C18.6174 29.9326 17.2314 30.3298 16.6214 31.4297L10.3193 42.7943C9.70941 43.8942 10.1066 45.2802 11.2065 45.8901L28.951 55.7302C30.0509 56.3399 31.4369 55.943 32.0469 54.843Z" fill="#F9ABFC"/>
<path d="M30.7786 51.3065L34.6935 44.2469C35.3034 43.147 34.9062 41.7609 33.8063 41.1511L20.7841 33.9297C19.6842 33.3198 18.2982 33.717 17.6883 34.8169L13.7734 41.8765C13.1635 42.9764 13.5607 44.3625 14.6606 44.9724L27.6827 52.1938C28.7826 52.8035 30.1687 52.4065 30.7786 51.3065Z" fill="url(#paint10_linear_452_2326)"/>
<path d="M30.7786 51.3065L34.6935 44.2469C35.3034 43.147 34.9062 41.7609 33.8063 41.1511L20.7841 33.9297C19.6842 33.3198 18.2982 33.717 17.6883 34.8169L13.7734 41.8765C13.1635 42.9764 13.5607 44.3625 14.6606 44.9724L27.6827 52.1938C28.7826 52.8035 30.1687 52.4065 30.7786 51.3065Z" stroke="#C000FF" stroke-width="0.36817" stroke-linecap="round" stroke-linejoin="round"/>
<path d="M30.7786 51.3065L34.6935 44.2469C35.3034 43.147 34.9062 41.7609 33.8063 41.1511L20.7841 33.9297C19.6842 33.3198 18.2982 33.717 17.6883 34.8169L13.7734 41.8765C13.1635 42.9764 13.5607 44.3625 14.6606 44.9724L27.6827 52.1938C28.7826 52.8035 30.1687 52.4065 30.7786 51.3065Z" stroke="#7B36C7" stroke-width="0.36817" stroke-linecap="round" stroke-linejoin="round"/>
<g style="mix-blend-mode:overlay" opacity="0.7">
<g style="mix-blend-mode:overlay" opacity="0.7">
<path fill-rule="evenodd" clip-rule="evenodd" d="M68.937 20.4521C67.0937 20.2272 65.4131 21.5836 65.1814 23.4839C64.9498 25.3815 66.2544 27.1048 68.0977 27.3297C69.9386 27.5542 71.6192 26.195 71.8508 24.2975C72.0824 22.3972 70.7779 20.6767 68.937 20.4521Z" fill="white"/>
</g>
<g style="mix-blend-mode:overlay" opacity="0.7">
<path fill-rule="evenodd" clip-rule="evenodd" d="M80.7082 25.3777C80.9404 23.4774 79.6332 21.7567 77.7934 21.5322C75.9506 21.3074 74.271 22.6639 74.0393 24.5642C73.8077 26.4618 75.1118 28.185 76.9541 28.4098C78.7944 28.6342 80.4771 27.2753 80.7082 25.3777Z" fill="white"/>
</g>
<g style="mix-blend-mode:overlay" opacity="0.7">
<path fill-rule="evenodd" clip-rule="evenodd" d="M62.9938 23.2166C63.2254 21.3163 61.9188 19.5955 60.0785 19.371C58.2361 19.1463 56.5565 20.5028 56.3244 22.4031C56.0933 24.3006 57.3968 26.0238 59.2397 26.2486C61.08 26.4731 62.7622 25.1141 62.9938 23.2166Z" fill="white"/>
</g>
<path style="mix-blend-mode:overlay" opacity="0.7" fill-rule="evenodd" clip-rule="evenodd" d="M80.6821 47.2671C81.6999 38.9215 75.9463 31.3534 67.8336 30.3638C59.7183 29.3738 52.3142 35.3369 51.2958 43.6825C50.2783 52.0254 56.032 59.5933 64.1474 60.5836C72.2601 61.5729 79.6642 55.6101 80.6821 47.2671ZM64.9851 53.7055C60.5611 53.1662 57.4147 49.0091 57.9713 44.444C58.529 39.8755 62.582 36.5974 67.006 37.137C71.43 37.6767 74.5764 41.8331 74.0193 46.4016C73.4621 50.9667 69.4086 54.2453 64.9851 53.7055Z" fill="url(#paint11_linear_452_2326)"/>
</g>
<path d="M83.6422 65.9975C83.9157 63.7505 85.9591 62.1505 88.2065 62.424L100.398 63.9082L99.4076 72.0454L87.2157 70.5612C84.9688 70.2878 83.3688 68.2444 83.6422 65.9975Z" fill="white"/>
<path d="M83.6422 65.9975C83.9157 63.7505 85.9591 62.1505 88.2065 62.424L100.398 63.9082L99.4076 72.0454L87.2157 70.5612C84.9688 70.2878 83.3688 68.2444 83.6422 65.9975Z" fill="url(#paint12_linear_452_2326)"/>
<path d="M83.6422 65.9975C83.9157 63.7505 85.9591 62.1505 88.2065 62.424L100.398 63.9082L99.4076 72.0454L87.2157 70.5612C84.9688 70.2878 83.3688 68.2444 83.6422 65.9975Z" fill="url(#paint13_linear_452_2326)"/>
<path d="M83.6422 65.9975C83.9157 63.7505 85.9591 62.1505 88.2065 62.424L100.398 63.9082L99.4076 72.0454L87.2157 70.5612C84.9688 70.2878 83.3688 68.2444 83.6422 65.9975Z" fill="url(#paint14_linear_452_2326)" fill-opacity="0.3"/>
</g>
<g clip-path="url(#clip1_452_2326)">
<path d="M157.455 11.7305C151.653 11.7305 145.981 13.466 141.157 16.7176C136.332 19.9692 132.572 24.5908 130.352 29.998C128.131 35.4052 127.55 41.3551 128.682 47.0954C129.814 52.8357 132.608 58.1082 136.711 62.2469C140.814 66.3852 146.041 69.2036 151.732 70.3454C157.423 71.4873 163.321 70.9015 168.682 68.6617C174.043 66.4219 178.624 62.6291 181.848 57.7628C185.071 52.8964 186.792 47.175 186.792 41.3223C186.792 33.474 183.701 25.9473 178.199 20.3977C172.698 14.8482 165.236 11.7305 157.455 11.7305ZM157.455 66.0587C152.605 66.0587 147.864 64.6077 143.831 61.8898C139.798 59.1714 136.655 55.3082 134.799 50.7884C132.943 46.2685 132.457 41.2949 133.403 36.4965C134.35 31.6982 136.685 27.2906 140.115 23.8312C143.544 20.3718 147.914 18.0159 152.671 17.0614C157.428 16.107 162.359 16.5968 166.84 18.469C171.321 20.3413 175.151 23.5117 177.845 27.5796C180.54 31.6475 181.978 36.43 181.978 41.3223C181.974 47.8815 179.389 54.1709 174.791 58.8092C170.193 63.4469 163.958 66.0546 157.455 66.0587Z" fill="url(#paint15_linear_452_2326)"/>
<path d="M157.455 11.7305C151.653 11.7305 145.981 13.466 141.157 16.7176C136.332 19.9692 132.572 24.5908 130.352 29.998C128.131 35.4052 127.55 41.3551 128.682 47.0954C129.814 52.8357 132.608 58.1082 136.711 62.2469C140.814 66.3852 146.041 69.2036 151.732 70.3454C157.423 71.4873 163.321 70.9015 168.682 68.6617C174.043 66.4219 178.624 62.6291 181.848 57.7628C185.071 52.8964 186.792 47.175 186.792 41.3223C186.792 33.474 183.701 25.9473 178.199 20.3977C172.698 14.8482 165.236 11.7305 157.455 11.7305ZM157.455 66.0587C152.605 66.0587 147.864 64.6077 143.831 61.8898C139.798 59.1714 136.655 55.3082 134.799 50.7884C132.943 46.2685 132.457 41.2949 133.403 36.4965C134.35 31.6982 136.685 27.2906 140.115 23.8312C143.544 20.3718 147.914 18.0159 152.671 17.0614C157.428 16.107 162.359 16.5968 166.84 18.469C171.321 20.3413 175.151 23.5117 177.845 27.5796C180.54 31.6475 181.978 36.43 181.978 41.3223C181.974 47.8815 179.389 54.1709 174.791 58.8092C170.193 63.4469 163.958 66.0546 157.455 66.0587Z" fill="url(#paint16_linear_452_2326)"/>
<path d="M157.455 11.7305C151.653 11.7305 145.981 13.466 141.157 16.7176C136.332 19.9692 132.572 24.5908 130.352 29.998C128.131 35.4052 127.55 41.3551 128.682 47.0954C129.814 52.8357 132.608 58.1082 136.711 62.2469C140.814 66.3852 146.041 69.2036 151.732 70.3454C157.423 71.4873 163.321 70.9015 168.682 68.6617C174.043 66.4219 178.624 62.6291 181.848 57.7628C185.071 52.8964 186.792 47.175 186.792 41.3223C186.792 33.474 183.701 25.9473 178.199 20.3977C172.698 14.8482 165.236 11.7305 157.455 11.7305ZM157.455 66.0587C152.605 66.0587 147.864 64.6077 143.831 61.8898C139.798 59.1714 136.655 55.3082 134.799 50.7884C132.943 46.2685 132.457 41.2949 133.403 36.4965C134.35 31.6982 136.685 27.2906 140.115 23.8312C143.544 20.3718 147.914 18.0159 152.671 17.0614C157.428 16.107 162.359 16.5968 166.84 18.469C171.321 20.3413 175.151 23.5117 177.845 27.5796C180.54 31.6475 181.978 36.43 181.978 41.3223C181.974 47.8815 179.389 54.1709 174.791 58.8092C170.193 63.4469 163.958 66.0546 157.455 66.0587Z" fill="url(#paint17_linear_452_2326)" fill-opacity="0.5"/>
<path d="M156.941 48.7218C160.864 48.7218 164.045 45.5411 164.045 41.6175C164.045 37.6938 160.864 34.5132 156.941 34.5132C153.017 34.5132 149.836 37.6938 149.836 41.6175C149.836 45.5411 153.017 48.7218 156.941 48.7218Z" stroke="#231F20" stroke-width="0.681796" stroke-miterlimit="10"/>
<path d="M195.939 44.3449C196.452 44.0393 196.824 43.5422 196.971 42.963C197.118 42.3837 197.028 41.7699 196.723 41.2563C196.418 40.7428 195.92 40.3717 195.341 40.2246C194.762 40.0776 194.148 40.1667 193.635 40.4723C193.491 40.5615 193.358 40.6667 193.239 40.7859C192.766 41.2449 192.132 41.5016 191.473 41.5016C190.814 41.5016 190.18 41.2449 189.707 40.7859C189.353 40.4825 188.947 40.2468 188.507 40.0905L177.299 39.9404C176.833 40.0861 176.408 40.3382 176.058 40.6768C175.601 41.1667 174.969 41.4559 174.3 41.4815C173.63 41.507 172.978 41.2668 172.485 40.8132C171.776 40.0496 171.83 39.8995 170.903 40.445C170.391 40.7536 170.022 41.2524 169.876 41.8324C169.731 42.4123 169.821 43.0263 170.126 43.5403C170.753 44.604 170.93 44.9039 171.994 44.2767C172.137 44.1922 172.27 44.0916 172.39 43.9767C172.865 43.5208 173.497 43.2663 174.155 43.2663C174.814 43.2663 175.447 43.5208 175.921 43.9767C176.286 44.3051 176.719 44.5474 177.19 44.6858L188.398 44.8357C188.831 44.6576 189.228 44.4036 189.571 44.0858C189.797 43.8426 190.069 43.6464 190.371 43.5085C190.673 43.3706 191 43.2938 191.332 43.2824C191.664 43.271 191.995 43.3253 192.305 43.4421C192.617 43.5589 192.901 43.7359 193.144 43.9631C193.497 44.3337 193.967 44.5734 194.474 44.6427C194.982 44.7121 195.499 44.6071 195.939 44.3449Z" fill="url(#paint18_linear_452_2326)"/>
<path d="M195.939 44.3449C196.452 44.0393 196.824 43.5422 196.971 42.963C197.118 42.3837 197.028 41.7699 196.723 41.2563C196.418 40.7428 195.92 40.3717 195.341 40.2246C194.762 40.0776 194.148 40.1667 193.635 40.4723C193.491 40.5615 193.358 40.6667 193.239 40.7859C192.766 41.2449 192.132 41.5016 191.473 41.5016C190.814 41.5016 190.18 41.2449 189.707 40.7859C189.353 40.4825 188.947 40.2468 188.507 40.0905L177.299 39.9404C176.833 40.0861 176.408 40.3382 176.058 40.6768C175.601 41.1667 174.969 41.4559 174.3 41.4815C173.63 41.507 172.978 41.2668 172.485 40.8132C171.776 40.0496 171.83 39.8995 170.903 40.445C170.391 40.7536 170.022 41.2524 169.876 41.8324C169.731 42.4123 169.821 43.0263 170.126 43.5403C170.753 44.604 170.93 44.9039 171.994 44.2767C172.137 44.1922 172.27 44.0916 172.39 43.9767C172.865 43.5208 173.497 43.2663 174.155 43.2663C174.814 43.2663 175.447 43.5208 175.921 43.9767C176.286 44.3051 176.719 44.5474 177.19 44.6858L188.398 44.8357C188.831 44.6576 189.228 44.4036 189.571 44.0858C189.797 43.8426 190.069 43.6464 190.371 43.5085C190.673 43.3706 191 43.2938 191.332 43.2824C191.664 43.271 191.995 43.3253 192.305 43.4421C192.617 43.5589 192.901 43.7359 193.144 43.9631C193.497 44.3337 193.967 44.5734 194.474 44.6427C194.982 44.7121 195.499 44.6071 195.939 44.3449Z" fill="url(#paint19_linear_452_2326)"/>
<path d="M179.153 9.49165C179.153 8.89491 178.916 8.32262 178.494 7.90068C178.072 7.47874 177.5 7.2417 176.903 7.2417C176.307 7.2417 175.735 7.47874 175.313 7.90068C174.891 8.32262 174.653 8.89491 174.653 9.49165C174.633 9.65461 174.633 9.81956 174.653 9.98252C174.799 10.6254 174.69 11.2998 174.35 11.8643C174.009 12.4286 173.463 12.8391 172.826 13.0097C172.382 13.158 171.97 13.3894 171.613 13.6915L165.763 23.2366C165.651 23.7119 165.651 24.2067 165.763 24.682C165.949 25.3257 165.872 26.0169 165.55 26.6045C165.228 27.1921 164.687 27.6285 164.045 27.8183C163.036 28.0501 162.927 27.9137 162.927 28.991C162.927 29.5877 163.164 30.16 163.585 30.5819C164.008 31.0038 164.579 31.2409 165.176 31.2409C166.417 31.2409 166.772 31.2409 166.772 30.0137C166.793 29.8507 166.793 29.6858 166.772 29.5228C166.629 28.8801 166.74 28.2073 167.08 27.6438C167.42 27.0802 167.964 26.6691 168.599 26.4956C169.067 26.3527 169.495 26.1056 169.853 25.7729L175.717 16.2278C175.789 15.7761 175.789 15.3159 175.717 14.8642C175.623 14.5463 175.592 14.213 175.627 13.8834C175.662 13.5537 175.761 13.234 175.919 12.9428C176.077 12.6515 176.292 12.3943 176.549 12.1858C176.807 11.9774 177.103 11.8217 177.421 11.7279C177.921 11.6072 178.365 11.32 178.679 10.9136C178.994 10.5071 179.162 10.0056 179.153 9.49165Z" fill="url(#paint20_linear_452_2326)"/>
<path d="M179.153 9.49165C179.153 8.89491 178.916 8.32262 178.494 7.90068C178.072 7.47874 177.5 7.2417 176.903 7.2417C176.307 7.2417 175.735 7.47874 175.313 7.90068C174.891 8.32262 174.653 8.89491 174.653 9.49165C174.633 9.65461 174.633 9.81956 174.653 9.98252C174.799 10.6254 174.69 11.2998 174.35 11.8643C174.009 12.4286 173.463 12.8391 172.826 13.0097C172.382 13.158 171.97 13.3894 171.613 13.6915L165.763 23.2366C165.651 23.7119 165.651 24.2067 165.763 24.682C165.949 25.3257 165.872 26.0169 165.55 26.6045C165.228 27.1921 164.687 27.6285 164.045 27.8183C163.036 28.0501 162.927 27.9137 162.927 28.991C162.927 29.5877 163.164 30.16 163.585 30.5819C164.008 31.0038 164.579 31.2409 165.176 31.2409C166.417 31.2409 166.772 31.2409 166.772 30.0137C166.793 29.8507 166.793 29.6858 166.772 29.5228C166.629 28.8801 166.74 28.2073 167.08 27.6438C167.42 27.0802 167.964 26.6691 168.599 26.4956C169.067 26.3527 169.495 26.1056 169.853 25.7729L175.717 16.2278C175.789 15.7761 175.789 15.3159 175.717 14.8642C175.623 14.5463 175.592 14.213 175.627 13.8834C175.662 13.5537 175.761 13.234 175.919 12.9428C176.077 12.6515 176.292 12.3943 176.549 12.1858C176.807 11.9774 177.103 11.8217 177.421 11.7279C177.921 11.6072 178.365 11.32 178.679 10.9136C178.994 10.5071 179.162 10.0056 179.153 9.49165Z" fill="url(#paint21_linear_452_2326)"/>
<path d="M178.019 73.7994C178.019 74.3963 177.782 74.9683 177.36 75.3902C176.938 75.8121 176.366 76.0494 175.769 76.0494C175.172 76.0494 174.6 75.8121 174.178 75.3902C173.756 74.9683 173.519 74.3963 173.519 73.7994C173.499 73.632 173.499 73.4626 173.519 73.2948C173.661 72.654 173.55 71.9831 173.21 71.4218C172.869 70.8601 172.326 70.4519 171.692 70.2815C171.248 70.1331 170.836 69.9014 170.478 69.5994L164.629 60.0545C164.521 59.5785 164.521 59.0846 164.629 58.6091C164.722 58.2892 164.753 57.9545 164.717 57.6228C164.682 57.2917 164.582 56.9708 164.422 56.6779C164.262 56.3856 164.047 56.1274 163.787 55.9183C163.528 55.7091 163.23 55.5529 162.91 55.4591C161.901 55.2407 161.792 55.3637 161.792 54.2866C161.792 53.6897 162.029 53.1172 162.451 52.6953C162.873 52.2734 163.445 52.0366 164.042 52.0366C165.283 52.0366 165.638 52.0366 165.638 53.2637C165.652 53.4315 165.652 53.6004 165.638 53.7683C165.488 54.4096 165.596 55.0841 165.938 55.6468C166.279 56.2101 166.827 56.6172 167.465 56.7815C167.932 56.9331 168.36 57.1841 168.719 57.5183L174.583 67.0632C174.659 67.5147 174.659 67.9754 174.583 68.4269C174.396 69.0723 174.472 69.7652 174.794 70.355C175.116 70.9448 175.657 71.3841 176.301 71.5769C176.797 71.6973 177.237 71.9831 177.55 72.3871C177.862 72.7907 178.027 73.2892 178.019 73.7994Z" fill="url(#paint22_linear_452_2326)"/>
<path d="M178.019 73.7994C178.019 74.3963 177.782 74.9683 177.36 75.3902C176.938 75.8121 176.366 76.0494 175.769 76.0494C175.172 76.0494 174.6 75.8121 174.178 75.3902C173.756 74.9683 173.519 74.3963 173.519 73.7994C173.499 73.632 173.499 73.4626 173.519 73.2948C173.661 72.654 173.55 71.9831 173.21 71.4218C172.869 70.8601 172.326 70.4519 171.692 70.2815C171.248 70.1331 170.836 69.9014 170.478 69.5994L164.629 60.0545C164.521 59.5785 164.521 59.0846 164.629 58.6091C164.722 58.2892 164.753 57.9545 164.717 57.6228C164.682 57.2917 164.582 56.9708 164.422 56.6779C164.262 56.3856 164.047 56.1274 163.787 55.9183C163.528 55.7091 163.23 55.5529 162.91 55.4591C161.901 55.2407 161.792 55.3637 161.792 54.2866C161.792 53.6897 162.029 53.1172 162.451 52.6953C162.873 52.2734 163.445 52.0366 164.042 52.0366C165.283 52.0366 165.638 52.0366 165.638 53.2637C165.652 53.4315 165.652 53.6004 165.638 53.7683C165.488 54.4096 165.596 55.0841 165.938 55.6468C166.279 56.2101 166.827 56.6172 167.465 56.7815C167.932 56.9331 168.36 57.1841 168.719 57.5183L174.583 67.0632C174.659 67.5147 174.659 67.9754 174.583 68.4269C174.396 69.0723 174.472 69.7652 174.794 70.355C175.116 70.9448 175.657 71.3841 176.301 71.5769C176.797 71.6973 177.237 71.9831 177.55 72.3871C177.862 72.7907 178.027 73.2892 178.019 73.7994Z" fill="url(#paint23_linear_452_2326)"/>
<path d="M136.296 9.49165C136.296 8.89491 136.533 8.32262 136.955 7.90068C137.377 7.47874 137.949 7.2417 138.546 7.2417C139.142 7.2417 139.715 7.47874 140.137 7.90068C140.559 8.32262 140.796 8.89491 140.796 9.49165C140.81 9.65496 140.81 9.8192 140.796 9.98252C140.65 10.6254 140.759 11.2998 141.099 11.8643C141.44 12.4286 141.986 12.8391 142.623 13.0097C143.067 13.158 143.479 13.3894 143.836 13.6915L149.686 23.2366C149.798 23.7119 149.798 24.2067 149.686 24.682C149.5 25.3257 149.577 26.0169 149.899 26.6045C150.22 27.1921 150.762 27.6285 151.404 27.8183C152.413 28.0501 152.509 27.9137 152.509 28.991C152.511 29.2858 152.454 29.5781 152.343 29.851C152.231 30.1238 152.067 30.372 151.859 30.5811C151.651 30.7902 151.404 30.9562 151.132 31.0694C150.859 31.1827 150.567 31.2409 150.273 31.2409C149.018 31.2409 148.664 31.2409 148.664 30.0137C148.643 29.8507 148.643 29.6858 148.664 29.5228C148.805 28.8783 148.693 28.2039 148.35 27.64C148.007 27.0762 147.46 26.6662 146.823 26.4956C146.357 26.3485 145.929 26.1019 145.568 25.7729L139.718 16.2278C139.639 15.7767 139.639 15.3153 139.718 14.8642C139.812 14.5455 139.842 14.2113 139.807 13.8809C139.771 13.5505 139.671 13.2304 139.511 12.939C139.351 12.6476 139.136 12.3906 138.876 12.1827C138.617 11.9749 138.319 11.8203 138 11.7279C137.504 11.6041 137.065 11.3153 136.756 10.9088C136.446 10.5024 136.284 10.0026 136.296 9.49165Z" fill="url(#paint24_linear_452_2326)"/>
<path d="M136.296 9.49165C136.296 8.89491 136.533 8.32262 136.955 7.90068C137.377 7.47874 137.949 7.2417 138.546 7.2417C139.142 7.2417 139.715 7.47874 140.137 7.90068C140.559 8.32262 140.796 8.89491 140.796 9.49165C140.81 9.65496 140.81 9.8192 140.796 9.98252C140.65 10.6254 140.759 11.2998 141.099 11.8643C141.44 12.4286 141.986 12.8391 142.623 13.0097C143.067 13.158 143.479 13.3894 143.836 13.6915L149.686 23.2366C149.798 23.7119 149.798 24.2067 149.686 24.682C149.5 25.3257 149.577 26.0169 149.899 26.6045C150.22 27.1921 150.762 27.6285 151.404 27.8183C152.413 28.0501 152.509 27.9137 152.509 28.991C152.511 29.2858 152.454 29.5781 152.343 29.851C152.231 30.1238 152.067 30.372 151.859 30.5811C151.651 30.7902 151.404 30.9562 151.132 31.0694C150.859 31.1827 150.567 31.2409 150.273 31.2409C149.018 31.2409 148.664 31.2409 148.664 30.0137C148.643 29.8507 148.643 29.6858 148.664 29.5228C148.805 28.8783 148.693 28.2039 148.35 27.64C148.007 27.0762 147.46 26.6662 146.823 26.4956C146.357 26.3485 145.929 26.1019 145.568 25.7729L139.718 16.2278C139.639 15.7767 139.639 15.3153 139.718 14.8642C139.812 14.5455 139.842 14.2113 139.807 13.8809C139.771 13.5505 139.671 13.2304 139.511 12.939C139.351 12.6476 139.136 12.3906 138.876 12.1827C138.617 11.9749 138.319 11.8203 138 11.7279C137.504 11.6041 137.065 11.3153 136.756 10.9088C136.446 10.5024 136.284 10.0026 136.296 9.49165Z" fill="url(#paint25_linear_452_2326)"/>
<path d="M157.608 14.9189C152.382 14.9189 147.272 16.4688 142.927 19.3726C138.581 22.2764 135.194 26.4036 133.194 31.2324C131.193 36.0612 130.67 41.3747 131.69 46.5009C132.709 51.6271 135.226 56.3358 138.922 60.0317C142.618 63.7276 147.327 66.2445 152.453 67.2638C157.579 68.2837 162.892 67.7603 167.721 65.7603C172.55 63.7603 176.677 60.373 179.581 56.0271C182.485 51.6812 184.035 46.572 184.035 41.3453C184.035 34.3366 181.251 27.615 176.295 22.659C171.338 17.7031 164.617 14.9189 157.608 14.9189ZM157.608 63.4358C153.239 63.4358 148.968 62.1399 145.336 59.7128C141.703 57.2853 138.872 53.8353 137.2 49.7989C135.528 45.7624 135.09 41.3208 135.943 37.0358C136.795 32.7507 138.899 28.8146 141.988 25.7253C145.078 22.6359 149.014 20.532 153.299 19.6797C157.584 18.8273 162.025 19.2648 166.062 20.9367C170.098 22.6086 173.548 25.44 175.976 29.0727C178.403 32.7054 179.699 36.9763 179.699 41.3453C179.695 47.2029 177.366 52.8195 173.225 56.9613C169.082 61.1036 163.466 63.4317 157.608 63.4358Z" fill="url(#paint26_linear_452_2326)"/>
<path d="M157.608 14.9189C152.382 14.9189 147.272 16.4688 142.927 19.3726C138.581 22.2764 135.194 26.4036 133.194 31.2324C131.193 36.0612 130.67 41.3747 131.69 46.5009C132.709 51.6271 135.226 56.3358 138.922 60.0317C142.618 63.7276 147.327 66.2445 152.453 67.2638C157.579 68.2837 162.892 67.7603 167.721 65.7603C172.55 63.7603 176.677 60.373 179.581 56.0271C182.485 51.6812 184.035 46.572 184.035 41.3453C184.035 34.3366 181.251 27.615 176.295 22.659C171.338 17.7031 164.617 14.9189 157.608 14.9189ZM157.608 63.4358C153.239 63.4358 148.968 62.1399 145.336 59.7128C141.703 57.2853 138.872 53.8353 137.2 49.7989C135.528 45.7624 135.09 41.3208 135.943 37.0358C136.795 32.7507 138.899 28.8146 141.988 25.7253C145.078 22.6359 149.014 20.532 153.299 19.6797C157.584 18.8273 162.025 19.2648 166.062 20.9367C170.098 22.6086 173.548 25.44 175.976 29.0727C178.403 32.7054 179.699 36.9763 179.699 41.3453C179.695 47.2029 177.366 52.8195 173.225 56.9613C169.082 61.1036 163.466 63.4317 157.608 63.4358Z" fill="url(#paint27_linear_452_2326)"/>
<path d="M157.608 14.9189C152.382 14.9189 147.272 16.4688 142.927 19.3726C138.581 22.2764 135.194 26.4036 133.194 31.2324C131.193 36.0612 130.67 41.3747 131.69 46.5009C132.709 51.6271 135.226 56.3358 138.922 60.0317C142.618 63.7276 147.327 66.2445 152.453 67.2638C157.579 68.2837 162.892 67.7603 167.721 65.7603C172.55 63.7603 176.677 60.373 179.581 56.0271C182.485 51.6812 184.035 46.572 184.035 41.3453C184.035 34.3366 181.251 27.615 176.295 22.659C171.338 17.7031 164.617 14.9189 157.608 14.9189ZM157.608 63.4358C153.239 63.4358 148.968 62.1399 145.336 59.7128C141.703 57.2853 138.872 53.8353 137.2 49.7989C135.528 45.7624 135.09 41.3208 135.943 37.0358C136.795 32.7507 138.899 28.8146 141.988 25.7253C145.078 22.6359 149.014 20.532 153.299 19.6797C157.584 18.8273 162.025 19.2648 166.062 20.9367C170.098 22.6086 173.548 25.44 175.976 29.0727C178.403 32.7054 179.699 36.9763 179.699 41.3453C179.695 47.2029 177.366 52.8195 173.225 56.9613C169.082 61.1036 163.466 63.4317 157.608 63.4358Z" stroke="url(#paint28_linear_452_2326)" stroke-opacity="0.5" stroke-width="0.409078" stroke-miterlimit="10"/>
<path d="M156.94 54.4765C164.042 54.4765 169.799 48.7196 169.799 41.6179C169.799 34.5163 164.042 28.7593 156.94 28.7593C149.839 28.7593 144.082 34.5163 144.082 41.6179C144.082 48.7196 149.839 54.4765 156.94 54.4765Z" fill="url(#paint29_linear_452_2326)"/>
<path d="M156.94 54.4765C164.042 54.4765 169.799 48.7196 169.799 41.6179C169.799 34.5163 164.042 28.7593 156.94 28.7593C149.839 28.7593 144.082 34.5163 144.082 41.6179C144.082 48.7196 149.839 54.4765 156.94 54.4765Z" fill="url(#paint30_linear_452_2326)"/>
<path d="M156.94 54.4765C164.042 54.4765 169.799 48.7196 169.799 41.6179C169.799 34.5163 164.042 28.7593 156.94 28.7593C149.839 28.7593 144.082 34.5163 144.082 41.6179C144.082 48.7196 149.839 54.4765 156.94 54.4765Z" stroke="url(#paint31_linear_452_2326)" stroke-opacity="0.5" stroke-width="0.409078" stroke-miterlimit="10"/>
<path d="M187.035 40.1724V44.795" stroke="url(#paint32_linear_452_2326)" stroke-opacity="0.5" stroke-width="0.395442" stroke-miterlimit="10"/>
<path d="M170.889 14.9458L174.994 17.373" stroke="url(#paint33_linear_452_2326)" stroke-opacity="0.5" stroke-width="0.395442" stroke-miterlimit="10"/>
<path d="M169.756 68.3588L173.86 65.918" stroke="url(#paint34_linear_452_2326)" stroke-opacity="0.5" stroke-width="0.395442" stroke-miterlimit="10"/>
<path d="M144.559 14.9458L140.454 17.373" stroke="url(#paint35_linear_452_2326)" stroke-opacity="0.5" stroke-width="0.395442" stroke-miterlimit="10"/>
<path d="M171.927 13.5005L175.758 15.8458" stroke="url(#paint36_linear_452_2326)" stroke-opacity="0.5" stroke-width="0.395442" stroke-miterlimit="10"/>
<path d="M188.78 40.2271L188.739 44.7133" stroke="url(#paint37_linear_452_2326)" stroke-opacity="0.4" stroke-width="0.395442" stroke-miterlimit="10"/>
<path d="M143.645 13.3774L139.8 15.7092" stroke="url(#paint38_linear_452_2326)" stroke-opacity="0.5" stroke-width="0.395442" stroke-miterlimit="10"/>
<path d="M174.719 67.4038L170.737 69.8314" stroke="url(#paint39_linear_452_2326)" stroke-opacity="0.5" stroke-width="0.395442" stroke-miterlimit="10"/>
<path d="M166.48 49.2615L154.195 40.2803C152.864 39.3069 150.995 39.5971 150.022 40.9285L128.349 70.5727C127.376 71.9043 127.666 73.7727 128.998 74.7456L141.282 83.7273C142.614 84.7002 144.482 84.4104 145.456 83.0788L167.128 53.4344C168.101 52.1033 167.811 50.2349 166.48 49.2615Z" fill="url(#paint40_linear_452_2326)"/>
<path d="M146.674 76.2681L134.346 67.2549L130.732 72.1972L143.061 81.211L146.674 76.2681Z" fill="url(#paint41_linear_452_2326)"/>
<path d="M146.674 76.2681L134.346 67.2549L130.732 72.1972L143.061 81.211L146.674 76.2681Z" fill="url(#paint42_linear_452_2326)" fill-opacity="0.5"/>
<path d="M146.674 76.2681L134.346 67.2549L130.732 72.1972L143.061 81.211L146.674 76.2681Z" stroke="#C000FF" stroke-width="0.36817" stroke-linecap="round" stroke-linejoin="round"/>
<path d="M146.674 76.2681L134.346 67.2549L130.732 72.1972L143.061 81.211L146.674 76.2681Z" stroke="#5E1F90" stroke-width="0.36817" stroke-linecap="round" stroke-linejoin="round"/>
<path d="M146.674 76.2681L134.346 67.2549L130.732 72.1972L143.061 81.211L146.674 76.2681Z" stroke="url(#paint43_linear_452_2326)" stroke-opacity="0.5" stroke-width="0.36817" stroke-linecap="round" stroke-linejoin="round"/>
<path d="M134.809 63.3672L150.872 75.1075" stroke="url(#paint44_linear_452_2326)" stroke-width="0.409078" stroke-miterlimit="10" stroke-dasharray="1.38 1.38"/>
<path d="M134.809 63.3672L150.872 75.1075" stroke="#5E1F90" stroke-width="0.409078" stroke-miterlimit="10" stroke-dasharray="1.38 1.38"/>
<path d="M134.809 63.3672L150.872 75.1075" stroke="url(#paint45_linear_452_2326)" stroke-opacity="0.5" stroke-width="0.409078" stroke-miterlimit="10" stroke-dasharray="1.38 1.38"/>
<path d="M155.973 38.2497L141.97 32.2914C140.453 31.6457 138.699 32.3525 138.053 33.8701L123.675 67.66C123.03 69.1773 123.736 70.9314 125.254 71.5768L139.257 77.535C140.774 78.1809 142.528 77.4742 143.174 75.9564L157.552 42.1667C158.197 40.6491 157.491 38.8954 155.973 38.2497Z" fill="url(#paint46_linear_452_2326)"/>
<path d="M155.973 38.2497L141.97 32.2914C140.453 31.6457 138.699 32.3525 138.053 33.8701L123.675 67.66C123.03 69.1773 123.736 70.9314 125.254 71.5768L139.257 77.535C140.774 78.1809 142.528 77.4742 143.174 75.9564L157.552 42.1667C158.197 40.6491 157.491 38.8954 155.973 38.2497Z" fill="#FFD9AD"/>
<path d="M155.973 38.2497L141.97 32.2914C140.453 31.6457 138.699 32.3525 138.053 33.8701L123.675 67.66C123.03 69.1773 123.736 70.9314 125.254 71.5768L139.257 77.535C140.774 78.1809 142.528 77.4742 143.174 75.9564L157.552 42.1667C158.197 40.6491 157.491 38.8954 155.973 38.2497Z" fill="url(#paint47_linear_452_2326)" fill-opacity="0.3"/>
<path d="M143.001 68.8185L128.948 62.8389L126.551 68.4725L140.603 74.4521L143.001 68.8185Z" fill="url(#paint48_linear_452_2326)"/>
<path d="M143.001 68.8185L128.948 62.8389L126.551 68.4725L140.603 74.4521L143.001 68.8185Z" fill="url(#paint49_linear_452_2326)"/>
<path d="M143.001 68.8185L128.948 62.8389L126.551 68.4725L140.603 74.4521L143.001 68.8185Z" stroke="url(#paint50_linear_452_2326)" stroke-opacity="0.5" stroke-width="0.36817" stroke-linecap="round" stroke-linejoin="round"/>
<path d="M128.331 59.1411L146.644 66.9273" stroke="url(#paint51_linear_452_2326)" stroke-opacity="0.5" stroke-width="0.409078" stroke-miterlimit="10" stroke-dasharray="1.38 1.38"/>
<path d="M141.153 50.8762C140.896 49.2642 140.554 47.6666 140.131 46.09C139.572 44.14 140.253 42.4629 142.98 42.5992C143.267 42.5992 143.553 42.5992 143.676 42.2992C143.799 41.9992 143.567 41.7265 143.308 41.5492C142.361 40.8359 141.231 40.4057 140.049 40.3084C137.069 40.2654 134.147 39.4879 131.54 38.0448C128.213 36.1649 124.452 35.1872 120.631 35.2086C118.978 35.1588 117.338 35.5195 115.859 36.2585C114.986 36.7358 114.427 37.7721 113.213 37.6903C113.153 37.6951 113.095 37.7124 113.042 37.7409C112.989 37.7694 112.942 37.8086 112.905 37.856C112.868 37.9034 112.841 37.958 112.826 38.0163C112.811 38.0745 112.808 38.1354 112.818 38.1948C112.85 38.3716 112.94 38.5328 113.073 38.6536C113.206 38.7743 113.375 38.8479 113.554 38.863C116.2 39.3948 118.518 40.8401 121.095 41.4947C121.584 41.5745 122.039 41.797 122.403 42.1341C122.767 42.4712 123.023 42.9081 123.14 43.3901C123.62 44.7335 124.537 45.8766 125.745 46.6355C125.757 46.1648 125.658 45.698 125.458 45.2719C125.393 45.1074 125.369 44.9296 125.388 44.7539C125.407 44.5781 125.469 44.4095 125.567 44.2628C125.766 44.1283 125.997 44.0486 126.236 44.0319C126.476 44.0151 126.715 44.0618 126.931 44.1673C128.796 44.7669 130.541 45.69 132.085 46.8945C134.302 48.995 136.078 51.5168 137.308 54.3127C137.308 54.3127 139.34 58.6897 137.594 66.0122C137.594 66.0122 141.167 60.803 141.685 60.7076L139.844 59.7943H140.921C141.439 56.8494 141.517 53.8438 141.153 50.8762Z" fill="url(#paint52_linear_452_2326)"/>
<path d="M141.153 50.8762C140.896 49.2642 140.554 47.6666 140.131 46.09C139.572 44.14 140.253 42.4629 142.98 42.5992C143.267 42.5992 143.553 42.5992 143.676 42.2992C143.799 41.9992 143.567 41.7265 143.308 41.5492C142.361 40.8359 141.231 40.4057 140.049 40.3084C137.069 40.2654 134.147 39.4879 131.54 38.0448C128.213 36.1649 124.452 35.1872 120.631 35.2086C118.978 35.1588 117.338 35.5195 115.859 36.2585C114.986 36.7358 114.427 37.7721 113.213 37.6903C113.153 37.6951 113.095 37.7124 113.042 37.7409C112.989 37.7694 112.942 37.8086 112.905 37.856C112.868 37.9034 112.841 37.958 112.826 38.0163C112.811 38.0745 112.808 38.1354 112.818 38.1948C112.85 38.3716 112.94 38.5328 113.073 38.6536C113.206 38.7743 113.375 38.8479 113.554 38.863C116.2 39.3948 118.518 40.8401 121.095 41.4947C121.584 41.5745 122.039 41.797 122.403 42.1341C122.767 42.4712 123.023 42.9081 123.14 43.3901C123.62 44.7335 124.537 45.8766 125.745 46.6355C125.757 46.1648 125.658 45.698 125.458 45.2719C125.393 45.1074 125.369 44.9296 125.388 44.7539C125.407 44.5781 125.469 44.4095 125.567 44.2628C125.766 44.1283 125.997 44.0486 126.236 44.0319C126.476 44.0151 126.715 44.0618 126.931 44.1673C128.796 44.7669 130.541 45.69 132.085 46.8945C134.302 48.995 136.078 51.5168 137.308 54.3127C137.308 54.3127 139.34 58.6897 137.594 66.0122C137.594 66.0122 141.167 60.803 141.685 60.7076L139.844 59.7943H140.921C141.439 56.8494 141.517 53.8438 141.153 50.8762Z" fill="url(#paint53_linear_452_2326)"/>
<path d="M141.153 50.8762C140.896 49.2642 140.554 47.6666 140.131 46.09C139.572 44.14 140.253 42.4629 142.98 42.5992C143.267 42.5992 143.553 42.5992 143.676 42.2992C143.799 41.9992 143.567 41.7265 143.308 41.5492C142.361 40.8359 141.231 40.4057 140.049 40.3084C137.069 40.2654 134.147 39.4879 131.54 38.0448C128.213 36.1649 124.452 35.1872 120.631 35.2086C118.978 35.1588 117.338 35.5195 115.859 36.2585C114.986 36.7358 114.427 37.7721 113.213 37.6903C113.153 37.6951 113.095 37.7124 113.042 37.7409C112.989 37.7694 112.942 37.8086 112.905 37.856C112.868 37.9034 112.841 37.958 112.826 38.0163C112.811 38.0745 112.808 38.1354 112.818 38.1948C112.85 38.3716 112.94 38.5328 113.073 38.6536C113.206 38.7743 113.375 38.8479 113.554 38.863C116.2 39.3948 118.518 40.8401 121.095 41.4947C121.584 41.5745 122.039 41.797 122.403 42.1341C122.767 42.4712 123.023 42.9081 123.14 43.3901C123.62 44.7335 124.537 45.8766 125.745 46.6355C125.757 46.1648 125.658 45.698 125.458 45.2719C125.393 45.1074 125.369 44.9296 125.388 44.7539C125.407 44.5781 125.469 44.4095 125.567 44.2628C125.766 44.1283 125.997 44.0486 126.236 44.0319C126.476 44.0151 126.715 44.0618 126.931 44.1673C128.796 44.7669 130.541 45.69 132.085 46.8945C134.302 48.995 136.078 51.5168 137.308 54.3127C137.308 54.3127 139.34 58.6897 137.594 66.0122C137.594 66.0122 141.167 60.803 141.685 60.7076L139.844 59.7943H140.921C141.439 56.8494 141.517 53.8438 141.153 50.8762Z" fill="url(#paint54_linear_452_2326)"/>
<path d="M141.153 50.8762C140.896 49.2642 140.554 47.6666 140.131 46.09C139.572 44.14 140.253 42.4629 142.98 42.5992C143.267 42.5992 143.553 42.5992 143.676 42.2992C143.799 41.9992 143.567 41.7265 143.308 41.5492C142.361 40.8359 141.231 40.4057 140.049 40.3084C137.069 40.2654 134.147 39.4879 131.54 38.0448C128.213 36.1649 124.452 35.1872 120.631 35.2086C118.978 35.1588 117.338 35.5195 115.859 36.2585C114.986 36.7358 114.427 37.7721 113.213 37.6903C113.153 37.6951 113.095 37.7124 113.042 37.7409C112.989 37.7694 112.942 37.8086 112.905 37.856C112.868 37.9034 112.841 37.958 112.826 38.0163C112.811 38.0745 112.808 38.1354 112.818 38.1948C112.85 38.3716 112.94 38.5328 113.073 38.6536C113.206 38.7743 113.375 38.8479 113.554 38.863C116.2 39.3948 118.518 40.8401 121.095 41.4947C121.584 41.5745 122.039 41.797 122.403 42.1341C122.767 42.4712 123.023 42.9081 123.14 43.3901C123.62 44.7335 124.537 45.8766 125.745 46.6355C125.757 46.1648 125.658 45.698 125.458 45.2719C125.393 45.1074 125.369 44.9296 125.388 44.7539C125.407 44.5781 125.469 44.4095 125.567 44.2628C125.766 44.1283 125.997 44.0486 126.236 44.0319C126.476 44.0151 126.715 44.0618 126.931 44.1673C128.796 44.7669 130.541 45.69 132.085 46.8945C134.302 48.995 136.078 51.5168 137.308 54.3127C137.308 54.3127 139.34 58.6897 137.594 66.0122C137.594 66.0122 141.167 60.803 141.685 60.7076L139.844 59.7943H140.921C141.439 56.8494 141.517 53.8438 141.153 50.8762Z" fill="#5E1F90"/>
<path d="M141.153 50.8762C140.896 49.2642 140.554 47.6666 140.131 46.09C139.572 44.14 140.253 42.4629 142.98 42.5992C143.267 42.5992 143.553 42.5992 143.676 42.2992C143.799 41.9992 143.567 41.7265 143.308 41.5492C142.361 40.8359 141.231 40.4057 140.049 40.3084C137.069 40.2654 134.147 39.4879 131.54 38.0448C128.213 36.1649 124.452 35.1872 120.631 35.2086C118.978 35.1588 117.338 35.5195 115.859 36.2585C114.986 36.7358 114.427 37.7721 113.213 37.6903C113.153 37.6951 113.095 37.7124 113.042 37.7409C112.989 37.7694 112.942 37.8086 112.905 37.856C112.868 37.9034 112.841 37.958 112.826 38.0163C112.811 38.0745 112.808 38.1354 112.818 38.1948C112.85 38.3716 112.94 38.5328 113.073 38.6536C113.206 38.7743 113.375 38.8479 113.554 38.863C116.2 39.3948 118.518 40.8401 121.095 41.4947C121.584 41.5745 122.039 41.797 122.403 42.1341C122.767 42.4712 123.023 42.9081 123.14 43.3901C123.62 44.7335 124.537 45.8766 125.745 46.6355C125.757 46.1648 125.658 45.698 125.458 45.2719C125.393 45.1074 125.369 44.9296 125.388 44.7539C125.407 44.5781 125.469 44.4095 125.567 44.2628C125.766 44.1283 125.997 44.0486 126.236 44.0319C126.476 44.0151 126.715 44.0618 126.931 44.1673C128.796 44.7669 130.541 45.69 132.085 46.8945C134.302 48.995 136.078 51.5168 137.308 54.3127C137.308 54.3127 139.34 58.6897 137.594 66.0122C137.594 66.0122 141.167 60.803 141.685 60.7076L139.844 59.7943H140.921C141.439 56.8494 141.517 53.8438 141.153 50.8762Z" fill="url(#paint55_linear_452_2326)" fill-opacity="0.5"/>
<path d="M141.153 50.8762C140.896 49.2642 140.554 47.6666 140.131 46.09C139.572 44.14 140.253 42.4629 142.98 42.5992C143.267 42.5992 143.553 42.5992 143.676 42.2992C143.799 41.9992 143.567 41.7265 143.308 41.5492C142.361 40.8359 141.231 40.4057 140.049 40.3084C137.069 40.2654 134.147 39.4879 131.54 38.0448C128.213 36.1649 124.452 35.1872 120.631 35.2086C118.978 35.1588 117.338 35.5195 115.859 36.2585C114.986 36.7358 114.427 37.7721 113.213 37.6903C113.153 37.6951 113.095 37.7124 113.042 37.7409C112.989 37.7694 112.942 37.8086 112.905 37.856C112.868 37.9034 112.841 37.958 112.826 38.0163C112.811 38.0745 112.808 38.1354 112.818 38.1948C112.85 38.3716 112.94 38.5328 113.073 38.6536C113.206 38.7743 113.375 38.8479 113.554 38.863C116.2 39.3948 118.518 40.8401 121.095 41.4947C121.584 41.5745 122.039 41.797 122.403 42.1341C122.767 42.4712 123.023 42.9081 123.14 43.3901C123.62 44.7335 124.537 45.8766 125.745 46.6355C125.757 46.1648 125.658 45.698 125.458 45.2719C125.393 45.1074 125.369 44.9296 125.388 44.7539C125.407 44.5781 125.469 44.4095 125.567 44.2628C125.766 44.1283 125.997 44.0486 126.236 44.0319C126.476 44.0151 126.715 44.0618 126.931 44.1673C128.796 44.7669 130.541 45.69 132.085 46.8945C134.302 48.995 136.078 51.5168 137.308 54.3127C137.308 54.3127 139.34 58.6897 137.594 66.0122C137.594 66.0122 141.167 60.803 141.685 60.7076L139.844 59.7943H140.921C141.439 56.8494 141.517 53.8438 141.153 50.8762Z" fill="url(#paint56_linear_452_2326)"/>
<path d="M118.899 37.6353L119.049 37.6489" stroke="#7904AF" stroke-width="0.477257" stroke-linecap="round" stroke-linejoin="round"/>
<path d="M118.899 37.6353L119.049 37.6489" stroke="white" stroke-width="0.477257" stroke-linecap="round" stroke-linejoin="round"/>
<path d="M186.159 1.53027C184.912 1.09506 183.639 0.743357 182.346 0.477512C180.853 0.135878 179.325 -0.0234839 177.795 0.00279025C177.324 0.00279025 177.119 0.00276505 177.098 0.105974C177.098 0.105974 177.098 0.31238 177.406 0.415589C177.713 0.518801 180.686 1.90178 180.644 1.94307C181.541 2.38539 182.369 2.95547 183.105 3.63571C183.371 3.7802 185.585 6.13337 185.667 6.13337C185.749 6.13337 185.667 6.13337 185.667 6.13337V6.23658C185.667 6.23658 185.667 6.23658 185.667 6.3398C185.667 6.44301 187.082 9.70444 187.102 9.76633L187.696 10.7365C187.696 10.7365 187.696 10.7365 187.696 10.9017C187.457 11.2598 187.19 11.5981 186.897 11.9131C186.278 12.6011 185.591 13.2235 184.847 13.7709C184.711 13.8566 184.586 13.9608 184.478 14.0805C184.478 14.1837 184.047 14.5346 184.621 15.2778L185.36 15.8763C185.483 16.0005 185.629 16.0987 185.79 16.1653C186.036 16.2892 186.118 16.2892 186.323 16.1653C186.612 15.9831 186.874 15.7607 187.102 15.5048C187.853 14.6961 188.81 14.1106 189.869 13.8121C190.197 13.8121 190.115 13.7089 190.464 14.0186C190.812 14.3282 191.161 14.5346 191.366 14.6585L194.256 16.7227C194.256 16.7227 195.609 17.8167 195.691 17.858C195.773 17.8992 195.814 17.858 196.101 18.2295C196.391 18.5954 196.632 18.9979 196.818 19.4267V19.5299C196.818 19.5299 196.941 19.7157 196.941 19.8396C196.941 19.9634 198.991 26.1972 199.094 26.2179C199.196 26.2385 199.196 26.2179 199.237 26.4656C199.24 26.5896 199.275 26.7107 199.34 26.8165C199.442 26.8165 199.504 26.6101 199.627 25.7225C199.797 24.3517 199.797 22.9649 199.627 21.5941C199.627 20.0254 199.504 19.5299 199.401 18.7043C199.289 17.346 199.007 16.0073 198.561 14.7204C198.378 14.1964 198.108 13.7077 197.762 13.2755C197.54 13.1354 197.298 13.031 197.044 12.9659L195.998 12.5737C195.117 12.288 194.32 11.784 193.682 11.1081C193.537 10.9573 193.45 10.7599 193.436 10.5508C193.495 10.2064 193.585 9.86796 193.702 9.53934C193.834 9.26204 193.902 8.95878 193.902 8.65168C193.902 8.34454 193.834 8.04133 193.702 7.76408C193.672 7.72199 193.657 7.67143 193.657 7.61959C193.657 7.5677 193.672 7.51724 193.702 7.4751C193.702 7.33061 193.702 7.24801 193.702 7.24801C193.702 7.24801 193.702 7.24806 193.559 7.39255V7.51638C193.313 7.41316 193.088 7.51638 192.555 7.97051C192.391 8.13459 192.185 8.24903 191.96 8.30077H191.735C191.161 7.96612 190.741 7.4174 190.566 6.77332C190.259 5.93031 190.073 5.04759 190.013 4.15176C190.026 3.98189 189.999 3.81135 189.935 3.65366C189.871 3.49598 189.771 3.35552 189.644 3.24351C189.275 2.88979 188.853 2.5972 188.393 2.37659C187.983 2.27338 186.712 1.73668 186.159 1.53027Z" fill="#7B3AFF"/>
<path d="M186.159 1.53027C184.912 1.09506 183.639 0.743357 182.346 0.477512C180.853 0.135878 179.325 -0.0234839 177.795 0.00279025C177.324 0.00279025 177.119 0.00276505 177.098 0.105974C177.098 0.105974 177.098 0.31238 177.406 0.415589C177.713 0.518801 180.686 1.90178 180.644 1.94307C181.541 2.38539 182.369 2.95547 183.105 3.63571C183.371 3.7802 185.585 6.13337 185.667 6.13337C185.749 6.13337 185.667 6.13337 185.667 6.13337V6.23658C185.667 6.23658 185.667 6.23658 185.667 6.3398C185.667 6.44301 187.082 9.70444 187.102 9.76633L187.696 10.7365C187.696 10.7365 187.696 10.7365 187.696 10.9017C187.457 11.2598 187.19 11.5981 186.897 11.9131C186.278 12.6011 185.591 13.2235 184.847 13.7709C184.711 13.8566 184.586 13.9608 184.478 14.0805C184.478 14.1837 184.047 14.5346 184.621 15.2778L185.36 15.8763C185.483 16.0005 185.629 16.0987 185.79 16.1653C186.036 16.2892 186.118 16.2892 186.323 16.1653C186.612 15.9831 186.874 15.7607 187.102 15.5048C187.853 14.6961 188.81 14.1106 189.869 13.8121C190.197 13.8121 190.115 13.7089 190.464 14.0186C190.812 14.3282 191.161 14.5346 191.366 14.6585L194.256 16.7227C194.256 16.7227 195.609 17.8167 195.691 17.858C195.773 17.8992 195.814 17.858 196.101 18.2295C196.391 18.5954 196.632 18.9979 196.818 19.4267V19.5299C196.818 19.5299 196.941 19.7157 196.941 19.8396C196.941 19.9634 198.991 26.1972 199.094 26.2179C199.196 26.2385 199.196 26.2179 199.237 26.4656C199.24 26.5896 199.275 26.7107 199.34 26.8165C199.442 26.8165 199.504 26.6101 199.627 25.7225C199.797 24.3517 199.797 22.9649 199.627 21.5941C199.627 20.0254 199.504 19.5299 199.401 18.7043C199.289 17.346 199.007 16.0073 198.561 14.7204C198.378 14.1964 198.108 13.7077 197.762 13.2755C197.54 13.1354 197.298 13.031 197.044 12.9659L195.998 12.5737C195.117 12.288 194.32 11.784 193.682 11.1081C193.537 10.9573 193.45 10.7599 193.436 10.5508C193.495 10.2064 193.585 9.86796 193.702 9.53934C193.834 9.26204 193.902 8.95878 193.902 8.65168C193.902 8.34454 193.834 8.04133 193.702 7.76408C193.672 7.72199 193.657 7.67143 193.657 7.61959C193.657 7.5677 193.672 7.51724 193.702 7.4751C193.702 7.33061 193.702 7.24801 193.702 7.24801C193.702 7.24801 193.702 7.24806 193.559 7.39255V7.51638C193.313 7.41316 193.088 7.51638 192.555 7.97051C192.391 8.13459 192.185 8.24903 191.96 8.30077H191.735C191.161 7.96612 190.741 7.4174 190.566 6.77332C190.259 5.93031 190.073 5.04759 190.013 4.15176C190.026 3.98189 189.999 3.81135 189.935 3.65366C189.871 3.49598 189.771 3.35552 189.644 3.24351C189.275 2.88979 188.853 2.5972 188.393 2.37659C187.983 2.27338 186.712 1.73668 186.159 1.53027Z" fill="url(#paint57_linear_452_2326)"/>
</g>
<defs>
<linearGradient id="paint0_linear_452_2326" x1="11.4199" y1="59.7414" x2="15.0331" y2="33.357" gradientUnits="userSpaceOnUse">
<stop stop-color="#992BCC"/>
<stop offset="1" stop-color="#2D145E"/>
</linearGradient>
<linearGradient id="paint1_linear_452_2326" x1="24.2353" y1="63.0011" x2="14.7833" y2="35.5581" gradientUnits="userSpaceOnUse">
<stop stop-color="#992BCC"/>
<stop offset="1" stop-color="#2D145E"/>
</linearGradient>
<linearGradient id="paint2_linear_452_2326" x1="5.05188" y1="38.9097" x2="6.04903e-05" y2="55.7164" gradientUnits="userSpaceOnUse">
<stop stop-color="#BC0ECB"/>
<stop offset="1" stop-color="#743AC6"/>
</linearGradient>
<linearGradient id="paint3_linear_452_2326" x1="52.6963" y1="67.7544" x2="38.9678" y2="-4.77416" gradientUnits="userSpaceOnUse">
<stop stop-color="#ECDBFF"/>
<stop offset="1" stop-color="white" stop-opacity="0.58"/>
</linearGradient>
<linearGradient id="paint4_linear_452_2326" x1="53.3677" y1="3.51484" x2="72.5361" y2="81.2243" gradientUnits="userSpaceOnUse">
<stop stop-color="#ECDBFF"/>
<stop offset="1" stop-color="#FFDEB7"/>
</linearGradient>
<linearGradient id="paint5_linear_452_2326" x1="26.545" y1="40.8878" x2="107.003" y2="40.8878" gradientUnits="userSpaceOnUse">
<stop stop-color="#BCA5FF"/>
<stop offset="1" stop-color="#BC15FF"/>
</linearGradient>
<linearGradient id="paint6_linear_452_2326" x1="30.7867" y1="40.8888" x2="102.747" y2="40.8889" gradientUnits="userSpaceOnUse">
<stop stop-color="#FF6F00"/>
<stop offset="1" stop-color="#FCFFD4"/>
</linearGradient>
<linearGradient id="paint7_linear_452_2326" x1="96.2745" y1="58.3006" x2="13.1432" y2="0.458425" gradientUnits="userSpaceOnUse">
<stop stop-color="#FF8825"/>
<stop offset="1" stop-color="#EF4136"/>
</linearGradient>
<linearGradient id="paint8_linear_452_2326" x1="30.6028" y1="69.1955" x2="95.0979" y2="77.046" gradientUnits="userSpaceOnUse">
<stop stop-color="#BC0ECB"/>
<stop offset="1" stop-color="#743AC6"/>
</linearGradient>
<linearGradient id="paint9_linear_452_2326" x1="101.005" y1="45.9013" x2="4.05094" y2="55.4148" gradientUnits="userSpaceOnUse">
<stop stop-color="#992BCC"/>
<stop offset="1" stop-color="#2D145E"/>
</linearGradient>
<linearGradient id="paint10_linear_452_2326" x1="12.3558" y1="40.5766" x2="33.8066" y2="40.4347" gradientUnits="userSpaceOnUse">
<stop stop-color="#F8672D"/>
<stop offset="1" stop-color="#F9ABFC"/>
</linearGradient>
<linearGradient id="paint11_linear_452_2326" x1="67.8336" y1="30.3512" x2="64.1458" y2="60.5831" gradientUnits="userSpaceOnUse">
<stop offset="0.015625" stop-color="white"/>
<stop offset="1" stop-color="white" stop-opacity="0"/>
</linearGradient>
<linearGradient id="paint12_linear_452_2326" x1="92.2678" y1="62.9184" x2="91.2775" y2="71.0556" gradientUnits="userSpaceOnUse">
<stop stop-color="#ECDBFF"/>
<stop offset="1" stop-color="white" stop-opacity="0.58"/>
</linearGradient>
<linearGradient id="paint13_linear_452_2326" x1="92.2678" y1="62.9184" x2="91.2775" y2="71.0556" gradientUnits="userSpaceOnUse">
<stop stop-color="#FF8825"/>
<stop offset="1" stop-color="#EF4136"/>
</linearGradient>
<linearGradient id="paint14_linear_452_2326" x1="90.1499" y1="65.8878" x2="94.8351" y2="61.0296" gradientUnits="userSpaceOnUse">
<stop stop-color="#FFE8CC"/>
<stop offset="1" stop-color="#FF6E40"/>
</linearGradient>
<linearGradient id="paint15_linear_452_2326" x1="17969.5" y1="27659.4" x2="20243.2" y2="27659.4" gradientUnits="userSpaceOnUse">
<stop stop-color="#FF6F00"/>
<stop offset="1" stop-color="#FCFFD4"/>
</linearGradient>
<linearGradient id="paint16_linear_452_2326" x1="157.455" y1="11.7305" x2="157.455" y2="70.9143" gradientUnits="userSpaceOnUse">
<stop stop-color="#FF8825"/>
<stop offset="1" stop-color="#EF4136"/>
</linearGradient>
<linearGradient id="paint17_linear_452_2326" x1="188.688" y1="42.1018" x2="102.743" y2="61.0602" gradientUnits="userSpaceOnUse">
<stop stop-color="#992BCC"/>
<stop offset="1" stop-color="#2D145E"/>
</linearGradient>
<linearGradient id="paint18_linear_452_2326" x1="169.813" y1="42.3676" x2="197.03" y2="42.3676" gradientUnits="userSpaceOnUse">
<stop stop-color="#FEB465"/>
<stop offset="1" stop-color="#FCFFD4"/>
</linearGradient>
<linearGradient id="paint19_linear_452_2326" x1="183.424" y1="39.9404" x2="183.424" y2="44.8357" gradientUnits="userSpaceOnUse">
<stop stop-color="#FF8825"/>
<stop offset="1" stop-color="#EF4136"/>
</linearGradient>
<linearGradient id="paint20_linear_452_2326" x1="5475.51" y1="10829.4" x2="5667.96" y2="10829.4" gradientUnits="userSpaceOnUse">
<stop stop-color="#FEB465"/>
<stop offset="1" stop-color="#FCFFD4"/>
</linearGradient>
<linearGradient id="paint21_linear_452_2326" x1="171.04" y1="7.2417" x2="171.04" y2="31.2409" gradientUnits="userSpaceOnUse">
<stop stop-color="#FF8825"/>
<stop offset="1" stop-color="#EF4136"/>
</linearGradient>
<linearGradient id="paint22_linear_452_2326" x1="5462.65" y1="11658.6" x2="5655.15" y2="11658.6" gradientUnits="userSpaceOnUse">
<stop stop-color="#FEB465"/>
<stop offset="1" stop-color="#FCFFD4"/>
</linearGradient>
<linearGradient id="paint23_linear_452_2326" x1="169.906" y1="52.0366" x2="169.906" y2="76.0494" gradientUnits="userSpaceOnUse">
<stop stop-color="#FF8825"/>
<stop offset="1" stop-color="#EF4136"/>
</linearGradient>
<linearGradient id="paint24_linear_452_2326" x1="5127.21" y1="10829.4" x2="5319.34" y2="10829.4" gradientUnits="userSpaceOnUse">
<stop stop-color="#FEB465"/>
<stop offset="1" stop-color="#FCFFD4"/>
</linearGradient>
<linearGradient id="paint25_linear_452_2326" x1="144.402" y1="7.2417" x2="144.402" y2="31.2409" gradientUnits="userSpaceOnUse">
<stop stop-color="#FF8825"/>
<stop offset="1" stop-color="#EF4136"/>
</linearGradient>
<linearGradient id="paint26_linear_452_2326" x1="16202.7" y1="24705.2" x2="18250.7" y2="24705.2" gradientUnits="userSpaceOnUse">
<stop stop-color="#FF6F00"/>
<stop offset="1" stop-color="#FCFFD4"/>
</linearGradient>
<linearGradient id="paint27_linear_452_2326" x1="157.608" y1="14.9189" x2="157.608" y2="67.772" gradientUnits="userSpaceOnUse">
<stop stop-color="#FF8825"/>
<stop offset="1" stop-color="#EF4136"/>
</linearGradient>
<linearGradient id="paint28_linear_452_2326" x1="185.743" y1="42.0414" x2="108.386" y2="59.2536" gradientUnits="userSpaceOnUse">
<stop stop-color="#992BCC"/>
<stop offset="1" stop-color="#2D145E"/>
</linearGradient>
<linearGradient id="paint29_linear_452_2326" x1="5400.71" y1="881.031" x2="5885.71" y2="881.031" gradientUnits="userSpaceOnUse">
<stop stop-color="#FF6F00"/>
<stop offset="1" stop-color="#FCFFD4"/>
</linearGradient>
<linearGradient id="paint30_linear_452_2326" x1="156.94" y1="28.7593" x2="156.94" y2="54.4765" gradientUnits="userSpaceOnUse">
<stop stop-color="#FF8825"/>
<stop offset="1" stop-color="#EF4136"/>
</linearGradient>
<linearGradient id="paint31_linear_452_2326" x1="170.631" y1="41.9567" x2="132.99" y2="50.3319" gradientUnits="userSpaceOnUse">
<stop stop-color="#992BCC"/>
<stop offset="1" stop-color="#2D145E"/>
</linearGradient>
<linearGradient id="paint32_linear_452_2326" x1="-nan" y1="-nan" x2="-nan" y2="-nan" gradientUnits="userSpaceOnUse">
<stop stop-color="#992BCC"/>
<stop offset="1" stop-color="#2D145E"/>
</linearGradient>
<linearGradient id="paint33_linear_452_2326" x1="175.127" y1="16.1914" x2="169.604" y2="18.2694" gradientUnits="userSpaceOnUse">
<stop stop-color="#992BCC"/>
<stop offset="1" stop-color="#2D145E"/>
</linearGradient>
<linearGradient id="paint34_linear_452_2326" x1="173.993" y1="67.1705" x2="168.462" y2="69.2399" gradientUnits="userSpaceOnUse">
<stop stop-color="#992BCC"/>
<stop offset="1" stop-color="#2D145E"/>
</linearGradient>
<linearGradient id="paint35_linear_452_2326" x1="144.691" y1="16.1914" x2="139.169" y2="18.2694" gradientUnits="userSpaceOnUse">
<stop stop-color="#992BCC"/>
<stop offset="1" stop-color="#2D145E"/>
</linearGradient>
<linearGradient id="paint36_linear_452_2326" x1="175.882" y1="14.7041" x2="170.683" y2="16.5939" gradientUnits="userSpaceOnUse">
<stop stop-color="#992BCC"/>
<stop offset="1" stop-color="#2D145E"/>
</linearGradient>
<linearGradient id="paint37_linear_452_2326" x1="188.578" y1="44.8936" x2="188.974" y2="44.882" gradientUnits="userSpaceOnUse">
<stop stop-color="#992BCC"/>
<stop offset="1" stop-color="#2D145E"/>
</linearGradient>
<linearGradient id="paint38_linear_452_2326" x1="143.77" y1="14.574" x2="138.564" y2="16.4842" gradientUnits="userSpaceOnUse">
<stop stop-color="#992BCC"/>
<stop offset="1" stop-color="#2D145E"/>
</linearGradient>
<linearGradient id="paint39_linear_452_2326" x1="174.848" y1="68.6497" x2="169.45" y2="70.6196" gradientUnits="userSpaceOnUse">
<stop stop-color="#992BCC"/>
<stop offset="1" stop-color="#2D145E"/>
</linearGradient>
<linearGradient id="paint40_linear_452_2326" x1="127.73" y1="62.0288" x2="167.656" y2="62.0288" gradientUnits="userSpaceOnUse">
<stop stop-color="#FEB465"/>
<stop offset="1" stop-color="#7B3AFF"/>
</linearGradient>
<linearGradient id="paint41_linear_452_2326" x1="4769.21" y1="3078.95" x2="4947.74" y2="3078.95" gradientUnits="userSpaceOnUse">
<stop stop-color="#FF6F00"/>
<stop offset="1" stop-color="#F9ABFC"/>
</linearGradient>
<linearGradient id="paint42_linear_452_2326" x1="145.219" y1="79.0962" x2="124.866" y2="76.5467" gradientUnits="userSpaceOnUse">
<stop stop-color="#992BCC"/>
<stop offset="1" stop-color="#2D145E"/>
</linearGradient>
<linearGradient id="paint43_linear_452_2326" x1="145.219" y1="79.0962" x2="124.866" y2="76.5467" gradientUnits="userSpaceOnUse">
<stop stop-color="#992BCC"/>
<stop offset="1" stop-color="#2D145E"/>
</linearGradient>
<linearGradient id="paint44_linear_452_2326" x1="3307.43" y1="690.194" x2="3499.55" y2="690.194" gradientUnits="userSpaceOnUse">
<stop stop-color="#BC15FF"/>
<stop offset="1" stop-color="#FCFFD4"/>
</linearGradient>
<linearGradient id="paint45_linear_452_2326" x1="151.392" y1="69.3922" x2="128.81" y2="76.2667" gradientUnits="userSpaceOnUse">
<stop stop-color="#992BCC"/>
<stop offset="1" stop-color="#2D145E"/>
</linearGradient>
<linearGradient id="paint46_linear_452_2326" x1="6426.07" y1="20305.2" x2="6959.85" y2="20305.2" gradientUnits="userSpaceOnUse">
<stop stop-color="#FEB465"/>
<stop offset="1" stop-color="#FCFFD4"/>
</linearGradient>
<linearGradient id="paint47_linear_452_2326" x1="140.363" y1="49.7404" x2="154.087" y2="50.8977" gradientUnits="userSpaceOnUse">
<stop stop-color="#FFE8CC"/>
<stop offset="1" stop-color="#FF6E40"/>
</linearGradient>
<linearGradient id="paint48_linear_452_2326" x1="4699.64" y1="3034.27" x2="4883.83" y2="3034.27" gradientUnits="userSpaceOnUse">
<stop stop-color="#FF6F00"/>
<stop offset="0.598958" stop-color="#F9ABFC"/>
</linearGradient>
<linearGradient id="paint49_linear_452_2326" x1="135.974" y1="65.8287" x2="130.414" y2="71.1736" gradientUnits="userSpaceOnUse">
<stop stop-color="#FF8825"/>
<stop offset="1" stop-color="#EF4136"/>
</linearGradient>
<linearGradient id="paint50_linear_452_2326" x1="142.225" y1="71.9026" x2="121.825" y2="74.0404" gradientUnits="userSpaceOnUse">
<stop stop-color="#992BCC"/>
<stop offset="1" stop-color="#2D145E"/>
</linearGradient>
<linearGradient id="paint51_linear_452_2326" x1="147.236" y1="63.1365" x2="125.153" y2="74.6931" gradientUnits="userSpaceOnUse">
<stop stop-color="#992BCC"/>
<stop offset="1" stop-color="#2D145E"/>
</linearGradient>
<linearGradient id="paint52_linear_452_2326" x1="112.818" y1="50.5898" x2="143.73" y2="50.5898" gradientUnits="userSpaceOnUse">
<stop stop-color="#BC15FF"/>
<stop offset="1" stop-color="#BCA5FF"/>
</linearGradient>
<linearGradient id="paint53_linear_452_2326" x1="112.812" y1="66.0122" x2="143.71" y2="66.0122" gradientUnits="userSpaceOnUse">
<stop stop-color="#BC0ECB"/>
<stop offset="1" stop-color="#743AC6"/>
</linearGradient>
<linearGradient id="paint54_linear_452_2326" x1="112.812" y1="66.0122" x2="124.292" y2="16.8324" gradientUnits="userSpaceOnUse">
<stop stop-color="#BC0ECB"/>
<stop offset="1" stop-color="#743AC6"/>
</linearGradient>
<linearGradient id="paint55_linear_452_2326" x1="144.708" y1="51.0138" x2="99.4984" y2="61.1025" gradientUnits="userSpaceOnUse">
<stop stop-color="#992BCC"/>
<stop offset="1" stop-color="#2D145E"/>
</linearGradient>
<linearGradient id="paint56_linear_452_2326" x1="112.812" y1="66.0122" x2="124.292" y2="16.8324" gradientUnits="userSpaceOnUse">
<stop stop-color="#BC0ECB"/>
<stop offset="1" stop-color="#743AC6"/>
</linearGradient>
<linearGradient id="paint57_linear_452_2326" x1="177.098" y1="26.8165" x2="188.714" y2="-15.1052" gradientUnits="userSpaceOnUse">
<stop stop-color="#BC0ECB"/>
<stop offset="1" stop-color="#743AC6"/>
</linearGradient>
<clipPath id="clip0_452_2326">
<rect width="107.653" height="81.6327" fill="white"/>
</clipPath>
<clipPath id="clip1_452_2326">
<rect width="87.2449" height="85.7143" fill="white" transform="translate(112.755)"/>
</clipPath>
</defs>
</svg>
