<svg width="37" height="227" viewBox="0 0 37 227" fill="none" xmlns="http://www.w3.org/2000/svg">
<g clip-path="url(#clip0_452_1515)">
<path d="M19.7654 210.376C19.6145 210.233 19.486 210.1 19.3352 209.957C19.5344 210.173 19.743 210.366 19.9422 210.582C18.8343 209.457 17.8913 208.19 17.1038 206.804C17.2394 207.046 17.3973 207.297 17.5235 207.561C16.6877 206.102 16.0522 204.543 15.63 202.916C15.7019 203.183 15.7645 203.473 15.8588 203.75C15.433 202.069 15.2017 200.364 15.1966 198.622C15.2049 198.915 15.1909 199.199 15.1992 199.493C15.2012 197.86 15.4106 196.235 15.831 194.672C15.7627 194.959 15.6626 195.26 15.5943 195.548C16.0146 193.985 16.6459 192.485 17.4693 191.092C17.3115 191.341 17.1666 191.623 17.0088 191.873C17.8133 190.525 18.7687 189.319 19.8715 188.202C19.6559 188.401 19.4627 188.61 19.2471 188.809C20.4452 187.652 21.7943 186.639 23.2435 185.825L22.4871 186.245C24.0412 185.37 25.6861 184.718 27.4088 184.257C27.1413 184.329 26.8515 184.392 26.5746 184.486C28.4693 183.992 30.3912 183.746 32.3497 183.727C32.0563 183.735 31.7723 183.721 31.4789 183.73C33.1887 183.738 34.9092 183.908 36.5484 184.334C36.2609 184.266 35.9604 184.166 35.6729 184.098C36.9927 184.468 38.2561 184.974 39.444 185.658C39.1942 185.5 38.9125 185.355 38.6627 185.198C39.444 185.658 40.1653 186.199 40.8171 186.842C40.6179 186.627 40.4093 186.433 40.2101 186.218C40.6533 186.668 41.0328 187.144 41.3299 187.69C41.1943 187.449 41.0364 187.198 40.9102 186.934C41.133 187.344 41.3146 187.789 41.4643 188.248L41.2356 187.414C41.3405 187.853 41.4137 188.306 41.4102 188.752C41.4019 188.459 41.416 188.175 41.4077 187.881C41.3984 188.405 41.3443 188.909 41.2042 189.43C41.2725 189.142 41.3726 188.842 41.4408 188.554C41.2477 189.264 40.9427 189.926 40.5704 190.56C40.7283 190.31 40.8732 190.029 41.031 189.779C40.6776 190.368 40.2889 190.916 39.7976 191.394C40.0132 191.195 40.2064 190.987 40.422 190.787C40.0638 191.138 39.6574 191.415 39.2285 191.682L39.9849 191.262C39.5431 191.498 39.0883 191.702 38.6169 191.82C38.8844 191.748 39.1743 191.686 39.4512 191.591C39.0117 191.696 38.591 191.757 38.135 191.775C38.4284 191.767 38.7124 191.781 39.0058 191.773C38.5592 191.769 38.1408 191.699 37.7095 191.596C37.9971 191.665 38.2976 191.765 38.5851 191.833C38.1184 191.689 37.6706 191.501 37.2192 191.258C37.4691 191.416 37.7508 191.561 38.0006 191.719C37.4691 191.416 36.9976 191.033 36.5451 190.606C36.7442 190.821 36.9529 191.014 37.1521 191.23C36.6959 190.748 36.2904 190.209 35.9486 189.643C36.0841 189.885 36.2421 190.136 36.3682 190.399C35.9003 189.57 35.5819 188.698 35.3272 187.8L35.556 188.634C35.0029 186.504 34.835 184.272 34.8334 182.084C34.8417 182.377 34.8276 182.661 34.836 182.955C34.8554 180.09 35.1812 177.249 35.9254 174.478C35.8571 174.766 35.757 175.066 35.6887 175.354C36.2869 173.181 37.1667 171.153 38.3246 169.215C38.1668 169.465 38.0219 169.747 37.864 169.996C39.1292 167.867 40.6088 165.854 42.3902 164.126C42.1746 164.325 41.9814 164.534 41.7658 164.733C43.024 163.497 44.4013 162.416 45.9236 161.554L45.1672 161.974C47.2044 160.828 49.4962 160.079 51.7315 159.465L50.8973 159.693C52.257 159.343 53.6334 159.079 55.0368 159.063C54.7434 159.072 54.4594 159.057 54.166 159.066C54.9602 159.057 55.7427 159.202 56.5193 159.424C56.2318 159.355 55.9313 159.255 55.6437 159.187C57.1297 159.601 58.6547 160.111 59.99 160.884C59.7401 160.726 59.4585 160.581 59.2086 160.423C59.8203 160.786 60.3813 161.207 60.8822 161.708C60.683 161.492 60.4744 161.299 60.2752 161.083C60.6252 161.441 60.9117 161.825 61.1475 162.267C61.0119 162.026 60.8539 161.775 60.7278 161.511C60.9282 161.911 61.1062 162.303 61.2336 162.752L61.0048 161.917C61.1062 162.303 61.1629 162.669 61.1559 163.061C61.1476 162.768 61.1616 162.484 61.1533 162.191C61.1428 162.529 61.1099 162.858 61.0322 163.168C61.1004 162.88 61.2005 162.579 61.2688 162.292C61.1817 162.624 61.0592 162.915 60.8825 163.21C61.0404 162.96 61.1852 162.678 61.3431 162.429C61.1852 162.678 61.0144 162.896 60.8212 163.105C61.0368 162.906 61.23 162.697 61.4456 162.498C61.1794 162.755 60.8777 162.971 60.5313 163.168L61.2878 162.748C60.9826 162.909 60.6963 163.026 60.3652 163.124C60.6327 163.052 60.9225 162.99 61.1994 162.895C60.7823 163.01 60.3616 163.07 59.915 163.066C60.2084 163.058 60.4924 163.072 60.7859 163.064C60.4477 163.053 60.1189 163.02 59.7865 162.933C60.0741 163.002 60.3746 163.102 60.6621 163.17C60.2403 163.045 59.8372 162.876 59.453 162.661C59.7029 162.819 59.9845 162.964 60.2344 163.122C59.6451 162.768 59.1383 162.344 58.6598 161.853C58.859 162.069 59.0676 162.262 59.2668 162.477C58.3451 161.536 57.5883 160.453 56.9364 159.309C57.072 159.551 57.23 159.802 57.3561 160.066C56.8362 159.109 56.4342 158.123 56.1464 157.053C56.2184 157.32 56.2809 157.61 56.3752 157.887C55.8516 155.874 55.6591 153.764 55.6551 151.706C55.6634 152 55.6493 152.284 55.6576 152.577C55.662 150.813 55.9409 149.086 56.3954 147.379C56.3271 147.667 56.227 147.967 56.1587 148.255C56.9217 145.439 58.1031 142.695 59.5508 140.194C59.3929 140.444 59.2481 140.725 59.0902 140.975C60.4908 138.586 62.2438 136.425 64.209 134.511C63.9934 134.71 63.8001 134.919 63.5845 135.118C65.7146 133.062 68.0793 131.263 70.6408 129.811C70.3993 129.947 70.1483 130.105 69.8844 130.231C70.9872 129.614 72.116 129.061 73.2707 128.572C74.8932 127.911 75.8685 125.844 75.1175 124.183C74.3665 122.523 72.4786 121.623 70.7288 122.337C63.2431 125.407 56.7644 131.22 52.916 138.298C51.9548 140.081 51.1092 141.966 50.452 143.903C49.7289 145.997 49.1661 148.212 48.9957 150.433C48.8312 152.578 48.9448 154.813 49.2811 156.958C49.464 158.089 49.7459 159.235 50.1008 160.333C50.4651 161.409 50.9756 162.388 51.5402 163.364C53.6315 167.038 57.455 170.729 62.0634 169.611C63.3054 169.29 64.5273 168.829 65.4686 167.907C66.648 166.796 67.3924 165.528 67.7232 163.927C68.187 161.698 67.344 159.129 65.913 157.394C64.3183 155.484 62.0932 154.257 59.7563 153.485C58.5766 153.094 57.3746 152.694 56.1643 152.501C54.9765 152.317 53.7392 152.376 52.5726 152.518C50.3702 152.803 48.2151 153.478 46.1401 154.213C44.2242 154.882 42.4403 155.739 40.7601 156.851C37.5872 158.942 34.9529 161.945 32.9645 165.167C31.8725 166.948 30.8476 168.757 30.1363 170.698C29.4155 172.661 28.8869 174.732 28.5656 176.811C28.2161 178.957 28.1411 181.139 28.1428 183.327C28.1514 185.123 28.2944 186.976 28.6824 188.747C29.1566 191.002 29.9631 193.344 31.5473 195.092C33.2375 196.963 35.5345 198.456 38.1411 198.525C40.9009 198.606 43.2763 197.471 45.1743 195.528C46.5527 194.132 47.3666 192.26 47.8423 190.378C48.2591 188.761 48.0725 187.075 47.5678 185.519C47.0761 183.994 46.0695 182.753 44.9298 181.641C42.833 179.546 39.9704 178.394 37.1362 177.676C35.7845 177.318 34.3928 177.181 32.9953 177.12C31.1734 177.065 29.3811 177.128 27.5841 177.452C24.009 178.056 20.6014 179.39 17.6229 181.457C14.6632 183.48 12.2705 186.347 10.6556 189.621C7.22083 196.531 8.10875 204.943 12.0813 211.412C13.055 212.981 14.2667 214.361 15.602 215.634C16.2055 216.205 17.3203 216.437 18.1298 216.329C18.9394 216.222 19.8549 215.737 20.345 215.074C20.8539 214.365 21.186 213.451 21.0397 212.546C20.8615 211.654 20.449 211.006 19.7654 210.376Z" fill="#FFB03A"/>
</g>
<g clip-path="url(#clip1_452_1515)">
<path d="M32.2598 -7.81449C32.8068 -5.28914 33.131 -2.7247 33.2016 -0.124424C33.1787 -0.501696 33.19 -0.906621 33.1672 -1.28389C33.2819 2.38316 32.899 6.02919 32.0249 9.5924C32.1257 9.22811 32.1988 8.82967 32.2995 8.46538C31.4222 12.0595 30.0912 15.5122 28.3129 18.7618C28.5031 18.4382 28.6624 18.1112 28.8526 17.7876C27.1149 20.9477 24.9642 23.877 22.4718 26.4893L23.2425 25.6955C20.7875 28.2492 18.0251 30.4583 15.0513 32.3015C15.3521 32.1144 15.6838 31.9306 15.9878 31.7126C12.9489 33.5802 9.67083 35.0478 6.24956 36.0943C6.60567 35.9755 6.95854 35.8876 7.31464 35.7688C6.21866 36.091 5.12593 36.3824 4.00554 36.6396C2.91929 36.8692 1.92419 37.4207 1.23328 38.3478C0.610657 39.2196 0.223936 40.5223 0.453492 41.6085C0.717192 42.6671 1.25898 43.7549 2.19257 44.384C3.12616 45.0131 4.30524 45.3869 5.42239 45.1605C10.0275 44.1447 14.5431 42.4946 18.6015 40.1405C20.7315 38.896 22.7786 37.549 24.6906 36.0004C26.6027 34.4518 28.3114 32.7569 29.9713 30.9319C33.0392 27.5991 35.5068 23.7346 37.4377 19.6264C39.4028 15.4905 40.6523 11.0295 41.2838 6.50364C41.9283 1.85418 41.81 -2.9691 41.0137 -7.58243C40.9143 -8.12393 40.815 -8.66543 40.6848 -9.21018C40.4552 -10.2964 39.9037 -11.2915 38.9766 -11.9824C38.1048 -12.6051 36.8021 -12.9918 35.7159 -12.7622C34.6605 -12.5294 33.5727 -11.9876 32.9436 -11.054C32.4105 -10.1416 32.0026 -8.93488 32.2598 -7.81449Z" fill="#7500FF"/>
</g>
<g clip-path="url(#clip2_452_1515)">
<path d="M13.6031 83.914C13.4934 85.0972 13.5851 86.3014 13.7602 87.4872C13.8777 88.314 14.0624 89.1478 14.3049 89.9469C14.8709 91.8114 15.6198 93.6136 16.7255 95.2493C17.3477 96.183 17.9862 97.0912 18.7822 97.9208C19.5527 98.7342 20.439 99.4782 21.3486 100.13C22.2837 100.797 23.2652 101.28 24.3138 101.769C24.999 102.098 25.7074 102.335 26.4228 102.505C28.5182 102.981 30.5467 103.056 32.6913 102.669C33.7427 102.48 34.7156 102.133 35.7047 101.761C36.3695 101.505 36.9996 101.19 37.5857 100.776C39.321 99.6265 40.9176 98.2452 41.9008 96.3656C42.8771 94.5531 43.4806 92.5389 43.4127 90.4548C43.3426 88.2618 42.8765 85.9596 41.6737 84.083C41.3014 83.4876 40.8781 82.8598 40.4315 82.3245C39.9595 81.773 39.4064 81.3488 38.844 80.883C37.9831 80.1552 36.9345 79.6658 35.8881 79.2853C34.9343 78.9279 33.6397 79.1053 32.7362 79.5677C31.8165 80.0557 30.915 81.0206 30.6433 82.0648C30.3878 83.0835 30.387 84.2645 30.9258 85.2167C31.4993 86.2267 32.3255 86.8966 33.4229 87.3096C33.6336 87.3723 33.828 87.4604 33.997 87.5323C33.659 87.3885 33.3118 87.203 32.9738 87.0592C33.4646 87.3004 33.9229 87.5925 34.3487 87.9355C34.0756 87.6899 33.7609 87.4534 33.4878 87.2078C33.9483 87.6087 34.3764 88.0606 34.7048 88.5564C34.5059 88.2506 34.2908 87.9702 34.0918 87.6644C34.4805 88.2343 34.7949 88.8644 35.026 89.513C34.9105 89.1887 34.7695 88.8482 34.6701 88.4985C34.9105 89.1887 35.0674 89.8974 35.1247 90.6501C35.0926 90.3073 35.0766 89.9391 35.019 89.5802C35.0671 90.2911 35.0643 90.9696 34.9364 91.6758C34.9876 91.3146 35.0643 90.9696 35.1155 90.6084C35.0201 91.2637 34.832 91.8957 34.5514 92.5045C34.6952 92.1665 34.8807 91.8193 35.0245 91.4813C34.7439 92.0902 34.3869 92.6503 33.9372 93.1872C34.1829 92.9141 34.4193 92.5994 34.665 92.3263C34.1412 92.9234 33.5989 93.437 32.9548 93.8858C33.2607 93.6869 33.541 93.4717 33.8468 93.2728C33.1611 93.7308 32.4314 94.0892 31.667 94.3897C31.9912 94.2741 32.3317 94.1331 32.6815 94.0338C31.8337 94.3527 30.9582 94.5466 30.0551 94.6154C30.3978 94.5832 30.766 94.5673 31.125 94.5097C30.1801 94.5877 29.2585 94.5731 28.3254 94.408C28.6866 94.4592 29.0316 94.5359 29.3928 94.5871C28.4597 94.422 27.5915 94.1551 26.7373 93.7538C27.0753 93.8976 27.4225 94.0832 27.7605 94.227C26.8299 93.777 25.9643 93.2253 25.1635 92.5717C25.4366 92.8173 25.7514 93.0538 26.0244 93.2994C25.0779 92.4813 24.2635 91.5683 23.5556 90.5442C23.7546 90.8501 23.9697 91.1304 24.1686 91.4362C23.4006 90.338 22.8064 89.1357 22.3535 87.8803C22.469 88.2046 22.61 88.5451 22.7093 88.8948C22.2911 87.6973 21.9979 86.4721 21.8807 85.2516C21.9129 85.5944 21.9288 85.9626 21.9864 86.3216C21.9221 85.6361 21.9249 84.9576 21.9857 84.2444C22.0906 83.2372 21.5797 82.0164 20.9111 81.2679C20.2169 80.5032 19.0318 79.891 17.9596 79.8879C16.8874 79.8848 15.7711 80.1758 14.9831 80.9625C14.1628 81.8002 13.7221 82.7724 13.6031 83.914Z" fill="#00D0BA"/>
</g>
<defs>
<clipPath id="clip0_452_1515">
<rect width="108.566" height="42.9018" fill="white" transform="translate(1.99994 210.067) rotate(-67.1784)"/>
</clipPath>
<clipPath id="clip1_452_1515">
<rect width="61.0807" height="37.1579" fill="white" transform="translate(-6.10352e-05 44.7466) rotate(-84.0048)"/>
</clipPath>
<clipPath id="clip2_452_1515">
<rect width="31.1288" height="25.7243" fill="white" transform="translate(21.8266 70) rotate(32.5137)"/>
</clipPath>
</defs>
</svg>
