<svg width="36" height="36" viewBox="0 0 36 36" fill="none" xmlns="http://www.w3.org/2000/svg">
<path fill-rule="evenodd" clip-rule="evenodd" d="M17.8401 32.9032C26.2167 32.9032 33.0096 26.1135 33.0096 17.7338C33.0096 9.35434 26.2165 2.56445 17.8401 2.56445C9.46393 2.56445 2.6709 9.35441 2.6709 17.7338C2.6709 26.1135 9.46379 32.9032 17.8401 32.9032ZM17.8404 3.23305C18.458 3.23305 19.0667 3.27159 19.6641 3.34639C19.5334 3.3443 19.4006 3.34315 19.2657 3.34291C19.1733 3.34098 19.0807 3.34001 18.9879 3.34001C16.415 3.34001 14.0102 4.08788 11.963 5.38603H10.2263C12.4396 4.02086 15.0477 3.23305 17.8404 3.23305ZM3.32576 17.7339C3.32576 15.6884 3.74976 13.7417 4.51479 11.9767L5.83044 14.1559C5.59227 15.2017 5.46622 16.2926 5.46622 17.4142C5.46622 19.0434 5.71862 20.5988 6.18858 22.0418L4.87152 24.2526C3.88263 22.2928 3.32576 20.0782 3.32576 17.7339ZM17.8404 32.2348C14.7534 32.2348 11.8919 31.2722 9.5399 29.6313L12.6251 29.8353C14.5934 30.9032 16.8743 31.5045 19.3465 31.5045C19.4486 31.5045 19.5503 31.5034 19.6516 31.5014V32.123C19.0582 32.1968 18.4538 32.2348 17.8404 32.2348ZM18.416 4.02166C16.1381 4.12554 14.0137 4.84656 12.1932 6.0283L11.3363 10.388L17.5113 14.0385L23.2698 11.8929L23.8306 6.99519L18.416 4.02166ZM27.8004 17.3063L23.9118 12.0417L24.4728 7.14246H27.3473C29.4284 8.92708 30.9713 11.3567 31.6652 14.12L30.8434 16.6434L27.8004 17.3063ZM27.8609 17.9766L30.9065 17.3132L31.9264 19.5805C31.4429 23.1273 29.7736 26.13 27.2767 28.1396L24.8341 27.7763L24.2893 23.3033L27.8609 17.9766ZM19.8702 30.8266L24.1903 27.906L23.6526 23.4912L17.7322 22.0825L12.2644 25.3473L13.0104 29.2868C14.8695 30.2788 17.0184 30.8361 19.3467 30.8361C19.5225 30.8361 19.697 30.8329 19.8702 30.8266ZM11.8973 24.7921L6.80228 21.807C6.35897 20.4371 6.12108 18.9609 6.12108 17.4143C6.12108 16.3365 6.24314 15.2885 6.47363 14.2845L10.9888 10.955L17.158 14.6021L17.347 21.5381L11.8973 24.7921ZM19.8252 4.03637L24.2637 6.47382H26.5008C24.5812 5.0798 22.2887 4.19996 19.8252 4.03637ZM21.2295 30.7096L24.6168 28.4196L26.5177 28.7023C24.9934 29.7412 23.2081 30.4386 21.2295 30.7096ZM20.3064 31.4736C20.8245 31.44 21.3314 31.3793 21.8262 31.2927L20.3064 31.748V31.4736ZM11.6061 25.3923L7.16241 22.7887C8.20603 25.3247 9.98333 27.4327 12.2617 28.8542L11.6061 25.3923ZM11.4021 29.0846C9.19656 27.5624 7.48375 25.4035 6.47674 22.8442L5.33222 24.7654L8.97735 28.9242L11.4021 29.0846ZM11.4188 6.57258L10.6738 10.3629L6.75256 13.2544C7.60054 10.5453 9.25435 8.21568 11.4188 6.57258ZM10.4414 6.50727C8.41164 8.23251 6.87253 10.5594 6.07501 13.2262L4.91165 11.175L8.08267 7.05438L10.4414 6.50727ZM17.9996 21.4597L17.8137 14.6374L23.4562 12.535L27.2616 17.687L23.8057 22.8413L17.9996 21.4597ZM31.446 16.9111L31.6812 17.434L31.6347 16.3318L31.446 16.9111Z" fill="white"/>
<path fill-rule="evenodd" clip-rule="evenodd" d="M23.5716 12.1362L27.6646 17.6777L23.9493 23.2187L17.6794 21.7268L17.48 14.406L23.5716 12.1362Z" fill="white"/>
<path fill-rule="evenodd" clip-rule="evenodd" d="M4.52051 11.294L6.18395 14.0856L10.9691 10.5571L11.899 5.82625L9.31302 5.38599C9.31302 5.38599 7.4606 7.16816 6.62324 8.20043C5.78587 9.2327 4.52051 11.294 4.52051 11.294Z" fill="white"/>
<path fill-rule="evenodd" clip-rule="evenodd" d="M4.92676 24.8035L6.56521 22.0532L11.8994 25.1785L12.719 29.5066L10.593 30.836L4.92676 24.8035Z" fill="white"/>
<path fill-rule="evenodd" clip-rule="evenodd" d="M24.5402 28.0703L27.6647 28.535L23.4136 31.1539L19.979 32.1943L20.1942 31.0958L24.5402 28.0703Z" fill="white"/>
<path fill-rule="evenodd" clip-rule="evenodd" d="M31.885 14.5039L31.0947 16.9307L32.0801 19.1215L31.885 14.5039Z" fill="white"/>
<path fill-rule="evenodd" clip-rule="evenodd" d="M18.4951 3.68531L24.1816 6.80815H27.3768C27.3768 6.80815 25.3008 4.77151 23.1558 4.01731C21.9682 3.59977 20.4677 2.84349 19.1098 2.96678C18.8325 2.99196 18.4951 3.68531 18.4951 3.68531Z" fill="white"/>
<path fill-rule="evenodd" clip-rule="evenodd" d="M18 31C25.1797 31 31 25.1797 31 18C31 10.8203 25.1797 5 18 5C10.8203 5 5 10.8203 5 18C5 25.1797 10.8203 31 18 31ZM18 34.5C27.1127 34.5 34.5 27.1127 34.5 18C34.5 8.8873 27.1127 1.5 18 1.5C8.8873 1.5 1.5 8.8873 1.5 18C1.5 27.1127 8.8873 34.5 18 34.5Z" fill="white"/>
</svg>
