<svg width="149" height="140" viewBox="0 0 149 140" fill="none" xmlns="http://www.w3.org/2000/svg">
<g filter="url(#filter0_dd_452_2667)">
<path d="M62.3941 73.9466L56.6183 79.0709L51.5802 77.724L60.1435 70.4871L56.635 60.3007L61.8213 61.6872L63.9412 68.6048L69.4155 63.7174L74.4166 65.0544L66.1375 71.9704L70.1027 82.6758L64.8053 81.2596L62.3941 73.9466ZM91.8829 83.5765L89.1046 82.8337L87.8765 87.4273L82.9495 86.1102L84.1776 81.5166L72.1379 78.2979L73.0094 75.038L90.1413 60.2479L94.809 61.4958L90.2138 78.6847L92.9921 79.4275L91.8829 83.5765ZM87.9409 67.4395L78.4334 75.5354L85.2868 77.3675L87.9409 67.4395Z" fill="url(#paint0_linear_452_2667)"/>
</g>
<defs>
<filter id="filter0_dd_452_2667" x="0.580078" y="0.79245" width="148.007" height="138.378" filterUnits="userSpaceOnUse" color-interpolation-filters="sRGB">
<feFlood flood-opacity="0" result="BackgroundImageFix"/>
<feColorMatrix in="SourceAlpha" type="matrix" values="0 0 0 0 0 0 0 0 0 0 0 0 0 0 0 0 0 0 127 0" result="hardAlpha"/>
<feOffset/>
<feGaussianBlur stdDeviation="25.5"/>
<feComposite in2="hardAlpha" operator="out"/>
<feColorMatrix type="matrix" values="0 0 0 0 0.960784 0 0 0 0 0.678431 0 0 0 0 0.172549 0 0 0 0.72 0"/>
<feBlend mode="normal" in2="BackgroundImageFix" result="effect1_dropShadow_452_2667"/>
<feColorMatrix in="SourceAlpha" type="matrix" values="0 0 0 0 0 0 0 0 0 0 0 0 0 0 0 0 0 0 127 0" result="hardAlpha"/>
<feOffset dy="6"/>
<feGaussianBlur stdDeviation="5"/>
<feComposite in2="hardAlpha" operator="out"/>
<feColorMatrix type="matrix" values="0 0 0 0 0.113955 0 0 0 0 0.030625 0 0 0 0 0.2625 0 0 0 0.65 0"/>
<feBlend mode="normal" in2="effect1_dropShadow_452_2667" result="effect2_dropShadow_452_2667"/>
<feBlend mode="normal" in="SourceGraphic" in2="effect2_dropShadow_452_2667" result="shape"/>
</filter>
<linearGradient id="paint0_linear_452_2667" x1="81.1013" y1="47.3167" x2="69.1097" y2="92.1724" gradientUnits="userSpaceOnUse">
<stop stop-color="#FFC83A"/>
<stop offset="1" stop-color="#D75A00"/>
</linearGradient>
</defs>
</svg>
