<svg width="170" height="146" viewBox="0 0 170 146" fill="none" xmlns="http://www.w3.org/2000/svg">
<g filter="url(#filter0_dd_452_2668)">
<path d="M62.6677 74.079L56.8919 79.2033L51.8537 77.8564L60.4171 70.6195L56.9085 60.4332L62.0948 61.8196L64.2148 68.7372L69.6891 63.8499L74.6902 65.1868L66.4111 72.1028L70.3763 82.8082L65.0788 81.392L62.6677 74.079ZM81.9365 81.85C82.7515 82.0679 83.4669 82.1136 84.0829 81.9872C84.7301 81.8427 85.2828 81.6067 85.7407 81.2793C86.2053 80.9272 86.5811 80.5116 86.8679 80.0326C87.1547 79.5536 87.3609 79.0795 87.4863 78.6102C87.6315 78.0669 87.6871 77.5128 87.6528 76.948C87.6499 76.365 87.4913 75.8199 87.1771 75.3125C86.8695 74.7804 86.3906 74.2951 85.7404 73.8567C85.115 73.4249 84.2712 73.067 83.2093 72.7831L77.3562 71.2184L80.9313 57.8451L95.3048 61.6876L94.1461 66.0219L83.7364 63.239L82.2905 68.6476L84.9578 69.3607C86.9582 69.8955 88.5189 70.5905 89.6397 71.4459C90.7606 72.3012 91.5579 73.2288 92.0315 74.2287C92.5365 75.2104 92.7837 76.2159 92.7731 77.2451C92.7626 78.2743 92.6385 79.2335 92.4008 80.1225C92.1301 81.1351 91.6866 82.1015 91.0701 83.0216C90.4537 83.9417 89.6537 84.7069 88.6702 85.3173C87.7114 85.9342 86.5824 86.3468 85.283 86.5551C83.9902 86.7388 82.5288 86.6127 80.8988 86.1769C80.0344 85.9459 79.1717 85.6094 78.3108 85.1675C77.4432 84.7504 76.6556 84.1826 75.948 83.4642C75.265 82.7523 74.69 81.8842 74.223 80.8596C73.7807 79.8417 73.5369 78.6254 73.4917 77.2108L77.9873 77.0235C78.0922 77.8189 78.2548 78.4974 78.4751 79.0591C78.7268 79.6027 79.0262 80.0664 79.3734 80.4503C79.7272 80.8095 80.1132 81.098 80.5313 81.3156C80.9741 81.5398 81.4425 81.7179 81.9365 81.85ZM96.9546 76.0211C97.4563 74.1442 98.0889 72.4213 98.8524 70.8524C99.6158 69.2836 100.517 67.9898 101.557 66.9711C102.597 65.9524 103.789 65.2525 105.135 64.8713C106.512 64.472 108.052 64.5002 109.757 64.9557C111.387 65.3915 112.693 66.0979 113.675 67.075C114.658 68.0521 115.358 69.2448 115.775 70.653C116.224 72.0431 116.4 73.6117 116.303 75.3589C116.207 77.106 115.894 78.9674 115.366 80.9431C114.811 83.0177 114.128 84.8327 113.315 86.3884C112.527 87.9506 111.591 89.2221 110.509 90.2029C109.433 91.159 108.229 91.8029 106.896 92.1347C105.571 92.4418 104.117 92.3841 102.537 91.9616C100.783 91.4928 99.4097 90.7419 98.4157 89.7088C97.453 88.6575 96.7787 87.4188 96.3926 85.9925C96.0312 84.5728 95.9078 83.005 96.0225 81.2892C96.1619 79.58 96.4726 77.824 96.9546 76.0211ZM102.03 77.3779C101.673 78.7115 101.405 79.9628 101.225 81.1319C101.051 82.2763 101 83.3079 101.072 84.2268C101.175 85.1276 101.436 85.8853 101.854 86.4998C102.278 87.0896 102.898 87.4934 103.713 87.7113C104.577 87.9424 105.34 87.9083 106.003 87.609C106.671 87.285 107.263 86.7551 107.777 86.0194C108.291 85.2836 108.75 84.3609 109.152 83.2513C109.555 82.1416 109.934 80.92 110.291 79.5864C110.588 78.475 110.832 77.3628 111.024 76.2497C111.247 75.1186 111.329 74.0688 111.271 73.1005C111.212 72.1322 110.983 71.3038 110.585 70.6152C110.187 69.9266 109.544 69.4635 108.655 69.2258C107.741 68.9815 106.94 69.0584 106.251 69.4565C105.563 69.8546 104.951 70.4585 104.417 71.2684C103.89 72.0535 103.428 72.9886 103.032 74.0735C102.668 75.1404 102.333 76.2418 102.03 77.3779Z" fill="url(#paint0_linear_452_2668)"/>
</g>
<defs>
<filter id="filter0_dd_452_2668" x="0.715088" y="0.369209" width="169.266" height="145.058" filterUnits="userSpaceOnUse" color-interpolation-filters="sRGB">
<feFlood flood-opacity="0" result="BackgroundImageFix"/>
<feColorMatrix in="SourceAlpha" type="matrix" values="0 0 0 0 0 0 0 0 0 0 0 0 0 0 0 0 0 0 127 0" result="hardAlpha"/>
<feOffset/>
<feGaussianBlur stdDeviation="25.5"/>
<feComposite in2="hardAlpha" operator="out"/>
<feColorMatrix type="matrix" values="0 0 0 0 0.960784 0 0 0 0 0.678431 0 0 0 0 0.172549 0 0 0 0.72 0"/>
<feBlend mode="normal" in2="BackgroundImageFix" result="effect1_dropShadow_452_2668"/>
<feColorMatrix in="SourceAlpha" type="matrix" values="0 0 0 0 0 0 0 0 0 0 0 0 0 0 0 0 0 0 127 0" result="hardAlpha"/>
<feOffset dy="6"/>
<feGaussianBlur stdDeviation="5"/>
<feComposite in2="hardAlpha" operator="out"/>
<feColorMatrix type="matrix" values="0 0 0 0 0.113955 0 0 0 0 0.030625 0 0 0 0 0.2625 0 0 0 0.65 0"/>
<feBlend mode="normal" in2="effect1_dropShadow_452_2668" result="effect2_dropShadow_452_2668"/>
<feBlend mode="normal" in="SourceGraphic" in2="effect2_dropShadow_452_2668" result="shape"/>
</filter>
<linearGradient id="paint0_linear_452_2668" x1="92.1013" y1="50.3167" x2="80.1097" y2="95.1724" gradientUnits="userSpaceOnUse">
<stop stop-color="#FFC83A"/>
<stop offset="1" stop-color="#D75A00"/>
</linearGradient>
</defs>
</svg>
