<svg width="170" height="146" viewBox="0 0 170 146" fill="none" xmlns="http://www.w3.org/2000/svg">
<g filter="url(#filter0_dd_452_2408)">
<path d="M62.6677 74.079L56.8919 79.2033L51.8537 77.8564L60.4171 70.6195L56.9085 60.4332L62.0948 61.8196L64.2148 68.7372L69.6891 63.8499L74.6902 65.1868L66.4111 72.1028L70.3763 82.8082L65.0788 81.392L62.6677 74.079ZM94.1564 61.3806L83.4631 69.7549L83.4705 69.876C84.5344 69.6576 85.7084 69.7201 86.9927 70.0634C88.0793 70.3539 89.0514 70.8255 89.909 71.4782C90.7731 72.1061 91.4708 72.8616 92.0022 73.7445C92.5335 74.6275 92.8804 75.6067 93.0427 76.6821C93.2051 77.7575 93.1278 78.8879 92.8109 80.0734C92.5336 81.1107 92.0587 82.0951 91.3863 83.0267C90.7138 83.9583 89.8702 84.7384 88.8554 85.3668C87.8473 85.9705 86.6935 86.3765 85.3941 86.5848C84.1013 86.7685 82.6893 86.6556 81.1581 86.2463C79.7257 85.8633 78.4885 85.2944 77.4466 84.5396C76.4047 83.7847 75.5696 82.8999 74.9412 81.8851C74.3374 80.877 73.9553 79.7825 73.7946 78.6017C73.6406 77.3962 73.7352 76.1513 74.0785 74.8671C74.3426 73.8792 74.7014 72.9828 75.1547 72.1778C75.6394 71.3548 76.1882 70.5886 76.8012 69.8792C77.4389 69.1765 78.1228 68.4993 78.8527 67.8476C79.5826 67.196 80.3372 66.5509 81.1165 65.9125L88.3774 59.8357L94.1564 61.3806ZM82.1932 82.0774C83.5515 82.4405 84.7504 82.3112 85.7899 81.6894C86.836 81.0429 87.5406 80.0405 87.9037 78.6821C88.0489 78.1388 88.0921 77.5814 88.0332 77.01C87.9809 76.4138 87.8256 75.8563 87.5674 75.3374C87.3092 74.8186 86.9291 74.3597 86.4271 73.9609C85.9564 73.544 85.3506 73.2365 84.6097 73.0384C83.8935 72.8469 83.2307 72.8021 82.6213 72.9038C82.012 73.0055 81.4536 73.2135 80.9462 73.5277C80.4701 73.8238 80.0607 74.2171 79.7178 74.7076C79.3816 75.1734 79.1343 75.7027 78.9758 76.2954C78.5995 77.7031 78.6942 78.9324 79.2601 79.9834C79.8572 81.0163 80.8349 81.7143 82.1932 82.0774ZM96.9546 76.0211C97.4563 74.1442 98.0889 72.4213 98.8524 70.8524C99.6158 69.2836 100.517 67.9898 101.557 66.9711C102.597 65.9524 103.789 65.2525 105.135 64.8713C106.512 64.472 108.052 64.5002 109.757 64.9557C111.387 65.3915 112.693 66.0979 113.675 67.075C114.658 68.0521 115.358 69.2448 115.775 70.653C116.224 72.0431 116.4 73.6117 116.303 75.3589C116.207 77.106 115.894 78.9674 115.366 80.9431C114.811 83.0177 114.128 84.8327 113.315 86.3884C112.527 87.9506 111.591 89.2221 110.509 90.2029C109.433 91.159 108.229 91.8029 106.896 92.1347C105.571 92.4418 104.117 92.3841 102.537 91.9616C100.783 91.4928 99.4097 90.7419 98.4157 89.7088C97.453 88.6575 96.7787 87.4188 96.3926 85.9925C96.0312 84.5728 95.9078 83.005 96.0225 81.2892C96.1619 79.58 96.4726 77.824 96.9546 76.0211ZM102.03 77.3779C101.673 78.7115 101.405 79.9628 101.225 81.1319C101.051 82.2763 101 83.3079 101.072 84.2268C101.175 85.1276 101.436 85.8853 101.854 86.4998C102.278 87.0896 102.898 87.4934 103.713 87.7113C104.577 87.9424 105.34 87.9083 106.003 87.609C106.671 87.285 107.263 86.7551 107.777 86.0194C108.291 85.2836 108.75 84.3609 109.152 83.2513C109.555 82.1416 109.934 80.92 110.291 79.5864C110.588 78.475 110.832 77.3628 111.024 76.2497C111.247 75.1186 111.329 74.0688 111.271 73.1005C111.212 72.1322 110.983 71.3038 110.585 70.6152C110.187 69.9266 109.544 69.4635 108.655 69.2258C107.741 68.9815 106.94 69.0584 106.251 69.4565C105.563 69.8546 104.951 70.4585 104.417 71.2684C103.89 72.0535 103.428 72.9886 103.032 74.0735C102.668 75.1404 102.333 76.2418 102.03 77.3779Z" fill="url(#paint0_linear_452_2408)"/>
</g>
<defs>
<filter id="filter0_dd_452_2408" x="0.715088" y="0.369217" width="169.266" height="145.058" filterUnits="userSpaceOnUse" color-interpolation-filters="sRGB">
<feFlood flood-opacity="0" result="BackgroundImageFix"/>
<feColorMatrix in="SourceAlpha" type="matrix" values="0 0 0 0 0 0 0 0 0 0 0 0 0 0 0 0 0 0 127 0" result="hardAlpha"/>
<feOffset/>
<feGaussianBlur stdDeviation="25.5"/>
<feComposite in2="hardAlpha" operator="out"/>
<feColorMatrix type="matrix" values="0 0 0 0 0.960784 0 0 0 0 0.678431 0 0 0 0 0.172549 0 0 0 0.72 0"/>
<feBlend mode="normal" in2="BackgroundImageFix" result="effect1_dropShadow_452_2408"/>
<feColorMatrix in="SourceAlpha" type="matrix" values="0 0 0 0 0 0 0 0 0 0 0 0 0 0 0 0 0 0 127 0" result="hardAlpha"/>
<feOffset dy="6"/>
<feGaussianBlur stdDeviation="5"/>
<feComposite in2="hardAlpha" operator="out"/>
<feColorMatrix type="matrix" values="0 0 0 0 0.113955 0 0 0 0 0.030625 0 0 0 0 0.2625 0 0 0 0.65 0"/>
<feBlend mode="normal" in2="effect1_dropShadow_452_2408" result="effect2_dropShadow_452_2408"/>
<feBlend mode="normal" in="SourceGraphic" in2="effect2_dropShadow_452_2408" result="shape"/>
</filter>
<linearGradient id="paint0_linear_452_2408" x1="92.1013" y1="50.3167" x2="80.1097" y2="95.1724" gradientUnits="userSpaceOnUse">
<stop stop-color="#FFC83A"/>
<stop offset="1" stop-color="#D75A00"/>
</linearGradient>
</defs>
</svg>
