<svg width="65" height="64" fill="none" xmlns="http://www.w3.org/2000/svg"><g clip-path="url(#clip0)" fill="#fff" fill-opacity=".5"><path d="M40.864 29.723v3.835h-2.628l2.628-3.835zM32.5 34.517c0 .24 0 .24-.239.24v.24c0 .479 0 .718.24 1.198 0 .24.238.719.716.959.478.479 1.195.719 2.39.719h5.257v2.397c0 .24.24.719.478.958.24.24.478.48.717.48.239.24.478.24.956.24s.717 0 .956-.24c.239 0 .478-.24.717-.48s.478-.479.478-.958v-2.397c.239 0 .717 0 .956-.24.239 0 .477-.24.955-.24.478-.24.717-.959.717-1.678 0-.48 0-.719-.239-.959s-.478-.719-.717-.719-.477-.24-.955-.24h-.717V25.17c0-.96-.24-1.678-.717-2.158-.478-.48-1.195-.719-1.912-.719-.239 0-.478 0-.717.24-.239 0-.478.24-.717.48-.239 0-.239.239-.478.479s-.478.479-.478.719l-6.452 8.629c0 .24-.239.24-.239.24l-.239.24c0 .239-.239.239-.239.239 0 .24 0 .24-.239.24 0 .24 0 .24-.239.24v.479zm-7.647-4.554c-.239.24-.239.479-.478.719a4852.99 4852.99 0 0 0-1.434 1.438c-.239 0-.478.24-.717.719-.239.24-.717.48-1.195.959-.477.48-.955.719-1.433 1.438-.478 0-1.195.72-1.673 1.199-.24.24-.24.479-.478.479 0 .24-.239.48-.478.719 0 .48-.239.72-.239.959v.719c0 .24 0 .719.239.959 0 .24.239.48.478.719.239.24.478.48.956.48.239 0 .717.239.956.239h9.08c.24 0 .717 0 .956-.24.24-.24.478-.24.717-.48.24-.239.24-.479.478-.718 0-.24.24-.48.24-.72s0-.718-.24-.958c0-.24-.239-.48-.478-.72-.239-.239-.478-.239-.956-.479H23.42l.24-.24c.477-.479.955-.718 1.433-1.198.478-.48.956-.959 1.434-1.198.478-.48.717-.72 1.195-.96l.956-.958c.239-.24.477-.72.716-1.198l.717-1.439c.24-.48.24-.959.24-1.678v-1.198c0-.24-.24-.72-.24-.959-.239-.24-.239-.719-.478-.959s-.478-.48-.716-.959l-.717-.719c-.24-.24-.478-.479-.956-.479-.478-.24-.956-.24-1.673-.48-.478 0-1.195-.24-1.912-.24h-1.673c-.478 0-.956.24-1.433.48-.24-.24-.717 0-.956.24-.478.24-.717.48-.956.72-.24.239-.478.479-.717.958-.24.24-.478.719-.478.959s-.239.719-.239.958v.96c0 .239 0 .718.239.958s.239.48.478.72c.239.239.478.239.717.479s.478.24.956.24c.239 0 .717 0 .956-.24.239 0 .477-.24.716-.48.24-.24.24-.48.478-.719 0-.24.24-.48.24-.719 0-.24.238-.48.238-.48l.717-.719c0-.479.24-.479.478-.479h.478c.24 0 .24.24.478.24.24 0 .24.24.478.24l.239.24c0 .239 0 .239.239.479v.959c0 .24 0 .479-.239.479 0 .48 0 .719-.239.959z"/><path d="M2.15 34.277a2.145 2.145 0 0 0 2.151-2.157 27.76 27.76 0 0 1 8.126-19.656c5.018-5.033 11.948-8.15 19.595-8.15 5.735 0 10.993 1.679 15.533 4.795 2.868 1.917 5.496 4.554 7.647 7.67l-2.39-.959c-1.194-.48-2.39 0-2.867 1.199-.478 1.198 0 2.397 1.195 2.876l7.886 3.116c.478.24 1.195.24 1.672 0 .478-.24.956-.719 1.195-1.198L65 13.903c.478-1.199 0-2.397-1.195-2.877s-2.39 0-2.867 1.199l-1.195 3.356c-2.39-4.075-5.736-7.431-9.56-10.068C44.689 1.918 38.714 0 32.024 0 23.18 0 15.293 3.596 9.558 9.348 3.585 15.101 0 23.251 0 32.12c0 1.198.956 2.157 2.15 2.157zm60.46-4.315c-1.195 0-2.15.96-2.15 2.158 0 7.67-3.108 14.622-8.126 19.655-5.018 5.034-11.948 8.15-19.595 8.15-5.736 0-10.993-1.678-15.533-4.794-2.868-1.917-5.258-4.554-7.409-7.67l2.39.959c1.195.479 2.39 0 2.868-1.199.478-1.198 0-2.397-1.195-2.877l-7.886-3.116c-.478-.24-1.195-.24-1.673 0s-.956.72-1.195 1.199L.24 50.337c-.478 1.199.239 2.397 1.194 2.877 1.195.479 2.39 0 2.868-1.199l1.195-3.356c2.39 4.075 5.735 7.43 9.559 10.068 5.257 3.595 11.231 5.513 17.922 5.513 8.842 0 16.729-3.596 22.703-9.349C61.415 49.14 65 40.99 65 32.12c-.24-1.199-1.195-2.157-2.39-2.157z"/></g><defs><clipPath id="clip0"><path fill="#fff" d="M0 0h65v64H0z"/></clipPath></defs></svg>