<svg width="556" height="414" fill="none" xmlns="http://www.w3.org/2000/svg"><path d="M226.489 19.639c77.438-33.67 167.664 1.705 201.339 79.13 11.225 25.855 15.062 54.41 11.083 82.538l-75.733-10.797c5.968-41.766-23.16-80.408-64.934-86.374-14.067-1.99-28.276 0-41.348 5.54L226.489 19.64z" fill="#14ADEA"/><path d="M363.747 170.084l74.596 10.513c3.836-27.702 0-55.973-11.225-81.545-33.391-76.856-123.049-112.23-200.06-79.129l30.122 69.043c12.93-5.54 27.139-7.387 41.064-5.398 20.319 2.84 38.364 13.496 50.725 29.975 12.362 16.337 17.477 36.368 14.778 56.541zm75.306 11.791h-.284l-75.733-10.796c-.142 0-.284-.142-.426-.285-.142-.142-.142-.284-.142-.426 2.841-20.031-2.274-40.062-14.351-56.257-12.22-16.195-29.981-26.708-50.015-29.549-13.925-1.989-28.134 0-40.922 5.54-.284.142-.568 0-.71-.284l-30.549-69.895c-.142-.284 0-.568.284-.71 77.722-33.811 168.233 1.847 202.05 79.413 11.367 25.998 15.203 54.695 11.225 82.823l-.427.426z" fill="#fff"/><path d="M438.769 181.307a154.398 154.398 0 0 1-15.203 47.875l-68.203-34.663a75.066 75.066 0 0 0 7.531-24.009l75.875 10.797z" fill="#DEDFE0"/><path d="M356.215 194.235l67.066 34.095c7.389-14.632 12.362-30.401 14.777-46.597l-74.596-10.512a72.49 72.49 0 0 1-7.247 23.014zm67.635 35.516h-.427l-68.202-34.664a.305.305 0 0 1-.284-.284v-.426c3.836-7.529 6.393-15.485 7.53-23.725 0-.284.284-.568.711-.426l75.733 10.797c.142 0 .284.142.426.284.142.142.142.284.142.426-2.415 16.764-7.53 32.959-15.203 48.018-.142-.142-.284 0-.426 0z" fill="#fff"/><path d="M423.707 229.183c-38.364 75.293-130.579 105.126-205.744 66.769a156.677 156.677 0 0 1-42.91-32.39l56.125-51.853c28.701 30.97 77.011 32.816 108.129 4.262 6.678-6.109 12.077-13.354 16.198-21.452l68.202 34.664z" fill="#CFE3F2"/><path d="M175.763 263.704c12.22 13.07 26.429 23.725 42.342 31.822 74.739 38.073 166.386 8.382 204.75-66.059l-67.066-34.096c-4.121 7.956-9.52 15.059-16.056 21.026-6.536 5.967-13.783 10.655-21.455 14.064-29.128 12.644-64.224 6.393-86.958-17.9l-55.557 51.143zm172.922 36.652c-40.638 17.616-88.663 17.758-131.006-3.835a153.016 153.016 0 0 1-43.052-32.533c-.143-.142-.143-.284-.143-.426 0-.142 0-.284.143-.426l56.124-51.853c.285-.285.569-.142.853 0 28.417 30.685 76.585 32.532 107.276 4.119 6.536-6.108 12.078-13.211 16.056-21.309.142-.284.427-.426.711-.284l68.202 34.663c.142 0 .284.142.284.284v.427c-16.766 33.242-43.905 57.535-75.448 71.173z" fill="#fff"/><path d="M175.054 263.704c-31.118-33.669-45.469-79.414-39.075-124.874l75.733 10.513c-3.126 22.73 3.979 45.602 19.608 62.366l-56.266 51.995z" fill="#41BAAA"/><path d="M136.405 139.398c-6.11 45.035 7.957 89.927 38.648 123.454l55.414-51.143c-15.345-16.764-22.45-39.352-19.466-61.94l-74.596-10.371zm38.79 124.732c-.285.142-.427 0-.711-.142-31.401-33.953-45.61-79.555-39.216-125.3 0-.284.284-.568.71-.426l75.733 10.513c.142 0 .285.142.427.284.142.142.142.284.142.426-3.126 22.588 3.978 45.176 19.466 61.94.142.142.142.284.142.426 0 .142 0 .284-.142.426l-56.125 51.853h-.426z" fill="#fff"/><path d="M135.836 138.83c5.683-40.772 27.565-77.424 60.672-101.86l45.326 61.514a76.198 76.198 0 0 0-30.407 51.001l-75.591-10.655z" fill="#3BB0D5"/><path d="M136.547 138.262l74.597 10.371c2.983-20.031 13.924-38.358 29.98-50.433l-44.758-60.519c-32.254 24.15-54.135 60.661-59.819 100.581zm75.307 11.649h-.284l-75.733-10.513c-.142 0-.284-.142-.426-.284-.142-.142-.142-.284-.142-.426 5.683-40.63 27.849-77.85 60.955-102.285.285-.142.569-.142.853.142l45.326 61.513c.142.142.142.284.142.426 0 .142-.142.284-.284.426-16.34 12.076-27.281 30.544-30.123 50.575 0 .142-.142.284-.284.426z" fill="#fff"/><path d="M196.508 36.97c9.236-6.818 19.324-12.643 29.838-17.189l30.407 70.037c-5.257 2.273-10.23 5.115-14.919 8.666l-45.326-61.513z" fill="#EDD3DD"/><path d="M197.361 36.97l44.758 60.52c4.405-3.126 9.094-5.967 14.067-8.098L226.205 20.35c-10.23 4.546-19.892 10.087-28.844 16.622zm44.9 61.94c-.284.142-.568 0-.71-.142l-45.469-61.513c-.142-.142-.142-.284-.142-.426 0-.142.142-.285.285-.427 9.235-6.819 19.324-12.643 29.98-17.331h.426c.143 0 .285.142.285.284l30.406 70.037c.143.284.001.568-.284.71-5.115 2.415-10.088 5.399-14.777 8.808z" fill="#fff"/><path d="M50.742 8.345c0 .975-.164 1.827-.492 2.556-.328.725-.793 1.279-1.395 1.662-.601.382-1.303.574-2.105.574-.784 0-1.479-.192-2.085-.575-.606-.387-1.078-.936-1.415-1.647-.333-.715-.504-1.543-.513-2.481v-.718c0-.957.167-1.803.5-2.536.332-.734.801-1.295 1.407-1.682.611-.392 1.309-.588 2.092-.588.798 0 1.5.194 2.106.581.61.383 1.08.941 1.408 1.675.328.73.492 1.58.492 2.55v.629zm-1.305-.643c0-1.18-.237-2.085-.711-2.714-.474-.633-1.137-.95-1.99-.95-.83 0-1.483.317-1.962.95-.474.63-.717 1.504-.731 2.625v.732c0 1.144.24 2.044.718 2.7.483.652 1.146.978 1.989.978.848 0 1.504-.308 1.969-.923.465-.62.704-1.507.718-2.66v-.738zm4.791-3.89v1.792h1.381v.977h-1.38v4.587c0 .296.061.52.184.67.123.146.333.219.629.219.146 0 .346-.028.602-.082V13a3.669 3.669 0 0 1-.971.137c-.565 0-.991-.171-1.279-.513-.287-.342-.43-.827-.43-1.456V6.581h-1.347v-.977h1.347V3.812h1.264zm4.13 2.687c.56-.688 1.29-1.032 2.187-1.032 1.563 0 2.352.882 2.365 2.645V13h-1.264V8.105c-.005-.533-.128-.927-.37-1.182-.237-.255-.608-.383-1.114-.383-.41 0-.77.11-1.08.328a2.24 2.24 0 0 0-.725.861V13h-1.264V2.5h1.264v3.999zm9.515 6.638c-1.003 0-1.818-.328-2.447-.985-.63-.66-.944-1.542-.944-2.645v-.233c0-.733.14-1.387.417-1.961a3.284 3.284 0 0 1 1.176-1.354 2.958 2.958 0 0 1 1.64-.492c.962 0 1.71.317 2.243.95.533.633.8 1.54.8 2.72v.527h-5.01c.017.73.23 1.32.635 1.77.41.447.93.67 1.558.67.447 0 .825-.09 1.135-.273a2.85 2.85 0 0 0 .814-.725l.772.602c-.62.953-1.55 1.429-2.789 1.429zm-.157-6.631c-.51 0-.939.187-1.285.56-.347.37-.56.89-.643 1.559h3.705v-.096c-.036-.642-.21-1.139-.52-1.49-.31-.355-.728-.533-1.257-.533zm8.087.232a3.789 3.789 0 0 0-.622-.048c-.83 0-1.393.354-1.689 1.06V13h-1.264V5.604h1.23l.02.854c.415-.66 1.003-.991 1.764-.991.246 0 .433.032.56.096v1.175zM90.309 13h-6.522v-.91l3.445-3.827c.51-.58.862-1.048 1.053-1.409a2.35 2.35 0 0 0 .294-1.127c0-.52-.157-.946-.472-1.279-.314-.332-.733-.499-1.257-.499-.63 0-1.12.18-1.47.54-.346.356-.52.852-.52 1.49h-1.264c0-.916.294-1.656.882-2.221.592-.565 1.383-.848 2.372-.848.925 0 1.656.244 2.194.732.538.483.807 1.128.807 1.934 0 .98-.625 2.147-1.873 3.5l-2.666 2.892h4.997V13zm7.58-4.245c0 1.481-.252 2.582-.758 3.302-.506.72-1.297 1.08-2.372 1.08-1.062 0-1.848-.351-2.359-1.053-.51-.706-.774-1.76-.793-3.158V7.237c0-1.463.253-2.55.76-3.26.505-.711 1.298-1.067 2.378-1.067 1.071 0 1.86.344 2.365 1.032.506.684.766 1.741.78 3.172v1.64zm-1.264-1.73c0-1.07-.15-1.85-.451-2.338-.301-.492-.777-.738-1.429-.738-.647 0-1.119.244-1.415.732-.296.487-.449 1.237-.458 2.249v2.023c0 1.076.155 1.87.465 2.386.314.51.788.765 1.422.765.624 0 1.087-.241 1.388-.724.305-.483.464-1.244.478-2.283V7.025zm7.731 1.6a3.078 3.078 0 0 1-.95.759 2.545 2.545 0 0 1-1.203.287c-.574 0-1.075-.141-1.504-.424-.424-.282-.752-.679-.984-1.19a4.09 4.09 0 0 1-.349-1.702c0-.665.126-1.264.376-1.797a2.805 2.805 0 0 1 1.08-1.224c.465-.283 1.007-.424 1.627-.424.985 0 1.759.37 2.324 1.108.57.733.855 1.736.855 3.007v.37c0 1.936-.383 3.351-1.149 4.245-.765.888-1.92 1.344-3.465 1.367h-.246V11.94h.266c1.044-.018 1.846-.289 2.406-.813.561-.529.866-1.363.916-2.502zm-1.948 0c.424 0 .814-.13 1.169-.39.36-.26.622-.58.786-.964v-.505c0-.83-.18-1.504-.54-2.024-.36-.52-.816-.78-1.367-.78-.556 0-1.003.215-1.34.643-.337.424-.506.985-.506 1.682 0 .68.162 1.24.486 1.682.328.437.765.656 1.312.656zm5.052 6.357l-.718-.492c.429-.597.652-1.212.67-1.845v-1.142h1.237v.991c0 .46-.114.92-.341 1.381-.224.46-.506.83-.848 1.107zM116.641 13h-6.522v-.91l3.445-3.827c.511-.58.862-1.048 1.053-1.409a2.35 2.35 0 0 0 .294-1.127c0-.52-.157-.946-.472-1.279-.314-.332-.733-.499-1.257-.499-.629 0-1.119.18-1.47.54-.346.356-.52.852-.52 1.49h-1.264c0-.916.294-1.656.882-2.221.592-.565 1.383-.848 2.372-.848.925 0 1.656.244 2.194.732.538.483.807 1.128.807 1.934 0 .98-.625 2.147-1.873 3.5l-2.666 2.892h4.997V13zm3.534-3.425l-.793.827V13h-1.265V2.5h1.265v6.35l.677-.813 2.303-2.433h1.538l-2.878 3.09L124.235 13h-1.483l-2.577-3.425zm-74.79 23.837h1.353c.645 0 1.122-.16 1.433-.483.31-.322.466-.75.466-1.283 0-.516-.156-.917-.466-1.204-.305-.288-.727-.431-1.266-.431-.486 0-.893.135-1.221.404-.328.264-.493.61-.493 1.037h-2.54c0-.668.18-1.265.536-1.793.364-.533.868-.949 1.512-1.248a5.074 5.074 0 0 1 2.145-.448c1.353 0 2.414.325 3.181.976.768.644 1.152 1.535 1.152 2.672 0 .585-.179 1.125-.536 1.617-.358.492-.826.87-1.407 1.134.721.257 1.257.644 1.609 1.16.357.515.536 1.125.536 1.828 0 1.137-.416 2.048-1.248 2.733-.826.686-1.922 1.029-3.287 1.029-1.278 0-2.324-.337-3.138-1.011-.809-.674-1.213-1.565-1.213-2.672h2.54c0 .48.179.873.536 1.178.364.304.809.457 1.336.457.604 0 1.075-.158 1.415-.475.346-.322.519-.747.519-1.274 0-1.278-.703-1.916-2.11-1.916h-1.344v-1.987zm7.717-2.812c0-.785.254-1.421.764-1.907.51-.493 1.178-.739 2.004-.739.838 0 1.512.244 2.022.73.51.48.764 1.134.764 1.96v.633c0 .79-.255 1.426-.764 1.907-.51.48-1.178.72-2.004.72-.832 0-1.506-.24-2.022-.72-.51-.486-.764-1.14-.764-1.96V30.6zm1.687.677c0 .351.1.635.299.852.205.211.472.317.8.317.328 0 .589-.109.782-.326.193-.216.29-.506.29-.87v-.65c0-.352-.097-.636-.29-.853-.193-.216-.46-.325-.8-.325-.322 0-.583.108-.782.325-.2.211-.299.507-.299.888v.642zm4.43 6.521c0-.79.258-1.427.773-1.907.516-.486 1.184-.73 2.004-.73.832 0 1.503.24 2.013.721.515.475.773 1.13.773 1.969v.633c0 .785-.252 1.42-.756 1.907-.503.48-1.174.72-2.012.72-.844 0-1.52-.243-2.03-.729-.51-.486-.765-1.13-.765-1.933v-.65zm1.687.686c0 .322.106.597.317.826.21.228.474.343.79.343.715 0 1.073-.396 1.073-1.187v-.668c0-.352-.1-.633-.299-.844-.2-.217-.463-.325-.79-.325-.329 0-.593.108-.792.325-.2.211-.299.501-.299.87v.66zm-4.517 1.494l-1.24-.668 6.25-10.002 1.239.668-6.25 10.002zm362.549-29.576h-4.169L413.832 13h-1.353l3.8-9.953h1.149L421.235 13h-1.346l-.951-2.598zm-3.773-1.08h3.384l-1.695-4.655-1.689 4.655zm6.911-.082c0-1.153.267-2.069.8-2.748.533-.683 1.24-1.025 2.119-1.025.902 0 1.607.319 2.112.957l.062-.82h1.155v7.218c0 .957-.285 1.712-.854 2.263-.565.551-1.326.827-2.283.827a3.805 3.805 0 0 1-1.566-.342c-.51-.228-.9-.54-1.169-.936l.656-.759c.543.67 1.206 1.005 1.99 1.005.615 0 1.093-.173 1.435-.52.347-.346.52-.834.52-1.462v-.636c-.506.583-1.197.875-2.072.875-.865 0-1.567-.349-2.105-1.046-.533-.697-.8-1.648-.8-2.85zm1.272.144c0 .834.171 1.49.512 1.968.342.474.821.711 1.436.711.797 0 1.383-.362 1.757-1.086V7.6c-.388-.707-.969-1.06-1.743-1.06-.616 0-1.096.24-1.443.718-.346.478-.519 1.187-.519 2.126zm10.465-2.646a3.78 3.78 0 0 0-.622-.048c-.829 0-1.392.354-1.688 1.06V13h-1.265V5.604h1.231l.02.854c.415-.66 1.003-.991 1.764-.991.246 0 .433.032.56.096v1.175zM436.356 13h-1.264V5.604h1.264V13zm-1.367-9.358c0-.205.062-.379.185-.52.127-.141.314-.212.56-.212.246 0 .433.07.561.212a.745.745 0 0 1 .191.52.72.72 0 0 1-.191.512c-.128.137-.315.205-.561.205-.246 0-.433-.068-.56-.205a.738.738 0 0 1-.185-.512zm9.646 5.742c0 1.125-.258 2.032-.773 2.72-.515.689-1.212 1.033-2.091 1.033-.898 0-1.605-.285-2.12-.855v3.562h-1.264V5.604h1.155l.062.82c.514-.638 1.23-.957 2.146-.957.889 0 1.59.335 2.105 1.005.52.67.78 1.602.78 2.796v.116zm-1.265-.144c0-.834-.178-1.492-.533-1.975-.356-.483-.843-.725-1.463-.725-.766 0-1.34.34-1.723 1.019v3.534c.379.674.957 1.011 1.737 1.011.606 0 1.087-.239 1.442-.717.36-.483.54-1.199.54-2.147zm6.453-2.502a3.788 3.788 0 0 0-.622-.048c-.829 0-1.392.354-1.688 1.06V13h-1.265V5.604h1.231l.02.854c.415-.66 1.003-.991 1.764-.991.246 0 .433.032.56.096v1.175zm.698 2.495c0-.724.141-1.376.423-1.955a3.217 3.217 0 0 1 1.19-1.34c.51-.314 1.091-.471 1.743-.471 1.007 0 1.821.348 2.44 1.046.625.697.937 1.624.937 2.782v.089c0 .72-.139 1.367-.417 1.941a3.119 3.119 0 0 1-1.183 1.333c-.51.32-1.098.479-1.763.479-1.003 0-1.816-.349-2.441-1.046-.62-.697-.929-1.62-.929-2.769v-.089zm1.271.15c0 .821.189 1.48.567 1.976.383.497.894.745 1.532.745.642 0 1.153-.25 1.531-.752.378-.505.567-1.212.567-2.119 0-.81-.193-1.467-.581-1.968a1.825 1.825 0 0 0-1.531-.76c-.624 0-1.128.25-1.511.746-.383.497-.574 1.208-.574 2.133zm6.74-.143c0-1.135.269-2.046.807-2.734.538-.693 1.242-1.04 2.112-1.04.866 0 1.552.297 2.058.89V2.5h1.264V13h-1.162l-.061-.793c-.506.62-1.21.93-2.112.93-.857 0-1.557-.351-2.099-1.053-.538-.702-.807-1.618-.807-2.748V9.24zm1.265.144c0 .838.173 1.495.519 1.968.347.474.825.711 1.436.711.802 0 1.388-.36 1.757-1.08V7.586c-.378-.697-.96-1.046-1.743-1.046-.62 0-1.103.24-1.45.718-.346.478-.519 1.187-.519 2.126zm11.512 2.885c-.493.578-1.215.868-2.167.868-.789 0-1.39-.228-1.805-.684-.41-.46-.618-1.14-.622-2.037V5.604h1.264v4.778c0 1.12.456 1.681 1.368 1.681.966 0 1.608-.36 1.927-1.08v-5.38h1.265V13h-1.203l-.027-.731zm6.125-.165a1.82 1.82 0 0 0 1.182-.41c.337-.273.524-.615.561-1.025h1.196a2.302 2.302 0 0 1-.437 1.21 2.872 2.872 0 0 1-1.081.916 3.08 3.08 0 0 1-1.421.342c-1.008 0-1.81-.335-2.407-1.005-.592-.675-.888-1.595-.888-2.762v-.212c0-.72.132-1.36.396-1.92a3.026 3.026 0 0 1 1.135-1.306c.497-.31 1.082-.465 1.757-.465.829 0 1.517.248 2.064.745.552.497.846 1.142.882 1.934h-1.196c-.037-.478-.219-.87-.547-1.175-.324-.31-.725-.465-1.203-.465-.643 0-1.142.232-1.497.697-.351.46-.527 1.128-.527 2.003v.24c0 .851.176 1.508.527 1.968.351.46.852.69 1.504.69zm6.077-8.291v1.79h1.381v.978h-1.381v4.587c0 .296.061.52.184.67.123.146.333.219.629.219.146 0 .347-.028.602-.082V13a3.669 3.669 0 0 1-.971.137c-.565 0-.991-.171-1.278-.513-.287-.342-.431-.827-.431-1.456V6.581h-1.347v-.977h1.347V3.812h1.265zm7.171 7.225c0-.342-.13-.606-.39-.793-.255-.191-.704-.355-1.347-.492-.638-.137-1.146-.3-1.524-.492-.374-.192-.652-.42-.834-.684a1.649 1.649 0 0 1-.267-.943c0-.606.256-1.119.766-1.538.515-.42 1.171-.63 1.969-.63.838 0 1.517.217 2.037.65.524.433.786.987.786 1.661h-1.272c0-.346-.148-.645-.444-.895-.292-.25-.661-.376-1.107-.376-.461 0-.821.1-1.08.3a.948.948 0 0 0-.39.787c0 .305.121.535.362.69.242.155.677.303 1.306.445.633.14 1.146.31 1.538.505.392.196.681.433.868.711.192.274.287.609.287 1.005 0 .661-.264 1.192-.793 1.593-.528.396-1.214.595-2.057.595-.593 0-1.117-.105-1.573-.315a2.598 2.598 0 0 1-1.073-.875 2.148 2.148 0 0 1-.383-1.223h1.265c.023.424.191.76.506 1.011.319.246.738.37 1.258.37.478 0 .861-.096 1.148-.288.292-.196.438-.455.438-.779zM501.093 13h-1.272V4.571l-2.55.937V4.359L500.895 3h.198v10zm3.794 1.982l-.718-.492c.428-.597.652-1.212.67-1.845v-1.142h1.237v.991c0 .46-.114.92-.342 1.381a3.19 3.19 0 0 1-.847 1.107zm7.506-6.357a3.082 3.082 0 0 1-.951.759 2.545 2.545 0 0 1-1.203.287c-.574 0-1.075-.141-1.504-.424a2.77 2.77 0 0 1-.984-1.19 4.097 4.097 0 0 1-.349-1.702c0-.665.126-1.264.376-1.797a2.817 2.817 0 0 1 1.08-1.224c.465-.283 1.008-.424 1.627-.424.985 0 1.759.37 2.325 1.108.569.733.854 1.736.854 3.007v.37c0 1.936-.383 3.351-1.148 4.245-.766.888-1.921 1.344-3.466 1.367h-.246V11.94h.266c1.044-.018 1.846-.289 2.407-.813.56-.529.865-1.363.916-2.502zm-1.949 0c.424 0 .814-.13 1.169-.39.36-.26.622-.58.786-.964v-.505c0-.83-.18-1.504-.54-2.024-.36-.52-.815-.78-1.367-.78-.556 0-1.002.215-1.34.643-.337.424-.506.985-.506 1.682 0 .68.162 1.24.486 1.682.328.437.765.656 1.312.656zm11.389-4.867L517.711 13h-1.326l4.108-8.914h-5.387v-1.04h6.727v.712zm6.228 1.846l.034.82c.542-.638 1.273-.957 2.194-.957 1.035 0 1.739.396 2.112 1.19a2.81 2.81 0 0 1 .957-.862c.397-.219.864-.328 1.402-.328 1.622 0 2.447.859 2.474 2.577V13h-1.264V8.12c0-.53-.121-.924-.363-1.183-.241-.265-.647-.397-1.216-.397-.47 0-.859.141-1.169.424-.31.278-.49.654-.54 1.128V13h-1.272V8.153c0-1.075-.526-1.613-1.579-1.613-.829 0-1.397.353-1.702 1.06V13h-1.265V5.604h1.197zM540.522 13h-1.264V5.604h1.264V13zm-1.367-9.358c0-.205.062-.379.185-.52.127-.141.314-.212.56-.212.246 0 .433.07.561.212a.745.745 0 0 1 .191.52.72.72 0 0 1-.191.512c-.128.137-.315.205-.561.205-.246 0-.433-.068-.56-.205a.738.738 0 0 1-.185-.512zM543.927 13h-1.265V2.5h1.265V13zm-23.566 20.412h1.354c.644 0 1.122-.16 1.432-.483.311-.322.466-.75.466-1.283 0-.516-.155-.917-.466-1.204-.304-.288-.726-.431-1.265-.431-.486 0-.894.135-1.222.404-.328.264-.492.61-.492 1.037h-2.54c0-.668.179-1.265.536-1.793.363-.533.867-.949 1.512-1.248a5.071 5.071 0 0 1 2.144-.448c1.354 0 2.414.325 3.182.976.768.644 1.151 1.535 1.151 2.672a2.69 2.69 0 0 1-.536 1.617 3.48 3.48 0 0 1-1.406 1.134c.721.257 1.257.644 1.608 1.16.358.515.536 1.125.536 1.828 0 1.137-.416 2.048-1.248 2.733-.826.686-1.921 1.029-3.287 1.029-1.277 0-2.323-.337-3.137-1.011-.809-.674-1.213-1.565-1.213-2.672h2.54c0 .48.178.873.536 1.178.363.304.808.457 1.336.457.603 0 1.075-.158 1.415-.475.346-.322.518-.747.518-1.274 0-1.278-.703-1.916-2.109-1.916h-1.345v-1.987zm15.267 2.707h1.45v2.048h-1.45v2.769h-2.54v-2.769h-5.247l-.114-1.6 5.335-8.428h2.566v7.98zm-5.37 0h2.83v-4.517l-.167.29-2.663 4.227zm8.156-5.52c0-.784.255-1.42.765-1.906.509-.493 1.177-.739 2.004-.739.838 0 1.511.244 2.021.73.51.48.765 1.134.765 1.96v.633c0 .79-.255 1.426-.765 1.907-.51.48-1.178.72-2.004.72-.832 0-1.506-.24-2.021-.72-.51-.486-.765-1.14-.765-1.96V30.6zm1.688.678c0 .351.099.635.298.852.205.211.472.317.8.317.328 0 .589-.109.782-.326.194-.216.29-.506.29-.87v-.65c0-.352-.096-.636-.29-.853-.193-.216-.46-.325-.799-.325-.323 0-.583.108-.783.325-.199.211-.298.507-.298.888v.642zm4.429 6.521c0-.79.258-1.427.774-1.907.515-.486 1.183-.73 2.004-.73.832 0 1.503.24 2.012.721.516.475.774 1.13.774 1.969v.633c0 .785-.252 1.42-.756 1.907-.504.48-1.175.72-2.013.72-.844 0-1.52-.243-2.03-.729-.51-.486-.765-1.13-.765-1.933v-.65zm1.688.686c0 .322.105.597.316.826.211.228.475.343.791.343.715 0 1.072-.396 1.072-1.187v-.668c0-.352-.099-.633-.298-.844-.2-.217-.463-.325-.791-.325-.329 0-.592.108-.791.325-.2.211-.299.501-.299.87v.66zm-4.518 1.494l-1.239-.668 6.249-10.002 1.239.668-6.249 10.002zM326.943 373.74h-4.176v4.396h-1.313v-9.953h6.166v1.08h-4.853v3.404h4.176v1.073zm4.97 4.532c-1.002 0-1.818-.328-2.447-.984-.629-.661-.943-1.543-.943-2.645v-.233c0-.734.139-1.388.417-1.962a3.274 3.274 0 0 1 1.175-1.353 2.96 2.96 0 0 1 1.641-.492c.962 0 1.709.316 2.242.95.533.633.8 1.54.8 2.72v.527h-5.011c.018.729.23 1.319.636 1.77.41.447.93.67 1.559.67.446 0 .824-.091 1.134-.273.31-.182.581-.424.814-.725l.772.602c-.62.952-1.549 1.428-2.789 1.428zm-.157-6.63c-.51 0-.939.186-1.285.56-.347.369-.561.889-.643 1.559h3.705v-.096c-.036-.643-.209-1.139-.519-1.49-.31-.356-.729-.533-1.258-.533zm8.087.232a3.785 3.785 0 0 0-.622-.048c-.83 0-1.392.353-1.689 1.06v5.25h-1.264v-7.397h1.23l.021.855c.414-.661 1.002-.991 1.763-.991.246 0 .433.031.561.095v1.176zm3.226-2.926v1.791h1.381v.978h-1.381v4.587c0 .296.062.519.185.67.123.145.333.218.629.218.146 0 .346-.027.601-.082v1.026a3.664 3.664 0 0 1-.97.136c-.565 0-.991-.17-1.279-.512-.287-.342-.43-.827-.43-1.456v-4.587h-1.347v-.978h1.347v-1.791h1.264zm4.239 9.188h-1.265v-7.397h1.265v7.397zm-1.367-9.359c0-.205.061-.378.184-.519.128-.141.315-.212.561-.212.246 0 .433.071.56.212a.744.744 0 0 1 .192.519.722.722 0 0 1-.192.513c-.127.137-.314.205-.56.205-.246 0-.433-.068-.561-.205a.739.739 0 0 1-.184-.513zm4.771 9.359h-1.265v-10.5h1.265v10.5zm3.404 0h-1.264v-7.397h1.264v7.397zm-1.367-9.359c0-.205.062-.378.185-.519.127-.141.314-.212.56-.212.246 0 .433.071.561.212a.748.748 0 0 1 .191.519.726.726 0 0 1-.191.513c-.128.137-.315.205-.561.205-.246 0-.433-.068-.56-.205a.74.74 0 0 1-.185-.513zm4.587 8.327h4.327v1.032h-5.872v-.93l4.081-5.421h-4.019v-1.046h5.605v.896l-4.122 5.469zm8.716 1.168c-1.003 0-1.818-.328-2.447-.984-.629-.661-.944-1.543-.944-2.645v-.233c0-.734.139-1.388.417-1.962a3.283 3.283 0 0 1 1.176-1.353 2.96 2.96 0 0 1 1.641-.492c.961 0 1.709.316 2.242.95.533.633.8 1.54.8 2.72v.527h-5.011c.018.729.23 1.319.636 1.77.41.447.929.67 1.558.67.447 0 .825-.091 1.135-.273.31-.182.581-.424.813-.725l.773.602c-.62.952-1.55 1.428-2.789 1.428zm-.157-6.63c-.511 0-.939.186-1.286.56-.346.369-.56.889-.642 1.559h3.705v-.096c-.036-.643-.21-1.139-.52-1.49-.309-.356-.729-.533-1.257-.533zm8.087.232a3.789 3.789 0 0 0-.623-.048c-.829 0-1.392.353-1.688 1.06v5.25h-1.265v-7.397h1.231l.02.855c.415-.661 1.003-.991 1.764-.991.246 0 .433.031.561.095v1.176zm5.475 4.3c0-.342-.13-.606-.389-.793-.256-.192-.705-.356-1.347-.492-.638-.137-1.146-.301-1.525-.493-.373-.191-.651-.419-.834-.683a1.655 1.655 0 0 1-.266-.943c0-.607.255-1.119.765-1.539.515-.419 1.172-.628 1.969-.628.839 0 1.518.216 2.037.649.524.433.786.987.786 1.661h-1.271c0-.346-.148-.645-.444-.895-.292-.251-.661-.376-1.108-.376-.46 0-.82.1-1.08.3a.948.948 0 0 0-.39.787c0 .305.121.535.363.69.241.155.677.303 1.305.444.634.142 1.147.31 1.539.506.391.196.681.433.868.711.191.274.287.608.287 1.005 0 .661-.265 1.192-.793 1.593-.529.396-1.215.594-2.058.594-.592 0-1.116-.104-1.572-.314a2.585 2.585 0 0 1-1.073-.875 2.14 2.14 0 0 1-.383-1.224h1.265c.022.424.191.761.505 1.012.319.246.739.369 1.258.369.479 0 .862-.095 1.149-.287.291-.196.437-.456.437-.779zm13.884 1.962h-1.272v-8.429l-2.549.937v-1.149l3.623-1.36h.198v10.001zm3.794 1.982l-.718-.492c.428-.597.652-1.212.67-1.846v-1.141h1.237v.991c0 .46-.114.92-.341 1.381-.224.46-.506.829-.848 1.107zm9.085-11.224l-4.122 9.242h-1.326l4.108-8.914h-5.387v-1.039h6.727v.711zm7.472 1.886c0 .497-.133.939-.397 1.326-.26.388-.613.691-1.06.91.52.223.93.549 1.231.977.305.429.458.914.458 1.456 0 .862-.292 1.547-.875 2.058-.579.51-1.342.765-2.29.765-.957 0-1.725-.255-2.304-.765-.574-.515-.861-1.201-.861-2.058 0-.538.146-1.023.437-1.456a2.766 2.766 0 0 1 1.224-.984 2.612 2.612 0 0 1-1.046-.909 2.35 2.35 0 0 1-.383-1.32c0-.838.269-1.504.807-1.996s1.246-.738 2.126-.738c.875 0 1.581.246 2.119.738.542.492.814 1.158.814 1.996zm-1.033 4.642c0-.556-.177-1.01-.533-1.36-.351-.351-.811-.527-1.381-.527-.569 0-1.027.173-1.374.52-.342.346-.512.802-.512 1.367s.166 1.009.499 1.333c.337.323.804.485 1.401.485.592 0 1.057-.162 1.394-.485.338-.328.506-.773.506-1.333zm-1.9-6.337c-.497 0-.9.155-1.21.465-.305.305-.458.722-.458 1.251 0 .506.15.916.451 1.23.305.31.711.465 1.217.465.506 0 .909-.155 1.21-.465.305-.314.458-.724.458-1.23s-.157-.919-.472-1.238c-.314-.319-.713-.478-1.196-.478zm6.077 1.654l.034.821c.543-.638 1.274-.957 2.195-.957 1.034 0 1.738.396 2.112 1.189.246-.355.565-.643.957-.861.396-.219.864-.328 1.401-.328 1.623 0 2.448.859 2.475 2.577v4.956h-1.265v-4.881c0-.529-.121-.923-.362-1.183-.242-.264-.647-.396-1.217-.396-.469 0-.859.141-1.169.424-.31.278-.49.654-.54 1.128v4.908h-1.271v-4.847c0-1.075-.527-1.613-1.579-1.613-.83 0-1.397.353-1.703 1.059v5.401h-1.264v-7.397h1.196zm12.462 7.397h-1.265v-7.397h1.265v7.397zm-1.367-9.359c0-.205.061-.378.184-.519.128-.141.315-.212.561-.212.246 0 .433.071.56.212a.744.744 0 0 1 .192.519.722.722 0 0 1-.192.513c-.127.137-.314.205-.56.205-.246 0-.433-.068-.561-.205a.739.739 0 0 1-.184-.513zm4.771 9.359h-1.264v-10.5h1.264v10.5zm-20.466 20.413h1.354c.644 0 1.122-.161 1.432-.484.311-.322.466-.75.466-1.283 0-.516-.155-.917-.466-1.204-.304-.287-.726-.431-1.265-.431-.486 0-.894.135-1.222.405a1.265 1.265 0 0 0-.492 1.037h-2.54c0-.668.179-1.266.536-1.793.363-.533.867-.949 1.512-1.248a5.07 5.07 0 0 1 2.144-.449c1.354 0 2.414.326 3.182.976.768.645 1.151 1.535 1.151 2.672 0 .586-.178 1.125-.536 1.617-.357.492-.826.87-1.406 1.134.721.258 1.257.644 1.608 1.16.358.516.536 1.125.536 1.828 0 1.137-.416 2.048-1.248 2.734-.826.685-1.921 1.028-3.287 1.028-1.277 0-2.323-.337-3.137-1.011-.809-.674-1.213-1.564-1.213-2.672h2.54c0 .481.178.873.536 1.178.363.305.808.457 1.336.457.603 0 1.075-.158 1.415-.475.346-.322.518-.747.518-1.274 0-1.277-.703-1.916-2.109-1.916h-1.345v-1.986zm13.922 7.523h-2.54v-9.791l-3.032.941v-2.066l5.3-1.898h.272v12.814zm4.131-10.336c0-.785.255-1.421.765-1.907.509-.492 1.177-.738 2.004-.738.838 0 1.511.243 2.021.729.51.481.765 1.134.765 1.96v.633c0 .791-.255 1.427-.765 1.907-.51.481-1.178.721-2.004.721-.832 0-1.506-.24-2.021-.721-.51-.486-.765-1.139-.765-1.96v-.624zm1.688.677c0 .352.099.636.298.853.205.21.472.316.8.316.328 0 .589-.108.782-.325.194-.217.29-.507.29-.87v-.651c0-.351-.096-.636-.29-.852-.193-.217-.46-.326-.799-.326-.323 0-.583.109-.783.326-.199.211-.298.507-.298.887v.642zm4.429 6.521c0-.791.258-1.426.774-1.907.515-.486 1.183-.729 2.004-.729.832 0 1.503.24 2.012.72.516.475.774 1.131.774 1.969v.633c0 .785-.252 1.421-.756 1.907-.504.481-1.175.721-2.013.721-.844 0-1.52-.243-2.03-.73-.51-.486-.765-1.13-.765-1.933v-.651zm1.688.686c0 .322.105.598.316.826.211.229.475.343.791.343.715 0 1.072-.396 1.072-1.187v-.668c0-.351-.099-.632-.298-.843-.2-.217-.463-.325-.791-.325-.329 0-.592.108-.791.325-.2.211-.299.501-.299.87v.659zm-4.518 1.494l-1.239-.668 6.249-10.002 1.239.668-6.249 10.002zM8.832 118.343c0 .976-.164 1.828-.492 2.557-.328.725-.793 1.278-1.395 1.661-.601.383-1.303.574-2.105.574-.784 0-1.479-.191-2.085-.574-.606-.387-1.078-.936-1.415-1.647-.333-.716-.504-1.543-.513-2.482v-.718c0-.957.166-1.802.5-2.536.332-.733.801-1.294 1.407-1.681.611-.392 1.308-.588 2.092-.588.798 0 1.5.193 2.106.581.61.383 1.08.941 1.408 1.675.328.729.492 1.579.492 2.549v.629zm-1.306-.642c0-1.181-.237-2.085-.71-2.714-.475-.634-1.138-.95-1.99-.95-.83 0-1.483.316-1.962.95-.474.629-.718 1.504-.731 2.625v.731c0 1.144.24 2.044.718 2.701.483.651 1.146.977 1.989.977.848 0 1.504-.307 1.969-.923.464-.62.704-1.506.717-2.659v-.738zm6.652-.964a3.777 3.777 0 0 0-.622-.048c-.83 0-1.393.353-1.689 1.06v5.25h-1.265v-7.397h1.231l.02.855c.415-.661 1.003-.992 1.764-.992.246 0 .433.032.56.096v1.176zm4.101 6.398c-1.002 0-1.818-.328-2.447-.984-.629-.661-.943-1.543-.943-2.646v-.232c0-.734.139-1.388.417-1.962a3.277 3.277 0 0 1 1.175-1.353 2.96 2.96 0 0 1 1.641-.493c.962 0 1.71.317 2.242.951.534.633.8 1.54.8 2.72v.527h-5.01c.018.729.23 1.319.635 1.77.41.447.93.67 1.559.67.446 0 .825-.091 1.134-.273a2.86 2.86 0 0 0 .814-.725l.772.602c-.62.952-1.55 1.428-2.789 1.428zm-.157-6.63c-.51 0-.939.186-1.285.56-.346.369-.56.889-.643 1.559H19.9v-.096c-.036-.643-.21-1.139-.52-1.49-.309-.356-.728-.533-1.257-.533zm18.911-2.749l-4.122 9.243h-1.326l4.108-8.914h-5.386v-1.039h6.726v.71zm3.275 3.651h.95c.597-.009 1.066-.166 1.408-.472.342-.305.513-.718.513-1.237 0-1.167-.581-1.75-1.744-1.75-.546 0-.984.157-1.312.472-.323.309-.485.722-.485 1.237h-1.265c0-.789.287-1.443.861-1.962.58-.524 1.313-.786 2.201-.786.94 0 1.675.248 2.209.745.533.497.8 1.187.8 2.071 0 .433-.142.852-.425 1.258a2.51 2.51 0 0 1-1.141.909c.547.173.968.46 1.265.862.3.401.45.89.45 1.469 0 .893-.29 1.602-.874 2.126-.584.524-1.342.786-2.277.786-.934 0-1.695-.253-2.283-.758-.583-.506-.875-1.174-.875-2.003h1.272c0 .524.17.943.512 1.257.342.315.8.472 1.374.472.611 0 1.078-.159 1.402-.478.323-.319.485-.777.485-1.374 0-.579-.178-1.024-.533-1.333-.356-.31-.868-.47-1.538-.479h-.95v-1.032zm12.058-1.764c0 .497-.132.939-.396 1.326-.26.388-.613.691-1.06.91.52.223.93.549 1.23.977.306.428.459.914.459 1.456 0 .861-.292 1.547-.875 2.058-.58.51-1.342.765-2.29.765-.957 0-1.725-.255-2.304-.765-.574-.515-.861-1.201-.861-2.058 0-.538.145-1.023.437-1.456a2.763 2.763 0 0 1 1.224-.984 2.612 2.612 0 0 1-1.046-.909 2.348 2.348 0 0 1-.383-1.32c0-.838.269-1.504.807-1.996.537-.492 1.246-.738 2.126-.738.875 0 1.581.246 2.119.738.542.492.813 1.158.813 1.996zm-1.032 4.642c0-.556-.178-1.01-.533-1.361-.351-.35-.811-.526-1.381-.526s-1.028.173-1.374.52c-.342.346-.513.802-.513 1.367s.166 1.009.5 1.333c.337.323.804.485 1.4.485.593 0 1.058-.162 1.395-.485.337-.328.506-.773.506-1.333zm-1.9-6.337c-.497 0-.9.155-1.21.465-.306.305-.458.722-.458 1.251 0 .506.15.916.45 1.23.306.31.712.465 1.218.465s.909-.155 1.21-.465c.305-.314.458-.724.458-1.23s-.158-.919-.472-1.238c-.315-.319-.713-.478-1.196-.478zm4.846 11.033l-.718-.492c.429-.597.652-1.212.67-1.846v-1.141h1.238v.991c0 .46-.114.92-.342 1.381-.223.46-.506.829-.848 1.107zm7.998-5.325h1.381v1.032h-1.38v2.311h-1.272v-2.311h-4.532v-.745l4.457-6.897h1.346v6.61zm-4.368 0h3.097v-4.881l-.15.273-2.947 4.608zm9.085-.082l-.793.827v2.598h-1.264v-10.5h1.264v6.35l.677-.813 2.304-2.434h1.538l-2.878 3.09 3.213 4.307h-1.484l-2.577-3.425zM7.06 150.934H4.52v-9.791l-3.032.941v-2.066l5.3-1.898h.273v12.814zm6.75-7.523h1.354c.645 0 1.122-.161 1.433-.484.31-.322.465-.75.465-1.283 0-.515-.155-.917-.465-1.204-.305-.287-.727-.43-1.266-.43-.486 0-.893.134-1.222.404a1.265 1.265 0 0 0-.492 1.037h-2.54c0-.668.179-1.266.536-1.793.364-.533.867-.949 1.512-1.248a5.072 5.072 0 0 1 2.145-.448c1.353 0 2.414.325 3.181.975.768.645 1.151 1.535 1.151 2.672 0 .586-.178 1.125-.536 1.617a3.48 3.48 0 0 1-1.406 1.134c.72.258 1.257.645 1.609 1.16.357.516.536 1.125.536 1.828 0 1.137-.416 2.048-1.248 2.734-.826.685-1.922 1.028-3.287 1.028-1.278 0-2.324-.337-3.138-1.011-.809-.673-1.213-1.564-1.213-2.672h2.54c0 .481.179.874.536 1.178.363.305.809.457 1.336.457.604 0 1.075-.158 1.415-.474.346-.323.519-.747.519-1.275 0-1.277-.704-1.916-2.11-1.916H13.81v-1.986zm7.717-2.813c0-.785.255-1.421.765-1.907.51-.492 1.178-.738 2.004-.738.838 0 1.512.243 2.021.729.51.481.765 1.134.765 1.96v.633c0 .791-.255 1.427-.765 1.907-.51.481-1.177.721-2.003.721-.833 0-1.506-.24-2.022-.721-.51-.486-.765-1.139-.765-1.96v-.624zm1.688.677c0 .352.1.636.299.853.205.211.471.316.8.316.328 0 .588-.108.782-.325.193-.217.29-.507.29-.87v-.651c0-.351-.097-.635-.29-.852-.194-.217-.46-.325-.8-.325-.322 0-.583.108-.782.325-.2.211-.3.507-.3.888v.641zm4.43 6.522c0-.791.257-1.427.773-1.908.516-.486 1.184-.729 2.004-.729.832 0 1.503.24 2.013.721.515.474.773 1.13.773 1.968v.633c0 .785-.252 1.421-.756 1.907-.504.481-1.175.721-2.012.721-.844 0-1.521-.243-2.03-.729-.51-.487-.765-1.131-.765-1.934v-.65zm1.687.685c0 .322.105.598.316.826.211.229.475.343.791.343.715 0 1.073-.395 1.073-1.186v-.668c0-.352-.1-.633-.3-.844-.198-.217-.462-.325-.79-.325s-.592.108-.791.325c-.2.211-.299.501-.299.87v.659zm-4.518 1.494l-1.239-.668 6.25-10.002 1.239.668-6.25 10.002zm443.44 1.956c-.123 1.052-.512 1.866-1.169 2.44-.651.57-1.519.855-2.604.855-1.176 0-2.119-.422-2.83-1.265-.707-.843-1.06-1.971-1.06-3.384v-.957c0-.925.164-1.738.492-2.44.333-.702.803-1.24 1.409-1.613.606-.379 1.308-.568 2.105-.568 1.057 0 1.905.296 2.543.889.638.588 1.01 1.403 1.114 2.447h-1.319c-.114-.793-.362-1.367-.745-1.723-.378-.355-.909-.533-1.593-.533-.838 0-1.497.31-1.975.93-.474.62-.711 1.502-.711 2.645v.964c0 1.08.225 1.939.676 2.577.452.638 1.083.957 1.894.957.729 0 1.287-.164 1.675-.492.392-.332.651-.909.779-1.729h1.319zm1.265-.609c0-.724.141-1.376.424-1.955.287-.578.683-1.025 1.189-1.34.511-.314 1.092-.471 1.743-.471 1.008 0 1.821.348 2.441 1.046.624.697.936 1.624.936 2.782v.089c0 .72-.139 1.367-.417 1.941a3.109 3.109 0 0 1-1.182 1.333c-.511.319-1.098.479-1.764.479-1.002 0-1.816-.349-2.44-1.046-.62-.697-.93-1.62-.93-2.769v-.089zm1.272.151c0 .82.189 1.479.567 1.975.383.497.893.745 1.531.745.643 0 1.153-.25 1.531-.751.379-.506.568-1.213.568-2.12 0-.811-.194-1.467-.581-1.968-.383-.506-.893-.759-1.532-.759-.624 0-1.127.248-1.51.745s-.574 1.208-.574 2.133zm11.614 3.616c-.073-.146-.132-.406-.178-.779-.588.61-1.29.916-2.105.916-.73 0-1.329-.205-1.798-.616a2.014 2.014 0 0 1-.698-1.572c0-.77.292-1.367.875-1.791.588-.428 1.413-.642 2.475-.642h1.231v-.581c0-.443-.133-.793-.397-1.053-.264-.265-.654-.397-1.169-.397-.451 0-.829.114-1.135.342-.305.228-.458.504-.458.827h-1.271c0-.369.13-.724.39-1.066.264-.346.619-.62 1.066-.82a3.604 3.604 0 0 1 1.483-.301c.853 0 1.52.214 2.003.642.483.424.734 1.01.752 1.757v3.404c0 .68.087 1.22.26 1.621v.109h-1.326zm-2.099-.964c.397 0 .773-.102 1.128-.308a1.86 1.86 0 0 0 .773-.799v-1.518h-.992c-1.549 0-2.324.454-2.324 1.36 0 .397.132.707.397.93.264.223.603.335 1.018.335zm6.522.964h-1.265v-10.5h1.265v10.5zm6.337-1.962c0-.342-.13-.606-.39-.793-.255-.191-.704-.355-1.347-.492-.638-.137-1.146-.301-1.524-.492-.374-.192-.652-.42-.834-.684a1.648 1.648 0 0 1-.267-.943c0-.606.255-1.119.766-1.538.515-.42 1.171-.629 1.969-.629.838 0 1.517.216 2.037.649.524.433.786.987.786 1.661h-1.272c0-.346-.148-.645-.444-.895-.292-.251-.661-.376-1.107-.376-.461 0-.821.1-1.08.301-.26.2-.39.462-.39.786 0 .305.121.535.362.69.242.155.677.303 1.306.445.633.141 1.146.309 1.538.505.392.196.681.433.868.711.191.274.287.609.287 1.005 0 .661-.264 1.192-.793 1.593-.528.396-1.214.595-2.057.595-.593 0-1.117-.105-1.573-.315a2.59 2.59 0 0 1-1.073-.875 2.146 2.146 0 0 1-.383-1.223h1.265c.023.423.191.761.506 1.011.319.246.738.369 1.258.369.478 0 .861-.095 1.148-.287.292-.196.438-.455.438-.779zm11.566-3.63h.95c.597-.009 1.067-.166 1.408-.472.342-.305.513-.717.513-1.237 0-1.166-.581-1.75-1.743-1.75-.547 0-.984.157-1.313.472-.323.31-.485.722-.485 1.237h-1.265c0-.788.287-1.442.862-1.962.578-.524 1.312-.786 2.201-.786.939 0 1.675.248 2.208.745.533.497.8 1.187.8 2.072 0 .432-.142.852-.424 1.257a2.52 2.52 0 0 1-1.142.91c.547.173.969.46 1.265.861.301.401.451.891.451 1.47 0 .893-.292 1.601-.875 2.126-.583.524-1.342.786-2.276.786-.935 0-1.696-.253-2.283-.759-.584-.506-.875-1.174-.875-2.003h1.271c0 .524.171.943.513 1.258.341.314.8.471 1.374.471.61 0 1.078-.159 1.401-.478.324-.319.485-.777.485-1.374 0-.579-.177-1.023-.533-1.333-.355-.31-.868-.469-1.538-.479h-.95v-1.032zm12.264 1.347c0 1.481-.253 2.582-.759 3.302-.506.72-1.297 1.08-2.372 1.08-1.062 0-1.848-.351-2.359-1.053-.51-.706-.774-1.759-.793-3.158v-1.689c0-1.463.253-2.55.759-3.26.506-.711 1.299-1.067 2.379-1.067 1.071 0 1.859.344 2.365 1.032.506.684.766 1.741.78 3.172v1.641zm-1.265-1.73c0-1.071-.15-1.85-.451-2.338-.301-.492-.777-.738-1.429-.738-.647 0-1.119.244-1.415.732-.296.487-.449 1.237-.458 2.249v2.023c0 1.076.155 1.871.465 2.386.314.51.788.765 1.422.765.624 0 1.087-.241 1.387-.724.306-.483.465-1.244.479-2.283v-2.072zm7.848-3.985v1.073h-.233c-.984.018-1.768.31-2.351.875-.584.565-.921 1.361-1.012 2.386.524-.602 1.24-.902 2.146-.902.866 0 1.557.305 2.072.916.519.61.779 1.399.779 2.365 0 1.025-.28 1.846-.841 2.461-.556.615-1.303.923-2.242.923-.952 0-1.725-.365-2.317-1.094-.593-.734-.889-1.677-.889-2.83v-.485c0-1.833.39-3.232 1.169-4.198.784-.97 1.948-1.467 3.493-1.49h.226zm-1.661 4.484c-.433 0-.832.13-1.197.39a2.04 2.04 0 0 0-.759.978v.464c0 .821.185 1.482.554 1.983.369.501.83.752 1.381.752.57 0 1.016-.21 1.34-.629.328-.419.492-.969.492-1.648 0-.683-.166-1.235-.499-1.654-.328-.424-.766-.636-1.312-.636zm4.648 7.458l-.718-.492c.429-.597.652-1.212.67-1.846v-1.141h1.237v.991a3.1 3.1 0 0 1-.341 1.381c-.224.46-.506.829-.848 1.107zm6.815-1.982h-1.271v-8.429l-2.55.937v-1.149l3.623-1.36h.198v10.001zm5.9-3.425l-.793.827v2.598h-1.265v-10.5h1.265v6.351l.677-.814 2.303-2.434h1.538l-2.878 3.09 3.213 4.307h-1.483l-2.577-3.425zm-12.63 25.065l.739-6.503h7.172v2.118h-5.089l-.317 2.751a4.02 4.02 0 0 1 1.925-.484c1.219 0 2.174.378 2.865 1.134.692.756 1.037 1.814 1.037 3.173 0 .826-.175 1.567-.527 2.224a3.7 3.7 0 0 1-1.494 1.52c-.65.358-1.418.536-2.303.536a5 5 0 0 1-2.153-.466 3.87 3.87 0 0 1-1.573-1.327 3.63 3.63 0 0 1-.607-1.942h2.514c.053.533.237.949.554 1.248.322.293.741.439 1.256.439.575 0 1.017-.205 1.328-.615.31-.416.465-1.002.465-1.758 0-.726-.178-1.283-.536-1.67-.357-.386-.864-.58-1.52-.58-.604 0-1.093.159-1.468.475l-.246.228-2.022-.501zm9.923-4.042c0-.786.255-1.421.765-1.908.51-.492 1.178-.738 2.004-.738.838 0 1.512.243 2.021.729.51.481.765 1.134.765 1.96v.633c0 .791-.255 1.427-.765 1.907-.509.481-1.177.721-2.004.721-.832 0-1.505-.24-2.021-.721-.51-.486-.765-1.139-.765-1.959v-.624zm1.688.676c0 .352.099.636.299.853.205.211.471.316.799.316.329 0 .589-.108.783-.325.193-.217.29-.507.29-.87v-.65c0-.352-.097-.636-.29-.853-.194-.217-.46-.325-.8-.325-.322 0-.583.108-.782.325-.2.211-.299.507-.299.888v.641zm4.429 6.522c0-.791.258-1.427.774-1.907.515-.487 1.183-.73 2.004-.73.832 0 1.503.24 2.012.721.516.474.774 1.131.774 1.968v.633c0 .785-.252 1.421-.756 1.908-.504.48-1.175.72-2.013.72-.843 0-1.52-.243-2.03-.729-.51-.487-.765-1.131-.765-1.934v-.65zm1.688.685c0 .323.105.598.316.826.211.229.475.343.791.343.715 0 1.073-.395 1.073-1.186v-.668c0-.352-.1-.633-.299-.844-.199-.217-.463-.325-.791-.325s-.592.108-.791.325c-.199.211-.299.501-.299.87v.659zm-4.518 1.494l-1.239-.668 6.249-10.001 1.239.667-6.249 10.002zM14.06 282.6l3.254 8.122 3.253-8.122h1.703v9.954h-1.313v-3.876l.123-4.184-3.267 8.06h-1.005l-3.261-8.039.13 4.163v3.876h-1.313V282.6h1.696zm13.398 10.09c-1.003 0-1.818-.328-2.447-.984-.63-.661-.944-1.543-.944-2.646v-.232c0-.734.14-1.388.417-1.962a3.277 3.277 0 0 1 1.176-1.353 2.951 2.951 0 0 1 1.64-.493c.962 0 1.71.317 2.243.951.533.633.8 1.54.8 2.72v.527h-5.011c.018.729.23 1.319.636 1.77.41.447.93.67 1.558.67.447 0 .825-.091 1.135-.273a2.86 2.86 0 0 0 .814-.725l.772.602c-.62.952-1.55 1.428-2.789 1.428zm-.157-6.631c-.51 0-.939.187-1.285.561-.347.369-.56.889-.643 1.559h3.705v-.096c-.036-.643-.21-1.139-.52-1.49-.31-.356-.729-.534-1.257-.534zm6.227-2.693v1.791h1.381v.978h-1.38v4.587c0 .296.06.519.184.669.123.146.333.219.629.219.146 0 .346-.027.601-.082v1.026a3.671 3.671 0 0 1-.97.136c-.565 0-.992-.171-1.279-.512-.287-.342-.43-.828-.43-1.456v-4.587h-1.347v-.978h1.347v-1.791h1.264zm7.431 9.188c-.073-.146-.132-.406-.178-.78-.588.611-1.29.916-2.105.916-.73 0-1.329-.205-1.798-.615a2.017 2.017 0 0 1-.697-1.572c0-.77.291-1.367.875-1.791.588-.429 1.412-.643 2.474-.643h1.23v-.581c0-.442-.131-.793-.396-1.053-.264-.264-.654-.396-1.169-.396-.45 0-.83.114-1.135.342-.305.228-.458.503-.458.827h-1.27c0-.369.129-.725.389-1.067.264-.346.62-.619 1.066-.82a3.62 3.62 0 0 1 1.483-.301c.853 0 1.52.215 2.003.643.483.424.734 1.009.752 1.757v3.404c0 .679.087 1.219.26 1.62v.11H40.96zm-2.099-.964c.397 0 .773-.103 1.128-.308.356-.205.613-.472.773-.8v-1.517h-.992c-1.549 0-2.324.453-2.324 1.36 0 .397.133.706.397.93.264.223.604.335 1.018.335zm6.522.964h-1.265v-10.5h1.265v10.5zm6.337-1.962c0-.342-.13-.606-.39-.793-.255-.192-.704-.356-1.347-.492-.638-.137-1.146-.301-1.524-.493-.374-.191-.652-.419-.834-.683a1.653 1.653 0 0 1-.267-.944c0-.606.256-1.118.766-1.538.515-.419 1.171-.629 1.969-.629.838 0 1.517.217 2.037.65.524.433.786.986.786 1.661h-1.271c0-.346-.149-.645-.445-.896-.291-.25-.66-.376-1.107-.376-.46 0-.82.101-1.08.301a.948.948 0 0 0-.39.786c0 .306.12.536.362.691.242.155.677.303 1.306.444.633.141 1.146.31 1.538.506.392.196.681.433.868.711.192.273.287.608.287 1.005 0 .661-.264 1.192-.793 1.593-.528.396-1.214.594-2.057.594-.593 0-1.117-.105-1.573-.314a2.593 2.593 0 0 1-1.073-.875 2.145 2.145 0 0 1-.383-1.224h1.265c.023.424.191.761.506 1.012.319.246.738.369 1.258.369.478 0 .861-.096 1.148-.287.292-.196.438-.456.438-.779zm12.29-5.394c0 .497-.131.939-.396 1.326-.26.388-.613.691-1.06.909.52.224.93.55 1.231.978.306.428.458.914.458 1.456 0 .861-.292 1.547-.875 2.058-.579.51-1.342.765-2.29.765-.957 0-1.725-.255-2.304-.765-.574-.515-.86-1.201-.86-2.058 0-.538.145-1.023.437-1.456a2.763 2.763 0 0 1 1.223-.984 2.608 2.608 0 0 1-1.046-.91 2.343 2.343 0 0 1-.383-1.319c0-.838.27-1.504.807-1.996.538-.492 1.247-.738 2.126-.738.875 0 1.581.246 2.12.738.542.492.813 1.158.813 1.996zm-1.032 4.642c0-.556-.177-1.01-.533-1.361-.35-.351-.81-.526-1.38-.526-.57 0-1.028.173-1.374.52-.342.346-.513.802-.513 1.367s.166 1.009.499 1.333c.337.323.804.485 1.401.485.593 0 1.057-.162 1.395-.485.337-.328.505-.773.505-1.333zm-1.9-6.337c-.497 0-.9.155-1.21.465-.305.305-.458.722-.458 1.251 0 .505.15.916.451 1.23.306.31.711.465 1.217.465.506 0 .91-.155 1.21-.465.305-.314.458-.725.458-1.23 0-.506-.157-.919-.472-1.238-.314-.319-.713-.478-1.196-.478zm11.28 9.051h-6.522v-.91l3.445-3.828c.51-.578.862-1.048 1.053-1.408.196-.365.294-.74.294-1.128 0-.519-.157-.945-.472-1.278-.314-.333-.734-.499-1.258-.499-.628 0-1.118.18-1.47.54-.346.355-.519.852-.519 1.49h-1.264c0-.916.293-1.656.881-2.222.593-.565 1.383-.847 2.372-.847.926 0 1.657.244 2.195.731.538.483.806 1.128.806 1.935 0 .98-.624 2.146-1.873 3.5l-2.666 2.891h4.997v1.033zm7.58-4.246c0 1.482-.252 2.582-.758 3.302-.506.72-1.297 1.08-2.372 1.08-1.062 0-1.848-.351-2.359-1.052-.51-.707-.774-1.76-.793-3.159v-1.688c0-1.463.253-2.55.76-3.261.505-.711 1.298-1.066 2.378-1.066 1.07 0 1.86.344 2.365 1.032.506.684.766 1.741.78 3.172v1.64zm-1.264-1.729c0-1.071-.15-1.85-.451-2.338-.301-.492-.777-.738-1.429-.738-.647 0-1.119.244-1.415.731-.296.488-.449 1.238-.458 2.249v2.024c0 1.075.155 1.87.465 2.385.314.511.788.766 1.422.766.624 0 1.087-.241 1.387-.725.306-.483.465-1.244.479-2.283v-2.071zm2.974 7.957l-.718-.492c.428-.597.651-1.212.67-1.846v-1.141h1.237v.991c0 .46-.114.92-.342 1.381-.223.46-.506.829-.847 1.107zm4.497-7.574h.95c.598-.009 1.067-.167 1.409-.472.342-.305.513-.718.513-1.237 0-1.167-.581-1.75-1.744-1.75-.546 0-.984.157-1.312.471-.324.31-.485.723-.485 1.238H84.21c0-.789.287-1.443.861-1.962.58-.524 1.313-.786 2.201-.786.94 0 1.675.248 2.209.745.533.497.8 1.187.8 2.071 0 .433-.142.852-.425 1.258a2.51 2.51 0 0 1-1.141.909c.547.173.968.46 1.264.861.301.402.452.891.452 1.47 0 .893-.292 1.602-.875 2.126-.584.524-1.343.786-2.277.786-.934 0-1.695-.253-2.283-.758-.583-.506-.875-1.174-.875-2.003h1.272c0 .524.17.943.512 1.257.342.315.8.472 1.374.472.611 0 1.078-.159 1.402-.478.323-.319.485-.777.485-1.374 0-.579-.178-1.024-.533-1.333-.356-.31-.868-.47-1.538-.479h-.95v-1.032zm8.217 2.167l-.793.827v2.598h-1.264v-10.5h1.264v6.35l.677-.813 2.304-2.434h1.538l-2.878 3.09 3.213 4.307h-1.483l-2.578-3.425zm-76.112 31.357h-2.54v-9.791l-3.032.94v-2.065l5.3-1.899h.272v12.815zm11.68-4.817h1.45v2.048h-1.45v2.769h-2.54v-2.769h-5.246l-.115-1.599 5.335-8.429h2.567v7.98zm-5.37 0h2.83v-4.517l-.166.29-2.663 4.227zm8.157-5.519c0-.785.255-1.421.764-1.907.51-.493 1.178-.739 2.004-.739.838 0 1.512.244 2.022.73.51.48.764 1.134.764 1.96v.633c0 .791-.254 1.426-.764 1.907-.51.48-1.178.721-2.004.721-.832 0-1.506-.241-2.022-.721-.51-.486-.764-1.14-.764-1.96v-.624zm1.687.677c0 .351.1.635.3.852.204.211.47.317.799.317.328 0 .589-.109.782-.326.194-.216.29-.506.29-.87v-.65c0-.352-.096-.636-.29-.853-.193-.216-.46-.325-.8-.325-.322 0-.583.109-.782.325-.2.211-.299.507-.299.888v.642zm4.43 6.521c0-.791.258-1.427.773-1.907.516-.486 1.184-.73 2.004-.73.832 0 1.503.241 2.013.721.516.475.774 1.131.774 1.969v.633c0 .785-.252 1.421-.756 1.907-.504.48-1.175.721-2.013.721-.844 0-1.52-.244-2.03-.73-.51-.486-.765-1.131-.765-1.933v-.651zm1.688.686c0 .322.105.597.316.826.21.228.474.343.79.343.716 0 1.073-.396 1.073-1.187v-.668c0-.351-.1-.633-.299-.844-.199-.216-.463-.325-.79-.325-.329 0-.592.109-.792.325-.199.211-.299.501-.299.871v.659zm-4.518 1.494l-1.24-.668 6.25-10.002 1.239.668-6.25 10.002z" fill="#009487"/><path d="M41.916 20.776h120.207v25.287h61.24M545.62 20.776H390.602v48.301m155.017 95.04h-92.357v35.374h-39.074m20.318 186.387H289.86v-104.7M12.078 299.504h111.255v-89.642h36.233M0 130.164h113.671V103.74h59.108" stroke="#009487" stroke-width=".5" stroke-miterlimit="10"/><path d="M223.363 49.33c1.847 0 3.268-1.42 3.268-3.267s-1.421-3.268-3.268-3.268c-1.847 0-3.268 1.42-3.268 3.268-.142 1.847 1.421 3.267 3.268 3.267zm167.238 23.157c-1.847 0-3.268-1.421-3.268-3.268 0-1.847 1.421-3.267 3.268-3.267 1.847 0 3.268 1.42 3.268 3.267 0 1.705-1.563 3.268-3.268 3.268zm23.587 130.272c-1.847 0-3.268-1.421-3.268-3.268 0-1.846 1.421-3.267 3.268-3.267 1.847 0 3.268 1.421 3.268 3.267 0 1.847-1.563 3.268-3.268 3.268zM289.86 277.91c-1.847 0-3.268 1.421-3.268 3.268 0 1.847 1.421 3.267 3.268 3.267 1.847 0 3.268-1.42 3.268-3.267s-1.421-3.268-3.268-3.268zm-130.295-71.458c1.847 0 3.268 1.421 3.268 3.268 0 1.847-1.421 3.267-3.268 3.267-1.847 0-3.268-1.42-3.268-3.267 0-1.705 1.421-3.268 3.268-3.268zm13.215-106.121c1.847 0 3.268 1.421 3.268 3.268 0 1.846-1.421 3.267-3.268 3.267-1.847 0-3.268-1.421-3.268-3.267 0-1.705 1.421-3.268 3.268-3.268z" fill="#009487"/></svg>