<svg width="558" height="414" fill="none" xmlns="http://www.w3.org/2000/svg"><path d="M187.841 45.03c63.087-56.257 159.707-50.858 215.974 12.076 20.319 22.73 33.249 50.859 37.369 80.976l-75.733 10.371c-5.683-41.767-44.331-71.032-86.105-65.35a77.325 77.325 0 0 0-40.496 18.753l-51.009-56.825z" fill="#14ADEA"/><path d="M366.019 147.884l74.312-10.228c-4.263-29.833-17.051-57.394-37.085-79.84C347.547-4.55 251.496-10.09 188.835 45.315l49.873 55.973c11.367-9.945 25.291-16.338 40.353-18.469 20.461-2.84 40.779 2.557 57.119 14.917 16.483 12.218 26.997 29.975 29.839 50.148zm75.733-9.092c-.142.142-.284.142-.426.142l-75.733 10.371c-.143 0-.427 0-.569-.142-.142-.142-.284-.284-.284-.426-2.7-20.031-13.072-37.789-29.27-50.006-16.056-12.218-36.091-17.474-56.125-14.633-14.919 2.13-28.844 8.524-40.211 18.61a.688.688 0 0 1-.995 0l-50.867-57.11a.687.687 0 0 1 0-.994c63.229-56.399 160.56-51 216.969 12.218 20.46 22.872 33.39 51.001 37.511 81.402.284.142.142.426 0 .568z" fill="#fff"/><path d="M441.184 138.224c4.688 34.522-2.416 69.611-20.461 99.444l-65.645-39.209c8.952-14.917 12.504-32.533 10.23-49.722l75.876-10.513z" fill="#DEDFE0"/><path d="M356.215 198.175l64.366 38.499c17.335-29.265 24.439-63.787 20.034-97.598l-74.312 10.229c2.131 16.905-1.421 34.237-10.088 48.87zm65.076 40.062c-.284.142-.568.284-.852.142l-65.645-39.352c-.142-.142-.284-.284-.284-.426 0-.142 0-.426.142-.568 8.809-14.775 12.362-32.249 10.088-49.296 0-.427.284-.711.568-.853l75.734-10.37c.142 0 .426 0 .568.142.142.142.284.284.284.426 4.689 34.521-2.558 70.037-20.461 99.87 0 .143-.142.285-.142.285z" fill="#fff"/><path d="M420.865 237.668c-31.117 51.996-90.084 80.693-150.187 73.163l9.52-75.862c30.122 3.694 59.535-10.654 75.022-36.652l65.645 39.351z" fill="#CFE3F2"/><path d="M271.389 310.263c59.25 7.103 117.365-21.31 148.34-72.31l-64.366-38.5c-15.63 25.572-44.9 39.778-74.739 36.369l-9.235 74.441zm120.633-36.51c-32.539 29.123-76.728 43.471-121.486 37.931-.142 0-.426-.143-.426-.285-.142-.142-.142-.284-.142-.568l9.52-75.862c0-.426.426-.71.852-.71 29.697 3.694 58.967-10.513 74.312-36.226.142-.284.711-.426.995-.284l65.645 39.209c.142.142.284.284.284.426 0 .142 0 .427-.142.569-8.099 13.638-18.045 25.571-29.412 35.8z" fill="#fff"/><path d="M270.678 310.831c-83.832-10.371-143.225-86.801-132.71-170.618 1.989-15.485 6.252-30.544 12.788-44.75l69.481 31.822c-17.619 38.357-.71 83.817 37.653 101.291a77.078 77.078 0 0 0 22.308 6.393l-9.52 75.862z" fill="#41BAAA"/><path d="M150.897 96.6c-6.252 13.922-10.514 28.696-12.362 43.897-5.115 40.346 5.968 80.266 30.834 112.23 24.865 31.822 60.529 52.28 100.456 57.394l9.378-74.441c-7.531-.995-14.92-3.126-21.882-6.251-18.756-8.524-32.964-23.867-40.211-43.329-7.104-19.037-6.394-39.778 1.847-58.389L150.897 96.6zm120.207 214.799c-.142.143-.426.143-.569.143-40.779-5.115-77.011-25.714-102.303-58.104-25.15-32.391-36.233-72.595-31.117-113.367 1.989-15.627 6.251-30.686 12.787-44.892.143-.426.569-.568.995-.426l69.481 31.822.427.426v.568c-8.384 18.327-9.236 38.926-2.132 57.962 7.105 18.895 21.029 33.953 39.501 42.477 6.962 3.268 14.493 5.257 22.165 6.251.143 0 .427.142.427.284.142.142.142.284.142.568l-9.52 75.862c0 .142-.142.426-.284.426z" fill="#fff"/><path d="M150.613 95.605c1.847-4.12 3.979-8.097 6.11-11.933l66.497 37.789c-1.136 1.989-2.131 3.977-3.125 5.966l-69.482-31.822z" fill="#3AB0D5"/><path d="M151.608 95.179l68.203 31.112c.71-1.563 1.563-3.126 2.415-4.688l-65.218-36.937c-1.99 3.41-3.837 6.961-5.4 10.513zm69.055 32.675c-.142.142-.568.284-.852.142L150.33 96.173l-.427-.426v-.568c1.847-4.12 3.979-8.098 6.11-12.076.142-.284.711-.426.995-.284l66.497 37.789c.142.142.284.284.284.426 0 .143 0 .427-.142.569a58.534 58.534 0 0 0-2.984 5.966c.142.142 0 .285 0 .285z" fill="#fff"/><path d="M156.723 83.53c2.984-5.257 6.252-10.371 9.804-15.201l61.524 45.46c-1.847 2.415-3.41 4.972-4.973 7.529L156.723 83.53z" fill="#6AA84B"/><path d="M157.718 83.246l65.218 37.078c1.279-2.131 2.7-4.404 4.121-6.393l-60.388-44.466c-3.126 4.404-6.252 9.092-8.951 13.78zm65.929 38.641c-.284.142-.569.284-.853.142L156.297 84.24c-.142-.142-.284-.284-.284-.426v-.568c2.984-5.257 6.394-10.371 9.946-15.201.284-.284.71-.426.995-.142l61.524 45.318c.142.142.284.284.284.426 0 .142 0 .426-.142.568-1.705 2.415-3.41 4.973-4.831 7.53 0 0 0 .142-.142.142z" fill="#fff"/><path d="M166.527 68.471c6.252-8.524 13.357-16.337 21.314-23.298l50.867 56.967c-3.978 3.552-7.53 7.387-10.656 11.649l-61.525-45.318z" fill="#EDD3DD"/><path d="M167.664 68.187l60.387 44.466a69.222 69.222 0 0 1 9.804-10.655l-49.873-55.973c-7.673 6.819-14.351 14.206-20.318 22.162zm60.955 46.17a.685.685 0 0 1-.994 0l-61.524-45.318c-.142-.142-.285-.284-.285-.426 0-.142 0-.426.142-.568 6.252-8.524 13.499-16.338 21.314-23.44a.686.686 0 0 1 .994 0l50.868 56.967a.686.686 0 0 1 0 .994c-3.836 3.552-7.389 7.387-10.515 11.791 0-.142 0 0 0 0z" fill="#fff"/><path d="M63.606 8.345c0 .975-.164 1.827-.492 2.556-.328.725-.793 1.279-1.394 1.662-.602.382-1.304.574-2.106.574-.784 0-1.479-.192-2.085-.575-.606-.387-1.078-.936-1.415-1.647-.332-.715-.503-1.543-.512-2.481v-.718c0-.957.166-1.803.499-2.536.332-.734.802-1.295 1.408-1.682.61-.392 1.308-.588 2.092-.588.797 0 1.499.194 2.105.581.61.383 1.08.941 1.408 1.675.328.73.492 1.58.492 2.55v.629zm-1.305-.643c0-1.18-.237-2.085-.711-2.714-.474-.633-1.137-.95-1.99-.95-.829 0-1.483.317-1.961.95-.474.63-.718 1.504-.732 2.625v.732c0 1.144.24 2.044.718 2.7.483.652 1.146.978 1.99.978.847 0 1.503-.308 1.968-.923.465-.62.704-1.507.718-2.66v-.738zm4.792-3.89v1.792h1.38v.977h-1.38v4.587c0 .296.061.52.184.67.123.146.333.219.63.219.145 0 .346-.028.6-.082V13a3.668 3.668 0 0 1-.97.137c-.565 0-.991-.171-1.278-.513-.287-.342-.43-.827-.43-1.456V6.581H64.48v-.977h1.347V3.812h1.265zM71.222 6.5c.56-.688 1.29-1.032 2.187-1.032 1.563 0 2.352.882 2.365 2.645V13H74.51V8.105c-.005-.533-.128-.927-.37-1.182-.236-.255-.608-.383-1.114-.383-.41 0-.77.11-1.08.328-.31.219-.551.506-.724.861V13h-1.265V2.5h1.265v3.999zm9.515 6.638c-1.002 0-1.818-.328-2.447-.985-.629-.66-.943-1.542-.943-2.645v-.233c0-.733.139-1.387.417-1.961a3.283 3.283 0 0 1 1.175-1.354 2.958 2.958 0 0 1 1.641-.492c.962 0 1.71.317 2.242.95.534.633.8 1.54.8 2.72v.527h-5.01c.018.73.23 1.32.635 1.77.41.447.93.67 1.559.67.446 0 .825-.09 1.134-.273a2.84 2.84 0 0 0 .814-.725l.772.602c-.62.953-1.55 1.429-2.789 1.429zm-.157-6.631c-.51 0-.939.187-1.285.56-.346.37-.56.89-.643 1.559h3.705V8.53c-.036-.642-.21-1.139-.52-1.49-.309-.355-.728-.533-1.257-.533zm8.087.232a3.79 3.79 0 0 0-.622-.048c-.83 0-1.392.354-1.689 1.06V13h-1.264V5.604h1.23l.02.854c.415-.66 1.003-.991 1.764-.991.247 0 .433.032.561.096v1.175zm8.565 1.272l.506-4.963h5.1v1.169h-4.026L98.51 6.93c.487-.287 1.041-.431 1.661-.431.907 0 1.627.3 2.16.902.533.597.8 1.406.8 2.427 0 1.026-.278 1.834-.834 2.427-.552.588-1.324.882-2.317.882-.88 0-1.598-.244-2.154-.732-.556-.487-.873-1.162-.95-2.023h1.196c.078.57.28 1 .609 1.292.328.287.76.43 1.299.43.587 0 1.048-.2 1.38-.601.338-.401.506-.955.506-1.661 0-.666-.182-1.199-.547-1.6-.36-.405-.841-.608-1.442-.608-.552 0-.984.12-1.299.362l-.335.274-1.012-.26zm12.244-4.97v1.073h-.233c-.984.019-1.768.31-2.351.875-.584.565-.921 1.36-1.012 2.386.524-.602 1.239-.902 2.146-.902.866 0 1.557.305 2.072.916.519.61.779 1.399.779 2.365 0 1.025-.28 1.846-.841 2.46-.556.616-1.303.924-2.242.924-.953 0-1.725-.365-2.317-1.094-.593-.734-.889-1.677-.889-2.83v-.485c0-1.832.39-3.232 1.169-4.198.784-.97 1.948-1.467 3.493-1.49h.226zm-1.662 4.484c-.432 0-.831.13-1.196.39a2.04 2.04 0 0 0-.759.978v.464c0 .82.185 1.482.554 1.983.369.501.83.752 1.381.752.57 0 1.016-.21 1.34-.63.328-.418.492-.968.492-1.647 0-.683-.166-1.235-.499-1.654-.328-.424-.766-.636-1.313-.636zm4.649 7.458l-.718-.492c.429-.597.652-1.212.67-1.845v-1.142h1.237v.991c0 .46-.114.92-.341 1.381-.224.46-.506.83-.848 1.107zm4.498-7.574h.95c.597-.009 1.067-.166 1.408-.471.342-.306.513-.718.513-1.238 0-1.166-.581-1.75-1.743-1.75-.547 0-.985.157-1.313.472-.323.31-.485.722-.485 1.237h-1.265c0-.788.287-1.442.862-1.962.578-.524 1.312-.786 2.201-.786.939 0 1.675.249 2.208.745.533.497.8 1.187.8 2.072 0 .433-.142.852-.424 1.257a2.518 2.518 0 0 1-1.142.91c.547.173.969.46 1.265.86.301.402.451.892.451 1.47 0 .894-.292 1.602-.875 2.127-.583.524-1.342.786-2.276.786-.935 0-1.696-.253-2.284-.76-.583-.505-.874-1.173-.874-2.002h1.271c0 .524.171.943.513 1.258.341.314.799.472 1.374.472.61 0 1.078-.16 1.401-.479.324-.319.485-.777.485-1.374 0-.579-.177-1.023-.533-1.333-.355-.31-.868-.47-1.538-.479h-.95V7.408zm8.217 2.167l-.793.827V13h-1.265V2.5h1.265v6.35l.677-.813 2.303-2.433h1.538l-2.878 3.09L129.238 13h-1.483l-2.577-3.425zM58.249 33.408h1.353c.645 0 1.123-.16 1.433-.483.31-.322.466-.75.466-1.283 0-.516-.155-.917-.466-1.204-.304-.288-.726-.431-1.265-.431-.487 0-.894.135-1.222.404-.328.264-.492.61-.492 1.037h-2.54c0-.668.178-1.265.536-1.793.363-.533.867-.949 1.511-1.248a5.075 5.075 0 0 1 2.145-.448c1.354 0 2.414.325 3.182.976.767.644 1.151 1.535 1.151 2.671a2.7 2.7 0 0 1-.536 1.618c-.358.492-.826.87-1.406 1.133.72.258 1.257.645 1.608 1.16.357.516.536 1.126.536 1.829 0 1.136-.416 2.048-1.248 2.733-.826.686-1.922 1.028-3.287 1.028-1.277 0-2.323-.337-3.138-1.01-.808-.674-1.213-1.565-1.213-2.672h2.54c0 .48.18.873.537 1.178.363.304.808.457 1.336.457.603 0 1.075-.159 1.415-.475.345-.322.518-.747.518-1.275 0-1.277-.703-1.916-2.11-1.916H58.25v-1.986zm7.717-2.812c0-.785.255-1.421.765-1.907.51-.493 1.177-.739 2.003-.739.838 0 1.512.243 2.022.73.51.48.764 1.134.764 1.96v.633c0 .79-.254 1.426-.764 1.907-.51.48-1.178.72-2.004.72-.832 0-1.506-.24-2.021-.72-.51-.487-.765-1.14-.765-1.96v-.624zm1.687.677c0 .351.1.635.3.852.204.21.47.316.799.316.328 0 .589-.108.782-.325.194-.217.29-.507.29-.87v-.65c0-.352-.096-.636-.29-.853-.193-.217-.46-.325-.8-.325-.322 0-.583.108-.782.325-.2.211-.299.507-.299.888v.642zm4.43 6.52c0-.79.258-1.426.773-1.906.516-.487 1.184-.73 2.004-.73.832 0 1.503.24 2.013.72.516.475.773 1.132.773 1.97v.633c0 .785-.252 1.42-.755 1.907-.504.48-1.175.72-2.013.72-.844 0-1.52-.243-2.03-.73-.51-.485-.765-1.13-.765-1.933v-.65zm1.688.687c0 .322.105.597.316.826.21.228.474.342.79.342.716 0 1.073-.395 1.073-1.186v-.668c0-.352-.1-.633-.299-.844-.199-.217-.462-.325-.79-.325-.329 0-.592.108-.792.325-.199.211-.299.501-.299.87v.66zm-4.518 1.494l-1.24-.668 6.25-10.002 1.239.668-6.25 10.002zm354.7-29.572h-4.17L418.847 13h-1.354l3.801-9.953h1.148L426.25 13h-1.347l-.95-2.598zm-3.773-1.08h3.383l-1.695-4.655-1.688 4.655zm6.911-.082c0-1.153.266-2.069.8-2.748.533-.683 1.239-1.025 2.119-1.025.902 0 1.606.319 2.112.957l.062-.82h1.155v7.218c0 .957-.285 1.712-.855 2.263-.565.551-1.326.827-2.283.827a3.8 3.8 0 0 1-1.565-.342c-.511-.228-.9-.54-1.169-.936l.656-.759c.542.67 1.205 1.005 1.989 1.005.616 0 1.094-.173 1.436-.52.346-.346.519-.834.519-1.462v-.636c-.505.583-1.196.875-2.071.875-.866 0-1.568-.349-2.105-1.046-.534-.697-.8-1.648-.8-2.85zm1.271.144c0 .834.171 1.49.513 1.968.342.474.82.711 1.436.711.797 0 1.383-.362 1.756-1.086V7.6c-.387-.707-.968-1.06-1.743-1.06-.615 0-1.096.24-1.442.718-.347.478-.52 1.187-.52 2.126zm10.466-2.646a3.788 3.788 0 0 0-.622-.048c-.829 0-1.392.354-1.688 1.06V13h-1.265V5.604h1.23l.021.854c.415-.66 1.003-.991 1.764-.991.246 0 .433.032.56.096v1.175zM441.371 13h-1.265V5.604h1.265V13zm-1.367-9.358c0-.205.061-.379.184-.52.128-.141.315-.212.561-.212.246 0 .433.07.561.212a.75.75 0 0 1 .191.52.725.725 0 0 1-.191.512c-.128.137-.315.205-.561.205-.246 0-.433-.068-.561-.205a.738.738 0 0 1-.184-.512zm9.645 5.742c0 1.125-.257 2.032-.772 2.72-.515.689-1.212 1.033-2.092 1.033-.898 0-1.604-.285-2.119-.855v3.562h-1.265V5.604h1.156l.061.82c.515-.638 1.231-.957 2.147-.957.888 0 1.59.335 2.105 1.005.52.67.779 1.602.779 2.796v.116zm-1.264-.144c0-.834-.178-1.492-.533-1.975-.356-.483-.844-.725-1.463-.725-.766 0-1.34.34-1.723 1.019v3.534c.378.674.957 1.011 1.736 1.011.606 0 1.087-.239 1.443-.717.36-.483.54-1.199.54-2.147zm6.453-2.502a3.797 3.797 0 0 0-.622-.048c-.83 0-1.392.354-1.689 1.06V13h-1.264V5.604h1.23l.021.854c.414-.66 1.002-.991 1.763-.991.246 0 .433.032.561.096v1.175zm.697 2.495c0-.724.141-1.376.424-1.955a3.222 3.222 0 0 1 1.189-1.34c.511-.314 1.092-.471 1.744-.471 1.007 0 1.82.348 2.44 1.046.624.697.937 1.624.937 2.782v.089c0 .72-.139 1.367-.417 1.941a3.119 3.119 0 0 1-1.183 1.333c-.51.32-1.098.479-1.764.479-1.002 0-1.816-.349-2.44-1.046-.62-.697-.93-1.62-.93-2.769v-.089zm1.272.15c0 .821.189 1.48.567 1.976.383.497.893.745 1.531.745.643 0 1.153-.25 1.532-.752.378-.505.567-1.212.567-2.119 0-.81-.194-1.467-.581-1.968a1.825 1.825 0 0 0-1.531-.76c-.625 0-1.128.25-1.511.746-.383.497-.574 1.208-.574 2.133zm6.74-.143c0-1.135.269-2.046.807-2.734.537-.693 1.241-1.04 2.112-1.04.866 0 1.552.297 2.057.89V2.5h1.265V13h-1.162l-.062-.793c-.505.62-1.21.93-2.112.93-.857 0-1.556-.351-2.098-1.053-.538-.702-.807-1.618-.807-2.748V9.24zm1.265.144c0 .838.173 1.495.519 1.968.346.474.825.711 1.436.711.802 0 1.387-.36 1.756-1.08V7.586c-.378-.697-.959-1.046-1.743-1.046-.62 0-1.103.24-1.449.718-.346.478-.519 1.187-.519 2.126zm11.511 2.885c-.492.578-1.214.868-2.167.868-.788 0-1.39-.228-1.804-.684-.411-.46-.618-1.14-.623-2.037V5.604h1.265v4.778c0 1.12.456 1.681 1.367 1.681.966 0 1.609-.36 1.928-1.08v-5.38h1.265V13h-1.203l-.028-.731zm6.125-.165a1.82 1.82 0 0 0 1.183-.41 1.44 1.44 0 0 0 .56-1.025h1.197a2.295 2.295 0 0 1-.438 1.21 2.876 2.876 0 0 1-1.08.916c-.446.228-.92.342-1.422.342-1.007 0-1.809-.335-2.406-1.005-.592-.675-.889-1.595-.889-2.762v-.212c0-.72.132-1.36.397-1.92a3.02 3.02 0 0 1 1.135-1.306c.496-.31 1.082-.465 1.756-.465.83 0 1.518.248 2.065.745.551.497.845 1.142.882 1.934h-1.197c-.036-.478-.218-.87-.546-1.175-.324-.31-.725-.465-1.204-.465-.642 0-1.141.232-1.497.697-.351.46-.526 1.128-.526 2.003v.24c0 .851.175 1.508.526 1.968.351.46.853.69 1.504.69zm6.077-8.291v1.79h1.381v.978h-1.381v4.587c0 .296.062.52.185.67.123.146.333.219.629.219.146 0 .346-.028.601-.082V13a3.662 3.662 0 0 1-.97.137c-.565 0-.991-.171-1.279-.513-.287-.342-.43-.827-.43-1.456V6.581h-1.347v-.977h1.347V3.812h1.264zm7.171 7.225c0-.342-.13-.606-.389-.793-.256-.191-.704-.355-1.347-.492-.638-.137-1.146-.3-1.524-.492-.374-.192-.652-.42-.834-.684a1.649 1.649 0 0 1-.267-.943c0-.606.255-1.119.766-1.538.515-.42 1.171-.63 1.968-.63.839 0 1.518.217 2.037.65.525.433.787.987.787 1.661h-1.272c0-.346-.148-.645-.444-.895-.292-.25-.661-.376-1.108-.376-.46 0-.82.1-1.08.3a.946.946 0 0 0-.389.787c0 .305.12.535.362.69.241.155.677.303 1.306.445.633.14 1.146.31 1.538.505.392.196.681.433.868.711.191.274.287.609.287 1.005 0 .661-.264 1.192-.793 1.593-.529.396-1.215.595-2.058.595-.592 0-1.116-.105-1.572-.315a2.591 2.591 0 0 1-1.073-.875 2.148 2.148 0 0 1-.383-1.223h1.265c.022.424.191.76.506 1.011.319.246.738.37 1.257.37.479 0 .862-.096 1.149-.288.291-.196.437-.455.437-.779zm6.836-3.028l.506-4.963h5.1v1.169h-4.027l-.3 2.714c.487-.287 1.041-.431 1.661-.431.907 0 1.627.3 2.16.902.533.597.8 1.406.8 2.427 0 1.026-.278 1.834-.834 2.427-.552.588-1.324.882-2.318.882-.879 0-1.597-.244-2.153-.732-.556-.487-.873-1.162-.95-2.023h1.196c.078.57.28 1 .608 1.292.329.287.762.43 1.299.43.588 0 1.048-.2 1.381-.601.337-.401.506-.955.506-1.661 0-.666-.182-1.199-.547-1.6-.36-.405-.841-.608-1.442-.608-.552 0-.985.12-1.299.362l-.335.274-1.012-.26zm13.317-2.365a2.3 2.3 0 0 1-.397 1.326c-.26.387-.613.69-1.059.909.519.223.929.549 1.23.977.305.429.458.914.458 1.457 0 .86-.292 1.547-.875 2.057-.579.51-1.342.766-2.29.766-.957 0-1.725-.255-2.304-.766-.574-.515-.861-1.2-.861-2.058 0-.537.146-1.023.437-1.456a2.774 2.774 0 0 1 1.224-.984 2.608 2.608 0 0 1-1.046-.91 2.346 2.346 0 0 1-.383-1.318c0-.839.269-1.504.807-1.997.538-.492 1.246-.738 2.126-.738.875 0 1.581.246 2.119.738.542.493.814 1.158.814 1.997zm-1.033 4.641c0-.556-.177-1.01-.533-1.36-.351-.351-.811-.527-1.381-.527-.569 0-1.027.174-1.374.52-.341.346-.512.802-.512 1.367s.166 1.01.499 1.333c.337.324.804.486 1.401.486.592 0 1.057-.162 1.395-.486.337-.328.505-.772.505-1.333zm-1.9-6.337c-.497 0-.9.155-1.21.465-.305.305-.458.722-.458 1.251 0 .506.15.916.451 1.23.306.31.711.465 1.217.465.506 0 .909-.155 1.21-.464.305-.315.458-.725.458-1.231 0-.506-.157-.918-.472-1.237-.314-.32-.713-.479-1.196-.479zm9.605 4.676a3.094 3.094 0 0 1-.951.759 2.545 2.545 0 0 1-1.203.287c-.574 0-1.075-.141-1.504-.424-.424-.282-.752-.679-.984-1.19a4.081 4.081 0 0 1-.349-1.702c0-.665.126-1.264.376-1.797a2.805 2.805 0 0 1 1.08-1.224c.465-.283 1.007-.424 1.627-.424.985 0 1.759.37 2.325 1.108.569.733.854 1.736.854 3.007v.37c0 1.936-.383 3.351-1.148 4.245-.766.888-1.921 1.344-3.466 1.367h-.246V11.94h.266c1.044-.018 1.846-.289 2.406-.813.561-.529.866-1.363.917-2.502zm-1.949 0c.424 0 .814-.13 1.169-.39.36-.26.622-.58.786-.964v-.505c0-.83-.18-1.504-.54-2.024-.36-.52-.815-.78-1.367-.78-.556 0-1.002.215-1.34.643-.337.424-.506.985-.506 1.682 0 .68.162 1.24.486 1.682.328.437.765.656 1.312.656zm5.052 6.357l-.718-.492c.429-.597.652-1.212.67-1.845v-1.142h1.237v.991c0 .46-.113.92-.341 1.381-.224.46-.506.83-.848 1.107zm9.085-11.224L530.587 13h-1.326l4.108-8.914h-5.387v-1.04h6.727v.712zm7.103 5.817l-.793.827V13h-1.265V2.5h1.265v6.35l.676-.813 2.304-2.433h1.538l-2.878 3.09L545.872 13h-1.483l-2.577-3.425zm-19.264 23.833h1.353c.645 0 1.122-.16 1.433-.483.311-.322.466-.75.466-1.283 0-.516-.155-.917-.466-1.204-.305-.288-.727-.431-1.266-.431-.486 0-.893.135-1.221.404-.328.264-.493.61-.493 1.037h-2.54c0-.668.179-1.265.537-1.793.363-.533.867-.949 1.511-1.248a5.08 5.08 0 0 1 2.145-.448c1.353 0 2.414.325 3.181.976.768.644 1.152 1.535 1.152 2.671a2.7 2.7 0 0 1-.536 1.618c-.358.492-.826.87-1.407 1.133.721.258 1.257.645 1.609 1.16.357.516.536 1.126.536 1.829 0 1.136-.416 2.048-1.248 2.733-.826.686-1.922 1.028-3.287 1.028-1.278 0-2.323-.337-3.138-1.01-.808-.674-1.213-1.565-1.213-2.672h2.54c0 .48.179.873.536 1.178.364.304.809.457 1.336.457.604 0 1.076-.159 1.415-.475.346-.322.519-.747.519-1.275 0-1.277-.703-1.916-2.109-1.916h-1.345v-1.986zm8.13 1.23l.738-6.503h7.172v2.118h-5.089l-.316 2.75a4.024 4.024 0 0 1 1.924-.483c1.219 0 2.174.378 2.866 1.134.691.756 1.037 1.814 1.037 3.173 0 .826-.176 1.568-.528 2.224a3.69 3.69 0 0 1-1.494 1.52c-.65.358-1.418.536-2.302.536a5.009 5.009 0 0 1-2.154-.465 3.885 3.885 0 0 1-1.573-1.328 3.621 3.621 0 0 1-.606-1.942h2.513c.053.533.238.95.554 1.248.322.293.741.44 1.257.44.574 0 1.016-.206 1.327-.616.31-.416.466-1.002.466-1.758 0-.726-.179-1.283-.536-1.67-.358-.386-.865-.58-1.521-.58-.603 0-1.093.159-1.468.475l-.246.229-2.021-.501zm9.923-4.042c0-.785.254-1.421.764-1.907.51-.493 1.178-.739 2.004-.739.838 0 1.512.243 2.022.73.509.48.764 1.134.764 1.96v.633c0 .79-.255 1.426-.764 1.907-.51.48-1.178.72-2.004.72-.832 0-1.506-.24-2.022-.72-.51-.487-.764-1.14-.764-1.96v-.624zm1.687.677c0 .351.1.635.299.852.205.21.472.316.8.316.328 0 .589-.108.782-.325.193-.217.29-.507.29-.87v-.65c0-.352-.097-.636-.29-.853-.193-.217-.46-.325-.8-.325-.322 0-.583.108-.782.325-.199.211-.299.507-.299.888v.642zm4.43 6.52c0-.79.258-1.426.773-1.906.516-.487 1.184-.73 2.004-.73.832 0 1.503.24 2.013.72.515.475.773 1.132.773 1.97v.633c0 .785-.252 1.42-.756 1.907-.504.48-1.174.72-2.012.72-.844 0-1.521-.243-2.031-.73-.509-.485-.764-1.13-.764-1.933v-.65zm1.687.687c0 .322.106.597.317.826.211.228.474.342.791.342.715 0 1.072-.395 1.072-1.186v-.668c0-.352-.1-.633-.299-.844-.199-.217-.463-.325-.791-.325s-.592.108-.791.325c-.199.211-.299.501-.299.87v.66zm-4.517 1.494l-1.24-.668 6.249-10.002 1.24.668-6.249 10.002zM278.044 368.18l3.253 8.122 3.254-8.122h1.703v9.954h-1.313v-3.876l.123-4.184-3.267 8.06h-1.005l-3.261-8.04.13 4.164v3.876h-1.313v-9.954h1.696zm13.398 10.09c-1.003 0-1.818-.328-2.447-.984-.629-.661-.944-1.543-.944-2.646v-.232c0-.734.139-1.388.417-1.962a3.283 3.283 0 0 1 1.176-1.353 2.953 2.953 0 0 1 1.641-.493c.961 0 1.709.317 2.242.951.533.633.8 1.54.8 2.72v.527h-5.011c.018.729.23 1.319.636 1.77.41.447.929.67 1.558.67.447 0 .825-.091 1.135-.273.31-.183.581-.424.814-.725l.772.602c-.62.952-1.549 1.428-2.789 1.428zm-.157-6.631a1.68 1.68 0 0 0-1.285.561c-.347.369-.561.889-.643 1.559h3.705v-.096c-.036-.643-.21-1.139-.519-1.49-.31-.356-.73-.534-1.258-.534zm6.227-2.693v1.791h1.381v.978h-1.381v4.587c0 .296.062.519.185.669.123.146.333.219.629.219.146 0 .346-.027.601-.082v1.026a3.664 3.664 0 0 1-.97.136c-.565 0-.992-.171-1.279-.512-.287-.342-.43-.828-.43-1.456v-4.587h-1.347v-.978h1.347v-1.791h1.264zm7.431 9.188c-.073-.146-.132-.406-.178-.78-.588.611-1.289.916-2.105.916-.729 0-1.329-.205-1.798-.615a2.016 2.016 0 0 1-.697-1.572c0-.77.291-1.367.875-1.791.588-.429 1.412-.643 2.474-.643h1.231v-.581c0-.442-.132-.793-.397-1.053-.264-.264-.654-.396-1.169-.396-.451 0-.829.114-1.134.342-.306.228-.458.503-.458.827h-1.272c0-.369.13-.725.39-1.067.264-.346.62-.619 1.066-.82.451-.2.946-.301 1.484-.301.852 0 1.519.215 2.002.643.484.424.734 1.009.752 1.757v3.404c0 .679.087 1.219.26 1.62v.11h-1.326zm-2.099-.964c.397 0 .773-.103 1.128-.308.356-.205.613-.472.773-.8v-1.517h-.991c-1.55 0-2.325.453-2.325 1.36 0 .397.132.706.397.93.264.223.604.335 1.018.335zm6.522.964h-1.265v-10.5h1.265v10.5zm6.337-1.962c0-.342-.13-.606-.39-.793-.255-.192-.704-.356-1.347-.493-.638-.136-1.146-.3-1.524-.492-.374-.191-.652-.419-.834-.683a1.651 1.651 0 0 1-.267-.944c0-.606.256-1.118.766-1.538.515-.419 1.171-.629 1.969-.629.838 0 1.517.217 2.037.65.524.433.786.986.786 1.661h-1.271c0-.346-.149-.645-.445-.896-.291-.25-.661-.376-1.107-.376-.46 0-.821.101-1.08.301a.948.948 0 0 0-.39.786c0 .306.121.536.362.691.242.155.677.303 1.306.444.634.141 1.146.31 1.538.506.392.196.681.433.868.711.192.273.287.608.287 1.005 0 .661-.264 1.191-.793 1.593-.528.396-1.214.594-2.057.594-.593 0-1.117-.105-1.572-.314a2.595 2.595 0 0 1-1.074-.875 2.146 2.146 0 0 1-.382-1.224h1.264c.023.424.192.761.506 1.012.319.246.738.369 1.258.369.478 0 .861-.096 1.148-.287.292-.196.438-.456.438-.779zm10.308-3.029l.506-4.963h5.1v1.169h-4.027l-.3 2.714c.487-.287 1.041-.43 1.661-.43.907 0 1.627.3 2.16.902.533.597.8 1.406.8 2.427 0 1.025-.278 1.834-.834 2.426-.552.588-1.324.882-2.318.882-.879 0-1.597-.244-2.153-.731-.556-.488-.873-1.162-.95-2.024h1.196c.078.57.28 1.001.609 1.292.328.287.761.431 1.298.431.588 0 1.049-.2 1.381-.602.337-.401.506-.954.506-1.661 0-.665-.182-1.198-.547-1.599-.36-.406-.841-.609-1.442-.609-.552 0-.985.121-1.299.363l-.335.273-1.012-.26zm11.437 4.991h-1.272v-8.429l-2.549.936v-1.148l3.623-1.36h.198v10.001zm7.861 0h-1.271v-8.429l-2.55.936v-1.148l3.623-1.36h.198v10.001zm3.794 1.982l-.718-.492c.429-.597.652-1.212.67-1.846v-1.142h1.238v.992c0 .46-.114.92-.342 1.381-.224.46-.506.829-.848 1.107zm7.998-5.325h1.381v1.032h-1.381v2.311h-1.271v-2.311h-4.533v-.745l4.458-6.898h1.346v6.611zm-4.368 0h3.097v-4.881l-.151.273-2.946 4.608zm9.085-.082l-.793.827v2.598h-1.265v-10.5h1.265v6.35l.677-.813 2.303-2.434h1.539l-2.878 3.09 3.213 4.307h-1.484l-2.577-3.425zm-20.202 23.831h1.354c.644 0 1.122-.161 1.432-.483.311-.322.466-.75.466-1.283 0-.516-.155-.917-.466-1.204-.304-.288-.726-.431-1.265-.431-.487 0-.894.135-1.222.404-.328.264-.492.61-.492 1.037h-2.54c0-.668.179-1.265.536-1.793.363-.533.867-.949 1.512-1.248a5.07 5.07 0 0 1 2.144-.448c1.354 0 2.414.325 3.182.976.767.644 1.151 1.535 1.151 2.672 0 .585-.179 1.125-.536 1.617-.357.492-.826.87-1.406 1.134.721.257 1.257.644 1.608 1.16.358.515.536 1.125.536 1.828 0 1.137-.416 2.048-1.248 2.733-.826.686-1.922 1.029-3.287 1.029-1.277 0-2.323-.337-3.137-1.011-.809-.674-1.213-1.565-1.213-2.672h2.54c0 .48.178.873.536 1.178.363.304.808.457 1.336.457.603 0 1.075-.159 1.415-.475.345-.322.518-.747.518-1.274 0-1.278-.703-1.916-2.109-1.916h-1.345v-1.987zm16.365 2.233c0 1.769-.366 3.123-1.098 4.06-.733.938-1.805 1.407-3.217 1.407-1.395 0-2.461-.46-3.199-1.38-.738-.92-1.116-2.239-1.134-3.955v-2.356c0-1.787.369-3.143 1.107-4.069.745-.926 1.814-1.389 3.208-1.389 1.395 0 2.461.46 3.2 1.38.738.914 1.116 2.229 1.133 3.946v2.356zm-2.54-2.584c0-1.061-.146-1.831-.439-2.312-.287-.486-.738-.729-1.354-.729-.597 0-1.04.231-1.327.694-.281.457-.43 1.175-.448 2.153v3.112c0 1.043.141 1.819.422 2.329.287.504.744.756 1.371.756.621 0 1.069-.244 1.345-.73.275-.486.419-1.23.43-2.232v-3.041zm4.228-2.461c0-.785.255-1.421.765-1.907.509-.493 1.177-.739 2.004-.739.837 0 1.511.243 2.021.73.51.48.765 1.134.765 1.96v.633c0 .791-.255 1.426-.765 1.907-.51.48-1.178.72-2.004.72-.832 0-1.506-.24-2.021-.72-.51-.487-.765-1.14-.765-1.96v-.624zm1.687.677c0 .351.1.635.299.852.205.211.472.316.8.316.328 0 .589-.108.782-.325.194-.217.29-.507.29-.87v-.65c0-.352-.096-.636-.29-.853-.193-.217-.46-.325-.799-.325-.323 0-.584.108-.783.325-.199.211-.299.507-.299.888v.642zm4.43 6.521c0-.791.258-1.427.774-1.907.515-.487 1.183-.73 2.003-.73.833 0 1.503.241 2.013.721.516.475.774 1.131.774 1.969v.633c0 .785-.252 1.42-.756 1.907-.504.48-1.175.721-2.013.721-.844 0-1.52-.244-2.03-.73-.51-.486-.765-1.131-.765-1.934v-.65zm1.688.686c0 .322.105.597.316.826.211.228.475.343.791.343.715 0 1.072-.396 1.072-1.187v-.668c0-.352-.099-.633-.299-.844-.199-.217-.462-.325-.791-.325-.328 0-.591.108-.791.325-.199.211-.298.501-.298.87v.66zm-4.518 1.494l-1.239-.668 6.249-10.002 1.239.668-6.249 10.002zM8.084 167.216h-3.2v8.873H3.58v-8.873H.387v-1.081h7.697v1.081zm2.652 8.873H9.472v-7.397h1.264v7.397zM9.37 166.73c0-.205.062-.378.185-.519.127-.142.314-.212.56-.212.246 0 .433.07.56.212a.745.745 0 0 1 .192.519.724.724 0 0 1-.191.513c-.128.137-.315.205-.56.205-.247 0-.434-.068-.561-.205a.74.74 0 0 1-.185-.513zm4.587 1.962l.034.82c.543-.638 1.274-.957 2.195-.957 1.034 0 1.738.397 2.112 1.19.246-.356.565-.643.957-.861.396-.219.863-.329 1.401-.329 1.623 0 2.447.859 2.475 2.578v4.956h-1.265v-4.881c0-.529-.12-.923-.362-1.183-.242-.264-.647-.396-1.217-.396-.47 0-.859.141-1.169.423-.31.278-.49.654-.54 1.128v4.909h-1.271v-4.847c0-1.076-.527-1.613-1.58-1.613-.829 0-1.396.353-1.702 1.059v5.401H12.76v-7.397h1.196zm17.35 3.78c0 1.131-.26 2.04-.78 2.728-.52.684-1.216 1.025-2.091 1.025-.935 0-1.657-.33-2.167-.991l-.062.855h-1.162v-10.5h1.265v3.917c.51-.634 1.214-.951 2.112-.951.898 0 1.602.34 2.112 1.019.515.679.773 1.609.773 2.789v.109zm-1.265-.143c0-.861-.166-1.527-.499-1.996-.333-.47-.811-.704-1.436-.704-.834 0-1.433.387-1.797 1.162v3.199c.387.775.99 1.162 1.811 1.162.606 0 1.078-.235 1.415-.704.337-.469.506-1.176.506-2.119zm5.934 3.896c-1.003 0-1.819-.328-2.448-.984-.629-.661-.943-1.543-.943-2.646v-.232c0-.734.139-1.388.417-1.962a3.277 3.277 0 0 1 1.176-1.353 2.951 2.951 0 0 1 1.64-.493c.962 0 1.71.317 2.243.951.533.633.8 1.54.8 2.72v.527H33.85c.018.729.23 1.319.635 1.77.41.447.93.67 1.559.67.447 0 .825-.091 1.135-.273a2.86 2.86 0 0 0 .813-.725l.773.602c-.62.952-1.55 1.428-2.79 1.428zm-.158-6.631c-.51 0-.938.187-1.285.561-.346.369-.56.889-.642 1.559h3.705v-.096c-.037-.643-.21-1.139-.52-1.49-.31-.356-.729-.534-1.258-.534zm8.087.233a3.779 3.779 0 0 0-.622-.048c-.83 0-1.392.353-1.688 1.06v5.25H40.33v-7.397h1.23l.021.855c.415-.661 1.003-.992 1.764-.992.246 0 .433.032.56.096v1.176zm13.813.67h.95c.597-.009 1.066-.167 1.408-.472.342-.305.513-.718.513-1.237 0-1.167-.581-1.75-1.743-1.75-.547 0-.985.157-1.313.472-.323.309-.485.722-.485 1.237h-1.265c0-.789.287-1.443.861-1.962.58-.524 1.313-.786 2.202-.786.939 0 1.675.248 2.208.745.533.497.8 1.187.8 2.071 0 .433-.142.852-.424 1.258a2.51 2.51 0 0 1-1.142.909c.547.173.969.46 1.265.862.3.401.45.89.45 1.469 0 .893-.29 1.602-.874 2.126-.583.524-1.342.786-2.276.786-.935 0-1.696-.253-2.284-.758-.583-.506-.875-1.174-.875-2.003h1.272c0 .524.17.943.512 1.257.342.315.8.472 1.374.472.611 0 1.078-.159 1.402-.478.324-.319.485-.777.485-1.374 0-.579-.177-1.024-.533-1.333-.355-.31-.868-.47-1.538-.479h-.95v-1.032zm12.544 5.592H63.74v-.91l3.446-3.828c.51-.578.86-1.048 1.052-1.408a2.35 2.35 0 0 0 .294-1.128c0-.519-.157-.945-.471-1.278-.315-.333-.734-.499-1.258-.499-.63 0-1.12.18-1.47.54-.346.355-.52.852-.52 1.49H63.55c0-.916.294-1.656.882-2.222.592-.565 1.383-.847 2.372-.847.925 0 1.656.244 2.194.731.538.483.807 1.128.807 1.935 0 .98-.625 2.146-1.873 3.5l-2.666 2.891h4.997v1.033zm1.428 1.982l-.717-.492c.428-.597.651-1.212.67-1.846v-1.141h1.237v.991c0 .46-.114.92-.342 1.381-.223.46-.506.829-.848 1.107zm4.499-7.574h.95c.597-.009 1.066-.167 1.408-.472.342-.305.513-.718.513-1.237 0-1.167-.582-1.75-1.744-1.75-.547 0-.984.157-1.312.472-.324.309-.485.722-.485 1.237h-1.265c0-.789.287-1.443.861-1.962.579-.524 1.313-.786 2.201-.786.94 0 1.675.248 2.208.745.534.497.8 1.187.8 2.071 0 .433-.141.852-.424 1.258a2.51 2.51 0 0 1-1.141.909c.547.173.968.46 1.264.862.301.401.452.89.452 1.469 0 .893-.292 1.602-.875 2.126-.584.524-1.343.786-2.277.786-.934 0-1.695-.253-2.283-.758-.583-.506-.875-1.174-.875-2.003h1.271c0 .524.171.943.513 1.257.342.315.8.472 1.374.472.61 0 1.078-.159 1.402-.478.323-.319.485-.777.485-1.374 0-.579-.178-1.024-.533-1.333-.356-.31-.868-.47-1.538-.479h-.95v-1.032zm8.216 2.167l-.793.827v2.598h-1.264v-10.5h1.264v6.35l.677-.813 2.304-2.434h1.538l-2.878 3.09 3.213 4.307h-1.484l-2.577-3.425zm-74.712 31.36H.922v-1.74l4.14-4.412c.568-.621.987-1.163 1.256-1.626.276-.463.413-.902.413-1.319 0-.568-.143-1.013-.43-1.335-.287-.329-.697-.493-1.23-.493-.575 0-1.029.2-1.363.598-.328.393-.492.911-.492 1.556H.667c0-.78.185-1.492.554-2.136a3.936 3.936 0 0 1 1.582-1.512c.68-.369 1.45-.553 2.311-.553 1.319 0 2.341.316 3.068.949.732.633 1.098 1.526 1.098 2.68 0 .633-.164 1.278-.492 1.934-.328.656-.89 1.421-1.687 2.294l-2.91 3.067h5.502v2.048zm1.53-10.336c0-.785.254-1.421.764-1.907.51-.492 1.178-.738 2.004-.738.838 0 1.512.243 2.022.729.51.481.764 1.134.764 1.96v.633c0 .791-.255 1.427-.764 1.907-.51.481-1.178.721-2.004.721-.832 0-1.506-.24-2.022-.721-.51-.486-.764-1.139-.764-1.96v-.624zm1.687.677c0 .352.1.636.299.853.205.21.472.316.8.316.328 0 .589-.108.782-.325.193-.217.29-.507.29-.87v-.651c0-.351-.097-.636-.29-.852-.193-.217-.46-.326-.8-.326-.322 0-.583.109-.782.326-.2.211-.299.507-.299.887v.642zm4.43 6.521c0-.791.258-1.426.773-1.907.516-.486 1.184-.729 2.004-.729.832 0 1.503.24 2.013.72.515.475.773 1.131.773 1.969v.633c0 .785-.252 1.421-.755 1.907-.504.481-1.175.721-2.013.721-.844 0-1.52-.243-2.03-.73-.51-.486-.765-1.13-.765-1.933v-.651zm1.687.686c0 .322.106.598.317.826.21.229.474.343.79.343.716 0 1.073-.396 1.073-1.187v-.668c0-.351-.1-.632-.299-.843-.199-.217-.463-.325-.79-.325-.329 0-.593.108-.792.325-.199.211-.299.501-.299.87v.659zm-4.517 1.494l-1.24-.668 6.25-10.002 1.239.668-6.25 10.002zm458.336-51.139c-.123 1.052-.512 1.866-1.169 2.44-.651.57-1.519.855-2.604.855-1.176 0-2.119-.422-2.83-1.265-.707-.843-1.06-1.971-1.06-3.384v-.957c0-.925.164-1.738.492-2.44.333-.702.802-1.24 1.409-1.614.606-.378 1.308-.567 2.105-.567 1.057 0 1.905.296 2.543.889.638.588 1.009 1.403 1.114 2.447h-1.319c-.114-.793-.362-1.367-.745-1.723-.378-.355-.909-.533-1.593-.533-.838 0-1.497.31-1.975.93-.474.62-.711 1.502-.711 2.645v.964c0 1.08.225 1.939.676 2.577.451.638 1.083.957 1.894.957.729 0 1.287-.164 1.675-.492.392-.332.651-.909.779-1.729h1.319zm1.265-.609c0-.724.141-1.376.424-1.955.287-.578.683-1.025 1.189-1.34.511-.314 1.092-.471 1.743-.471 1.008 0 1.821.348 2.441 1.046.624.697.936 1.624.936 2.782v.089c0 .72-.139 1.367-.417 1.941a3.109 3.109 0 0 1-1.182 1.333c-.511.319-1.099.479-1.764.479-1.003 0-1.816-.349-2.44-1.046-.62-.697-.93-1.62-.93-2.769v-.089zm1.271.151c0 .82.19 1.479.568 1.975.383.497.893.745 1.531.745.643 0 1.153-.25 1.531-.751.379-.506.568-1.213.568-2.12 0-.811-.194-1.467-.581-1.968-.383-.506-.894-.759-1.532-.759-.624 0-1.128.248-1.51.745-.383.497-.575 1.208-.575 2.133zm11.615 3.616c-.073-.146-.132-.406-.178-.779-.588.61-1.29.916-2.105.916-.73 0-1.329-.205-1.798-.616a2.014 2.014 0 0 1-.698-1.572c0-.77.292-1.367.875-1.791.588-.428 1.413-.642 2.475-.642h1.23v-.581c0-.443-.132-.793-.396-1.053-.264-.265-.654-.397-1.169-.397-.451 0-.829.114-1.135.342-.305.228-.458.504-.458.827h-1.271c0-.369.13-.724.389-1.066.265-.347.62-.62 1.067-.82a3.6 3.6 0 0 1 1.483-.301c.852 0 1.52.214 2.003.642.483.424.734 1.01.752 1.757v3.404c0 .68.087 1.22.26 1.621v.109h-1.326zm-2.099-.964c.397 0 .773-.102 1.128-.308.355-.205.613-.471.772-.799v-1.518h-.991c-1.549 0-2.324.454-2.324 1.36 0 .397.132.707.397.93.264.223.603.335 1.018.335zm6.522.964h-1.265v-10.5h1.265v10.5zm6.336-1.962c0-.342-.129-.606-.389-.793-.255-.191-.704-.355-1.347-.492-.638-.137-1.146-.301-1.524-.492-.374-.192-.652-.42-.834-.684a1.648 1.648 0 0 1-.267-.943c0-.606.255-1.119.766-1.538.515-.42 1.171-.629 1.969-.629.838 0 1.517.216 2.037.649.524.433.786.987.786 1.661h-1.272c0-.346-.148-.645-.444-.895-.292-.251-.661-.376-1.107-.376-.461 0-.821.1-1.081.301a.947.947 0 0 0-.389.786c0 .305.121.535.362.69.242.155.677.303 1.306.444.633.142 1.146.31 1.538.506.392.196.681.433.868.711.191.274.287.609.287 1.005 0 .661-.264 1.192-.793 1.593-.528.396-1.214.595-2.057.595-.593 0-1.117-.105-1.573-.315a2.59 2.59 0 0 1-1.073-.875 2.146 2.146 0 0 1-.383-1.223h1.265c.023.423.191.761.506 1.011.319.246.738.369 1.258.369.478 0 .861-.095 1.148-.287.292-.196.437-.455.437-.779zm13.884 1.962h-1.271v-8.429l-2.55.937v-1.149l3.623-1.36h.198v10.001zm9.741-7.356c0 .497-.132.939-.396 1.327-.26.387-.613.69-1.06.909.52.223.93.549 1.231.977.305.429.458.914.458 1.456 0 .862-.292 1.548-.875 2.058-.579.51-1.342.766-2.29.766-.957 0-1.725-.256-2.304-.766-.574-.515-.861-1.201-.861-2.058 0-.537.146-1.023.437-1.456a2.766 2.766 0 0 1 1.224-.984 2.612 2.612 0 0 1-1.046-.909 2.348 2.348 0 0 1-.383-1.32c0-.838.269-1.503.807-1.996.538-.492 1.246-.738 2.126-.738.875 0 1.581.246 2.119.738.542.493.813 1.158.813 1.996zm-1.032 4.642c0-.556-.177-1.009-.533-1.36-.351-.351-.811-.527-1.381-.527-.569 0-1.027.174-1.374.52-.342.346-.513.802-.513 1.367s.167 1.01.499 1.333c.338.324.805.485 1.402.485.592 0 1.057-.161 1.394-.485.338-.328.506-.772.506-1.333zm-1.9-6.337c-.497 0-.9.155-1.21.465-.305.305-.458.722-.458 1.251 0 .506.15.916.451 1.23.305.31.711.465 1.217.465.506 0 .909-.155 1.21-.465.305-.314.458-.724.458-1.23s-.157-.918-.472-1.237c-.314-.319-.713-.479-1.196-.479zm10.097 5.708h1.38v1.032h-1.38v2.311h-1.272v-2.311h-4.532v-.745l4.457-6.897h1.347v6.61zm-4.369 0h3.097v-4.881l-.15.274-2.947 4.607zm6.98 5.325l-.718-.492c.428-.597.652-1.212.67-1.846v-1.141h1.237v.991a3.1 3.1 0 0 1-.341 1.381c-.224.46-.506.829-.848 1.107zm7.998-5.325h1.381v1.032h-1.381v2.311h-1.272v-2.311h-4.532v-.745l4.457-6.897h1.347v6.61zm-4.368 0h3.096v-4.881l-.15.274-2.946 4.607zm9.085-.082l-.793.827v2.598h-1.265v-10.5h1.265v6.351l.676-.814 2.304-2.434h1.538l-2.878 3.09 3.213 4.307h-1.483l-2.577-3.425zm-20.591 33.36h-2.54v-9.791l-3.032.94v-2.065l5.3-1.898h.272v12.814zm10.336 0h-2.54v-9.791l-3.032.94v-2.065l5.3-1.898h.272v12.814zm4.131-10.336c0-.785.255-1.421.765-1.907.509-.492 1.177-.738 2.004-.738.837 0 1.511.243 2.021.729.51.481.765 1.134.765 1.96v.633c0 .791-.255 1.427-.765 1.907-.51.481-1.178.721-2.004.721-.832 0-1.506-.24-2.021-.721-.51-.486-.765-1.14-.765-1.96v-.624zm1.688.677c0 .351.099.636.298.852.205.211.472.317.8.317.328 0 .589-.109.782-.325.194-.217.29-.507.29-.871v-.65c0-.351-.096-.636-.29-.852-.193-.217-.46-.326-.799-.326-.323 0-.583.109-.783.326-.199.21-.298.506-.298.887v.642zm4.429 6.521c0-.791.258-1.426.774-1.907.515-.486 1.183-.729 2.004-.729.832 0 1.503.24 2.012.72.516.475.774 1.131.774 1.969v.633c0 .785-.252 1.421-.756 1.907-.504.481-1.175.721-2.013.721-.844 0-1.52-.243-2.03-.73-.51-.486-.765-1.131-.765-1.933v-.651zm1.688.686c0 .322.105.598.316.826.211.229.475.343.791.343.715 0 1.072-.396 1.072-1.187v-.668c0-.351-.099-.632-.298-.843-.2-.217-.463-.326-.791-.326-.329 0-.592.109-.791.326-.2.211-.299.501-.299.87v.659zm-4.518 1.494l-1.239-.668 6.249-10.002 1.239.668-6.249 10.002zM431.186 297.407h-4.177v4.396h-1.312v-9.953h6.166v1.08h-4.854v3.404h4.177v1.073zm4.97 4.533c-1.003 0-1.819-.328-2.448-.985-.629-.66-.943-1.542-.943-2.645v-.233c0-.733.139-1.387.417-1.962a3.281 3.281 0 0 1 1.176-1.353 2.957 2.957 0 0 1 1.64-.492c.962 0 1.709.317 2.242.95.534.633.8 1.54.8 2.721v.526h-5.01c.018.729.23 1.319.635 1.771.41.446.93.669 1.559.669.446 0 .825-.091 1.135-.273.31-.182.581-.424.813-.725l.773.602c-.62.952-1.55 1.429-2.789 1.429zm-.158-6.631c-.51 0-.939.187-1.285.56-.346.37-.56.889-.642 1.559h3.705v-.096c-.037-.642-.21-1.139-.52-1.49-.31-.355-.729-.533-1.258-.533zm8.087.232a3.777 3.777 0 0 0-.622-.048c-.829 0-1.392.354-1.688 1.06v5.25h-1.265v-7.397h1.23l.021.855c.415-.661 1.003-.991 1.764-.991.246 0 .433.032.56.095v1.176zm3.227-2.926v1.791h1.381v.978h-1.381v4.587c0 .296.061.519.184.67.123.146.333.219.629.219.146 0 .347-.028.602-.082v1.025a3.674 3.674 0 0 1-.971.137c-.565 0-.991-.171-1.278-.513-.287-.342-.431-.827-.431-1.456v-4.587H444.7v-.978h1.347v-1.791h1.265zm4.238 9.188h-1.265v-7.397h1.265v7.397zm-1.367-9.358c0-.205.061-.379.184-.52.128-.141.315-.212.561-.212.246 0 .433.071.561.212a.75.75 0 0 1 .191.52.722.722 0 0 1-.191.512c-.128.137-.315.205-.561.205-.246 0-.433-.068-.561-.205a.735.735 0 0 1-.184-.512zm4.771 9.358h-1.264v-10.5h1.264v10.5zm3.405 0h-1.265v-7.397h1.265v7.397zm-1.368-9.358c0-.205.062-.379.185-.52.128-.141.314-.212.561-.212.246 0 .433.071.56.212a.746.746 0 0 1 .192.52.718.718 0 0 1-.192.512c-.127.137-.314.205-.56.205-.247 0-.433-.068-.561-.205a.735.735 0 0 1-.185-.512zm4.587 8.326h4.328v1.032h-5.873v-.93l4.082-5.421h-4.02v-1.046h5.605v.896l-4.122 5.469zm8.716 1.169c-1.002 0-1.818-.328-2.447-.985-.629-.66-.943-1.542-.943-2.645v-.233c0-.733.139-1.387.417-1.962a3.286 3.286 0 0 1 1.175-1.353 2.96 2.96 0 0 1 1.641-.492c.962 0 1.709.317 2.242.95.533.633.8 1.54.8 2.721v.526h-5.011c.018.729.23 1.319.636 1.771.41.446.93.669 1.559.669.446 0 .824-.091 1.134-.273.31-.182.581-.424.814-.725l.772.602c-.62.952-1.549 1.429-2.789 1.429zm-.157-6.631c-.51 0-.939.187-1.285.56-.347.37-.561.889-.643 1.559h3.705v-.096c-.036-.642-.209-1.139-.519-1.49-.31-.355-.729-.533-1.258-.533zm8.087.232a3.785 3.785 0 0 0-.622-.048c-.83 0-1.392.354-1.689 1.06v5.25h-1.264v-7.397h1.23l.021.855c.414-.661 1.002-.991 1.763-.991.246 0 .433.032.561.095v1.176zm5.475 4.3c0-.342-.129-.606-.389-.793-.255-.191-.704-.355-1.347-.492-.638-.137-1.146-.301-1.524-.492-.374-.192-.652-.42-.834-.684a1.648 1.648 0 0 1-.267-.943c0-.606.255-1.119.766-1.538.515-.42 1.171-.629 1.969-.629.838 0 1.517.216 2.037.649.524.433.786.987.786 1.661h-1.272c0-.346-.148-.645-.444-.895-.292-.251-.661-.376-1.107-.376-.461 0-.821.1-1.081.301a.947.947 0 0 0-.389.786c0 .305.121.535.362.69.242.155.677.303 1.306.445.633.141 1.146.309 1.538.505.392.196.681.433.868.711.191.274.287.609.287 1.005 0 .661-.264 1.192-.793 1.593-.529.396-1.214.595-2.057.595-.593 0-1.117-.105-1.573-.315a2.59 2.59 0 0 1-1.073-.875 2.146 2.146 0 0 1-.383-1.223h1.265c.023.423.191.761.506 1.011.319.246.738.369 1.258.369.478 0 .861-.095 1.148-.287.292-.196.437-.455.437-.779zm11.567-3.63h.95c.597-.009 1.066-.166 1.408-.471.342-.306.513-.718.513-1.238 0-1.166-.581-1.75-1.743-1.75-.547 0-.985.157-1.313.472-.323.31-.485.722-.485 1.237h-1.265c0-.788.287-1.442.862-1.962.578-.524 1.312-.786 2.201-.786.939 0 1.675.249 2.208.745.533.497.8 1.187.8 2.072 0 .432-.142.852-.424 1.257a2.52 2.52 0 0 1-1.142.91c.547.173.969.46 1.265.861.301.401.451.891.451 1.47 0 .893-.292 1.601-.875 2.126-.583.524-1.342.786-2.276.786-.935 0-1.696-.253-2.284-.759-.583-.506-.875-1.174-.875-2.003h1.272c0 .524.171.943.513 1.258.341.314.799.471 1.374.471.61 0 1.077-.159 1.401-.478.324-.319.485-.777.485-1.374 0-.579-.177-1.023-.533-1.333-.355-.31-.868-.469-1.538-.479h-.95v-1.032zm10.179 5.592h-1.272v-8.429l-2.55.937v-1.149l3.623-1.36h.199v10.001zm9.044-3.343h1.38v1.032h-1.38v2.311h-1.272v-2.311h-4.532v-.745l4.457-6.897h1.347v6.61zm-4.369 0h3.097v-4.881l-.15.274-2.947 4.607zm6.98 5.325l-.718-.492c.428-.597.652-1.212.67-1.845v-1.142h1.237v.991a3.1 3.1 0 0 1-.341 1.381c-.224.46-.506.829-.848 1.107zm7.506-6.357a3.106 3.106 0 0 1-.95.759 2.556 2.556 0 0 1-1.204.287c-.574 0-1.075-.141-1.504-.424a2.78 2.78 0 0 1-.984-1.189 4.1 4.1 0 0 1-.349-1.703c0-.665.126-1.264.376-1.797a2.813 2.813 0 0 1 1.081-1.224c.464-.283 1.007-.424 1.626-.424.985 0 1.76.369 2.325 1.108.569.733.854 1.736.854 3.007v.37c0 1.936-.383 3.351-1.148 4.245-.766.888-1.921 1.344-3.466 1.367h-.246v-1.067h.266c1.044-.018 1.846-.289 2.407-.813.56-.529.866-1.363.916-2.502zm-1.949 0c.424 0 .814-.13 1.169-.39.36-.259.622-.581.787-.964v-.505c0-.83-.18-1.504-.54-2.024-.361-.519-.816-.779-1.368-.779-.556 0-1.002.214-1.34.642-.337.424-.505.985-.505 1.682 0 .679.161 1.24.485 1.682a1.56 1.56 0 0 0 1.312.656zm7.158.95l-.793.827v2.598h-1.265v-10.5h1.265v6.351l.676-.814 2.304-2.434h1.538l-2.878 3.09 3.213 4.307h-1.483l-2.577-3.425zm-19.986 31.361h-2.54v-9.791l-3.032.941v-2.066l5.3-1.898h.272v12.814zm12.507-9.395c0 .621-.155 1.172-.466 1.652-.31.481-.738.864-1.283 1.151a3.692 3.692 0 0 1 1.476 1.24c.364.521.545 1.136.545 1.845 0 1.137-.386 2.037-1.16 2.699-.773.656-1.825.984-3.155.984-1.33 0-2.385-.331-3.164-.993-.779-.662-1.169-1.559-1.169-2.69 0-.709.182-1.327.545-1.854a3.642 3.642 0 0 1 1.468-1.231 3.352 3.352 0 0 1-1.284-1.151c-.304-.48-.457-1.031-.457-1.652 0-1.09.364-1.957 1.09-2.602.727-.65 1.714-.975 2.962-.975 1.242 0 2.227.322 2.953.966.733.639 1.099 1.509 1.099 2.611zm-2.276 5.704c0-.557-.162-1.002-.484-1.336-.322-.334-.756-.501-1.301-.501-.539 0-.969.167-1.292.501-.322.328-.483.773-.483 1.336 0 .545.158.984.475 1.318.316.334.755.501 1.318.501.551 0 .981-.161 1.292-.483.316-.322.475-.768.475-1.336zm-.264-5.581c0-.498-.132-.897-.396-1.196-.263-.304-.635-.457-1.116-.457-.474 0-.844.147-1.107.44-.264.293-.396.697-.396 1.213 0 .51.132.92.396 1.23.263.311.635.466 1.116.466.48 0 .85-.155 1.107-.466.264-.31.396-.72.396-1.23zm4.5-1.064c0-.785.255-1.421.765-1.907.509-.492 1.177-.738 2.003-.738.838 0 1.512.243 2.022.729.51.481.765 1.134.765 1.96v.633c0 .791-.255 1.427-.765 1.907-.51.481-1.178.721-2.004.721-.832 0-1.506-.24-2.021-.721-.51-.486-.765-1.139-.765-1.96v-.624zm1.687.677c0 .352.1.636.299.853.205.211.472.316.8.316.328 0 .589-.108.782-.325.194-.217.29-.507.29-.87v-.651c0-.351-.096-.635-.29-.852-.193-.217-.46-.325-.8-.325-.322 0-.583.108-.782.325-.199.211-.299.507-.299.887v.642zm4.43 6.522c0-.791.258-1.427.774-1.908.515-.486 1.183-.729 2.003-.729.832 0 1.503.24 2.013.721.516.474.774 1.13.774 1.968v.633c0 .785-.252 1.421-.756 1.907-.504.481-1.175.721-2.013.721-.844 0-1.52-.243-2.03-.729-.51-.487-.765-1.131-.765-1.934v-.65zm1.688.685c0 .322.105.598.316.826.211.229.475.343.791.343.715 0 1.072-.395 1.072-1.186v-.668c0-.352-.099-.633-.299-.844-.199-.217-.462-.325-.791-.325-.328 0-.591.108-.791.325-.199.211-.298.501-.298.87v.659zm-4.518 1.494l-1.239-.668 6.249-10.002 1.239.668-6.249 10.002zM20.06 261.289c0 .975-.165 1.828-.493 2.557-.328.724-.793 1.278-1.394 1.661-.602.383-1.303.574-2.106.574-.784 0-1.479-.191-2.085-.574-.606-.388-1.077-.937-1.415-1.648-.332-.715-.503-1.542-.512-2.481v-.718c0-.957.166-1.802.499-2.536.332-.734.802-1.294 1.408-1.682.61-.392 1.308-.588 2.092-.588.797 0 1.5.194 2.105.582.61.382 1.08.941 1.408 1.674.328.73.493 1.579.493 2.55v.629zm-1.306-.643c0-1.18-.237-2.084-.711-2.713-.474-.634-1.137-.951-1.99-.951-.829 0-1.483.317-1.961.951-.474.629-.718 1.504-.732 2.625v.731c0 1.144.24 2.044.718 2.7.483.652 1.146.978 1.99.978.847 0 1.503-.308 1.968-.923.465-.62.704-1.506.718-2.659v-.739zm6.651-.963a3.779 3.779 0 0 0-.622-.048c-.83 0-1.392.353-1.688 1.059v5.25H21.83v-7.396h1.23l.021.854c.415-.66 1.003-.991 1.764-.991.246 0 .433.032.56.096v1.176zm4.102 6.398c-1.003 0-1.819-.328-2.447-.984-.63-.661-.944-1.543-.944-2.646v-.232c0-.734.14-1.388.417-1.962a3.287 3.287 0 0 1 1.176-1.354 2.958 2.958 0 0 1 1.64-.492c.962 0 1.71.317 2.243.95.533.634.8 1.541.8 2.721v.526H27.38c.018.73.23 1.32.636 1.771.41.447.93.67 1.558.67.447 0 .825-.091 1.135-.274a2.84 2.84 0 0 0 .813-.724l.773.601c-.62.953-1.55 1.429-2.79 1.429zm-.157-6.631c-.51 0-.94.187-1.286.561-.346.369-.56.888-.642 1.558h3.705v-.095c-.037-.643-.21-1.14-.52-1.491-.31-.355-.729-.533-1.257-.533zm14.376 6.494h-6.522v-.909l3.445-3.828c.51-.579.862-1.048 1.053-1.408.196-.365.294-.741.294-1.128 0-.52-.157-.946-.472-1.278-.314-.333-.733-.499-1.257-.499-.63 0-1.12.18-1.47.54-.346.355-.52.852-.52 1.49h-1.264c0-.916.294-1.657.882-2.222.592-.565 1.383-.848 2.372-.848.925 0 1.656.244 2.194.732.538.483.807 1.128.807 1.935 0 .979-.625 2.146-1.873 3.5l-2.667 2.891h4.998v1.032zm6.678-3.342h1.381v1.032h-1.38v2.31h-1.272v-2.31H44.6v-.745l4.457-6.898h1.346v6.611zm-4.368 0h3.097v-4.881l-.15.273-2.947 4.608zm6.98 5.325l-.718-.492c.428-.597.651-1.213.67-1.846v-1.142h1.237v.991c0 .461-.114.921-.342 1.381-.223.461-.506.83-.847 1.108zm8.9-6.228c0 1.481-.253 2.582-.759 3.302-.506.72-1.296 1.08-2.372 1.08-1.062 0-1.848-.351-2.358-1.053-.51-.706-.775-1.759-.793-3.158v-1.688c0-1.463.253-2.55.759-3.261.505-.711 1.298-1.067 2.379-1.067 1.07 0 1.859.345 2.365 1.033.506.683.765 1.741.779 3.172v1.64zm-1.265-1.729c0-1.071-.15-1.851-.45-2.338-.302-.492-.778-.738-1.43-.738-.647 0-1.118.243-1.415.731-.296.488-.448 1.237-.458 2.249v2.023c0 1.076.155 1.871.465 2.386.315.511.789.766 1.422.766.625 0 1.087-.242 1.388-.725.305-.483.465-1.244.478-2.283v-2.071zm5.08 2.55l-.793.827v2.597h-1.265v-10.5h1.264v6.351l.677-.814 2.304-2.433h1.538l-2.878 3.09 3.213 4.306h-1.483l-2.578-3.424zm-47.443 31.359h-2.54v-9.791l-3.032.941v-2.066l5.3-1.898h.272v12.814zm4.13-10.336c0-.785.256-1.42.766-1.907.51-.492 1.177-.738 2.003-.738.838 0 1.512.243 2.022.729.51.481.765 1.134.765 1.96v.633c0 .791-.255 1.427-.765 1.907-.51.481-1.178.721-2.004.721-.832 0-1.506-.24-2.021-.721-.51-.486-.765-1.139-.765-1.96v-.624zm1.688.677c0 .352.1.636.3.853.204.211.471.316.8.316.327 0 .588-.108.781-.325.194-.217.29-.507.29-.87v-.651c0-.351-.096-.635-.29-.852-.193-.217-.46-.325-.8-.325-.322 0-.582.108-.782.325-.199.211-.299.507-.299.888v.641zm4.43 6.522c0-.791.258-1.427.774-1.908.515-.486 1.183-.729 2.004-.729.831 0 1.502.24 2.012.721.516.474.774 1.131.774 1.968v.633c0 .785-.252 1.421-.756 1.907-.504.481-1.175.721-2.013.721-.844 0-1.52-.243-2.03-.729-.51-.487-.765-1.131-.765-1.934v-.65zm1.688.685c0 .323.105.598.316.826.211.229.475.343.791.343.715 0 1.072-.395 1.072-1.186v-.668c0-.352-.1-.633-.298-.844-.2-.217-.463-.325-.791-.325-.329 0-.592.108-.791.325-.2.211-.3.501-.3.87v.659zm-4.518 1.494l-1.24-.668 6.25-10.002 1.24.668-6.25 10.002z" fill="#009487"/><path d="M54.846 20.738h127.169v44.608m365.736-44.608H375.682v38.499M547.75 164.08h-92.357v35.373h-39.075m116.797 109.673H362.467v-41.198m4.831 117.913H211.711V272.758m-199.492.142h111.113V93.332h36.374" stroke="#009487" stroke-width=".5" stroke-miterlimit="10"/><path d="M0 183.258h105.572V79.978h65.644" stroke="#009487" stroke-width=".5" stroke-miterlimit="10"/><path d="M182.015 68.613c1.847 0 3.268-1.42 3.268-3.267s-1.421-3.268-3.268-3.268c-1.847 0-3.268 1.42-3.268 3.268 0 1.846 1.421 3.267 3.268 3.267zm193.666-6.109c-1.847 0-3.268-1.42-3.268-3.267s1.421-3.268 3.268-3.268c1.847 0 3.268 1.42 3.268 3.268.142 1.846-1.421 3.267-3.268 3.267zm40.638 140.217c-1.847 0-3.268-1.421-3.268-3.268 0-1.846 1.421-3.267 3.268-3.267 1.847 0 3.268 1.421 3.268 3.267 0 1.847-1.563 3.268-3.268 3.268zm-53.852 61.94c-1.847 0-3.268 1.42-3.268 3.267s1.421 3.268 3.268 3.268c1.847 0 3.268-1.421 3.268-3.268 0-1.847-1.421-3.267-3.268-3.267zm-150.756 4.688c-1.847 0-3.268 1.42-3.268 3.267s1.421 3.267 3.268 3.267c1.848 0 3.268-1.42 3.268-3.267s-1.42-3.267-3.268-3.267zM159.707 90.064c1.847 0 3.268 1.421 3.268 3.268 0 1.847-1.421 3.267-3.268 3.267-1.847 0-3.268-1.42-3.268-3.267-.142-1.847 1.421-3.267 3.268-3.267zm11.509-13.354c1.848 0 3.268 1.421 3.268 3.268 0 1.847-1.42 3.268-3.268 3.268-1.847 0-3.268-1.421-3.268-3.268-.142-1.847 1.421-3.267 3.268-3.267z" fill="#009487"/></svg>