<svg width="564" height="415" fill="none" xmlns="http://www.w3.org/2000/svg"><path d="M172.921 57.532c56.551-63.928 154.308-70.037 218.247-13.496 28.702 25.287 46.89 60.519 51.152 98.592l-76.87 8.666c-4.688-42.477-42.91-72.879-85.395-68.19-19.039 2.13-36.658 11.222-49.304 25.571l-57.83-51.143z" fill="#14ADEA"/><path d="M366.02 150.584l75.733-8.524c-4.405-37.789-22.45-72.453-50.868-97.598-63.371-56.115-160.702-50.29-216.969 12.928l56.978 50.432c12.788-14.206 30.264-23.298 49.304-25.429 20.745-2.273 41.064 3.552 57.262 16.48 15.914 13.069 26.144 31.253 28.56 51.711zm76.727-7.53c-.142.142-.284.142-.426.142l-76.87 8.666c-.142 0-.284 0-.426-.142-.142-.142-.142-.284-.284-.426-2.274-20.315-12.362-38.641-28.276-51.427-16.056-12.786-36.09-18.61-56.409-16.195-18.898 2.13-36.232 11.223-48.878 25.429-.142.284-.569.284-.853 0l-57.83-51.143c-.284-.142-.284-.568 0-.852 56.694-64.07 155.019-70.18 219.1-13.496 28.844 25.571 47.032 60.661 51.294 98.876 0 .284 0 .426-.142.568z" fill="#fff"/><path d="M442.321 142.628c1.421 12.928 1.279 25.855-.568 38.783l-76.586-10.655c.853-6.392.995-12.927.284-19.32l76.87-8.808z" fill="#DEDFE0"/><path d="M365.877 170.188l75.449 10.513c1.705-12.359 1.847-25.003.568-37.505l-75.733 8.524c.568 6.109.568 12.36-.284 18.468zm76.301 11.508c-.142.142-.284.284-.568.142l-76.586-10.655c-.142 0-.284-.142-.426-.284-.142-.142-.142-.284-.142-.426.853-6.393.995-12.786.284-19.179 0-.284.142-.568.569-.71l76.869-8.666c.142 0 .284 0 .427.142.142.142.142.284.284.426 1.421 12.928 1.279 25.998-.569 38.925 0 .142 0 .285-.142.285z" fill="#fff"/><path d="M441.753 181.411c-7.673 54.411-43.622 100.581-94.347 121.464l-29.27-71.457c25.434-10.513 43.337-33.527 47.173-60.803l76.444 10.796z" fill="#CFE3F2"/><path d="M347.69 302.165c50.015-20.741 85.679-66.769 93.494-120.327l-75.449-10.513c-3.979 26.85-21.882 49.864-46.889 60.377l28.844 70.463zm56.977-39.493a157.068 157.068 0 0 1-57.119 40.772h-.427a.305.305 0 0 1-.284-.284l-29.412-71.458c-.142-.284 0-.71.284-.71 25.15-10.371 43.053-33.385 46.889-60.377 0-.285.284-.569.711-.427l76.585 10.655c.142 0 .284.142.426.284.143.142.143.284.143.426-4.405 30.402-17.762 58.673-37.796 81.119z" fill="#fff"/><path d="M347.406 302.876c-79.001 32.532-169.227-5.257-201.623-84.102-9.094-22.02-12.93-45.886-11.225-69.753l77.154 5.398c-3.126 42.619 28.986 79.556 71.612 82.539a76.589 76.589 0 0 0 34.812-5.682l29.27 71.6z" fill="#41BAAA"/><path d="M134.983 149.589c-1.563 23.441 2.274 47.165 11.225 68.901 15.63 38.073 45.042 67.764 83.122 83.533 37.795 15.769 79.427 15.911 117.365.568l-28.844-70.463c-10.941 4.404-22.876 6.251-34.527 5.398-20.745-1.42-39.643-10.938-53.284-26.565-13.498-15.627-20.176-35.374-18.897-55.973l-76.16-5.399zm212.849 153.713s-.143.142-.285.142c-38.363 15.769-80.564 15.627-118.785-.284-38.222-15.911-67.919-45.887-83.69-84.244-9.094-22.02-12.93-46.171-11.225-70.037 0-.284.284-.568.568-.568l77.154 5.398c.142 0 .284.142.426.142.142.142.142.284.142.426-1.421 20.457 5.115 40.204 18.472 55.689 13.356 15.485 32.112 24.719 52.43 26.282 11.794.852 23.729-1.137 34.67-5.541h.426c.142 0 .284.142.284.284l29.27 71.458c.285.427.285.711.143.853z" fill="#fff"/><path d="M134.558 149.021c.568-8.808 1.989-17.616 4.12-26.14l75.023 18.469a100.285 100.285 0 0 0-2.132 13.069l-77.011-5.398z" fill="#3AB0D5"/><path d="M135.125 148.453l75.876 5.398c.284-3.978.994-8.098 1.847-12.075l-73.886-18.184c-1.847 8.097-3.268 16.479-3.837 24.861zm76.87 6.393c-.142.142-.284.142-.426.142l-77.154-5.399c-.142 0-.284-.142-.426-.142-.142-.142-.142-.284-.142-.426.568-8.808 1.989-17.616 4.12-26.282.142-.284.426-.568.711-.426l75.022 18.468c.142 0 .284.142.427.284.142.142.142.284 0 .427-.995 4.261-1.706 8.665-1.99 12.927 0 .284 0 .284-.142.427z" fill="#fff"/><path d="M138.678 122.881c2.557-10.228 6.11-20.315 10.656-29.833l69.624 33.385c-2.274 4.83-4.121 9.802-5.4 14.916l-74.88-18.468z" fill="#6AA84B"/><path d="M139.388 122.455l73.886 18.184c1.279-4.83 2.842-9.518 4.973-13.922L149.619 93.9c-4.405 9.092-7.815 18.753-10.231 28.555zm74.739 19.321c-.142.142-.427.284-.569.142l-75.022-18.469c-.142 0-.284-.142-.427-.284-.142-.142-.142-.284 0-.426 2.558-10.229 6.11-20.315 10.799-29.833.142-.284.426-.426.711-.284l69.623 33.384c.142 0 .284.143.284.285v.426c-2.273 4.688-4.12 9.66-5.257 14.774 0 .142-.142.285-.142.285z" fill="#fff"/><path d="M149.335 93.19c6.252-12.928 14.067-24.861 23.587-35.516l57.83 51.143c-4.689 5.398-8.668 11.365-11.794 17.758L149.335 93.19z" fill="#EDD3DD"/><path d="M150.187 92.906l68.629 32.959c2.984-6.109 6.82-11.792 11.225-16.906l-56.977-50.575c-9.236 10.371-16.909 22.02-22.877 34.522zm69.197 33.953c-.142.142-.426.284-.71.142l-69.623-33.385a.305.305 0 0 1-.284-.284v-.426c6.251-12.928 14.208-25.003 23.728-35.658.142-.284.569-.284.853 0l57.83 51.143c.284.142.284.568 0 .852-4.689 5.257-8.526 11.081-11.794 17.616.143 0 .143 0 0 0z" fill="#fff"/><path d="M47.438 8.345c0 .975-.164 1.827-.492 2.556-.328.725-.793 1.279-1.394 1.662-.602.382-1.304.574-2.106.574-.784 0-1.479-.192-2.085-.575-.606-.387-1.078-.936-1.415-1.647-.332-.715-.503-1.543-.512-2.481v-.718c0-.957.166-1.803.499-2.536.332-.734.802-1.295 1.408-1.682.61-.392 1.308-.588 2.092-.588.797 0 1.499.194 2.105.581.61.383 1.08.941 1.408 1.675.328.73.492 1.58.492 2.55v.629zm-1.305-.643c0-1.18-.237-2.085-.711-2.714-.474-.633-1.137-.95-1.99-.95-.829 0-1.483.317-1.961.95-.474.63-.718 1.504-.732 2.625v.732c0 1.144.24 2.044.718 2.7.483.652 1.146.978 1.99.978.847 0 1.503-.308 1.968-.923.465-.62.704-1.507.718-2.66v-.738zm4.792-3.89v1.792h1.38v.977h-1.38v4.587c0 .296.061.52.184.67.123.146.333.219.63.219.145 0 .346-.028.6-.082V13a3.667 3.667 0 0 1-.97.137c-.565 0-.991-.171-1.278-.513-.287-.342-.43-.827-.43-1.456V6.581h-1.348v-.977h1.347V3.812h1.265zM55.054 6.5c.56-.688 1.29-1.032 2.187-1.032 1.563 0 2.352.882 2.365 2.645V13h-1.264V8.105c-.005-.533-.128-.927-.37-1.182-.236-.255-.608-.383-1.114-.383-.41 0-.77.11-1.08.328-.31.219-.551.506-.724.861V13h-1.265V2.5h1.265v3.999zm9.515 6.638c-1.002 0-1.818-.328-2.447-.985-.629-.66-.943-1.542-.943-2.645v-.233c0-.733.139-1.387.417-1.961a3.284 3.284 0 0 1 1.176-1.354 2.958 2.958 0 0 1 1.64-.492c.962 0 1.71.317 2.242.95.534.633.8 1.54.8 2.72v.527h-5.01c.018.73.23 1.32.635 1.77.41.447.93.67 1.559.67.446 0 .825-.09 1.134-.273a2.85 2.85 0 0 0 .814-.725l.772.602c-.62.953-1.55 1.429-2.789 1.429zm-.157-6.631c-.51 0-.939.187-1.285.56-.346.37-.56.89-.643 1.559h3.705V8.53c-.036-.642-.21-1.139-.52-1.49-.309-.355-.728-.533-1.257-.533zm8.087.232a3.789 3.789 0 0 0-.622-.048c-.83 0-1.392.354-1.688 1.06V13h-1.265V5.604h1.23l.02.854c.415-.66 1.003-.991 1.764-.991.247 0 .433.032.561.096v1.175zM84.639 13h-1.27V4.571l-2.55.937V4.359L84.44 3h.199v10zm10.227 0h-6.521v-.91l3.445-3.827c.51-.58.861-1.048 1.053-1.409a2.35 2.35 0 0 0 .294-1.127c0-.52-.157-.946-.472-1.279-.314-.332-.734-.499-1.258-.499-.629 0-1.119.18-1.47.54-.346.356-.519.852-.519 1.49h-1.265c0-.916.294-1.656.882-2.221.593-.565 1.383-.848 2.372-.848.925 0 1.657.244 2.195.732.537.483.806 1.128.806 1.934 0 .98-.624 2.147-1.873 3.5l-2.666 2.892h4.997V13zm6.187-4.375a3.09 3.09 0 0 1-.95.759 2.551 2.551 0 0 1-1.204.287c-.574 0-1.075-.141-1.504-.424-.423-.282-.751-.679-.984-1.19a4.09 4.09 0 0 1-.349-1.702c0-.665.126-1.264.377-1.797a2.805 2.805 0 0 1 1.08-1.224c.464-.283 1.007-.424 1.626-.424.985 0 1.76.37 2.325 1.108.569.733.854 1.736.854 3.007v.37c0 1.936-.383 3.351-1.148 4.245-.766.888-1.921 1.344-3.466 1.367h-.246V11.94h.267c1.043-.018 1.845-.289 2.406-.813.56-.529.866-1.363.916-2.502zm-1.948 0c.423 0 .813-.13 1.168-.39.36-.26.623-.58.787-.964v-.505c0-.83-.18-1.504-.54-2.024-.36-.52-.816-.78-1.368-.78-.556 0-1.002.215-1.34.643-.337.424-.505.985-.505 1.682 0 .68.161 1.24.485 1.682a1.56 1.56 0 0 0 1.313.656zm5.051 6.357l-.718-.492c.429-.597.652-1.212.67-1.845v-1.142h1.238v.991c0 .46-.114.92-.342 1.381-.223.46-.506.83-.848 1.107zm7.506-6.357a3.078 3.078 0 0 1-.95.759 2.55 2.55 0 0 1-1.203.287c-.574 0-1.076-.141-1.504-.424-.424-.282-.752-.679-.984-1.19a4.081 4.081 0 0 1-.349-1.702c0-.665.125-1.264.376-1.797a2.805 2.805 0 0 1 1.08-1.224c.465-.283 1.007-.424 1.627-.424.984 0 1.759.37 2.324 1.108.57.733.855 1.736.855 3.007v.37c0 1.936-.383 3.351-1.149 4.245-.765.888-1.921 1.344-3.466 1.367h-.246V11.94h.267c1.043-.018 1.846-.289 2.406-.813.561-.529.866-1.363.916-2.502zm-1.948 0c.424 0 .813-.13 1.169-.39.36-.26.622-.58.786-.964v-.505c0-.83-.18-1.504-.54-2.024-.36-.52-.816-.78-1.367-.78-.556 0-1.003.215-1.34.643-.337.424-.506.985-.506 1.682 0 .68.162 1.24.485 1.682a1.56 1.56 0 0 0 1.313.656zm7.157.95l-.793.827V13h-1.265V2.5h1.265v6.35l.677-.813 2.304-2.433h1.538l-2.878 3.09L120.932 13h-1.484l-2.577-3.425zm-69.859 26.54h1.45v2.048h-1.45v2.769h-2.54v-2.769h-5.247l-.115-1.6 5.335-8.428h2.567v7.98zm-5.37 0h2.83v-4.517l-.167.29-2.663 4.227zm8.156-5.52c0-.784.255-1.42.764-1.906.51-.493 1.178-.739 2.004-.739.838 0 1.512.243 2.022.73.51.48.764 1.134.764 1.96v.633c0 .79-.254 1.426-.764 1.907-.51.48-1.178.72-2.004.72-.832 0-1.506-.24-2.022-.72-.51-.487-.764-1.14-.764-1.96v-.624zm1.687.678c0 .351.1.635.3.852.204.21.47.316.799.316.328 0 .589-.108.782-.325.194-.217.29-.507.29-.87v-.65c0-.352-.096-.636-.29-.853-.193-.217-.46-.325-.8-.325-.322 0-.583.108-.782.325-.199.211-.299.507-.299.888v.642zm4.43 6.52c0-.79.258-1.426.773-1.906.516-.487 1.184-.73 2.004-.73.832 0 1.503.24 2.013.72.516.475.773 1.132.773 1.97v.633c0 .785-.251 1.42-.755 1.907-.504.48-1.175.72-2.013.72-.844 0-1.52-.243-2.03-.73-.51-.485-.765-1.13-.765-1.933v-.65zm1.688.687c0 .322.105.597.316.826.21.228.475.342.791.342.715 0 1.072-.395 1.072-1.186v-.668c0-.352-.1-.633-.299-.844-.199-.217-.462-.325-.79-.325-.329 0-.592.108-.792.325-.199.211-.299.501-.299.87v.66zm-4.518 1.494l-1.24-.668 6.25-10.002 1.239.668-6.249 10.002zM420.38 10.402h-4.17L415.273 13h-1.353l3.801-9.953h1.148L422.677 13h-1.347l-.95-2.598zm-3.774-1.08h3.384l-1.695-4.655-1.689 4.655zm6.911-.082c0-1.153.267-2.069.8-2.748.533-.683 1.24-1.025 2.119-1.025.903 0 1.607.319 2.113.957l.061-.82h1.156v7.218c0 .957-.285 1.712-.855 2.263-.565.551-1.326.827-2.283.827a3.809 3.809 0 0 1-1.566-.342c-.51-.228-.9-.54-1.169-.936l.657-.759c.542.67 1.205 1.005 1.989 1.005.615 0 1.094-.173 1.435-.52.347-.346.52-.834.52-1.462v-.636c-.506.583-1.196.875-2.071.875-.866 0-1.568-.349-2.106-1.046-.533-.697-.8-1.648-.8-2.85zm1.272.144c0 .834.171 1.49.513 1.968.341.474.82.711 1.435.711.798 0 1.383-.362 1.757-1.086V7.6c-.387-.707-.968-1.06-1.743-1.06-.615 0-1.096.24-1.443.718-.346.478-.519 1.187-.519 2.126zm10.466-2.646a3.797 3.797 0 0 0-.622-.048c-.83 0-1.393.354-1.689 1.06V13h-1.264V5.604h1.23l.021.854c.414-.66 1.002-.991 1.763-.991.246 0 .433.032.561.096v1.175zM437.798 13h-1.265V5.604h1.265V13zm-1.367-9.358c0-.205.061-.379.184-.52.128-.141.315-.212.561-.212.246 0 .433.07.56.212a.746.746 0 0 1 .192.52.721.721 0 0 1-.192.512c-.127.137-.314.205-.56.205-.246 0-.433-.068-.561-.205a.738.738 0 0 1-.184-.512zm9.645 5.742c0 1.125-.257 2.032-.772 2.72-.515.689-1.213 1.033-2.092 1.033-.898 0-1.604-.285-2.119-.855v3.562h-1.265V5.604h1.155l.062.82c.515-.638 1.23-.957 2.146-.957.889 0 1.591.335 2.106 1.005.519.67.779 1.602.779 2.796v.116zm-1.265-.144c0-.834-.177-1.492-.533-1.975-.355-.483-.843-.725-1.463-.725-.765 0-1.34.34-1.722 1.019v3.534c.378.674.957 1.011 1.736 1.011.606 0 1.087-.239 1.442-.717.36-.483.54-1.199.54-2.147zm6.454-2.502a3.8 3.8 0 0 0-.623-.048c-.829 0-1.392.354-1.688 1.06V13h-1.265V5.604h1.231l.02.854c.415-.66 1.003-.991 1.764-.991.246 0 .433.032.561.096v1.175zm.697 2.495c0-.724.141-1.376.424-1.955.287-.578.683-1.025 1.189-1.34.51-.314 1.092-.471 1.743-.471 1.007 0 1.821.348 2.441 1.046.624.697.936 1.624.936 2.782v.089c0 .72-.139 1.367-.417 1.941a3.11 3.11 0 0 1-1.182 1.333c-.511.32-1.099.479-1.764.479-1.003 0-1.816-.349-2.441-1.046-.619-.697-.929-1.62-.929-2.769v-.089zm1.271.15c0 .821.189 1.48.568 1.976.382.497.893.745 1.531.745.642 0 1.153-.25 1.531-.752.378-.505.568-1.212.568-2.119 0-.81-.194-1.467-.582-1.968-.382-.506-.893-.76-1.531-.76-.624 0-1.128.25-1.511.746-.382.497-.574 1.208-.574 2.133zm6.741-.143c0-1.135.268-2.046.806-2.734.538-.693 1.242-1.04 2.112-1.04.866 0 1.552.297 2.058.89V2.5h1.265V13h-1.162l-.062-.793c-.506.62-1.21.93-2.112.93-.857 0-1.557-.351-2.099-1.053-.538-.702-.806-1.618-.806-2.748V9.24zm1.264.144c0 .838.173 1.495.52 1.968.346.474.825.711 1.435.711.802 0 1.388-.36 1.757-1.08V7.586c-.378-.697-.959-1.046-1.743-1.046-.62 0-1.103.24-1.449.718-.347.478-.52 1.187-.52 2.126zm11.512 2.885c-.492.578-1.215.868-2.167.868-.789 0-1.39-.228-1.805-.684-.41-.46-.617-1.14-.622-2.037V5.604h1.265v4.778c0 1.12.456 1.681 1.367 1.681.966 0 1.609-.36 1.928-1.08v-5.38h1.264V13h-1.203l-.027-.731zm6.125-.165a1.82 1.82 0 0 0 1.182-.41 1.44 1.44 0 0 0 .561-1.025h1.196a2.285 2.285 0 0 1-.437 1.21 2.876 2.876 0 0 1-1.08.916 3.088 3.088 0 0 1-1.422.342c-1.007 0-1.809-.335-2.406-1.005-.593-.675-.889-1.595-.889-2.762v-.212c0-.72.132-1.36.396-1.92a3.032 3.032 0 0 1 1.135-1.306c.497-.31 1.083-.465 1.757-.465.829 0 1.518.248 2.064.745.552.497.846 1.142.882 1.934h-1.196c-.036-.478-.219-.87-.547-1.175-.323-.31-.724-.465-1.203-.465-.643 0-1.142.232-1.497.697-.351.46-.526 1.128-.526 2.003v.24c0 .851.175 1.508.526 1.968.351.46.852.69 1.504.69zm6.077-8.291v1.79h1.381v.978h-1.381v4.587c0 .296.062.52.185.67.123.146.332.219.629.219.145 0 .346-.028.601-.082V13a3.669 3.669 0 0 1-.971.137c-.565 0-.991-.171-1.278-.513-.287-.342-.431-.827-.431-1.456V6.581h-1.346v-.977h1.346V3.812h1.265zm7.171 7.225c0-.342-.13-.606-.39-.793-.255-.191-.704-.355-1.346-.492-.638-.137-1.147-.3-1.525-.492-.374-.192-.652-.42-.834-.684a1.648 1.648 0 0 1-.266-.943c0-.606.255-1.119.765-1.538.515-.42 1.171-.63 1.969-.63.839 0 1.518.217 2.037.65.524.433.786.987.786 1.661h-1.271c0-.346-.148-.645-.445-.895-.291-.25-.66-.376-1.107-.376-.46 0-.82.1-1.08.3a.948.948 0 0 0-.39.787c0 .305.121.535.363.69.241.155.676.303 1.305.445.634.14 1.146.31 1.538.505.392.196.682.433.868.711.192.274.288.609.288 1.005 0 .661-.265 1.192-.793 1.593-.529.396-1.215.595-2.058.595-.592 0-1.117-.105-1.572-.315a2.595 2.595 0 0 1-1.074-.875 2.147 2.147 0 0 1-.382-1.223h1.264c.023.424.192.76.506 1.011.319.246.738.37 1.258.37.479 0 .861-.096 1.148-.288.292-.196.438-.455.438-.779zM502.534 13h-1.271V4.571l-2.55.937V4.359L502.336 3h.198v10zm3.794 1.982l-.718-.492c.429-.597.652-1.212.67-1.845v-1.142h1.237v.991c0 .46-.113.92-.341 1.381-.224.46-.506.83-.848 1.107zm8.9-6.227c0 1.481-.253 2.582-.758 3.302-.506.72-1.297 1.08-2.372 1.08-1.062 0-1.848-.351-2.359-1.053-.51-.706-.775-1.76-.793-3.158V7.237c0-1.463.253-2.55.759-3.26.506-.711 1.299-1.067 2.379-1.067 1.071 0 1.859.344 2.365 1.032.506.684.766 1.741.779 3.172v1.64zm-1.264-1.73c0-1.07-.151-1.85-.451-2.338-.301-.492-.777-.738-1.429-.738-.647 0-1.119.244-1.415.732-.296.487-.449 1.237-.458 2.249v2.023c0 1.076.155 1.87.465 2.386.314.51.788.765 1.422.765.624 0 1.086-.241 1.387-.724.306-.483.465-1.244.479-2.283V7.025zm8.921-1.38a2.3 2.3 0 0 1-.397 1.326c-.26.387-.613.69-1.059.909.519.223.929.549 1.23.977.305.429.458.914.458 1.457 0 .86-.292 1.547-.875 2.057-.579.51-1.342.766-2.29.766-.957 0-1.725-.255-2.304-.766-.574-.515-.861-1.2-.861-2.058 0-.537.146-1.023.437-1.456a2.774 2.774 0 0 1 1.224-.984 2.608 2.608 0 0 1-1.046-.91 2.346 2.346 0 0 1-.383-1.318c0-.839.269-1.504.807-1.997.538-.492 1.246-.738 2.126-.738.875 0 1.581.246 2.119.738.542.493.814 1.158.814 1.997zm-1.033 4.641c0-.556-.177-1.01-.533-1.36-.351-.351-.811-.527-1.381-.527-.569 0-1.027.174-1.374.52-.341.346-.512.802-.512 1.367s.166 1.01.499 1.333c.337.324.804.486 1.401.486.592 0 1.057-.162 1.395-.486.337-.328.505-.772.505-1.333zm-1.9-6.337c-.497 0-.9.155-1.21.465-.305.305-.458.722-.458 1.251 0 .506.15.916.451 1.23.306.31.711.465 1.217.465.506 0 .909-.155 1.21-.464.305-.315.458-.725.458-1.231 0-.506-.157-.918-.472-1.237-.314-.32-.713-.479-1.196-.479zm9.55 1.655l.034.82c.542-.638 1.274-.957 2.194-.957 1.035 0 1.739.396 2.113 1.19a2.81 2.81 0 0 1 .957-.862c.396-.219.863-.328 1.401-.328 1.622 0 2.447.859 2.475 2.577V13h-1.265V8.12c0-.53-.121-.924-.362-1.183-.242-.265-.647-.397-1.217-.397-.469 0-.859.141-1.169.424-.31.278-.49.654-.54 1.128V13h-1.272V8.153c0-1.075-.526-1.613-1.579-1.613-.829 0-1.396.353-1.702 1.06V13h-1.264V5.604h1.196zM541.964 13h-1.265V5.604h1.265V13zm-1.367-9.358c0-.205.061-.379.184-.52.128-.141.315-.212.561-.212.246 0 .433.07.56.212a.746.746 0 0 1 .192.52.721.721 0 0 1-.192.512c-.127.137-.314.205-.56.205-.246 0-.433-.068-.561-.205a.738.738 0 0 1-.184-.512zM545.368 13h-1.265V2.5h1.265V13zm-28.726 20.408h1.353c.645 0 1.122-.16 1.433-.483.31-.322.466-.75.466-1.283 0-.516-.156-.917-.466-1.204-.305-.288-.727-.431-1.266-.431-.486 0-.893.135-1.222.404-.328.264-.492.61-.492 1.037h-2.54c0-.668.179-1.265.536-1.793.364-.533.868-.949 1.512-1.248a5.074 5.074 0 0 1 2.145-.448c1.353 0 2.414.325 3.181.976.768.644 1.152 1.535 1.152 2.671a2.69 2.69 0 0 1-.537 1.618 3.48 3.48 0 0 1-1.406 1.133c.721.258 1.257.645 1.609 1.16.357.516.536 1.126.536 1.829 0 1.136-.416 2.048-1.248 2.733-.826.686-1.922 1.028-3.287 1.028-1.278 0-2.324-.337-3.138-1.01-.809-.674-1.213-1.565-1.213-2.672h2.54c0 .48.179.873.536 1.178.363.304.809.457 1.336.457.604 0 1.075-.159 1.415-.475.346-.322.519-.747.519-1.275 0-1.277-.703-1.916-2.11-1.916h-1.344v-1.986zm16.453-3.85l-4.949 11.374h-2.68l4.957-10.74h-6.363v-2.057h9.035v1.424zm1.599 1.038c0-.785.255-1.421.765-1.907.51-.493 1.178-.739 2.004-.739.838 0 1.512.243 2.021.73.51.48.765 1.134.765 1.96v.633c0 .79-.255 1.426-.765 1.907-.509.48-1.177.72-2.004.72-.832 0-1.505-.24-2.021-.72-.51-.487-.765-1.14-.765-1.96v-.624zm1.688.677c0 .351.099.635.299.852.205.21.471.316.799.316.329 0 .589-.108.783-.325.193-.217.29-.507.29-.87v-.65c0-.352-.097-.636-.29-.853-.194-.217-.46-.325-.8-.325-.322 0-.583.108-.782.325-.2.211-.299.507-.299.888v.642zm4.43 6.52c0-.79.257-1.426.773-1.906.516-.487 1.184-.73 2.004-.73.832 0 1.503.24 2.013.72.515.475.773 1.132.773 1.97v.633c0 .785-.252 1.42-.756 1.907-.504.48-1.175.72-2.013.72-.843 0-1.52-.243-2.03-.73-.51-.485-.764-1.13-.764-1.933v-.65zm1.687.687c0 .322.105.597.316.826.211.228.475.342.791.342.715 0 1.073-.395 1.073-1.186v-.668c0-.352-.1-.633-.299-.844-.199-.217-.463-.325-.791-.325s-.592.108-.791.325c-.199.211-.299.501-.299.87v.66zm-4.518 1.494l-1.239-.668 6.249-10.002 1.239.668-6.249 10.002zM292.495 369.18l3.254 8.122 3.253-8.122h1.703v9.954h-1.313v-3.876l.123-4.184-3.267 8.06h-1.005l-3.261-8.04.13 4.164v3.876h-1.313v-9.954h1.696zm13.398 10.09c-1.003 0-1.818-.328-2.447-.984-.629-.661-.944-1.543-.944-2.646v-.232c0-.734.139-1.388.417-1.962a3.283 3.283 0 0 1 1.176-1.353 2.953 2.953 0 0 1 1.641-.493c.961 0 1.709.317 2.242.951.533.633.8 1.54.8 2.72v.527h-5.011c.018.729.23 1.319.636 1.77.41.447.93.67 1.558.67.447 0 .825-.091 1.135-.273.31-.183.581-.424.814-.725l.772.602c-.62.952-1.549 1.428-2.789 1.428zm-.157-6.631a1.68 1.68 0 0 0-1.285.561c-.347.369-.561.889-.643 1.559h3.705v-.096c-.036-.643-.209-1.139-.519-1.49-.31-.356-.729-.534-1.258-.534zm6.227-2.693v1.791h1.381v.978h-1.381v4.587c0 .296.062.519.185.669.123.146.333.219.629.219.146 0 .346-.027.601-.082v1.026a3.664 3.664 0 0 1-.97.136c-.565 0-.991-.171-1.279-.512-.287-.342-.43-.828-.43-1.456v-4.587h-1.347v-.978h1.347v-1.791h1.264zm7.431 9.188c-.073-.146-.132-.406-.178-.78-.588.611-1.289.916-2.105.916-.729 0-1.329-.205-1.798-.615a2.016 2.016 0 0 1-.697-1.572c0-.77.291-1.367.875-1.791.588-.429 1.413-.643 2.474-.643h1.231v-.581c0-.442-.132-.793-.397-1.053-.264-.264-.654-.396-1.169-.396-.451 0-.829.114-1.134.342-.306.228-.458.503-.458.827h-1.272c0-.369.13-.725.39-1.067.264-.346.62-.619 1.066-.82.451-.2.946-.301 1.484-.301.852 0 1.519.215 2.003.643.483.424.733 1.009.751 1.757v3.404c0 .679.087 1.219.26 1.62v.11h-1.326zm-2.099-.964c.397 0 .773-.103 1.128-.308.356-.205.613-.472.773-.8v-1.517h-.991c-1.55 0-2.325.453-2.325 1.36 0 .397.133.706.397.93.264.223.604.335 1.018.335zm6.522.964h-1.265v-10.5h1.265v10.5zm6.337-1.962c0-.342-.13-.606-.39-.793-.255-.192-.704-.356-1.346-.493-.639-.136-1.147-.3-1.525-.492-.374-.191-.652-.419-.834-.683a1.65 1.65 0 0 1-.266-.944c0-.606.255-1.118.765-1.538.515-.419 1.171-.629 1.969-.629.838 0 1.517.217 2.037.65.524.433.786.986.786 1.661h-1.271c0-.346-.148-.645-.445-.896-.291-.25-.66-.376-1.107-.376-.46 0-.82.101-1.08.301a.948.948 0 0 0-.39.786c0 .306.121.536.362.691.242.155.677.303 1.306.444.634.141 1.146.31 1.538.506.392.196.682.433.868.711.192.273.287.608.287 1.005 0 .661-.264 1.191-.792 1.593-.529.396-1.215.594-2.058.594-.593 0-1.117-.105-1.572-.314a2.595 2.595 0 0 1-1.074-.875 2.146 2.146 0 0 1-.382-1.224h1.264c.023.424.192.761.506 1.012.319.246.738.369 1.258.369.478 0 .861-.096 1.148-.287.292-.196.438-.456.438-.779zm14.574-2.413a3.076 3.076 0 0 1-.95.758 2.543 2.543 0 0 1-1.203.287c-.574 0-1.076-.141-1.504-.423-.424-.283-.752-.679-.985-1.19a4.095 4.095 0 0 1-.348-1.702c0-.665.125-1.265.376-1.798.255-.533.615-.941 1.08-1.223.465-.283 1.007-.424 1.627-.424.984 0 1.759.369 2.324 1.107.57.734.855 1.736.855 3.008v.369c0 1.937-.383 3.352-1.149 4.245-.766.889-1.921 1.345-3.466 1.367h-.246v-1.066h.267c1.043-.018 1.845-.289 2.406-.814.561-.528.866-1.362.916-2.501zm-1.948 0c.424 0 .813-.13 1.169-.39.36-.26.622-.581.786-.964v-.506c0-.829-.18-1.504-.54-2.023-.36-.52-.816-.78-1.367-.78-.556 0-1.003.215-1.34.643-.337.424-.506.984-.506 1.682 0 .679.162 1.239.485 1.681a1.56 1.56 0 0 0 1.313.657zm5.544-.616l.506-4.963h5.099v1.169h-4.026l-.301 2.714c.488-.287 1.041-.43 1.661-.43.907 0 1.627.3 2.16.902.534.597.8 1.406.8 2.427 0 1.025-.278 1.834-.834 2.426-.551.588-1.324.882-2.317.882-.88 0-1.598-.244-2.154-.731-.556-.488-.872-1.162-.95-2.024h1.197c.077.57.28 1.001.608 1.292.328.287.761.431 1.299.431.588 0 1.048-.2 1.381-.602.337-.401.506-.954.506-1.661 0-.665-.183-1.198-.547-1.599-.36-.406-.841-.609-1.443-.609-.551 0-.984.121-1.299.363l-.335.273-1.011-.26zm9.119-.601h.95c.597-.009 1.067-.167 1.408-.472.342-.305.513-.718.513-1.237 0-1.167-.581-1.75-1.743-1.75-.547 0-.985.157-1.313.471-.323.31-.485.723-.485 1.238h-1.265c0-.789.287-1.443.862-1.962.578-.524 1.312-.786 2.201-.786.939 0 1.675.248 2.208.745.533.497.8 1.187.8 2.071 0 .433-.142.852-.424 1.258a2.512 2.512 0 0 1-1.142.909c.547.173.969.46 1.265.861.301.401.451.891.451 1.47 0 .893-.292 1.602-.875 2.126-.583.524-1.342.786-2.276.786-.935 0-1.696-.253-2.284-.759-.583-.505-.875-1.173-.875-2.002h1.272c0 .524.171.943.513 1.257.341.315.799.472 1.374.472.61 0 1.077-.159 1.401-.478.324-.319.485-.777.485-1.375 0-.578-.177-1.023-.533-1.333-.355-.309-.868-.469-1.538-.478h-.95v-1.032zm6.111 7.574l-.718-.492c.429-.597.652-1.212.67-1.846v-1.142h1.238v.992c0 .46-.114.92-.342 1.381-.223.46-.506.829-.848 1.107zm6.816-1.982h-1.272v-8.429l-2.55.936v-1.148l3.623-1.36h.199v10.001zm5.899-3.425l-.793.827v2.598h-1.265v-10.5h1.265v6.35l.677-.813 2.304-2.434h1.538l-2.878 3.09 3.213 4.307h-1.484l-2.577-3.425zm-23.436 23.831h1.354c.644 0 1.122-.161 1.432-.483.311-.322.466-.75.466-1.283 0-.516-.155-.917-.466-1.204-.305-.288-.726-.431-1.265-.431-.487 0-.894.135-1.222.404-.328.264-.492.61-.492 1.037h-2.54c0-.668.178-1.265.536-1.793.363-.533.867-.949 1.511-1.248a5.077 5.077 0 0 1 2.145-.448c1.354 0 2.414.325 3.182.976.767.644 1.151 1.535 1.151 2.672 0 .585-.179 1.125-.536 1.617-.358.492-.826.87-1.406 1.134.72.257 1.256.644 1.608 1.16.357.515.536 1.125.536 1.828 0 1.137-.416 2.048-1.248 2.733-.826.686-1.922 1.029-3.287 1.029-1.277 0-2.323-.337-3.138-1.011-.808-.674-1.213-1.565-1.213-2.672h2.54c0 .48.179.873.537 1.178.363.304.808.457 1.336.457.603 0 1.075-.159 1.415-.475.345-.322.518-.747.518-1.274 0-1.278-.703-1.916-2.109-1.916h-1.345v-1.987zm16.523 7.524h-8.771v-1.741l4.14-4.412c.568-.621.987-1.163 1.256-1.626.276-.462.414-.902.414-1.318 0-.568-.144-1.014-.431-1.336-.287-.328-.697-.492-1.231-.492-.574 0-1.028.199-1.362.598-.328.392-.492.911-.492 1.555h-2.549c0-.779.185-1.491.554-2.136a3.932 3.932 0 0 1 1.582-1.511c.68-.369 1.45-.554 2.311-.554 1.319 0 2.341.316 3.068.949.732.633 1.098 1.527 1.098 2.681 0 .633-.164 1.277-.492 1.934-.328.656-.89 1.42-1.687 2.293l-2.91 3.068h5.502v2.048zm1.53-10.336c0-.785.255-1.421.764-1.907.51-.493 1.178-.739 2.004-.739.838 0 1.512.243 2.022.73.51.48.764 1.134.764 1.96v.633c0 .791-.254 1.426-.764 1.907-.51.48-1.178.72-2.004.72-.832 0-1.506-.24-2.022-.72-.509-.487-.764-1.14-.764-1.96v-.624zm1.687.677c0 .351.1.635.299.852.205.211.472.316.8.316.328 0 .589-.108.782-.325.193-.217.29-.507.29-.87v-.65c0-.352-.097-.636-.29-.853-.193-.217-.46-.325-.8-.325-.322 0-.583.108-.782.325-.199.211-.299.507-.299.888v.642zm4.43 6.521c0-.791.258-1.427.773-1.907.516-.487 1.184-.73 2.004-.73.832 0 1.503.241 2.013.721.516.475.773 1.131.773 1.969v.633c0 .785-.252 1.42-.755 1.907-.504.48-1.175.721-2.013.721-.844 0-1.521-.244-2.03-.73-.51-.486-.765-1.131-.765-1.934v-.65zm1.687.686c0 .322.106.597.317.826.211.228.474.343.791.343.715 0 1.072-.396 1.072-1.187v-.668c0-.352-.099-.633-.299-.844-.199-.217-.463-.325-.791-.325s-.592.108-.791.325c-.199.211-.299.501-.299.87v.66zm-4.517 1.494l-1.239-.668 6.249-10.002 1.239.668-6.249 10.002zM8.08 167.216h-3.2v8.873H3.576v-8.873H.383v-1.081H8.08v1.081zm2.652 8.873H9.468v-7.397h1.264v7.397zm-1.367-9.359c0-.205.062-.378.185-.519.127-.142.314-.212.56-.212.246 0 .433.07.56.212a.745.745 0 0 1 .192.519.724.724 0 0 1-.191.513c-.128.137-.315.205-.56.205-.247 0-.434-.068-.561-.205a.74.74 0 0 1-.185-.513zm4.587 1.962l.034.82c.543-.638 1.274-.957 2.195-.957 1.034 0 1.738.397 2.112 1.19.246-.356.565-.643.957-.861.396-.219.864-.329 1.401-.329 1.623 0 2.448.859 2.475 2.578v4.956h-1.265v-4.881c0-.529-.12-.923-.362-1.183-.241-.264-.647-.396-1.217-.396-.47 0-.859.141-1.169.423-.31.278-.49.654-.54 1.128v4.909h-1.271v-4.847c0-1.076-.527-1.613-1.58-1.613-.829 0-1.396.353-1.701 1.059v5.401h-1.265v-7.397h1.196zm17.35 3.78c0 1.131-.26 2.04-.78 2.728-.52.684-1.216 1.025-2.091 1.025-.935 0-1.657-.33-2.167-.991l-.062.855H25.04v-10.5h1.265v3.917c.51-.634 1.214-.951 2.112-.951.898 0 1.602.34 2.112 1.019.515.679.773 1.609.773 2.789v.109zm-1.265-.143c0-.861-.166-1.527-.499-1.996-.333-.47-.811-.704-1.436-.704-.833 0-1.433.387-1.797 1.162v3.199c.387.775.99 1.162 1.811 1.162.606 0 1.078-.235 1.415-.704.338-.469.506-1.176.506-2.119zm5.934 3.896c-1.003 0-1.819-.328-2.448-.984-.629-.661-.943-1.543-.943-2.646v-.232c0-.734.14-1.388.417-1.962a3.276 3.276 0 0 1 1.176-1.353 2.951 2.951 0 0 1 1.64-.493c.962 0 1.71.317 2.243.951.533.633.8 1.54.8 2.72v.527h-5.011c.018.729.23 1.319.636 1.77.41.447.93.67 1.558.67.447 0 .825-.091 1.135-.273a2.86 2.86 0 0 0 .813-.725l.773.602c-.62.952-1.55 1.428-2.79 1.428zm-.157-6.631c-.51 0-.94.187-1.286.561-.346.369-.56.889-.642 1.559h3.705v-.096c-.037-.643-.21-1.139-.52-1.49-.31-.356-.729-.534-1.258-.534zm8.086.233a3.779 3.779 0 0 0-.622-.048c-.83 0-1.392.353-1.688 1.06v5.25h-1.265v-7.397h1.23l.021.855c.415-.661 1.003-.992 1.764-.992.246 0 .433.032.56.096v1.176zm16.82 1.887a3.08 3.08 0 0 1-.95.758 2.542 2.542 0 0 1-1.203.288c-.574 0-1.075-.142-1.504-.424a2.768 2.768 0 0 1-.984-1.19 4.09 4.09 0 0 1-.349-1.702c0-.665.126-1.265.376-1.798.256-.533.616-.941 1.08-1.223.465-.283 1.008-.424 1.627-.424.985 0 1.76.369 2.325 1.107.57.734.854 1.737.854 3.008v.369c0 1.937-.383 3.352-1.148 4.245-.766.889-1.921 1.345-3.466 1.367h-.246v-1.066h.266c1.044-.018 1.846-.289 2.407-.813.56-.529.866-1.363.916-2.502zm-1.947 0c.423 0 .813-.13 1.168-.39.36-.26.622-.581.786-.964v-.506c0-.829-.18-1.504-.54-2.023-.36-.52-.815-.779-1.367-.779-.556 0-1.002.214-1.34.642-.337.424-.505.984-.505 1.682 0 .679.161 1.239.485 1.681a1.56 1.56 0 0 0 1.313.657zm9.925-5.585v1.073h-.232c-.985.018-1.768.31-2.352.875-.583.565-.92 1.36-1.011 2.386.524-.602 1.24-.903 2.146-.903.866 0 1.556.306 2.071.916.52.611.78 1.399.78 2.366 0 1.025-.28 1.845-.841 2.46-.556.616-1.304.923-2.242.923-.953 0-1.725-.364-2.318-1.093-.592-.734-.889-1.677-.889-2.83v-.486c0-1.832.39-3.231 1.17-4.197.783-.971 1.948-1.468 3.493-1.49h.225zm-1.66 4.484c-.434 0-.833.13-1.197.39a2.025 2.025 0 0 0-.759.977v.465c0 .82.185 1.481.554 1.982.369.502.83.752 1.38.752.57 0 1.017-.209 1.34-.628.329-.42.493-.969.493-1.648 0-.684-.167-1.235-.5-1.654-.328-.424-.765-.636-1.312-.636zm4.648 7.458l-.718-.492c.428-.597.651-1.212.67-1.846v-1.141h1.237v.991c0 .46-.114.92-.342 1.381-.223.46-.506.829-.847 1.107zm9.18-1.982h-6.521v-.91l3.445-3.828c.51-.578.861-1.048 1.053-1.408a2.35 2.35 0 0 0 .294-1.128c0-.519-.157-.945-.472-1.278-.314-.333-.734-.499-1.258-.499-.629 0-1.119.18-1.47.54-.346.355-.519.852-.519 1.49h-1.265c0-.916.294-1.656.882-2.222.593-.565 1.383-.847 2.372-.847.925 0 1.657.244 2.195.731.537.483.806 1.128.806 1.935 0 .98-.624 2.146-1.873 3.5l-2.666 2.891h4.997v1.033zm3.534-3.425l-.793.827v2.598h-1.264v-10.5h1.264v6.35l.677-.813 2.304-2.434h1.538l-2.878 3.09 3.213 4.307h-1.483l-2.578-3.425zM3.502 196.501h1.353c.645 0 1.123-.161 1.433-.484.31-.322.466-.75.466-1.283 0-.515-.155-.917-.466-1.204-.305-.287-.726-.431-1.266-.431-.486 0-.893.135-1.221.405a1.265 1.265 0 0 0-.492 1.037H.769c0-.668.178-1.266.536-1.793.363-.533.867-.949 1.511-1.248a5.072 5.072 0 0 1 2.145-.448c1.353 0 2.414.325 3.182.975.767.645 1.151 1.535 1.151 2.672 0 .586-.179 1.125-.536 1.617-.358.492-.826.87-1.406 1.134.72.258 1.256.644 1.608 1.16.357.516.536 1.125.536 1.828 0 1.137-.416 2.048-1.248 2.734-.826.685-1.922 1.028-3.287 1.028-1.277 0-2.323-.337-3.138-1.011-.808-.674-1.213-1.564-1.213-2.672h2.54c0 .481.18.873.537 1.178.363.305.808.457 1.335.457.604 0 1.076-.158 1.415-.475.346-.322.519-.747.519-1.274 0-1.277-.703-1.916-2.11-1.916H3.503v-1.986zm7.717-2.813c0-.785.255-1.421.764-1.907.51-.492 1.178-.738 2.004-.738.838 0 1.512.243 2.022.729.51.481.764 1.134.764 1.96v.633c0 .791-.254 1.427-.764 1.907-.51.481-1.178.721-2.004.721-.832 0-1.506-.24-2.022-.721-.51-.486-.764-1.139-.764-1.96v-.624zm1.687.677c0 .352.1.636.3.853.204.21.47.316.799.316.328 0 .589-.108.782-.325.193-.217.29-.507.29-.87v-.651c0-.351-.097-.636-.29-.852-.193-.217-.46-.326-.8-.326-.322 0-.583.109-.782.326-.2.211-.299.507-.299.887v.642zm4.43 6.521c0-.791.258-1.426.773-1.907.516-.486 1.184-.729 2.004-.729.832 0 1.503.24 2.013.72.516.475.773 1.131.773 1.969v.633c0 .785-.252 1.421-.755 1.907-.504.481-1.175.721-2.013.721-.844 0-1.52-.243-2.03-.73-.51-.486-.765-1.13-.765-1.933v-.651zm1.687.686c0 .322.106.598.317.826.21.229.474.343.79.343.716 0 1.073-.396 1.073-1.187v-.668c0-.351-.1-.632-.299-.843-.199-.217-.463-.325-.79-.325-.329 0-.593.108-.792.325-.199.211-.299.501-.299.87v.659zm-4.517 1.494l-1.24-.668 6.25-10.002 1.239.668-6.25 10.002zm465.791-90.049c-.123 1.053-.512 1.866-1.168 2.44-.652.57-1.52.855-2.605.855-1.176 0-2.119-.422-2.83-1.265-.706-.843-1.06-1.971-1.06-3.384v-.957c0-.925.164-1.738.493-2.44.332-.702.802-1.24 1.408-1.613.606-.379 1.308-.568 2.105-.568 1.058 0 1.905.296 2.543.889.638.588 1.01 1.404 1.114 2.447h-1.319c-.114-.793-.362-1.367-.745-1.723-.378-.355-.909-.533-1.593-.533-.838 0-1.497.31-1.975.93-.474.62-.711 1.502-.711 2.645v.964c0 1.08.225 1.939.676 2.577.452.639 1.083.958 1.894.958.729 0 1.287-.165 1.675-.493.392-.332.652-.909.779-1.729h1.319zm1.265-.609c0-.724.141-1.376.424-1.955.287-.578.684-1.025 1.189-1.339.511-.315 1.092-.472 1.744-.472 1.007 0 1.82.348 2.44 1.046.624.697.937 1.624.937 2.782v.089c0 .72-.139 1.367-.417 1.941a3.117 3.117 0 0 1-1.183 1.333c-.51.319-1.098.479-1.764.479-1.002 0-1.816-.349-2.44-1.046-.62-.697-.93-1.62-.93-2.769v-.089zm1.272.151c0 .82.189 1.479.567 1.975.383.497.893.746 1.531.746.643 0 1.153-.251 1.532-.752.378-.506.567-1.213.567-2.12 0-.811-.194-1.467-.581-1.968-.383-.506-.893-.759-1.531-.759-.625 0-1.128.248-1.511.745s-.574 1.208-.574 2.133zm11.614 3.616c-.073-.146-.132-.406-.178-.779-.588.61-1.29.916-2.105.916-.729 0-1.329-.205-1.798-.615a2.017 2.017 0 0 1-.697-1.573c0-.77.291-1.367.875-1.791.587-.428 1.412-.642 2.474-.642h1.231v-.581c0-.442-.133-.793-.397-1.053-.264-.264-.654-.397-1.169-.397-.451 0-.829.114-1.135.342-.305.228-.458.504-.458.827h-1.271c0-.369.13-.724.39-1.066.264-.346.619-.62 1.066-.82a3.604 3.604 0 0 1 1.483-.301c.853 0 1.52.214 2.003.642.483.424.734 1.01.752 1.757v3.405c0 .679.087 1.219.26 1.62v.109h-1.326zm-2.099-.964a2.22 2.22 0 0 0 1.128-.307c.356-.206.613-.472.773-.8v-1.518h-.992c-1.549 0-2.324.454-2.324 1.361 0 .396.132.706.397.929.264.224.604.335 1.018.335zm6.522.964h-1.265v-10.5h1.265v10.5zm6.337-1.962c0-.342-.13-.606-.39-.793-.255-.191-.704-.355-1.347-.492-.638-.137-1.146-.301-1.524-.492-.374-.192-.652-.419-.834-.684a1.648 1.648 0 0 1-.267-.943c0-.606.256-1.119.766-1.538.515-.42 1.171-.629 1.969-.629.838 0 1.517.216 2.037.649.524.433.786.987.786 1.661h-1.272c0-.346-.148-.644-.444-.895-.292-.251-.661-.376-1.107-.376-.461 0-.821.1-1.08.301-.26.2-.39.462-.39.786 0 .305.121.535.362.69.242.155.677.303 1.306.445.633.141 1.146.309 1.538.505.392.196.681.433.868.711.192.274.287.609.287 1.005 0 .661-.264 1.192-.793 1.593-.528.397-1.214.595-2.057.595-.593 0-1.117-.105-1.573-.315a2.59 2.59 0 0 1-1.073-.875 2.146 2.146 0 0 1-.383-1.223h1.265c.023.424.191.761.506 1.011.319.246.738.37 1.258.37.478 0 .861-.096 1.148-.288.292-.196.438-.455.438-.779zm13.883 1.962h-1.271v-8.429l-2.55.937v-1.149l3.623-1.36h.198v10.001zm7.862 0h-1.272v-8.429l-2.55.937v-1.149l3.624-1.36h.198v10.001zm10.131-9.242l-4.122 9.242h-1.327l4.109-8.914h-5.387v-1.039h6.727v.711zm1.524 11.224l-.718-.492c.429-.597.652-1.212.67-1.845v-1.142h1.237v.991c0 .46-.113.921-.341 1.381-.224.46-.506.829-.848 1.107zm7.506-6.357a3.08 3.08 0 0 1-.95.759 2.555 2.555 0 0 1-1.203.287c-.575 0-1.076-.141-1.504-.424-.424-.282-.752-.679-.985-1.189a4.098 4.098 0 0 1-.348-1.702c0-.666.125-1.265.376-1.798a2.805 2.805 0 0 1 1.08-1.224c.465-.283 1.007-.424 1.627-.424.984 0 1.759.369 2.324 1.108.57.733.854 1.736.854 3.007v.37c0 1.936-.382 3.351-1.148 4.245-.766.888-1.921 1.344-3.466 1.367h-.246v-1.067h.267c1.043-.018 1.845-.289 2.406-.813.56-.529.866-1.363.916-2.502zm-1.948 0c.423 0 .813-.13 1.169-.39.36-.259.622-.581.786-.963v-.506c0-.83-.18-1.504-.54-2.024-.36-.519-.816-.779-1.367-.779-.556 0-1.003.214-1.34.643-.338.423-.506.984-.506 1.681 0 .679.162 1.24.485 1.682a1.56 1.56 0 0 0 1.313.656zm7.157.95l-.793.827v2.598h-1.265v-10.5h1.265v6.351l.677-.814 2.303-2.433h1.538l-2.877 3.089 3.212 4.307H553.9l-2.577-3.425zm-10.594 26.542h1.451v2.048h-1.451v2.768h-2.54v-2.768h-5.247l-.114-1.6 5.335-8.428h2.566v7.98zm-5.37 0h2.83v-4.518l-.167.29-2.663 4.228zm8.157-5.52c0-.785.255-1.42.764-1.907.51-.492 1.178-.738 2.004-.738.838 0 1.512.243 2.022.729.509.481.764 1.134.764 1.96v.633c0 .791-.255 1.427-.764 1.907-.51.481-1.178.721-2.004.721-.832 0-1.506-.24-2.022-.721-.509-.486-.764-1.139-.764-1.96v-.624zm1.687.677c0 .352.1.636.299.853.205.211.472.316.8.316.328 0 .589-.108.782-.325.193-.217.29-.507.29-.87v-.651c0-.351-.097-.635-.29-.852-.193-.217-.46-.325-.8-.325-.322 0-.583.108-.782.325-.199.211-.299.507-.299.888v.641zm4.43 6.522c0-.791.258-1.427.773-1.908.516-.486 1.184-.729 2.004-.729.832 0 1.503.24 2.013.721.515.474.773 1.131.773 1.968v.633c0 .785-.252 1.421-.756 1.907-.503.481-1.174.721-2.012.721-.844 0-1.521-.243-2.031-.729-.509-.487-.764-1.131-.764-1.934v-.65zm1.687.685c0 .323.106.598.317.826.211.229.474.343.791.343.715 0 1.072-.395 1.072-1.186v-.668c0-.352-.1-.633-.299-.844-.199-.217-.463-.325-.791-.325s-.592.108-.791.325c-.199.211-.299.501-.299.87v.659zm-4.517 1.494l-1.24-.668 6.249-10.002 1.24.668-6.249 10.002zm-93.166 133.533h-4.177v4.396h-1.312v-9.953h6.166v1.08h-4.854v3.404h4.177v1.073zm4.97 4.533c-1.003 0-1.819-.329-2.448-.985-.629-.661-.943-1.542-.943-2.645v-.233c0-.733.139-1.387.417-1.962a3.29 3.29 0 0 1 1.176-1.353 2.96 2.96 0 0 1 1.64-.492c.962 0 1.709.316 2.243.95.533.633.799 1.54.799 2.721v.526h-5.01c.018.729.23 1.319.635 1.77.411.447.93.67 1.559.67.447 0 .825-.091 1.135-.273.31-.182.581-.424.813-.725l.773.602c-.62.952-1.55 1.429-2.789 1.429zm-.158-6.631c-.51 0-.938.187-1.285.56-.346.369-.56.889-.642 1.559h3.705v-.096c-.037-.642-.21-1.139-.52-1.49-.31-.356-.729-.533-1.258-.533zm8.087.232a3.768 3.768 0 0 0-.622-.048c-.829 0-1.392.353-1.688 1.06v5.25h-1.265v-7.397h1.231l.02.855c.415-.661 1.003-.991 1.764-.991.246 0 .433.032.56.095v1.176zm3.227-2.926v1.791h1.381v.978h-1.381v4.587c0 .296.061.519.184.67.124.146.333.218.629.218.146 0 .347-.027.602-.082v1.026a3.674 3.674 0 0 1-.971.137c-.565 0-.991-.171-1.278-.513-.287-.342-.431-.827-.431-1.456v-4.587h-1.346v-.978h1.346v-1.791h1.265zm4.238 9.188h-1.264v-7.397h1.264v7.397zm-1.367-9.359c0-.205.062-.378.185-.519.127-.141.314-.212.56-.212.246 0 .433.071.561.212a.748.748 0 0 1 .191.519.724.724 0 0 1-.191.513c-.128.137-.315.205-.561.205-.246 0-.433-.068-.56-.205a.738.738 0 0 1-.185-.513zm4.771 9.359h-1.264v-10.5h1.264v10.5zm3.405 0h-1.265v-7.397h1.265v7.397zm-1.367-9.359c0-.205.061-.378.184-.519.128-.141.315-.212.561-.212.246 0 .433.071.56.212a.744.744 0 0 1 .192.519.72.72 0 0 1-.192.513c-.127.137-.314.205-.56.205-.246 0-.433-.068-.561-.205a.737.737 0 0 1-.184-.513zm4.587 8.327h4.327v1.032h-5.872v-.93l4.081-5.421h-4.02v-1.046h5.606v.896l-4.122 5.469zm8.715 1.169c-1.002 0-1.818-.329-2.447-.985-.629-.661-.943-1.542-.943-2.645v-.233c0-.733.139-1.387.417-1.962a3.28 3.28 0 0 1 1.175-1.353 2.96 2.96 0 0 1 1.641-.492c.962 0 1.709.316 2.242.95.533.633.8 1.54.8 2.721v.526h-5.011c.019.729.23 1.319.636 1.77.41.447.93.67 1.559.67.446 0 .825-.091 1.134-.273a2.84 2.84 0 0 0 .814-.725l.772.602c-.619.952-1.549 1.429-2.789 1.429zm-.157-6.631c-.51 0-.939.187-1.285.56-.346.369-.561.889-.643 1.559h3.705v-.096c-.036-.642-.209-1.139-.519-1.49-.31-.356-.729-.533-1.258-.533zm8.087.232a3.777 3.777 0 0 0-.622-.048c-.829 0-1.392.353-1.689 1.06v5.25H497.1v-7.397h1.23l.021.855c.415-.661 1.002-.991 1.763-.991.247 0 .433.032.561.095v1.176zm5.476 4.3c0-.342-.13-.606-.39-.793-.255-.191-.704-.355-1.347-.492-.638-.137-1.146-.301-1.524-.492-.374-.192-.652-.42-.834-.684a1.648 1.648 0 0 1-.267-.943c0-.606.255-1.119.766-1.538.515-.42 1.171-.629 1.969-.629.838 0 1.517.216 2.037.649.524.433.786.987.786 1.661h-1.272c0-.346-.148-.645-.444-.895-.292-.251-.661-.376-1.107-.376-.461 0-.821.1-1.08.3a.948.948 0 0 0-.39.787c0 .305.121.535.362.69.242.155.677.303 1.306.444.633.142 1.146.31 1.538.506.392.196.681.433.868.711.192.274.287.609.287 1.005 0 .661-.264 1.192-.793 1.593-.528.396-1.214.595-2.057.595-.593 0-1.117-.105-1.573-.315a2.598 2.598 0 0 1-1.073-.875 2.147 2.147 0 0 1-.383-1.224h1.265c.023.424.191.762.506 1.012.319.246.738.369 1.258.369.478 0 .861-.095 1.148-.287.292-.196.438-.455.438-.779zm15.066-1.381h1.381v1.032h-1.381v2.311h-1.271v-2.311h-4.533v-.745l4.457-6.897h1.347v6.61zm-4.368 0h3.097v-4.881l-.151.274-2.946 4.607zm12.927-4.013c0 .497-.133.939-.397 1.327-.26.387-.613.69-1.059.909.519.223.929.549 1.23.977.305.429.458.914.458 1.456 0 .862-.292 1.548-.875 2.058-.579.51-1.342.766-2.29.766-.957 0-1.725-.256-2.304-.766-.574-.515-.861-1.201-.861-2.058 0-.537.146-1.023.437-1.456a2.771 2.771 0 0 1 1.224-.984 2.612 2.612 0 0 1-1.046-.909 2.348 2.348 0 0 1-.383-1.32c0-.838.269-1.504.807-1.996s1.246-.738 2.126-.738c.875 0 1.581.246 2.119.738.542.492.814 1.158.814 1.996zm-1.033 4.642c0-.556-.177-1.009-.533-1.36-.351-.351-.811-.527-1.381-.527-.569 0-1.027.173-1.374.52-.342.346-.512.802-.512 1.367s.166 1.009.499 1.333c.337.324.804.485 1.401.485.592 0 1.057-.161 1.395-.485.337-.328.505-.772.505-1.333zm-1.9-6.337c-.497 0-.9.155-1.21.465-.305.305-.458.722-.458 1.251 0 .506.15.916.451 1.23.306.31.711.465 1.217.465.506 0 .909-.155 1.21-.465.305-.314.458-.724.458-1.23s-.157-.918-.472-1.237c-.314-.319-.713-.479-1.196-.479zm10.794 1.695c0 .497-.132.939-.397 1.327a2.65 2.65 0 0 1-1.059.909c.519.223.93.549 1.23.977.306.429.458.914.458 1.456 0 .862-.291 1.548-.875 2.058-.578.51-1.342.766-2.29.766-.957 0-1.725-.256-2.303-.766-.575-.515-.862-1.201-.862-2.058 0-.537.146-1.023.438-1.456a2.763 2.763 0 0 1 1.223-.984 2.61 2.61 0 0 1-1.045-.909 2.34 2.34 0 0 1-.383-1.32c0-.838.269-1.504.806-1.996.538-.492 1.247-.738 2.126-.738.875 0 1.582.246 2.119.738.543.492.814 1.158.814 1.996zm-1.032 4.642c0-.556-.178-1.009-.533-1.36-.351-.351-.812-.527-1.381-.527-.57 0-1.028.173-1.374.52-.342.346-.513.802-.513 1.367s.166 1.009.499 1.333c.337.324.804.485 1.401.485.593 0 1.058-.161 1.395-.485.337-.328.506-.772.506-1.333zm-1.901-6.337c-.496 0-.9.155-1.21.465-.305.305-.458.722-.458 1.251 0 .506.151.916.452 1.23.305.31.71.465 1.216.465s.909-.155 1.21-.465c.306-.314.458-.724.458-1.23s-.157-.918-.471-1.237c-.315-.319-.714-.479-1.197-.479zm4.847 11.033l-.718-.492c.429-.597.652-1.212.67-1.846v-1.141h1.237v.991c0 .46-.113.921-.341 1.381-.224.46-.506.829-.848 1.107zm3.24-6.972l.506-4.963h5.1v1.169h-4.027l-.3 2.714c.487-.288 1.041-.431 1.661-.431.907 0 1.627.301 2.16.902.533.597.8 1.406.8 2.427 0 1.025-.278 1.834-.834 2.427-.552.588-1.324.882-2.318.882-.879 0-1.597-.244-2.153-.732-.556-.487-.873-1.162-.95-2.023h1.196c.078.569.28 1 .608 1.292.329.287.762.43 1.299.43.588 0 1.048-.2 1.381-.601.337-.401.506-.955.506-1.661 0-.666-.182-1.199-.547-1.6-.36-.406-.841-.608-1.442-.608-.552 0-.985.12-1.299.362l-.335.273-1.012-.259zm9.475 1.565l-.793.827v2.598h-1.265v-10.5h1.265v6.35l.677-.813 2.303-2.434h1.538l-2.878 3.09 3.213 4.307h-1.483l-2.577-3.425zm-20.57 31.363h-2.54v-9.791l-3.032.94v-2.065l5.3-1.899h.272v12.815zm12.867-11.373l-4.948 11.373h-2.68l4.957-10.741h-6.364v-2.056h9.035v1.424zm1.6 1.037c0-.785.255-1.421.765-1.908.51-.492 1.177-.738 2.004-.738.838 0 1.511.243 2.021.73.51.48.765 1.133.765 1.96v.632c0 .791-.255 1.427-.765 1.908-.51.48-1.178.72-2.004.72-.832 0-1.506-.24-2.021-.72-.51-.487-.765-1.14-.765-1.96v-.624zm1.688.676c0 .352.099.636.298.853.205.211.472.316.8.316.328 0 .589-.108.782-.325.194-.217.29-.507.29-.87v-.65c0-.352-.096-.636-.29-.853-.193-.217-.46-.325-.799-.325-.323 0-.583.108-.783.325-.199.211-.298.507-.298.888v.641zm4.429 6.522c0-.791.258-1.427.774-1.907.515-.487 1.183-.73 2.004-.73.832 0 1.503.24 2.012.721.516.475.774 1.131.774 1.969v.632c0 .786-.252 1.421-.756 1.908-.504.48-1.175.72-2.013.72-.844 0-1.52-.243-2.03-.729-.51-.486-.765-1.131-.765-1.934v-.65zm1.688.685c0 .323.105.598.316.827.211.228.475.342.791.342.715 0 1.072-.395 1.072-1.186v-.668c0-.352-.099-.633-.298-.844-.2-.217-.463-.325-.791-.325-.329 0-.592.108-.791.325-.2.211-.299.501-.299.87v.659zm-4.518 1.495l-1.239-.668 6.249-10.002 1.239.668-6.249 10.002zm-529.4-46.77c0 .975-.163 1.828-.491 2.557-.329.724-.793 1.278-1.395 1.661s-1.303.574-2.105.574c-.784 0-1.48-.191-2.085-.574-.607-.388-1.078-.937-1.415-1.648-.333-.715-.504-1.542-.513-2.481v-.718c0-.957.166-1.802.499-2.536.333-.734.802-1.294 1.408-1.682.61-.392 1.308-.588 2.092-.588.797 0 1.5.194 2.105.582.611.382 1.08.941 1.409 1.674.328.73.492 1.579.492 2.55v.629zm-1.305-.643c0-1.18-.237-2.084-.71-2.713-.475-.634-1.138-.951-1.99-.951-.83 0-1.484.317-1.962.951-.474.629-.718 1.504-.731 2.625v.731c0 1.144.239 2.044.717 2.7.483.652 1.146.978 1.99.978.847 0 1.503-.308 1.968-.923.465-.62.704-1.506.718-2.659v-.739zm6.651-.963a3.779 3.779 0 0 0-.622-.048c-.829 0-1.392.353-1.688 1.059v5.25H21.82v-7.396h1.23l.021.854c.415-.66 1.003-.991 1.764-.991.246 0 .433.032.56.096v1.176zm4.102 6.398c-1.003 0-1.818-.328-2.447-.984-.63-.661-.944-1.543-.944-2.646v-.232c0-.734.14-1.388.417-1.962a3.287 3.287 0 0 1 1.176-1.354 2.959 2.959 0 0 1 1.64-.492c.962 0 1.71.317 2.243.95.533.634.8 1.541.8 2.721v.526h-5.01c.017.73.23 1.32.635 1.771.41.447.93.67 1.558.67.447 0 .825-.091 1.135-.274a2.84 2.84 0 0 0 .814-.724l.772.601c-.62.953-1.55 1.429-2.789 1.429zm-.157-6.631c-.51 0-.939.187-1.285.561-.347.369-.56.888-.643 1.558h3.705v-.095c-.036-.643-.21-1.14-.52-1.491-.31-.355-.729-.533-1.257-.533zm13.89-.861c0 .497-.132.939-.396 1.326-.26.387-.613.69-1.06.909.52.224.93.549 1.23.978.306.428.459.913.459 1.456 0 .861-.292 1.547-.875 2.057-.579.511-1.342.766-2.29.766-.957 0-1.725-.255-2.304-.766-.574-.515-.861-1.2-.861-2.057 0-.538.146-1.023.437-1.456a2.772 2.772 0 0 1 1.224-.985 2.598 2.598 0 0 1-1.046-.909 2.343 2.343 0 0 1-.383-1.319c0-.839.27-1.504.807-1.996.538-.492 1.246-.739 2.126-.739.875 0 1.581.247 2.119.739.542.492.813 1.157.813 1.996zM42.2 263.23c0-.556-.177-1.009-.533-1.36-.35-.351-.811-.526-1.38-.526-.57 0-1.029.173-1.375.519-.342.347-.513.802-.513 1.367 0 .566.167 1.01.5 1.333.337.324.804.486 1.4.486.593 0 1.058-.162 1.395-.486.338-.328.506-.772.506-1.333zm-1.9-6.336c-.497 0-.9.155-1.21.464-.306.306-.458.723-.458 1.251 0 .506.15.916.451 1.231.305.31.711.465 1.217.465.506 0 .909-.155 1.21-.465.305-.315.458-.725.458-1.231 0-.505-.157-.918-.472-1.237-.314-.319-.713-.478-1.196-.478zm10.999 4.805c0 1.481-.253 2.582-.759 3.302-.506.72-1.297 1.08-2.372 1.08-1.062 0-1.848-.351-2.358-1.053-.51-.706-.775-1.759-.793-3.158v-1.688c0-1.463.253-2.55.758-3.261.506-.711 1.3-1.067 2.38-1.067 1.07 0 1.859.345 2.365 1.033.505.683.765 1.741.779 3.172v1.64zm-1.265-1.729c0-1.071-.15-1.851-.451-2.338-.3-.492-.777-.738-1.429-.738-.647 0-1.118.243-1.415.731-.296.488-.449 1.237-.458 2.249v2.023c0 1.076.155 1.871.465 2.386.315.511.788.766 1.422.766.624 0 1.087-.242 1.388-.725.305-.483.465-1.244.478-2.283v-2.071zm2.974 7.957l-.718-.492c.428-.597.652-1.213.67-1.846v-1.142h1.237v.991c0 .461-.114.921-.341 1.381-.224.461-.506.83-.848 1.108zm4.498-7.574h.95c.597-.01 1.067-.167 1.408-.472.342-.305.513-.718.513-1.237 0-1.167-.581-1.75-1.743-1.75-.547 0-.985.157-1.313.471-.323.31-.485.723-.485 1.238H55.57c0-.789.287-1.443.862-1.962.578-.524 1.312-.787 2.2-.787.94 0 1.676.249 2.209.746.533.496.8 1.187.8 2.071 0 .433-.142.852-.424 1.258a2.524 2.524 0 0 1-1.142.909c.547.173.969.46 1.265.861.3.401.451.891.451 1.47 0 .893-.292 1.602-.875 2.126-.583.524-1.342.786-2.276.786-.935 0-1.696-.253-2.284-.759-.583-.506-.875-1.173-.875-2.003h1.272c0 .524.17.944.513 1.258.341.315.8.472 1.374.472.61 0 1.077-.16 1.401-.479.324-.319.485-.777.485-1.374 0-.578-.177-1.023-.533-1.333-.355-.31-.868-.469-1.538-.478h-.95v-1.032zm8.217 2.167l-.793.827v2.597h-1.265v-10.5h1.265v6.351l.677-.814 2.303-2.433h1.538l-2.878 3.09 3.213 4.306H68.3l-2.577-3.424zm-51.03 23.836h1.354c.644 0 1.122-.161 1.433-.483.31-.323.465-.75.465-1.284 0-.515-.155-.917-.465-1.204-.305-.287-.727-.43-1.266-.43-.486 0-.894.134-1.222.404a1.266 1.266 0 0 0-.492 1.037h-2.54c0-.668.179-1.266.536-1.793.363-.533.867-.949 1.512-1.248a5.072 5.072 0 0 1 2.144-.448c1.354 0 2.414.325 3.182.975.768.645 1.151 1.535 1.151 2.672 0 .586-.178 1.125-.536 1.617a3.472 3.472 0 0 1-1.406 1.134c.72.258 1.257.645 1.608 1.16.358.516.537 1.125.537 1.828 0 1.137-.416 2.048-1.248 2.734-.827.685-1.922 1.028-3.288 1.028-1.277 0-2.323-.337-3.137-1.011-.809-.673-1.213-1.564-1.213-2.671h2.54c0 .48.178.873.536 1.177.363.305.809.457 1.336.457.603 0 1.075-.158 1.415-.474.346-.323.518-.747.518-1.275 0-1.277-.703-1.916-2.109-1.916h-1.345v-1.986zm7.717-2.813c0-.785.255-1.42.765-1.907.51-.492 1.177-.738 2.004-.738.838 0 1.511.243 2.021.729.51.481.765 1.134.765 1.96v.633c0 .791-.255 1.427-.765 1.907-.51.481-1.177.721-2.004.721-.832 0-1.506-.24-2.021-.721-.51-.486-.765-1.139-.765-1.96v-.624zm1.688.677c0 .352.1.636.299.853.205.211.471.316.8.316.327 0 .588-.108.782-.325.193-.217.29-.507.29-.87v-.651c0-.351-.097-.635-.29-.852-.194-.217-.46-.325-.8-.325-.323 0-.583.108-.782.325-.2.211-.3.507-.3.888v.641zm4.43 6.522c0-.791.257-1.427.773-1.908.515-.486 1.183-.729 2.004-.729.832 0 1.503.24 2.012.721.516.474.774 1.131.774 1.968v.633c0 .785-.252 1.421-.756 1.907-.504.481-1.175.721-2.013.721-.843 0-1.52-.243-2.03-.729-.51-.487-.765-1.131-.765-1.934v-.65zm1.687.685c0 .323.105.598.316.826.211.229.475.343.791.343.715 0 1.073-.395 1.073-1.186v-.668c0-.352-.1-.633-.3-.844-.198-.217-.462-.325-.79-.325s-.592.108-.791.325c-.2.211-.3.501-.3.87v.659zm-4.518 1.494l-1.239-.668 6.249-10.002 1.24.668-6.25 10.002z" fill="#009487"/><path d="M38.648 20.738h127.311v61.087m379.66-61.087H322.824m232.74 104.416h-92.357v35.374h-39.074m131.006 127.857h-151.75v-54.268m-22.877 151.724H246.665v-93.336M12.22 272.9h111.113V141.918h36.232" stroke="#009487" stroke-width=".5" stroke-miterlimit="10"/><path d="M0 183.258h105.572v-70.321h48.594" stroke="#009487" stroke-width=".5" stroke-miterlimit="10"/><path d="M165.959 85.235c1.847 0 3.268-1.421 3.268-3.268 0-1.847-1.421-3.267-3.268-3.267-1.847 0-3.268 1.42-3.268 3.267-.142 1.705 1.421 3.268 3.268 3.268zm156.866-61.23c-1.847 0-3.268-1.42-3.268-3.267s1.421-3.268 3.268-3.268c1.847 0 3.268 1.42 3.268 3.268.142 1.846-1.421 3.267-3.268 3.267zm101.308 139.79c-1.847 0-3.268-1.42-3.268-3.267s1.421-3.268 3.268-3.268c1.847 0 3.268 1.421 3.268 3.268 0 1.847-1.421 3.267-3.268 3.267zm-20.745 66.913c-1.847 0-3.268 1.42-3.268 3.267s1.421 3.267 3.268 3.267c1.847 0 3.268-1.42 3.268-3.267s-1.421-3.267-3.268-3.267zm-156.722 58.53c-1.848 0-3.269 1.42-3.269 3.267s1.421 3.267 3.269 3.267c1.847 0 3.268-1.42 3.268-3.267s-1.421-3.267-3.268-3.267zM159.565 138.65c1.847 0 3.268 1.421 3.268 3.268 0 1.847-1.421 3.267-3.268 3.267-1.847 0-3.268-1.42-3.268-3.267s1.563-3.268 3.268-3.268zm-5.399-28.981c1.847 0 3.268 1.421 3.268 3.268 0 1.847-1.421 3.267-3.268 3.267-1.847 0-3.268-1.42-3.268-3.267-.142-1.847 1.421-3.268 3.268-3.268z" fill="#009487"/></svg>