<svg width="593" height="414" fill="none" xmlns="http://www.w3.org/2000/svg"><path d="M50.81 8.345c0 .975-.165 1.827-.493 2.556-.328.725-.793 1.279-1.394 1.662-.602.382-1.303.574-2.106.574-.784 0-1.478-.192-2.085-.575-.606-.387-1.077-.936-1.415-1.647-.332-.715-.503-1.543-.512-2.481v-.718c0-.957.166-1.803.499-2.536.332-.734.802-1.295 1.408-1.682.61-.392 1.308-.588 2.092-.588.797 0 1.5.194 2.105.581.61.383 1.08.941 1.408 1.675.328.73.493 1.58.493 2.55v.629zm-1.306-.643c0-1.18-.237-2.085-.711-2.714-.474-.633-1.137-.95-1.99-.95-.829 0-1.483.317-1.961.95-.474.63-.718 1.504-.732 2.625v.732c0 1.144.24 2.044.718 2.7.483.652 1.146.978 1.99.978.847 0 1.503-.308 1.968-.923.465-.62.704-1.507.718-2.66v-.738zm4.792-3.89v1.792h1.38v.977h-1.38v4.587c0 .296.061.52.184.67.123.146.333.219.63.219.145 0 .346-.028.6-.082V13a3.667 3.667 0 0 1-.97.137c-.565 0-.991-.171-1.278-.513-.287-.342-.43-.827-.43-1.456V6.581h-1.347v-.977h1.346V3.812h1.265zM58.425 6.5c.56-.688 1.29-1.032 2.187-1.032 1.563 0 2.352.882 2.365 2.645V13h-1.264V8.105c-.005-.533-.128-.927-.37-1.182-.236-.255-.608-.383-1.114-.383-.41 0-.77.11-1.08.328-.31.219-.551.506-.724.861V13H57.16V2.5h1.265v3.999zm9.515 6.638c-1.002 0-1.818-.328-2.447-.985-.629-.66-.943-1.542-.943-2.645v-.233c0-.733.139-1.387.417-1.961a3.283 3.283 0 0 1 1.176-1.354 2.958 2.958 0 0 1 1.64-.492c.962 0 1.71.317 2.242.95.534.633.8 1.54.8 2.72v.527h-5.01c.018.73.23 1.32.635 1.77.41.447.93.67 1.559.67.446 0 .825-.09 1.135-.273a2.85 2.85 0 0 0 .813-.725l.773.602c-.62.953-1.55 1.429-2.79 1.429zm-.157-6.631c-.51 0-.939.187-1.285.56-.346.37-.56.89-.642 1.559h3.705V8.53c-.037-.642-.21-1.139-.52-1.49-.31-.355-.73-.533-1.258-.533zm8.087.232a3.79 3.79 0 0 0-.622-.048c-.83 0-1.392.354-1.688 1.06V13h-1.265V5.604h1.23l.02.854c.416-.66 1.004-.991 1.765-.991.246 0 .433.032.56.096v1.175zM88.01 13h-1.27V4.571l-2.55.937V4.359L87.813 3h.198v10zm3.795 1.982l-.718-.492c.428-.597.652-1.212.67-1.845v-1.142h1.237v.991c0 .46-.114.92-.342 1.381-.223.46-.505.83-.847 1.107zm8.9-6.227c0 1.481-.253 2.582-.759 3.302-.506.72-1.296 1.08-2.372 1.08-1.062 0-1.848-.351-2.358-1.053-.51-.706-.775-1.76-.793-3.158V7.237c0-1.463.253-2.55.759-3.26.505-.711 1.299-1.067 2.379-1.067 1.07 0 1.859.344 2.365 1.032.506.684.765 1.741.779 3.172v1.64zm-1.265-1.73c0-1.07-.15-1.85-.45-2.338-.301-.492-.778-.738-1.43-.738-.647 0-1.118.244-1.415.732-.296.487-.448 1.237-.457 2.249v2.023c0 1.076.154 1.87.464 2.386.315.51.789.765 1.422.765.625 0 1.087-.241 1.388-.724.305-.483.465-1.244.478-2.283V7.025zm4.205-1.421l.034.82c.542-.638 1.273-.957 2.194-.957 1.035 0 1.739.396 2.112 1.19a2.81 2.81 0 0 1 .957-.862c.397-.219.864-.328 1.402-.328 1.622 0 2.447.859 2.474 2.577V13h-1.264V8.12c0-.53-.121-.924-.363-1.183-.241-.265-.647-.397-1.216-.397-.47 0-.859.141-1.169.424-.31.278-.49.654-.54 1.128V13h-1.272V8.153c0-1.075-.526-1.613-1.579-1.613-.829 0-1.397.353-1.702 1.06V13h-1.265V5.604h1.197zM116.106 13h-1.264V5.604h1.264V13zm-1.367-9.358c0-.205.062-.379.185-.52.127-.141.314-.212.56-.212.246 0 .433.07.561.212a.745.745 0 0 1 .191.52.72.72 0 0 1-.191.512c-.128.137-.315.205-.561.205-.246 0-.433-.068-.56-.205a.738.738 0 0 1-.185-.512zM119.511 13h-1.265V2.5h1.265V13zM445.3 8.563c-1.126-.323-1.946-.72-2.461-1.189a2.293 2.293 0 0 1-.766-1.75c0-.784.312-1.431.937-1.941.629-.515 1.444-.773 2.447-.773.684 0 1.292.132 1.825.397.538.264.953.629 1.244 1.093.297.465.445.973.445 1.525h-1.32c0-.602-.191-1.073-.574-1.415-.383-.347-.923-.52-1.62-.52-.647 0-1.153.144-1.518.43-.36.283-.54.678-.54 1.184 0 .405.171.75.513 1.032.346.278.932.533 1.757.765.829.233 1.477.49 1.941.773.47.278.816.604 1.039.977.228.374.342.814.342 1.32 0 .806-.314 1.454-.943 1.941-.629.483-1.47.725-2.523.725-.683 0-1.321-.13-1.914-.39-.592-.264-1.05-.624-1.374-1.08a2.64 2.64 0 0 1-.478-1.552h1.319c0 .602.221 1.078.663 1.429.447.346 1.042.52 1.784.52.693 0 1.224-.142 1.593-.424.369-.283.554-.668.554-1.156 0-.487-.171-.863-.513-1.128-.342-.268-.961-.533-1.859-.793zm4.846.67c0-.724.142-1.376.424-1.955a3.217 3.217 0 0 1 1.19-1.34c.51-.314 1.091-.471 1.743-.471 1.007 0 1.821.348 2.44 1.046.625.697.937 1.624.937 2.782v.089c0 .72-.139 1.367-.417 1.941a3.119 3.119 0 0 1-1.183 1.333c-.51.32-1.098.479-1.763.479-1.003 0-1.816-.349-2.441-1.046-.62-.697-.93-1.62-.93-2.769v-.089zm1.272.15c0 .821.189 1.48.567 1.976.383.497.894.745 1.532.745.642 0 1.153-.25 1.531-.752.378-.505.567-1.212.567-2.119 0-.81-.193-1.467-.581-1.968a1.825 1.825 0 0 0-1.531-.76c-.624 0-1.128.25-1.511.746-.383.497-.574 1.208-.574 2.133zm9.358 1.765l1.723-5.544h1.354l-2.974 8.538c-.46 1.23-1.192 1.845-2.194 1.845l-.24-.02-.471-.09v-1.025l.341.028c.429 0 .761-.087.998-.26.242-.173.44-.49.595-.95l.28-.752-2.638-7.314h1.381l1.845 5.544zM469.444 13c-.073-.146-.132-.406-.177-.78-.588.611-1.29.917-2.106.917-.729 0-1.328-.205-1.798-.616a2.015 2.015 0 0 1-.697-1.572c0-.77.292-1.367.875-1.79.588-.43 1.413-.643 2.475-.643h1.23v-.581c0-.442-.132-.793-.396-1.053-.265-.264-.654-.397-1.169-.397-.452 0-.83.114-1.135.342-.305.228-.458.504-.458.827h-1.272c0-.369.13-.724.39-1.066a2.7 2.7 0 0 1 1.066-.82c.452-.2.946-.301 1.484-.301.852 0 1.52.214 2.003.642.483.424.734 1.01.752 1.757v3.405c0 .678.086 1.219.26 1.62V13h-1.327zm-2.098-.964c.396 0 .772-.102 1.128-.307a1.86 1.86 0 0 0 .772-.8V9.41h-.991c-1.55 0-2.324.454-2.324 1.36 0 .397.132.707.396.93.264.223.604.335 1.019.335zm16.119.964h-1.272V4.571l-2.549.937V4.359L483.267 3h.198v10zm3.794 1.982l-.718-.492c.428-.597.652-1.212.67-1.845v-1.142h1.237v.991c0 .46-.114.92-.342 1.381a3.19 3.19 0 0 1-.847 1.107zM494.074 13h-1.271V4.571l-2.55.937V4.359L493.876 3h.198v10zm9.741-7.355c0 .496-.132.938-.396 1.326a2.65 2.65 0 0 1-1.06.909c.52.223.93.549 1.231.977.305.429.458.914.458 1.457 0 .86-.292 1.547-.875 2.057-.579.51-1.342.766-2.29.766-.957 0-1.725-.255-2.304-.766-.574-.515-.861-1.2-.861-2.058 0-.537.146-1.023.437-1.456a2.763 2.763 0 0 1 1.224-.984 2.608 2.608 0 0 1-1.046-.91 2.346 2.346 0 0 1-.383-1.318c0-.839.269-1.504.807-1.997.538-.492 1.246-.738 2.126-.738.875 0 1.581.246 2.119.738.542.493.813 1.158.813 1.997zm-1.032 4.641c0-.556-.178-1.01-.533-1.36-.351-.351-.811-.527-1.381-.527s-1.028.174-1.374.52c-.342.346-.513.802-.513 1.367s.167 1.01.499 1.333c.338.324.805.486 1.402.486.592 0 1.057-.162 1.394-.486.338-.328.506-.772.506-1.333zm-1.9-6.337c-.497 0-.9.155-1.21.465-.305.305-.458.722-.458 1.251 0 .506.15.916.451 1.23.305.31.711.465 1.217.465.506 0 .909-.155 1.21-.464.305-.315.458-.725.458-1.231 0-.506-.157-.918-.472-1.237-.314-.32-.713-.479-1.196-.479zm9.55 1.655l.034.82c.542-.638 1.274-.957 2.194-.957 1.035 0 1.739.396 2.112 1.19.247-.356.566-.643.957-.862.397-.219.864-.328 1.402-.328 1.622 0 2.447.859 2.474 2.577V13h-1.264V8.12c0-.53-.121-.924-.363-1.183-.241-.265-.647-.397-1.216-.397-.47 0-.859.141-1.169.424-.31.278-.49.654-.54 1.128V13h-1.272V8.153c0-1.075-.526-1.613-1.579-1.613-.829 0-1.397.353-1.702 1.06V13h-1.265V5.604h1.197zM522.895 13h-1.265V5.604h1.265V13zm-1.368-9.358c0-.205.062-.379.185-.52.128-.141.314-.212.56-.212.247 0 .433.07.561.212a.745.745 0 0 1 .191.52.72.72 0 0 1-.191.512c-.128.137-.314.205-.561.205-.246 0-.432-.068-.56-.205a.738.738 0 0 1-.185-.512zM526.299 13h-1.265V2.5h1.265V13zM423.856 329.463h-4.176v4.395h-1.313v-9.953h6.166v1.08h-4.853v3.404h4.176v1.074zm4.97 4.532c-1.002 0-1.818-.328-2.447-.985-.629-.66-.943-1.542-.943-2.645v-.232c0-.734.139-1.388.417-1.962a3.283 3.283 0 0 1 1.175-1.354 2.96 2.96 0 0 1 1.641-.492c.962 0 1.709.317 2.242.95.533.634.8 1.541.8 2.721v.526H426.7c.018.729.23 1.32.636 1.771.41.446.93.67 1.559.67.446 0 .824-.091 1.134-.274.31-.182.581-.424.814-.724l.772.601c-.62.953-1.549 1.429-2.789 1.429zm-.157-6.631c-.51 0-.939.187-1.285.561-.347.369-.561.888-.643 1.558h3.705v-.096c-.036-.642-.209-1.139-.519-1.49-.31-.355-.729-.533-1.258-.533zm8.087.232a3.903 3.903 0 0 0-.622-.047c-.83 0-1.392.353-1.689 1.059v5.25h-1.264v-7.396h1.23l.021.854c.414-.661 1.002-.991 1.763-.991.246 0 .433.032.561.096v1.175zm3.226-2.925v1.791h1.381v.977h-1.381v4.587c0 .296.062.52.185.67.123.146.333.219.629.219.146 0 .346-.028.601-.082v1.025a3.667 3.667 0 0 1-.97.137c-.565 0-.991-.171-1.279-.513-.287-.342-.43-.827-.43-1.456v-4.587h-1.347v-.977h1.347v-1.791h1.264zm4.239 9.187h-1.265v-7.396h1.265v7.396zm-1.367-9.358c0-.205.061-.378.184-.52.128-.141.315-.212.561-.212.246 0 .433.071.56.212a.748.748 0 0 1 .192.52.718.718 0 0 1-.192.512c-.127.137-.314.206-.56.206-.246 0-.433-.069-.561-.206a.735.735 0 0 1-.184-.512zm4.771 9.358h-1.265v-10.5h1.265v10.5zm3.404 0h-1.264v-7.396h1.264v7.396zm-1.367-9.358c0-.205.062-.378.185-.52.127-.141.314-.212.56-.212.246 0 .433.071.561.212a.752.752 0 0 1 .191.52.722.722 0 0 1-.191.512c-.128.137-.315.206-.561.206-.246 0-.433-.069-.56-.206a.735.735 0 0 1-.185-.512zm4.587 8.326h4.327v1.032h-5.872v-.93l4.081-5.42h-4.019v-1.046h5.605v.895l-4.122 5.469zm8.716 1.169c-1.003 0-1.819-.328-2.447-.985-.629-.66-.944-1.542-.944-2.645v-.232c0-.734.139-1.388.417-1.962a3.292 3.292 0 0 1 1.176-1.354 2.96 2.96 0 0 1 1.641-.492c.961 0 1.709.317 2.242.95.533.634.8 1.541.8 2.721v.526h-5.011c.018.729.23 1.32.636 1.771.41.446.929.67 1.558.67.447 0 .825-.091 1.135-.274.31-.182.581-.424.813-.724l.773.601c-.62.953-1.55 1.429-2.789 1.429zm-.157-6.631c-.511 0-.939.187-1.286.561-.346.369-.56.888-.642 1.558h3.705v-.096c-.036-.642-.21-1.139-.52-1.49-.309-.355-.729-.533-1.257-.533zm8.087.232a3.906 3.906 0 0 0-.623-.047c-.829 0-1.392.353-1.688 1.059v5.25h-1.265v-7.396h1.231l.02.854c.415-.661 1.003-.991 1.764-.991.246 0 .433.032.561.096v1.175zm5.475 4.3c0-.342-.13-.606-.39-.793-.255-.191-.704-.355-1.346-.492-.638-.137-1.146-.301-1.525-.492-.373-.192-.651-.419-.834-.684a1.653 1.653 0 0 1-.266-.943c0-.606.255-1.119.765-1.538.515-.419 1.172-.629 1.969-.629.839 0 1.518.216 2.037.649.524.433.786.987.786 1.661h-1.271c0-.346-.148-.644-.444-.895-.292-.251-.661-.376-1.108-.376-.46 0-.82.1-1.08.301-.26.2-.39.462-.39.786 0 .305.121.535.363.69.241.155.676.303 1.305.445.634.141 1.147.31 1.538.506.392.196.682.432.869.71.191.274.287.609.287 1.005 0 .661-.265 1.192-.793 1.593-.529.397-1.215.595-2.058.595-.592 0-1.116-.105-1.572-.315a2.578 2.578 0 0 1-1.073-.875 2.139 2.139 0 0 1-.383-1.223h1.265c.022.424.191.761.505 1.012.319.246.739.369 1.258.369.479 0 .862-.096 1.149-.287.291-.196.437-.456.437-.78zm15.067-1.381h1.38v1.033h-1.38v2.31h-1.272v-2.31h-4.532v-.746l4.457-6.897h1.347v6.61zm-4.369 0h3.097v-4.88l-.15.273-2.947 4.607zm12.927-4.012c0 .496-.132.938-.396 1.326-.26.387-.613.69-1.06.909.52.223.93.549 1.231.978.305.428.458.913.458 1.456 0 .861-.292 1.547-.875 2.057-.579.511-1.343.766-2.291.766-.957 0-1.724-.255-2.303-.766-.574-.515-.862-1.201-.862-2.057 0-.538.146-1.023.438-1.456a2.769 2.769 0 0 1 1.224-.985 2.612 2.612 0 0 1-1.046-.909 2.337 2.337 0 0 1-.383-1.319c0-.839.269-1.504.807-1.996.537-.493 1.246-.739 2.125-.739.876 0 1.582.246 2.12.739.542.492.813 1.157.813 1.996zm-1.032 4.641c0-.556-.178-1.009-.533-1.36-.351-.351-.812-.526-1.381-.526-.57 0-1.028.173-1.374.519-.342.346-.513.802-.513 1.367s.166 1.01.499 1.333c.337.324.804.486 1.401.486.593 0 1.058-.162 1.395-.486.337-.328.506-.772.506-1.333zm-1.901-6.337c-.496 0-.9.155-1.209.465-.306.306-.458.723-.458 1.251 0 .506.15.916.451 1.231.305.31.711.465 1.216.465.506 0 .91-.155 1.21-.465.306-.315.458-.725.458-1.231 0-.506-.157-.918-.471-1.237-.315-.319-.713-.479-1.197-.479zm11 4.806c0 1.481-.253 2.582-.759 3.302-.506.72-1.297 1.08-2.372 1.08-1.062 0-1.848-.351-2.359-1.053-.51-.706-.774-1.759-.793-3.158v-1.689c0-1.462.253-2.549.759-3.26.506-.711 1.299-1.067 2.379-1.067 1.071 0 1.859.344 2.365 1.033.506.683.766 1.74.78 3.171v1.641zm-1.265-1.729c0-1.071-.151-1.851-.451-2.338-.301-.493-.777-.739-1.429-.739-.647 0-1.119.244-1.415.732-.296.487-.449 1.237-.458 2.249v2.023c0 1.076.155 1.871.465 2.386.314.51.788.766 1.422.766.624 0 1.087-.242 1.387-.725.306-.483.465-1.244.479-2.283v-2.071zm2.974 7.957l-.718-.493c.428-.597.651-1.212.67-1.845v-1.142h1.237v.991c0 .461-.114.921-.342 1.381-.223.46-.506.83-.847 1.108zm4.498-7.575h.95c.597-.009 1.066-.166 1.408-.471.342-.306.513-.718.513-1.238 0-1.166-.581-1.75-1.744-1.75-.546 0-.984.158-1.312.472-.324.31-.485.722-.485 1.237h-1.265c0-.788.287-1.442.861-1.962.579-.524 1.313-.786 2.201-.786.939 0 1.675.249 2.208.745.534.497.8 1.188.8 2.072 0 .433-.141.852-.424 1.258a2.522 2.522 0 0 1-1.141.909c.547.173.968.46 1.265.861.3.401.451.891.451 1.47 0 .893-.292 1.602-.875 2.126-.584.524-1.342.786-2.277.786-.934 0-1.695-.253-2.283-.759-.583-.506-.875-1.173-.875-2.003h1.272c0 .524.171.944.512 1.258.342.314.8.472 1.374.472.611 0 1.078-.16 1.402-.479.323-.319.485-.777.485-1.374 0-.579-.178-1.023-.533-1.333-.356-.31-.868-.469-1.538-.478h-.95v-1.033zm8.216 2.167l-.793.827v2.598h-1.264v-10.5h1.264v6.351l.677-.814 2.304-2.433h1.538l-2.878 3.09 3.213 4.306h-1.484l-2.577-3.425zm-251.622 45.105h-4.17l-.936 2.598h-1.354l3.801-9.953h1.149l3.807 9.953h-1.347l-.95-2.598zm-3.773-1.08h3.384l-1.696-4.655-1.688 4.655zm8.586 3.678h-1.265v-10.5h1.265v10.5zm6.596-.732c-.492.579-1.214.868-2.167.868-.788 0-1.39-.227-1.804-.683-.41-.46-.618-1.139-.622-2.037v-4.813h1.264v4.779c0 1.121.456 1.681 1.368 1.681.966 0 1.608-.36 1.927-1.08v-5.38h1.265v7.397H282.3l-.028-.732zm4.348-6.665l.034.821c.543-.638 1.274-.957 2.195-.957 1.034 0 1.738.396 2.112 1.189.246-.355.565-.643.957-.861.396-.219.864-.328 1.401-.328 1.623 0 2.448.859 2.475 2.577v4.956h-1.265v-4.881c0-.529-.12-.923-.362-1.183-.242-.264-.647-.396-1.217-.396-.469 0-.859.141-1.169.424-.31.278-.49.654-.54 1.128v4.908h-1.271v-4.847c0-1.075-.527-1.613-1.579-1.613-.83 0-1.397.353-1.703 1.059v5.401h-1.264v-7.397h1.196zm12.462 7.397h-1.265v-7.397h1.265v7.397zm-1.367-9.359c0-.205.061-.378.184-.519.128-.141.315-.212.561-.212.246 0 .433.071.561.212a.748.748 0 0 1 .191.519.726.726 0 0 1-.191.513c-.128.137-.315.205-.561.205-.246 0-.433-.068-.561-.205a.739.739 0 0 1-.184-.513zm4.594 1.962l.041.93c.565-.711 1.303-1.066 2.214-1.066 1.564 0 2.352.881 2.366 2.645v4.888h-1.265v-4.895c-.005-.533-.128-.927-.369-1.182-.237-.256-.608-.383-1.114-.383a1.82 1.82 0 0 0-1.08.328 2.23 2.23 0 0 0-.725.861v5.271h-1.265v-7.397h1.197zm11.094 7.397c-.073-.146-.132-.406-.177-.78-.588.611-1.29.916-2.106.916-.729 0-1.328-.205-1.798-.615-.465-.414-.697-.939-.697-1.572 0-.77.292-1.367.875-1.791.588-.428 1.413-.643 2.475-.643h1.23v-.581c0-.442-.132-.793-.396-1.052-.265-.265-.654-.397-1.169-.397-.452 0-.83.114-1.135.342-.305.228-.458.503-.458.827h-1.272c0-.369.13-.725.39-1.066.264-.347.62-.62 1.066-.821.452-.2.946-.3 1.484-.3.852 0 1.52.214 2.003.642.483.424.733 1.01.752 1.757v3.404c0 .679.086 1.219.259 1.62v.11h-1.326zm-2.098-.964c.396 0 .772-.103 1.128-.308.355-.205.613-.471.772-.8v-1.517h-.991c-1.55 0-2.324.453-2.324 1.36 0 .397.132.707.396.93.264.223.604.335 1.019.335zm13.801-4.628h.951c.597-.009 1.066-.166 1.408-.472.342-.305.513-.718.513-1.237 0-1.167-.582-1.75-1.744-1.75-.546 0-.984.157-1.312.472-.324.31-.485.722-.485 1.237h-1.265c0-.788.287-1.442.861-1.962.579-.524 1.313-.786 2.201-.786.939 0 1.675.248 2.208.745.534.497.8 1.187.8 2.071 0 .433-.141.853-.424 1.258a2.51 2.51 0 0 1-1.141.909c.547.173.968.461 1.264.862.301.401.452.891.452 1.469 0 .894-.292 1.602-.875 2.126-.584.524-1.343.786-2.277.786-.934 0-1.695-.252-2.283-.758-.583-.506-.875-1.174-.875-2.003h1.271c0 .524.171.943.513 1.258.342.314.8.471 1.374.471.611 0 1.078-.159 1.402-.478.323-.319.485-.777.485-1.374 0-.579-.178-1.023-.533-1.333-.356-.31-.868-.47-1.538-.479h-.951v-1.032zm6.604.602l.506-4.963h5.099v1.169h-4.026l-.301 2.713c.488-.287 1.042-.43 1.661-.43.907 0 1.627.301 2.161.902.533.597.799 1.406.799 2.427 0 1.025-.278 1.834-.834 2.427-.551.588-1.324.881-2.317.881-.88 0-1.597-.243-2.153-.731s-.873-1.162-.951-2.023h1.197c.077.569.28 1 .608 1.292.328.287.761.43 1.299.43.588 0 1.048-.2 1.381-.601.337-.401.506-.955.506-1.661 0-.666-.183-1.199-.547-1.6-.36-.406-.841-.608-1.443-.608-.551 0-.984.12-1.298.362l-.335.273-1.012-.259zm7.861 0l.506-4.963h5.1v1.169h-4.027l-.3 2.713c.487-.287 1.041-.43 1.661-.43.907 0 1.627.301 2.16.902.533.597.8 1.406.8 2.427 0 1.025-.278 1.834-.834 2.427-.552.588-1.324.881-2.318.881-.879 0-1.597-.243-2.153-.731s-.873-1.162-.95-2.023h1.196c.078.569.28 1 .609 1.292.328.287.761.43 1.298.43.588 0 1.049-.2 1.381-.601.337-.401.506-.955.506-1.661 0-.666-.182-1.199-.547-1.6-.36-.406-.841-.608-1.442-.608-.552 0-.985.12-1.299.362l-.335.273-1.012-.259zm7.369 6.972l-.717-.492c.428-.597.651-1.212.67-1.846v-1.141h1.237v.991c0 .46-.114.92-.342 1.381-.223.46-.506.829-.848 1.107zm3.241-6.972l.506-4.963h5.099v1.169h-4.026l-.301 2.713c.488-.287 1.041-.43 1.661-.43.907 0 1.627.301 2.16.902.533.597.8 1.406.8 2.427 0 1.025-.278 1.834-.834 2.427-.551.588-1.324.881-2.317.881-.88 0-1.598-.243-2.154-.731-.556-.488-.872-1.162-.95-2.023h1.196c.078.569.281 1 .609 1.292.328.287.761.43 1.299.43.588 0 1.048-.2 1.381-.601.337-.401.505-.955.505-1.661 0-.666-.182-1.199-.546-1.6-.36-.406-.841-.608-1.443-.608-.551 0-.984.12-1.299.362l-.335.273-1.011-.259zm9.474 1.565l-.793.827v2.598h-1.264v-10.5h1.264v6.35l.677-.813 2.304-2.434h1.538l-2.878 3.09 3.213 4.307h-1.484l-2.577-3.425zM479.688 87.588c-.123 1.053-.512 1.867-1.168 2.44-.652.57-1.52.855-2.605.855-1.176 0-2.119-.421-2.83-1.264-.706-.843-1.06-1.971-1.06-3.384v-.957c0-.925.164-1.739.493-2.44.332-.702.802-1.24 1.408-1.614.606-.378 1.308-.567 2.105-.567 1.058 0 1.905.296 2.543.888.638.588 1.01 1.404 1.114 2.448h-1.319c-.114-.793-.362-1.367-.745-1.723-.378-.355-.909-.533-1.593-.533-.838 0-1.497.31-1.975.93-.474.62-.711 1.501-.711 2.645v.964c0 1.08.225 1.939.676 2.577.452.638 1.083.957 1.894.957.729 0 1.287-.164 1.675-.492.392-.333.652-.91.779-1.73h1.319zm1.265-.608c0-.725.141-1.376.424-1.955a3.221 3.221 0 0 1 1.189-1.34 3.263 3.263 0 0 1 1.744-.472c1.007 0 1.82.349 2.44 1.046.624.698.937 1.625.937 2.782v.09c0 .72-.139 1.367-.417 1.94a3.12 3.12 0 0 1-1.183 1.334c-.511.319-1.098.478-1.764.478-1.002 0-1.816-.348-2.44-1.046-.62-.697-.93-1.62-.93-2.768v-.089zm1.272.15c0 .82.189 1.48.567 1.976.383.497.893.745 1.531.745.643 0 1.153-.25 1.531-.752.379-.506.568-1.212.568-2.119 0-.811-.194-1.468-.581-1.969-.383-.506-.893-.759-1.531-.759-.625 0-1.128.249-1.511.746-.383.496-.574 1.207-.574 2.132zm11.614 3.617c-.073-.146-.132-.406-.178-.78-.588.611-1.29.916-2.105.916-.73 0-1.329-.205-1.798-.615a2.015 2.015 0 0 1-.697-1.572c0-.77.291-1.367.875-1.791.587-.429 1.412-.643 2.474-.643h1.231v-.58c0-.443-.133-.794-.397-1.054-.264-.264-.654-.396-1.169-.396-.451 0-.829.114-1.135.342-.305.228-.458.503-.458.827h-1.271c0-.37.13-.725.39-1.066.264-.347.619-.62 1.066-.82a3.604 3.604 0 0 1 1.483-.302c.853 0 1.52.215 2.003.643.483.424.734 1.01.752 1.757v3.404c0 .68.087 1.22.26 1.62v.11h-1.326zm-2.099-.964a2.22 2.22 0 0 0 1.128-.308c.356-.205.613-.472.773-.8v-1.517h-.992c-1.549 0-2.324.453-2.324 1.36 0 .397.132.706.397.93.264.223.604.335 1.018.335zm6.522.964h-1.265v-10.5h1.265v10.5zm14.882-7.356a2.3 2.3 0 0 1-.397 1.326 2.66 2.66 0 0 1-1.059.91c.519.223.929.549 1.23.977.305.428.458.914.458 1.456 0 .861-.292 1.547-.875 2.058-.579.51-1.342.765-2.29.765-.957 0-1.725-.255-2.304-.765-.574-.515-.861-1.201-.861-2.058 0-.538.146-1.023.437-1.456a2.775 2.775 0 0 1 1.224-.984 2.607 2.607 0 0 1-1.046-.91 2.346 2.346 0 0 1-.383-1.319c0-.838.269-1.504.807-1.996s1.246-.738 2.126-.738c.875 0 1.581.246 2.119.738.542.492.814 1.158.814 1.996zm-1.033 4.642c0-.556-.177-1.01-.533-1.36-.351-.352-.811-.527-1.381-.527-.569 0-1.027.173-1.374.52-.342.346-.512.802-.512 1.367s.166 1.01.499 1.333c.337.323.804.485 1.401.485.592 0 1.057-.162 1.394-.485.338-.328.506-.773.506-1.333zm-1.9-6.337c-.497 0-.9.155-1.21.465-.305.305-.458.722-.458 1.25 0 .507.15.917.451 1.231.305.31.711.465 1.217.465.506 0 .909-.155 1.21-.465.305-.314.458-.724.458-1.23s-.157-.919-.472-1.238c-.314-.319-.713-.478-1.196-.478zm9.604 4.676a3.079 3.079 0 0 1-.95.758 2.545 2.545 0 0 1-1.203.288c-.574 0-1.075-.142-1.504-.424-.424-.283-.752-.68-.984-1.19a4.081 4.081 0 0 1-.349-1.702c0-.665.126-1.265.376-1.798.255-.533.615-.94 1.08-1.223.465-.283 1.007-.424 1.627-.424.985 0 1.759.369 2.324 1.107.57.734.855 1.737.855 3.008v.37c0 1.936-.383 3.351-1.149 4.244-.765.889-1.92 1.345-3.465 1.367h-.246v-1.066h.266c1.044-.018 1.846-.29 2.406-.813.561-.53.866-1.363.916-2.502zm-1.948 0c.424 0 .814-.13 1.169-.39.36-.26.622-.581.786-.964v-.506c0-.83-.18-1.504-.54-2.023-.36-.52-.816-.78-1.367-.78-.556 0-1.003.215-1.34.643-.337.424-.506.984-.506 1.682 0 .679.162 1.24.486 1.681.328.438.765.657 1.312.657zm9.119 4.375h-1.271v-8.43l-2.55.937v-1.148l3.623-1.36h.198v10zm3.794 1.982l-.718-.492c.429-.597.652-1.212.67-1.846V89.25h1.238v.992c0 .46-.114.92-.342 1.38-.223.46-.506.83-.848 1.108zm3.241-6.973l.505-4.963h5.1v1.17H535.6l-.301 2.713c.487-.287 1.041-.43 1.661-.43.907 0 1.627.3 2.16.902.533.597.8 1.406.8 2.427 0 1.025-.278 1.834-.834 2.426-.551.588-1.324.882-2.317.882-.88 0-1.598-.243-2.154-.731-.556-.488-.872-1.162-.95-2.024h1.196c.078.57.281 1 .609 1.292.328.287.761.431 1.299.431.587 0 1.048-.2 1.38-.602.338-.4.506-.954.506-1.66 0-.666-.182-1.2-.547-1.6-.36-.406-.84-.609-1.442-.609-.551 0-.984.121-1.299.363l-.335.273-1.011-.26zm9.474 1.566l-.793.827v2.598h-1.264v-10.5h1.264v6.35l.677-.813 2.304-2.434h1.538l-2.878 3.09 3.213 4.307h-1.484l-2.577-3.425zM1.241 63.901v-9.953h3.254c1.08 0 1.891.224 2.434.67.547.447.82 1.108.82 1.983 0 .464-.132.877-.396 1.237a2.581 2.581 0 0 1-1.08.827c.537.15.961.438 1.271.861.314.42.472.92.472 1.504 0 .893-.29 1.595-.869 2.106-.578.51-1.396.765-2.454.765H1.241zm1.313-4.655v3.582H4.72c.61 0 1.091-.157 1.442-.472.356-.319.533-.756.533-1.312 0-1.199-.651-1.798-1.955-1.798H2.554zm0-1.053h1.982c.574 0 1.032-.143 1.374-.43.347-.287.52-.677.52-1.17 0-.546-.16-.943-.479-1.189-.319-.25-.804-.376-1.456-.376H2.554v3.165zm11.778 5.708c-.073-.146-.132-.405-.178-.779-.588.61-1.29.916-2.105.916-.73 0-1.329-.205-1.798-.615a2.016 2.016 0 0 1-.697-1.572c0-.77.291-1.368.875-1.791.588-.429 1.412-.643 2.474-.643h1.23v-.581c0-.442-.131-.793-.396-1.053-.264-.264-.654-.396-1.169-.396-.45 0-.83.114-1.134.341-.306.228-.458.504-.458.828H9.704c0-.37.13-.725.39-1.067a2.7 2.7 0 0 1 1.066-.82c.451-.2.946-.3 1.484-.3.852 0 1.52.213 2.002.642.484.424.734 1.01.752 1.757v3.404c0 .679.087 1.219.26 1.62v.11h-1.326zm-2.099-.964a2.22 2.22 0 0 0 1.128-.307 1.86 1.86 0 0 0 .773-.8v-1.517h-.991c-1.55 0-2.325.453-2.325 1.36 0 .396.133.706.397.93.264.223.604.334 1.018.334zm9.714.233c-.492.579-1.214.868-2.167.868-.788 0-1.39-.228-1.804-.683-.41-.46-.618-1.14-.622-2.038v-4.812h1.264v4.778c0 1.121.456 1.682 1.367 1.682.966 0 1.61-.36 1.928-1.08v-5.38h1.265V63.9h-1.203l-.028-.731zm5.64-3.965l1.64-2.7h1.477l-2.42 3.657 2.495 3.74h-1.463l-1.709-2.77-1.709 2.77h-1.47l2.496-3.74-2.42-3.657h1.463l1.62 2.7zm5.838 4.696H32.16v-7.396h1.265V63.9zm-1.367-9.358c0-.205.061-.378.184-.52.128-.14.315-.212.56-.212.247 0 .434.071.561.212a.747.747 0 0 1 .192.52.723.723 0 0 1-.192.513c-.127.136-.314.205-.56.205-.246 0-.433-.069-.56-.205a.738.738 0 0 1-.185-.513zm5.113.17v1.792h1.38v.977h-1.38v4.587c0 .297.061.52.184.67.123.146.333.219.63.219.145 0 .346-.027.6-.082v1.025a3.667 3.667 0 0 1-.97.137c-.565 0-.991-.17-1.278-.513-.287-.341-.43-.827-.43-1.456v-4.587H34.56v-.977h1.346v-1.791h1.265zm5.934 9.325c-1.003 0-1.819-.328-2.448-.984-.629-.661-.943-1.543-.943-2.646v-.232c0-.734.139-1.388.417-1.962a3.282 3.282 0 0 1 1.176-1.354 2.958 2.958 0 0 1 1.64-.492c.962 0 1.71.317 2.242.95.534.634.8 1.54.8 2.721v.526h-5.01c.018.73.23 1.32.635 1.77.41.448.93.67 1.559.67.447 0 .825-.09 1.135-.273a2.85 2.85 0 0 0 .813-.724l.773.601c-.62.953-1.55 1.43-2.79 1.43zm-.158-6.63c-.51 0-.939.186-1.285.56-.346.369-.56.888-.642 1.558h3.705v-.095c-.037-.643-.21-1.14-.52-1.49-.31-.356-.73-.534-1.258-.534zM54.958 63.9h-1.271v-8.428l-2.55.936V55.26l3.623-1.36h.198v10zm9.946-4.245c0 1.481-.253 2.582-.758 3.302-.506.72-1.297 1.08-2.373 1.08-1.061 0-1.848-.35-2.358-1.053-.51-.706-.775-1.759-.793-3.158V58.14c0-1.463.253-2.55.759-3.261.506-.711 1.299-1.066 2.379-1.066 1.07 0 1.86.344 2.365 1.032.506.683.766 1.74.78 3.172v1.64zm-1.264-1.73c0-1.07-.15-1.85-.452-2.337-.3-.492-.777-.738-1.428-.738-.647 0-1.119.243-1.415.731-.297.488-.45 1.237-.458 2.25v2.023c0 1.075.155 1.87.465 2.385.314.51.788.766 1.421.766.625 0 1.087-.242 1.388-.725.306-.483.465-1.244.479-2.283v-2.071zm3.466.985l.505-4.963h5.1v1.17h-4.026l-.301 2.713c.487-.287 1.041-.43 1.66-.43.908 0 1.628.3 2.161.902.533.597.8 1.406.8 2.427 0 1.025-.278 1.834-.834 2.426-.552.588-1.324.882-2.318.882-.879 0-1.597-.244-2.153-.731-.556-.488-.873-1.163-.95-2.024h1.196c.078.57.28 1 .609 1.292.328.287.76.43 1.298.43.588 0 1.049-.2 1.381-.6.338-.402.506-.956.506-1.662 0-.665-.182-1.198-.547-1.6-.36-.405-.84-.608-1.442-.608-.552 0-.984.12-1.299.363l-.335.273-1.011-.26zm7.369 6.973l-.718-.492c.428-.597.651-1.213.67-1.846v-1.142h1.237v.991c0 .46-.114.921-.342 1.381-.223.46-.506.83-.847 1.108zm3.24-6.973l.506-4.963h5.1v1.17h-4.027l-.3 2.713c.487-.287 1.04-.43 1.66-.43.907 0 1.627.3 2.16.902.534.597.8 1.406.8 2.427 0 1.025-.278 1.834-.834 2.426-.551.588-1.324.882-2.317.882-.88 0-1.597-.244-2.153-.731-.556-.488-.873-1.163-.95-2.024h1.196c.077.57.28 1 .608 1.292.328.287.761.43 1.299.43.588 0 1.048-.2 1.38-.6.338-.402.507-.956.507-1.662 0-.665-.183-1.198-.547-1.6-.36-.405-.841-.608-1.443-.608-.551 0-.984.12-1.299.363l-.334.273-1.012-.26zm9.474 1.566l-.792.827V63.9h-1.265V53.4h1.264v6.351l.677-.814 2.304-2.433h1.538l-2.878 3.09L91.25 63.9h-1.483l-2.578-3.424zM8.248 119.427v6.767c-.005.939-.3 1.707-.889 2.304-.583.597-1.376.932-2.379 1.005l-.348.013c-1.09 0-1.958-.294-2.605-.881-.647-.588-.975-1.397-.984-2.427v-6.781h1.299v6.74c0 .72.198 1.28.595 1.681.396.397.961.595 1.695.595.743 0 1.31-.198 1.702-.595.396-.396.595-.954.595-1.674v-6.747h1.319zm5.448 3.691a3.779 3.779 0 0 0-.622-.048c-.83 0-1.392.353-1.688 1.06v5.25H10.12v-7.397h1.23l.021.855c.415-.661 1.003-.992 1.764-.992.246 0 .433.032.56.096v1.176zm4.102 6.398c-1.003 0-1.818-.328-2.447-.984-.63-.661-.944-1.543-.944-2.646v-.232c0-.734.14-1.388.417-1.962A3.277 3.277 0 0 1 16 122.339a2.952 2.952 0 0 1 1.64-.493c.962 0 1.71.317 2.243.951.533.633.8 1.54.8 2.72v.527h-5.011c.018.729.23 1.319.636 1.77.41.447.93.67 1.558.67.447 0 .825-.091 1.135-.273.31-.183.581-.424.813-.725l.773.602c-.62.952-1.55 1.428-2.79 1.428zm-.157-6.631c-.51 0-.94.187-1.285.561-.347.369-.561.889-.643 1.559h3.705v-.096c-.037-.643-.21-1.139-.52-1.49-.31-.356-.729-.534-1.257-.534zm9.078 6.495c-.073-.146-.132-.406-.178-.78-.588.611-1.29.916-2.105.916-.73 0-1.329-.205-1.798-.615a2.017 2.017 0 0 1-.698-1.572c0-.77.292-1.367.875-1.791.588-.429 1.413-.643 2.475-.643h1.23v-.581c0-.442-.132-.793-.396-1.053-.264-.264-.654-.396-1.169-.396-.451 0-.83.114-1.135.342-.305.228-.458.503-.458.827h-1.271c0-.369.13-.725.39-1.066.264-.347.62-.62 1.066-.821a3.62 3.62 0 0 1 1.483-.301c.852 0 1.52.215 2.003.643.483.424.734 1.009.752 1.757v3.404c0 .679.087 1.219.26 1.62v.11h-1.326zm-2.099-.964c.397 0 .773-.103 1.128-.308a1.86 1.86 0 0 0 .772-.8v-1.517h-.99c-1.55 0-2.325.453-2.325 1.36 0 .397.132.707.397.93.264.223.603.335 1.018.335zm16.12.964h-1.272v-8.429l-2.55.936v-1.148l3.623-1.36h.198v10.001zm7.86 0h-1.27v-8.429l-2.55.936v-1.148l3.622-1.36h.199v10.001zm9.947-4.245c0 1.481-.253 2.581-.759 3.301-.506.72-1.296 1.08-2.372 1.08-1.062 0-1.848-.351-2.358-1.052-.51-.707-.775-1.759-.793-3.159v-1.688c0-1.463.253-2.55.758-3.261.506-.711 1.3-1.066 2.38-1.066 1.07 0 1.859.344 2.365 1.032.505.684.765 1.741.779 3.172v1.641zm-1.265-1.73c0-1.071-.15-1.85-.45-2.338-.302-.492-.778-.738-1.43-.738-.647 0-1.119.244-1.415.731-.296.488-.449 1.238-.458 2.249v2.024c0 1.075.155 1.871.465 2.386.315.51.789.765 1.422.765.624 0 1.087-.241 1.388-.724.305-.484.465-1.245.478-2.284v-2.071zm2.974 7.957l-.718-.492c.429-.597.652-1.212.67-1.846v-1.141h1.237v.991c0 .46-.114.92-.342 1.381-.223.46-.505.829-.847 1.107zm3.24-6.973l.506-4.962h5.1v1.168h-4.027l-.3 2.714c.487-.287 1.04-.43 1.66-.43.907 0 1.627.3 2.16.902.534.597.8 1.406.8 2.427 0 1.025-.277 1.834-.834 2.427-.55.587-1.323.881-2.317.881-.88 0-1.597-.243-2.153-.731s-.873-1.162-.95-2.024h1.196c.077.57.28 1.001.608 1.292.328.288.761.431 1.3.431.587 0 1.047-.2 1.38-.601.337-.401.506-.955.506-1.662 0-.665-.182-1.198-.547-1.599-.36-.406-.84-.609-1.442-.609-.552 0-.985.121-1.3.363l-.334.273-1.012-.26zm9.475 1.566l-.793.827v2.598h-1.265v-10.5h1.265v6.35l.677-.813 2.303-2.434h1.538l-2.878 3.09 3.213 4.307h-1.483l-2.577-3.425zM3.388 181.393l.191 1.312.28-1.182 1.97-6.946h1.107l1.92 6.946.274 1.203.212-1.34 1.545-6.809h1.32l-2.414 9.954H8.597l-2.051-7.253-.157-.759-.158.759-2.126 7.253H2.91l-2.406-9.954h1.312l1.573 6.816zm9.529-.629c0-.725.141-1.376.424-1.955.287-.579.683-1.026 1.19-1.34.51-.314 1.09-.472 1.742-.472 1.008 0 1.821.349 2.44 1.046.625.697.937 1.625.937 2.782v.089c0 .72-.139 1.367-.417 1.942a3.118 3.118 0 0 1-1.182 1.333c-.51.319-1.098.478-1.764.478-1.002 0-1.816-.348-2.44-1.046-.62-.697-.93-1.62-.93-2.768v-.089zm1.271.15c0 .821.19 1.479.568 1.976.383.497.893.745 1.531.745.643 0 1.153-.251 1.531-.752.379-.506.568-1.212.568-2.119 0-.811-.194-1.468-.581-1.969-.383-.506-.893-.759-1.532-.759-.624 0-1.127.249-1.51.745-.383.497-.575 1.208-.575 2.133zm6.713-.15c0-.725.142-1.376.424-1.955.287-.579.684-1.026 1.19-1.34a3.26 3.26 0 0 1 1.743-.472c1.007 0 1.82.349 2.44 1.046.625.697.937 1.625.937 2.782v.089c0 .72-.14 1.367-.417 1.942a3.12 3.12 0 0 1-1.183 1.333c-.51.319-1.098.478-1.764.478-1.002 0-1.816-.348-2.44-1.046-.62-.697-.93-1.62-.93-2.768v-.089zm1.272.15c0 .821.189 1.479.567 1.976.383.497.894.745 1.532.745.642 0 1.152-.251 1.53-.752.379-.506.568-1.212.568-2.119 0-.811-.194-1.468-.58-1.969a1.827 1.827 0 0 0-1.532-.759c-.624 0-1.128.249-1.51.745-.384.497-.575 1.208-.575 2.133zm6.74-.143c0-1.135.269-2.046.807-2.735.538-.692 1.242-1.039 2.112-1.039.866 0 1.552.297 2.058.889v-3.855h1.264v10.5h-1.162l-.061-.793c-.506.619-1.21.929-2.113.929-.856 0-1.556-.351-2.098-1.052-.538-.702-.807-1.618-.807-2.749v-.095zm1.265.143c0 .839.173 1.495.52 1.969.346.474.824.711 1.435.711.802 0 1.387-.36 1.757-1.08v-3.398c-.379-.697-.96-1.045-1.743-1.045-.62 0-1.103.239-1.45.717-.346.479-.52 1.188-.52 2.126zM2.554 200.579v3.897H1.24v-9.954h3.671c1.09 0 1.942.278 2.557.834.62.556.93 1.292.93 2.208 0 .967-.304 1.712-.91 2.236-.601.519-1.465.779-2.59.779H2.553zm0-1.073h2.358c.702 0 1.24-.164 1.613-.492.374-.333.56-.812.56-1.436 0-.592-.186-1.066-.56-1.422-.373-.355-.886-.54-1.538-.553H2.554v3.903zm10.295 5.106c-1.003 0-1.819-.328-2.448-.984-.629-.661-.943-1.543-.943-2.646v-.232c0-.734.139-1.388.417-1.962a3.277 3.277 0 0 1 1.176-1.353 2.951 2.951 0 0 1 1.64-.493c.962 0 1.71.317 2.243.951.533.633.8 1.54.8 2.72v.527h-5.011c.018.729.23 1.319.635 1.77.41.447.93.67 1.559.67.447 0 .825-.091 1.135-.273a2.86 2.86 0 0 0 .813-.725l.773.602c-.62.952-1.55 1.428-2.79 1.428zm-.158-6.631c-.51 0-.938.187-1.285.561-.346.369-.56.889-.642 1.559h3.705v-.096c-.037-.643-.21-1.139-.52-1.49-.31-.356-.729-.534-1.258-.534zm5.886 6.495h-1.265v-10.5h1.265v10.5zm3.404 0h-1.264v-10.5h1.264v10.5zm5.1.136c-1.003 0-1.818-.328-2.447-.984-.63-.661-.944-1.543-.944-2.646v-.232c0-.734.14-1.388.417-1.962a3.277 3.277 0 0 1 1.176-1.353 2.952 2.952 0 0 1 1.64-.493c.962 0 1.71.317 2.243.951.533.633.8 1.54.8 2.72v.527h-5.01c.017.729.23 1.319.635 1.77.41.447.93.67 1.558.67.447 0 .825-.091 1.135-.273.31-.183.581-.424.814-.725l.772.602c-.62.952-1.55 1.428-2.789 1.428zm-.157-6.631c-.51 0-.939.187-1.285.561-.347.369-.56.889-.643 1.559h3.705v-.096c-.036-.643-.21-1.139-.52-1.49-.31-.356-.729-.534-1.257-.534zm6.227-2.693v1.791h1.381v.978h-1.38v4.587c0 .296.06.519.184.669.123.146.333.219.629.219.146 0 .346-.027.601-.082v1.026a3.67 3.67 0 0 1-.97.136c-.565 0-.991-.171-1.279-.512-.287-.342-.43-.828-.43-1.456v-4.587H30.54v-.978h1.347v-1.791h1.264zm7.171 7.226c0-.342-.13-.606-.39-.793-.255-.192-.704-.356-1.346-.492-.638-.137-1.146-.301-1.524-.493-.374-.191-.652-.419-.834-.683a1.653 1.653 0 0 1-.267-.944c0-.606.255-1.118.766-1.538.515-.419 1.17-.629 1.968-.629.839 0 1.518.217 2.037.65.525.433.787.986.787 1.661h-1.272c0-.346-.148-.645-.444-.896-.292-.25-.661-.376-1.108-.376-.46 0-.82.101-1.08.301a.948.948 0 0 0-.39.786c0 .306.121.536.363.691.241.155.677.303 1.306.444.633.141 1.146.31 1.538.506.392.196.681.433.868.711.191.273.287.608.287 1.005 0 .661-.264 1.192-.793 1.593-.529.396-1.215.594-2.058.594-.592 0-1.116-.105-1.572-.314a2.592 2.592 0 0 1-1.073-.875 2.145 2.145 0 0 1-.383-1.224h1.265c.022.424.191.761.505 1.012.32.246.739.369 1.258.369.479 0 .862-.096 1.149-.287.291-.196.437-.456.437-.779zm10.411 1.962h-1.271v-8.429l-2.55.936v-1.148l3.623-1.36h.198v10.001zm10.131-9.243l-4.122 9.243h-1.326l4.108-8.914h-5.386v-1.04h6.726v.711zm7.957 9.243H62.3v-.91l3.445-3.828c.51-.578.861-1.048 1.053-1.408.196-.365.294-.74.294-1.128 0-.519-.157-.945-.472-1.278-.314-.333-.734-.499-1.258-.499-.629 0-1.118.18-1.47.54-.346.355-.519.852-.519 1.49h-1.265c0-.916.294-1.656.882-2.222.593-.565 1.383-.847 2.372-.847.925 0 1.657.244 2.195.731.537.483.806 1.128.806 1.935 0 .98-.624 2.146-1.873 3.5l-2.666 2.891h4.997v1.033zm1.429 1.982l-.718-.492c.429-.597.652-1.212.67-1.846v-1.141h1.237v.991c0 .46-.113.92-.341 1.381a3.2 3.2 0 0 1-.848 1.107zm8.9-6.228c0 1.482-.253 2.582-.758 3.302-.506.72-1.297 1.08-2.373 1.08-1.061 0-1.848-.351-2.358-1.052-.51-.707-.775-1.76-.793-3.159v-1.688c0-1.463.253-2.55.759-3.261.506-.711 1.299-1.066 2.379-1.066 1.07 0 1.86.344 2.365 1.032.506.684.766 1.741.78 3.172v1.64zm-1.264-1.729c0-1.071-.15-1.85-.451-2.338-.301-.492-.777-.738-1.43-.738-.646 0-1.118.244-1.414.731-.296.488-.45 1.238-.458 2.249v2.024c0 1.075.155 1.87.465 2.385.314.511.788.766 1.421.766.625 0 1.087-.241 1.388-.725.306-.483.465-1.244.479-2.283v-2.071zm5.079 2.55l-.793.827v2.598h-1.265v-10.5h1.265v6.35l.677-.813 2.303-2.434h1.538l-2.877 3.09 3.212 4.307h-1.483l-2.577-3.425zM481.3 173.93c-1.126-.323-1.946-.72-2.461-1.189a2.294 2.294 0 0 1-.766-1.75c0-.784.312-1.431.937-1.942.629-.515 1.444-.772 2.447-.772.684 0 1.292.132 1.825.396.538.265.953.629 1.244 1.094.297.465.445.973.445 1.525h-1.32c0-.602-.191-1.074-.574-1.416-.383-.346-.923-.519-1.62-.519-.647 0-1.153.143-1.518.431-.36.282-.54.676-.54 1.182 0 .406.171.75.513 1.032.346.278.932.534 1.757.766.829.232 1.477.49 1.941.773.47.278.816.603 1.039.977.228.374.342.814.342 1.319 0 .807-.314 1.454-.943 1.942-.629.483-1.47.724-2.523.724a4.713 4.713 0 0 1-1.914-.389c-.592-.265-1.05-.625-1.374-1.08a2.641 2.641 0 0 1-.478-1.552h1.319c0 .601.221 1.078.663 1.429.447.346 1.042.519 1.784.519.693 0 1.224-.141 1.593-.424.369-.282.554-.667.554-1.155s-.171-.864-.513-1.128c-.342-.269-.961-.533-1.859-.793zm6.897-4.751v1.791h1.381v.978h-1.381v4.587c0 .296.062.519.185.67.123.145.333.218.629.218.146 0 .346-.027.601-.082v1.026a3.664 3.664 0 0 1-.97.136c-.566 0-.992-.17-1.279-.512-.287-.342-.43-.827-.43-1.456v-4.587h-1.347v-.978h1.347v-1.791h1.264zm5.934 9.324c-1.003 0-1.819-.328-2.447-.984-.629-.661-.944-1.543-.944-2.645v-.233c0-.734.139-1.388.417-1.962a3.283 3.283 0 0 1 1.176-1.353 2.961 2.961 0 0 1 1.641-.493c.961 0 1.709.317 2.242.951.533.633.8 1.54.8 2.72v.527h-5.011c.018.729.23 1.319.636 1.77.41.447.929.67 1.558.67.447 0 .825-.091 1.135-.273.31-.183.581-.424.813-.725l.773.602c-.62.952-1.55 1.428-2.789 1.428zm-.157-6.63c-.511 0-.939.186-1.286.56-.346.369-.56.889-.642 1.559h3.705v-.096c-.036-.643-.21-1.139-.52-1.49-.309-.356-.729-.533-1.257-.533zm7.581 6.63c-1.003 0-1.819-.328-2.448-.984-.628-.661-.943-1.543-.943-2.645v-.233c0-.734.139-1.388.417-1.962a3.283 3.283 0 0 1 1.176-1.353 2.96 2.96 0 0 1 1.64-.493c.962 0 1.709.317 2.243.951.533.633.799 1.54.799 2.72v.527h-5.01c.018.729.23 1.319.635 1.77.411.447.93.67 1.559.67.447 0 .825-.091 1.135-.273.31-.183.581-.424.813-.725l.773.602c-.62.952-1.55 1.428-2.789 1.428zm-.158-6.63c-.51 0-.938.186-1.285.56-.346.369-.56.889-.642 1.559h3.705v-.096c-.037-.643-.21-1.139-.52-1.49-.31-.356-.729-.533-1.258-.533zm5.886 6.494h-1.264v-10.5h1.264v10.5zm13.809-9.96v1.073h-.233c-.984.018-1.768.31-2.351.875-.584.565-.921 1.36-1.012 2.386.524-.602 1.24-.903 2.147-.903.865 0 1.556.306 2.071.916.519.611.779 1.399.779 2.366 0 1.025-.28 1.845-.841 2.461-.556.615-1.303.922-2.242.922-.952 0-1.725-.364-2.317-1.093-.593-.734-.889-1.677-.889-2.83v-.486c0-1.832.39-3.231 1.169-4.197.784-.971 1.948-1.467 3.493-1.49h.226zm-1.661 4.484c-.433 0-.832.13-1.197.39a2.03 2.03 0 0 0-.758.977v.465c0 .82.184 1.481.553 1.983.369.501.83.752 1.381.752.57 0 1.016-.21 1.34-.629.328-.42.492-.969.492-1.648 0-.683-.166-1.235-.499-1.654-.328-.424-.765-.636-1.312-.636zm10.985-3.766l-4.122 9.242h-1.326l4.108-8.914h-5.387v-1.039h6.727v.711zm6.774 5.899h1.381v1.032h-1.381v2.311h-1.271v-2.311h-4.532v-.745l4.457-6.897h1.346v6.61zm-4.368 0h3.097v-4.881l-.15.274-2.947 4.607zm6.98 5.325l-.718-.492c.428-.597.652-1.212.67-1.846v-1.141h1.237v.991c0 .46-.114.92-.342 1.381-.223.46-.505.829-.847 1.107zm8.9-6.227c0 1.481-.253 2.581-.759 3.301-.505.72-1.296 1.08-2.372 1.08-1.062 0-1.848-.35-2.358-1.052-.511-.707-.775-1.759-.793-3.159v-1.688c0-1.463.253-2.55.759-3.261.506-.711 1.299-1.066 2.379-1.066 1.071 0 1.859.344 2.365 1.032.506.684.765 1.741.779 3.172v1.641zm-1.264-1.73c0-1.071-.151-1.85-.452-2.338-.3-.492-.777-.738-1.428-.738-.648 0-1.119.244-1.415.731-.297.488-.449 1.238-.458 2.249v2.024c0 1.075.155 1.871.464 2.386.315.51.789.765 1.422.765.625 0 1.087-.241 1.388-.724.305-.483.465-1.245.479-2.284v-2.071zm5.079 2.55l-.793.827v2.598h-1.265v-10.5h1.265v6.35l.676-.813 2.304-2.434h1.538l-2.878 3.09 3.213 4.307h-1.483l-2.577-3.425zM469.514 257.2l.191 1.313.28-1.183 1.969-6.945h1.108l1.92 6.945.274 1.203.212-1.339 1.545-6.809h1.319l-2.413 9.953h-1.196l-2.051-7.253-.157-.759-.158.759-2.126 7.253h-1.196l-2.406-9.953h1.312l1.573 6.815zm11.347-3.363c.561-.688 1.29-1.032 2.188-1.032 1.563 0 2.351.882 2.365 2.645v4.888h-1.265v-4.894c-.004-.534-.127-.928-.369-1.183-.237-.255-.608-.383-1.114-.383-.41 0-.77.11-1.08.328-.31.219-.551.506-.725.862v5.27h-1.264v-10.5h1.264v3.999zm9.516 6.638c-1.003 0-1.818-.328-2.447-.985-.629-.66-.944-1.542-.944-2.645v-.232c0-.734.139-1.388.417-1.962a3.292 3.292 0 0 1 1.176-1.354 2.96 2.96 0 0 1 1.641-.492c.961 0 1.709.317 2.242.95.533.634.8 1.54.8 2.721v.526h-5.011c.018.729.23 1.32.636 1.771.41.446.929.67 1.558.67.447 0 .825-.092 1.135-.274.31-.182.581-.424.814-.724l.772.601c-.62.953-1.549 1.429-2.789 1.429zm-.157-6.631a1.68 1.68 0 0 0-1.285.561c-.347.369-.561.888-.643 1.558h3.705v-.096c-.036-.642-.21-1.139-.519-1.49-.31-.355-.73-.533-1.258-.533zm9.078 6.494c-.073-.146-.132-.405-.178-.779-.588.611-1.29.916-2.105.916-.73 0-1.329-.205-1.798-.615a2.017 2.017 0 0 1-.697-1.573c0-.77.291-1.367.875-1.791.587-.428 1.412-.642 2.474-.642h1.231v-.581c0-.442-.133-.793-.397-1.053-.264-.264-.654-.397-1.169-.397-.451 0-.829.114-1.135.342-.305.228-.458.504-.458.827h-1.271c0-.369.13-.724.39-1.066.264-.346.619-.62 1.066-.82a3.604 3.604 0 0 1 1.483-.301c.853 0 1.52.214 2.003.643.483.423.734 1.009.752 1.756v3.405c0 .679.087 1.219.26 1.62v.109h-1.326zm-2.099-.964a2.22 2.22 0 0 0 1.128-.307c.356-.205.613-.472.773-.8v-1.518h-.992c-1.549 0-2.324.454-2.324 1.361 0 .396.132.706.397.929.264.224.604.335 1.018.335zm6.863-8.223v1.791h1.381v.977h-1.381v4.587c0 .296.062.52.185.67.123.146.333.219.629.219.146 0 .346-.028.602-.082v1.025a3.68 3.68 0 0 1-.971.137c-.565 0-.991-.171-1.278-.513-.288-.342-.431-.827-.431-1.456v-4.587h-1.347v-.977h1.347v-1.791h1.264zm15.019 5.844h1.381v1.033h-1.381v2.31h-1.271v-2.31h-4.533v-.746l4.457-6.897h1.347v6.61zm-4.368 0h3.097v-4.88l-.151.273-2.946 4.607zm12.927-4.012c0 .496-.133.938-.397 1.326-.26.387-.613.69-1.059.909.519.223.929.549 1.23.978.305.428.458.913.458 1.456 0 .861-.292 1.547-.875 2.057-.579.511-1.342.766-2.29.766-.957 0-1.725-.255-2.304-.766-.574-.515-.861-1.201-.861-2.057 0-.538.146-1.024.437-1.456a2.773 2.773 0 0 1 1.224-.985 2.612 2.612 0 0 1-1.046-.909 2.344 2.344 0 0 1-.383-1.319c0-.839.269-1.504.807-1.996.538-.493 1.246-.739 2.126-.739.875 0 1.581.246 2.119.739.542.492.814 1.157.814 1.996zm-1.033 4.641c0-.556-.177-1.009-.533-1.36-.351-.351-.811-.526-1.381-.526-.569 0-1.027.173-1.374.519-.341.346-.512.802-.512 1.367s.166 1.01.499 1.333c.337.324.804.486 1.401.486.592 0 1.057-.162 1.395-.486.337-.328.505-.772.505-1.333zm-1.9-6.337c-.497 0-.9.155-1.21.465-.305.306-.458.723-.458 1.251 0 .506.15.916.451 1.231.306.31.711.464 1.217.464.506 0 .909-.154 1.21-.464.305-.315.458-.725.458-1.231 0-.506-.157-.918-.472-1.237-.314-.319-.713-.479-1.196-.479zm9.721-.909v1.073h-.233c-.984.019-1.768.31-2.351.875-.584.566-.921 1.361-1.012 2.386.524-.601 1.24-.902 2.147-.902.865 0 1.556.305 2.071.916.519.611.779 1.399.779 2.365 0 1.025-.28 1.846-.841 2.461-.556.615-1.303.923-2.242.923-.952 0-1.725-.365-2.317-1.094-.593-.734-.889-1.677-.889-2.83v-.485c0-1.832.39-3.231 1.169-4.198.784-.97 1.948-1.467 3.493-1.49h.226zm-1.661 4.485c-.433 0-.832.129-1.197.389-.364.26-.617.586-.758.978v.465c0 .82.184 1.481.553 1.982.369.501.83.752 1.381.752.57 0 1.016-.21 1.34-.629.328-.419.492-.968.492-1.647 0-.684-.166-1.235-.499-1.655-.328-.424-.766-.635-1.312-.635zm4.648 7.458l-.718-.493c.429-.597.652-1.212.67-1.845v-1.142h1.237v.991c0 .461-.113.921-.341 1.381-.224.46-.506.83-.848 1.108zm8.9-6.228c0 1.481-.253 2.582-.758 3.302-.506.72-1.297 1.08-2.372 1.08-1.062 0-1.848-.351-2.359-1.053-.51-.706-.775-1.759-.793-3.158v-1.689c0-1.462.253-2.549.759-3.26.506-.711 1.299-1.067 2.379-1.067 1.071 0 1.859.344 2.365 1.033.506.683.766 1.74.779 3.171v1.641zm-1.264-1.729c0-1.071-.151-1.851-.451-2.338-.301-.493-.777-.739-1.429-.739-.647 0-1.119.244-1.415.732-.296.487-.449 1.237-.458 2.249v2.023c0 1.076.155 1.871.465 2.386.314.51.788.766 1.422.766.624 0 1.086-.242 1.387-.725.306-.483.465-1.244.479-2.283v-2.071zm5.079 2.549l-.793.827v2.598h-1.265v-10.5h1.265v6.351l.677-.814 2.303-2.433h1.538l-2.877 3.089 3.212 4.307h-1.483l-2.577-3.425zm-545.956.866c-1.126-.324-1.946-.72-2.461-1.19a2.294 2.294 0 0 1-.766-1.75c0-.783.312-1.431.937-1.941.629-.515 1.444-.773 2.447-.773.684 0 1.292.133 1.825.397.538.264.953.629 1.244 1.094.297.465.445.973.445 1.524h-1.32c0-.601-.191-1.073-.574-1.415-.383-.346-.923-.519-1.62-.519-.647 0-1.153.143-1.518.43-.36.283-.54.677-.54 1.183 0 .405.171.75.513 1.032.346.278.932.533 1.757.766.83.232 1.477.49 1.941.772.47.278.816.604 1.04.978.227.373.341.813.341 1.319 0 .807-.314 1.454-.943 1.941-.629.484-1.47.725-2.523.725a4.71 4.71 0 0 1-1.914-.39c-.592-.264-1.05-.624-1.374-1.08a2.638 2.638 0 0 1-.478-1.551h1.32c0 .601.22 1.077.662 1.428.447.347 1.042.52 1.784.52.693 0 1.224-.141 1.593-.424.37-.283.554-.668.554-1.155 0-.488-.171-.864-.513-1.128-.342-.269-.961-.533-1.86-.793zm8.148 3.541c.451 0 .846-.137 1.183-.41.337-.274.524-.616.56-1.026h1.197a2.293 2.293 0 0 1-.438 1.21 2.875 2.875 0 0 1-1.08.916c-.447.228-.92.342-1.422.342-1.007 0-1.809-.335-2.406-1.005-.592-.674-.889-1.595-.889-2.762v-.211c0-.721.133-1.361.397-1.921a3.026 3.026 0 0 1 1.135-1.306c.496-.31 1.082-.465 1.756-.465.83 0 1.518.249 2.065.745.551.497.845 1.142.882 1.935h-1.197c-.036-.479-.218-.871-.546-1.176-.324-.31-.725-.465-1.204-.465-.642 0-1.141.233-1.497.697-.35.461-.526 1.128-.526 2.003v.24c0 .852.175 1.508.526 1.968.351.461.853.691 1.504.691zm7.937-5.366a3.779 3.779 0 0 0-.622-.048c-.83 0-1.393.353-1.689 1.059v5.25h-1.264v-7.396h1.23l.02.854c.415-.66 1.003-.991 1.764-.991.246 0 .433.032.56.096v1.176zm5.462 6.261c-.073-.146-.133-.405-.178-.779-.588.611-1.29.916-2.105.916-.73 0-1.329-.205-1.798-.615a2.017 2.017 0 0 1-.698-1.572c0-.771.292-1.368.875-1.791.588-.429 1.413-.643 2.475-.643h1.23v-.581c0-.442-.132-.793-.396-1.053-.264-.264-.654-.396-1.169-.396-.451 0-.83.114-1.135.341-.305.228-.458.504-.458.828h-1.271c0-.37.13-.725.39-1.067a2.7 2.7 0 0 1 1.066-.82 3.604 3.604 0 0 1 1.483-.301c.852 0 1.52.214 2.003.643.483.424.734 1.009.752 1.757v3.404c0 .679.087 1.219.26 1.62v.109H25.72zm-2.099-.964a2.22 2.22 0 0 0 1.128-.307c.355-.205.613-.472.773-.8v-1.518h-.992c-1.55 0-2.324.454-2.324 1.361 0 .396.132.706.396.93.265.223.604.334 1.02.334zm11.396-2.652c0 1.126-.258 2.033-.773 2.721-.515.688-1.212 1.032-2.092 1.032-.897 0-1.604-.285-2.119-.854v3.561H28.77v-10.24h1.155l.061.82c.515-.638 1.23-.957 2.147-.957.889 0 1.59.335 2.105 1.005.52.67.78 1.602.78 2.796v.116zm-1.265-.143c0-.834-.178-1.493-.533-1.976-.356-.483-.843-.725-1.463-.725-.766 0-1.34.34-1.723 1.019v3.534c.378.675.957 1.012 1.736 1.012.607 0 1.087-.239 1.443-.718.36-.483.54-1.199.54-2.146zm13.85 3.759H46.33v-8.428l-2.55.936v-1.148l3.623-1.361h.198v10.001zm10.13-9.242l-4.122 9.242h-1.326l4.109-8.914h-5.387v-1.039h6.726v.711zm6.283 4.867a3.067 3.067 0 0 1-.95.759 2.541 2.541 0 0 1-1.204.287c-.574 0-1.075-.141-1.504-.424a2.767 2.767 0 0 1-.984-1.189 4.09 4.09 0 0 1-.349-1.702c0-.666.126-1.265.376-1.798a2.813 2.813 0 0 1 1.08-1.224c.465-.282 1.008-.424 1.627-.424.985 0 1.76.37 2.325 1.108.57.734.854 1.736.854 3.008v.369c0 1.937-.383 3.352-1.148 4.245-.766.889-1.921 1.344-3.466 1.367h-.246v-1.066h.266c1.044-.018 1.846-.29 2.407-.814.56-.528.865-1.362.916-2.502zm-1.949 0c.424 0 .814-.13 1.17-.389.36-.26.621-.581.785-.964v-.506c0-.829-.18-1.504-.54-2.023-.36-.52-.815-.78-1.367-.78-.556 0-1.002.214-1.34.643-.337.424-.505.984-.505 1.681 0 .679.161 1.24.485 1.682.328.438.765.656 1.312.656zm5.052 6.358l-.718-.492c.429-.597.652-1.213.67-1.846v-1.142h1.238v.991c0 .461-.114.921-.342 1.381-.224.461-.506.83-.848 1.108zm4.498-7.574h.95c.597-.01 1.067-.167 1.409-.472.341-.305.512-.718.512-1.237 0-1.167-.58-1.75-1.743-1.75-.547 0-.984.157-1.312.471-.324.31-.486.723-.486 1.238h-1.264c0-.789.287-1.443.86-1.962.58-.524 1.313-.787 2.202-.787.939 0 1.675.249 2.208.746.533.496.8 1.187.8 2.071 0 .433-.141.852-.424 1.258a2.524 2.524 0 0 1-1.141.909c.546.173.968.46 1.264.861.3.401.451.891.451 1.47 0 .893-.291 1.602-.875 2.126-.583.524-1.342.786-2.276.786-.934 0-1.695-.253-2.283-.759-.584-.506-.875-1.173-.875-2.003h1.271c0 .524.171.944.513 1.258.342.315.8.472 1.374.472.61 0 1.078-.16 1.401-.479.324-.319.486-.777.486-1.374 0-.578-.178-1.023-.533-1.333-.356-.31-.869-.469-1.539-.478h-.95v-1.032zm8.217 2.167l-.793.827v2.597h-1.265v-10.5h1.265v6.351l.677-.814 2.303-2.433h1.539l-2.878 3.09 3.212 4.306h-1.483l-2.577-3.424zm-46.277 50.393l3.253 8.121 3.255-8.121h1.702v9.953h-1.313v-3.876l.123-4.183-3.267 8.059h-1.005l-3.261-8.039.13 4.163v3.876H31.86v-9.953h1.696zm18.183 5.298c0 .975-.164 1.827-.492 2.557-.328.724-.793 1.278-1.395 1.661-.601.383-1.303.574-2.105.574-.784 0-1.479-.191-2.085-.574-.606-.388-1.078-.937-1.415-1.648-.333-.715-.503-1.542-.513-2.481v-.718c0-.957.167-1.802.5-2.536.332-.734.801-1.294 1.408-1.682.61-.392 1.307-.588 2.091-.588.798 0 1.5.194 2.106.581.61.383 1.08.941 1.408 1.675.328.729.492 1.579.492 2.55v.629zm-1.305-.643c0-1.18-.237-2.085-.711-2.714-.474-.633-1.137-.95-1.99-.95-.83 0-1.483.317-1.962.95-.474.629-.717 1.504-.731 2.625v.732c0 1.144.24 2.044.718 2.7.483.652 1.146.978 1.989.978.848 0 1.504-.308 1.969-.923.465-.62.704-1.506.718-2.659v-.739zm4.587 1.402v3.896h-1.313v-9.953h3.67c1.09 0 1.942.278 2.558.834.62.556.93 1.292.93 2.208 0 .966-.304 1.711-.91 2.235-.602.52-1.465.78-2.59.78h-2.345zm0-1.074h2.358c.702 0 1.24-.164 1.613-.492.374-.332.56-.811.56-1.435 0-.593-.186-1.067-.56-1.422-.373-.356-.886-.54-1.538-.554h-2.433v3.903zm17.185 4.97h-6.521v-.909l3.445-3.828c.51-.579.861-1.048 1.053-1.408.196-.365.294-.741.294-1.128 0-.52-.158-.946-.472-1.279-.315-.332-.734-.499-1.258-.499-.629 0-1.119.18-1.47.54-.346.356-.52.853-.52 1.491h-1.264c0-.916.294-1.657.882-2.222.592-.565 1.383-.848 2.372-.848.925 0 1.657.244 2.194.732.538.483.807 1.128.807 1.934 0 .98-.624 2.147-1.873 3.5l-2.666 2.892h4.997v1.032zm5.496 0h-1.271v-8.429l-2.55.937v-1.148l3.623-1.361h.198v10.001zm5.544-5.592h.95c.597-.009 1.067-.166 1.409-.471.341-.306.512-.718.512-1.238 0-1.166-.58-1.75-1.743-1.75-.547 0-.984.158-1.313.472-.323.31-.485.722-.485 1.237h-1.264c0-.788.287-1.442.86-1.962.58-.524 1.313-.786 2.202-.786.939 0 1.675.249 2.208.745.533.497.8 1.188.8 2.072 0 .433-.141.852-.424 1.258a2.524 2.524 0 0 1-1.142.909c.547.173.969.46 1.265.861.3.401.451.891.451 1.47 0 .893-.291 1.602-.875 2.126-.583.524-1.342.786-2.276.786-.934 0-1.696-.253-2.283-.759-.584-.506-.875-1.173-.875-2.003h1.271c0 .524.171.944.513 1.258.342.314.8.472 1.374.472.61 0 1.078-.16 1.401-.479.324-.319.486-.777.486-1.374 0-.579-.178-1.023-.534-1.333-.355-.31-.868-.469-1.538-.478h-.95v-1.033zm6.111 7.575l-.717-.493c.428-.597.651-1.212.67-1.845v-1.142h1.237v.991c0 .461-.114.921-.342 1.381-.223.46-.506.83-.848 1.108zm6.816-1.983h-1.272v-8.429l-2.55.937v-1.148l3.624-1.361h.198v10.001zm5.899-3.425l-.793.828v2.597h-1.264v-10.5h1.264v6.351l.677-.814 2.304-2.433h1.538l-2.878 3.09 3.213 4.306h-1.484l-2.577-3.425zm-61.261 57.697h-1.313v-9.953h1.313v9.953zm5.783-6.262a3.777 3.777 0 0 0-.622-.048c-.83 0-1.393.354-1.689 1.06v5.25H43.02v-7.397h1.23l.02.855c.415-.661 1.003-.991 1.764-.991.246 0 .433.032.56.095v1.176zm.697 2.495c0-.724.141-1.376.424-1.955a3.22 3.22 0 0 1 1.19-1.34c.51-.314 1.09-.471 1.742-.471 1.008 0 1.821.348 2.44 1.046.625.697.937 1.624.937 2.782v.089c0 .72-.139 1.367-.417 1.941a3.112 3.112 0 0 1-1.182 1.333c-.51.319-1.099.479-1.764.479-1.002 0-1.816-.349-2.44-1.046-.62-.698-.93-1.62-.93-2.769v-.089zm1.271.151c0 .82.19 1.479.568 1.975.383.497.893.745 1.531.745.643 0 1.153-.25 1.531-.752.379-.505.568-1.212.568-2.119 0-.811-.194-1.467-.581-1.968-.383-.506-.894-.759-1.532-.759-.624 0-1.128.248-1.51.745-.383.497-.575 1.208-.575 2.133zm8.245-3.781l.04.93c.566-.711 1.304-1.066 2.215-1.066 1.564 0 2.352.882 2.366 2.645v4.888h-1.265v-4.895c-.005-.533-.128-.927-.37-1.182-.236-.255-.607-.383-1.113-.383-.41 0-.77.109-1.08.328a2.23 2.23 0 0 0-.725.861v5.271h-1.265v-7.397h1.197zm17.855 2.742c0 .975-.164 1.827-.492 2.556-.328.725-.793 1.279-1.395 1.661-.601.383-1.303.575-2.105.575-.784 0-1.479-.192-2.085-.575-.606-.387-1.078-.936-1.415-1.647-.333-.716-.504-1.543-.513-2.481v-.718c0-.957.166-1.803.5-2.536.332-.734.801-1.295 1.407-1.682.611-.392 1.308-.588 2.092-.588.798 0 1.5.194 2.106.581.61.383 1.08.941 1.408 1.675.328.729.492 1.579.492 2.55v.629zm-1.306-.643c0-1.18-.237-2.085-.71-2.714-.475-.633-1.138-.95-1.99-.95-.83 0-1.483.317-1.962.95-.474.629-.717 1.504-.731 2.625v.732c0 1.144.24 2.044.718 2.7.483.652 1.146.977 1.989.977.848 0 1.504-.307 1.969-.922.465-.62.704-1.507.717-2.66v-.738zm6.652-.964a3.779 3.779 0 0 0-.622-.048c-.83 0-1.392.354-1.689 1.06v5.25h-1.264v-7.397h1.23l.02.855c.415-.661 1.003-.991 1.764-.991.246 0 .433.032.56.095v1.176zm4.101 6.399c-1.002 0-1.818-.328-2.447-.985-.629-.661-.943-1.542-.943-2.645v-.233c0-.733.139-1.387.417-1.962a3.284 3.284 0 0 1 1.175-1.353 2.959 2.959 0 0 1 1.641-.492c.962 0 1.71.316 2.242.95.534.633.8 1.54.8 2.721v.526h-5.01c.018.729.23 1.319.635 1.771.41.446.93.669 1.559.669.446 0 .825-.091 1.135-.273.31-.182.58-.424.813-.725l.772.602c-.62.952-1.55 1.429-2.789 1.429zm-.157-6.631c-.51 0-.939.187-1.285.56-.346.369-.56.889-.643 1.559h3.706v-.096c-.037-.642-.21-1.139-.52-1.49-.31-.355-.73-.533-1.258-.533zm17.849 6.494H95.28v-.909l3.446-3.828c.51-.579.86-1.049 1.052-1.409a2.35 2.35 0 0 0 .294-1.128c0-.519-.157-.945-.471-1.278-.315-.333-.734-.499-1.258-.499-.63 0-1.119.18-1.47.54-.346.356-.52.852-.52 1.49H95.09c0-.916.294-1.656.882-2.221.592-.565 1.383-.848 2.372-.848.925 0 1.656.244 2.194.732.538.483.807 1.127.807 1.934 0 .98-.625 2.147-1.873 3.5l-2.666 2.892h4.997v1.032zm3.178-5.592h.951c.597-.009 1.066-.166 1.408-.472.342-.305.513-.717.513-1.237 0-1.167-.581-1.75-1.744-1.75-.546 0-.984.157-1.312.472-.324.31-.485.722-.485 1.237h-1.265c0-.788.287-1.442.861-1.962.579-.524 1.313-.786 2.201-.786.939 0 1.675.248 2.208.745.534.497.8 1.187.8 2.071 0 .433-.141.853-.424 1.258a2.51 2.51 0 0 1-1.141.909c.547.174.968.461 1.264.862.301.401.452.891.452 1.47 0 .893-.292 1.601-.875 2.126-.584.524-1.343.786-2.277.786-.934 0-1.695-.253-2.283-.759-.583-.506-.875-1.174-.875-2.003h1.272c0 .524.17.943.512 1.258.342.314.8.471 1.374.471.611 0 1.078-.159 1.402-.478.323-.319.485-.777.485-1.374 0-.579-.178-1.023-.533-1.333-.356-.31-.868-.47-1.538-.479h-.951v-1.032zm10.179 5.592h-1.271v-8.429l-2.55.937v-1.149l3.623-1.36h.198v10.001zm3.794 1.982l-.718-.492c.429-.597.652-1.212.67-1.846v-1.141h1.238v.991c0 .46-.114.921-.342 1.381-.224.46-.506.829-.848 1.107zm9.085-11.224l-4.122 9.242h-1.326l4.108-8.914h-5.386v-1.039h6.726v.711zm3.63 5.817l-.793.827v2.598h-1.265v-10.5h1.265v6.351l.677-.814 2.303-2.434h1.539l-2.878 3.09 3.213 4.307h-1.484l-2.577-3.425zM49.038 42.936h-2.54v-9.791l-3.032.94V32.02l5.3-1.899h.272v12.815zm12.867-11.373l-4.948 11.373h-2.68l4.956-10.74H52.87v-2.057h9.035v1.424zm1.6 1.037c0-.785.255-1.421.764-1.907.51-.493 1.178-.739 2.004-.739.838 0 1.512.244 2.022.73.51.48.765 1.134.765 1.96v.633c0 .79-.255 1.426-.765 1.907-.51.48-1.178.72-2.004.72-.832 0-1.506-.24-2.022-.72-.51-.486-.764-1.14-.764-1.96V32.6zm1.687.677c0 .351.1.635.3.852.204.211.47.317.799.317.328 0 .589-.109.782-.326.194-.216.29-.506.29-.87v-.65c0-.352-.096-.636-.29-.853-.193-.216-.46-.325-.8-.325-.322 0-.583.108-.782.325-.199.211-.299.507-.299.888v.642zm4.43 6.521c0-.79.258-1.427.773-1.907.516-.486 1.184-.73 2.004-.73.832 0 1.503.24 2.013.721.516.475.773 1.13.773 1.969v.633c0 .785-.251 1.42-.755 1.907-.504.48-1.175.72-2.013.72-.844 0-1.52-.243-2.03-.729-.51-.486-.765-1.13-.765-1.933v-.65zm1.688.686c0 .322.105.597.316.826.21.228.475.343.791.343.715 0 1.072-.396 1.072-1.187v-.668c0-.352-.1-.633-.299-.844-.199-.217-.462-.325-.79-.325-.329 0-.592.108-.792.325-.199.211-.298.501-.298.87v.66zm-4.518 1.494l-1.24-.668 6.25-10.002 1.239.668-6.249 10.002zm443.055-1.042h-2.54v-9.791l-3.033.94V30.02l5.3-1.899h.273v12.815zm10.107-5.115c-.662.65-1.435.975-2.32.975-1.131 0-2.036-.387-2.716-1.16-.68-.78-1.02-1.828-1.02-3.147 0-.837.182-1.605.545-2.302a4.022 4.022 0 0 1 1.538-1.635c.657-.393 1.395-.589 2.215-.589.844 0 1.594.211 2.25.633.657.422 1.166 1.028 1.53 1.82.363.79.547 1.696.553 2.715v.94c0 2.133-.53 3.81-1.591 5.028-1.06 1.219-2.563 1.869-4.508 1.951l-.624.009V38.94l.562-.01c2.209-.099 3.404-1.136 3.586-3.11zm-1.696-.967c.41 0 .762-.106 1.054-.317.299-.21.525-.465.677-.764v-1.046c0-.861-.164-1.53-.492-2.004-.328-.475-.768-.712-1.318-.712-.51 0-.929.234-1.257.703-.328.463-.492 1.046-.492 1.75 0 .696.158 1.27.474 1.722.323.445.774.668 1.354.668zm6.055-4.254c0-.785.255-1.421.765-1.907.51-.493 1.178-.739 2.004-.739.838 0 1.512.244 2.022.73.509.48.764 1.134.764 1.96v.633c0 .79-.255 1.426-.764 1.907-.51.48-1.178.72-2.004.72-.832 0-1.506-.24-2.022-.72-.51-.486-.765-1.14-.765-1.96V30.6zm1.688.677c0 .351.1.635.299.852.205.211.471.317.8.317.328 0 .588-.109.782-.326.193-.216.29-.506.29-.87v-.65c0-.352-.097-.636-.29-.853-.194-.216-.46-.325-.8-.325-.322 0-.583.108-.782.325-.199.211-.299.507-.299.888v.642zm4.43 6.521c0-.79.257-1.427.773-1.907.516-.486 1.184-.73 2.004-.73.832 0 1.503.24 2.013.721.515.475.773 1.13.773 1.969v.633c0 .785-.252 1.42-.756 1.907-.504.48-1.175.72-2.012.72-.844 0-1.521-.243-2.031-.729-.509-.486-.764-1.13-.764-1.933v-.65zm1.687.686c0 .322.106.597.317.826.211.228.474.343.791.343.714 0 1.072-.396 1.072-1.187v-.668c0-.352-.1-.633-.299-.844-.199-.217-.463-.325-.791-.325s-.592.108-.791.325c-.199.211-.299.501-.299.87v.66zm-4.517 1.494l-1.24-.668 6.249-10.002 1.24.668-6.249 10.002zm-9.977 312.416c0 .621-.155 1.171-.466 1.652a3.35 3.35 0 0 1-1.283 1.151 3.702 3.702 0 0 1 1.477 1.24c.363.521.544 1.136.544 1.845 0 1.137-.386 2.036-1.16 2.698-.773.657-1.825.985-3.155.985-1.33 0-2.385-.331-3.164-.993-.779-.662-1.169-1.559-1.169-2.69 0-.709.182-1.327.545-1.854a3.64 3.64 0 0 1 1.468-1.231 3.35 3.35 0 0 1-1.283-1.151c-.305-.481-.457-1.031-.457-1.652 0-1.09.363-1.957 1.089-2.602.727-.65 1.714-.976 2.962-.976 1.242 0 2.227.323 2.953.967.733.639 1.099 1.509 1.099 2.611zm-2.276 5.704c0-.557-.161-1.002-.484-1.336-.322-.334-.756-.501-1.301-.501-.539 0-.969.167-1.292.501-.322.328-.483.773-.483 1.336 0 .545.158.984.475 1.318.316.334.756.501 1.318.501.551 0 .981-.161 1.292-.483.316-.323.475-.768.475-1.336zm-.264-5.581c0-.498-.132-.897-.396-1.196-.263-.304-.635-.457-1.116-.457-.474 0-.843.147-1.107.44-.264.293-.396.697-.396 1.213 0 .509.132.92.396 1.23.264.311.636.466 1.116.466.481 0 .85-.155 1.107-.466.264-.31.396-.721.396-1.23zm4.5-1.064c0-.785.255-1.421.765-1.907.509-.492 1.177-.738 2.004-.738.837 0 1.511.243 2.021.729.51.481.765 1.134.765 1.96v.633c0 .791-.255 1.427-.765 1.907-.51.481-1.178.721-2.004.721-.832 0-1.506-.24-2.021-.721-.51-.486-.765-1.14-.765-1.96v-.624zm1.687.677c0 .351.1.636.299.852.205.211.472.317.8.317.328 0 .589-.109.782-.325.194-.217.29-.507.29-.87v-.651c0-.351-.096-.636-.29-.852-.193-.217-.46-.326-.799-.326-.323 0-.583.109-.783.326-.199.211-.299.506-.299.887v.642zm4.43 6.521c0-.791.258-1.426.774-1.907.515-.486 1.183-.729 2.004-.729.832 0 1.502.24 2.012.72.516.475.774 1.131.774 1.969v.633c0 .785-.252 1.421-.756 1.907-.504.481-1.175.721-2.013.721-.844 0-1.52-.243-2.03-.73-.51-.486-.765-1.131-.765-1.933v-.651zm1.688.686c0 .322.105.598.316.826.211.229.475.343.791.343.715 0 1.072-.396 1.072-1.187v-.668c0-.351-.099-.632-.298-.843-.2-.217-.463-.326-.791-.326-.329 0-.592.109-.791.326-.2.211-.299.501-.299.87v.659zm-4.518 1.494l-1.239-.668 6.249-10.002 1.239.668-6.249 10.002zm-169.398 32.313v2.091h-.246c-1.149.018-2.075.317-2.778.897-.697.58-1.116 1.386-1.257 2.417.68-.692 1.538-1.037 2.576-1.037 1.113 0 1.998.398 2.654 1.195.656.797.984 1.846.984 3.147 0 .832-.181 1.584-.545 2.258a3.838 3.838 0 0 1-1.529 1.574c-.656.375-1.4.562-2.232.562-1.348 0-2.438-.469-3.27-1.406-.826-.938-1.239-2.189-1.239-3.753v-.914c0-1.389.261-2.613.782-3.674.527-1.066 1.28-1.89 2.259-2.47.984-.586 2.124-.882 3.419-.887h.422zm-2.479 6.407c-.41 0-.782.108-1.116.325-.334.211-.58.492-.738.844v.773c0 .85.167 1.515.501 1.995.334.475.802.712 1.406.712.545 0 .984-.214 1.318-.641.34-.434.51-.994.51-1.679 0-.697-.17-1.26-.51-1.688-.34-.427-.797-.641-1.371-.641zm5.889-3.815c0-.785.255-1.421.764-1.907.51-.492 1.178-.738 2.004-.738.838 0 1.512.243 2.022.729.51.481.765 1.134.765 1.96v.633c0 .791-.255 1.427-.765 1.907-.51.481-1.178.721-2.004.721-.832 0-1.506-.24-2.022-.721-.509-.486-.764-1.139-.764-1.96v-.624zm1.687.677c0 .352.1.636.299.853.205.211.472.316.8.316.328 0 .589-.108.782-.325.194-.217.29-.507.29-.87v-.651c0-.351-.096-.635-.29-.852-.193-.217-.46-.325-.8-.325-.322 0-.583.108-.782.325-.199.211-.299.507-.299.887v.642zm4.43 6.522c0-.791.258-1.427.773-1.908.516-.486 1.184-.729 2.004-.729.832 0 1.503.24 2.013.721.516.474.773 1.13.773 1.968v.633c0 .785-.251 1.421-.755 1.907-.504.481-1.175.721-2.013.721-.844 0-1.521-.243-2.03-.729-.51-.487-.765-1.131-.765-1.934v-.65zm1.688.685c0 .322.105.598.316.826.211.229.475.343.791.343.715 0 1.072-.395 1.072-1.186v-.668c0-.352-.099-.633-.299-.844-.199-.217-.463-.325-.791-.325s-.591.108-.791.325c-.199.211-.298.501-.298.87v.659zm-4.518 1.494l-1.239-.668 6.249-10.002 1.239.668-6.249 10.002zm171.639-286.431h-2.54v-9.791l-3.033.94v-2.065l5.3-1.899h.273v12.815zm11.68-4.817h1.45v2.048h-1.45v2.769h-2.54v-2.769h-5.247l-.114-1.599 5.335-8.429h2.566v7.98zm-5.37 0h2.83v-4.517l-.167.29-2.663 4.227zm8.156-5.519c0-.785.255-1.421.765-1.907.51-.492 1.178-.739 2.004-.739.838 0 1.512.244 2.021.73.51.48.765 1.134.765 1.96v.633c0 .791-.255 1.426-.765 1.907-.509.48-1.177.721-2.003.721-.833 0-1.506-.241-2.022-.721-.51-.486-.765-1.14-.765-1.96v-.624zm1.688.677c0 .351.099.635.299.852.205.211.471.317.8.317.328 0 .588-.109.782-.326.193-.216.29-.506.29-.87v-.65c0-.352-.097-.636-.29-.853-.194-.216-.46-.325-.8-.325-.322 0-.583.109-.782.325-.2.211-.299.507-.299.888v.642zm4.43 6.521c0-.791.257-1.427.773-1.907.516-.486 1.184-.73 2.004-.73.832 0 1.503.241 2.013.721.515.475.773 1.131.773 1.969v.633c0 .785-.252 1.421-.756 1.907-.504.48-1.175.721-2.012.721-.844 0-1.521-.244-2.031-.73-.51-.486-.764-1.131-.764-1.933v-.651zm1.687.686c0 .322.106.597.316.826.211.228.475.343.792.343.714 0 1.072-.396 1.072-1.187v-.668c0-.351-.1-.633-.299-.844-.199-.216-.463-.325-.791-.325s-.592.109-.791.325c-.199.211-.299.501-.299.871v.659zm-4.518 1.494l-1.239-.668 6.249-10.002 1.24.668-6.25 10.002zM9.728 91.836H.956v-1.74l4.14-4.412c.568-.621.987-1.163 1.257-1.626.275-.463.413-.903.413-1.319 0-.568-.144-1.013-.431-1.336-.287-.328-.697-.492-1.23-.492-.575 0-1.029.2-1.363.598-.328.392-.492.91-.492 1.555H.701c0-.779.185-1.49.554-2.135a3.934 3.934 0 0 1 1.582-1.512c.68-.37 1.45-.554 2.311-.554 1.319 0 2.341.317 3.068.95.732.632 1.098 1.526 1.098 2.68 0 .633-.164 1.278-.492 1.934-.328.656-.89 1.42-1.687 2.294l-2.91 3.067h5.503v2.048zM15.739 81.5c0-.785.255-1.42.765-1.907.51-.492 1.178-.739 2.004-.739.838 0 1.512.244 2.021.73.51.48.765 1.134.765 1.96v.633c0 .79-.255 1.426-.765 1.907-.51.48-1.177.72-2.004.72-.832 0-1.505-.24-2.021-.72-.51-.486-.765-1.14-.765-1.96V81.5zm1.688.677c0 .351.1.635.299.852.205.211.471.317.8.317.328 0 .588-.109.782-.326.193-.216.29-.506.29-.87v-.65c0-.352-.097-.636-.29-.853-.194-.216-.46-.325-.8-.325-.322 0-.583.109-.782.325-.2.211-.3.507-.3.888v.642zm4.43 6.521c0-.79.257-1.426.773-1.907.515-.486 1.184-.73 2.004-.73.832 0 1.503.24 2.012.721.516.475.774 1.131.774 1.969v.633c0 .785-.252 1.42-.756 1.907-.504.48-1.175.72-2.013.72-.843 0-1.52-.242-2.03-.729-.51-.486-.765-1.13-.765-1.933v-.65zm1.687.686c0 .322.105.597.316.826.211.229.475.343.791.343.715 0 1.073-.396 1.073-1.187v-.668c0-.351-.1-.633-.3-.843-.198-.217-.462-.326-.79-.326s-.592.109-.791.326c-.2.21-.3.5-.3.87v.659zm-4.518 1.494l-1.239-.668 6.25-10.002 1.238.668-6.249 10.002zm-9.298 66.437H.956v-1.74l4.14-4.412c.568-.621.987-1.163 1.257-1.626.275-.463.413-.902.413-1.318 0-.569-.144-1.014-.431-1.336-.287-.328-.697-.492-1.23-.492-.575 0-1.029.199-1.363.597-.328.393-.492.911-.492 1.556H.701c0-.779.185-1.491.554-2.136a3.943 3.943 0 0 1 1.582-1.512c.68-.369 1.45-.553 2.311-.553 1.319 0 2.341.316 3.068.949.732.633 1.098 1.526 1.098 2.681 0 .632-.164 1.277-.492 1.933-.328.656-.89 1.421-1.687 2.294l-2.91 3.068h5.503v2.047zm1.529-10.336c0-.785.255-1.42.764-1.907.51-.492 1.178-.738 2.004-.738.838 0 1.512.243 2.022.729.51.481.764 1.134.764 1.96v.633c0 .791-.254 1.427-.764 1.907-.51.481-1.178.721-2.004.721-.832 0-1.506-.24-2.021-.721-.51-.486-.765-1.139-.765-1.959v-.625zm1.687.677c0 .352.1.636.3.853.204.211.47.316.799.316.328 0 .589-.108.782-.325.194-.217.29-.507.29-.87v-.651c0-.351-.096-.635-.29-.852-.193-.217-.46-.325-.8-.325-.322 0-.583.108-.782.325-.2.211-.299.507-.299.888v.641zm4.43 6.522c0-.791.258-1.427.774-1.907.515-.487 1.183-.73 2.003-.73.832 0 1.503.24 2.013.721.516.474.773 1.131.773 1.968v.633c0 .785-.252 1.421-.755 1.908-.504.48-1.175.72-2.013.72-.844 0-1.52-.243-2.03-.729-.51-.487-.765-1.131-.765-1.934v-.65zm1.688.685c0 .323.105.598.316.826.21.229.474.343.79.343.716 0 1.073-.395 1.073-1.186v-.668c0-.352-.1-.633-.299-.844-.199-.217-.462-.325-.79-.325-.329 0-.592.108-.792.325-.199.211-.299.501-.299.87v.659zm-4.518 1.494l-1.24-.668 6.25-10.001 1.239.667-6.25 10.002zm-7.418 76.049h-2.54v-9.791l-3.032.94v-2.065l5.3-1.899h.272v12.815zm12.867-11.373l-4.948 11.373h-2.68l4.956-10.74h-6.363v-2.057h9.035v1.424zm1.6 1.037c0-.785.255-1.421.764-1.907.51-.493 1.178-.739 2.004-.739.838 0 1.512.243 2.022.73.51.48.765 1.134.765 1.96v.633c0 .791-.255 1.426-.765 1.907-.51.48-1.178.721-2.004.721-.832 0-1.506-.241-2.022-.721-.51-.487-.764-1.14-.764-1.96v-.624zm1.687.677c0 .351.1.635.3.852.204.211.47.317.799.317.328 0 .589-.109.782-.326.194-.216.29-.507.29-.87v-.65c0-.352-.096-.636-.29-.853-.193-.217-.46-.325-.8-.325-.322 0-.583.108-.782.325-.2.211-.299.507-.299.888v.642zm4.43 6.521c0-.791.258-1.427.773-1.907.516-.486 1.184-.73 2.004-.73.832 0 1.503.241 2.013.721.516.475.773 1.131.773 1.969v.633c0 .785-.252 1.421-.755 1.907-.504.48-1.175.721-2.013.721-.844 0-1.52-.244-2.03-.73-.51-.486-.765-1.131-.765-1.934v-.65zm1.688.686c0 .322.105.597.316.826.21.228.475.343.79.343.716 0 1.073-.396 1.073-1.187v-.668c0-.351-.1-.633-.299-.844-.199-.216-.463-.325-.79-.325-.329 0-.593.109-.792.325-.199.211-.299.501-.299.87v.66zm-4.518 1.494l-1.24-.668 6.25-10.002 1.239.668-6.25 10.002zM542.523 206.3h-2.54v-9.791l-3.032.94v-2.065l5.3-1.899h.272V206.3zm10.336 0h-2.54v-9.791l-3.032.94v-2.065l5.3-1.899h.272V206.3zm4.131-10.336c0-.786.255-1.421.765-1.908.51-.492 1.178-.738 2.004-.738.838 0 1.512.243 2.021.73.51.48.765 1.133.765 1.96v.632c0 .791-.255 1.427-.765 1.908-.509.48-1.177.72-2.004.72-.832 0-1.505-.24-2.021-.72-.51-.487-.765-1.14-.765-1.96v-.624zm1.688.676c0 .352.099.636.299.853.205.211.471.316.799.316.328 0 .589-.108.783-.325.193-.217.29-.507.29-.87v-.65c0-.352-.097-.636-.29-.853-.194-.217-.46-.325-.8-.325-.322 0-.583.108-.782.325-.2.211-.299.507-.299.888v.641zm4.429 6.522c0-.791.258-1.427.774-1.907.515-.487 1.183-.73 2.004-.73.832 0 1.503.24 2.012.721.516.474.774 1.131.774 1.969v.632c0 .786-.252 1.421-.756 1.908-.504.48-1.175.72-2.013.72-.843 0-1.52-.243-2.03-.729-.51-.486-.765-1.131-.765-1.934v-.65zm1.688.685c0 .323.105.598.316.827.211.228.475.342.791.342.715 0 1.073-.395 1.073-1.186v-.668c0-.352-.1-.633-.299-.844-.199-.217-.463-.325-.791-.325s-.592.108-.791.325c-.199.211-.299.501-.299.87v.659zm-4.518 1.495l-1.239-.668 6.249-10.002 1.239.668-6.249 10.002zm-12.951 73.537c0 .621-.155 1.172-.466 1.652-.31.481-.738.865-1.283 1.152a3.7 3.7 0 0 1 1.477 1.239c.363.521.545 1.137.545 1.846 0 1.136-.387 2.036-1.161 2.698-.773.656-1.825.984-3.155.984-1.33 0-2.385-.331-3.164-.993-.779-.662-1.169-1.559-1.169-2.689 0-.709.182-1.328.545-1.855a3.646 3.646 0 0 1 1.468-1.23 3.344 3.344 0 0 1-1.283-1.152c-.305-.48-.457-1.031-.457-1.652 0-1.09.363-1.957 1.089-2.602.727-.65 1.714-.975 2.962-.975 1.243 0 2.227.322 2.954.967.732.638 1.098 1.508 1.098 2.61zm-2.276 5.704c0-.557-.161-1.002-.484-1.336-.322-.334-.755-.501-1.3-.501-.539 0-.97.167-1.292.501-.323.328-.484.774-.484 1.336 0 .545.158.984.475 1.318.316.334.756.501 1.318.501.551 0 .982-.161 1.292-.483.317-.322.475-.768.475-1.336zm-.264-5.581c0-.498-.132-.897-.395-1.195-.264-.305-.636-.457-1.117-.457-.474 0-.843.146-1.107.439-.264.293-.396.697-.396 1.213 0 .51.132.92.396 1.23.264.311.636.466 1.116.466.481 0 .85-.155 1.108-.466.263-.31.395-.72.395-1.23zm4.5-1.064c0-.785.255-1.42.765-1.907.51-.492 1.178-.738 2.004-.738.838 0 1.511.243 2.021.729.51.481.765 1.134.765 1.96v.633c0 .791-.255 1.427-.765 1.907-.51.481-1.178.721-2.004.721-.832 0-1.506-.24-2.021-.721-.51-.486-.765-1.139-.765-1.96v-.624zm1.688.677c0 .352.099.636.298.853.206.211.472.316.8.316.328 0 .589-.108.782-.325.194-.217.291-.507.291-.87v-.651c0-.351-.097-.635-.291-.852-.193-.217-.459-.325-.799-.325-.323 0-.583.108-.783.325-.199.211-.298.507-.298.888v.641zm4.429 6.522c0-.791.258-1.427.774-1.908.515-.486 1.183-.729 2.004-.729.832 0 1.503.24 2.012.721.516.474.774 1.131.774 1.968v.633c0 .785-.252 1.421-.756 1.907-.504.481-1.175.721-2.013.721-.844 0-1.52-.243-2.03-.729-.51-.487-.765-1.131-.765-1.934v-.65zm1.688.685c0 .323.105.598.316.826.211.229.475.343.791.343.715 0 1.073-.395 1.073-1.186v-.668c0-.352-.1-.633-.299-.844-.2-.217-.463-.325-.791-.325s-.592.108-.791.325c-.2.211-.299.501-.299.87v.659zm-4.518 1.494l-1.239-.668 6.249-10.002 1.239.668-6.249 10.002zM3.54 282.626h1.354c.644 0 1.122-.161 1.432-.483.31-.322.466-.75.466-1.283 0-.516-.155-.917-.466-1.204-.305-.288-.726-.431-1.265-.431-.487 0-.894.135-1.222.404-.328.264-.492.61-.492 1.037H.807c0-.668.178-1.265.536-1.793.363-.533.867-.949 1.511-1.248A5.072 5.072 0 0 1 5 277.177c1.354 0 2.414.325 3.182.976.767.644 1.151 1.535 1.151 2.671a2.7 2.7 0 0 1-.536 1.618c-.358.492-.826.87-1.406 1.133.72.258 1.256.645 1.608 1.161.357.515.536 1.125.536 1.828 0 1.136-.416 2.048-1.248 2.733-.826.686-1.922 1.028-3.287 1.028-1.277 0-2.323-.336-3.138-1.01-.808-.674-1.213-1.565-1.213-2.672h2.54c0 .48.18.873.537 1.178.363.304.808.457 1.336.457.603 0 1.075-.159 1.415-.475.345-.322.518-.747.518-1.274 0-1.278-.703-1.916-2.11-1.916H3.54v-1.987zm7.717-2.812c0-.785.255-1.421.764-1.908.51-.492 1.178-.738 2.004-.738.838 0 1.512.243 2.022.73.51.48.764 1.133.764 1.96v.632c0 .791-.254 1.427-.764 1.908-.51.48-1.178.72-2.004.72-.832 0-1.506-.24-2.021-.72-.51-.487-.765-1.14-.765-1.96v-.624zm1.687.676c0 .352.1.636.3.853.204.211.47.316.799.316.328 0 .589-.108.782-.325.194-.217.29-.507.29-.87v-.65c0-.352-.096-.636-.29-.853-.193-.217-.46-.325-.8-.325-.322 0-.583.108-.782.325-.2.211-.299.507-.299.888v.641zm4.43 6.522c0-.791.258-1.427.774-1.907.515-.487 1.183-.73 2.003-.73.832 0 1.503.24 2.013.721.516.475.773 1.131.773 1.969v.633c0 .785-.252 1.42-.755 1.907-.504.48-1.175.72-2.013.72-.844 0-1.52-.243-2.03-.729-.51-.486-.765-1.131-.765-1.934v-.65zm1.688.686c0 .322.105.597.316.826.21.228.474.342.79.342.716 0 1.073-.395 1.073-1.186v-.668c0-.352-.1-.633-.299-.844-.199-.217-.462-.325-.79-.325-.329 0-.592.108-.792.325-.199.211-.299.501-.299.87v.66zm-4.518 1.494l-1.24-.668 6.25-10.002 1.239.668-6.25 10.002zm19.616 50.357h1.354c.644 0 1.122-.162 1.432-.484.31-.322.466-.75.466-1.283 0-.516-.155-.917-.466-1.204-.304-.287-.726-.431-1.265-.431-.487 0-.894.135-1.222.405a1.265 1.265 0 0 0-.492 1.037h-2.54c0-.668.178-1.266.536-1.793.363-.534.867-.95 1.512-1.248a5.072 5.072 0 0 1 2.144-.449c1.354 0 2.414.326 3.182.976.767.644 1.151 1.535 1.151 2.672 0 .586-.179 1.125-.536 1.617-.357.492-.826.87-1.406 1.134.72.258 1.257.644 1.608 1.16.358.516.536 1.125.536 1.828 0 1.137-.416 2.048-1.248 2.733-.826.686-1.922 1.029-3.287 1.029-1.277 0-2.323-.337-3.138-1.011-.808-.674-1.212-1.564-1.212-2.672h2.54c0 .481.178.873.536 1.178.363.305.808.457 1.336.457.603 0 1.075-.158 1.415-.475.345-.322.518-.747.518-1.274 0-1.277-.703-1.916-2.11-1.916H34.16v-1.986zm7.717-2.813c0-.785.255-1.421.765-1.907.51-.492 1.177-.738 2.003-.738.838 0 1.512.243 2.022.729.51.481.765 1.134.765 1.96v.633c0 .791-.255 1.427-.765 1.907-.51.481-1.178.721-2.004.721-.832 0-1.506-.24-2.021-.721-.51-.486-.765-1.14-.765-1.96v-.624zm1.688.677c0 .351.1.636.298.852.205.211.472.317.8.317.328 0 .589-.109.782-.325.194-.217.29-.507.29-.871v-.65c0-.351-.096-.636-.29-.852-.193-.217-.46-.326-.8-.326-.322 0-.583.109-.782.326-.199.21-.298.506-.298.887v.642zm4.43 6.521c0-.791.257-1.426.773-1.907.515-.486 1.183-.729 2.004-.729.831 0 1.502.24 2.012.72.516.475.774 1.131.774 1.969v.633c0 .785-.252 1.421-.756 1.907-.504.481-1.175.721-2.013.721-.844 0-1.52-.243-2.03-.73-.51-.486-.765-1.131-.765-1.933v-.651zm1.687.686c0 .322.105.598.316.826.211.229.475.343.791.343.715 0 1.072-.396 1.072-1.187v-.668c0-.351-.1-.632-.298-.843-.2-.217-.463-.326-.791-.326-.329 0-.592.109-.791.326-.2.211-.3.501-.3.87v.659zm-4.518 1.494l-1.24-.668 6.25-10.002 1.24.668-6.25 10.002zm1.469 50.412h1.45v2.047h-1.45v2.769h-2.54v-2.769h-5.247l-.115-1.599 5.335-8.429h2.567v7.981zm-5.37 0h2.83v-4.518l-.167.29-2.663 4.228zm8.156-5.52c0-.785.255-1.421.765-1.907.51-.492 1.177-.738 2.004-.738.837 0 1.511.243 2.021.729.51.481.765 1.134.765 1.96v.633c0 .791-.255 1.427-.765 1.907-.51.481-1.178.721-2.004.721-.832 0-1.506-.24-2.021-.721-.51-.486-.765-1.14-.765-1.96v-.624zm1.687.677c0 .351.1.636.3.852.204.211.471.317.8.317.327 0 .588-.109.781-.325.194-.217.29-.507.29-.871v-.65c0-.351-.096-.636-.29-.852-.193-.217-.46-.326-.8-.326-.322 0-.582.109-.782.326-.199.211-.299.506-.299.887v.642zm4.43 6.521c0-.791.258-1.426.774-1.907.515-.486 1.183-.729 2.003-.729.832 0 1.503.24 2.013.72.516.475.774 1.131.774 1.969v.633c0 .785-.252 1.421-.756 1.907-.504.481-1.175.721-2.013.721-.844 0-1.52-.243-2.03-.73-.51-.486-.765-1.131-.765-1.933v-.651zm1.688.686c0 .322.105.598.316.826.211.229.475.343.791.343.715 0 1.072-.396 1.072-1.187v-.668c0-.351-.1-.632-.298-.843-.2-.217-.463-.326-.791-.326-.329 0-.592.109-.791.326-.2.211-.3.501-.3.87v.659zm-4.518 1.494l-1.24-.668 6.25-10.002 1.24.668-6.25 10.002z" fill="#009487"/><path d="M233.735 18.076c59.109-23.014 126.175-6.819 168.233 40.488l-56.693 50.291c-21.029-23.583-54.562-31.68-84.117-20.173l-27.423-70.606z" fill="#6BA7DC"/><path d="M261.585 87.545c29.27-11.08 62.803-2.983 83.69 20.173l55.414-49.296c-41.49-46.17-107.987-62.081-166.101-39.92l26.997 69.043zm83.974 22.02c-.284.142-.711 0-.853-.142-20.745-23.298-54.135-31.396-83.263-20.173-.427.142-.853 0-.995-.426L233.025 18.36c-.142-.426 0-.852.426-.994 29.128-11.365 60.53-13.496 90.937-6.109 30.407 7.246 57.403 23.44 78.148 46.881.142.142.142.426.142.568 0 .142-.142.427-.284.569l-56.693 50.29c0-.142 0 0-.142 0z" fill="#fff"/><path d="M401.968 58.422c31.259 35.09 44.331 82.681 35.522 128.852l-74.455-14.064c4.405-23.015-2.131-46.881-17.761-64.497l56.694-50.29z" fill="#DEDFE0"/><path d="M364.03 172.641l72.891 13.78c8.384-45.176-4.689-92.34-34.953-126.862l-55.415 49.296c14.919 17.332 21.456 41.056 17.477 63.786zm73.744 15.485h-.426l-74.455-14.064c-.142 0-.426-.142-.568-.284-.142-.142-.142-.426-.142-.568 4.263-22.731-2.273-46.455-17.619-63.787-.142-.142-.142-.426-.142-.568 0-.142.142-.426.284-.568l56.693-50.29c.284-.285.853-.285 1.137 0 15.345 17.33 26.855 38.214 32.964 60.66 6.11 22.304 7.105 46.171 2.842 68.901a1.109 1.109 0 0 1-.568.568z" fill="#fff"/><path d="M437.489 187.416c-6.678 34.663-25.149 65.917-52.288 88.363l-48.31-58.388a75.24 75.24 0 0 0 26.144-44.182l74.454 14.207z" fill="#41BAAA"/><path d="M338.028 217.533l47.315 57.11c26.429-22.162 44.616-52.848 51.294-86.659l-72.891-13.78c-3.41 16.906-12.504 32.249-25.718 43.329zm47.457 58.957c-.284.142-.71 0-.852-.284l-48.31-58.388c-.142-.142-.142-.427-.142-.569 0-.142.142-.426.284-.568 13.498-11.081 22.592-26.566 25.86-43.755.142-.427.426-.711.995-.569l74.454 14.065c.142 0 .426.142.568.284.142.142.142.426.142.568-6.678 34.805-25.291 66.344-52.572 88.79-.285.426-.427.426-.427.426z" fill="#fff"/><path d="M385.201 275.779c-19.466 16.195-42.768 27.134-67.634 31.964l-14.493-74.299c12.362-2.415 24.013-7.955 33.817-16.053l48.31 58.388z" fill="#14ADEA"/><path d="M318.136 306.749c24.155-4.83 46.889-15.627 65.929-31.112l-47.316-57.109c-9.519 7.671-20.744 13.07-32.822 15.485l14.209 72.736zm25.576-5.824a151.19 151.19 0 0 1-26.002 7.529c-.142 0-.427 0-.569-.142-.142-.142-.284-.284-.284-.568l-14.493-74.3c-.142-.426.142-.852.568-.994 12.22-2.415 23.871-7.814 33.533-15.769.284-.284.853-.284 1.137.142l48.31 58.388c.142.142.142.426.142.568 0 .142-.142.427-.284.569-12.646 10.37-26.855 18.752-42.058 24.577z" fill="#fff"/><path d="M317.568 307.744c-24.582 4.83-49.873 3.409-73.886-3.978l22.45-72.31a75.66 75.66 0 0 0 36.943 1.988l14.493 74.3z" fill="#CFE3F2"/><path d="M244.676 303.198c23.161 7.103 48.026 8.381 71.897 3.835l-14.209-72.736c-11.935 2.131-24.155 1.562-35.806-1.989l-21.882 70.89zm73.176 5.256s-.142 0 0 0c-24.724 4.83-50.442 3.409-74.312-3.978-.142 0-.427-.142-.427-.426a.432.432 0 0 1 0-.568l22.45-72.311c.142-.426.569-.71.995-.568 11.793 3.694 24.439 4.262 36.517 1.989.142 0 .426 0 .568.142.142.142.284.284.284.568l14.493 74.299c0 .427-.284.711-.568.853z" fill="#fff"/><path d="M243.682 303.766c-17.619-5.398-34.102-14.064-48.737-25.429l46.747-59.525c7.247 5.683 15.488 10.087 24.297 12.786l-22.307 72.168z" fill="#A4A5A5"/><path d="M196.081 278.194c14.209 10.939 29.981 19.321 47.031 24.577l22.024-70.747a75.481 75.481 0 0 1-23.16-12.218l-45.895 58.388zm47.884 26.282c-.142 0-.284.142-.569 0-17.761-5.54-34.243-14.064-49.02-25.571-.142-.142-.284-.284-.284-.568 0-.143 0-.427.142-.569l46.747-59.524c.284-.284.71-.426 1.137-.142 7.246 5.682 15.345 9.944 24.155 12.643.142 0 .426.142.426.426.142.143.142.427 0 .569l-22.308 72.31c0 .142-.142.426-.426.426z" fill="#fff"/><path d="M194.945 278.194a143.604 143.604 0 0 1-25.434-25.429l59.535-46.881c3.694 4.688 7.957 8.95 12.788 12.644l-46.889 59.666z" fill="#3AB0D5"/><path d="M170.648 253.049a149.34 149.34 0 0 0 24.155 24.151l45.894-58.388c-4.262-3.41-8.241-7.387-11.793-11.649l-58.256 45.886zm24.581 25.998c-.284.142-.568 0-.71-.142-9.52-7.388-18.045-16.054-25.576-25.43-.142-.142-.142-.426-.142-.568 0-.142.142-.426.284-.568l59.535-46.881c.284-.284.852-.142 1.137.142 3.694 4.688 7.957 8.95 12.646 12.501.142.143.284.285.284.569 0 .142 0 .426-.142.568l-46.747 59.525c-.285.142-.427.142-.569.284z" fill="#fff"/><path d="M169.511 252.907c-6.82-8.666-12.646-18.042-17.477-27.986l68.345-32.817c2.415 4.972 5.399 9.66 8.809 14.064l-59.677 46.739z" fill="#F5B16B"/><path d="M153.171 225.205c4.546 9.376 10.088 18.326 16.624 26.566l58.256-45.887c-3.126-3.978-5.826-8.24-7.957-12.786l-66.923 32.107zm16.624 28.412c-.284.142-.711 0-.853-.284a155.773 155.773 0 0 1-17.619-28.128c-.142-.142-.142-.426 0-.569 0-.142.285-.426.427-.426l68.344-32.816c.426-.142.853 0 .995.426 2.415 4.972 5.257 9.518 8.667 13.922.142.142.142.426.142.568 0 .142-.142.426-.284.569l-59.535 46.88c-.142-.142-.142-.142-.284-.142z" fill="#fff"/><path d="M152.034 224.921c-3.978-8.382-7.246-17.048-9.662-25.998l73.176-19.889c1.278 4.546 2.841 8.808 4.831 13.07l-68.345 32.817z" fill="#6D6E71"/><path d="M143.368 199.349c2.273 8.382 5.399 16.621 9.093 24.435l66.924-32.248c-1.705-3.694-3.268-7.672-4.405-11.65l-71.612 19.463zm8.951 26.282c-.426.142-.852 0-.995-.426-3.978-8.382-7.388-17.19-9.804-26.14-.142-.426.142-.852.569-.994l73.175-19.889c.142 0 .426 0 .568.142l.427.426c1.136 4.404 2.842 8.808 4.831 12.928a.432.432 0 0 1 0 .568c0 .142-.284.426-.426.426l-68.345 32.959z" fill="#fff"/><path d="M142.372 198.781c-2.273-8.666-3.836-17.332-4.688-26.282l75.448-6.677c.427 4.404 1.137 8.808 2.274 13.07l-73.034 19.889z" fill="#6AA84B"/><path d="M142.94 197.786l71.613-19.462a83.648 83.648 0 0 1-2.131-11.649l-73.886 6.534c.71 8.382 2.273 16.622 4.404 24.577zm72.892-18.042c-.142 0-.142 0 0 0l-73.176 19.889c-.142 0-.426 0-.568-.142l-.426-.426c-2.274-8.666-3.979-17.474-4.689-26.424 0-.426.284-.852.71-.852l75.449-6.677c.142 0 .426 0 .568.142.142.142.285.284.285.568.426 4.404 1.136 8.808 2.273 12.928.142.426-.142.852-.426.994z" fill="#fff"/><path d="M137.683 172.499c-.568-5.682-.71-11.365-.568-17.189l75.733 1.846c-.142 2.842 0 5.683.284 8.524l-75.449 6.819z" fill="#B6D6A8"/><path d="M138.394 171.647l73.885-6.535c-.142-2.415-.284-4.688-.284-7.103l-74.17-1.847c0 5.114.142 10.37.569 15.485zm75.022-5.115h-.284l-75.449 6.677c-.142 0-.426 0-.568-.142-.142-.142-.284-.284-.284-.568-.569-5.682-.711-11.507-.569-17.19 0-.426.426-.852.853-.71l75.733 1.847c.142 0 .426.142.568.284.142.142.284.426.284.568-.142 2.842 0 5.683.284 8.524 0 .284-.284.568-.568.71z" fill="#fff"/><path d="M137.115 155.452c.142-5.399.569-10.939 1.279-16.338l75.165 10.087c-.427 2.699-.569 5.398-.711 8.097l-75.733-1.846z" fill="#C17A9F"/><path d="M137.968 154.599l74.17 1.847c.142-2.273.284-4.404.568-6.677l-73.459-9.802a126.968 126.968 0 0 0-1.279 14.632zm75.164 3.41h-.284l-75.733-1.847c-.142 0-.426-.142-.568-.284-.142-.142-.284-.426-.284-.568a160.93 160.93 0 0 1 1.278-16.48c0-.426.427-.71.853-.71l75.165 10.086c.142 0 .426.142.568.284.142.143.142.427.142.569-.426 2.699-.568 5.398-.71 8.097.142.427-.142.711-.427.853z" fill="#fff"/><path d="M138.394 139.114c7.388-54.694 43.905-101.007 95.341-121.038l27.423 70.606c-25.718 9.944-44.048 33.243-47.6 60.519l-75.164-10.087z" fill="#EDD3DD"/><path d="M139.246 138.404l73.46 9.802c3.978-26.992 22.023-49.864 47.315-60.093L233.166 19.07c-50.441 19.89-86.389 65.492-93.92 119.334zm74.596 11.365h-.426l-75.165-10.087c-.142 0-.426-.142-.568-.284-.142-.142-.142-.426-.142-.568 7.389-54.979 44.047-101.575 95.768-121.606.426-.142.852 0 .994.426l27.423 70.605a.432.432 0 0 1 0 .569l-.426.426c-25.434 9.944-43.479 32.816-47.173 59.809.142.426 0 .71-.285.71z" fill="#fff"/><path d="M42.058 20.775h120.064v25.288h61.24m305.917-25.288H409.072v25.288h-61.24m203.044 52.421h-98.041v25.287h-49.446m154.165 63.645h-98.041v35.374h-49.447m147.488 44.607h-142.23v18.469h-73.176m187.131 55.263H281.903v-43.898" stroke="#009487" stroke-width=".5" stroke-miterlimit="10"/><path d="M366.73 385.879H222.084V279.331M0 71.634h126.885v76.715h29.554M0 270.097h125.322v-59.525h29.27" stroke="#009487" stroke-width=".5" stroke-miterlimit="10"/><path d="M30.69 326.07h115.518v-89.642h26.713" stroke="#009487" stroke-width=".5" stroke-miterlimit="10"/><path d="M39.216 379.77h124.611V263.278h25.576M0 136.841h109.692v26.566h37.369M0 212.135h113.813v-26.566h38.932" stroke="#009487" stroke-width=".5" stroke-miterlimit="10"/><path d="M223.363 49.33c1.847 0 3.268-1.42 3.268-3.267s-1.421-3.268-3.268-3.268c-1.847 0-3.268 1.421-3.268 3.268 0 1.847 1.421 3.267 3.268 3.267zm124.469 0c-1.848 0-3.269-1.42-3.269-3.267s1.421-3.268 3.269-3.268c1.847 0 3.268 1.421 3.268 3.268.142 1.847-1.421 3.267-3.268 3.267zm55.556 77.851c-1.847 0-3.268-1.421-3.268-3.268 0-1.846 1.421-3.267 3.268-3.267 1.847 0 3.268 1.421 3.268 3.267.142 1.705-1.421 3.268-3.268 3.268zm6.679 98.876c-1.847 0-3.268-1.42-3.268-3.267s1.421-3.268 3.268-3.268c1.847 0 3.268 1.421 3.268 3.268.142 1.704-1.421 3.267-3.268 3.267zm-67.919 63.076c-1.847 0-3.268-1.42-3.268-3.267s1.421-3.268 3.268-3.268c1.847 0 3.268 1.421 3.268 3.268.142 1.847-1.421 3.267-3.268 3.267zm-60.245 4.688c-1.847 0-3.268 1.421-3.268 3.268 0 1.847 1.421 3.267 3.268 3.267 1.847 0 3.268-1.42 3.268-3.267 0-1.705-1.421-3.268-3.268-3.268zm-59.82-17.9c-1.847 0-3.268 1.421-3.268 3.268 0 1.847 1.421 3.267 3.268 3.267 1.848 0 3.269-1.42 3.269-3.267 0-1.705-1.421-3.268-3.269-3.268zm-65.644-124.305c1.847 0 3.268-1.421 3.268-3.267 0-1.847-1.421-3.268-3.268-3.268-1.847 0-3.268 1.421-3.268 3.268 0 1.846 1.421 3.267 3.268 3.267zm-1.847 55.547c1.847 0 3.268 1.42 3.268 3.267s-1.421 3.268-3.268 3.268c-1.847 0-3.268-1.421-3.268-3.268 0-1.705 1.421-3.267 3.268-3.267zm18.329 25.997c1.848 0 3.268 1.421 3.268 3.268 0 1.846-1.42 3.267-3.268 3.267-1.847 0-3.268-1.421-3.268-3.267 0-1.847 1.421-3.268 3.268-3.268zm16.483 26.85c1.847 0 3.268 1.421 3.268 3.268 0 1.847-1.421 3.267-3.268 3.267-1.847 0-3.268-1.42-3.268-3.267s1.563-3.268 3.268-3.268zm-42.343-93.335c1.847 0 3.268-1.421 3.268-3.268 0-1.847-1.421-3.267-3.268-3.267-1.847 0-3.268 1.42-3.268 3.267s1.421 3.268 3.268 3.268zm5.684 15.627c1.847 0 3.268 1.42 3.268 3.267s-1.421 3.267-3.268 3.267c-1.847 0-3.268-1.42-3.268-3.267-.142-1.847 1.421-3.267 3.268-3.267z" fill="#009487"/></svg>