<svg width="549" height="335" fill="none" xmlns="http://www.w3.org/2000/svg"><path d="M252.349 8.3c43.763-10.086 89.657-.568 125.748 26.14l-45.611 61.514c-18.045-13.354-41.063-18.042-62.945-13.07L252.349 8.3z" fill="#14ADEA"/><path d="M270.252 81.748a77.544 77.544 0 0 1 61.95 12.927l44.616-60.093C341.296 8.585 296.396-.649 253.485 9.011l16.767 72.736zm62.377 15.058c-.285 0-.569 0-.711-.142-17.903-13.212-40.495-17.9-62.093-12.928-.426.142-.994-.142-1.136-.71L251.496 8.443c-.142-.426.142-.995.711-1.137a153.854 153.854 0 0 1 126.458 26.282c.142.142.284.426.426.568 0 .284 0 .426-.142.71l-45.61 61.514c-.284.284-.426.426-.71.426z" fill="#fff"/><path d="M378.097 34.44c68.06 50.29 82.269 146.184 31.97 214.232-32.965 44.324-87.242 67.622-142.088 60.945l9.377-76.004c42.058 5.114 80.28-24.719 85.537-66.628 3.411-27.418-8.241-54.552-30.406-70.89l45.61-61.655z" fill="#CFE3F2"/><path d="M268.973 308.765c54.136 6.393 107.845-16.906 140.241-60.661 24.297-32.675 34.243-72.879 28.276-113.083-5.968-39.92-26.997-75.151-59.251-99.302l-44.616 60.093c22.024 16.621 33.533 43.897 30.123 71.173-5.257 42.051-43.479 72.169-85.679 67.481l-9.094 74.299zm52.43-1.137c-17.334 3.978-35.379 4.972-53.425 2.841-.284 0-.426-.142-.568-.284-.142-.142-.284-.426-.142-.71l9.378-76.004c0-.568.568-.852.994-.852 41.49 5.114 79.428-24.435 84.543-65.918 3.41-26.992-8.241-53.842-30.123-70.037-.142-.142-.284-.426-.426-.568 0-.284 0-.426.142-.71l45.61-61.514c.285-.426.853-.426 1.279-.142 33.107 24.435 54.704 60.377 60.672 101.149 6.11 40.772-4.121 81.402-28.702 114.503-22.024 29.691-53.994 50.149-89.232 58.246z" fill="#fff"/><path d="M267.978 309.475c-84.116-10.37-143.794-86.801-133.421-170.76 5.541-44.324 30.123-84.102 67.35-108.82l42.342 63.786c-35.238 23.44-44.9 70.889-21.455 106.121 12.361 18.61 32.254 30.97 54.42 33.669l-9.236 76.004z" fill="#41BAAA"/><path d="M201.765 31.173c-36.659 24.719-60.814 63.786-66.213 107.684-4.973 40.346 6.109 80.266 31.117 112.372 24.865 31.822 60.53 52.137 100.598 57.252l9.236-74.157a77.523 77.523 0 0 1-54.278-33.954c-11.509-17.189-15.487-37.931-11.367-58.246 3.979-20.031 15.488-37.22 32.396-48.727l-41.489-62.224zm66.497 279.155h-.284c-40.922-4.973-77.438-25.714-102.73-58.104-25.292-32.391-36.517-72.737-31.401-113.651 5.541-44.75 30.264-84.67 67.776-109.531.426-.284.994-.142 1.278.284l42.343 63.786c.142.142.142.427.142.71 0 .285-.142.427-.426.57-16.909 11.222-28.418 28.27-32.397 48.017-3.978 19.746 0 40.061 11.083 56.825 12.22 18.468 31.828 30.543 53.852 33.243.284 0 .426.142.568.284.142.142.284.426.142.71l-9.378 76.004c0 .568-.284.853-.568.853z" fill="#fff"/><path d="M202.049 29.894c15.345-10.228 32.396-17.473 50.299-21.593l17.193 74.583c-8.952 2.131-17.477 5.683-25.15 10.797l-42.342-63.787z" fill="#EDD3DD"/><path d="M203.328 30.178l41.347 62.224c7.389-4.688 15.346-8.24 23.871-10.228l-16.908-72.88c-17.193 4.12-33.533 11.082-48.31 20.884zm41.347 64.355c-.426.142-.71 0-.994-.426L201.338 30.32c-.142-.142-.142-.426-.142-.71s.142-.426.427-.568c15.487-10.229 32.538-17.616 50.583-21.736.426-.142.995.142 1.137.71L270.535 82.6c.142.426-.142.994-.71 1.136-8.952 1.99-17.193 5.683-24.866 10.655-.142.142-.142.142-.284.142z" fill="#fff"/><path d="M429.016 10.402h-4.17L423.909 13h-1.353l3.8-9.953h1.149L431.312 13h-1.346l-.95-2.598zm-3.774-1.08h3.384l-1.695-4.655-1.689 4.655zm6.911-.082c0-1.153.267-2.069.8-2.748.533-.683 1.24-1.025 2.119-1.025.903 0 1.607.319 2.113.957l.061-.82h1.155v7.218c0 .957-.284 1.712-.854 2.263-.565.551-1.326.827-2.283.827a3.805 3.805 0 0 1-1.566-.342c-.51-.228-.9-.54-1.169-.936l.657-.759c.542.67 1.205 1.005 1.989 1.005.615 0 1.094-.173 1.435-.52.347-.346.52-.834.52-1.462v-.636c-.506.583-1.196.875-2.071.875-.866 0-1.568-.349-2.106-1.046-.533-.697-.8-1.648-.8-2.85zm1.272.144c0 .834.171 1.49.513 1.968.341.474.82.711 1.435.711.798 0 1.383-.362 1.757-1.086V7.6c-.387-.707-.969-1.06-1.743-1.06-.616 0-1.096.24-1.443.718-.346.478-.519 1.187-.519 2.126zm10.466-2.646a3.797 3.797 0 0 0-.622-.048c-.83 0-1.393.354-1.689 1.06V13h-1.265V5.604h1.231l.02.854c.415-.66 1.003-.991 1.764-.991.246 0 .433.032.561.096v1.175zM446.434 13h-1.265V5.604h1.265V13zm-1.368-9.358c0-.205.062-.379.185-.52.128-.141.314-.212.561-.212.246 0 .432.07.56.212a.745.745 0 0 1 .191.52.72.72 0 0 1-.191.512c-.128.137-.314.205-.56.205-.247 0-.433-.068-.561-.205a.738.738 0 0 1-.185-.512zm9.646 5.742c0 1.125-.258 2.032-.773 2.72-.515.689-1.212 1.033-2.091 1.033-.898 0-1.605-.285-2.119-.855v3.562h-1.265V5.604h1.155l.062.82c.515-.638 1.23-.957 2.146-.957.889 0 1.591.335 2.106 1.005.519.67.779 1.602.779 2.796v.116zm-1.265-.144c0-.834-.177-1.492-.533-1.975-.355-.483-.843-.725-1.463-.725-.765 0-1.34.34-1.722 1.019v3.534c.378.674.957 1.011 1.736 1.011.606 0 1.087-.239 1.442-.717.36-.483.54-1.199.54-2.147zm6.453-2.502a3.78 3.78 0 0 0-.622-.048c-.829 0-1.392.354-1.688 1.06V13h-1.265V5.604h1.231l.02.854c.415-.66 1.003-.991 1.764-.991.246 0 .433.032.56.096v1.175zm.698 2.495c0-.724.141-1.376.423-1.955.288-.578.684-1.025 1.19-1.34.51-.314 1.091-.471 1.743-.471 1.007 0 1.821.348 2.441 1.046.624.697.936 1.624.936 2.782v.089c0 .72-.139 1.367-.417 1.941a3.112 3.112 0 0 1-1.183 1.333c-.51.32-1.098.479-1.763.479-1.003 0-1.816-.349-2.441-1.046-.619-.697-.929-1.62-.929-2.769v-.089zm1.271.15c0 .821.189 1.48.568 1.976.382.497.893.745 1.531.745.642 0 1.153-.25 1.531-.752.378-.505.567-1.212.567-2.119 0-.81-.193-1.467-.581-1.968-.382-.506-.893-.76-1.531-.76-.624 0-1.128.25-1.511.746-.382.497-.574 1.208-.574 2.133zm6.74-.143c0-1.135.269-2.046.807-2.734.538-.693 1.242-1.04 2.112-1.04.866 0 1.552.297 2.058.89V2.5h1.265V13h-1.163l-.061-.793c-.506.62-1.21.93-2.112.93-.857 0-1.557-.351-2.099-1.053-.538-.702-.807-1.618-.807-2.748V9.24zm1.265.144c0 .838.173 1.495.52 1.968.346.474.824.711 1.435.711.802 0 1.388-.36 1.757-1.08V7.586c-.378-.697-.959-1.046-1.743-1.046-.62 0-1.103.24-1.449.718-.347.478-.52 1.187-.52 2.126zm11.512 2.885c-.492.578-1.215.868-2.167.868-.789 0-1.39-.228-1.805-.684-.41-.46-.617-1.14-.622-2.037V5.604h1.265v4.778c0 1.12.455 1.681 1.367 1.681.966 0 1.609-.36 1.928-1.08v-5.38h1.264V13h-1.203l-.027-.731zm6.125-.165a1.82 1.82 0 0 0 1.182-.41c.338-.273.524-.615.561-1.025h1.196a2.293 2.293 0 0 1-.437 1.21 2.876 2.876 0 0 1-1.08.916 3.088 3.088 0 0 1-1.422.342c-1.007 0-1.81-.335-2.407-1.005-.592-.675-.888-1.595-.888-2.762v-.212c0-.72.132-1.36.396-1.92a3.032 3.032 0 0 1 1.135-1.306c.497-.31 1.082-.465 1.757-.465.829 0 1.517.248 2.064.745.552.497.846 1.142.882 1.934h-1.196c-.037-.478-.219-.87-.547-1.175-.324-.31-.725-.465-1.203-.465-.643 0-1.142.232-1.497.697-.351.46-.527 1.128-.527 2.003v.24c0 .851.176 1.508.527 1.968.351.46.852.69 1.504.69zm6.077-8.291v1.79h1.381v.978h-1.381v4.587c0 .296.061.52.184.67.124.146.333.219.629.219.146 0 .347-.028.602-.082V13a3.669 3.669 0 0 1-.971.137c-.565 0-.991-.171-1.278-.513-.287-.342-.431-.827-.431-1.456V6.581h-1.346v-.977h1.346V3.812h1.265zm7.171 7.225c0-.342-.13-.606-.39-.793-.255-.191-.704-.355-1.347-.492-.638-.137-1.146-.3-1.524-.492-.374-.192-.652-.42-.834-.684a1.649 1.649 0 0 1-.267-.943c0-.606.256-1.119.766-1.538.515-.42 1.171-.63 1.969-.63.838 0 1.517.217 2.037.65.524.433.786.987.786 1.661h-1.271c0-.346-.149-.645-.445-.895-.291-.25-.661-.376-1.107-.376-.46 0-.82.1-1.08.3a.948.948 0 0 0-.39.787c0 .305.121.535.362.69.242.155.677.303 1.306.445.634.14 1.146.31 1.538.505.392.196.681.433.868.711.192.274.287.609.287 1.005 0 .661-.264 1.192-.793 1.593-.528.396-1.214.595-2.057.595-.593 0-1.117-.105-1.572-.315a2.595 2.595 0 0 1-1.074-.875 2.147 2.147 0 0 1-.382-1.223h1.264c.023.424.192.76.506 1.011.319.246.738.37 1.258.37.478 0 .861-.096 1.148-.288.292-.196.438-.455.438-.779zM511.17 13h-1.272V4.571l-2.549.937V4.359L510.972 3h.198v10zm9.044-3.343h1.381v1.033h-1.381V13h-1.272v-2.31h-4.532v-.746l4.457-6.897h1.347v6.61zm-4.368 0h3.096v-4.88l-.15.273-2.946 4.607zm8.729-2.249h.95c.597-.009 1.067-.166 1.409-.471.341-.306.512-.718.512-1.238 0-1.166-.581-1.75-1.743-1.75-.547 0-.984.157-1.312.472-.324.31-.486.722-.486 1.237h-1.264c0-.788.287-1.442.861-1.962.579-.524 1.312-.786 2.201-.786.939 0 1.675.249 2.208.745.533.497.8 1.187.8 2.072 0 .433-.141.852-.424 1.257a2.516 2.516 0 0 1-1.141.91c.546.173.968.46 1.264.86.301.402.451.892.451 1.47 0 .894-.291 1.602-.875 2.127-.583.524-1.342.786-2.276.786-.934 0-1.695-.253-2.283-.76-.584-.505-.875-1.173-.875-2.002h1.271c0 .524.171.943.513 1.258.342.314.8.472 1.374.472.611 0 1.078-.16 1.401-.479.324-.319.486-.777.486-1.374 0-.579-.178-1.023-.534-1.333-.355-.31-.868-.47-1.538-.479h-.95V7.408zm6.112 7.574l-.718-.492c.428-.597.651-1.212.67-1.845v-1.142h1.237v.991c0 .46-.114.92-.342 1.381-.223.46-.506.83-.847 1.107zm7.622-11.942v1.073h-.233c-.984.019-1.768.31-2.351.875-.584.565-.921 1.36-1.012 2.386.524-.602 1.239-.902 2.146-.902.866 0 1.557.305 2.072.916.519.61.779 1.399.779 2.365 0 1.025-.28 1.846-.841 2.46-.556.616-1.303.924-2.242.924-.953 0-1.725-.365-2.317-1.094-.593-.734-.889-1.677-.889-2.83v-.485c0-1.832.39-3.232 1.169-4.198.784-.97 1.948-1.467 3.493-1.49h.226zm-1.662 4.484c-.432 0-.831.13-1.196.39a2.04 2.04 0 0 0-.759.978v.464c0 .82.185 1.482.554 1.983.369.501.83.752 1.381.752.57 0 1.016-.21 1.34-.63.328-.418.492-.968.492-1.647 0-.683-.166-1.235-.499-1.654-.328-.424-.766-.636-1.313-.636zm6.754 2.051l-.793.827V13h-1.264V2.5h1.264v6.35l.677-.813 2.304-2.433h1.538l-2.878 3.09L547.462 13h-1.483l-2.578-3.425zm-21.514 31.358h-2.54v-9.791l-3.032.94v-2.065l5.3-1.899h.272v12.815zm11.681-4.816h1.45v2.047h-1.45v2.769h-2.54v-2.769h-5.247l-.114-1.6 5.335-8.428h2.566v7.98zm-5.37 0h2.83v-4.518l-.167.29-2.663 4.228zm8.156-5.52c0-.785.255-1.421.765-1.907.51-.492 1.178-.739 2.004-.739.838 0 1.511.244 2.021.73.51.48.765 1.134.765 1.96v.633c0 .79-.255 1.426-.765 1.907-.51.48-1.178.72-2.004.72-.832 0-1.506-.24-2.021-.72-.51-.486-.765-1.14-.765-1.96v-.624zm1.688.677c0 .351.099.635.298.852.206.211.472.317.8.317.328 0 .589-.109.782-.326.194-.216.291-.506.291-.87v-.65c0-.352-.097-.636-.291-.853-.193-.216-.459-.325-.799-.325-.323 0-.583.109-.783.325-.199.211-.298.507-.298.888v.642zm4.429 6.521c0-.79.258-1.427.774-1.907.515-.486 1.183-.73 2.004-.73.832 0 1.503.24 2.012.721.516.475.774 1.131.774 1.969v.633c0 .785-.252 1.42-.756 1.907-.504.48-1.175.72-2.013.72-.844 0-1.52-.242-2.03-.729-.51-.486-.765-1.13-.765-1.933v-.65zm1.688.686c0 .322.105.597.316.826.211.228.475.343.791.343.715 0 1.073-.396 1.073-1.187v-.668c0-.351-.1-.633-.299-.844-.2-.216-.463-.325-.791-.325s-.592.109-.791.325c-.2.211-.299.501-.299.87v.66zm-4.518 1.494l-1.239-.668 6.249-10.002 1.239.668-6.249 10.002zM55.682 285.025l3.253 8.121 3.255-8.121h1.702v9.953h-1.313v-3.876l.123-4.183-3.267 8.059H58.43l-3.261-8.039.13 4.163v3.876h-1.313v-9.953h1.696zm13.398 10.09c-1.002 0-1.818-.328-2.447-.984-.63-.661-.944-1.543-.944-2.646v-.232c0-.734.14-1.388.417-1.962a3.287 3.287 0 0 1 1.176-1.354 2.959 2.959 0 0 1 1.64-.492c.962 0 1.71.317 2.243.95.533.634.8 1.541.8 2.721v.526h-5.01c.017.73.23 1.32.635 1.771.41.446.93.67 1.558.67.447 0 .825-.091 1.135-.274.31-.182.581-.424.814-.724l.772.601c-.62.953-1.55 1.429-2.789 1.429zm-.157-6.631c-.51 0-.939.187-1.285.561-.347.369-.56.888-.643 1.558H70.7v-.095c-.036-.643-.21-1.14-.52-1.491-.31-.355-.729-.533-1.257-.533zm6.227-2.693v1.791h1.381v.977h-1.38v4.587c0 .296.06.52.184.67.123.146.333.219.629.219.146 0 .346-.027.601-.082v1.025a3.673 3.673 0 0 1-.97.137c-.565 0-.992-.171-1.279-.513-.287-.342-.43-.827-.43-1.456v-4.587h-1.347v-.977h1.347v-1.791h1.264zm7.431 9.187c-.073-.146-.132-.405-.178-.779-.588.611-1.29.916-2.105.916-.73 0-1.329-.205-1.798-.615a2.017 2.017 0 0 1-.697-1.573c0-.77.291-1.367.875-1.791.588-.428 1.413-.642 2.474-.642h1.23v-.581c0-.442-.131-.793-.396-1.053-.264-.264-.654-.396-1.169-.396-.45 0-.829.114-1.134.341-.306.228-.458.504-.458.828h-1.272c0-.37.13-.725.39-1.067a2.7 2.7 0 0 1 1.066-.82 3.604 3.604 0 0 1 1.484-.301c.852 0 1.52.214 2.002.643.484.423.734 1.009.752 1.756v3.405c0 .679.087 1.219.26 1.62v.109h-1.326zm-2.099-.964a2.22 2.22 0 0 0 1.128-.307c.356-.205.613-.472.773-.8v-1.518h-.991c-1.55 0-2.325.454-2.325 1.361 0 .396.133.706.397.929.264.224.604.335 1.018.335zm6.522.964h-1.265v-10.5h1.265v10.5zm6.337-1.962c0-.341-.13-.606-.39-.793-.255-.191-.704-.355-1.346-.492-.639-.137-1.147-.301-1.525-.492-.374-.191-.652-.419-.834-.684a1.648 1.648 0 0 1-.266-.943c0-.606.255-1.119.765-1.538.515-.419 1.171-.629 1.969-.629.838 0 1.517.217 2.037.649.524.433.786.987.786 1.662h-1.271c0-.347-.148-.645-.445-.896-.291-.251-.66-.376-1.107-.376-.46 0-.82.1-1.08.301-.26.2-.39.462-.39.786 0 .305.12.536.362.69.242.155.677.304 1.306.445.634.141 1.146.31 1.538.506.392.196.681.433.868.711.192.273.288.608.288 1.004 0 .661-.265 1.192-.793 1.593-.53.397-1.215.595-2.058.595-.593 0-1.117-.105-1.572-.314a2.6 2.6 0 0 1-1.074-.875 2.15 2.15 0 0 1-.382-1.224h1.264c.023.424.192.761.506 1.012.32.246.738.369 1.258.369.478 0 .861-.096 1.148-.287.292-.196.438-.456.438-.78zm15.066-1.381h1.381v1.033h-1.381v2.31h-1.271v-2.31h-4.532v-.745l4.457-6.898h1.346v6.61zm-4.368 0h3.097v-4.88l-.151.273-2.946 4.607zm13.132-.902c0 1.481-.253 2.582-.759 3.302-.506.72-1.296 1.08-2.372 1.08-1.062 0-1.848-.351-2.358-1.053-.511-.706-.775-1.759-.793-3.158v-1.688c0-1.463.253-2.55.758-3.261.506-.711 1.299-1.067 2.379-1.067 1.071 0 1.86.345 2.366 1.033.505.683.765 1.741.779 3.172v1.64zm-1.265-1.729c0-1.071-.15-1.851-.451-2.338-.301-.492-.777-.739-1.429-.739-.647 0-1.118.244-1.415.732-.296.488-.449 1.237-.458 2.249v2.023c0 1.076.155 1.871.465 2.386.315.511.789.766 1.422.766.624 0 1.087-.242 1.388-.725.305-.483.465-1.244.478-2.283v-2.071zm8.224 2.631h1.381v1.033h-1.381v2.31h-1.272v-2.31h-4.532v-.745l4.457-6.898h1.347v6.61zm-4.368 0h3.096v-4.88l-.15.273-2.946 4.607zm6.979 5.326l-.718-.492c.429-.597.652-1.213.67-1.846v-1.142h1.238v.991c0 .461-.114.921-.342 1.381-.223.461-.506.83-.848 1.108zm9.181-1.983H129.4v-.909l3.446-3.828c.51-.579.861-1.048 1.052-1.408.196-.365.294-.741.294-1.128 0-.52-.157-.946-.471-1.278-.315-.333-.734-.5-1.258-.5-.629 0-1.119.181-1.47.541-.346.355-.519.852-.519 1.49h-1.265c0-.916.294-1.657.882-2.222.592-.565 1.383-.848 2.372-.848.925 0 1.656.244 2.194.732.538.483.807 1.128.807 1.934 0 .98-.624 2.147-1.873 3.5l-2.666 2.892h4.997v1.032zm3.534-3.425l-.793.828v2.597h-1.265v-10.5h1.265v6.351l.677-.814 2.304-2.433h1.538l-2.878 3.09 3.213 4.306h-1.484l-2.577-3.425zm-83.171 23.835h1.354c.644 0 1.122-.161 1.432-.483.31-.322.466-.75.466-1.283 0-.516-.155-.917-.466-1.205-.304-.287-.726-.43-1.265-.43-.487 0-.894.135-1.222.404a1.266 1.266 0 0 0-.492 1.037h-2.54c0-.668.178-1.265.536-1.793.363-.533.867-.949 1.512-1.248a5.072 5.072 0 0 1 2.144-.448c1.354 0 2.414.325 3.182.976.767.644 1.151 1.535 1.151 2.671a2.7 2.7 0 0 1-.536 1.618c-.357.492-.826.87-1.406 1.133.72.258 1.257.645 1.608 1.161.358.515.536 1.125.536 1.828 0 1.136-.416 2.048-1.248 2.733-.826.686-1.922 1.028-3.287 1.028-1.277 0-2.323-.337-3.138-1.01-.808-.674-1.212-1.565-1.212-2.672h2.54c0 .48.178.873.536 1.178.363.304.808.457 1.336.457.603 0 1.075-.159 1.415-.475.345-.322.518-.747.518-1.274 0-1.278-.703-1.916-2.11-1.916h-1.344v-1.987zm13.694 2.408c-.663.651-1.436.976-2.32.976-1.132 0-2.037-.387-2.717-1.16-.68-.779-1.02-1.828-1.02-3.147 0-.838.183-1.605.546-2.302a4.019 4.019 0 0 1 1.538-1.635c.656-.393 1.394-.589 2.215-.589.843 0 1.593.211 2.25.633.656.422 1.166 1.028 1.529 1.819.363.791.548 1.696.554 2.716v.94c0 2.133-.53 3.809-1.591 5.028-1.06 1.218-2.564 1.869-4.509 1.951l-.624.009v-2.118l.563-.009c2.209-.1 3.404-1.137 3.585-3.112zm-1.697-.966c.41 0 .762-.106 1.055-.317a2.11 2.11 0 0 0 .677-.764v-1.046c0-.862-.164-1.53-.492-2.004-.329-.475-.768-.712-1.319-.712-.51 0-.929.234-1.257.703-.328.463-.492 1.046-.492 1.749 0 .697.158 1.271.475 1.723.322.445.773.668 1.353.668zm6.056-4.254c0-.785.255-1.421.765-1.908.51-.492 1.177-.738 2.003-.738.838 0 1.512.243 2.022.73.51.48.765 1.133.765 1.96v.632c0 .791-.255 1.427-.765 1.908-.51.48-1.178.72-2.004.72-.832 0-1.506-.24-2.021-.72-.51-.487-.765-1.14-.765-1.96v-.624zm1.687.676c0 .352.1.636.3.853.204.211.47.316.799.316.328 0 .589-.108.782-.325.194-.217.29-.507.29-.87v-.65c0-.352-.096-.636-.29-.853-.193-.217-.46-.325-.8-.325-.322 0-.583.108-.782.325-.199.211-.299.507-.299.888v.641zm4.43 6.522c0-.791.258-1.427.773-1.907.516-.487 1.184-.73 2.004-.73.832 0 1.503.24 2.013.721.516.475.774 1.131.774 1.969v.632c0 .786-.252 1.421-.756 1.908-.504.48-1.175.72-2.013.72-.844 0-1.52-.243-2.03-.729-.51-.486-.765-1.131-.765-1.934v-.65zm1.688.685c0 .323.105.598.316.827.21.228.475.342.791.342.715 0 1.072-.395 1.072-1.186v-.668c0-.352-.1-.633-.299-.844-.199-.217-.462-.325-.79-.325-.329 0-.592.108-.792.325-.199.211-.298.501-.298.87v.659zm-4.518 1.495l-1.24-.668 6.25-10.002 1.239.668-6.249 10.002zm367.413-27.424h-4.177v4.396h-1.312v-9.953h6.166v1.08h-4.854v3.404h4.177v1.073zm4.97 4.532c-1.003 0-1.818-.328-2.447-.984-.629-.661-.944-1.543-.944-2.645v-.233c0-.734.139-1.388.417-1.962a3.29 3.29 0 0 1 1.176-1.353 2.96 2.96 0 0 1 1.641-.492c.961 0 1.709.316 2.242.95.533.633.8 1.54.8 2.72v.527h-5.011c.018.729.23 1.319.636 1.77.41.447.929.67 1.558.67.447 0 .825-.091 1.135-.273.31-.182.581-.424.814-.725l.772.602c-.62.952-1.549 1.428-2.789 1.428zm-.157-6.63c-.511 0-.939.186-1.285.56-.347.369-.561.889-.643 1.559h3.705v-.096c-.036-.643-.21-1.139-.519-1.49-.31-.356-.73-.533-1.258-.533zm8.087.232a3.785 3.785 0 0 0-.622-.048c-.83 0-1.393.353-1.689 1.06v5.25h-1.265v-7.397h1.231l.02.855c.415-.661 1.003-.991 1.764-.991.246 0 .433.031.561.095v1.176zm3.226-2.926v1.791h1.381v.978h-1.381v4.587c0 .296.062.519.185.67.123.146.332.218.629.218.145 0 .346-.027.601-.082v1.026a3.664 3.664 0 0 1-.97.136c-.566 0-.992-.17-1.279-.512-.287-.342-.43-.827-.43-1.456v-4.587h-1.347v-.978h1.347v-1.791h1.264zm4.238 9.188h-1.264v-7.397h1.264v7.397zm-1.367-9.359c0-.205.062-.378.185-.519.127-.141.314-.212.56-.212.246 0 .433.071.561.212a.743.743 0 0 1 .191.519.722.722 0 0 1-.191.513c-.128.137-.315.205-.561.205-.246 0-.433-.068-.56-.205a.74.74 0 0 1-.185-.513zm4.772 9.359h-1.265v-10.5h1.265v10.5zm3.404 0h-1.265v-7.397h1.265v7.397zm-1.367-9.359c0-.205.061-.378.184-.519.128-.141.315-.212.561-.212.246 0 .433.071.561.212a.748.748 0 0 1 .191.519.726.726 0 0 1-.191.513c-.128.137-.315.205-.561.205-.246 0-.433-.068-.561-.205a.739.739 0 0 1-.184-.513zm4.587 8.327h4.327v1.032h-5.872v-.93l4.081-5.421h-4.02v-1.046h5.606v.896l-4.122 5.469zm8.716 1.168c-1.003 0-1.819-.328-2.448-.984-.629-.661-.943-1.543-.943-2.645v-.233c0-.734.139-1.388.417-1.962.283-.578.674-1.03 1.176-1.353a2.957 2.957 0 0 1 1.64-.492c.962 0 1.709.316 2.243.95.533.633.799 1.54.799 2.72v.527h-5.01c.018.729.23 1.319.635 1.77.411.447.93.67 1.559.67.447 0 .825-.091 1.135-.273.31-.182.581-.424.813-.725l.773.602c-.62.952-1.55 1.428-2.789 1.428zm-.158-6.63c-.51 0-.938.186-1.285.56-.346.369-.56.889-.642 1.559h3.705v-.096c-.037-.643-.21-1.139-.52-1.49-.31-.356-.729-.533-1.258-.533zm8.087.232a3.768 3.768 0 0 0-.622-.048c-.829 0-1.392.353-1.688 1.06v5.25h-1.265v-7.397h1.231l.02.855c.415-.661 1.003-.991 1.764-.991.246 0 .433.031.56.095v1.176zm5.476 4.3c0-.342-.13-.606-.39-.793-.255-.192-.704-.356-1.346-.492-.638-.137-1.147-.301-1.525-.492-.374-.192-.652-.42-.834-.684a1.648 1.648 0 0 1-.266-.943c0-.607.255-1.119.765-1.539.515-.419 1.171-.628 1.969-.628.838 0 1.518.216 2.037.649.524.433.786.987.786 1.661h-1.271c0-.346-.148-.645-.445-.895-.291-.251-.66-.376-1.107-.376-.46 0-.82.1-1.08.3a.948.948 0 0 0-.39.787c0 .305.121.535.363.69.241.155.676.303 1.305.444.634.142 1.146.31 1.538.506.392.196.682.433.868.711.192.274.288.609.288 1.005 0 .661-.265 1.192-.793 1.593-.529.396-1.215.594-2.058.594-.593 0-1.117-.104-1.572-.314a2.595 2.595 0 0 1-1.074-.875 2.146 2.146 0 0 1-.382-1.224h1.264c.023.424.192.761.506 1.012.319.246.738.369 1.258.369.478 0 .861-.095 1.148-.287.292-.196.438-.456.438-.779zm15.066-1.381h1.381v1.032h-1.381v2.311h-1.271v-2.311h-4.532v-.745l4.457-6.897h1.346v6.61zm-4.368 0h3.097v-4.881l-.151.274-2.946 4.607zm8.73-2.249h.95c.597-.009 1.066-.166 1.408-.472.342-.305.513-.717.513-1.237 0-1.167-.581-1.75-1.743-1.75-.547 0-.985.157-1.313.472-.324.31-.485.722-.485 1.237h-1.265c0-.788.287-1.442.861-1.962.579-.524 1.313-.786 2.202-.786.938 0 1.674.248 2.208.745.533.497.799 1.187.799 2.071 0 .433-.141.853-.423 1.258a2.512 2.512 0 0 1-1.142.909c.547.174.968.461 1.265.862.3.401.451.891.451 1.469 0 .894-.292 1.602-.875 2.126-.584.524-1.342.786-2.277.786-.934 0-1.695-.252-2.283-.758-.583-.506-.875-1.174-.875-2.003h1.272c0 .524.171.943.512 1.258.342.314.8.471 1.374.471.611 0 1.078-.159 1.402-.478.323-.319.485-.777.485-1.374 0-.579-.178-1.023-.533-1.333-.356-.31-.868-.47-1.538-.479h-.95v-1.032zm10.985-4.368v1.073h-.232c-.985.018-1.769.31-2.352.875s-.921 1.36-1.012 2.386c.524-.602 1.24-.903 2.147-.903.866 0 1.556.306 2.071.916.52.611.779 1.4.779 2.366 0 1.025-.28 1.845-.84 2.461-.556.615-1.304.922-2.243.922-.952 0-1.725-.364-2.317-1.093-.593-.734-.889-1.677-.889-2.83v-.486c0-1.832.39-3.231 1.169-4.197.784-.971 1.948-1.467 3.493-1.49h.226zm-1.661 4.484c-.433 0-.832.13-1.196.39-.365.26-.618.585-.759.977v.465c0 .821.184 1.481.553 1.983.37.501.83.752 1.381.752.57 0 1.017-.21 1.34-.629.328-.42.492-.969.492-1.648 0-.683-.166-1.235-.499-1.654-.328-.424-.765-.636-1.312-.636zm4.648 7.458l-.718-.492c.429-.597.652-1.212.67-1.846v-1.141h1.238v.991c0 .46-.114.92-.342 1.381-.223.46-.506.829-.848 1.107zm3.241-6.972l.505-4.963h5.1v1.169h-4.026l-.301 2.713c.487-.287 1.041-.43 1.661-.43.907 0 1.627.301 2.16.902.533.597.8 1.406.8 2.427 0 1.025-.278 1.834-.834 2.427-.551.588-1.324.881-2.317.881-.88 0-1.598-.243-2.154-.731-.556-.488-.872-1.162-.95-2.023h1.196c.078.569.281 1 .609 1.292.328.287.761.43 1.299.43.587 0 1.048-.2 1.38-.601.338-.401.506-.955.506-1.661 0-.666-.182-1.199-.547-1.6-.36-.406-.84-.608-1.442-.608-.551 0-.984.12-1.299.362l-.335.273-1.011-.259zm9.474 1.565l-.793.827v2.598h-1.265v-10.5h1.265v6.35l.677-.813 2.304-2.434h1.538l-2.878 3.09 3.213 4.307h-1.484l-2.577-3.425zm-20.435 26.542h1.45v2.048h-1.45v2.768h-2.54v-2.768h-5.247l-.114-1.6 5.335-8.429h2.566v7.981zm-5.37 0h2.83v-4.518l-.167.29-2.663 4.228zm16.963 4.816h-8.772v-1.74l4.14-4.412c.568-.621.987-1.163 1.257-1.626.275-.463.413-.903.413-1.319 0-.568-.144-1.013-.431-1.335-.287-.329-.697-.493-1.23-.493-.574 0-1.029.2-1.363.598-.328.393-.492.911-.492 1.556h-2.549c0-.78.185-1.492.554-2.136a3.934 3.934 0 0 1 1.582-1.512c.68-.369 1.45-.554 2.312-.554 1.318 0 2.341.317 3.067.95.733.633 1.099 1.526 1.099 2.68 0 .633-.164 1.278-.492 1.934-.329.656-.891 1.421-1.688 2.294l-2.909 3.067h5.502v2.048zm1.529-10.336c0-.785.255-1.421.765-1.907.51-.492 1.178-.738 2.004-.738.838 0 1.511.243 2.021.729.51.481.765 1.134.765 1.96v.633c0 .791-.255 1.427-.765 1.907-.51.481-1.178.721-2.004.721-.832 0-1.506-.24-2.021-.721-.51-.486-.765-1.139-.765-1.96v-.624zm1.688.677c0 .352.099.636.298.852.206.211.472.317.8.317.328 0 .589-.109.782-.325.194-.217.291-.507.291-.87v-.651c0-.351-.097-.636-.291-.852-.193-.217-.459-.326-.799-.326-.323 0-.583.109-.783.326-.199.211-.298.506-.298.887v.642zm4.429 6.521c0-.791.258-1.426.774-1.907.515-.486 1.183-.729 2.004-.729.832 0 1.503.24 2.012.72.516.475.774 1.131.774 1.969v.633c0 .785-.252 1.421-.756 1.907-.504.481-1.175.721-2.013.721-.844 0-1.52-.243-2.03-.73-.51-.486-.765-1.13-.765-1.933v-.651zm1.688.686c0 .322.105.598.316.826.211.229.475.343.791.343.715 0 1.073-.396 1.073-1.187v-.668c0-.351-.1-.632-.299-.843-.2-.217-.463-.326-.791-.326s-.592.109-.791.326c-.2.211-.299.501-.299.87v.659zm-4.518 1.494l-1.239-.668 6.249-10.002 1.239.668-6.249 10.002z" fill="#009487"/><path d="M547.75 19.666H307.763m240.413 285.609H410.919v-93.052M51.444 302.978h137v-78M0 77.06h137.968V21.37h96.193" stroke="#009487" stroke-width=".5" stroke-miterlimit="10"/><path d="M307.763 23.075c-1.847 0-3.268-1.42-3.268-3.267s1.421-3.268 3.268-3.268c1.847 0 3.268 1.421 3.268 3.268.142 1.704-1.421 3.267-3.268 3.267zm103.156 185.88c-1.847 0-3.268 1.421-3.268 3.268 0 1.847 1.421 3.267 3.268 3.267 1.848 0 3.269-1.42 3.269-3.267s-1.421-3.268-3.269-3.268zm-222.936 12.583c1.847 0 3.268 1.42 3.268 3.267s-1.421 3.268-3.268 3.268c-1.847 0-3.268-1.421-3.268-3.268 0-1.847 1.421-3.267 3.268-3.267zM234.162 17.96c1.847 0 3.268 1.422 3.268 3.268 0 1.847-1.421 3.268-3.268 3.268-1.848 0-3.268-1.42-3.268-3.267s1.42-3.268 3.268-3.268zM8.878 66.198c0 .976-.164 1.828-.492 2.557-.328.725-.793 1.278-1.395 1.661-.601.383-1.303.574-2.105.574-.784 0-1.48-.191-2.085-.574-.606-.387-1.078-.936-1.415-1.647-.333-.716-.504-1.543-.513-2.482v-.718c0-.957.166-1.802.5-2.536.332-.733.801-1.294 1.407-1.681.611-.392 1.308-.588 2.092-.588.798 0 1.5.193 2.106.58.61.383 1.08.942 1.408 1.675.328.73.492 1.58.492 2.55v.63zm-1.306-.642c0-1.18-.237-2.085-.71-2.714-.475-.634-1.138-.95-1.99-.95-.83 0-1.483.316-1.962.95-.474.629-.718 1.504-.731 2.625v.731c0 1.144.239 2.044.717 2.7.484.652 1.147.978 1.99.978.847 0 1.504-.308 1.968-.923.465-.62.705-1.506.718-2.66v-.737zm4.792-3.89v1.791h1.381v.978h-1.38v4.587c0 .296.06.519.184.67.123.145.333.218.629.218.146 0 .346-.027.601-.082v1.025a3.664 3.664 0 0 1-.97.137c-.566 0-.992-.17-1.279-.512-.287-.342-.43-.828-.43-1.456v-4.587H9.753v-.978H11.1v-1.791h1.264zm4.13 2.687c.56-.689 1.289-1.033 2.187-1.033 1.563 0 2.351.882 2.365 2.646v4.888H19.78v-4.895c-.004-.533-.127-.927-.369-1.183-.237-.255-.608-.382-1.114-.382-.41 0-.77.109-1.08.328-.31.218-.552.506-.725.861v5.27H15.23v-10.5h1.264v4zm9.515 6.637c-1.003 0-1.819-.328-2.448-.984-.628-.66-.943-1.543-.943-2.646v-.232c0-.734.14-1.388.417-1.962a3.283 3.283 0 0 1 1.176-1.353 2.958 2.958 0 0 1 1.64-.493c.962 0 1.71.317 2.243.95.533.634.8 1.54.8 2.721v.527h-5.011c.018.729.23 1.319.636 1.77.41.447.93.67 1.558.67.447 0 .825-.091 1.135-.273.31-.183.581-.424.813-.725l.773.602c-.62.952-1.55 1.428-2.79 1.428zm-.157-6.63c-.51 0-.94.186-1.286.56-.346.37-.56.889-.642 1.558h3.705v-.095c-.037-.643-.21-1.14-.52-1.49-.31-.356-.729-.534-1.257-.534zm8.086.232a3.79 3.79 0 0 0-.622-.048c-.829 0-1.392.353-1.688 1.06v5.25h-1.265v-7.397h1.23l.021.854c.415-.66 1.003-.99 1.764-.99.246 0 .433.031.56.095v1.176zm13.042 1.271l.505-4.963h5.1v1.17h-4.026l-.301 2.713c.487-.287 1.041-.43 1.66-.43.908 0 1.628.3 2.161.902.533.597.8 1.406.8 2.427 0 1.025-.278 1.834-.834 2.426-.552.588-1.324.882-2.318.882-.879 0-1.597-.244-2.153-.731-.556-.488-.872-1.162-.95-2.024h1.196c.078.57.28 1 .609 1.292.328.287.76.431 1.298.431.588 0 1.049-.2 1.381-.602.338-.4.506-.954.506-1.66 0-.666-.182-1.2-.547-1.6-.36-.406-.84-.609-1.442-.609-.551 0-.984.121-1.299.363l-.335.273-1.011-.26zm12.126.615a3.08 3.08 0 0 1-.95.76 2.548 2.548 0 0 1-1.203.286c-.574 0-1.075-.14-1.504-.423-.424-.283-.752-.68-.984-1.19a4.09 4.09 0 0 1-.349-1.702c0-.665.126-1.265.376-1.798.255-.533.615-.94 1.08-1.224.465-.282 1.007-.423 1.627-.423.985 0 1.76.369 2.324 1.107.57.734.855 1.736.855 3.008v.369c0 1.937-.383 3.352-1.148 4.245-.766.889-1.921 1.345-3.466 1.367h-.246v-1.066h.266c1.044-.018 1.846-.29 2.406-.813.561-.53.866-1.363.916-2.502zm-1.948 0c.424 0 .814-.13 1.17-.39.36-.259.621-.58.785-.963v-.506c0-.83-.18-1.504-.54-2.023-.36-.52-.816-.78-1.367-.78-.556 0-1.003.215-1.34.643-.337.424-.506.984-.506 1.682 0 .679.162 1.24.486 1.681.328.438.765.656 1.312.656zm5.052 6.358l-.718-.492c.429-.597.652-1.212.67-1.846v-1.142H63.4v.992c0 .46-.114.92-.341 1.38-.224.46-.506.83-.848 1.108zm9.085-11.225l-4.122 9.242h-1.326l4.108-8.913h-5.387V60.9h6.727v.711zm3.63 5.818l-.793.827v2.597h-1.265v-10.5h1.265v6.351l.677-.813 2.303-2.434h1.538l-2.878 3.09 3.213 4.306h-1.483l-2.577-3.424zM1.314 92.498l.739-6.504h7.172v2.118h-5.09l-.316 2.75a4.027 4.027 0 0 1 1.925-.483c1.219 0 2.174.378 2.865 1.134.692.756 1.037 1.814 1.037 3.173 0 .826-.175 1.567-.527 2.224a3.698 3.698 0 0 1-1.494 1.52c-.65.358-1.418.536-2.303.536a5.008 5.008 0 0 1-2.153-.465 3.883 3.883 0 0 1-1.573-1.328 3.626 3.626 0 0 1-.607-1.942h2.514c.053.533.237.95.554 1.248.322.293.74.44 1.256.44.575 0 1.017-.206 1.328-.616.31-.416.465-1.002.465-1.758 0-.726-.178-1.283-.536-1.67-.357-.386-.864-.58-1.52-.58-.604 0-1.093.159-1.468.475l-.246.229-2.022-.501zm9.923-4.043c0-.786.255-1.421.765-1.908.51-.492 1.178-.738 2.004-.738.838 0 1.512.243 2.021.73.51.48.765 1.133.765 1.96v.632c0 .791-.255 1.427-.765 1.908-.51.48-1.177.72-2.004.72-.832 0-1.505-.24-2.021-.72-.51-.487-.765-1.14-.765-1.96v-.624zm1.688.676c0 .352.1.636.299.853.205.21.471.316.8.316.328 0 .588-.108.782-.325.193-.217.29-.507.29-.87v-.65c0-.352-.097-.636-.29-.853-.194-.217-.46-.325-.8-.325-.322 0-.583.108-.782.325-.2.211-.3.507-.3.888v.641zm4.43 6.522c0-.791.257-1.427.773-1.907.516-.487 1.183-.73 2.004-.73.832 0 1.503.24 2.012.72.516.475.774 1.132.774 1.97v.632c0 .786-.252 1.421-.756 1.908-.504.48-1.175.72-2.013.72-.843 0-1.52-.243-2.03-.73-.51-.486-.764-1.13-.764-1.933v-.65zm1.687.685c0 .323.105.598.316.827.211.228.475.342.791.342.715 0 1.073-.395 1.073-1.186v-.668c0-.352-.1-.633-.3-.844-.198-.217-.462-.325-.79-.325s-.592.108-.791.325c-.2.211-.299.501-.299.87v.66zm-4.518 1.495l-1.239-.668 6.25-10.002 1.238.668-6.249 10.001z" fill="#009487"/></svg>