<?xml version="1.0" encoding="utf-8"?><svg xmlns="http://www.w3.org/2000/svg" xmlns:xlink="http://www.w3.org/1999/xlink"><symbol viewBox="0 0 14.361 18.794" id="arrow" xmlns="http://www.w3.org/2000/svg"><path fill="#E5E5E5" d="M2.938 15.008l4.482-5.36-4.482-5.361h4.758l4.485 5.361-4.485 5.36z"/><path fill="none" stroke="#C9C7C7" stroke-width=".5" d="M2.938 15.008l4.482-5.36-4.482-5.361h4.758l4.485 5.361-4.485 5.36z"/></symbol><symbol viewBox="0 0 30 30" id="cart" xmlns="http://www.w3.org/2000/svg"><path fill="none" stroke="#343333" d="M2.5 6.353h2.128c1.171 0 3.17 2.644 4.442 5.875l.197.503c1.273 3.232 5.072 5.876 8.442 5.876s6.769-1.812 7.552-4.023c.781-2.212-1.42-4.023-4.893-4.023h-7.674"/><circle fill="none" stroke="#343333" cx="10.807" cy="22.809" r="2.104"/><circle fill="none" stroke="#343333" cx="24.299" cy="22.809" r="2.104"/><path fill="none" stroke="#343333" d="M13.783 13.306h8.363m-7.509 2.367h6.871"/></symbol><symbol viewBox="0 0 30 30" id="check" xmlns="http://www.w3.org/2000/svg"><defs><path id="ca" d="M5.354 5.695h20.248v20.598H5.354z"/></defs><clipPath id="cb"><use xlink:href="#ca" overflow="visible"/></clipPath><path clip-path="url(#cb)" d="M13.073 18.166l-.001-.001z"/><defs><path id="cc" d="M5.354 5.695h20.248v20.598H5.354z"/></defs><clipPath id="cd"><use xlink:href="#cc" overflow="visible"/></clipPath><path clip-path="url(#cd)" fill="#EE3E0E" d="M16.868 15.551l-2.146 2.042 4.044 3.846 6.836-6.5-1.563-1.511-5.228 4.131z"/><defs><path id="ce" d="M5.354 5.695h20.248v20.598H5.354z"/></defs><clipPath id="cf"><use xlink:href="#ce" overflow="visible"/></clipPath><path clip-path="url(#cf)" fill="#EE3E0E" d="M21.447 25.006H6.641V8.277H8.4v.668c0 .354.29.645.645.645h.16a.648.648 0 00.645-.645v-.668h1.881v.668c0 .354.29.645.644.645h.161a.647.647 0 00.644-.645v-.668h1.881v.668c0 .354.29.645.644.645h.161a.647.647 0 00.644-.645v-.668h1.883v.668c0 .354.289.645.644.645h.161a.647.647 0 00.644-.645v-.668h.384l1.227 1.203v3.605l1.287-1.068V8.939L20.752 6.99h-.91v-.652a.647.647 0 00-.644-.645h-.161a.648.648 0 00-.645.645v.652h-1.881v-.652a.647.647 0 00-.645-.645h-.161a.647.647 0 00-.644.645v.652H13.18v-.652a.646.646 0 00-.644-.645h-.161a.647.647 0 00-.644.645v.652h-1.88v-.652a.647.647 0 00-.645-.645h-.16a.648.648 0 00-.645.645v.652H5.355v19.303h17.379v-5.959l-1.286 1.287-.001 3.385z"/><defs><path id="cg" d="M5.354 5.695h20.248v20.598H5.354z"/></defs><clipPath id="ch"><use xlink:href="#cg" overflow="visible"/></clipPath><path clip-path="url(#ch)" fill="#EE3E0E" d="M10.787 12.036a1.028 1.028 0 100 2.059 1.03 1.03 0 000-2.059"/><g><defs><path id="ci" d="M5.354 5.695h20.248v20.598H5.354z"/></defs><clipPath id="cj"><use xlink:href="#ci" overflow="visible"/></clipPath><path clip-path="url(#cj)" fill="#EE3E0E" d="M10.787 15.457c-.57 0-1.029.462-1.029 1.029a1.029 1.029 0 102.058 0 1.03 1.03 0 00-1.029-1.029"/></g><g><defs><path id="ck" d="M5.354 5.695h20.248v20.598H5.354z"/></defs><clipPath id="cl"><use xlink:href="#ck" overflow="visible"/></clipPath><path clip-path="url(#cl)" fill="#EE3E0E" d="M10.787 18.878a1.029 1.029 0 100 2.058 1.029 1.029 0 000-2.058"/></g></symbol><symbol viewBox="0 0 512 512" id="download" xmlns="http://www.w3.org/2000/svg"><path d="M382.56 233.376A15.96 15.96 0 00368 224h-64V16c0-8.832-7.168-16-16-16h-64c-8.832 0-16 7.168-16 16v208h-64a16.013 16.013 0 00-14.56 9.376c-2.624 5.728-1.6 12.416 2.528 17.152l112 128A15.946 15.946 0 00256 384c4.608 0 8.992-2.016 12.032-5.472l112-128c4.16-4.704 5.12-11.424 2.528-17.152z"/><path d="M432 352v96H80v-96H16v128c0 17.696 14.336 32 32 32h416c17.696 0 32-14.304 32-32V352h-64z"/></symbol><symbol viewBox="0 0 30 30" id="hands" xmlns="http://www.w3.org/2000/svg"><path fill="#EE3E0E" d="M14.392 22.04c-.116.087-.237.168-.349.261-.258.219-.522.43-.763.667-.777.763-1.721.095-1.824-.647-.045-.317.038-.653.061-.969-.426.258-.945.412-1.449.059-.494-.35-.58-.865-.428-1.439-.166.092-.311.186-.466.256-.727.322-1.484-.16-1.538-.958-.06-.884.348-1.301 1.142-1.686.506-.245 1.301.277 1.419.898.048.25.008.517.008.776.164-.151.344-.325.531-.489.278-.244.558-.49.845-.724.266-.217.583-.304.922-.294.793.021 1.259.73.972 1.475-.044.112-.102.219-.118.359.111-.1.224-.197.334-.297.439-.4.962-.455 1.396-.148.476.336.679.953.455 1.461-.088.199-.236.373-.356.56-.054.082-.106.164-.16.243l-.634.636m.068-2.694c-.142.075-.295.135-.421.231-.182.141-.347.305-.514.464-.471.449-.955.886-1.404 1.357-.374.393-.357.916-.011 1.266.242.242.521.275.769.059a53.08 53.08 0 001.629-1.479c.224-.216.424-.464.59-.726.327-.52-.204-1.154-.638-1.172m-4.322.968c.124.252.206.506.357.709.201.27.479.271.726.045.339-.313.682-.623 1.003-.954.206-.21.403-.438.561-.688.253-.4.166-.892-.168-1.162-.208-.17-.43-.199-.604-.039-.522.479-1.043.957-1.538 1.465-.151.152-.216.391-.337.624m-2.059-1.16c0-.01-.004.049.001.104.043.495.495.763.941.556.345-.16.586-.422.726-.771.131-.331.029-.661-.259-.875-.364-.27-.483-.27-.853.005l-.18.13c-.263.195-.4.452-.376.851"/><path fill="#EE3E0E" d="M14.393 22.04l.632-.636c.473-.428.981-.353 1.325-.084.479.375.641.938.402 1.477-.294.667-.792 1.17-1.359 1.605-.27.205-.594.181-.899.074-.694-.24-.996-1.146-.588-1.756.155-.231.324-.452.487-.68m.472 2.085c.11-.044.252-.059.326-.137.36-.381.713-.771 1.045-1.174a.902.902 0 00.168-.455c.037-.342-.159-.575-.432-.745a.42.42 0 00-.564.073c-.395.429-.798.854-1.143 1.321-.305.419.068 1.066.6 1.117"/><path fill="#EE3E0E" d="M22.993 19.261c.177.423-.013.968-.425 1.277-.313.231-.68.325-1.049.297-.281-.021-.435.089-.564.298-.148.238-.285.483-.449.709-.326.453-.666.561-1.208.411-.418-.116-.446-.101-.579.313-.303.942-.883 1.271-1.859 1.052.078-.396.207-.521.59-.511.268.006.455-.107.607-.313a1.184 1.184 0 00-.033-1.467c-.486-.604-.979-1.2-1.474-1.797-.169-.205-.211-.436-.175-.7.232-.028.38.092.512.246.545.649 1.09 1.302 1.643 1.946.16.188.324.377.519.526.444.345.949.24 1.252-.233.291-.452.265-.935-.116-1.418-.373-.474-.77-.926-1.158-1.385-.183-.214-.383-.412-.553-.635a1.09 1.09 0 01-.174-.418c-.016-.076.047-.229.098-.24a.392.392 0 01.289.076c.102.079.162.205.25.305.604.707 1.205 1.42 1.826 2.115.165.188.381.34.596.473.352.219.648.166.931-.139.155-.17.289-.359.44-.533.075-.088.168-.164.263-.255"/><path fill="none" stroke="#EE3E0E" stroke-width=".25" stroke-miterlimit="10" d="M22.993 19.261c.177.423-.013.968-.425 1.277-.313.231-.68.325-1.049.297-.281-.021-.435.089-.564.298-.148.238-.285.483-.449.709-.326.453-.666.561-1.208.411-.418-.116-.446-.101-.579.313-.303.942-.883 1.271-1.859 1.052.078-.396.207-.521.59-.511.268.006.455-.107.607-.313a1.184 1.184 0 00-.033-1.467c-.486-.604-.979-1.2-1.474-1.797-.169-.205-.211-.436-.175-.7.232-.028.38.092.512.246.545.649 1.09 1.302 1.643 1.946.16.188.324.377.519.526.444.345.949.24 1.252-.233.291-.452.265-.935-.116-1.418-.373-.474-.77-.926-1.158-1.385-.183-.214-.383-.412-.553-.635a1.09 1.09 0 01-.174-.418c-.016-.076.047-.229.098-.24a.392.392 0 01.289.076c.102.079.162.205.25.305.604.707 1.205 1.42 1.826 2.115.165.188.381.34.596.473.352.219.648.166.931-.139.155-.17.289-.359.44-.533.075-.088.168-.164.263-.255z"/><path fill="#EE3E0E" d="M5.9 15.995c-.369.606-.824.462-1.301.212a5.371 5.371 0 00-.675-.303c-.566-.196-.913-.506-.609-1.387.341-.99.715-1.966 1.075-2.947.419-1.144.837-2.287 1.258-3.43.048-.132.098-.266.163-.388.176-.328.47-.472.828-.375.444.121.884.265 1.318.414.252.088.479.229.577.502.002.009.004.02.01.021.468.211.724.738 1.277.832.39.065.739-.021 1.07-.198.442-.237.859-.528 1.314-.735a4.88 4.88 0 011.192-.365c.461-.08.865.11 1.224.434a.53.53 0 01-.565.189c-.67-.154-1.272.024-1.849.346-.389.216-.76.467-1.158.66-.782.381-1.543.347-2.254-.193-.281-.216-.346-.195-.467.142l-1.832 5.139c-.068.193-.131.391-.209.58-.127.314-.049.572.182.811.441.456.876.919 1.311 1.38.202.215.181.285-.067.521-.197.188-.307.054-.418-.088-.372-.473-.739-.947-1.11-1.422-.081-.106-.166-.206-.285-.352m-2.136-.934c.062.066.128.183.226.229.316.158.646.291.969.435.311.139.398.112.568-.188.056-.101.091-.211.127-.32.291-.883.561-1.772.874-2.647.446-1.246.925-2.481 1.386-3.723.135-.363.114-.41-.254-.544-.294-.106-.598-.184-.895-.28-.395-.127-.412-.121-.554.268l-2.347 6.42c-.032.092-.053.187-.1.35"/><path fill="none" stroke="#EE3E0E" stroke-width=".25" stroke-miterlimit="10" d="M5.9 15.995c-.369.606-.824.462-1.301.212a5.371 5.371 0 00-.675-.303c-.566-.196-.913-.506-.609-1.387.341-.99.715-1.966 1.075-2.947.419-1.144.837-2.287 1.258-3.43.048-.132.098-.266.163-.388.176-.328.47-.472.828-.375.444.121.884.265 1.318.414.252.088.479.229.577.502.002.009.004.02.01.021.468.211.724.738 1.277.832.39.065.739-.021 1.07-.198.442-.237.859-.528 1.314-.735a4.88 4.88 0 011.192-.365c.461-.08.865.11 1.224.434a.53.53 0 01-.565.189c-.67-.154-1.272.024-1.849.346-.389.216-.76.467-1.158.66-.782.381-1.543.347-2.254-.193-.281-.216-.346-.195-.467.142l-1.832 5.139c-.068.193-.131.391-.209.58-.127.314-.049.572.182.811.441.456.876.919 1.311 1.38.202.215.181.285-.067.521-.197.188-.307.054-.418-.088-.372-.473-.739-.947-1.11-1.422-.081-.106-.166-.206-.285-.352zm-2.136-.934c.062.066.128.183.226.229.316.158.646.291.969.435.311.139.398.112.568-.188.056-.101.091-.211.127-.32.291-.883.561-1.772.874-2.647.446-1.246.925-2.481 1.386-3.723.135-.363.114-.41-.254-.544-.294-.106-.598-.184-.895-.28-.395-.127-.412-.121-.554.268l-2.347 6.42c-.032.092-.053.187-.1.35z"/><path fill="#EE3E0E" d="M27.713 14.65a2.523 2.523 0 00-.18-.457c-.764-1.543-1.528-3.082-2.29-4.625-.259-.523-.497-1.059-.761-1.58-.229-.457-.682-.67-1.082-.471-.514.256-1.008.557-1.5.854-.189.114-.277.31-.293.544a.495.495 0 01-.151.298c-.293.281-.647.302-.981.113a6.696 6.696 0 01-1.018-.69c-.688-.58-1.417-1.025-2.352-.935-.612-.095-1.129.129-1.626.425-1.77 1.053-3.37 2.336-4.964 3.629-.505.409-.609 1.196-.279 1.76a.962.962 0 00.657.479c.443.094.856-.002 1.24-.215.619-.343 1.227-.707 1.84-1.062.578-.332 1.157-.662 1.735-.996.192-.111.358-.087.506.082.065.073.138.141.202.217.563.668 1.113 1.347 1.688 2.004 1.387 1.591 2.783 3.17 4.178 4.752.222.252.425.248.672-.006.676-.698 1.355-1.393 2.018-2.104.184-.196.342-.344.631-.274.08.021.185-.011.263-.049.495-.236 1.002-.461 1.479-.732.355-.205.48-.552.368-.961m-3.078 1.525c-.478.501-.958.999-1.438 1.497l-.573.594c-.543-.608-1.082-1.199-1.604-1.802-1.32-1.526-2.635-3.058-3.953-4.587-.14-.162-.279-.324-.43-.477-.367-.369-.692-.435-1.164-.209-.326.158-.64.342-.953.522-.861.5-1.718 1.009-2.582 1.507-.14.082-.296.145-.453.188-.262.07-.545.105-.717-.16a.797.797 0 01-.018-.867.824.824 0 01.212-.236c1.437-1.131 2.84-2.309 4.411-3.256.113-.07.227-.137.333-.215.892-.654 2.368-.498 3.101.191.269.254.568.477.873.688.789.553 1.277.588 2.131.17.021.031.045.063.063.1.963 1.966 1.923 3.934 2.891 5.896.098.207-.011.33-.13.456m2.364-1.032c-.412.222-.834.424-1.255.627-.201.099-.327.035-.376-.192-.022-.11-.077-.216-.126-.319-.903-1.892-1.807-3.783-2.713-5.675a4.224 4.224 0 00-.256-.447c-.097-.149-.104-.268.072-.366.379-.213.752-.439 1.135-.646.268-.145.369-.104.506.178.578 1.191 1.148 2.385 1.731 3.574.445.908.905 1.811 1.356 2.715.044.087.07.182.121.313-.057.072-.108.191-.195.238"/><path fill="none" stroke="#EE3E0E" stroke-width=".25" stroke-miterlimit="10" d="M27.713 14.65a2.523 2.523 0 00-.18-.457c-.764-1.543-1.528-3.082-2.29-4.625-.259-.523-.497-1.059-.761-1.58-.229-.457-.682-.67-1.082-.471-.514.256-1.008.557-1.5.854-.189.114-.277.31-.293.544a.495.495 0 01-.151.298c-.293.281-.647.302-.981.113a6.696 6.696 0 01-1.018-.69c-.688-.58-1.417-1.025-2.352-.935-.612-.095-1.129.129-1.626.425-1.77 1.053-3.37 2.336-4.964 3.629-.505.409-.609 1.196-.279 1.76a.962.962 0 00.657.479c.443.094.856-.002 1.24-.215.619-.343 1.227-.707 1.84-1.062.578-.332 1.157-.662 1.735-.996.192-.111.358-.087.506.082.065.073.138.141.202.217.563.668 1.113 1.347 1.688 2.004 1.387 1.591 2.783 3.17 4.178 4.752.222.252.425.248.672-.006.676-.698 1.355-1.393 2.018-2.104.184-.196.342-.344.631-.274.08.021.185-.011.263-.049.495-.236 1.002-.461 1.479-.732.355-.205.48-.552.368-.961zm-3.078 1.525c-.478.501-.958.999-1.438 1.497l-.573.594c-.543-.608-1.082-1.199-1.604-1.802-1.32-1.526-2.635-3.058-3.953-4.587-.14-.162-.279-.324-.43-.477-.367-.369-.692-.435-1.164-.209-.326.158-.64.342-.953.522-.861.5-1.718 1.009-2.582 1.507-.14.082-.296.145-.453.188-.262.07-.545.105-.717-.16a.797.797 0 01-.018-.867.824.824 0 01.212-.236c1.437-1.131 2.84-2.309 4.411-3.256.113-.07.227-.137.333-.215.892-.654 2.368-.498 3.101.191.269.254.568.477.873.688.789.553 1.277.588 2.131.17.021.031.045.063.063.1.963 1.966 1.923 3.934 2.891 5.896.098.207-.011.33-.13.456zm2.364-1.032c-.412.222-.834.424-1.255.627-.201.099-.327.035-.376-.192-.022-.11-.077-.216-.126-.319-.903-1.892-1.807-3.783-2.713-5.675a4.224 4.224 0 00-.256-.447c-.097-.149-.104-.268.072-.366.379-.213.752-.439 1.135-.646.268-.145.369-.104.506.178.578 1.191 1.148 2.385 1.731 3.574.445.908.905 1.811 1.356 2.715.044.087.07.182.121.313-.057.072-.108.191-.195.238z"/><path fill="#FFF" d="M14.46 19.346c.434.021.965.652.638 1.172-.165.262-.366.51-.59.726-.53.507-1.078.996-1.629 1.479-.248.217-.526.185-.769-.059-.347-.35-.363-.873.011-1.266.449-.473.934-.908 1.403-1.357.168-.159.332-.323.515-.464.127-.097.279-.156.421-.231"/><path fill="none" stroke="#EE3E0E" stroke-width=".5" stroke-miterlimit="10" d="M14.46 19.346c.434.021.965.652.638 1.172-.165.262-.366.51-.59.726-.53.507-1.078.996-1.629 1.479-.248.217-.526.185-.769-.059-.347-.35-.363-.873.011-1.266.449-.473.934-.908 1.403-1.357.168-.159.332-.323.515-.464.127-.097.279-.156.421-.231z"/><path fill="#FFF" d="M10.138 20.313c.121-.23.186-.471.336-.625a40.906 40.906 0 011.538-1.463c.175-.16.397-.129.604.039.334.271.42.76.168 1.163a4.283 4.283 0 01-.561.688c-.321.329-.663.642-1.003.952-.246.229-.524.227-.726-.043-.15-.204-.232-.46-.356-.711"/><path fill="none" stroke="#EE3E0E" stroke-width=".5" stroke-miterlimit="10" d="M10.138 20.313c.121-.23.186-.471.336-.625a40.906 40.906 0 011.538-1.463c.175-.16.397-.129.604.039.334.271.42.76.168 1.163a4.283 4.283 0 01-.561.688c-.321.329-.663.642-1.003.952-.246.229-.524.227-.726-.043-.15-.204-.232-.46-.356-.711z"/><path fill="#FFF" d="M8.079 19.154c-.023-.399.113-.656.377-.853l.18-.13c.369-.273.488-.273.853-.005.288.214.39.544.259.875a1.39 1.39 0 01-.726.771c-.446.207-.898-.06-.941-.555-.006-.054-.002-.112-.002-.103"/><path fill="none" stroke="#EE3E0E" stroke-width=".5" stroke-miterlimit="10" d="M8.079 19.154c-.023-.399.113-.656.377-.853l.18-.13c.369-.273.488-.273.853-.005.288.214.39.544.259.875a1.39 1.39 0 01-.726.771c-.446.207-.898-.06-.941-.555-.006-.054-.002-.112-.002-.103z"/><path fill="#FFF" d="M14.865 24.125c-.531-.051-.904-.698-.6-1.115.345-.468.748-.894 1.143-1.322a.42.42 0 01.564-.072c.272.17.469.402.432.744a.902.902 0 01-.168.455c-.333.404-.686.795-1.045 1.174-.074.077-.216.092-.326.136"/><path fill="none" stroke="#EE3E0E" stroke-width=".5" stroke-miterlimit="10" d="M14.865 24.125c-.531-.051-.904-.698-.6-1.115.345-.468.748-.894 1.143-1.322a.42.42 0 01.564-.072c.272.17.469.402.432.744a.902.902 0 01-.168.455c-.333.404-.686.795-1.045 1.174-.074.077-.216.092-.326.136z"/></symbol><symbol viewBox="0 0 30 30" id="hello" xmlns="http://www.w3.org/2000/svg"><path fill="#EE3E0E" d="M27.787 15.39c-.441.08-.887.158-1.327.242-1.073.199-2.149.402-3.222.604-.014.002-.025 0-.059.003l-.238-1.255 4.606-.863.213 1.122c.005.023.017.046.025.07l.002.077zm-6.699-2.722l-.77-1.024c1.826-1.373 3.646-2.739 5.475-4.11l.771 1.024c-1.826 1.369-3.645 2.735-5.476 4.11M18.234 9.27l-1.185-.5c.646-1.522 1.283-3.034 1.929-4.562.395.166.78.33 1.182.498-.64 1.522-1.279 3.035-1.926 4.564M23.9 20.111c-.043-.385-.219-.709-.448-1.01L15.13 8.208c-.362-.473-.71-.961-1.098-1.412-.457-.531-1.044-.74-1.736-.531-.474.142-.789.48-1.037.894-2.739 4.567-5.477 9.135-8.22 13.699-.261.437-.439.892-.479 1.398-.06.781.092 1.512.56 2.155.226.313.452.626.694.926.733.901 1.694 1.278 2.836 1.151.392-.043.771-.191 1.156-.295.221-.061.439-.127.664-.191.135.258.256.51.396.75.099.17.2.346.339.482.713.699 1.581.924 2.536.699 1.79-.42 3.569-.877 5.354-1.32.482-.121.889-.37 1.16-.795.387-.604.374-1.231.07-1.862-.113-.235-.247-.461-.379-.703l.146-.046 4.223-1.225c.301-.088.604-.168.865-.353.531-.367.791-.865.72-1.518m-7.061 5.243c-.217.065-.438.114-.659.168-1.556.388-3.111.772-4.666 1.158a1.583 1.583 0 01-.912-.037c-.278-.095-.504-.252-.629-.531-.07-.154-.158-.305-.244-.473.418-.123.82-.24 1.224-.356 1.868-.542 3.735-1.082 5.604-1.63.105-.029.148-.008.196.088.12.236.252.468.379.699.022.043.046.084.065.127.16.363.024.673-.358.787m5.617-4.781c-.093.052-.194.09-.296.118-1.977.576-3.95 1.148-5.926 1.723L6.73 25.173c-.679.196-1.487-.075-1.912-.637l-.595-.793a2.347 2.347 0 01-.142-.209c-.18-.298-.252-.589-.252-.976a1.768 1.768 0 01.266-.965c2.748-4.576 5.494-9.154 8.241-13.732.048-.082.097-.163.157-.234.16-.189.341-.203.523-.036.064.06.123.132.178.202 2.734 3.58 5.47 7.16 8.203 10.74.348.452.694.905 1.039 1.36.06.078.114.162.153.25.087.189.043.33-.133.43"/></symbol><symbol viewBox="0 0 100 100" id="libra" xmlns="http://www.w3.org/2000/svg"><path d="M64.483 46.37h29.314c.502 6.82-4.946 14.706-14.168 14.918-8.271.191-15.077-6.046-15.146-14.918zm3.807 3.204c1.232 5.001 6.057 8.581 11.198 8.447 4.57-.12 10.267-3.564 10.846-8.447H68.29zM35.231 72.896c-.237 5.67-2.589 9.949-7.329 12.705-5.159 3-10.467 2.89-15.484-.321-4.396-2.813-6.661-6.959-6.734-12.384h29.547zM9.256 75.991c1.813 5.807 6.951 9.175 12.598 8.464 4.838-.609 9.266-4.537 9.466-8.464H9.256zM51.341 90.56H48.35V31.59h2.991v58.97zm-1.481 5.868c-7.141 0-14.282-.01-21.422.011-1.218.003-2.237-.265-2.1-1.698.121-1.265 1.14-1.385 2.244-1.381 7.705.031 15.409.018 23.114.017 6.451 0 12.903.018 19.354-.02 1.185-.007 2.262.133 2.299 1.524.038 1.456-1.098 1.559-2.254 1.556-7.079-.018-14.157-.009-21.235-.009zm8.514-75.719l-1.328-2.897c3.472-1.608 6.868-3.184 10.267-4.755 6.363-2.942 12.729-5.881 19.092-8.821.228-.105.484-.326.682-.283.812.176 1.605.434 2.405.662-.364.752-.534 1.896-1.127 2.192-3.916 1.959-7.922 3.739-11.901 5.573-5.963 2.747-11.927 5.492-18.09 8.329zm-17.086 4.387l1.263 2.745c-.429.252-.826.531-1.259.732a26128.83 26128.83 0 01-27.933 12.918c-.454.21-.995.625-1.372.518-.68-.194-1.266-.714-1.892-1.097.456-.722.742-1.799 1.394-2.11 5.595-2.665 11.259-5.185 16.895-7.762 4.261-1.949 8.51-3.92 12.904-5.944zm52.337 18.321c-3.262.357-3.265.358-4.206-2.257-2.984-8.286-5.968-16.572-8.948-24.86-.27-.751-.512-1.512-.82-2.427l2.848-1.33 11.126 30.874zM34.73 69.75c-2.654.919-3.497-.234-4.203-2.279-2.874-8.336-5.928-16.609-8.913-24.907-.167-.463-.303-.938-.521-1.619l2.79-1.293L34.73 69.75zm30.166-26.37l6.895-19.2c.719-2.002 1.585-3.965 2.12-6.015.614-2.354 2.353-2.932 4.659-3.506-1.134 3.198-2.159 6.12-3.205 9.034-2.092 5.827-4.199 11.648-6.289 17.476-.95 2.648-.937 2.652-4.18 2.211zM6.041 69.885c1.986-5.569 3.899-10.962 5.833-16.349.864-2.406 1.936-4.752 2.615-7.208.692-2.506 2.11-3.949 4.773-4.271-.575 1.869-1.083 3.771-1.743 5.619-2.371 6.637-4.792 13.256-7.198 19.881-.986 2.713-.99 2.711-4.28 2.328zm49.776-47.033c.012 3.341-2.571 5.984-5.896 6.035-3.395.051-6.09-2.64-6.064-6.055.024-3.34 2.646-5.934 5.991-5.929 3.343.004 5.958 2.61 5.969 5.949zm-3.183.022c-.023-1.543-1.378-2.843-2.906-2.789-1.437.051-2.683 1.358-2.688 2.818-.005 1.512 1.386 2.845 2.906 2.784 1.445-.057 2.71-1.381 2.688-2.813zm-1.175-8.712h-3.235c0-2.554-.091-5.033.071-7.495.036-.546 1.064-1.515 1.469-1.435.64.126 1.575.938 1.619 1.518.181 2.409.076 4.84.076 7.412z" fill-rule="evenodd" clip-rule="evenodd"/></symbol><symbol viewBox="0 0 30 30" id="mail" xmlns="http://www.w3.org/2000/svg"><path fill="none" stroke="#EE3E0E" stroke-miterlimit="10" d="M23.122 21.947H6.394a4.133 4.133 0 01-4.121-4.121V8.38a4.133 4.133 0 014.121-4.121h16.729a4.132 4.132 0 014.121 4.121v9.446a4.133 4.133 0 01-4.122 4.121z"/><path fill="none" stroke="#EE3E0E" stroke-width=".75" stroke-miterlimit="10" d="M26.4 20.053c-12.192-17.192-23.467 0-23.467 0"/><path fill="#FFF" d="M3.199 5.867c12.437 22.611 23.203 0 23.203 0"/><path fill="none" stroke="#EE3E0E" stroke-width=".75" stroke-miterlimit="10" d="M3.199 5.867c12.437 22.611 23.203 0 23.203 0"/></symbol><symbol viewBox="0 0 30 30" id="note" xmlns="http://www.w3.org/2000/svg"><defs><path id="ia" d="M5.167 4.922h20.622v20.656H5.167z"/></defs><clipPath id="ib"><use xlink:href="#ia" overflow="visible"/></clipPath><path clip-path="url(#ib)" fill="#EE3E0E" d="M13.013 8.182v-.669H14.9v.669c0 .354.29.646.645.646h.162a.65.65 0 00.646-.646v-.669h1.887v.669c0 .354.289.646.646.646h.16a.65.65 0 00.646-.646v-.669h.385l1.229 1.207v1.93h1.291V8.177l-1.992-1.955h-.912v-.654a.649.649 0 00-.646-.646h-.161a.649.649 0 00-.646.646v.654h-1.888v-.654a.649.649 0 00-.646-.646h-.162a.648.648 0 00-.645.646v.654h-1.887v-.654a.649.649 0 00-.646-.646h-.161a.648.648 0 00-.646.646v.654H9.675v-.654a.649.649 0 00-.646-.646h-.162a.648.648 0 00-.646.646v.654H5.166v19.356h5.702l.323-1.291H6.457V7.513h1.764v.669c0 .354.29.646.646.646h.162a.65.65 0 00.646-.646v-.669h1.886v.669c0 .354.291.646.646.646h.161a.649.649 0 00.645-.646"/><defs><path id="ic" d="M5.167 4.922h20.622v20.656H5.167z"/></defs><clipPath id="id"><use xlink:href="#ic" overflow="visible"/></clipPath><path clip-path="url(#id)" fill="#EE3E0E" d="M25.406 14.735l-2.066-2.066c-.502-.503-1.314-.512-1.807-.022l-.001.002-7.534 7.535-.152.15-1.304 5.207 5.201-1.305.485-.494 7.197-7.199h-.001l.002-.001c.491-.491.482-1.305-.02-1.807m-11.027 6.122l2.844 2.844-2.669.668-.834-.877.659-2.635zm3.367 1.084l-1.612-1.611 5.398-5.399 1.612 1.613-5.398 5.397z"/></symbol><symbol viewBox="0 0 30 30" id="search" xmlns="http://www.w3.org/2000/svg"><path fill="none" stroke="#343333" d="M12.864 6.176a6.922 6.922 0 012.637.524c.419.174.815.386 1.19.638.377.251.726.537 1.045.857.32.319.605.668.855 1.044.254.376.465.773.639 1.191s.305.849.393 1.293a6.824 6.824 0 010 2.689c-.088.444-.219.875-.393 1.293s-.385.814-.639 1.191c-.25.375-.535.724-.855 1.045a6.937 6.937 0 01-3.527 1.885 6.839 6.839 0 01-2.69 0 6.917 6.917 0 01-4.385-2.93 6.862 6.862 0 01-1.162-3.828 6.862 6.862 0 012.019-4.873A6.86 6.86 0 0110.226 6.7a6.914 6.914 0 012.638-.524z"/><path fill="none" stroke="#343333" stroke-width="2" d="M17.025 17.738l7.352 7.352"/></symbol><symbol viewBox="0 0 30 30" id="star1" xmlns="http://www.w3.org/2000/svg"><path fill="none" stroke="#343333" d="M24.418 14.056c-.029.611-.238 1.14-.676 1.567-.699.684-1.391 1.377-2.107 2.04-.421.389-.603.815-.484 1.389.135.647.227 1.306.334 1.959.065.388.152.774.188 1.165.074.805-.233 1.465-.876 1.941-.753.557-1.572.607-2.406.185-.916-.464-1.822-.944-2.729-1.423a1.203 1.203 0 00-1.194.001c-.936.492-1.867.994-2.815 1.463-1.268.625-2.777-.075-3.143-1.44-.105-.393-.07-.786.001-1.182.11-.613.211-1.229.317-1.841.058-.33.124-.659.178-.991a1.15 1.15 0 00-.351-1.063c-.544-.527-1.089-1.054-1.633-1.583-.223-.217-.447-.429-.663-.651a2.178 2.178 0 01-.595-1.179c-.196-1.125.499-2.192 1.525-2.49.362-.105.747-.137 1.123-.195.569-.088 1.143-.171 1.714-.254.229-.035.461-.061.689-.101.412-.072.69-.316.873-.687.459-.932.916-1.866 1.389-2.792.318-.624.836-1.013 1.521-1.158 1.077-.23 2.071.336 2.512 1.254.439.913.898 1.816 1.348 2.724.213.43.57.635 1.034.696.475.062.946.137 1.421.205.436.061.869.125 1.305.179.553.07 1.069.221 1.481.623.364.355.608.771.665 1.286.011.117.034.235.054.353z"/></symbol><symbol viewBox="0 0 30 30" id="tel" xmlns="http://www.w3.org/2000/svg"><path fill="#EE3E0E" d="M22.834 24.063c-.512-.688-.986-1.401-1.488-2.096a21.233 21.233 0 00-.814-1.039 1.148 1.148 0 00-.991-.438 2.49 2.49 0 00-.69.129c-.472.168-.929.377-1.397.553-.468.176-.617.128-.933-.26-.465-.576-.843-1.212-1.218-1.848-1.021-1.721-1.775-3.539-2.065-5.53-.083-.564-.172-1.128-.233-1.693-.049-.433.088-.64.478-.83.069-.033.141-.062.212-.094.392-.181.796-.338 1.171-.549.517-.29.757-.756.696-1.351a59.455 59.455 0 00-.24-2.063 47.575 47.575 0 00-.299-1.833c-.053-.297-.219-.525-.467-.704a3.993 3.993 0 00-1.963-.755c-.303-.03-.613-.057-.912-.019-.862.112-1.575.538-2.188 1.136C8.437 5.81 7.84 7.096 7.452 8.495c-.065.238-.11.483-.164.725l-.155 1.265c-.007.174-.012.349-.021.522-.119 2.11.198 4.161.849 6.163.592 1.814 1.321 3.571 2.32 5.204.802 1.313 1.723 2.538 2.857 3.586.834.771 1.75 1.426 2.787 1.899.617.283 1.263.48 1.935.596.056.009.108.027.164.041.228.027.455.056.681.084.122-.006.243-.005.366-.02 1.018-.119 1.89-.551 2.654-1.226.65-.575 1.098-1.271 1.305-2.118.099-.411.077-.786-.196-1.153m-1.43.914c-.363 1.004-1.092 1.604-2.096 1.9-.31.094-.623.117-.943.066a7.338 7.338 0 01-2.693-1.016c-1.172-.721-2.129-1.674-2.923-2.783-1.761-2.463-3.028-5.154-3.688-8.117-.324-1.452-.411-2.925-.326-4.411a8.226 8.226 0 011.17-3.818 3.997 3.997 0 011.234-1.305c.443-.291.923-.35 1.418-.222.293.076.57.215.85.334.04.017.078.082.085.13.104.701.206 1.402.304 2.104.049.352.084.705.133 1.056.014.103-.019.161-.108.202-.274.125-.552.246-.822.38-.374.186-.729.399-1.034.689-.265.25-.43.545-.463.915-.043.479-.146.954-.058 1.438.135.75.26 1.501.403 2.249.283 1.455.845 2.806 1.525 4.111A22.65 22.65 0 0015.3 21.94c.746 1.004 2.015 1.084 2.897.688.355-.159.716-.313 1.07-.479.103-.047.164-.039.232.057.535.736 1.075 1.468 1.613 2.202.089.122.171.249.264.368.052.065.056.122.028.201"/><path fill="none" stroke="#FFF" stroke-width=".25" stroke-miterlimit="10" d="M22.834 24.063c-.512-.688-.986-1.401-1.488-2.096a21.233 21.233 0 00-.814-1.039 1.148 1.148 0 00-.991-.438 2.49 2.49 0 00-.69.129c-.472.168-.929.377-1.397.553-.468.176-.617.128-.933-.26-.465-.576-.843-1.212-1.218-1.848-1.021-1.721-1.775-3.539-2.065-5.53-.083-.564-.172-1.128-.233-1.693-.049-.433.088-.64.478-.83.069-.033.141-.062.212-.094.392-.181.796-.338 1.171-.549.517-.29.757-.756.696-1.351a59.455 59.455 0 00-.24-2.063 47.575 47.575 0 00-.299-1.833c-.053-.297-.219-.525-.467-.704a3.993 3.993 0 00-1.963-.755c-.303-.03-.613-.057-.912-.019-.862.112-1.575.538-2.188 1.136C8.437 5.81 7.84 7.096 7.452 8.495c-.065.238-.11.483-.164.725l-.155 1.265c-.007.174-.012.349-.021.522-.119 2.11.198 4.161.849 6.163.592 1.814 1.321 3.571 2.32 5.204.802 1.313 1.723 2.538 2.857 3.586.834.771 1.75 1.426 2.787 1.899.617.283 1.263.48 1.935.596.056.009.108.027.164.041.228.027.455.056.681.084.122-.006.243-.005.366-.02 1.018-.119 1.89-.551 2.654-1.226.65-.575 1.098-1.271 1.305-2.118.099-.411.077-.786-.196-1.153zm-1.43.914c-.363 1.004-1.092 1.604-2.096 1.9-.31.094-.623.117-.943.066a7.338 7.338 0 01-2.693-1.016c-1.172-.721-2.129-1.674-2.923-2.783-1.761-2.463-3.028-5.154-3.688-8.117-.324-1.452-.411-2.925-.326-4.411a8.226 8.226 0 011.17-3.818 3.997 3.997 0 011.234-1.305c.443-.291.923-.35 1.418-.222.293.076.57.215.85.334.04.017.078.082.085.13.104.701.206 1.402.304 2.104.049.352.084.705.133 1.056.014.103-.019.161-.108.202-.274.125-.552.246-.822.38-.374.186-.729.399-1.034.689-.265.25-.43.545-.463.915-.043.479-.146.954-.058 1.438.135.75.26 1.501.403 2.249.283 1.455.845 2.806 1.525 4.111A22.65 22.65 0 0015.3 21.94c.746 1.004 2.015 1.084 2.897.688.355-.159.716-.313 1.07-.479.103-.047.164-.039.232.057.535.736 1.075 1.468 1.613 2.202.089.122.171.249.264.368.052.065.056.122.028.201z"/></symbol><symbol viewBox="0 0 30 30" id="user" xmlns="http://www.w3.org/2000/svg"><g fill="none" stroke="#EE3E0E" stroke-miterlimit="10"><path d="M23.706 25.729c-9.571-15.912-17.412.039-17.412.039"/><circle cx="15" cy="12.553" r="6.115"/></g></symbol><symbol viewBox="0 0 30 30" id="wtf" xmlns="http://www.w3.org/2000/svg"><defs><path id="na" d="M5.606 5.74h18.786v19.479H5.606z"/></defs><clipPath id="nb"><use xlink:href="#na" overflow="visible"/></clipPath><path clip-path="url(#nb)" fill="#EE3E0E" d="M22.583 5.833H7.417c-.947 0-1.724.678-1.724 1.507v16.277c0 .83.776 1.508 1.724 1.508h15.167c.947 0 1.724-.68 1.724-1.508V7.34c-.001-.828-.778-1.507-1.725-1.507M6.586 24.008l.005-17.233 16.742.006-.006 17.232-16.741-.005z"/><defs><path id="nc" d="M5.606 5.74h18.786v19.479H5.606z"/></defs><clipPath id="nd"><use xlink:href="#nc" overflow="visible"/></clipPath><path clip-path="url(#nd)" fill="none" stroke="#EE3E0E" stroke-width=".18" stroke-miterlimit="10" d="M22.583 5.833H7.417c-.947 0-1.724.678-1.724 1.507v16.277c0 .83.776 1.508 1.724 1.508h15.167c.947 0 1.724-.68 1.724-1.508V7.34c-.001-.828-.778-1.507-1.725-1.507zM6.586 24.008l.005-17.233 16.742.006-.006 17.232-16.741-.005z"/><defs><path id="ne" d="M5.606 5.74h18.786v19.479H5.606z"/></defs><clipPath id="nf"><use xlink:href="#ne" overflow="visible"/></clipPath><path clip-path="url(#nf)" fill="#EE3E0E" d="M10.79 10.213c-.609 0-1.102.538-1.102 1.2s.492 1.199 1.102 1.199 1.104-.538 1.104-1.199c0-.662-.495-1.2-1.104-1.2"/><defs><path id="ng" d="M5.606 5.74h18.786v19.479H5.606z"/></defs><clipPath id="nh"><use xlink:href="#ng" overflow="visible"/></clipPath><ellipse clip-path="url(#nh)" fill="none" stroke="#EE3E0E" stroke-width=".18" stroke-miterlimit="10" cx="10.79" cy="11.413" rx="1.102" ry="1.199"/><defs><path id="ni" d="M5.606 5.74h18.786v19.479H5.606z"/></defs><clipPath id="nj"><use xlink:href="#ni" overflow="visible"/></clipPath><path clip-path="url(#nj)" fill="#EE3E0E" d="M14.693 10.213c-.609 0-1.103.538-1.103 1.2s.493 1.199 1.103 1.199 1.103-.538 1.103-1.199c0-.662-.491-1.2-1.103-1.2"/><defs><path id="nk" d="M5.606 5.74h18.786v19.479H5.606z"/></defs><clipPath id="nl"><use xlink:href="#nk" overflow="visible"/></clipPath><ellipse clip-path="url(#nl)" fill="none" stroke="#EE3E0E" stroke-width=".18" stroke-miterlimit="10" cx="14.693" cy="11.413" rx="1.103" ry="1.199"/><defs><path id="nm" d="M5.606 5.74h18.786v19.479H5.606z"/></defs><clipPath id="nn"><use xlink:href="#nm" overflow="visible"/></clipPath><path clip-path="url(#nn)" fill="#EE3E0E" d="M18.598 10.213c-.61 0-1.103.538-1.103 1.2s.491 1.199 1.103 1.199c.61 0 1.103-.538 1.103-1.199-.002-.662-.493-1.2-1.103-1.2"/><defs><path id="no" d="M5.606 5.74h18.786v19.479H5.606z"/></defs><clipPath id="np"><use xlink:href="#no" overflow="visible"/></clipPath><ellipse clip-path="url(#np)" fill="none" stroke="#EE3E0E" stroke-width=".18" stroke-miterlimit="10" cx="18.598" cy="11.413" rx="1.103" ry="1.199"/><defs><path id="nq" d="M5.606 5.74h18.786v19.479H5.606z"/></defs><clipPath id="nr"><use xlink:href="#nq" overflow="visible"/></clipPath><path clip-path="url(#nr)" fill="#EE3E0E" d="M10.79 14.195c-.609 0-1.102.538-1.102 1.199 0 .662.492 1.197 1.102 1.197s1.104-.535 1.104-1.197c0-.661-.495-1.199-1.104-1.199"/><defs><path id="ns" d="M5.606 5.74h18.786v19.479H5.606z"/></defs><clipPath id="nt"><use xlink:href="#ns" overflow="visible"/></clipPath><ellipse clip-path="url(#nt)" fill="none" stroke="#EE3E0E" stroke-width=".18" stroke-miterlimit="10" cx="10.79" cy="15.395" rx="1.102" ry="1.199"/><defs><path id="nu" d="M5.606 5.74h18.786v19.479H5.606z"/></defs><clipPath id="nv"><use xlink:href="#nu" overflow="visible"/></clipPath><path clip-path="url(#nv)" fill="#EE3E0E" d="M14.693 14.195c-.609 0-1.103.538-1.103 1.199 0 .662.493 1.197 1.103 1.197s1.103-.535 1.103-1.197c0-.661-.491-1.199-1.103-1.199"/><defs><path id="nw" d="M5.606 5.74h18.786v19.479H5.606z"/></defs><clipPath id="nx"><use xlink:href="#nw" overflow="visible"/></clipPath><ellipse clip-path="url(#nx)" fill="none" stroke="#EE3E0E" stroke-width=".18" stroke-miterlimit="10" cx="14.693" cy="15.395" rx="1.103" ry="1.199"/><g><defs><path id="ny" d="M5.606 5.74h18.786v19.479H5.606z"/></defs><clipPath id="nz"><use xlink:href="#ny" overflow="visible"/></clipPath><path clip-path="url(#nz)" fill="#EE3E0E" d="M18.598 14.195c-.61 0-1.103.538-1.103 1.199 0 .662.491 1.197 1.103 1.197.61 0 1.103-.535 1.103-1.197-.002-.661-.493-1.199-1.103-1.199"/></g><g><defs><path id="nA" d="M5.606 5.74h18.786v19.479H5.606z"/></defs><clipPath id="nB"><use xlink:href="#nA" overflow="visible"/></clipPath><ellipse clip-path="url(#nB)" fill="none" stroke="#EE3E0E" stroke-width=".18" stroke-miterlimit="10" cx="18.598" cy="15.395" rx="1.103" ry="1.199"/></g><g><defs><path id="nC" d="M5.606 5.74h18.786v19.479H5.606z"/></defs><clipPath id="nD"><use xlink:href="#nC" overflow="visible"/></clipPath><path clip-path="url(#nD)" fill="#EE3E0E" d="M10.79 18.178c-.609 0-1.102.537-1.102 1.197 0 .664.492 1.201 1.102 1.201s1.104-.537 1.104-1.201c0-.66-.495-1.197-1.104-1.197"/></g><g><defs><path id="nE" d="M5.606 5.74h18.786v19.479H5.606z"/></defs><clipPath id="nF"><use xlink:href="#nE" overflow="visible"/></clipPath><ellipse clip-path="url(#nF)" fill="none" stroke="#EE3E0E" stroke-width=".18" stroke-miterlimit="10" cx="10.79" cy="19.377" rx="1.102" ry="1.199"/></g><g><defs><path id="nG" d="M5.606 5.74h18.786v19.479H5.606z"/></defs><clipPath id="nH"><use xlink:href="#nG" overflow="visible"/></clipPath><path clip-path="url(#nH)" fill="#EE3E0E" d="M14.693 18.178c-.609 0-1.103.537-1.103 1.197 0 .664.493 1.201 1.103 1.201s1.103-.537 1.103-1.201c0-.66-.491-1.197-1.103-1.197"/></g><g><defs><path id="nI" d="M5.606 5.74h18.786v19.479H5.606z"/></defs><clipPath id="nJ"><use xlink:href="#nI" overflow="visible"/></clipPath><ellipse clip-path="url(#nJ)" fill="none" stroke="#EE3E0E" stroke-width=".18" stroke-miterlimit="10" cx="14.693" cy="19.377" rx="1.103" ry="1.199"/></g><g><defs><path id="nK" d="M5.606 5.74h18.786v19.479H5.606z"/></defs><clipPath id="nL"><use xlink:href="#nK" overflow="visible"/></clipPath><path clip-path="url(#nL)" fill="#EE3E0E" d="M18.598 18.178c-.61 0-1.103.537-1.103 1.197 0 .664.491 1.201 1.103 1.201.61 0 1.103-.537 1.103-1.201-.002-.66-.493-1.197-1.103-1.197"/></g><g><defs><path id="nM" d="M5.606 5.74h18.786v19.479H5.606z"/></defs><clipPath id="nN"><use xlink:href="#nM" overflow="visible"/></clipPath><ellipse clip-path="url(#nN)" fill="none" stroke="#EE3E0E" stroke-width=".18" stroke-miterlimit="10" cx="18.598" cy="19.377" rx="1.103" ry="1.199"/></g></symbol></svg>