<svg width="79" height="206" viewBox="0 0 79 206" fill="none" xmlns="http://www.w3.org/2000/svg">
<path d="M27.6041 41.5515L45.395 42.6764H71.2341V41.5515H27.6041ZM71.8695 32.0601C71.8695 32.3413 71.5871 32.6225 71.3047 32.6225H55.7024C55.42 32.6225 55.1376 32.3413 55.1376 32.0601C55.1376 31.7788 55.42 31.4976 55.7024 31.4976H71.3047C71.5871 31.4976 71.8695 31.7788 71.8695 32.0601ZM22.5916 32.0601C22.5916 32.3413 22.3092 32.6225 22.0268 32.6225H8.33065C8.04826 32.6225 7.76586 32.3413 7.76586 32.0601C7.76586 31.7788 8.04826 31.4976 8.33065 31.4976H22.0268C22.3092 31.4976 22.5916 31.7788 22.5916 32.0601ZM17.2967 129.646C17.5791 129.646 17.8615 129.928 17.8615 130.209V145.747C17.8615 146.028 17.5791 146.309 17.2967 146.309C17.0143 146.309 16.7319 146.028 16.7319 145.747V130.209C16.7319 129.928 17.0143 129.646 17.2967 129.646ZM53.7962 43.3092L71.2341 44.4341V43.3092H53.7962ZM14.4727 43.3092H7.90706V44.856H14.4727V43.3092ZM7.90706 42.7468H14.4727V41.6218H14.6139H7.90706V42.7468ZM14.4727 45.4184H7.90706V46.5433H14.4727V45.4184ZM71.1635 40.2157V34.9427H7.83646V40.2157H71.1635ZM7.83646 47.8792C7.83646 97.5863 7.83646 147.294 7.83646 197.071H14.4021V47.8792H7.83646ZM74.2699 30.6539H4.09473L4.80071 33.5365H7.90706H71.2341H73.9875L74.3405 30.6539H74.2699ZM4.02413 30.0915H74.2699L71.2341 7.8041H7.76586L4.09473 30.0915H4.02413ZM7.83646 198.337V198.899H14.4021V198.337H7.83646ZM7.83646 200.305H6.49509H0V0H79V0.703072V200.305H71.8695C54.2198 202.203 36.5702 204.102 18.9205 206L14.4727 204.945V200.305H7.90706H7.83646ZM25.7685 140.403C26.0509 140.403 26.2627 140.544 26.4745 140.685C26.6157 140.825 26.7569 141.106 26.7569 141.388C26.7569 141.669 26.6157 141.88 26.4745 142.091C26.3333 142.231 26.0509 142.372 25.7685 142.372C25.4861 142.372 25.2744 142.231 25.0626 142.091C24.9214 141.95 24.7802 141.669 24.7802 141.388C24.7802 141.106 24.9214 140.896 25.0626 140.685C25.2038 140.544 25.4861 140.403 25.7685 140.403ZM26.0509 141.036C25.9803 140.966 25.9097 140.896 25.7685 140.896C25.6273 140.896 25.5567 140.966 25.4861 141.036C25.4156 141.106 25.345 141.177 25.345 141.317C25.345 141.458 25.4156 141.528 25.4861 141.599C25.5567 141.669 25.6273 141.739 25.7685 141.739C25.9097 141.739 25.9803 141.669 26.0509 141.599C26.1215 141.528 26.1921 141.458 26.1921 141.317C26.1921 141.177 26.1215 141.106 26.0509 141.036ZM24.8508 139.068C24.9214 139.068 24.992 139.068 25.0626 139.068C25.1332 139.068 25.2038 139.068 25.2038 139.068C25.345 139.068 25.4861 138.997 25.6273 138.997C26.1921 138.997 26.7569 139.208 27.1099 139.63C27.4629 139.982 27.7453 140.544 27.7453 141.106V142.934C27.7453 143.497 27.5335 144.059 27.1099 144.411C26.7569 144.762 26.1921 145.044 25.6273 145.044C25.4861 145.044 25.345 145.044 25.2038 144.973C25.1332 144.973 25.0626 144.973 25.0626 144.973C24.992 144.973 24.9214 144.973 24.8508 144.973C24.286 144.973 23.7212 144.762 23.3682 144.341C23.0152 143.989 22.7328 143.427 22.7328 142.864V141.036C22.7328 140.474 22.9446 139.911 23.3682 139.56C23.7212 139.208 24.286 138.927 24.8508 138.927V139.068ZM24.0742 139.841C23.933 139.911 23.8624 139.982 23.7918 140.052C23.5094 140.333 23.3682 140.685 23.3682 141.177V143.005C23.3682 143.427 23.5094 143.848 23.7918 144.13C23.8624 144.2 24.0036 144.27 24.0742 144.341C23.8624 144.059 23.6506 143.708 23.6506 143.356V141.528C23.7212 141.177 23.8624 140.825 24.0742 140.544V139.841ZM25.6979 139.63C25.2744 139.63 24.8508 139.771 24.5684 140.052C24.286 140.333 24.1448 140.614 24.1448 141.036V142.864C24.1448 143.216 24.3566 143.567 24.5684 143.848C24.8508 144.13 25.2038 144.27 25.6979 144.27C26.1215 144.27 26.5451 144.13 26.8275 143.848C27.1099 143.567 27.2511 143.216 27.2511 142.724V140.896C27.2511 140.474 27.1099 140.052 26.8275 139.771C26.5451 139.489 26.1921 139.349 25.6979 139.349V139.63ZM34.311 134.146H26.9687V135.201H34.311V134.146ZM27.5335 133.584H34.8052V135.693H27.4629C27.3217 135.974 27.0393 136.255 26.7569 136.466C26.4039 136.677 26.0509 136.818 25.6273 136.818C25.4861 136.818 25.345 136.818 25.2038 136.747C25.1332 136.747 25.0626 136.747 25.0626 136.747C24.992 136.747 24.9214 136.747 24.8508 136.747C24.286 136.747 23.7212 136.466 23.3682 136.044C23.0152 135.623 22.7328 135.06 22.7328 134.427C22.7328 133.795 22.9446 133.232 23.3682 132.81C23.7212 132.388 24.286 132.107 24.8508 132.107C24.9214 132.107 24.992 132.107 25.0626 132.107C25.1332 132.107 25.2038 132.107 25.2038 132.107C25.345 132.107 25.4861 132.037 25.6273 132.037C26.0509 132.037 26.4745 132.177 26.8275 132.459C27.1099 132.67 27.3923 132.951 27.5335 133.302V133.584ZM25.4156 133.584H26.4039H26.6863H26.9687C26.8275 133.443 26.7569 133.302 26.5451 133.162C26.3333 132.951 25.9803 132.881 25.6979 132.881C25.4861 132.881 25.2744 132.951 25.1332 133.021C24.9214 133.162 24.7096 133.302 24.5684 133.513C24.4272 133.724 24.286 134.005 24.2154 134.357V134.427V134.498C24.286 134.779 24.3566 135.06 24.5684 135.341C24.7096 135.552 24.9214 135.693 25.1332 135.833C25.345 135.904 25.4861 135.974 25.6979 135.974C25.9803 135.974 26.2627 135.904 26.5451 135.693C26.6863 135.623 26.7569 135.482 26.8981 135.341H25.2038V133.232H25.4861L25.4156 133.584ZM26.4039 134.146H25.6979V135.201H26.4039V134.146ZM24.0036 133.232C24.0036 133.162 24.0742 133.162 24.0742 133.091C23.933 133.162 23.7918 133.302 23.7212 133.373C23.4388 133.654 23.227 134.146 23.227 134.568C23.227 135.06 23.4388 135.482 23.7212 135.763C23.7918 135.904 23.933 135.974 24.0742 136.044C24.0742 135.974 24.0036 135.974 24.0036 135.904C23.7918 135.552 23.58 135.13 23.58 134.709C23.6506 134.287 23.7918 133.865 24.0036 133.513V133.232ZM72.4343 6.46826H77.588V1.40614H1.34138V6.46826H6.56568H72.4343ZM77.588 7.03072H72.5049V7.10102L75.6819 30.443L75.1171 34.9427H72.5049V40.2157V44.5044V45.1372V199.04H77.588V7.24164V7.10102V7.03072ZM6.49509 7.03072H1.41198V198.969H6.49509V197.001V34.8724H3.67113L2.61215 30.3727L2.68275 30.0212L2.75335 29.6696L2.82395 29.3181L2.89455 28.9666L2.96515 28.615V28.5447L3.03575 28.1932V28.1229L3.10635 27.8416V27.7713L3.17694 27.4901V27.4198L3.24754 27.1386V27.0683L3.31814 26.787V26.7167L3.38874 26.4355V26.3652L3.45934 26.084V26.0137L3.52994 25.7324V25.5918L3.60054 25.3106V25.17L3.67113 24.959V24.8184L3.74173 24.6075V24.4669L3.81233 24.256V24.1154L3.88293 23.9044V23.7638V23.5529V23.4123V23.2014V23.0608V22.8498V22.6389V22.428V22.2171V22.0061V21.7952V21.6546V21.4437V21.3031L3.95353 21.0921V20.9515L4.02413 20.7406V20.6L4.09473 20.3891V20.2485L4.16533 20.0375V19.8969L4.23593 19.6157V19.4751L4.30652 19.1939V19.0532L4.37712 18.772V18.7017L4.44772 18.4205V18.3502L4.51832 18.0689V17.9986L4.58892 17.7174V17.6471L4.65952 17.3659V17.2956L4.73012 17.0143V16.944L4.80071 16.5925V16.5222L4.87131 16.1706V16.1003L4.94191 15.7488L5.01251 15.3973L5.08311 15.0457L5.15371 14.6942L5.22431 14.3427L5.29491 13.9911L5.36551 13.6396L5.4361 13.2881L5.5067 12.9365V12.8662L5.5773 12.5147L5.6479 12.0928L5.7185 11.8116V11.7413L5.7891 11.4601V11.3898L5.8597 11.1085V11.0382L5.93029 10.757V10.6867L6.00089 10.4055V10.3352L6.07149 10.0539V9.91331L6.14209 9.63208V9.49147L6.21269 9.21024V9.06962L6.28329 8.8587V8.71809L6.35389 8.50717V8.36655L6.42449 8.15563V8.01502V7.8041V7.66348V7.45256V7.31194V7.10102L6.49509 7.03072ZM19.2029 42.3952V204.664L71.1635 199.11V45.77L19.2029 42.3952ZM18.6381 204.594V42.4655L15.7435 42.8171V197.071V200.375V203.891L18.6381 204.594Z" fill="black"/>
</svg>
