<svg width="117" height="168" viewBox="0 0 117 168" fill="none" xmlns="http://www.w3.org/2000/svg">
<path d="M57.1608 3.02133L57.9361 3.09159L58.7819 3.16186L108.965 6.39398L109.811 6.46424H110.022H115.731V1.40527H1.40964V6.46424H7.11867L7.54157 6.39398L34.4657 3.02133L38.9765 3.58344V6.39398H52.65V3.58344L57.1608 3.02133H57.2313H57.1608ZM36.0867 91.5533C36.3687 91.5533 36.6506 91.8344 36.6506 92.1154V107.644C36.6506 107.925 36.3687 108.206 36.0867 108.206C35.8048 108.206 35.5229 107.925 35.5229 107.644V92.1154C35.5229 91.8344 35.8048 91.5533 36.0867 91.5533ZM36.0867 6.95609C36.3687 6.95609 36.6506 7.23714 36.6506 7.51819V23.0464C36.6506 23.3275 36.3687 23.6085 36.0867 23.6085C35.8048 23.6085 35.5229 23.3275 35.5229 23.0464V7.51819C35.5229 7.23714 35.8048 6.95609 36.0867 6.95609ZM36.0867 146.359C36.3687 146.359 36.6506 146.64 36.6506 146.921V162.449C36.6506 162.73 36.3687 163.011 36.0867 163.011C35.8048 163.011 35.5229 162.73 35.5229 162.449V146.921C35.5229 146.64 35.8048 146.359 36.0867 146.359ZM55.3988 91.5533C55.6807 91.5533 55.9627 91.8344 55.9627 92.1154V107.644C55.9627 107.925 55.6807 108.206 55.3988 108.206C55.1169 108.206 54.8349 107.925 54.8349 107.644V92.1154C54.8349 91.8344 55.1169 91.5533 55.3988 91.5533ZM39.1175 160.903H52.5795V160.341H39.1175V160.903ZM52.5795 162.238H38.906V166.876L34.3952 167.93L7.04819 162.238H0V0H117V0.702635V162.309H109.881C92.2608 164.206 74.6404 166.103 57.0199 168L52.5795 166.946V162.309V162.238ZM38.906 158.936H52.5795V7.79925H38.906V158.936ZM34.6771 4.4266V166.454L37.5669 165.752V7.72898V4.70765L34.6771 4.35634V4.4266ZM34.1133 166.524V4.4266L7.75301 7.72898V161.044L34.1133 166.524ZM63.8566 102.444C64.1385 102.444 64.35 102.585 64.5614 102.725C64.7024 102.866 64.8434 103.147 64.8434 103.428C64.8434 103.709 64.7024 103.92 64.5614 104.13C64.4205 104.271 64.1385 104.412 63.8566 104.412C63.5747 104.412 63.3633 104.271 63.1518 104.13C63.0108 103.99 62.8699 103.709 62.8699 103.428C62.8699 103.147 63.0108 102.936 63.1518 102.725C63.2928 102.585 63.5747 102.444 63.8566 102.444ZM64.1385 103.077C64.0681 103.006 63.9976 102.936 63.8566 102.936C63.7157 102.936 63.6452 103.006 63.5747 103.077C63.5042 103.147 63.4337 103.217 63.4337 103.358C63.4337 103.498 63.5042 103.568 63.5747 103.639C63.6452 103.709 63.7157 103.779 63.8566 103.779C63.9976 103.779 64.0681 103.709 64.1385 103.639C64.209 103.568 64.2795 103.498 64.2795 103.358C64.2795 103.217 64.209 103.147 64.1385 103.077ZM62.9404 101.109C63.0108 101.109 63.0813 101.109 63.1518 101.109C63.2223 101.109 63.2928 101.109 63.2928 101.109C63.4337 101.109 63.5747 101.039 63.7157 101.039C64.2795 101.039 64.8434 101.25 65.1958 101.671C65.5482 102.023 65.8301 102.585 65.8301 103.147V104.974C65.8301 105.536 65.6187 106.098 65.1958 106.449C64.8434 106.801 64.2795 107.082 63.7157 107.082C63.5747 107.082 63.4337 107.082 63.2928 107.011C63.2223 107.011 63.1518 107.011 63.1518 107.011C63.0813 107.011 63.0108 107.011 62.9404 107.011C62.3765 107.011 61.8126 106.801 61.4602 106.379C61.1078 106.028 60.8259 105.465 60.8259 104.903V103.077C60.8259 102.514 61.0373 101.952 61.4602 101.601C61.8126 101.25 62.3765 100.969 62.9404 100.969V101.109ZM62.1651 101.882C62.0241 101.952 61.9536 102.023 61.8831 102.093C61.6012 102.374 61.4602 102.725 61.4602 103.217V105.044C61.4602 105.465 61.6012 105.887 61.8831 106.168C61.9536 106.238 62.0946 106.309 62.1651 106.379C61.9536 106.098 61.7422 105.747 61.7422 105.395V105.325V103.498V103.428C61.8126 103.077 61.9536 102.725 62.1651 102.444V101.882ZM63.7861 101.671C63.3633 101.671 62.9404 101.812 62.6584 102.093C62.3765 102.374 62.2355 102.655 62.2355 103.077V104.903C62.2355 105.255 62.447 105.606 62.6584 105.887C62.9404 106.168 63.2928 106.309 63.7861 106.309C64.209 106.309 64.6319 106.168 64.9139 105.887C65.1958 105.606 65.3367 105.255 65.3367 104.763V102.936C65.3367 102.514 65.1958 102.093 64.9139 101.812C64.6319 101.531 64.2795 101.39 63.7861 101.39V101.671ZM72.3849 96.1907H65.0548V97.2447H72.3849V96.1907ZM65.0548 95.6286C64.9139 95.4178 64.8434 95.2773 64.6319 95.207C64.4205 95.0665 64.1385 94.926 63.7861 94.926C63.4337 94.926 63.0108 95.1368 62.7289 95.4178C62.447 95.6989 62.2355 96.1205 62.2355 96.6123C62.2355 97.0339 62.447 97.4555 62.7289 97.7365C63.0108 98.0878 63.4337 98.2986 63.7861 98.2986C64.1385 98.2986 64.4205 98.2284 64.6319 98.0176C64.7729 97.9473 64.8434 97.8068 64.9139 97.6663H63.2223V95.5583H63.5042H64.491H64.7729H65.0548V95.6286ZM65.6892 95.6286H72.9488V97.7365H65.6187C65.4777 98.0176 65.2663 98.2986 64.9843 98.5094C64.7024 98.7202 64.2795 98.8607 63.7861 98.8607C63.6452 98.8607 63.5747 98.8607 63.4337 98.7905C63.3633 98.7905 63.1518 98.8607 62.9404 98.8607C62.5175 98.8607 61.9536 98.5094 61.4602 98.0176C61.1078 97.596 60.8259 97.1041 60.8259 96.542C60.8259 95.9799 61.1078 95.4881 61.4602 95.0665C61.8831 94.5747 62.5175 94.2233 62.9404 94.2233C63.1518 94.2233 63.2928 94.2233 63.4337 94.2936C63.5747 94.2936 63.6452 94.2233 63.7861 94.2233C64.2795 94.2233 64.7024 94.3639 64.9843 94.5747C65.2663 94.7854 65.4777 95.1368 65.6892 95.4881V95.6286ZM64.5614 96.1907H63.8566V97.2447H64.5614V96.1907ZM61.7422 96.6123C61.7422 96.1907 61.8831 95.7691 62.0946 95.4178C62.0241 95.4881 62.0241 95.4881 61.9536 95.5583C61.6717 95.8394 61.4602 96.261 61.4602 96.6123C61.4602 97.0339 61.6717 97.3852 61.9536 97.6663C62.0241 97.7365 62.0241 97.7365 62.0946 97.8068C61.8831 97.4555 61.7422 97.0339 61.7422 96.6123ZM110.586 6.95609V160.903H115.661V7.09661V6.95609H110.586ZM1.40964 6.95609V160.903H6.48434V6.95609H1.40964ZM57.4428 4.35634V166.524L109.317 160.974V7.72898L57.4428 4.35634ZM56.8789 166.454V4.4266L53.9892 4.77792V7.79925V158.936V162.238V165.752L56.8789 166.454Z" fill="#C4C4C4"/>
</svg>
