<svg width="77" height="168" viewBox="0 0 77 168" fill="none" xmlns="http://www.w3.org/2000/svg">
<path d="M18.5103 3.02133L19.2672 3.09159L20.0929 3.16186L69.0867 6.39398L69.9124 6.46424H70.1189H75.6926V1.40527H1.37623V6.46424H6.33065H14.1063V3.6537L18.5103 3.09159H18.5791L18.5103 3.02133ZM16.79 91.5533C17.0652 91.5533 17.3405 91.8344 17.3405 92.1154V107.644C17.3405 107.925 17.0652 108.206 16.79 108.206C16.5147 108.206 16.2395 107.925 16.2395 107.644V92.1154C16.2395 91.8344 16.5147 91.5533 16.79 91.5533ZM7.63807 160.903H14.0375V160.341H7.63807V160.903ZM14.0375 162.238H7.63807H6.33065H0V0H77V0.702635V162.309H70.05C52.8472 164.206 35.6443 166.103 18.4415 168L14.1063 166.946V162.309L14.0375 162.238ZM6.26184 160.903V158.936V6.95609H1.30742V160.903H6.26184ZM7.56926 158.936H13.9687V7.79925H7.56926V158.936ZM25.0474 102.374C25.3226 102.374 25.529 102.514 25.7355 102.655C25.8731 102.795 26.0107 103.077 26.0107 103.358C26.0107 103.639 25.8731 103.849 25.7355 104.06C25.5979 104.201 25.3226 104.341 25.0474 104.341C24.7721 104.341 24.5657 104.201 24.3592 104.06C24.2216 103.92 24.084 103.639 24.084 103.358C24.084 103.077 24.2216 102.866 24.3592 102.655C24.4969 102.514 24.7721 102.374 25.0474 102.374ZM25.3226 103.006C25.2538 102.936 25.185 102.866 25.0474 102.866C24.9097 102.866 24.8409 102.936 24.7721 103.006C24.7033 103.077 24.6345 103.147 24.6345 103.287C24.6345 103.428 24.7033 103.498 24.7721 103.568C24.8409 103.639 24.9097 103.709 25.0474 103.709C25.185 103.709 25.2538 103.639 25.3226 103.568C25.3914 103.498 25.4602 103.428 25.4602 103.287C25.4602 103.147 25.3914 103.077 25.3226 103.006ZM24.1528 101.039C24.2216 101.039 24.2904 101.039 24.3592 101.039C24.4281 101.039 24.4969 101.039 24.4969 101.039C24.6345 101.039 24.7721 100.969 24.9097 100.969C25.4602 100.969 26.0107 101.179 26.3548 101.601C26.6988 101.952 26.9741 102.514 26.9741 103.077V104.903C26.9741 105.465 26.7677 106.028 26.3548 106.379C26.0107 106.73 25.4602 107.011 24.9097 107.011C24.7721 107.011 24.6345 107.011 24.4969 106.941C24.4281 106.941 24.3592 106.941 24.3592 106.941C24.2904 106.941 24.2216 106.941 24.1528 106.941C23.6023 106.941 23.0518 106.73 22.7078 106.309C22.3637 105.957 22.0885 105.395 22.0885 104.833V103.006C22.0885 102.444 22.2949 101.882 22.7078 101.531C23.0518 101.179 23.6023 100.898 24.1528 100.898V101.039ZM23.3959 101.812C23.2583 101.882 23.1895 101.952 23.1206 102.023C22.8454 102.304 22.7078 102.655 22.7078 103.147V104.974C22.7078 105.395 22.8454 105.817 23.1206 106.098C23.1895 106.168 23.3271 106.238 23.3959 106.309C23.1895 106.028 22.983 105.676 22.983 105.325V103.498C23.0518 103.147 23.1895 102.795 23.3959 102.514V101.812ZM24.9786 101.601C24.5657 101.601 24.1528 101.742 23.8776 102.023C23.6023 102.304 23.4647 102.585 23.4647 103.006V104.833C23.4647 105.184 23.6711 105.536 23.8776 105.817C24.1528 106.098 24.4969 106.238 24.9786 106.238C25.3914 106.238 25.8043 106.098 26.0795 105.817C26.3548 105.536 26.4924 105.184 26.4924 104.693V102.866C26.4924 102.444 26.3548 102.023 26.0795 101.742C25.8043 101.46 25.4602 101.32 24.9786 101.32V101.601ZM33.3735 96.1205H26.2172V97.1744H33.3735V96.1205ZM26.7677 95.5583H33.8552V97.6663H26.6988C26.5612 97.9473 26.286 98.2284 26.0107 98.4391C25.6667 98.6499 25.3226 98.7905 24.9097 98.7905C24.7721 98.7905 24.6345 98.7905 24.4969 98.7202C24.4281 98.7202 24.3592 98.7202 24.3592 98.7202C24.2904 98.7202 24.2216 98.7202 24.1528 98.7202C23.6023 98.7202 23.0518 98.4391 22.7078 98.0176C22.3637 97.596 22.0885 97.0339 22.0885 96.4015C22.0885 95.7691 22.2949 95.207 22.7078 94.7854C23.0518 94.3639 23.6023 94.0828 24.1528 94.0828C24.2216 94.0828 24.2904 94.0828 24.3592 94.0828C24.4281 94.0828 24.4969 94.0828 24.4969 94.0828C24.6345 94.0828 24.7721 94.0126 24.9097 94.0126C25.3226 94.0126 25.7355 94.1531 26.0795 94.4341C26.3548 94.6449 26.63 94.926 26.7677 95.2773V95.5583ZM24.7033 95.5583H25.6667H25.9419H26.2172C26.0795 95.4178 26.0107 95.2773 25.8043 95.1368C25.529 94.926 25.2538 94.8557 24.9786 94.8557C24.7721 94.8557 24.5657 94.926 24.4281 94.9962C24.2216 95.1368 24.0152 95.2773 23.8776 95.4881C23.7399 95.6989 23.6023 95.9799 23.5335 96.3312V96.4015V96.4718C23.6023 96.7528 23.6711 97.0339 23.8776 97.3149C24.0152 97.5257 24.2216 97.6663 24.4281 97.8068C24.6345 97.877 24.7721 97.9473 24.9786 97.9473C25.2538 97.9473 25.529 97.877 25.8043 97.6663C25.9419 97.596 26.0107 97.4555 26.1483 97.3149H24.4969V95.207H24.7721L24.7033 95.5583ZM25.6667 96.1205H24.9786V97.1744H25.6667V96.1205ZM23.3271 95.207C23.3271 95.1368 23.3959 95.1368 23.3959 95.0665C23.2583 95.1368 23.1206 95.2773 23.0518 95.3476C22.7766 95.6286 22.5702 96.1205 22.5702 96.542C22.5702 97.0339 22.7766 97.4555 23.0518 97.7365C23.1206 97.877 23.2583 97.9473 23.3959 98.0176C23.3959 97.9473 23.3271 97.9473 23.3271 97.877C23.1206 97.5257 22.9142 97.1041 22.9142 96.6826C22.983 96.261 23.1206 95.8394 23.3271 95.4881V95.207ZM70.6005 6.95609V160.903H75.555V7.09661V6.95609H70.6005ZM18.6479 4.35634V166.524L69.2931 160.974V7.72898L18.6479 4.35634ZM18.0974 166.454V4.4266L15.2761 4.77792V7.79925V165.822L18.0974 166.524V166.454Z" fill="#C4C4C4"/>
</svg>
