<svg width="240" height="76" viewBox="0 0 240 76" fill="none" xmlns="http://www.w3.org/2000/svg">
<path d="M10.5427 25.4038H22.7915V21.3253H25.9903V5.82447H28.9891V3.0122H12.0488V24.031H3.77196V25.4038H10.5427ZM45.7028 67.5612L48.0886 67.0014L51.1541 66.295L50.8476 64.9489L42.4107 66.7882L42.7573 68.2543L45.7028 67.5612ZM48.3552 68.1743L45.9694 68.7341C46.1027 69.3072 46.2626 70.0536 46.4359 70.8267L46.9157 72.9858C47.2089 74.332 51.5806 74.412 56.3788 73.8922C58.0182 73.7056 59.7109 73.4523 61.3236 73.1325C62.923 72.8126 64.4424 72.4394 65.722 72.0262C68.0144 71.3065 69.5605 70.6001 69.4406 70.0936C69.2007 68.9607 66.2418 69.4805 63.4428 70.0936C63.1096 70.1736 62.5765 70.2935 62.0833 70.4002C61.5769 70.5201 61.097 70.6267 60.7372 70.7067L60.5906 70.7467C58.4047 71.2265 49.5147 73.1724 48.8217 70.2002L48.3552 68.1743ZM44.8098 69.0007L41.851 69.6938L41.2379 67.0414L27.5363 70.027L27.2031 68.5609L26.0169 63.0962L29.1357 62.4165L25.8437 47.3022L36.1198 45.063L35.64 42.7972L36.2264 42.6773L38.5988 42.1708L38.2523 40.5847C38.0657 39.785 37.8525 38.852 37.6392 37.9324C37.1594 35.8532 41.4911 33.4407 46.6092 31.6814C48.2086 31.1349 49.8879 30.6418 51.514 30.2419C53.1267 29.8421 54.6995 29.5222 56.0856 29.3356C59.1111 28.9358 61.3236 29.189 61.6035 30.4419C62.0967 32.6144 58.6313 33.654 55.2726 34.4137C54.7128 34.547 54.2996 34.6403 53.8997 34.7203C53.3666 34.8402 52.8601 34.9468 52.5536 35.0135L52.407 35.0535C50.4744 35.4933 42.5174 37.2926 42.9039 39.1186L43.3437 41.1578L46.4226 40.4914L46.9024 42.7172L112.571 28.4026H25.8037V28.416H24.2976H0.759766V21.0188H9.03665V0H32.0013H207.815H230.78V21.0188H239.057V28.416H229.274H217.252L217.305 28.6959C162.206 40.7047 107.12 52.7002 52.0205 64.6956L52.5936 67.188L49.5281 67.9078L49.9946 69.9337C50.4211 71.7463 58.3781 70.0003 60.3373 69.5738L60.4839 69.5338C60.9638 69.4272 61.3769 69.3339 61.8168 69.2406C62.2033 69.1473 62.6031 69.054 63.1896 68.9207C66.5483 68.1743 70.1336 67.6545 70.6135 69.8404C70.8933 71.0932 68.9874 72.2661 66.0818 73.1724C64.749 73.599 63.2029 73.9855 61.5502 74.3054C59.9241 74.6252 58.1915 74.8918 56.5121 75.0784C51.1275 75.6782 46.196 75.3316 45.7428 73.2391C45.5162 72.2261 45.3696 71.5464 45.263 71.0932L44.8098 69.0007ZM39.7717 41.9175L42.1708 41.3977L41.731 39.3585C41.0912 36.3863 49.9812 34.3737 52.1537 33.8806L52.3004 33.8406C52.8335 33.7206 53.2333 33.6407 53.6465 33.5474C54.1263 33.4407 54.6328 33.3341 55.006 33.2541C57.8049 32.6144 60.6972 31.828 60.444 30.6951C60.324 30.202 58.618 30.202 56.2455 30.5352C54.9127 30.7084 53.3799 31.015 51.7939 31.4015C50.2078 31.8014 48.5684 32.2812 46.9957 32.8276C42.4241 34.3871 38.5056 36.333 38.8121 37.6658C38.9854 38.4122 39.2119 39.3852 39.4119 40.3315L39.7717 41.9175ZM43.0105 42.4507L39.4385 43.2104L37.0661 43.7169L37.2927 44.8098L45.7295 42.9705L45.5029 41.9175L43.0105 42.4507ZM210.387 26.0169L32.2412 64.8156L29.5889 65.402L29.8288 66.455L213.733 26.4034L213.506 25.3505L210.387 26.0302V26.0169ZM32.4545 63.5494L210.134 24.844C209.108 20.1791 208.095 15.5275 207.109 10.8626C148.384 24.6574 88.4334 36.7462 29.4156 49.5947L32.4545 63.5494ZM118.089 27.2031L131.311 24.3242H28.9891V24.3375H25.8037V27.2031H118.089ZM136.829 23.1246L202.444 8.82334H32.0013V8.83667H28.9891V23.1246H136.829ZM207.748 7.6238L207.815 7.61047V1.21288H32.0013V7.6238H207.748ZM209.734 8.83667L210.827 13.9414V8.83667H209.734ZM217.025 25.4038H236.058V24.031H227.781V3.0122H210.827V5.82447H213.826V21.3253H217.025V25.4038Z" fill="black"/>
</svg>
