<svg xmlns="http://www.w3.org/2000/svg" width="100" height="100" viewBox="0 0 100 100"><g><g><g><g><g><path fill="#48487f" d="M90.008 45.108a4.675 4.675 0 0 0-5.402-3.812l-9.968 1.817-5.033 11.325 16.592-3.928a4.675 4.675 0 0 0 3.811-5.402z"/></g></g></g><g><g><g><path fill="#48487f" d="M63.417 59.343v2.405h11.682c.922 0 1.669-.747 1.669-1.669v-3.907z"/></g></g></g><g><g><g><path fill="#48487f" d="M26.702 59.018v-7.116l-5.804 1.186 5.32 10.64.88-.05a28.585 28.585 0 0 1-.396-4.66z"/></g></g></g><g><g><g><path fill="#48487f" d="M17.511 53.774l-7.77 1.587A4.673 4.673 0 0 0 5.871 60c.012 1.948.638 4.538 5.811 4.538l10.904-.611z"/></g></g></g><g><g><g><path fill="#48487f" d="M68.118 44.302a25.262 25.262 0 0 1-4.701 4.617v6.988l2.104-.5 5.142-11.57z"/></g></g></g><g><g><g><path fill="#48487f" d="M36.715 23.364c-6.395 0-12.932 4.34-14.98 5.813.433 9.195 8.238 16.297 17.432 15.865 8.529-.402 15.375-7.183 15.857-15.707-2.799-1.487-11.769-5.97-18.309-5.97z"/></g></g></g><g><g><g><path fill="#48487f" d="M35.479 11.94a16.679 16.679 0 0 0-13.427 13.008c3.328-2.076 8.929-4.922 14.663-4.922 6.248 0 14.018 3.413 18.087 5.44-1.6-9.072-10.252-15.128-19.323-13.527z"/></g></g></g><g><g><g><path fill="#48487f" d="M61.748 33.377v-8.344h3.338v8.344zm-23.364 15.02c-11.056-.012-20.015-8.97-20.026-20.026 0-11.06 8.966-20.027 20.026-20.027S58.41 17.31 58.41 28.371c0 11.06-8.966 20.026-20.026 20.026zm5.006-43.39c-15.722 0-26.701 9.607-26.701 23.364 0 13.756 10.98 23.364 26.701 23.364 15.723 0 26.702-9.608 26.702-23.364 0-13.757-10.98-23.364-26.702-23.364z"/></g></g></g><g><g><g><path fill="#48487f" d="M55.073 68.423a5.007 5.007 0 0 1-5.007 5.007H40.053a5.007 5.007 0 0 1-5.007-5.007v-5.006a5.007 5.007 0 0 1 5.007-5.007h10.013a5.007 5.007 0 0 1 5.007 5.007zM76.896 83.4L63.313 69.815a11.026 11.026 0 0 1-3.234-7.803V51.067a34.492 34.492 0 0 1-16.689 4.006 36.068 36.068 0 0 1-13.35-2.442v6.387a25.338 25.338 0 0 0 3.089 12.109l4.948 9.075a24.17 24.17 0 0 0 4.102 5.484l8.666 8.665a8.36 8.36 0 0 0 10.038 1.335l3.146-1.797L52.224 82.09l2.36-2.36 12.015 12.016a8.344 8.344 0 0 0 9 1.851l9.513-3.803v-9.227z"/></g></g></g><g><g><g><path fill="#48487f" d="M50.066 61.748H40.053c-.922 0-1.67.747-1.67 1.669v5.006c0 .922.748 1.67 1.67 1.67h10.013c.922 0 1.669-.748 1.669-1.67v-5.006c0-.922-.747-1.669-1.67-1.669z"/></g></g></g><g><g><g><path fill="#48487f" d="M3 3V0h4v3z"/></g></g></g><g><g><g><path fill="#48487f" d="M0 7V3h3v4z"/></g></g></g><g><g><g><path fill="#48487f" d="M7 7V3h3v4z"/></g></g></g><g><g><g><path fill="#48487f" d="M3 10V7h4v3z"/></g></g></g><g><g><g><path fill="#48487f" d="M0 35v-3h3v3z"/></g></g></g><g><g><g><path fill="#48487f" d="M93 62v-4h4v4z"/></g></g></g><g><g><g><path fill="#48487f" d="M90 65v-3h3v3z"/></g></g></g><g><g><g><path fill="#48487f" d="M97 65v-3h3v3z"/></g></g></g><g><g><g><path fill="#48487f" d="M93 68v-3h4v3z"/></g></g></g><g><g><g><path fill="#48487f" d="M20 82v-4h3v4z"/></g></g></g><g><g><g><path fill="#48487f" d="M17 85v-3h3v3z"/></g></g></g><g><g><g><path fill="#48487f" d="M23 85v-3h4v3z"/></g></g></g><g><g><g><path fill="#48487f" d="M20 88v-3h3v3z"/></g></g></g><g><g><g><path fill="#48487f" d="M7 95v-3h3v3z"/></g></g></g><g><g><g><path fill="#48487f" d="M32 100v-3h3v3z"/></g></g></g><g><g><g><path fill="#48487f" d="M0 73v-3h3v3z"/></g></g></g><g><g><g><path fill="#48487f" d="M86.78 80.105V90.12h1.76l.609 1.827a2.211 2.211 0 0 0 4.307-.7v-11.14z"/></g></g></g><g><g><g><path fill="#48487f" d="M91.788 0v13.35c0 7.374-5.978 13.352-13.351 13.352h-1.67v-5.007c0-.921-.746-1.669-1.668-1.669h-2.942a27.128 27.128 0 0 1 1.273 8.345c.03 4.201-.95 8.349-2.862 12.09l6.2-1.13v-5.954h1.669c11.06 0 20.026-8.966 20.026-20.026V0z"/></g></g></g></g></g></svg>