<svg xmlns="http://www.w3.org/2000/svg" width="100" height="100" viewBox="0 0 100 100"><g><g><g><g><g><path fill="#48467f" d="M48.333 26.667H31.667c-.92 0-1.667.746-1.667 1.666v3.334a5 5 0 0 0 5 5h10a5 5 0 0 0 5-5v-3.334c0-.92-.746-1.666-1.667-1.666z"/></g></g></g><g><g><g><path fill="#48467f" d="M48.082 69.912a37.48 37.48 0 0 1-16.167 0l-5.248-1.167V90h8.698l3.018-12.072a1.667 1.667 0 0 1 3.234 0L44.635 90h8.698V68.745z"/></g></g></g><g><g><g><path fill="#48467f" d="M26.925 42.583a29.306 29.306 0 0 0-10.358 13.544l-1.115 2.968 8.293 3.553 3.693-19.696c-.176-.119-.343-.245-.513-.369z"/></g></g></g><g><g><g><path fill="#48467f" d="M15 50a8.333 8.333 0 0 1-1.667-16.5v-3.367c-6.37.917-10.791 6.824-9.875 13.194A11.653 11.653 0 0 0 14.14 53.29 32.56 32.56 0 0 1 15.81 50z"/></g></g></g><g><g><g><path fill="#48467f" d="M14.88 62.477l-7.195 7.19a1.643 1.643 0 0 0 2 2.57l6.117-3.667A1.667 1.667 0 0 1 18.333 70v2.095a1.238 1.238 0 0 0 2.415.39l2.185-6.557z"/></g></g></g><g><g><g><path fill="#48467f" d="M54.683 93.333h-9.338A4.732 4.732 0 0 0 45 95c0 .92.746 1.667 1.667 1.667h6.666c.92 0 1.667-.747 1.667-1.667a4.679 4.679 0 0 0-.317-1.667z"/></g></g></g><g><g><g><path fill="#48467f" d="M34.655 93.333h-9.338A4.679 4.679 0 0 0 25 95c0 .92.746 1.667 1.667 1.667h6.666c.92 0 1.667-.747 1.667-1.667a4.733 4.733 0 0 0-.345-1.667z"/></g></g></g><g><g><g><path fill="#48467f" d="M48.333 51.667H45v-3.334h3.333zm0 5H45v-3.334h3.333zm1.167-12a22.876 22.876 0 0 1-7.833 1.93V60h-3.334V46.597c-2.7-.176-5.349-.83-7.821-1.93l-3.845 20.666 5.973 1.334a34.152 34.152 0 0 0 14.72 0l5.973-1.334v-.166z"/></g></g></g><g><g><g><path fill="#48467f" d="M45 40H35a8.343 8.343 0 0 1-8.333-8.333v-3.334a5 5 0 0 1 5-5h16.666a5 5 0 0 1 5 5v3.334A8.343 8.343 0 0 1 45 40zm-5-23.333c-9.19 0-16.667 5.981-16.667 13.333S30.81 43.333 40 43.333c9.19 0 16.667-5.981 16.667-13.333S49.19 16.667 40 16.667z"/></g></g></g><g><g><g><path fill="#48467f" d="M24.038 40h-5.705a5 5 0 0 1-4.633-3.14 5 5 0 0 0-3.7 4.807 5 5 0 0 0 5 5h3.015a32.687 32.687 0 0 1 6.343-6.31c-.111-.117-.213-.239-.32-.357z"/></g></g></g><g><g><g><path fill="#48467f" d="M20 30c0-1.123.136-2.243.403-3.333h-2.07c-.92 0-1.666.746-1.666 1.666V35c0 .92.746 1.667 1.666 1.667h3.349A14.252 14.252 0 0 1 20 30z"/></g></g></g><g><g><g><path fill="#48467f" d="M63.783 57.057a32.54 32.54 0 0 0-10.736-14.452c-.167.115-.32.235-.485.347l3.38 18.026.313 1.667 8.293-3.553z"/></g></g></g><g><g><g><path fill="#48467f" d="M72.847 69.668L65.5 62.315l-7.963 3.412 2.253 6.758a1.238 1.238 0 0 0 2.413-.39V70a1.667 1.667 0 0 1 2.525-1.428l6.119 3.666a1.642 1.642 0 0 0 2-2.57z"/></g></g></g><g><g><g><path fill="#48467f" d="M88.333 25A3.333 3.333 0 0 0 85 28.333V30a3.333 3.333 0 0 0 3.333 3.333v3.334A6.667 6.667 0 0 1 81.667 30v-1.667a6.667 6.667 0 0 1 6.666-6.666zM76.667 50C72.928 50 70 47.803 70 45s2.928-5 6.667-5c3.738 0 6.666 2.197 6.666 5s-2.928 5-6.666 5zm-10-38.333A3.333 3.333 0 0 0 70 15h3.333a3.333 3.333 0 0 0 3.334-3.333H80a6.667 6.667 0 0 1-6.667 6.666H70a6.667 6.667 0 0 1-6.667-6.666zm-3.334-5h3.334V10h-3.334zm9.888-3.16A26.67 26.67 0 0 0 70 3.333a26.77 26.77 0 0 0-21.86 11.459 18.731 18.731 0 0 1 10.178 8.541h3.349a5 5 0 0 1 5 5V35a5 5 0 0 1-5 5h-5.705c-.115.128-.225.258-.344.383 5.1 4.047 9.001 9.405 11.287 15.5l.227.609c14.63 1.681 27.855-8.816 29.537-23.448 1.682-14.63-8.816-27.855-23.448-29.537z"/></g></g></g><g><g><g><path fill="#48467f" d="M73 45c0-1.105 1.567-2 3.5-2s3.5.895 3.5 2-1.567 2-3.5 2-3.5-.895-3.5-2z"/></g></g></g><g><g><g><path fill="#48467f" d="M61.667 26.667h-2.07c.267 1.09.403 2.21.403 3.333a14.252 14.252 0 0 1-1.682 6.667h3.349c.92 0 1.666-.747 1.666-1.667v-6.667c0-.92-.746-1.666-1.666-1.666z"/></g></g></g><g><g><g><path fill="#48467f" d="M3 3V0h4v3z"/></g></g></g><g><g><g><path fill="#48467f" d="M0 7V3h3v4z"/></g></g></g><g><g><g><path fill="#48467f" d="M7 7V3h3v4z"/></g></g></g><g><g><g><path fill="#48467f" d="M3 10V7h4v3z"/></g></g></g><g><g><g><path fill="#48467f" d="M33 5V2h4v3z"/></g></g></g><g><g><g><path fill="#48467f" d="M93 57v-4h4v4z"/></g></g></g><g><g><g><path fill="#48467f" d="M90 60v-3h3v3z"/></g></g></g><g><g><g><path fill="#48467f" d="M97 60v-3h3v3z"/></g></g></g><g><g><g><path fill="#48467f" d="M93 63v-3h4v3z"/></g></g></g><g><g><g><path fill="#48467f" d="M82 93v-3h3v3z"/></g></g></g><g><g><g><path fill="#48467f" d="M78 97v-4h4v4z"/></g></g></g><g><g><g><path fill="#48467f" d="M85 97v-4h3v4z"/></g></g></g><g><g><g><path fill="#48467f" d="M82 100v-3h3v3z"/></g></g></g></g></g></svg>