<svg xmlns="http://www.w3.org/2000/svg" width="27" height="29" viewBox="0 0 27 29"><g><g><path fill="#48467f" d="M19.668 13.502c-1.24 2.833-3.943 5.202-6.565 5.202-3.201 0-5.526-2.342-6.766-5.173-7.209 3.734-6.3 13.184-6.3 13.184 0 1.294 1.019 1.481 2.216 1.481h21.681c1.2 0 2.222-.188 2.222-1.481 0 0 .72-9.478-6.488-13.213z"/></g><g><path fill="#48467f" d="M13.102 17.168c3.61 0 6.48-5.167 6.48-9.436 0-4.27-2.926-7.732-6.536-7.732-3.61 0-6.538 3.461-6.538 7.732 0 4.27 2.983 9.436 6.594 9.436z"/></g></g></svg>