<svg xmlns="http://www.w3.org/2000/svg" width="28" height="29" viewBox="0 0 28 29"><g><g><path fill="#48447f" d="M28.098 22.268c0 .36-.067.831-.2 1.412-.134.58-.274 1.038-.42 1.372-.281.667-1.095 1.375-2.444 2.123-1.255.68-2.496 1.02-3.725 1.02-.36 0-.71-.023-1.051-.07a8.655 8.655 0 0 1-1.151-.25 16.35 16.35 0 0 1-.952-.29c-.207-.073-.577-.21-1.111-.41-.534-.2-.861-.32-.981-.361-1.309-.467-2.477-1.021-3.505-1.662-1.709-1.055-3.474-2.493-5.297-4.316-1.822-1.822-3.26-3.588-4.315-5.296-.641-1.028-1.195-2.197-1.662-3.505-.04-.12-.16-.447-.36-.981a78.76 78.76 0 0 1-.411-1.112c-.074-.207-.17-.524-.29-.95A8.658 8.658 0 0 1-.029 7.84c-.047-.34-.07-.691-.07-1.052 0-1.228.34-2.47 1.021-3.725C1.671 1.715 2.378.901 3.046.62 3.38.473 3.836.333 4.418.2 4.998.066 5.469 0 5.83 0c.186 0 .327.02.42.06.24.08.594.587 1.061 1.522.147.253.348.614.601 1.08.254.468.487.892.701 1.273.214.38.42.737.62 1.071.041.053.158.22.351.5.194.281.337.518.43.712.094.193.141.383.141.57 0 .267-.19.601-.57 1.002-.381.4-.795.767-1.242 1.101-.448.334-.861.688-1.242 1.061-.38.374-.57.681-.57.922 0 .12.033.27.1.45.066.18.123.317.17.41.046.094.14.254.28.481.14.227.217.354.23.38 1.015 1.83 2.177 3.398 3.485 4.707 1.308 1.308 2.877 2.47 4.706 3.484.027.014.153.09.38.23s.388.234.481.281c.093.047.23.103.41.17.18.067.331.1.451.1.24 0 .548-.19.921-.57.374-.38.728-.795 1.062-1.242a9.76 9.76 0 0 1 1.101-1.242c.4-.38.734-.57 1.001-.57.187 0 .378.046.571.14.194.093.43.237.711.43.28.194.447.31.5.35.334.201.692.408 1.072.622.38.213.804.447 1.272.7.467.254.827.454 1.081.601.935.468 1.442.821 1.522 1.062.04.093.06.233.06.42z"/></g></g></svg>