<svg xmlns="http://www.w3.org/2000/svg" width="100" height="100" viewBox="0 0 100 100"><g><g><g><g><g><path fill="#48447f" d="M77 47a5 5 0 1 1 10 0 5 5 0 0 1-10 0z"/></g></g></g><g><g><g><path fill="#48447f" d="M82.068 55.27a8.374 8.374 0 1 1 8.375-8.374 8.384 8.384 0 0 1-8.375 8.374zm-10.54 4.534l-2.368-2.368 3.35-3.35 2.368 2.369zm-6.699 6.7l-2.368-2.369 3.35-3.35 2.368 2.369zm24.989-34.682a24.955 24.955 0 0 0-17.764 7.36L47.59 63.645l16.113 16.112 25.17-22.778a25.16 25.16 0 0 0 8.27-18.625v-6.532z"/></g></g></g><g><g><g><path fill="#48447f" d="M79.17 70.282L64.793 83.288l-1.15 1.148V95.3l13.043-10.596a11.11 11.11 0 0 0 2.482-14.422z"/></g></g></g><g><g><g><path fill="#48447f" d="M43.546 81.087l-2.565 2.566c.849.053 1.703.09 2.565.09.838 0 1.692-.042 2.556-.1z"/></g></g></g><g><g><g><path fill="#48447f" d="M42.481 49.933h.007L30.483 63.645h12.363l1.185-1.184 13.847-13.848a11.14 11.14 0 0 0-15.397 1.32z"/></g></g></g><g><g><g><path fill="#48447f" d="M38.522 76.062l-6.102 6.102c1.421.411 2.864.742 4.321.991l4.437-4.436z"/></g></g></g><g><g><g><path fill="#48447f" d="M55.267 88.072L39.212 72.017l6.005-6.006 16.056 16.056z"/></g></g></g><g><g><g><path fill="#48447f" d="M18.424 30.147h-3.35v-3.35h3.35zM26.128 13.4h32.66a11.644 11.644 0 0 0 7.67-2.901C48.232-2.162 23.19 2.351 10.53 20.578a40.185 40.185 0 0 0-6.61 29.668H18.59a1.675 1.675 0 0 0 0-3.35h-5.025a6.7 6.7 0 0 1 0-13.399h34.335a4.187 4.187 0 1 0 0-8.374H26.128a5.862 5.862 0 1 1 0-11.724z"/></g></g></g><g><g><g><path fill="#48447f" d="M70.344 30.147h-6.7a5.025 5.025 0 1 1 0-10.049h6.7a5.025 5.025 0 1 1 0 10.05zm-36.847 16.75h-3.35v-3.35h3.35zM69.184 12.56a14.997 14.997 0 0 1-10.396 4.188h-32.66a2.512 2.512 0 0 0 0 5.024H47.9a7.537 7.537 0 0 1 0 15.074H13.566a3.35 3.35 0 1 0 0 6.7h5.025a5.025 5.025 0 1 1 0 10.049H4.623a40.364 40.364 0 0 0 24.262 27.367l7.269-7.27-.491-.49a1.675 1.675 0 0 1 0-2.368l3.84-3.84H26.798a1.675 1.675 0 0 1-1.26-2.78l14.43-16.481c5.214-5.968 14.26-6.629 20.287-1.483l9.43-9.43a28.33 28.33 0 0 1 11.601-7.035A40.03 40.03 0 0 0 69.184 12.56z"/></g></g></g><g><g><g><path fill="#48447f" d="M70.344 23.448h-6.7a1.675 1.675 0 0 0 0 3.35h6.7a1.675 1.675 0 0 0 0-3.35z"/></g></g></g><g><g><g><path fill="#48447f" d="M77 4V0h3v4z"/></g></g></g><g><g><g><path fill="#48447f" d="M93 82v-3h4v3z"/></g></g></g><g><g><g><path fill="#48447f" d="M91 85v-3h2v3z"/></g></g></g><g><g><g><path fill="#48447f" d="M97 85v-3h3v3z"/></g></g></g><g><g><g><path fill="#48447f" d="M93 89v-4h4v4z"/></g></g></g><g><g><g><path fill="#48447f" d="M16.254 98.328l-2.368-2.368 13.89-13.89 2.368 2.369z"/></g></g></g><g><g><g><path fill="#48447f" d="M24.628 100l-2.369-2.369 10.886-10.886 2.369 2.369z"/></g></g></g><g><g><g><path fill="#48447f" d="M36.355 98.318l-2.368-2.368 4.188-4.188 2.368 2.369z"/></g></g></g><g><g><g><path fill="#48447f" d="M93 10V7h4v3z"/></g></g></g><g><g><g><path fill="#48447f" d="M91 13v-3h2v3z"/></g></g></g><g><g><g><path fill="#48447f" d="M97 13v-3h3v3z"/></g></g></g><g><g><g><path fill="#48447f" d="M93 17v-4h4v4z"/></g></g></g><g><g><g><path fill="#48447f" d="M0 77v-3h4v3z"/></g></g></g></g></g></svg>