<?xml version="1.0" encoding="utf-8"?><svg xmlns="http://www.w3.org/2000/svg" xmlns:xlink="http://www.w3.org/1999/xlink"><symbol viewBox="0 0 20 20" id="basket" xmlns="http://www.w3.org/2000/svg"><path fill-rule="evenodd" clip-rule="evenodd" d="M18.997 0l1 17.89a2.004 2.004 0 01-1.897 2.107c-.056.003-.056.003-.112.003H2.011A2.006 2.006 0 010 18c0-.055 0-.055.003-.11l1-17.89h17.994zM2.905 2l-.894 16h15.977l-.893-16H2.905zm2.066 2h2.012v2.5C6.983 7.748 8.376 9 10 9c1.624 0 3.017-1.252 3.017-2.5V4h2.012v2.5c0 2.4-2.337 4.5-5.029 4.5-2.692 0-5.029-2.1-5.029-4.5V4z"/></symbol><symbol viewBox="0 0 22 21" id="favor" xmlns="http://www.w3.org/2000/svg"><path fill-rule="evenodd" clip-rule="evenodd" d="M12.103.696C13.173.172 14.106 0 15.553 0 19.258.015 22 3.14 22 7.12c0 3.038-1.694 5.972-4.849 8.81-1.656 1.49-3.77 2.963-5.285 3.747l-.866.45-.866-.45c-1.515-.784-3.63-2.258-5.285-3.747C1.694 13.092 0 10.158 0 7.12 0 3.097 2.716 0 6.455 0 7.85 0 8.83.189 9.922.728a6.3 6.3 0 011.068.668 6.166 6.166 0 011.113-.7zm3.71 13.747C18.587 11.949 20 9.5 20 7.12c0-2.931-1.912-5.11-4.45-5.12-1.163 0-1.804.118-2.568.492a4.18 4.18 0 00-1.25.936l-.73.79-.736-.784a4.265 4.265 0 00-1.23-.913C8.247 2.13 7.563 2 6.454 2 3.884 2 2 4.148 2 7.12c0 2.38 1.414 4.83 4.186 7.323 1.512 1.36 3.455 2.718 4.814 3.43 1.359-.712 3.302-2.07 4.814-3.43z"/></symbol><symbol viewBox="0 0 20 20" id="inst-icon" xmlns="http://www.w3.org/2000/svg"><path fill-rule="evenodd" clip-rule="evenodd" d="M6 0h8a6 6 0 016 6v8a6 6 0 01-6 6H6a6 6 0 01-6-6V6a6 6 0 016-6zm0 2a4 4 0 00-4 4v8a4 4 0 004 4h8a4 4 0 004-4V6a4 4 0 00-4-4H6zm4 13a5 5 0 110-10 5 5 0 010 10zm0-2a3 3 0 100-6 3 3 0 000 6zm5-7a1 1 0 110-2 1 1 0 010 2z"/></symbol><symbol viewBox="0 0 20 21" id="like-bad" xmlns="http://www.w3.org/2000/svg"><path fill-rule="evenodd" clip-rule="evenodd" d="M4.57 12.919A2 2 0 014 13H2a2 2 0 01-2-2V2a2 2 0 012-2h2a2 2 0 011.653.874c.303-.196.642-.36 1.01-.492A6.702 6.702 0 019 .001h7c2.755 0 4 4.057 4 10 0 1.683-1.13 3-3 3h-3.073l.028.076c.052.142.284.75.342.905.19.51.329.922.441 1.33.17.615.262 1.17.262 1.69 0 1.471-.908 2.386-2.252 2.777-.606.176-1.133.222-1.74.222h-.487l-.3-.374c-.965-1.2-4.575-5.143-5.65-6.708zM6 11c0 .24.044.453.142.68.265.619 3.772 4.457 5.318 6.305a3.48 3.48 0 00.73-.128c.572-.166.81-.406.81-.857 0-.316-.064-.702-.19-1.158a13.872 13.872 0 00-.387-1.162l-.344-.91a8.111 8.111 0 01-.274-.846c-.25-1 0-1.924 1.195-1.924h4c.691 0 1-.36 1-1 0-4.79-.985-8-2-8H8.966a4.814 4.814 0 00-1.63.265C6.453 2.583 6 3.1 6 4.001v7zM2 2v9h2V2H2z"/></symbol><symbol viewBox="0 0 20 21" id="like-good" xmlns="http://www.w3.org/2000/svg"><path fill-rule="evenodd" clip-rule="evenodd" d="M5.653 19.127C5.293 19.655 4.687 20 4 20H2a2 2 0 01-2-2V9a2 2 0 012-2h2a2 2 0 01.57.083c1.074-1.565 4.685-5.508 5.65-6.71l.3-.374H11c.615 0 1.142.046 1.748.223C14.092.614 15 1.528 15 3c0 .52-.092 1.075-.262 1.69-.112.408-.25.819-.44 1.33l-.343.905c-.01.025-.02.05-.028.075H17c1.87 0 3 1.318 3 3 0 5.944-1.245 10-4 10H9.034a6.742 6.742 0 01-2.37-.382 4.884 4.884 0 01-1.01-.491zM6 16c0 .902.452 1.419 1.337 1.735a4.812 4.812 0 001.626.266H16c1.015 0 2-3.21 2-8 0-.64-.309-1-1-1h-4c-1.194 0-1.444-.924-1.195-1.924a8.11 8.11 0 01.274-.846c.057-.154.29-.765.344-.91.171-.46.293-.821.387-1.162.126-.456.19-.842.19-1.159 0-.45-.238-.69-.81-.857a3.5 3.5 0 00-.73-.128C9.914 3.863 6.407 7.702 6.142 8.32A1.65 1.65 0 006 9v7zM2 9.001v9h2v-9H2z"/></symbol><symbol viewBox="0 0 22 22" id="login-icon" xmlns="http://www.w3.org/2000/svg"><path fill-rule="evenodd" clip-rule="evenodd" d="M5.035 17.74A8.966 8.966 0 0011 20a8.966 8.966 0 005.965-2.26C16.672 16.687 14.569 16 11 16c-3.57 0-5.672.687-5.965 1.74zM3.6 16.125C4.726 14.638 7.37 14 11 14c3.63 0 6.274.638 7.4 2.125a9 9 0 10-14.799 0zM11 22C4.925 22 0 17.075 0 11S4.925 0 11 0s11 4.925 11 11-4.925 11-11 11zM7 9c0-2.244 1.58-4 4-4 2.414 0 4 1.922 4 4.2 0 3.28-1.782 4.8-4 4.8-2.24 0-4-1.573-4-5zm2 0c0 2.27.818 3 2 3 1.178 0 2-.702 2-2.8 0-1.25-.784-2.2-2-2.2-1.266 0-2 .816-2 2z"/></symbol><symbol viewBox="0 0 81 81" id="paypal" xmlns="http://www.w3.org/2000/svg"><path d="M62.614 35.55h-4.371c-.258 0-.515.257-.643.514L55.8 47.38c0 .257.128.385.386.385H58.5c.257 0 .386-.128.386-.385l.514-3.215c0-.257.257-.514.643-.514h1.414c2.957 0 4.628-1.414 5.014-4.243.257-1.157 0-2.185-.514-2.828-.771-.643-1.929-1.029-3.343-1.029zm.514 4.243c-.257 1.543-1.414 1.543-2.571 1.543h-.772l.515-2.957c0-.129.128-.258.386-.258h.257c.771 0 1.543 0 1.928.515.257.128.257.514.257 1.157zM31.114 35.55h-4.371c-.258 0-.515.257-.643.514L24.3 47.38c0 .257.128.385.386.385h2.057c.257 0 .514-.257.643-.514l.514-3.086c0-.257.257-.514.643-.514h1.414c2.957 0 4.629-1.414 5.014-4.243.257-1.157 0-2.185-.514-2.828-.772-.643-1.8-1.029-3.343-1.029zm.514 4.243c-.257 1.543-1.414 1.543-2.571 1.543h-.643l.514-2.957c0-.129.129-.258.386-.258h.257c.772 0 1.543 0 1.929.515.128.128.257.514.128 1.157zm12.728-.129H42.3c-.128 0-.385.129-.385.258l-.129.642-.128-.257c-.515-.643-1.415-.9-2.443-.9-2.315 0-4.372 1.8-4.758 4.243-.257 1.286.13 2.443.772 3.214.643.772 1.543 1.029 2.7 1.029 1.928 0 2.957-1.157 2.957-1.157l-.128.643c0 .257.128.385.385.385h1.929c.257 0 .514-.257.643-.514l1.157-7.2c-.129-.128-.386-.386-.515-.386zM41.4 43.78c-.257 1.157-1.157 2.057-2.443 2.057-.642 0-1.157-.257-1.414-.514-.257-.386-.386-.9-.386-1.543.13-1.158 1.158-2.058 2.315-2.058.643 0 1.028.258 1.414.515.386.386.514 1.028.514 1.543zm34.329-4.116H73.67c-.128 0-.385.129-.385.258l-.129.642-.128-.257c-.515-.643-1.415-.9-2.443-.9-2.315 0-4.372 1.8-4.757 4.243-.258 1.286.128 2.443.771 3.214.643.772 1.543 1.029 2.7 1.029 1.929 0 2.957-1.157 2.957-1.157l-.128.643c0 .257.128.385.385.385h1.929c.257 0 .514-.257.643-.514l1.157-7.2c-.129-.128-.257-.386-.514-.386zM72.77 43.78c-.257 1.157-1.157 2.057-2.442 2.057-.643 0-1.158-.257-1.415-.514-.257-.386-.385-.9-.385-1.543.128-1.158 1.157-2.058 2.314-2.058.643 0 1.028.258 1.414.515.514.386.643 1.028.514 1.543zm-17.227-4.116h-2.186c-.257 0-.386.129-.514.257l-2.829 4.372-1.286-4.114c-.128-.258-.257-.386-.643-.386h-2.057c-.257 0-.385.257-.385.514l2.314 6.814-2.186 3.086c-.128.257 0 .643.257.643h2.057c.258 0 .386-.129.515-.257l7.071-10.157c.386-.386.129-.772-.128-.772zm22.628-3.728l-1.8 11.571c0 .257.129.386.386.386h1.8c.257 0 .514-.257.643-.514L81 36.064c0-.257-.129-.385-.386-.385h-2.057c-.129-.129-.257 0-.386.257zm-63.385-4.243c-.9-1.029-2.572-1.543-4.886-1.543H3.471c-.385 0-.771.386-.9.771L0 47.764c0 .386.257.643.514.643H4.5l1.029-6.3v.257c.128-.386.514-.771.9-.771h1.928c3.729 0 6.557-1.543 7.457-5.786v-.386c-.128 0-.128 0 0 0 .129-1.671-.128-2.7-1.028-3.728z"/><path d="M15.686 35.421v.386c-.9 4.371-3.729 5.786-7.457 5.786H6.3c-.386 0-.771.385-.9.771l-1.286 7.843c0 .257.129.514.515.514H7.97c.386 0 .772-.257.772-.642v-.129l.643-3.986v-.257c0-.386.385-.643.771-.643h.514c3.215 0 5.786-1.285 6.429-5.143.257-1.542.128-2.957-.643-3.857a1.317 1.317 0 00-.771-.643z"/><path d="M14.786 35.036c-.13 0-.258-.129-.386-.129-.129 0-.257 0-.386-.128-.514-.13-1.028-.13-1.671-.13H7.328c-.128 0-.257 0-.385.13a.707.707 0 00-.386.642l-1.029 6.686v.257c.129-.386.515-.771.9-.771h1.929c3.729 0 6.557-1.543 7.457-5.786 0-.129 0-.257.129-.386-.258-.128-.386-.257-.643-.257-.386-.128-.386-.128-.514-.128z"/></symbol><symbol viewBox="0 0 20 19" id="star" xmlns="http://www.w3.org/2000/svg"><path d="M10 0l2.245 6.91h7.266l-5.878 4.27 2.245 6.91L10 13.82l-5.878 4.27 2.245-6.91L.49 6.91h7.266L10 0z"/></symbol><symbol viewBox="0 0 20 19" id="star-grey" xmlns="http://www.w3.org/2000/svg"><path d="M10 0l2.245 6.91h7.266l-5.878 4.27 2.245 6.91L10 13.82l-5.878 4.27 2.245-6.91L.49 6.91h7.266L10 0z"/></symbol><symbol viewBox="0 0 59 59" id="visa" xmlns="http://www.w3.org/2000/svg"><g clip-path="url(#jclip0)"><path d="M21.634 37.975l2.997-16.857h4.682L26.41 37.975h-4.776z"/><path d="M21.634 37.975l3.84-16.857h3.84L26.41 37.975h-4.776zM43.36 21.306c-.936-.375-2.434-.75-4.307-.75-4.683 0-8.054 2.342-8.054 5.713 0 2.529 2.341 3.84 4.214 4.683 1.873.842 2.435 1.404 2.435 2.154 0 1.123-1.498 1.685-2.81 1.685-1.872 0-2.903-.28-4.495-.936l-.655-.281-.656 3.84c1.124.468 3.184.936 5.338.936 4.964 0 8.242-2.341 8.242-5.9 0-1.967-1.218-3.465-4.027-4.683-1.686-.842-2.716-1.31-2.716-2.154 0-.749.843-1.498 2.716-1.498 1.592 0 2.715.281 3.558.656l.469.187.749-3.652z"/><path d="M43.36 21.306c-.936-.375-2.434-.75-4.307-.75-4.683 0-7.211 2.342-7.211 5.713 0 2.529 1.498 3.84 3.371 4.683 1.873.842 2.435 1.404 2.435 2.154 0 1.123-1.498 1.685-2.81 1.685-1.872 0-2.903-.28-4.495-.936l-.655-.281-.656 3.84c1.124.468 3.184.936 5.338.936 4.964 0 8.242-2.341 8.242-5.9 0-1.967-1.218-3.465-4.027-4.683-1.686-.842-2.716-1.31-2.716-2.154 0-.749.843-1.498 2.716-1.498 1.592 0 2.715.281 3.558.656l.469.187.749-3.652zm8.054-.188c-1.124 0-1.967.094-2.435 1.218l-7.024 15.64h5.057l.937-2.81h5.993l.562 2.81H59l-3.933-16.858h-3.652zM49.26 32.356c.28-.842 1.873-4.963 1.873-4.963s.374-1.03.655-1.686l.281 1.592s.937 4.215 1.124 5.151H49.26v-.094z"/><path d="M52.538 21.118c-1.124 0-1.967.094-2.435 1.218l-8.148 15.64h5.057l.937-2.81h5.993l.562 2.81H59l-3.933-16.858h-2.528zM49.26 32.356c.374-.936 1.873-4.963 1.873-4.963s.374-1.03.655-1.686l.281 1.592s.937 4.215 1.124 5.151H49.26v-.094zm-36.243.562l-.468-2.435c-.843-2.81-3.559-5.9-6.556-7.398l4.214 14.984h5.058l7.585-16.857h-5.057l-4.776 11.706z"/><path d="M13.017 32.918l-.468-2.435c-.843-2.81-3.559-5.9-6.556-7.398l4.214 14.984h5.058l7.585-16.857h-4.12l-5.713 11.706z"/><path d="M0 21.118l.843.188c5.994 1.404 10.114 4.963 11.706 9.177l-1.685-7.96c-.282-1.124-1.124-1.405-2.154-1.405H0z"/><path d="M0 21.118c5.994 1.405 10.957 5.058 12.55 9.272l-1.593-6.65c-.28-1.123-1.217-1.779-2.247-1.779L0 21.118z"/><path d="M0 21.118c5.994 1.405 10.957 5.058 12.55 9.272l-1.125-3.652c-.28-1.124-.655-2.248-1.966-2.716L0 21.118z"/><path d="M17.7 32.356l-3.184-3.184-1.499 3.559-.374-2.341c-.843-2.81-3.56-5.9-6.556-7.399L10.3 37.975h5.057l2.342-5.619zm8.709 5.619l-4.027-4.12-.75 4.12h4.777zm10.77-5.806c.374.375.562.656.468 1.03 0 1.124-1.498 1.686-2.81 1.686-1.872 0-2.903-.281-4.495-.937l-.655-.28-.656 3.839c1.124.468 3.184.937 5.338.937 2.997 0 5.432-.843 6.837-2.342l-4.027-3.933zm5.431 5.806h4.402l.936-2.81h5.994l.562 2.81h4.495l-1.592-6.836-5.619-5.432.281 1.498s.937 4.215 1.124 5.151H49.26c.374-.936 1.873-4.963 1.873-4.963s.374-1.03.655-1.686"/></g><defs><clipPath id="jclip0"><path d="M0 0h59v59H0z"/></clipPath></defs></symbol><symbol viewBox="0 0 27 27" id="vk-icon" xmlns="http://www.w3.org/2000/svg"><g clip-path="url(#kclip0)"><path d="M13.663 21.938c3.906 0 2.513-2.473 2.815-3.184-.005-.531-.01-1.042.009-1.353.247.07.831.366 2.037 1.538 1.862 1.88 2.338 2.998 3.842 2.998h2.769c.877 0 1.334-.363 1.562-.668.22-.294.437-.812.2-1.617-.617-1.94-4.22-5.29-4.443-5.642a3.2 3.2 0 01.116-.197h-.003c.712-.94 3.425-5.005 3.824-6.632a.022.022 0 00.003-.01c.216-.742.018-1.223-.187-1.495-.308-.408-.799-.614-1.462-.614h-2.768c-.927 0-1.63.467-1.986 1.319-.595 1.513-2.267 4.625-3.52 5.726a72.124 72.124 0 01.008-3.637c.04-1.727.171-3.408-1.621-3.408h-4.352c-1.122 0-2.197 1.227-1.034 2.683 1.018 1.275.366 1.986.585 5.526-.854-.917-2.376-3.394-3.451-6.558-.301-.856-.758-1.65-2.044-1.65H1.793C.671 5.064 0 5.677 0 6.702c0 2.301 5.095 15.236 13.663 15.236zM4.562 6.75c.244 0 .269 0 .45.514 1.101 3.244 3.572 8.043 5.376 8.043 1.356 0 1.356-1.39 1.356-1.913l-.001-4.164c-.075-1.378-.576-2.065-.906-2.481l3.947.005c.002.019-.023 4.606.01 5.718 0 1.578 1.254 2.483 3.21.503 2.065-2.33 3.492-5.813 3.55-5.955.084-.202.157-.271.423-.271h2.78c-.001.003-.001.007-.003.01-.253 1.181-2.751 4.946-3.587 6.114a.976.976 0 00-.038.057c-.368.6-.668 1.264.05 2.198h.001c.066.079.236.263.483.52.77.794 3.409 3.51 3.643 4.59-.155.024-.324.006-2.94.012-.557 0-.992-.832-2.654-2.509-1.494-1.453-2.463-2.047-3.347-2.047-1.714 0-1.59 1.392-1.573 3.075.005 1.824-.006 1.247.006 1.362-.1.04-.387.118-1.135.118-7.138 0-11.787-11.33-11.965-13.495.062-.006.913-.003 2.864-.004z"/></g><defs><clipPath id="kclip0"><path d="M0 0h27v27H0z"/></clipPath></defs></symbol><symbol viewBox="0 0 22 22" id="whatsup-icon" xmlns="http://www.w3.org/2000/svg"><g clip-path="url(#lclip0)"><path d="M16.048 13.115l-.008.069c-2.016-1.005-2.227-1.139-2.487-.748-.18.27-.707.883-.865 1.065-.16.178-.32.192-.593.068-.275-.137-1.157-.426-2.202-1.36-.814-.73-1.36-1.623-1.522-1.898-.268-.464.293-.53.805-1.498.092-.193.045-.344-.023-.48-.069-.138-.616-1.486-.845-2.023-.22-.535-.447-.467-.616-.467-.528-.046-.914-.039-1.254.315-1.48 1.626-1.107 3.304.16 5.088 2.487 3.256 3.813 3.855 6.236 4.688.655.208 1.252.178 1.724.11.526-.083 1.62-.66 1.848-1.307.234-.646.234-1.182.165-1.306-.068-.124-.248-.192-.523-.316z"/><path d="M18.81 3.161C11.762-3.653.097 1.289.093 10.901c0 1.922.503 3.795 1.462 5.45L0 21.999l5.807-1.514C13.053 24.4 21.997 19.202 22 10.907a10.81 10.81 0 00-3.204-7.71l.014-.036zm1.359 7.716c-.006 6.996-7.687 11.366-13.762 7.795l-.33-.196-3.437.893.921-3.34-.219-.345c-3.78-6.017.563-13.882 7.724-13.882 2.433 0 4.716.948 6.436 2.667a8.972 8.972 0 012.667 6.408z"/></g><defs><clipPath id="lclip0"><path d="M0 0h22v22H0z"/></clipPath></defs></symbol></svg>