<svg width="64" height="64" fill="none" xmlns="http://www.w3.org/2000/svg"><g clip-path="url(#clip0)" fill="#fff" fill-opacity=".5"><path d="M59.91 25.504l-2.166 1.925-2.646-2.647 1.925-1.925a1.888 1.888 0 0 1 2.646 0c.963.722.963 1.925.24 2.647zM43.308 60.39H5.534c-.963 0-1.925-.962-1.925-1.925V5.534c0-.963.722-1.925 1.925-1.925h28.15v9.383c0 .963.722 1.925 1.925 1.925h9.383v14.677l-5.533 5.534-2.647 2.646c-.24.241-.24.482-.481.722l-2.647 7.94c-.24.722 0 1.444.481 1.925.482.481 1.203.722 1.925.481l7.94-2.646c.24 0 .481-.241.722-.482l.24-.24v12.992c0 .963-.721 1.925-1.684 1.925zm-4.09-56.06l5.293 5.293c.481.481.481 1.203.481 1.684h-7.458V3.85c.481 0 .962-.241 1.684.48zm6.977 34.887l-2.646-2.647 9.143-9.142 2.646 2.646-9.142 9.143zm-2.646 2.647l-.962.962-4.09 1.203 1.443-4.09.962-.963 2.647 2.888zM62.556 20.21c-2.165-2.165-5.774-2.165-7.94 0-.721.722-5.052 5.053-5.533 5.775V11.068c0-1.444-.481-2.888-1.684-4.09l-5.294-5.294C40.902.481 39.46 0 37.775 0H5.533C2.647 0 0 2.647 0 5.534v52.932C0 61.594 2.647 64 5.534 64h37.774c3.128 0 5.534-2.647 5.534-5.534V41.865L62.556 28.15c2.166-2.165 2.166-5.774 0-7.94z"/><path d="M9.384 22.617h26.225c.963 0 1.925-.722 1.925-1.925 0-.963-.722-1.925-1.925-1.925H9.384c-.963 0-1.925.722-1.925 1.925 0 .962.962 1.925 1.925 1.925zm0 7.458H28.15c.962 0 1.925-.722 1.925-1.925 0-.962-.722-1.924-1.925-1.924H9.384c-.963 0-1.925.721-1.925 1.924 0 .963.962 1.925 1.925 1.925zm0 7.459H28.15c.962 0 1.925-.722 1.925-1.925 0-.962-.722-1.925-1.925-1.925H9.384c-.963 0-1.925.722-1.925 1.925s.962 1.925 1.925 1.925zm20.692 5.774c0-.962-.722-1.925-1.925-1.925H9.384c-.963 0-1.925.963-1.925 1.925 0 .963.722 1.925 1.925 1.925H28.15c.962-.24 1.925-.962 1.925-1.925zm5.533 9.624H24.3c-.962 0-1.925.722-1.925 1.925 0 .963.722 1.925 1.925 1.925h11.31c.962 0 1.924-.722 1.924-1.925s-.721-1.925-1.924-1.925z"/></g><defs><clipPath id="clip0"><path fill="#fff" d="M0 0h64v64H0z"/></clipPath></defs></svg>