<svg width="75" height="35" fill="none" xmlns="http://www.w3.org/2000/svg"><g clip-path="url(#clip0)" fill="#fff" fill-opacity=".5"><path d="M72.616 30.03c-2.602 0-5.203-1.08-6.937-3.24-.433-.648-1.084-.864-1.95-.864-.868 0-1.301.216-1.952.864-1.734 1.945-4.335 3.24-6.936 3.24s-5.202-1.08-6.936-3.24c-.434-.648-1.084-.864-1.951-.864-.65 0-1.3.216-1.951.864-1.734 1.945-4.335 3.24-6.937 3.24-2.6 0-5.202-1.08-6.936-3.24-.433-.648-1.084-.864-1.95-.864-.651 0-1.301.216-1.952.864-1.734 1.945-4.335 3.24-6.936 3.24s-4.552-1.08-6.286-3.024c-.434-.648-1.084-.864-1.951-.864s-1.3.216-1.951.864c-1.734 1.945-4.335 3.24-6.936 3.24-1.301 0-2.385 1.081-2.385 2.377C-.217 33.92.867 35 2.168 35c2.818 0 5.635-.864 8.02-2.377.217-.216.65-.432.867-.648.217.216.65.432.867.648C14.306 34.136 16.907 35 19.942 35c3.035 0 5.636-.864 8.02-2.377.217-.216.65-.432.867-.648.217.216.65.432.867.648C32.081 34.136 34.682 35 37.716 35c2.819 0 5.637-.864 8.021-2.377.217-.216.65-.432.867-.648.217.216.65.432.867.648C49.856 34.136 52.457 35 55.491 35c2.818 0 5.636-.864 8.02-2.377.217-.216.65-.432.868-.648.216.216.65.432.867.648C67.63 34.136 70.23 35 73.266 35c1.3 0 2.384-1.08 2.384-2.377-.65-1.512-1.734-2.592-3.034-2.592zm0-12.962c-2.602 0-5.203-1.08-6.937-3.24-.433-.433-1.084-.865-1.734-.865-.65 0-1.3.216-1.95.864-1.735 1.945-4.336 3.241-6.937 3.241s-5.203-1.08-6.937-3.24c-.433-.433-1.083-.865-1.734-.865-.65 0-1.3.216-1.95.864-1.735 1.945-4.336 3.241-6.937 3.241s-5.202-1.08-6.936-3.24c-.434-.433-1.084-.865-1.735-.865-.65 0-1.3.216-1.95.864-1.735 1.945-4.336 3.241-6.937 3.241s-5.202-1.08-6.936-3.24c-.434-.433-1.084-.865-1.734-.865-.65 0-1.518.432-1.951.864-1.734 1.945-4.335 3.241-6.937 3.241-1.3 0-2.384 1.08-2.384 2.377 0 1.296 1.084 2.376 2.384 2.376 2.818 0 5.636-.864 8.02-2.377.217-.216.65-.432.868-.648.216.216.433.432.867.649 2.384 1.512 4.985 2.376 8.02 2.376 3.035 0 5.636-.864 8.02-2.377.217-.216.65-.432.867-.648.217.216.65.432.867.649 2.385 1.512 4.986 2.376 8.02 2.376 2.818 0 5.636-.864 8.02-2.377.217-.216.651-.432.868-.648.217.216.65.432.867.649 2.384 1.512 4.985 2.376 8.02 2.376 2.818 0 5.636-.864 8.02-2.377.217-.216.65-.432.867-.648.217.216.65.432.867.649 2.385 1.512 4.986 2.376 8.02 2.376 1.301 0 2.385-1.08 2.385-2.377-.867-1.296-1.95-2.376-3.251-2.376zM2.384 8.858c2.818 0 5.636-.864 8.02-2.377.217-.216.65-.432.868-.648.216.216.433.432.867.648 2.384 1.513 4.985 2.377 8.02 2.377 3.035 0 5.636-.864 8.02-2.377.217-.216.65-.432.867-.648.217.216.65.432.867.648 2.385 1.513 4.986 2.377 8.02 2.377 2.818 0 5.636-.864 8.02-2.377.217-.216.651-.432.868-.648.217.216.65.432.867.648 2.384 1.513 4.985 2.377 8.02 2.377 3.035 0 4.986-.864 7.37-2.377.217-.216.65-.432.867-.648.217.216.65.432.867.648 2.385 1.513 4.986 2.377 8.02 2.377 1.3 0 2.385-1.08 2.385-2.377 0-1.296-1.084-2.376-2.385-2.376-2.6 0-5.202-1.08-6.936-3.24-.65-.649-1.3-.865-1.95-.865-.651 0-1.301.216-1.952.864-1.734 1.945-4.335 3.24-6.936 3.24s-5.203-1.08-6.937-3.24C47.688.216 47.038 0 46.387 0c-.65 0-1.3.216-1.95.864-1.735 1.945-4.336 3.24-6.937 3.24s-5.202-1.08-6.936-3.24C30.13.216 29.48 0 28.829 0c-.65 0-1.3.216-1.95.864-1.735 1.945-4.336 3.24-6.937 3.24S14.74 2.81 13.006.865C12.572.216 11.922 0 11.272 0c-.65 0-1.518.216-1.951.864-1.734 1.945-4.335 3.24-6.937 3.24C1.084 4.105 0 5.186 0 6.482c0 1.297 1.084 2.377 2.384 2.377z"/></g><defs><clipPath id="clip0"><path fill="#fff" d="M0 0h75v35H0z"/></clipPath></defs></svg>