<svg width="60" height="59" fill="none" xmlns="http://www.w3.org/2000/svg"><g clip-path="url(#clip0)" fill="#fff" fill-opacity=".5"><path d="M52.357 25.258c.573-.193 1.337-.193 1.91-.193.574 0 1.338 0 1.911.193V0h-17.77v13.111h13.949v12.147zM8.599 22.559c0-1.35 1.146-2.507 2.484-2.507 1.337 0 2.484 1.157 2.484 2.507s-1.147 2.506-2.484 2.506c-1.338.193-2.484-.964-2.484-2.506zm11.465 7.134c1.528-1.928 2.484-4.435 2.484-6.941 0-6.17-4.968-11.376-11.274-11.376C4.968 11.376 0 16.389 0 22.559c0 2.7.955 5.013 2.484 6.941l8.79 11.183 8.79-10.99zm-8.79 21.595c-2.102 0-3.822 1.735-3.822 3.856 0 2.12 1.72 3.856 3.822 3.856 2.102 0 3.822-1.735 3.822-3.856 0-2.121-1.72-3.856-3.822-3.856zm41.274-9.255H31.146a3.644 3.644 0 0 1-3.63-3.664c0-1.928 1.529-3.663 3.63-3.663h15.67c-.192-.579-.192-1.35-.192-1.928 0-.579 0-1.35.191-1.928H31.147c-4.204 0-7.453 3.47-7.453 7.52 0 4.048 3.44 7.519 7.453 7.519h21.4a3.644 3.644 0 0 1 3.631 3.663c0 2.121-1.528 3.664-3.63 3.664H18.726c.191.578.191 1.35.191 1.928 0 .578 0 1.35-.19 1.928h34.012c4.204 0 7.452-3.47 7.452-7.52 0-4.049-3.44-7.52-7.643-7.52zm-2.102-9.255c0 2.12 1.72 3.856 3.822 3.856 2.101 0 3.821-1.735 3.821-3.856 0-2.121-1.72-3.856-3.822-3.856-2.102 0-3.821 1.735-3.821 3.856z"/></g><defs><clipPath id="clip0"><path fill="#fff" d="M0 0h60v59H0z"/></clipPath></defs></svg>