<svg width="549" height="415" fill="none" xmlns="http://www.w3.org/2000/svg"><path d="M183.301 48.09C237.579-3.053 320.7-7.741 380.377 36.867l-46.036 61.371c-29.839-22.304-71.329-20.031-98.468 5.54L183.301 48.09z" fill="#14ADEA"/><path d="M235.874 103.068c27.281-25.287 68.486-27.56 98.325-5.54l45.184-60.377C320.132-6.89 238.147-2.201 184.154 48.23l51.72 54.837zm98.893-4.262c-.284.142-.568.284-.852 0-29.697-22.162-70.76-19.889-97.757 5.541-.284.284-.711.284-.853 0l-52.572-55.831c-.285-.284-.285-.71 0-.853C237.437-3.764 320.558-8.452 380.662 36.44c.142.143.284.285.284.427 0 .142 0 .284-.142.426l-46.037 61.513c.142 0 .142 0 0 0z" fill="#fff"/><path d="M380.377 37.008c27.423 20.458 47.032 49.58 55.983 82.539l-74.028 20.173c-4.405-16.479-14.351-30.969-27.991-41.34l46.036-61.371z" fill="#DEDFE0"/><path d="M362.901 138.868l72.749-19.747c-8.81-32.248-28.418-61.087-55.13-81.26l-45.185 60.377c13.215 10.086 23.019 24.435 27.566 40.63zm74.028-18.895c-.143 0-.143.142-.285.142l-74.028 20.173h-.426c-.142-.142-.284-.284-.284-.426-4.405-16.337-14.209-30.827-27.849-40.914-.142-.142-.285-.284-.285-.426 0-.142 0-.284.143-.426l46.036-61.372c.142-.284.568-.284.853-.142 27.423 20.457 47.315 49.864 56.267 82.965 0 0 0 .284-.142.426z" fill="#fff"/><path d="M436.361 119.547c12.93 47.876 1.989 99.019-29.554 137.376l-59.251-48.586c15.771-19.179 21.171-44.75 14.777-68.759l74.028-20.031z" fill="#CFE3F2"/><path d="M348.549 208.195l58.257 47.733c30.833-37.931 41.773-88.505 29.128-135.67l-72.75 19.747c6.252 23.724.711 49.154-14.635 68.19zm58.825 49.154c-.284.284-.569.284-.853 0l-59.25-48.586c-.143-.142-.143-.284-.285-.426 0-.142 0-.284.142-.426 15.63-19.037 21.029-44.466 14.636-68.048-.143-.285.142-.711.426-.853l74.028-20.173h.426c.142.142.284.284.284.426 13.072 48.018 1.989 99.587-29.554 138.086z" fill="#fff"/><path d="M406.948 256.923c-53.709 65.491-150.329 75.151-215.832 21.451-51.01-41.766-69.481-111.662-45.895-173.317l71.613 27.276c-15.204 39.494 4.689 83.817 44.189 99.018 30.833 11.792 65.787 2.557 86.674-23.014l59.251 48.586z" fill="#41BAAA"/><path d="M145.506 105.909c-23.16 61.372-4.831 130.415 45.895 172.039 64.934 53.274 160.986 43.756 214.553-20.883l-58.256-47.733a72.634 72.634 0 0 1-6.394 6.819c-21.455 20.173-52.573 26.566-80.564 15.911-19.324-7.388-34.528-21.736-42.911-40.63-8.383-18.611-8.951-39.352-1.847-58.531l-70.476-26.992zm248.228 166.073c-55.556 52.279-142.656 56.399-203.186 6.961-51.294-42.051-69.907-111.946-46.036-174.028.142-.284.426-.426.852-.426l71.613 27.418c.142 0 .284.142.426.284 0 .142.142.284 0 .426-7.247 19.037-6.678 39.636 1.563 58.104 8.241 18.469 23.302 32.675 42.2 39.92 30.691 11.649 65.219 2.557 85.964-22.872.284-.284.568-.284.852-.142l59.251 48.586c.142.142.142.284.284.426 0 .142 0 .284-.142.426-4.263 5.54-8.81 10.371-13.641 14.917z" fill="#fff"/><path d="M145.079 105.057c4.547-12.076 10.657-23.44 18.187-33.953l62.519 44.324c-3.694 5.256-6.82 10.938-9.093 17.047l-71.613-27.418z" fill="#3AB0D5"/><path d="M145.931 104.631l70.476 26.85c2.273-5.683 5.115-11.081 8.525-16.053l-61.524-43.614c-7.104 10.229-12.93 21.31-17.477 32.817zm71.329 28.27c-.143.142-.427.285-.711.142l-71.612-27.418c-.142 0-.284-.142-.427-.284 0-.142-.142-.284 0-.426 4.689-12.076 10.799-23.583 18.33-34.095.142-.284.568-.427.852-.142L226.211 115c.142.142.284.284.284.427 0 .142 0 .284-.142.426-3.694 5.256-6.678 10.939-8.951 16.905-.142 0-.142 0-.142.142z" fill="#fff"/><path d="M163.267 71.104c5.825-8.24 12.645-16.053 20.034-23.014l52.573 55.831c-3.695 3.551-7.105 7.387-9.946 11.507l-62.661-44.324z" fill="#6AA84B"/><path d="M164.261 70.962l61.524 43.613c2.7-3.836 5.826-7.387 9.236-10.655l-51.578-54.836c-7.104 6.535-13.64 13.922-19.182 21.878zm62.093 44.892c-.284.142-.569.284-.853 0L162.982 71.53c-.142-.142-.284-.284-.284-.426 0-.142 0-.284.142-.426a155.194 155.194 0 0 1 20.035-23.015c.284-.284.71-.284.852 0l52.573 55.831c.284.284.284.711 0 .853-3.694 3.551-6.962 7.387-9.946 11.507z" fill="#fff"/><path d="M429.622 10.402h-4.17L424.516 13h-1.354l3.801-9.953h1.148L431.919 13h-1.347l-.95-2.598zm-3.773-1.08h3.383l-1.695-4.655-1.688 4.655zm6.911-.082c0-1.153.266-2.069.8-2.748.533-.683 1.239-1.025 2.119-1.025.902 0 1.606.319 2.112.957l.061-.82h1.156v7.218c0 .957-.285 1.712-.855 2.263-.565.551-1.326.827-2.283.827a3.8 3.8 0 0 1-1.565-.342c-.511-.228-.9-.54-1.169-.936l.656-.759c.542.67 1.205 1.005 1.989 1.005.615 0 1.094-.173 1.436-.52.346-.346.519-.834.519-1.462v-.636c-.506.583-1.196.875-2.071.875-.866 0-1.568-.349-2.105-1.046-.534-.697-.8-1.648-.8-2.85zm1.271.144c0 .834.171 1.49.513 1.968.342.474.82.711 1.435.711.798 0 1.384-.362 1.757-1.086V7.6c-.387-.707-.968-1.06-1.743-1.06-.615 0-1.096.24-1.442.718-.347.478-.52 1.187-.52 2.126zm10.466-2.646a3.788 3.788 0 0 0-.622-.048c-.829 0-1.392.354-1.689 1.06V13h-1.264V5.604h1.23l.021.854c.415-.66 1.002-.991 1.763-.991.247 0 .433.032.561.096v1.175zM447.04 13h-1.265V5.604h1.265V13zm-1.367-9.358c0-.205.061-.379.184-.52.128-.141.315-.212.561-.212.246 0 .433.07.56.212a.746.746 0 0 1 .192.52.721.721 0 0 1-.192.512c-.127.137-.314.205-.56.205-.246 0-.433-.068-.561-.205a.738.738 0 0 1-.184-.512zm9.645 5.742c0 1.125-.257 2.032-.772 2.72-.515.689-1.212 1.033-2.092 1.033-.898 0-1.604-.285-2.119-.855v3.562h-1.265V5.604h1.156l.061.82c.515-.638 1.231-.957 2.147-.957.888 0 1.59.335 2.105 1.005.52.67.779 1.602.779 2.796v.116zm-1.264-.144c0-.834-.178-1.492-.534-1.975-.355-.483-.843-.725-1.462-.725-.766 0-1.34.34-1.723 1.019v3.534c.378.674.957 1.011 1.736 1.011.606 0 1.087-.239 1.443-.717.36-.483.54-1.199.54-2.147zm6.453-2.502a3.797 3.797 0 0 0-.622-.048c-.83 0-1.393.354-1.689 1.06V13h-1.264V5.604h1.23l.021.854c.414-.66 1.002-.991 1.763-.991.246 0 .433.032.561.096v1.175zm.697 2.495c0-.724.141-1.376.424-1.955.287-.578.683-1.025 1.189-1.34.511-.314 1.092-.471 1.743-.471 1.008 0 1.821.348 2.441 1.046.624.697.936 1.624.936 2.782v.089c0 .72-.139 1.367-.417 1.941a3.11 3.11 0 0 1-1.182 1.333c-.511.32-1.098.479-1.764.479-1.002 0-1.816-.349-2.44-1.046-.62-.697-.93-1.62-.93-2.769v-.089zm1.272.15c0 .821.189 1.48.567 1.976.383.497.893.745 1.531.745.643 0 1.153-.25 1.531-.752.379-.505.568-1.212.568-2.119 0-.81-.194-1.467-.581-1.968-.383-.506-.893-.76-1.532-.76-.624 0-1.127.25-1.51.746-.383.497-.574 1.208-.574 2.133zm6.74-.143c0-1.135.269-2.046.806-2.734.538-.693 1.242-1.04 2.113-1.04.866 0 1.551.297 2.057.89V2.5h1.265V13h-1.162l-.062-.793c-.506.62-1.21.93-2.112.93-.857 0-1.556-.351-2.099-1.053-.537-.702-.806-1.618-.806-2.748V9.24zm1.264.144c0 .838.174 1.495.52 1.968.346.474.825.711 1.435.711.803 0 1.388-.36 1.757-1.08V7.586c-.378-.697-.959-1.046-1.743-1.046-.62 0-1.103.24-1.449.718-.346.478-.52 1.187-.52 2.126zm11.512 2.885c-.492.578-1.214.868-2.167.868-.788 0-1.39-.228-1.805-.684-.41-.46-.617-1.14-.622-2.037V5.604h1.265v4.778c0 1.12.456 1.681 1.367 1.681.966 0 1.609-.36 1.928-1.08v-5.38h1.265V13h-1.204l-.027-.731zm6.125-.165a1.82 1.82 0 0 0 1.183-.41 1.44 1.44 0 0 0 .56-1.025h1.197a2.295 2.295 0 0 1-.438 1.21 2.876 2.876 0 0 1-1.08.916 3.088 3.088 0 0 1-1.422.342c-1.007 0-1.809-.335-2.406-1.005-.593-.675-.889-1.595-.889-2.762v-.212c0-.72.132-1.36.397-1.92a3.024 3.024 0 0 1 1.134-1.306c.497-.31 1.083-.465 1.757-.465.83 0 1.518.248 2.065.745.551.497.845 1.142.882 1.934h-1.197c-.036-.478-.218-.87-.547-1.175-.323-.31-.724-.465-1.203-.465-.642 0-1.141.232-1.497.697-.351.46-.526 1.128-.526 2.003v.24c0 .851.175 1.508.526 1.968.351.46.852.69 1.504.69zm6.077-8.291v1.79h1.381v.978h-1.381v4.587c0 .296.062.52.185.67.123.146.333.219.629.219.146 0 .346-.028.601-.082V13a3.662 3.662 0 0 1-.97.137c-.565 0-.992-.171-1.279-.513-.287-.342-.43-.827-.43-1.456V6.581h-1.347v-.977h1.347V3.812h1.264zm7.171 7.225c0-.342-.13-.606-.389-.793-.256-.191-.705-.355-1.347-.492-.638-.137-1.146-.3-1.525-.492-.373-.192-.651-.42-.834-.684a1.656 1.656 0 0 1-.266-.943c0-.606.255-1.119.765-1.538.515-.42 1.172-.63 1.969-.63.839 0 1.518.217 2.037.65.524.433.786.987.786 1.661h-1.271c0-.346-.148-.645-.444-.895-.292-.25-.661-.376-1.108-.376-.46 0-.82.1-1.08.3a.948.948 0 0 0-.39.787c0 .305.121.535.363.69.241.155.677.303 1.305.445.634.14 1.147.31 1.539.505.391.196.681.433.868.711.191.274.287.609.287 1.005 0 .661-.265 1.192-.793 1.593-.529.396-1.215.595-2.058.595-.592 0-1.116-.105-1.572-.315a2.585 2.585 0 0 1-1.073-.875 2.148 2.148 0 0 1-.383-1.223h1.265c.022.424.191.76.505 1.011.319.246.739.37 1.258.37.479 0 .862-.096 1.149-.288.291-.196.437-.455.437-.779zm8.094-3.63h.95c.597-.009 1.067-.166 1.408-.471.342-.306.513-.718.513-1.238 0-1.166-.581-1.75-1.743-1.75-.547 0-.985.157-1.313.472-.323.31-.485.722-.485 1.237h-1.265c0-.788.287-1.442.862-1.962.578-.524 1.312-.786 2.201-.786.939 0 1.675.249 2.208.745.533.497.8 1.187.8 2.072 0 .433-.142.852-.424 1.257a2.518 2.518 0 0 1-1.142.91c.547.173.969.46 1.265.86.301.402.451.892.451 1.47 0 .894-.292 1.602-.875 2.127-.583.524-1.342.786-2.276.786-.935 0-1.696-.253-2.284-.76-.583-.505-.875-1.173-.875-2.002h1.272c0 .524.171.943.513 1.258.341.314.799.472 1.374.472.61 0 1.077-.16 1.401-.479.324-.319.485-.777.485-1.374 0-.579-.177-1.023-.533-1.333-.355-.31-.868-.47-1.538-.479h-.95V7.408zm6.603.602l.506-4.963h5.1v1.169h-4.026l-.301 2.714c.487-.287 1.041-.431 1.661-.431.907 0 1.627.3 2.16.902.533.597.8 1.406.8 2.427 0 1.026-.278 1.834-.834 2.427-.552.588-1.324.882-2.318.882-.879 0-1.597-.244-2.153-.732-.556-.487-.873-1.162-.95-2.023h1.196c.078.57.281 1 .609 1.292.328.287.761.43 1.298.43.588 0 1.049-.2 1.381-.601.338-.401.506-.955.506-1.661 0-.666-.182-1.199-.547-1.6-.36-.405-.84-.608-1.442-.608-.551 0-.984.12-1.299.362l-.335.274-1.012-.26zm12.244-4.97v1.073h-.233c-.984.019-1.768.31-2.351.875-.584.565-.921 1.36-1.012 2.386.524-.602 1.239-.902 2.146-.902.866 0 1.557.305 2.072.916.519.61.779 1.399.779 2.365 0 1.025-.28 1.846-.841 2.46-.556.616-1.303.924-2.242.924-.953 0-1.725-.365-2.317-1.094-.593-.734-.889-1.677-.889-2.83v-.485c0-1.832.39-3.232 1.169-4.198.784-.97 1.948-1.467 3.493-1.49h.226zm-1.662 4.484c-.432 0-.831.13-1.196.39a2.04 2.04 0 0 0-.759.978v.464c0 .82.185 1.482.554 1.983.369.501.83.752 1.381.752.57 0 1.016-.21 1.34-.63.328-.418.492-.968.492-1.647 0-.683-.166-1.235-.499-1.654-.328-.424-.766-.636-1.313-.636zm4.649 7.458l-.718-.492c.429-.597.652-1.212.67-1.845v-1.142h1.237v.991c0 .46-.114.92-.341 1.381-.224.46-.506.83-.848 1.107zm8.695-9.337c0 .496-.132.938-.396 1.326a2.65 2.65 0 0 1-1.06.909c.52.223.93.549 1.231.977.305.429.458.914.458 1.457 0 .86-.292 1.547-.875 2.057-.579.51-1.342.766-2.29.766-.957 0-1.725-.255-2.304-.766-.574-.515-.861-1.2-.861-2.058 0-.537.145-1.023.437-1.456a2.763 2.763 0 0 1 1.224-.984 2.608 2.608 0 0 1-1.046-.91 2.346 2.346 0 0 1-.383-1.318c0-.839.269-1.504.807-1.997.537-.492 1.246-.738 2.126-.738.875 0 1.581.246 2.119.738.542.493.813 1.158.813 1.997zm-1.032 4.641c0-.556-.178-1.01-.533-1.36-.351-.351-.811-.527-1.381-.527s-1.028.174-1.374.52c-.342.346-.513.802-.513 1.367s.167 1.01.499 1.333c.337.324.805.486 1.402.486.592 0 1.057-.162 1.394-.486.337-.328.506-.772.506-1.333zm-1.9-6.337c-.497 0-.9.155-1.21.465-.306.305-.458.722-.458 1.251 0 .506.15.916.451 1.23.305.31.711.465 1.217.465.505 0 .909-.155 1.21-.464.305-.315.458-.725.458-1.231 0-.506-.158-.918-.472-1.237-.315-.32-.713-.479-1.196-.479zm6.952 5.626l-.793.827V13h-1.265V2.5h1.265v6.35l.677-.813 2.303-2.433h1.538l-2.878 3.09L548.068 13h-1.483l-2.577-3.425zM524.1 40.933h-8.771v-1.74l4.139-4.412c.569-.622.988-1.164 1.257-1.627.276-.462.413-.902.413-1.318 0-.568-.143-1.013-.43-1.336-.288-.328-.698-.492-1.231-.492-.574 0-1.028.2-1.362.598-.328.392-.492.91-.492 1.555h-2.549c0-.779.184-1.49.554-2.135a3.932 3.932 0 0 1 1.582-1.512c.679-.37 1.45-.554 2.311-.554 1.318 0 2.341.317 3.067.95.733.632 1.099 1.526 1.099 2.68 0 .633-.164 1.277-.492 1.934-.328.656-.891 1.42-1.688 2.294l-2.909 3.067h5.502v2.048zm10.336 0h-8.771v-1.74l4.139-4.412c.569-.622.988-1.164 1.257-1.627.275-.462.413-.902.413-1.318 0-.568-.143-1.013-.43-1.336-.288-.328-.698-.492-1.231-.492-.574 0-1.028.2-1.362.598-.328.392-.492.91-.492 1.555h-2.549c0-.779.184-1.49.553-2.135a3.939 3.939 0 0 1 1.582-1.512c.68-.37 1.451-.554 2.312-.554 1.318 0 2.341.317 3.067.95.733.632 1.099 1.526 1.099 2.68 0 .633-.164 1.277-.492 1.934-.328.656-.891 1.42-1.688 2.294l-2.909 3.067h5.502v2.048zm1.529-10.336c0-.785.255-1.421.765-1.907.51-.492 1.178-.739 2.004-.739.838 0 1.512.244 2.021.73.51.48.765 1.134.765 1.96v.633c0 .79-.255 1.426-.765 1.907-.509.48-1.177.72-2.003.72-.833 0-1.506-.24-2.022-.72-.51-.486-.765-1.14-.765-1.96v-.624zm1.688.677c0 .351.1.635.299.852.205.211.471.317.8.317.328 0 .588-.109.782-.326.193-.216.29-.506.29-.87v-.65c0-.352-.097-.636-.29-.853-.194-.216-.46-.325-.8-.325-.322 0-.583.109-.782.325-.199.211-.299.507-.299.888v.642zm4.43 6.521c0-.79.257-1.427.773-1.907.516-.486 1.184-.73 2.004-.73.832 0 1.503.24 2.013.721.515.475.773 1.131.773 1.969v.633c0 .785-.252 1.42-.756 1.907-.504.48-1.175.72-2.012.72-.844 0-1.521-.242-2.031-.729-.51-.486-.764-1.13-.764-1.933v-.65zm1.687.686c0 .322.106.597.316.826.211.228.475.343.792.343.714 0 1.072-.396 1.072-1.187v-.668c0-.351-.1-.633-.299-.844-.199-.216-.463-.325-.791-.325s-.592.109-.791.325c-.199.211-.299.501-.299.87v.66zm-4.517 1.494l-1.24-.668 6.249-10.002 1.24.668-6.249 10.002zM278.347 369.183l3.254 8.121 3.254-8.121h1.702v9.953h-1.312v-3.876l.123-4.184-3.268 8.06h-1.005l-3.26-8.039.129 4.163v3.876h-1.312v-9.953h1.695zm13.399 10.09c-1.003 0-1.819-.328-2.448-.985-.629-.66-.943-1.542-.943-2.645v-.233c0-.733.139-1.387.417-1.962a3.288 3.288 0 0 1 1.176-1.353 2.96 2.96 0 0 1 1.64-.492c.962 0 1.709.317 2.243.95.533.633.799 1.54.799 2.721v.526h-5.01c.018.729.23 1.319.635 1.771.411.446.93.669 1.559.669.447 0 .825-.091 1.135-.273.31-.182.581-.424.813-.725l.773.602c-.62.952-1.55 1.429-2.789 1.429zm-.158-6.631c-.51 0-.938.187-1.285.56-.346.37-.56.889-.642 1.559h3.705v-.096c-.037-.642-.21-1.139-.52-1.49-.31-.355-.729-.533-1.258-.533zm6.228-2.694v1.792h1.381v.977h-1.381v4.587c0 .296.061.519.185.67.123.146.332.219.628.219.146 0 .347-.028.602-.082v1.025a3.674 3.674 0 0 1-.971.137c-.565 0-.991-.171-1.278-.513-.287-.342-.431-.827-.431-1.456v-4.587h-1.346v-.977h1.346v-1.792h1.265zm7.431 9.188c-.073-.146-.133-.406-.178-.779-.588.61-1.29.916-2.106.916-.729 0-1.328-.205-1.797-.616a2.014 2.014 0 0 1-.698-1.572c0-.77.292-1.367.875-1.791.588-.428 1.413-.642 2.475-.642h1.23v-.581c0-.443-.132-.793-.396-1.053-.264-.265-.654-.397-1.169-.397-.451 0-.829.114-1.135.342-.305.228-.458.504-.458.827h-1.271c0-.369.13-.724.389-1.066.265-.346.62-.62 1.067-.82a3.6 3.6 0 0 1 1.483-.301c.852 0 1.52.214 2.003.642.483.424.734 1.01.752 1.757v3.404c0 .68.087 1.22.26 1.621v.109h-1.326zm-2.099-.964c.396 0 .772-.102 1.128-.307.355-.206.613-.472.772-.8v-1.518h-.991c-1.549 0-2.324.454-2.324 1.36 0 .397.132.707.396.93.265.223.604.335 1.019.335zm6.521.964h-1.264v-10.5h1.264v10.5zm6.337-1.962c0-.342-.13-.606-.389-.793-.255-.191-.704-.355-1.347-.492-.638-.137-1.146-.301-1.524-.492-.374-.192-.652-.42-.834-.684a1.648 1.648 0 0 1-.267-.943c0-.606.255-1.119.766-1.538.515-.42 1.171-.629 1.968-.629.839 0 1.518.216 2.038.649.524.433.786.987.786 1.661h-1.272c0-.346-.148-.645-.444-.895-.292-.251-.661-.376-1.108-.376-.46 0-.82.1-1.08.301a.947.947 0 0 0-.389.786c0 .305.12.535.362.69.242.155.677.303 1.306.445.633.141 1.146.309 1.538.505.392.196.681.433.868.711.191.274.287.609.287 1.005 0 .661-.264 1.192-.793 1.593-.529.396-1.214.595-2.058.595-.592 0-1.116-.105-1.572-.315a2.584 2.584 0 0 1-1.073-.875 2.146 2.146 0 0 1-.383-1.223h1.265c.023.423.191.761.506 1.011.319.246.738.369 1.257.369.479 0 .862-.095 1.149-.287.292-.196.437-.455.437-.779zm16.154-7.28l-4.122 9.242h-1.327l4.109-8.914h-5.387v-1.039h6.727v.711zm5.591 9.242h-1.271v-8.429l-2.55.937v-1.149l3.623-1.36h.198v10.001zm8.552-4.375a3.094 3.094 0 0 1-.95.759 2.555 2.555 0 0 1-1.203.287c-.574 0-1.076-.141-1.504-.424-.424-.282-.752-.679-.984-1.189a4.085 4.085 0 0 1-.349-1.703c0-.665.125-1.264.376-1.797a2.805 2.805 0 0 1 1.08-1.224c.465-.283 1.007-.424 1.627-.424.984 0 1.759.369 2.324 1.108.57.733.855 1.736.855 3.007v.37c0 1.936-.383 3.351-1.149 4.245-.765.888-1.921 1.344-3.466 1.367h-.246v-1.067h.267c1.044-.018 1.846-.289 2.406-.813.561-.529.866-1.363.916-2.502zm-1.948 0c.424 0 .813-.13 1.169-.39.36-.259.622-.581.786-.964v-.505c0-.83-.18-1.504-.54-2.024-.36-.519-.816-.779-1.367-.779-.556 0-1.003.214-1.34.642-.337.424-.506.985-.506 1.682 0 .679.162 1.24.486 1.682.328.437.765.656 1.312.656zm5.052 6.357l-.718-.492c.428-.597.652-1.212.67-1.845v-1.142h1.237v.991c0 .46-.114.921-.342 1.381-.223.46-.505.829-.847 1.107zm8.695-9.337c0 .496-.132.938-.396 1.326-.26.387-.613.69-1.06.909.52.223.93.549 1.23.977.306.429.459.914.459 1.456 0 .862-.292 1.548-.875 2.058-.579.51-1.343.766-2.291.766-.957 0-1.724-.256-2.303-.766-.574-.515-.862-1.201-.862-2.058 0-.537.146-1.023.438-1.456a2.76 2.76 0 0 1 1.224-.984 2.612 2.612 0 0 1-1.046-.909 2.339 2.339 0 0 1-.383-1.319c0-.839.269-1.504.806-1.997.538-.492 1.247-.738 2.126-.738.875 0 1.582.246 2.12.738.542.493.813 1.158.813 1.997zm-1.032 4.641c0-.556-.178-1.009-.533-1.36-.351-.351-.812-.527-1.381-.527-.57 0-1.028.174-1.374.52-.342.346-.513.802-.513 1.367s.166 1.01.499 1.333c.337.324.804.485 1.401.485.593 0 1.058-.161 1.395-.485.337-.328.506-.772.506-1.333zm-1.901-6.337c-.496 0-.9.155-1.209.465-.306.305-.459.722-.459 1.251 0 .506.151.916.452 1.23.305.31.711.465 1.216.465.506 0 .91-.155 1.21-.465.306-.314.458-.724.458-1.23s-.157-.918-.471-1.237c-.315-.319-.713-.479-1.197-.479zm6.953 5.626l-.793.827v2.598h-1.265v-10.5h1.265v6.351l.676-.814 2.304-2.433h1.538l-2.878 3.089 3.213 4.307h-1.483l-2.577-3.425zm-20.279 26.451h1.451v2.048h-1.451v2.768h-2.54v-2.768h-5.247l-.114-1.6 5.335-8.429h2.566v7.981zm-5.37 0h2.83v-4.518l-.167.29-2.663 4.228zm8.57-1.477l.738-6.504h7.172v2.119h-5.089l-.317 2.751a4.023 4.023 0 0 1 1.925-.484c1.219 0 2.174.378 2.865 1.134.692.756 1.038 1.813 1.038 3.173 0 .826-.176 1.567-.528 2.223a3.685 3.685 0 0 1-1.494 1.521c-.65.357-1.418.536-2.303.536a5 5 0 0 1-2.153-.466 3.884 3.884 0 0 1-1.573-1.327 3.63 3.63 0 0 1-.607-1.942h2.514c.053.533.237.949.554 1.248.322.293.741.439 1.257.439.574 0 1.016-.205 1.327-.615.31-.416.466-1.002.466-1.758 0-.726-.179-1.283-.537-1.67-.357-.386-.864-.58-1.52-.58-.604 0-1.093.158-1.468.475l-.246.228-2.021-.501zm9.922-4.043c0-.785.255-1.421.765-1.907.51-.492 1.178-.738 2.004-.738.838 0 1.512.243 2.021.729.51.481.765 1.134.765 1.96v.633c0 .791-.255 1.427-.765 1.907-.509.481-1.177.721-2.003.721-.832 0-1.506-.24-2.022-.721-.51-.486-.765-1.139-.765-1.96v-.624zm1.688.677c0 .352.1.636.299.853.205.211.471.316.8.316.328 0 .588-.108.782-.325.193-.217.29-.507.29-.87v-.651c0-.351-.097-.635-.29-.852-.194-.217-.46-.325-.8-.325-.322 0-.583.108-.782.325-.199.211-.299.507-.299.887v.642zm4.43 6.522c0-.791.257-1.427.773-1.908.516-.486 1.184-.729 2.004-.729.832 0 1.503.24 2.013.721.515.474.773 1.13.773 1.968v.633c0 .785-.252 1.421-.756 1.907-.504.481-1.175.721-2.012.721-.844 0-1.521-.243-2.031-.729-.51-.487-.764-1.131-.764-1.934v-.65zm1.687.685c0 .322.106.598.317.826.21.229.474.343.791.343.714 0 1.072-.395 1.072-1.186v-.668c0-.352-.1-.633-.299-.844-.199-.217-.463-.325-.791-.325s-.592.108-.791.325c-.199.211-.299.501-.299.87v.659zm-4.517 1.494l-1.24-.668 6.249-10.002 1.24.668-6.249 10.002zM470.64 74.744c-.123 1.052-.512 1.866-1.169 2.44-.651.57-1.52.855-2.604.855-1.176 0-2.119-.422-2.83-1.265-.707-.843-1.06-1.971-1.06-3.384v-.957c0-.925.164-1.739.492-2.44.333-.702.802-1.24 1.409-1.614.606-.378 1.308-.567 2.105-.567 1.057 0 1.905.296 2.543.889.638.588 1.009 1.403 1.114 2.447h-1.319c-.114-.793-.362-1.367-.745-1.723-.378-.355-.909-.533-1.593-.533-.839 0-1.497.31-1.976.93-.474.62-.71 1.501-.71 2.645v.964c0 1.08.225 1.94.676 2.577.451.638 1.083.957 1.894.957.729 0 1.287-.164 1.675-.492.392-.332.651-.909.779-1.73h1.319zm1.265-.609c0-.724.141-1.376.424-1.955.287-.579.683-1.025 1.189-1.34.511-.314 1.092-.471 1.743-.471 1.008 0 1.821.348 2.441 1.046.624.697.936 1.624.936 2.782v.089c0 .72-.139 1.367-.417 1.941a3.111 3.111 0 0 1-1.182 1.333c-.511.32-1.099.479-1.764.479-1.003 0-1.816-.35-2.44-1.046-.62-.698-.93-1.62-.93-2.769v-.089zm1.271.15c0 .821.19 1.48.568 1.976.383.497.893.745 1.531.745.643 0 1.153-.25 1.531-.752.379-.505.568-1.212.568-2.119 0-.81-.194-1.467-.581-1.969-.383-.505-.894-.758-1.532-.758-.624 0-1.128.248-1.51.745-.383.497-.575 1.207-.575 2.133zm11.615 3.617c-.073-.146-.133-.406-.178-.78-.588.611-1.29.917-2.106.917-.729 0-1.328-.206-1.797-.616a2.016 2.016 0 0 1-.698-1.572c0-.77.292-1.367.875-1.79.588-.43 1.413-.644 2.475-.644h1.23v-.58c0-.443-.132-.794-.396-1.053-.264-.265-.654-.397-1.169-.397-.451 0-.829.114-1.135.342-.305.228-.458.504-.458.827h-1.271c0-.369.13-.724.389-1.066.265-.347.62-.62 1.067-.82a3.6 3.6 0 0 1 1.483-.301c.852 0 1.52.214 2.003.642.483.424.734 1.01.752 1.757v3.404c0 .68.087 1.22.26 1.62v.11h-1.326zm-2.099-.964c.397 0 .772-.103 1.128-.308a1.86 1.86 0 0 0 .772-.8v-1.517h-.991c-1.549 0-2.324.453-2.324 1.36 0 .397.132.707.396.93.265.223.604.335 1.019.335zm6.522.964h-1.265v-10.5h1.265v10.5zm6.336-1.962c0-.342-.129-.606-.389-.793-.255-.191-.704-.356-1.347-.492-.638-.137-1.146-.301-1.524-.492-.374-.192-.652-.42-.834-.684a1.649 1.649 0 0 1-.267-.943c0-.606.255-1.12.766-1.538.515-.42 1.171-.63 1.968-.63.839 0 1.518.217 2.038.65.524.433.786.987.786 1.661h-1.272c0-.346-.148-.645-.444-.895-.292-.251-.661-.376-1.108-.376-.46 0-.82.1-1.08.3a.948.948 0 0 0-.389.787c0 .305.121.535.362.69.242.155.677.303 1.306.444.633.142 1.146.31 1.538.506.392.196.681.433.868.711.191.274.287.609.287 1.005 0 .66-.264 1.192-.793 1.593-.529.396-1.214.595-2.058.595-.592 0-1.116-.105-1.572-.315a2.59 2.59 0 0 1-1.073-.875 2.148 2.148 0 0 1-.383-1.224h1.265c.023.424.191.762.506 1.012.319.246.738.37 1.257.37.479 0 .862-.096 1.149-.288.292-.196.437-.456.437-.78zm13.884 1.962h-1.271v-8.429l-2.55.937v-1.15l3.623-1.36h.198v10zm8.668-9.96v1.073h-.232c-.985.018-1.768.31-2.352.875-.583.565-.92 1.36-1.012 2.386.525-.602 1.24-.902 2.147-.902.866 0 1.556.305 2.071.916.52.61.78 1.399.78 2.365 0 1.025-.281 1.846-.841 2.46-.556.616-1.304.924-2.242.924-.953 0-1.725-.365-2.318-1.094-.592-.734-.889-1.677-.889-2.83v-.486c0-1.832.39-3.23 1.169-4.197.784-.97 1.949-1.467 3.494-1.49h.225zm-1.661 4.484c-.433 0-.832.13-1.196.39-.365.26-.618.585-.759.977v.465c0 .82.185 1.481.554 1.983.369.501.829.752 1.381.752.569 0 1.016-.21 1.339-.63.329-.418.493-.968.493-1.647 0-.683-.167-1.235-.499-1.654-.329-.424-.766-.636-1.313-.636zm9.406 1.1a3.079 3.079 0 0 1-.95.76 2.547 2.547 0 0 1-1.203.287c-.574 0-1.076-.141-1.504-.424-.424-.283-.752-.68-.984-1.19a4.081 4.081 0 0 1-.349-1.702c0-.665.125-1.264.376-1.797.255-.534.615-.942 1.08-1.224.465-.283 1.007-.424 1.627-.424.984 0 1.759.37 2.324 1.107.57.734.855 1.737.855 3.008v.37c0 1.936-.383 3.351-1.149 4.245-.765.888-1.921 1.344-3.465 1.367h-.247v-1.067h.267c1.044-.018 1.846-.29 2.406-.813.561-.529.866-1.363.916-2.502zm-1.948 0c.424 0 .814-.129 1.169-.389.36-.26.622-.58.786-.964v-.505c0-.83-.18-1.504-.54-2.024-.36-.52-.816-.78-1.367-.78-.556 0-1.003.215-1.34.643-.337.424-.506.985-.506 1.682 0 .679.162 1.24.486 1.682.328.437.765.656 1.312.656zm5.052 6.358l-.718-.492c.428-.597.652-1.212.67-1.846v-1.141h1.237v.991c0 .46-.114.92-.342 1.38-.223.461-.505.83-.847 1.108zm4.498-7.574h.95c.597-.01 1.066-.166 1.408-.472.342-.305.513-.717.513-1.237 0-1.167-.581-1.75-1.743-1.75-.547 0-.985.157-1.313.472-.323.31-.485.722-.485 1.237h-1.265c0-.788.287-1.442.862-1.962.578-.524 1.312-.786 2.201-.786.939 0 1.675.248 2.208.745.533.497.8 1.187.8 2.071 0 .433-.142.853-.424 1.258a2.518 2.518 0 0 1-1.142.91c.547.173.969.46 1.265.86.301.402.451.892.451 1.47 0 .894-.292 1.602-.875 2.126-.583.525-1.342.787-2.276.787-.935 0-1.696-.253-2.284-.76-.583-.505-.875-1.173-.875-2.002h1.272c0 .524.171.943.513 1.258.341.314.799.471 1.374.471.61 0 1.077-.16 1.401-.478.324-.32.485-.777.485-1.374 0-.579-.177-1.023-.533-1.333-.355-.31-.868-.47-1.538-.479h-.95V72.31zm8.217 2.167l-.793.827v2.598h-1.265v-10.5h1.265v6.35l.676-.813 2.304-2.434h1.538l-2.878 3.09 3.213 4.307h-1.483l-2.577-3.425zm-20.167 31.362h-2.54v-9.791l-3.033.94v-2.065l5.3-1.899h.273v12.815zm10.336 0h-2.54v-9.791l-3.033.94v-2.065l5.3-1.899h.273v12.815zm4.13-10.336c0-.785.255-1.421.765-1.907.51-.493 1.178-.739 2.004-.739.838 0 1.512.244 2.021.73.51.48.765 1.134.765 1.96v.633c0 .79-.255 1.426-.765 1.907-.509.48-1.177.72-2.003.72-.832 0-1.506-.24-2.022-.72-.51-.486-.765-1.14-.765-1.96v-.624zm1.688.677c0 .351.1.635.299.852.205.211.471.317.8.317.328 0 .588-.109.782-.326.193-.216.29-.506.29-.87v-.65c0-.352-.097-.636-.29-.853-.194-.216-.46-.325-.8-.325-.322 0-.583.109-.782.325-.199.211-.299.507-.299.888v.642zm4.43 6.521c0-.791.257-1.427.773-1.907.516-.486 1.184-.73 2.004-.73.832 0 1.503.241 2.013.721.515.475.773 1.131.773 1.969v.633c0 .785-.252 1.421-.756 1.907-.504.48-1.175.721-2.012.721-.844 0-1.521-.244-2.031-.73-.509-.486-.764-1.131-.764-1.933v-.651zm1.687.686c0 .322.106.597.317.826.21.228.474.343.791.343.714 0 1.072-.396 1.072-1.187v-.668c0-.351-.1-.633-.299-.844-.199-.216-.463-.325-.791-.325s-.592.109-.791.325c-.199.211-.299.501-.299.871v.659zm-4.517 1.494l-1.24-.668 6.249-10.002 1.24.668-6.249 10.002zM445.388 284.53h-4.177v4.396h-1.312v-9.953h6.166v1.08h-4.854v3.404h4.177v1.073zm4.97 4.532c-1.003 0-1.819-.328-2.448-.984-.629-.661-.943-1.543-.943-2.645v-.233c0-.734.139-1.388.417-1.962.283-.578.674-1.03 1.176-1.353a2.957 2.957 0 0 1 1.64-.492c.962 0 1.709.316 2.243.95.533.633.799 1.54.799 2.72v.527h-5.01c.018.729.23 1.319.635 1.77.411.447.93.67 1.559.67.447 0 .825-.091 1.135-.273.31-.182.581-.424.813-.725l.773.602c-.62.952-1.55 1.428-2.789 1.428zm-.158-6.63c-.51 0-.938.186-1.285.56-.346.369-.56.889-.642 1.559h3.705v-.096c-.037-.643-.21-1.139-.52-1.49-.31-.356-.729-.533-1.258-.533zm8.087.232a3.768 3.768 0 0 0-.622-.048c-.829 0-1.392.353-1.688 1.06v5.25h-1.265v-7.397h1.231l.02.855c.415-.661 1.003-.991 1.764-.991.246 0 .433.031.56.095v1.176zm3.227-2.926v1.791h1.381v.978h-1.381v4.587c0 .296.061.519.184.67.123.146.333.218.629.218.146 0 .347-.027.602-.082v1.026a3.672 3.672 0 0 1-.971.136c-.565 0-.991-.17-1.278-.512-.287-.342-.431-.827-.431-1.456v-4.587h-1.346v-.978h1.346v-1.791h1.265zm4.238 9.188h-1.265v-7.397h1.265v7.397zm-1.367-9.359c0-.205.061-.378.185-.519.127-.141.314-.212.56-.212.246 0 .433.071.561.212a.748.748 0 0 1 .191.519.726.726 0 0 1-.191.513c-.128.137-.315.205-.561.205-.246 0-.433-.068-.56-.205a.735.735 0 0 1-.185-.513zm4.771 9.359h-1.264v-10.5h1.264v10.5zm3.405 0h-1.265v-7.397h1.265v7.397zm-1.367-9.359c0-.205.061-.378.184-.519.128-.141.315-.212.561-.212.246 0 .433.071.56.212a.744.744 0 0 1 .192.519.722.722 0 0 1-.192.513c-.127.137-.314.205-.56.205-.246 0-.433-.068-.561-.205a.739.739 0 0 1-.184-.513zm4.586 8.327h4.328v1.032h-5.872v-.93l4.081-5.421h-4.02v-1.046h5.606v.896l-4.123 5.469zm8.716 1.168c-1.002 0-1.818-.328-2.447-.984-.629-.661-.943-1.543-.943-2.645v-.233c0-.734.139-1.388.417-1.962a3.28 3.28 0 0 1 1.175-1.353 2.96 2.96 0 0 1 1.641-.492c.962 0 1.709.316 2.242.95.533.633.8 1.54.8 2.72v.527h-5.011c.019.729.23 1.319.636 1.77.41.447.93.67 1.559.67.446 0 .825-.091 1.134-.273.31-.182.581-.424.814-.725l.772.602c-.619.952-1.549 1.428-2.789 1.428zm-.157-6.63c-.51 0-.939.186-1.285.56-.346.369-.561.889-.643 1.559h3.705v-.096c-.036-.643-.209-1.139-.519-1.49-.31-.356-.729-.533-1.258-.533zm8.087.232a3.777 3.777 0 0 0-.622-.048c-.83 0-1.392.353-1.689 1.06v5.25h-1.264v-7.397h1.23l.021.855c.414-.661 1.002-.991 1.763-.991.247 0 .433.031.561.095v1.176zm5.476 4.3c0-.342-.13-.606-.39-.793-.255-.192-.704-.356-1.347-.492-.638-.137-1.146-.301-1.524-.492-.374-.192-.652-.42-.834-.684a1.648 1.648 0 0 1-.267-.943c0-.607.255-1.119.766-1.539.515-.419 1.171-.628 1.969-.628.838 0 1.517.216 2.037.649.524.433.786.987.786 1.661h-1.272c0-.346-.148-.645-.444-.895-.292-.251-.661-.376-1.107-.376-.461 0-.821.1-1.08.3a.948.948 0 0 0-.39.787c0 .305.121.535.362.69.242.155.677.303 1.306.444.633.142 1.146.31 1.538.506.392.196.681.433.868.711.191.274.287.609.287 1.005 0 .661-.264 1.192-.793 1.593-.528.396-1.214.594-2.057.594-.593 0-1.117-.104-1.573-.314a2.598 2.598 0 0 1-1.073-.875 2.147 2.147 0 0 1-.383-1.224h1.265c.023.424.191.761.506 1.012.319.246.738.369 1.258.369.478 0 .861-.095 1.148-.287.292-.196.438-.456.438-.779zm16.249 1.962h-6.522v-.909l3.445-3.829c.511-.578.862-1.048 1.053-1.408a2.35 2.35 0 0 0 .294-1.128c0-.519-.157-.945-.472-1.278-.314-.333-.733-.499-1.257-.499-.629 0-1.119.18-1.47.54-.346.356-.52.852-.52 1.49h-1.264c0-.916.294-1.656.882-2.221.592-.566 1.383-.848 2.372-.848.925 0 1.656.244 2.194.731.538.483.807 1.128.807 1.935 0 .98-.625 2.146-1.873 3.5l-2.666 2.892h4.997v1.032zm6.678-3.343h1.381v1.032h-1.381v2.311h-1.271v-2.311h-4.532v-.745l4.457-6.897h1.346v6.61zm-4.368 0h3.097v-4.881l-.151.274-2.946 4.607zm13.412 3.343h-6.521v-.909l3.445-3.829c.51-.578.861-1.048 1.053-1.408a2.35 2.35 0 0 0 .294-1.128c0-.519-.157-.945-.472-1.278-.314-.333-.734-.499-1.258-.499-.629 0-1.119.18-1.469.54-.347.356-.52.852-.52 1.49h-1.265c0-.916.294-1.656.882-2.221.593-.566 1.383-.848 2.372-.848.925 0 1.657.244 2.195.731.537.483.806 1.128.806 1.935 0 .98-.624 2.146-1.873 3.5l-2.666 2.892h4.997v1.032zm1.429 1.982l-.718-.492c.429-.597.652-1.212.67-1.846v-1.141h1.237v.991c0 .46-.114.92-.341 1.381-.224.46-.506.829-.848 1.107zm7.506-6.357a3.106 3.106 0 0 1-.95.759 2.556 2.556 0 0 1-1.204.287c-.574 0-1.075-.142-1.503-.424-.424-.283-.752-.679-.985-1.19a4.095 4.095 0 0 1-.348-1.702c0-.665.125-1.264.376-1.798.255-.533.615-.941 1.08-1.223.464-.283 1.007-.424 1.627-.424.984 0 1.759.369 2.324 1.107.569.734.854 1.737.854 3.008v.369c0 1.937-.383 3.352-1.148 4.245-.766.889-1.921 1.345-3.466 1.368h-.246v-1.067h.267c1.043-.018 1.845-.289 2.406-.813.56-.529.866-1.363.916-2.502zm-1.948 0c.423 0 .813-.13 1.169-.39.36-.26.622-.581.786-.964v-.506c0-.829-.18-1.503-.54-2.023-.36-.52-.816-.779-1.368-.779-.556 0-1.002.214-1.339.642-.338.424-.506.985-.506 1.682 0 .679.161 1.239.485 1.682a1.56 1.56 0 0 0 1.313.656zm7.157.95l-.793.827v2.598h-1.265v-10.5h1.265v6.35l.677-.813 2.303-2.434h1.538l-2.878 3.09 3.213 4.307h-1.483l-2.577-3.425zm-22.518 31.358h-2.54v-9.791l-3.033.941v-2.066l5.3-1.898h.273v12.814zm4.544-6.293l.738-6.504h7.172v2.118h-5.089l-.317 2.751a4.034 4.034 0 0 1 1.925-.483c1.219 0 2.174.378 2.866 1.134.691.756 1.037 1.813 1.037 3.173 0 .826-.176 1.567-.528 2.223a3.691 3.691 0 0 1-1.494 1.521c-.65.357-1.418.536-2.303.536a5 5 0 0 1-2.153-.466 3.884 3.884 0 0 1-1.573-1.327 3.63 3.63 0 0 1-.607-1.942h2.514c.053.533.237.949.554 1.248.322.293.741.439 1.257.439.574 0 1.016-.205 1.327-.615.31-.416.466-1.002.466-1.758 0-.727-.179-1.283-.537-1.67-.357-.387-.864-.58-1.52-.58-.604 0-1.093.158-1.468.475l-.246.228-2.021-.501zm9.922-4.043c0-.785.255-1.421.765-1.907.51-.492 1.178-.738 2.004-.738.838 0 1.512.243 2.021.729.51.481.765 1.134.765 1.96v.633c0 .791-.255 1.427-.765 1.907-.509.481-1.177.721-2.003.721-.832 0-1.506-.24-2.022-.721-.51-.486-.765-1.139-.765-1.96v-.624zm1.688.677c0 .352.1.636.299.852.205.211.471.317.8.317.328 0 .588-.109.782-.325.193-.217.29-.507.29-.87v-.651c0-.351-.097-.636-.29-.852-.194-.217-.46-.326-.8-.326-.322 0-.583.109-.782.326-.199.211-.299.506-.299.887v.642zm4.43 6.521c0-.791.257-1.426.773-1.907.516-.486 1.184-.729 2.004-.729.832 0 1.503.24 2.013.72.515.475.773 1.131.773 1.969v.633c0 .785-.252 1.421-.756 1.907-.504.481-1.175.721-2.012.721-.844 0-1.521-.243-2.031-.73-.509-.486-.764-1.13-.764-1.933v-.651zm1.687.686c0 .322.106.598.317.826.21.229.474.343.791.343.714 0 1.072-.396 1.072-1.187v-.668c0-.351-.1-.632-.299-.843-.199-.217-.463-.326-.791-.326s-.592.109-.791.326c-.199.211-.299.501-.299.87v.659zm-4.517 1.494l-1.24-.668 6.249-10.002 1.24.668-6.249 10.002zM20.04 261.288c0 .976-.164 1.828-.492 2.557-.328.725-.793 1.278-1.395 1.661-.601.383-1.303.574-2.105.574-.784 0-1.479-.191-2.085-.574-.606-.387-1.078-.936-1.415-1.647-.333-.716-.504-1.543-.513-2.482v-.718c0-.957.166-1.802.5-2.536.332-.733.801-1.294 1.407-1.681.611-.392 1.308-.588 2.092-.588.798 0 1.5.193 2.106.581.61.383 1.08.941 1.408 1.675.328.729.492 1.579.492 2.549v.629zm-1.306-.642c0-1.181-.237-2.085-.71-2.714-.475-.634-1.138-.95-1.99-.95-.83 0-1.483.316-1.962.95-.474.629-.717 1.504-.731 2.625v.731c0 1.144.24 2.044.718 2.701.483.651 1.146.977 1.989.977.848 0 1.504-.308 1.969-.923.464-.62.704-1.506.717-2.659v-.738zm6.652-.964a3.777 3.777 0 0 0-.622-.048c-.83 0-1.393.353-1.689 1.06v5.25h-1.264v-7.397h1.23l.02.855c.415-.661 1.003-.992 1.764-.992.246 0 .433.032.56.096v1.176zm4.101 6.398c-1.002 0-1.818-.328-2.447-.984-.629-.661-.943-1.543-.943-2.646v-.232c0-.734.139-1.388.417-1.962a3.277 3.277 0 0 1 1.175-1.353 2.951 2.951 0 0 1 1.641-.493c.962 0 1.71.317 2.242.951.534.633.8 1.54.8 2.72v.527h-5.01c.018.729.23 1.319.635 1.77.41.447.93.67 1.559.67.446 0 .825-.091 1.134-.273a2.86 2.86 0 0 0 .814-.725l.772.602c-.62.952-1.55 1.428-2.789 1.428zm-.157-6.631c-.51 0-.939.187-1.285.561-.346.369-.56.889-.643 1.559h3.705v-.096c-.036-.643-.21-1.139-.52-1.49-.309-.356-.728-.534-1.257-.534zm12.818-3.465v1.073h-.233c-.984.018-1.768.31-2.352.875-.583.565-.92 1.36-1.011 2.386.524-.602 1.24-.903 2.146-.903.866 0 1.557.306 2.072.916.52.611.779 1.399.779 2.366 0 1.025-.28 1.845-.841 2.46-.556.616-1.303.923-2.242.923-.953 0-1.725-.364-2.318-1.093-.592-.734-.888-1.678-.888-2.831v-.485c0-1.832.39-3.231 1.169-4.197.784-.971 1.948-1.468 3.493-1.49h.226zm-1.662 4.484c-.433 0-.831.13-1.196.39a2.026 2.026 0 0 0-.759.977v.465c0 .82.185 1.481.554 1.982.37.502.83.752 1.38.752.57 0 1.017-.209 1.34-.628.329-.42.493-.969.493-1.648 0-.684-.166-1.235-.5-1.654-.327-.424-.765-.636-1.312-.636zm9.899 2.133h1.38v1.032h-1.38v2.311h-1.272v-2.311h-4.532v-.745l4.457-6.898h1.347v6.611zm-4.368 0h3.096v-4.881l-.15.273-2.946 4.608zm6.98 5.325l-.719-.492c.429-.597.652-1.212.67-1.846v-1.141h1.237v.991c0 .46-.113.92-.341 1.381a3.2 3.2 0 0 1-.848 1.107zm4.497-7.574h.95c.597-.009 1.067-.167 1.408-.472.342-.305.513-.718.513-1.237 0-1.167-.58-1.75-1.743-1.75-.547 0-.984.157-1.312.472-.324.309-.486.722-.486 1.237H55.56c0-.789.287-1.443.86-1.962.58-.524 1.313-.786 2.202-.786.939 0 1.675.248 2.208.745.533.497.8 1.187.8 2.071 0 .433-.141.852-.424 1.258a2.511 2.511 0 0 1-1.142.909c.547.173.969.46 1.265.861.3.402.451.891.451 1.47 0 .893-.291 1.602-.875 2.126-.583.524-1.342.786-2.276.786-.934 0-1.695-.253-2.283-.758-.584-.506-.875-1.174-.875-2.003h1.271c0 .524.171.943.513 1.257.342.315.8.472 1.374.472.61 0 1.078-.159 1.401-.478.324-.319.486-.777.486-1.374 0-.579-.178-1.024-.534-1.333-.355-.31-.868-.47-1.538-.479h-.95v-1.032zm8.217 2.167l-.793.827v2.598h-1.265v-10.5h1.265v6.35l.677-.813 2.303-2.434h1.538l-2.877 3.09 3.213 4.307h-1.484l-2.577-3.425zm-46.098 26.54h1.45v2.048h-1.45v2.768h-2.54v-2.768h-5.247l-.114-1.6 5.335-8.429h2.566v7.981zm-5.37 0h2.83v-4.518l-.167.29-2.663 4.228zm8.156-5.52c0-.785.255-1.421.765-1.907.51-.492 1.178-.738 2.004-.738.838 0 1.512.243 2.021.729.51.481.765 1.134.765 1.96v.633c0 .791-.255 1.427-.765 1.907-.51.481-1.177.721-2.003.721-.832 0-1.506-.24-2.022-.721-.51-.486-.765-1.139-.765-1.96v-.624zm1.688.677c0 .352.1.636.299.853.205.211.471.316.8.316.328 0 .588-.108.782-.325.193-.217.29-.507.29-.87v-.651c0-.351-.097-.635-.29-.852-.194-.217-.46-.325-.8-.325-.322 0-.583.108-.782.325-.2.211-.3.507-.3.887v.642zm4.43 6.522c0-.791.257-1.427.773-1.908.516-.486 1.184-.729 2.004-.729.832 0 1.503.24 2.013.721.515.474.773 1.13.773 1.968v.633c0 .785-.252 1.421-.756 1.907-.504.481-1.175.721-2.012.721-.844 0-1.521-.243-2.03-.729-.51-.487-.765-1.131-.765-1.934v-.65zm1.687.685c0 .322.106.598.316.826.211.229.475.343.791.343.715 0 1.073-.395 1.073-1.186v-.668c0-.352-.1-.633-.299-.844-.2-.217-.463-.325-.791-.325s-.592.108-.791.325c-.2.211-.299.501-.299.87v.659zm-4.518 1.494l-1.239-.668 6.25-10.002 1.239.668-6.25 10.002zM8.032 103.89H4.833v8.873H3.527v-8.873H.335v-1.08h7.697v1.08zm2.653 8.873H9.42v-7.396h1.265v7.396zm-1.368-9.358c0-.205.062-.378.185-.52.128-.141.314-.211.56-.211.247 0 .433.07.561.211a.75.75 0 0 1 .192.52.723.723 0 0 1-.192.513c-.128.136-.314.205-.56.205-.247 0-.433-.069-.561-.205a.74.74 0 0 1-.185-.513zm4.587 1.962l.034.82c.543-.638 1.274-.957 2.195-.957 1.034 0 1.738.397 2.112 1.19a2.81 2.81 0 0 1 .957-.862c.397-.218.864-.328 1.401-.328 1.623 0 2.448.859 2.475 2.577v4.956h-1.264v-4.88c0-.529-.121-.923-.363-1.183-.241-.264-.647-.397-1.217-.397-.469 0-.859.142-1.169.424-.31.278-.49.654-.54 1.128v4.908h-1.271v-4.846c0-1.076-.527-1.614-1.58-1.614-.829 0-1.396.354-1.701 1.06v5.4h-1.265v-7.396h1.196zm17.35 3.78c0 1.13-.26 2.04-.78 2.728-.519.683-1.216 1.025-2.091 1.025-.934 0-1.657-.33-2.167-.991l-.062.854h-1.162v-10.5h1.265v3.917c.51-.633 1.214-.95 2.112-.95.898 0 1.602.34 2.112 1.019.515.679.773 1.609.773 2.789v.109zm-1.265-.143c0-.862-.166-1.527-.499-1.996-.332-.47-.811-.705-1.435-.705-.834 0-1.434.388-1.798 1.163v3.199c.387.775.991 1.162 1.811 1.162.606 0 1.078-.235 1.415-.704.338-.47.506-1.176.506-2.119zm5.934 3.896c-1.003 0-1.819-.328-2.447-.984-.63-.661-.944-1.543-.944-2.646v-.232c0-.734.14-1.388.417-1.962a3.287 3.287 0 0 1 1.176-1.354 2.959 2.959 0 0 1 1.64-.492c.962 0 1.71.317 2.243.95.533.634.8 1.541.8 2.721v.526h-5.011c.018.73.23 1.32.636 1.771.41.447.93.67 1.558.67.447 0 .825-.091 1.135-.274a2.85 2.85 0 0 0 .814-.724l.772.601c-.62.953-1.55 1.429-2.79 1.429zm-.157-6.631c-.51 0-.94.187-1.285.561-.347.369-.561.889-.643 1.558h3.705v-.095c-.036-.643-.21-1.14-.52-1.491-.31-.355-.729-.533-1.257-.533zm8.087.233a3.777 3.777 0 0 0-.623-.048c-.829 0-1.392.353-1.688 1.059v5.25h-1.265v-7.396h1.23l.021.854c.415-.66 1.003-.991 1.764-.991.246 0 .433.032.56.096v1.176zm9.084 1.271l.505-4.963h5.1v1.169h-4.026l-.301 2.714a3.214 3.214 0 0 1 1.661-.431c.907 0 1.627.301 2.16.903.533.597.8 1.406.8 2.427 0 1.025-.278 1.834-.834 2.426-.552.588-1.324.882-2.317.882-.88 0-1.598-.244-2.154-.731-.556-.488-.873-1.162-.95-2.024h1.196c.078.57.28 1.001.609 1.292.328.287.76.431 1.299.431.587 0 1.048-.201 1.38-.602.338-.401.506-.954.506-1.661 0-.665-.182-1.198-.547-1.599-.36-.406-.84-.609-1.442-.609-.551 0-.984.121-1.299.363l-.335.273-1.011-.26zm13.521.745c0 1.481-.253 2.582-.759 3.302-.506.72-1.296 1.08-2.372 1.08-1.062 0-1.848-.351-2.358-1.053-.51-.706-.775-1.759-.793-3.158v-1.688c0-1.463.253-2.55.759-3.261.505-.711 1.298-1.066 2.378-1.066 1.071 0 1.86.344 2.366 1.032.506.683.765 1.741.779 3.172v1.64zm-1.265-1.729c0-1.071-.15-1.85-.45-2.338-.302-.492-.778-.738-1.43-.738-.647 0-1.118.243-1.415.731-.296.488-.449 1.237-.458 2.249v2.024c0 1.075.155 1.87.465 2.385.315.511.789.766 1.422.766.625 0 1.087-.242 1.388-.725.305-.483.465-1.244.478-2.283v-2.071zm2.974 7.957l-.718-.492c.429-.597.652-1.213.67-1.846v-1.142h1.237v.992c0 .46-.113.92-.341 1.38-.224.461-.506.83-.848 1.108zm8.695-9.338c0 .497-.132.939-.396 1.326-.26.388-.613.691-1.06.909.52.224.93.549 1.23.978.306.428.459.914.459 1.456 0 .861-.292 1.547-.875 2.058-.579.51-1.342.765-2.29.765-.957 0-1.725-.255-2.304-.765-.574-.515-.861-1.201-.861-2.058 0-.538.145-1.023.437-1.456a2.772 2.772 0 0 1 1.224-.985 2.597 2.597 0 0 1-1.046-.909 2.343 2.343 0 0 1-.383-1.319c0-.839.269-1.504.807-1.996.537-.492 1.246-.738 2.126-.738.875 0 1.581.246 2.119.738.542.492.813 1.157.813 1.996zm-1.032 4.642c0-.556-.178-1.01-.533-1.361-.351-.351-.811-.526-1.381-.526s-1.028.173-1.374.519c-.342.347-.513.802-.513 1.368 0 .565.167 1.009.5 1.333.337.323.804.485 1.4.485.593 0 1.058-.162 1.395-.485.338-.329.506-.773.506-1.333zm-1.9-6.337c-.497 0-.9.155-1.21.464-.306.306-.458.723-.458 1.251 0 .506.15.916.45 1.231.306.31.712.465 1.218.465.505 0 .909-.155 1.21-.465.305-.315.458-.725.458-1.231 0-.505-.158-.918-.472-1.237-.315-.319-.713-.478-1.196-.478zm6.952 5.626l-.793.827v2.597h-1.265v-10.5h1.265v6.351l.677-.813 2.303-2.434h1.538l-2.877 3.09 3.212 4.306H83.46l-2.577-3.424zM3.454 133.174h1.354c.644 0 1.122-.161 1.432-.483.31-.323.466-.75.466-1.284 0-.515-.155-.917-.466-1.204-.304-.287-.726-.43-1.265-.43-.487 0-.894.134-1.222.404a1.266 1.266 0 0 0-.492 1.037H.72c0-.668.178-1.266.536-1.793.363-.533.867-.949 1.512-1.248a5.072 5.072 0 0 1 2.144-.448c1.354 0 2.414.325 3.182.975.767.645 1.151 1.536 1.151 2.672a2.7 2.7 0 0 1-.536 1.618c-.357.492-.826.87-1.406 1.133.72.258 1.257.645 1.608 1.16.358.516.536 1.125.536 1.829 0 1.136-.416 2.047-1.248 2.733-.826.686-1.922 1.028-3.287 1.028-1.277 0-2.323-.337-3.138-1.01-.808-.674-1.212-1.565-1.212-2.672h2.54c0 .48.178.873.536 1.177.363.305.808.457 1.336.457.603 0 1.075-.158 1.415-.474.345-.322.518-.747.518-1.275 0-1.277-.703-1.916-2.11-1.916H3.455v-1.986zm7.717-2.812c0-.786.255-1.421.764-1.908.51-.492 1.178-.738 2.005-.738.837 0 1.511.243 2.02.73.51.48.766 1.133.766 1.96v.632c0 .791-.255 1.427-.765 1.908-.51.48-1.178.72-2.004.72-.832 0-1.506-.24-2.022-.72-.51-.487-.764-1.14-.764-1.96v-.624zm1.687.676c0 .352.1.636.3.853.204.211.47.316.799.316.328 0 .589-.108.782-.325.194-.217.29-.507.29-.87v-.65c0-.352-.096-.636-.29-.853-.193-.217-.46-.325-.8-.325-.322 0-.583.108-.782.325-.199.211-.299.507-.299.888v.641zm4.43 6.522c0-.791.258-1.427.773-1.907.516-.487 1.184-.73 2.004-.73.832 0 1.503.24 2.013.721.516.474.774 1.131.774 1.969v.632c0 .786-.252 1.421-.756 1.908-.504.48-1.175.72-2.013.72-.844 0-1.52-.243-2.03-.729-.51-.487-.765-1.131-.765-1.934v-.65zm1.688.685c0 .323.105.598.316.827.21.228.475.342.791.342.715 0 1.072-.395 1.072-1.186v-.668c0-.352-.1-.633-.299-.844-.199-.217-.462-.325-.79-.325-.329 0-.592.108-.792.325-.199.211-.298.501-.298.87v.659zm-4.518 1.495l-1.24-.668 6.25-10.002 1.239.668-6.249 10.002zm270.72-114.665c-1.847 0-3.268-1.42-3.268-3.267s1.421-3.268 3.268-3.268c1.847 0 3.268 1.421 3.268 3.268 0 1.704-1.421 3.267-3.268 3.267zm116.797 64.071c-1.847 0-3.268-1.42-3.268-3.268 0-1.847 1.421-3.267 3.268-3.267 1.847 0 3.268 1.42 3.268 3.267s-1.421 3.268-3.268 3.268zm8.951 110.809c-1.847 0-3.268 1.421-3.268 3.268 0 1.847 1.421 3.267 3.268 3.267 1.847 0 3.268-1.42 3.268-3.267s-1.421-3.268-3.268-3.268zm-199.207 70.464c-1.847 0-3.268 1.42-3.268 3.267s1.421 3.268 3.268 3.268c1.847 0 3.268-1.421 3.268-3.268 0-1.847-1.421-3.267-3.268-3.267zM164.404 90.993c1.847 0 3.268 1.42 3.268 3.267s-1.421 3.268-3.268 3.268c-1.847 0-3.268-1.42-3.268-3.268 0-1.847 1.421-3.267 3.268-3.267z" fill="#009487"/><path d="M547.616 21.666H285.179m262.436 64.212h-145.64m146.067 210.397H410.927v-93.052m-43.622 183.688H211.719V273.686m-199.634.142H123.34V94.402h41.064" stroke="#009487" stroke-width=".5" stroke-miterlimit="10"/><path d="M.007 120.968h105.571V65.279h73.034" stroke="#009487" stroke-width=".5" stroke-miterlimit="10"/><path d="M178.612 61.87c1.847 0 3.268 1.42 3.268 3.267s-1.421 3.268-3.268 3.268c-1.847 0-3.268-1.42-3.268-3.268-.142-1.704 1.421-3.267 3.268-3.267z" fill="#009487"/></svg>